%TF.GenerationSoftware,KiCad,Pcbnew,10.0.1*%
%TF.CreationDate,2026-09-18T13:35:24+03:00*%
%TF.ProjectId,EuroPlatvorm,4575726f-506c-4617-9476-6f726d2e6b69,rev?*%
%TF.SameCoordinates,Original*%
%TF.FileFunction,Copper,L3,Inr*%
%TF.FilePolarity,Positive*%
%FSLAX46Y46*%
G04 Gerber Fmt 4.6, Leading zero omitted, Abs format (unit mm)*
G04 Created by KiCad (PCBNEW 10.0.1) date 2026-09-18 13:35:24*
%MOMM*%
%LPD*%
G01*
G04 APERTURE LIST*
%TA.AperFunction,ComponentPad*%
%ADD10R,1.700000X1.700000*%
%TD*%
%TA.AperFunction,ComponentPad*%
%ADD11C,1.700000*%
%TD*%
%TA.AperFunction,ComponentPad*%
%ADD12O,1.200000X2.000000*%
%TD*%
%TA.AperFunction,ComponentPad*%
%ADD13O,1.200000X1.800000*%
%TD*%
%TA.AperFunction,ViaPad*%
%ADD14C,0.600000*%
%TD*%
%TA.AperFunction,ViaPad*%
%ADD15C,0.800000*%
%TD*%
G04 APERTURE END LIST*
D10*
%TO.N,/-12V*%
%TO.C,J1*%
X142460000Y-99590000D03*
D11*
X145000000Y-99590000D03*
%TO.N,GND*%
X142460000Y-102130000D03*
X145000000Y-102130000D03*
X142460000Y-104670000D03*
X145000000Y-104670000D03*
X142460000Y-107210000D03*
X145000000Y-107210000D03*
%TO.N,+12V*%
X142460000Y-109750000D03*
X145000000Y-109750000D03*
%TD*%
D12*
%TO.N,GND*%
%TO.C,J2*%
X148060000Y-131570000D03*
D13*
X148060000Y-135750000D03*
X139400000Y-135750000D03*
D12*
X139400000Y-131570000D03*
%TD*%
D10*
%TO.N,/GPIO23*%
%TO.C,J4*%
X149900000Y-71500000D03*
D11*
%TO.N,/GPIO22*%
X149900000Y-74040000D03*
%TO.N,/GPIO21*%
X149900000Y-76580000D03*
%TO.N,/GPIO20*%
X149900000Y-79120000D03*
%TO.N,/GPIO19*%
X149900000Y-81660000D03*
%TO.N,/GPIO18*%
X149900000Y-84200000D03*
%TO.N,/GPIO17*%
X149900000Y-86740000D03*
%TO.N,/GPIO16*%
X149900000Y-89280000D03*
%TO.N,/GPIO15*%
X149900000Y-91820000D03*
%TO.N,/GPIO11*%
X149900000Y-94360000D03*
%TO.N,/GPIO10*%
X149900000Y-96900000D03*
%TO.N,/GPIO9*%
X149900000Y-99440000D03*
%TO.N,/GPIO8*%
X149900000Y-101980000D03*
%TO.N,GND*%
X149900000Y-104520000D03*
%TD*%
D10*
%TO.N,+3V3*%
%TO.C,J3*%
X137220000Y-71500000D03*
D11*
%TO.N,+12V*%
X137220000Y-74040000D03*
%TO.N,/-12V*%
X137220000Y-76580000D03*
%TO.N,/GPIO0*%
X137220000Y-79120000D03*
%TO.N,/GPIO1*%
X137220000Y-81660000D03*
%TO.N,/GPIO2*%
X137220000Y-84200000D03*
%TO.N,/GPIO3*%
X137220000Y-86740000D03*
%TO.N,/GPIO4*%
X137220000Y-89280000D03*
%TO.N,/GPIO5*%
X137220000Y-91820000D03*
%TO.N,/GPIO6*%
X137220000Y-94360000D03*
%TO.N,/GPIO7*%
X137220000Y-96900000D03*
%TO.N,/USB_DP*%
X137220000Y-99440000D03*
%TO.N,/USB_DM*%
X137220000Y-101980000D03*
%TO.N,GND*%
X137220000Y-104520000D03*
%TD*%
D14*
%TO.N,GND*%
X139500000Y-57500000D03*
X152460000Y-129060000D03*
X139500000Y-53000000D03*
X142000000Y-57500000D03*
X133300000Y-132500000D03*
X143000000Y-67000000D03*
D15*
X138600000Y-114300000D03*
D14*
X137000000Y-127000000D03*
X134500000Y-123000000D03*
X142000000Y-52500000D03*
X152500000Y-122000000D03*
X144500000Y-53000000D03*
X139500000Y-55000000D03*
X133350000Y-67000000D03*
X144000000Y-135000000D03*
X138750000Y-111500000D03*
X135600000Y-117200000D03*
X150500000Y-49500000D03*
X133700000Y-52800000D03*
X144500000Y-57500000D03*
X144500000Y-55000000D03*
X133400000Y-130600000D03*
X142400000Y-119000000D03*
X136500000Y-49500000D03*
X142250000Y-91000000D03*
X152200000Y-116700000D03*
X151000000Y-121100000D03*
X140250000Y-102250000D03*
%TO.N,+3V3*%
X146750000Y-86500000D03*
X139750000Y-104500000D03*
X139000000Y-126500000D03*
X147160000Y-126050000D03*
X137000000Y-51500000D03*
X152000000Y-112400000D03*
X141600000Y-114900000D03*
X148360000Y-124150000D03*
X142500000Y-73500000D03*
X149500000Y-122500000D03*
X148250000Y-106750000D03*
X147160000Y-124150000D03*
D15*
X137700000Y-121000000D03*
D14*
X148360000Y-126050000D03*
%TO.N,Net-(U4-EN{slash}CHIP_PU)*%
X136250000Y-52250000D03*
X141750000Y-67500000D03*
%TO.N,/GPIO9*%
X146750000Y-96250000D03*
X145750000Y-91000000D03*
%TO.N,/USB_DP*%
X134500000Y-132500000D03*
X134750000Y-67000000D03*
X134500000Y-130538738D03*
X144000000Y-133500000D03*
%TO.N,/USB_DM*%
X135500000Y-127500000D03*
X143500000Y-129000000D03*
X135412500Y-131900000D03*
%TO.N,/GPIO8*%
X136000000Y-60750000D03*
X148000000Y-101000000D03*
%TO.N,/GPIO4*%
X138750000Y-73000000D03*
X138250000Y-64000000D03*
%TO.N,/GPIO5*%
X137000000Y-54000000D03*
X138500000Y-51750000D03*
%TO.N,/GPIO6*%
X143500000Y-84000000D03*
X138000000Y-56750000D03*
%TO.N,/GPIO7*%
X144250000Y-83250000D03*
X137000000Y-56500000D03*
%TO.N,/GPIO0*%
X137500000Y-58500000D03*
X143000000Y-66000000D03*
%TO.N,/GPIO1*%
X137000000Y-59550000D03*
X142500000Y-65250000D03*
%TO.N,/GPIO10*%
X144750000Y-96250000D03*
X138500000Y-62250000D03*
%TO.N,/GPIO11*%
X144000000Y-95500000D03*
X140169240Y-63000000D03*
%TO.N,/GPIO18*%
X149750000Y-66750000D03*
%TO.N,/GPIO19*%
X150150000Y-63500000D03*
%TO.N,/GPIO20*%
X150800988Y-62975000D03*
%TO.N,/GPIO22*%
X150250000Y-61750000D03*
X150625000Y-59875000D03*
%TO.N,/GPIO23*%
X149285860Y-65455099D03*
X149500000Y-60000000D03*
%TO.N,/GPIO15*%
X150250000Y-56250000D03*
X146250000Y-64500000D03*
%TO.N,/GPIO17*%
X147188173Y-67811827D03*
X146750000Y-83500000D03*
%TO.N,/GPIO3*%
X150500000Y-52000000D03*
X143240000Y-86740000D03*
%TO.N,/GPIO2*%
X150500000Y-50750000D03*
X143250000Y-85750000D03*
%TD*%
%TA.AperFunction,Conductor*%
%TO.N,+3V3*%
G36*
X154042539Y-48070185D02*
G01*
X154088294Y-48122989D01*
X154099500Y-48174500D01*
X154099500Y-137075500D01*
X154079815Y-137142539D01*
X154027011Y-137188294D01*
X153975500Y-137199500D01*
X148731765Y-137199500D01*
X148664726Y-137179815D01*
X148618971Y-137127011D01*
X148609027Y-137057853D01*
X148638052Y-136994297D01*
X148658879Y-136975182D01*
X148667714Y-136968762D01*
X148776928Y-136889414D01*
X148899414Y-136766928D01*
X149001232Y-136626788D01*
X149079873Y-136472445D01*
X149133402Y-136307701D01*
X149160500Y-136136611D01*
X149160500Y-135363389D01*
X149133402Y-135192299D01*
X149079873Y-135027555D01*
X149001232Y-134873212D01*
X148899414Y-134733072D01*
X148776928Y-134610586D01*
X148636788Y-134508768D01*
X148482445Y-134430127D01*
X148317701Y-134376598D01*
X148317699Y-134376597D01*
X148317698Y-134376597D01*
X148169353Y-134353102D01*
X148146611Y-134349500D01*
X147973389Y-134349500D01*
X147950647Y-134353102D01*
X147802302Y-134376597D01*
X147637552Y-134430128D01*
X147483211Y-134508768D01*
X147403256Y-134566859D01*
X147343072Y-134610586D01*
X147343070Y-134610588D01*
X147343069Y-134610588D01*
X147220588Y-134733069D01*
X147220588Y-134733070D01*
X147220586Y-134733072D01*
X147196301Y-134766498D01*
X147118768Y-134873211D01*
X147040128Y-135027552D01*
X146986597Y-135192302D01*
X146980072Y-135233501D01*
X146959500Y-135363389D01*
X146959500Y-136136611D01*
X146986598Y-136307701D01*
X147040127Y-136472445D01*
X147118768Y-136626788D01*
X147220586Y-136766928D01*
X147343072Y-136889414D01*
X147442407Y-136961586D01*
X147461121Y-136975182D01*
X147503786Y-137030513D01*
X147509765Y-137100126D01*
X147477159Y-137161921D01*
X147416320Y-137196278D01*
X147388235Y-137199500D01*
X140071765Y-137199500D01*
X140004726Y-137179815D01*
X139958971Y-137127011D01*
X139949027Y-137057853D01*
X139978052Y-136994297D01*
X139998879Y-136975182D01*
X140007714Y-136968762D01*
X140116928Y-136889414D01*
X140239414Y-136766928D01*
X140341232Y-136626788D01*
X140419873Y-136472445D01*
X140473402Y-136307701D01*
X140500500Y-136136611D01*
X140500500Y-135363389D01*
X140473402Y-135192299D01*
X140419873Y-135027555D01*
X140341232Y-134873212D01*
X140239414Y-134733072D01*
X140116928Y-134610586D01*
X139976788Y-134508768D01*
X139822445Y-134430127D01*
X139657701Y-134376598D01*
X139657699Y-134376597D01*
X139657698Y-134376597D01*
X139509353Y-134353102D01*
X139486611Y-134349500D01*
X139313389Y-134349500D01*
X139290647Y-134353102D01*
X139142302Y-134376597D01*
X138977552Y-134430128D01*
X138823211Y-134508768D01*
X138743256Y-134566859D01*
X138683072Y-134610586D01*
X138683070Y-134610588D01*
X138683069Y-134610588D01*
X138560588Y-134733069D01*
X138560588Y-134733070D01*
X138560586Y-134733072D01*
X138536301Y-134766498D01*
X138458768Y-134873211D01*
X138380128Y-135027552D01*
X138326597Y-135192302D01*
X138320072Y-135233501D01*
X138299500Y-135363389D01*
X138299500Y-136136611D01*
X138326598Y-136307701D01*
X138380127Y-136472445D01*
X138458768Y-136626788D01*
X138560586Y-136766928D01*
X138683072Y-136889414D01*
X138782407Y-136961586D01*
X138801121Y-136975182D01*
X138843786Y-137030513D01*
X138849765Y-137100126D01*
X138817159Y-137161921D01*
X138756320Y-137196278D01*
X138728235Y-137199500D01*
X133124500Y-137199500D01*
X133057461Y-137179815D01*
X133011706Y-137127011D01*
X133000500Y-137075500D01*
X133000500Y-133421153D01*
X143199500Y-133421153D01*
X143199500Y-133578846D01*
X143230261Y-133733489D01*
X143230264Y-133733501D01*
X143290602Y-133879172D01*
X143290609Y-133879185D01*
X143378210Y-134010288D01*
X143378213Y-134010292D01*
X143489707Y-134121786D01*
X143489710Y-134121788D01*
X143489711Y-134121789D01*
X143515219Y-134138833D01*
X143527289Y-134146898D01*
X143572093Y-134200511D01*
X143580800Y-134269836D01*
X143550645Y-134332863D01*
X143527289Y-134353102D01*
X143489707Y-134378213D01*
X143378213Y-134489707D01*
X143378210Y-134489711D01*
X143290609Y-134620814D01*
X143290602Y-134620827D01*
X143230264Y-134766498D01*
X143230261Y-134766510D01*
X143199500Y-134921153D01*
X143199500Y-135078846D01*
X143230261Y-135233489D01*
X143230264Y-135233501D01*
X143290602Y-135379172D01*
X143290609Y-135379185D01*
X143378210Y-135510288D01*
X143378213Y-135510292D01*
X143489707Y-135621786D01*
X143489711Y-135621789D01*
X143620814Y-135709390D01*
X143620827Y-135709397D01*
X143766498Y-135769735D01*
X143766503Y-135769737D01*
X143921153Y-135800499D01*
X143921156Y-135800500D01*
X143921158Y-135800500D01*
X144078844Y-135800500D01*
X144078845Y-135800499D01*
X144233497Y-135769737D01*
X144379179Y-135709394D01*
X144510289Y-135621789D01*
X144621789Y-135510289D01*
X144709394Y-135379179D01*
X144769737Y-135233497D01*
X144800500Y-135078842D01*
X144800500Y-134921158D01*
X144800500Y-134921155D01*
X144800499Y-134921153D01*
X144769738Y-134766510D01*
X144769737Y-134766503D01*
X144755888Y-134733069D01*
X144709397Y-134620827D01*
X144709390Y-134620814D01*
X144621789Y-134489711D01*
X144621786Y-134489707D01*
X144510292Y-134378213D01*
X144510284Y-134378207D01*
X144472712Y-134353102D01*
X144427906Y-134299490D01*
X144419199Y-134230165D01*
X144449353Y-134167138D01*
X144472712Y-134146898D01*
X144499279Y-134129145D01*
X144510289Y-134121789D01*
X144621789Y-134010289D01*
X144709394Y-133879179D01*
X144769737Y-133733497D01*
X144800500Y-133578842D01*
X144800500Y-133421158D01*
X144800500Y-133421155D01*
X144800499Y-133421153D01*
X144769738Y-133266510D01*
X144769737Y-133266503D01*
X144709794Y-133121786D01*
X144709397Y-133120827D01*
X144709390Y-133120814D01*
X144621789Y-132989711D01*
X144621786Y-132989707D01*
X144510292Y-132878213D01*
X144510288Y-132878210D01*
X144379185Y-132790609D01*
X144379172Y-132790602D01*
X144233501Y-132730264D01*
X144233489Y-132730261D01*
X144078845Y-132699500D01*
X144078842Y-132699500D01*
X143921158Y-132699500D01*
X143921155Y-132699500D01*
X143766510Y-132730261D01*
X143766498Y-132730264D01*
X143620827Y-132790602D01*
X143620814Y-132790609D01*
X143489711Y-132878210D01*
X143489707Y-132878213D01*
X143378213Y-132989707D01*
X143378210Y-132989711D01*
X143290609Y-133120814D01*
X143290602Y-133120827D01*
X143230264Y-133266498D01*
X143230261Y-133266510D01*
X143199500Y-133421153D01*
X133000500Y-133421153D01*
X133000500Y-133407702D01*
X133020185Y-133340663D01*
X133072989Y-133294908D01*
X133142147Y-133284964D01*
X133148667Y-133286080D01*
X133205435Y-133297372D01*
X133221157Y-133300500D01*
X133221158Y-133300500D01*
X133378844Y-133300500D01*
X133378845Y-133300499D01*
X133533497Y-133269737D01*
X133679179Y-133209394D01*
X133810289Y-133121789D01*
X133812312Y-133119766D01*
X133813634Y-133119043D01*
X133814999Y-133117924D01*
X133815211Y-133118182D01*
X133873632Y-133086276D01*
X133943324Y-133091255D01*
X133984939Y-133117999D01*
X133985001Y-133117924D01*
X133985648Y-133118454D01*
X133987688Y-133119766D01*
X133989711Y-133121789D01*
X134120814Y-133209390D01*
X134120827Y-133209397D01*
X134258683Y-133266498D01*
X134266503Y-133269737D01*
X134421153Y-133300499D01*
X134421156Y-133300500D01*
X134421158Y-133300500D01*
X134578844Y-133300500D01*
X134578845Y-133300499D01*
X134589179Y-133298443D01*
X134614287Y-133293450D01*
X134614292Y-133293449D01*
X134699800Y-133276439D01*
X134733497Y-133269737D01*
X134879179Y-133209394D01*
X135010289Y-133121789D01*
X135121789Y-133010289D01*
X135209394Y-132879179D01*
X135209795Y-132878210D01*
X135251698Y-132777048D01*
X135295538Y-132722644D01*
X135361833Y-132700579D01*
X135366259Y-132700500D01*
X135491344Y-132700500D01*
X135491345Y-132700499D01*
X135645997Y-132669737D01*
X135791679Y-132609394D01*
X135922789Y-132521789D01*
X136034289Y-132410289D01*
X136121894Y-132279179D01*
X136182237Y-132133497D01*
X136213000Y-131978842D01*
X136213000Y-131821158D01*
X136213000Y-131821155D01*
X136212999Y-131821153D01*
X136195262Y-131731985D01*
X136182237Y-131666503D01*
X136165971Y-131627232D01*
X136121897Y-131520827D01*
X136121890Y-131520814D01*
X136034289Y-131389711D01*
X136034286Y-131389707D01*
X135922792Y-131278213D01*
X135922788Y-131278210D01*
X135791679Y-131190605D01*
X135646001Y-131130264D01*
X135645989Y-131130261D01*
X135491345Y-131099500D01*
X135491342Y-131099500D01*
X135333658Y-131099500D01*
X135333648Y-131099500D01*
X135330893Y-131099771D01*
X135329465Y-131099500D01*
X135327566Y-131099500D01*
X135327566Y-131099139D01*
X135262249Y-131086745D01*
X135258709Y-131083389D01*
X138299500Y-131083389D01*
X138299500Y-132056610D01*
X138313099Y-132142475D01*
X138326598Y-132227701D01*
X138343326Y-132279185D01*
X138380128Y-132392447D01*
X138439735Y-132509433D01*
X138458768Y-132546788D01*
X138560586Y-132686928D01*
X138683072Y-132809414D01*
X138823212Y-132911232D01*
X138977555Y-132989873D01*
X139142299Y-133043402D01*
X139313389Y-133070500D01*
X139313390Y-133070500D01*
X139486610Y-133070500D01*
X139486611Y-133070500D01*
X139657701Y-133043402D01*
X139822445Y-132989873D01*
X139976788Y-132911232D01*
X140116928Y-132809414D01*
X140239414Y-132686928D01*
X140331337Y-132560407D01*
X140386666Y-132517742D01*
X140456279Y-132511763D01*
X140493650Y-132525904D01*
X140592515Y-132582984D01*
X140732525Y-132620500D01*
X140732528Y-132620500D01*
X140927472Y-132620500D01*
X140927475Y-132620500D01*
X141067485Y-132582984D01*
X141193015Y-132510509D01*
X141295509Y-132408015D01*
X141367984Y-132282485D01*
X141405500Y-132142475D01*
X141405500Y-131997525D01*
X146054500Y-131997525D01*
X146054500Y-132142475D01*
X146077337Y-132227701D01*
X146092017Y-132282488D01*
X146164488Y-132408011D01*
X146164490Y-132408013D01*
X146164491Y-132408015D01*
X146266985Y-132510509D01*
X146266986Y-132510510D01*
X146266988Y-132510511D01*
X146392511Y-132582982D01*
X146392512Y-132582982D01*
X146392515Y-132582984D01*
X146532525Y-132620500D01*
X146532528Y-132620500D01*
X146727472Y-132620500D01*
X146727475Y-132620500D01*
X146867485Y-132582984D01*
X146867487Y-132582982D01*
X146867489Y-132582982D01*
X146867490Y-132582981D01*
X146966345Y-132525906D01*
X147034244Y-132509433D01*
X147100271Y-132532285D01*
X147128662Y-132560406D01*
X147220586Y-132686928D01*
X147343072Y-132809414D01*
X147483212Y-132911232D01*
X147637555Y-132989873D01*
X147802299Y-133043402D01*
X147973389Y-133070500D01*
X147973390Y-133070500D01*
X148146610Y-133070500D01*
X148146611Y-133070500D01*
X148317701Y-133043402D01*
X148482445Y-132989873D01*
X148636788Y-132911232D01*
X148776928Y-132809414D01*
X148899414Y-132686928D01*
X149001232Y-132546788D01*
X149079873Y-132392445D01*
X149133402Y-132227701D01*
X149160500Y-132056611D01*
X149160500Y-131083389D01*
X149133402Y-130912299D01*
X149079873Y-130747555D01*
X149001232Y-130593212D01*
X148899414Y-130453072D01*
X148776928Y-130330586D01*
X148636788Y-130228768D01*
X148482445Y-130150127D01*
X148317701Y-130096598D01*
X148317699Y-130096597D01*
X148317698Y-130096597D01*
X148186271Y-130075781D01*
X148146611Y-130069500D01*
X147973389Y-130069500D01*
X147933728Y-130075781D01*
X147802302Y-130096597D01*
X147637552Y-130150128D01*
X147483211Y-130228768D01*
X147403256Y-130286859D01*
X147343072Y-130330586D01*
X147343070Y-130330588D01*
X147343069Y-130330588D01*
X147220588Y-130453069D01*
X147220588Y-130453070D01*
X147220586Y-130453072D01*
X147176859Y-130513256D01*
X147118768Y-130593211D01*
X147040128Y-130747552D01*
X146986597Y-130912302D01*
X146959500Y-131083389D01*
X146959500Y-131420071D01*
X146939815Y-131487110D01*
X146887011Y-131532865D01*
X146817853Y-131542809D01*
X146803407Y-131539846D01*
X146775783Y-131532444D01*
X146727475Y-131519500D01*
X146532525Y-131519500D01*
X146403993Y-131553940D01*
X146392511Y-131557017D01*
X146266988Y-131629488D01*
X146266982Y-131629493D01*
X146164493Y-131731982D01*
X146164488Y-131731988D01*
X146092017Y-131857511D01*
X146092016Y-131857515D01*
X146054500Y-131997525D01*
X141405500Y-131997525D01*
X141367984Y-131857515D01*
X141346993Y-131821158D01*
X141295511Y-131731988D01*
X141295506Y-131731982D01*
X141193017Y-131629493D01*
X141193011Y-131629488D01*
X141067488Y-131557017D01*
X141067489Y-131557017D01*
X141056006Y-131553940D01*
X140927475Y-131519500D01*
X140732525Y-131519500D01*
X140656593Y-131539846D01*
X140586743Y-131538183D01*
X140528881Y-131499020D01*
X140501377Y-131434792D01*
X140500500Y-131420071D01*
X140500500Y-131083389D01*
X140473402Y-130912299D01*
X140419873Y-130747555D01*
X140341232Y-130593212D01*
X140239414Y-130453072D01*
X140116928Y-130330586D01*
X139976788Y-130228768D01*
X139822445Y-130150127D01*
X139657701Y-130096598D01*
X139657699Y-130096597D01*
X139657698Y-130096597D01*
X139526271Y-130075781D01*
X139486611Y-130069500D01*
X139313389Y-130069500D01*
X139273728Y-130075781D01*
X139142302Y-130096597D01*
X138977552Y-130150128D01*
X138823211Y-130228768D01*
X138743256Y-130286859D01*
X138683072Y-130330586D01*
X138683070Y-130330588D01*
X138683069Y-130330588D01*
X138560588Y-130453069D01*
X138560588Y-130453070D01*
X138560586Y-130453072D01*
X138516859Y-130513256D01*
X138458768Y-130593211D01*
X138380128Y-130747552D01*
X138326597Y-130912302D01*
X138299500Y-131083389D01*
X135258709Y-131083389D01*
X135211544Y-131038674D01*
X135194877Y-130970821D01*
X135207773Y-130923840D01*
X135207063Y-130923546D01*
X135269735Y-130772239D01*
X135269737Y-130772235D01*
X135300500Y-130617580D01*
X135300500Y-130459896D01*
X135300500Y-130459893D01*
X135300499Y-130459891D01*
X135269738Y-130305248D01*
X135269737Y-130305241D01*
X135238061Y-130228768D01*
X135209397Y-130159565D01*
X135209390Y-130159552D01*
X135121789Y-130028449D01*
X135121786Y-130028445D01*
X135010292Y-129916951D01*
X135010288Y-129916948D01*
X134879185Y-129829347D01*
X134879172Y-129829340D01*
X134733501Y-129769002D01*
X134733489Y-129768999D01*
X134578845Y-129738238D01*
X134578842Y-129738238D01*
X134421158Y-129738238D01*
X134421155Y-129738238D01*
X134266510Y-129768999D01*
X134266498Y-129769002D01*
X134120827Y-129829340D01*
X134120814Y-129829347D01*
X133989711Y-129916948D01*
X133985001Y-129920814D01*
X133983395Y-129918858D01*
X133931742Y-129947025D01*
X133862053Y-129942001D01*
X133836562Y-129928947D01*
X133779183Y-129890608D01*
X133779172Y-129890602D01*
X133633501Y-129830264D01*
X133633489Y-129830261D01*
X133478845Y-129799500D01*
X133478842Y-129799500D01*
X133321158Y-129799500D01*
X133321155Y-129799500D01*
X133166510Y-129830261D01*
X133160676Y-129832031D01*
X133159873Y-129829385D01*
X133102056Y-129835396D01*
X133039687Y-129803902D01*
X133004245Y-129743689D01*
X133000500Y-129713444D01*
X133000500Y-128921153D01*
X142699500Y-128921153D01*
X142699500Y-129078846D01*
X142730261Y-129233489D01*
X142730264Y-129233501D01*
X142790602Y-129379172D01*
X142790609Y-129379185D01*
X142878210Y-129510288D01*
X142878213Y-129510292D01*
X142989707Y-129621786D01*
X142989711Y-129621789D01*
X143120814Y-129709390D01*
X143120827Y-129709397D01*
X143265665Y-129769390D01*
X143266503Y-129769737D01*
X143416131Y-129799500D01*
X143421153Y-129800499D01*
X143421156Y-129800500D01*
X143421158Y-129800500D01*
X143578844Y-129800500D01*
X143578845Y-129800499D01*
X143733497Y-129769737D01*
X143846166Y-129723067D01*
X143879172Y-129709397D01*
X143879172Y-129709396D01*
X143879179Y-129709394D01*
X144010289Y-129621789D01*
X144121789Y-129510289D01*
X144209394Y-129379179D01*
X144269737Y-129233497D01*
X144300500Y-129078842D01*
X144300500Y-128981153D01*
X151659500Y-128981153D01*
X151659500Y-129138846D01*
X151690261Y-129293489D01*
X151690264Y-129293501D01*
X151750602Y-129439172D01*
X151750609Y-129439185D01*
X151838210Y-129570288D01*
X151838213Y-129570292D01*
X151949707Y-129681786D01*
X151949711Y-129681789D01*
X152080814Y-129769390D01*
X152080827Y-129769397D01*
X152225554Y-129829344D01*
X152226503Y-129829737D01*
X152381153Y-129860499D01*
X152381156Y-129860500D01*
X152381158Y-129860500D01*
X152538844Y-129860500D01*
X152538845Y-129860499D01*
X152693497Y-129829737D01*
X152839179Y-129769394D01*
X152970289Y-129681789D01*
X153081789Y-129570289D01*
X153169394Y-129439179D01*
X153229737Y-129293497D01*
X153260500Y-129138842D01*
X153260500Y-128981158D01*
X153260500Y-128981155D01*
X153260499Y-128981153D01*
X153248565Y-128921158D01*
X153229737Y-128826503D01*
X153229735Y-128826498D01*
X153169397Y-128680827D01*
X153169390Y-128680814D01*
X153081789Y-128549711D01*
X153081786Y-128549707D01*
X152970292Y-128438213D01*
X152970288Y-128438210D01*
X152839185Y-128350609D01*
X152839172Y-128350602D01*
X152693501Y-128290264D01*
X152693489Y-128290261D01*
X152538845Y-128259500D01*
X152538842Y-128259500D01*
X152381158Y-128259500D01*
X152381155Y-128259500D01*
X152226510Y-128290261D01*
X152226498Y-128290264D01*
X152080827Y-128350602D01*
X152080814Y-128350609D01*
X151949711Y-128438210D01*
X151949707Y-128438213D01*
X151838213Y-128549707D01*
X151838210Y-128549711D01*
X151750609Y-128680814D01*
X151750602Y-128680827D01*
X151690264Y-128826498D01*
X151690261Y-128826510D01*
X151659500Y-128981153D01*
X144300500Y-128981153D01*
X144300500Y-128921158D01*
X144300500Y-128921155D01*
X144300499Y-128921153D01*
X144269738Y-128766510D01*
X144269737Y-128766503D01*
X144234244Y-128680814D01*
X144209397Y-128620827D01*
X144209390Y-128620814D01*
X144121789Y-128489711D01*
X144121786Y-128489707D01*
X144010292Y-128378213D01*
X144010288Y-128378210D01*
X143879185Y-128290609D01*
X143879172Y-128290602D01*
X143733501Y-128230264D01*
X143733489Y-128230261D01*
X143578845Y-128199500D01*
X143578842Y-128199500D01*
X143421158Y-128199500D01*
X143421155Y-128199500D01*
X143266510Y-128230261D01*
X143266498Y-128230264D01*
X143120827Y-128290602D01*
X143120814Y-128290609D01*
X142989711Y-128378210D01*
X142989707Y-128378213D01*
X142878213Y-128489707D01*
X142878210Y-128489711D01*
X142790609Y-128620814D01*
X142790602Y-128620827D01*
X142730264Y-128766498D01*
X142730261Y-128766510D01*
X142699500Y-128921153D01*
X133000500Y-128921153D01*
X133000500Y-127421153D01*
X134699500Y-127421153D01*
X134699500Y-127578846D01*
X134730261Y-127733489D01*
X134730264Y-127733501D01*
X134790602Y-127879172D01*
X134790609Y-127879185D01*
X134878210Y-128010288D01*
X134878213Y-128010292D01*
X134989707Y-128121786D01*
X134989711Y-128121789D01*
X135120814Y-128209390D01*
X135120827Y-128209397D01*
X135266498Y-128269735D01*
X135266503Y-128269737D01*
X135421153Y-128300499D01*
X135421156Y-128300500D01*
X135421158Y-128300500D01*
X135578844Y-128300500D01*
X135578845Y-128300499D01*
X135733497Y-128269737D01*
X135879179Y-128209394D01*
X136010289Y-128121789D01*
X136121789Y-128010289D01*
X136209394Y-127879179D01*
X136269737Y-127733497D01*
X136279508Y-127684373D01*
X136311892Y-127622464D01*
X136372607Y-127587890D01*
X136442377Y-127591629D01*
X136484696Y-127618295D01*
X136485001Y-127617924D01*
X136487957Y-127620350D01*
X136488806Y-127620885D01*
X136489707Y-127621786D01*
X136489711Y-127621789D01*
X136620814Y-127709390D01*
X136620827Y-127709397D01*
X136766498Y-127769735D01*
X136766503Y-127769737D01*
X136921153Y-127800499D01*
X136921156Y-127800500D01*
X136921158Y-127800500D01*
X137078844Y-127800500D01*
X137078845Y-127800499D01*
X137233497Y-127769737D01*
X137379179Y-127709394D01*
X137510289Y-127621789D01*
X137621789Y-127510289D01*
X137709394Y-127379179D01*
X137769737Y-127233497D01*
X137800500Y-127078842D01*
X137800500Y-126921158D01*
X137800500Y-126921155D01*
X137800499Y-126921153D01*
X137774531Y-126790606D01*
X137769737Y-126766503D01*
X137769735Y-126766498D01*
X137709397Y-126620827D01*
X137709390Y-126620814D01*
X137621789Y-126489711D01*
X137621786Y-126489707D01*
X137510292Y-126378213D01*
X137510288Y-126378210D01*
X137379185Y-126290609D01*
X137379172Y-126290602D01*
X137233501Y-126230264D01*
X137233489Y-126230261D01*
X137078845Y-126199500D01*
X137078842Y-126199500D01*
X136921158Y-126199500D01*
X136921155Y-126199500D01*
X136766510Y-126230261D01*
X136766498Y-126230264D01*
X136620827Y-126290602D01*
X136620814Y-126290609D01*
X136489711Y-126378210D01*
X136489707Y-126378213D01*
X136378213Y-126489707D01*
X136378210Y-126489711D01*
X136290609Y-126620814D01*
X136290602Y-126620827D01*
X136230264Y-126766498D01*
X136230261Y-126766507D01*
X136220491Y-126815626D01*
X136188105Y-126877536D01*
X136127389Y-126912110D01*
X136057620Y-126908369D01*
X136015303Y-126881704D01*
X136014999Y-126882076D01*
X136012040Y-126879647D01*
X136011193Y-126879114D01*
X136010292Y-126878213D01*
X136010288Y-126878210D01*
X135879185Y-126790609D01*
X135879172Y-126790602D01*
X135733501Y-126730264D01*
X135733489Y-126730261D01*
X135578845Y-126699500D01*
X135578842Y-126699500D01*
X135421158Y-126699500D01*
X135421155Y-126699500D01*
X135266510Y-126730261D01*
X135266498Y-126730264D01*
X135120827Y-126790602D01*
X135120814Y-126790609D01*
X134989711Y-126878210D01*
X134989707Y-126878213D01*
X134878213Y-126989707D01*
X134878210Y-126989711D01*
X134790609Y-127120814D01*
X134790602Y-127120827D01*
X134730264Y-127266498D01*
X134730261Y-127266510D01*
X134699500Y-127421153D01*
X133000500Y-127421153D01*
X133000500Y-122921153D01*
X133699500Y-122921153D01*
X133699500Y-123078846D01*
X133730261Y-123233489D01*
X133730264Y-123233501D01*
X133790602Y-123379172D01*
X133790609Y-123379185D01*
X133878210Y-123510288D01*
X133878213Y-123510292D01*
X133989707Y-123621786D01*
X133989711Y-123621789D01*
X134120814Y-123709390D01*
X134120827Y-123709397D01*
X134266498Y-123769735D01*
X134266503Y-123769737D01*
X134421153Y-123800499D01*
X134421156Y-123800500D01*
X134421158Y-123800500D01*
X134578844Y-123800500D01*
X134578845Y-123800499D01*
X134733497Y-123769737D01*
X134879179Y-123709394D01*
X135010289Y-123621789D01*
X135121789Y-123510289D01*
X135209394Y-123379179D01*
X135269737Y-123233497D01*
X135300500Y-123078842D01*
X135300500Y-122921158D01*
X135300500Y-122921155D01*
X135300499Y-122921153D01*
X135269738Y-122766510D01*
X135269737Y-122766503D01*
X135209794Y-122621786D01*
X135209397Y-122620827D01*
X135209390Y-122620814D01*
X135121789Y-122489711D01*
X135121786Y-122489707D01*
X135010292Y-122378213D01*
X135010288Y-122378210D01*
X134879185Y-122290609D01*
X134879172Y-122290602D01*
X134733501Y-122230264D01*
X134733489Y-122230261D01*
X134578845Y-122199500D01*
X134578842Y-122199500D01*
X134421158Y-122199500D01*
X134421155Y-122199500D01*
X134266510Y-122230261D01*
X134266498Y-122230264D01*
X134120827Y-122290602D01*
X134120814Y-122290609D01*
X133989711Y-122378210D01*
X133989707Y-122378213D01*
X133878213Y-122489707D01*
X133878210Y-122489711D01*
X133790609Y-122620814D01*
X133790602Y-122620827D01*
X133730264Y-122766498D01*
X133730261Y-122766510D01*
X133699500Y-122921153D01*
X133000500Y-122921153D01*
X133000500Y-121021153D01*
X150199500Y-121021153D01*
X150199500Y-121178846D01*
X150230261Y-121333489D01*
X150230264Y-121333501D01*
X150290602Y-121479172D01*
X150290609Y-121479185D01*
X150378210Y-121610288D01*
X150378213Y-121610292D01*
X150489707Y-121721786D01*
X150489711Y-121721789D01*
X150620814Y-121809390D01*
X150620827Y-121809397D01*
X150766498Y-121869735D01*
X150766503Y-121869737D01*
X150921153Y-121900499D01*
X150921156Y-121900500D01*
X150921158Y-121900500D01*
X151078844Y-121900500D01*
X151078845Y-121900499D01*
X151233497Y-121869737D01*
X151379179Y-121809394D01*
X151510289Y-121721789D01*
X151510293Y-121721784D01*
X151514999Y-121717924D01*
X151516601Y-121719877D01*
X151568199Y-121691668D01*
X151637893Y-121696616D01*
X151693848Y-121738458D01*
X151718299Y-121803909D01*
X151716237Y-121837011D01*
X151699500Y-121921153D01*
X151699500Y-122078846D01*
X151730261Y-122233489D01*
X151730264Y-122233501D01*
X151790602Y-122379172D01*
X151790609Y-122379185D01*
X151878210Y-122510288D01*
X151878213Y-122510292D01*
X151989707Y-122621786D01*
X151989711Y-122621789D01*
X152120814Y-122709390D01*
X152120827Y-122709397D01*
X152258683Y-122766498D01*
X152266503Y-122769737D01*
X152421153Y-122800499D01*
X152421156Y-122800500D01*
X152421158Y-122800500D01*
X152578844Y-122800500D01*
X152578845Y-122800499D01*
X152733497Y-122769737D01*
X152879179Y-122709394D01*
X153010289Y-122621789D01*
X153121789Y-122510289D01*
X153209394Y-122379179D01*
X153269737Y-122233497D01*
X153300500Y-122078842D01*
X153300500Y-121921158D01*
X153300500Y-121921155D01*
X153300499Y-121921153D01*
X153278269Y-121809397D01*
X153269737Y-121766503D01*
X153269735Y-121766498D01*
X153209397Y-121620827D01*
X153209390Y-121620814D01*
X153121789Y-121489711D01*
X153121786Y-121489707D01*
X153010292Y-121378213D01*
X153010288Y-121378210D01*
X152879185Y-121290609D01*
X152879172Y-121290602D01*
X152733501Y-121230264D01*
X152733489Y-121230261D01*
X152578845Y-121199500D01*
X152578842Y-121199500D01*
X152421158Y-121199500D01*
X152421155Y-121199500D01*
X152266510Y-121230261D01*
X152266498Y-121230264D01*
X152120827Y-121290602D01*
X152120814Y-121290609D01*
X151989711Y-121378210D01*
X151985001Y-121382076D01*
X151983413Y-121380141D01*
X151931674Y-121408359D01*
X151861985Y-121403338D01*
X151806073Y-121361438D01*
X151781690Y-121295960D01*
X151783761Y-121262990D01*
X151800500Y-121178842D01*
X151800500Y-121021158D01*
X151800500Y-121021155D01*
X151800499Y-121021153D01*
X151769738Y-120866510D01*
X151769737Y-120866503D01*
X151769735Y-120866498D01*
X151709397Y-120720827D01*
X151709390Y-120720814D01*
X151621789Y-120589711D01*
X151621786Y-120589707D01*
X151510292Y-120478213D01*
X151510288Y-120478210D01*
X151379185Y-120390609D01*
X151379172Y-120390602D01*
X151233501Y-120330264D01*
X151233489Y-120330261D01*
X151078845Y-120299500D01*
X151078842Y-120299500D01*
X150921158Y-120299500D01*
X150921155Y-120299500D01*
X150766510Y-120330261D01*
X150766498Y-120330264D01*
X150620827Y-120390602D01*
X150620814Y-120390609D01*
X150489711Y-120478210D01*
X150489707Y-120478213D01*
X150378213Y-120589707D01*
X150378210Y-120589711D01*
X150290609Y-120720814D01*
X150290602Y-120720827D01*
X150230264Y-120866498D01*
X150230261Y-120866510D01*
X150199500Y-121021153D01*
X133000500Y-121021153D01*
X133000500Y-118921153D01*
X141599500Y-118921153D01*
X141599500Y-119078846D01*
X141630261Y-119233489D01*
X141630264Y-119233501D01*
X141690602Y-119379172D01*
X141690609Y-119379185D01*
X141778210Y-119510288D01*
X141778213Y-119510292D01*
X141889707Y-119621786D01*
X141889711Y-119621789D01*
X142020814Y-119709390D01*
X142020827Y-119709397D01*
X142166498Y-119769735D01*
X142166503Y-119769737D01*
X142321153Y-119800499D01*
X142321156Y-119800500D01*
X142321158Y-119800500D01*
X142478844Y-119800500D01*
X142478845Y-119800499D01*
X142633497Y-119769737D01*
X142779179Y-119709394D01*
X142910289Y-119621789D01*
X143021789Y-119510289D01*
X143109394Y-119379179D01*
X143169737Y-119233497D01*
X143200500Y-119078842D01*
X143200500Y-118921158D01*
X143200500Y-118921155D01*
X143200499Y-118921153D01*
X143169738Y-118766510D01*
X143169737Y-118766503D01*
X143169735Y-118766498D01*
X143109397Y-118620827D01*
X143109390Y-118620814D01*
X143021789Y-118489711D01*
X143021786Y-118489707D01*
X142910292Y-118378213D01*
X142910288Y-118378210D01*
X142779185Y-118290609D01*
X142779172Y-118290602D01*
X142633501Y-118230264D01*
X142633489Y-118230261D01*
X142478845Y-118199500D01*
X142478842Y-118199500D01*
X142321158Y-118199500D01*
X142321155Y-118199500D01*
X142166510Y-118230261D01*
X142166498Y-118230264D01*
X142020827Y-118290602D01*
X142020814Y-118290609D01*
X141889711Y-118378210D01*
X141889707Y-118378213D01*
X141778213Y-118489707D01*
X141778210Y-118489711D01*
X141690609Y-118620814D01*
X141690602Y-118620827D01*
X141630264Y-118766498D01*
X141630261Y-118766510D01*
X141599500Y-118921153D01*
X133000500Y-118921153D01*
X133000500Y-117121153D01*
X134799500Y-117121153D01*
X134799500Y-117278846D01*
X134830261Y-117433489D01*
X134830264Y-117433501D01*
X134890602Y-117579172D01*
X134890609Y-117579185D01*
X134978210Y-117710288D01*
X134978213Y-117710292D01*
X135089707Y-117821786D01*
X135089711Y-117821789D01*
X135220814Y-117909390D01*
X135220827Y-117909397D01*
X135366498Y-117969735D01*
X135366503Y-117969737D01*
X135521153Y-118000499D01*
X135521156Y-118000500D01*
X135521158Y-118000500D01*
X135678844Y-118000500D01*
X135678845Y-118000499D01*
X135833497Y-117969737D01*
X135979179Y-117909394D01*
X136110289Y-117821789D01*
X136221789Y-117710289D01*
X136309394Y-117579179D01*
X136369737Y-117433497D01*
X136400500Y-117278842D01*
X136400500Y-117121158D01*
X136400500Y-117121155D01*
X136400499Y-117121153D01*
X136369738Y-116966510D01*
X136369737Y-116966503D01*
X136356062Y-116933489D01*
X136309397Y-116820827D01*
X136309390Y-116820814D01*
X136221790Y-116689712D01*
X136221784Y-116689705D01*
X136153232Y-116621153D01*
X151399500Y-116621153D01*
X151399500Y-116778846D01*
X151430261Y-116933489D01*
X151430264Y-116933501D01*
X151490602Y-117079172D01*
X151490609Y-117079185D01*
X151578210Y-117210288D01*
X151578213Y-117210292D01*
X151689707Y-117321786D01*
X151689711Y-117321789D01*
X151820814Y-117409390D01*
X151820827Y-117409397D01*
X151966498Y-117469735D01*
X151966503Y-117469737D01*
X152121153Y-117500499D01*
X152121156Y-117500500D01*
X152121158Y-117500500D01*
X152278844Y-117500500D01*
X152278845Y-117500499D01*
X152433497Y-117469737D01*
X152579179Y-117409394D01*
X152710289Y-117321789D01*
X152821789Y-117210289D01*
X152909394Y-117079179D01*
X152969737Y-116933497D01*
X153000500Y-116778842D01*
X153000500Y-116621158D01*
X153000500Y-116621155D01*
X153000499Y-116621153D01*
X152974531Y-116490606D01*
X152969737Y-116466503D01*
X152969735Y-116466498D01*
X152909397Y-116320827D01*
X152909390Y-116320814D01*
X152821789Y-116189711D01*
X152821786Y-116189707D01*
X152710292Y-116078213D01*
X152710288Y-116078210D01*
X152579185Y-115990609D01*
X152579172Y-115990602D01*
X152433501Y-115930264D01*
X152433489Y-115930261D01*
X152278845Y-115899500D01*
X152278842Y-115899500D01*
X152121158Y-115899500D01*
X152121155Y-115899500D01*
X151966510Y-115930261D01*
X151966498Y-115930264D01*
X151820827Y-115990602D01*
X151820814Y-115990609D01*
X151689711Y-116078210D01*
X151689707Y-116078213D01*
X151578213Y-116189707D01*
X151578210Y-116189711D01*
X151490609Y-116320814D01*
X151490602Y-116320827D01*
X151430264Y-116466498D01*
X151430261Y-116466510D01*
X151399500Y-116621153D01*
X136153232Y-116621153D01*
X136110292Y-116578213D01*
X136110288Y-116578210D01*
X135979185Y-116490609D01*
X135979172Y-116490602D01*
X135833501Y-116430264D01*
X135833489Y-116430261D01*
X135678845Y-116399500D01*
X135678842Y-116399500D01*
X135521158Y-116399500D01*
X135521155Y-116399500D01*
X135366510Y-116430261D01*
X135366498Y-116430264D01*
X135220827Y-116490602D01*
X135220814Y-116490609D01*
X135089711Y-116578210D01*
X135089707Y-116578213D01*
X134978213Y-116689707D01*
X134978210Y-116689711D01*
X134890609Y-116820814D01*
X134890602Y-116820827D01*
X134830264Y-116966498D01*
X134830261Y-116966510D01*
X134799500Y-117121153D01*
X133000500Y-117121153D01*
X133000500Y-114211304D01*
X137699500Y-114211304D01*
X137699500Y-114388695D01*
X137734103Y-114562658D01*
X137734106Y-114562667D01*
X137801983Y-114726540D01*
X137801990Y-114726553D01*
X137900535Y-114874034D01*
X137900538Y-114874038D01*
X138025961Y-114999461D01*
X138025965Y-114999464D01*
X138173446Y-115098009D01*
X138173459Y-115098016D01*
X138296363Y-115148923D01*
X138337334Y-115165894D01*
X138337336Y-115165894D01*
X138337341Y-115165896D01*
X138511304Y-115200499D01*
X138511307Y-115200500D01*
X138511309Y-115200500D01*
X138688693Y-115200500D01*
X138688694Y-115200499D01*
X138746682Y-115188964D01*
X138862658Y-115165896D01*
X138862661Y-115165894D01*
X138862666Y-115165894D01*
X139026547Y-115098013D01*
X139174035Y-114999464D01*
X139299464Y-114874035D01*
X139398013Y-114726547D01*
X139465894Y-114562666D01*
X139500500Y-114388691D01*
X139500500Y-114211309D01*
X139500500Y-114211306D01*
X139500499Y-114211304D01*
X139465896Y-114037341D01*
X139465893Y-114037332D01*
X139398016Y-113873459D01*
X139398009Y-113873446D01*
X139299464Y-113725965D01*
X139299461Y-113725961D01*
X139174038Y-113600538D01*
X139174034Y-113600535D01*
X139026553Y-113501990D01*
X139026540Y-113501983D01*
X138862667Y-113434106D01*
X138862658Y-113434103D01*
X138688694Y-113399500D01*
X138688691Y-113399500D01*
X138511309Y-113399500D01*
X138511306Y-113399500D01*
X138337341Y-113434103D01*
X138337332Y-113434106D01*
X138173459Y-113501983D01*
X138173446Y-113501990D01*
X138025965Y-113600535D01*
X138025961Y-113600538D01*
X137900538Y-113725961D01*
X137900535Y-113725965D01*
X137801990Y-113873446D01*
X137801983Y-113873459D01*
X137734106Y-114037332D01*
X137734103Y-114037341D01*
X137699500Y-114211304D01*
X133000500Y-114211304D01*
X133000500Y-111421153D01*
X137949500Y-111421153D01*
X137949500Y-111578846D01*
X137980261Y-111733489D01*
X137980264Y-111733501D01*
X138040602Y-111879172D01*
X138040609Y-111879185D01*
X138128210Y-112010288D01*
X138128213Y-112010292D01*
X138239707Y-112121786D01*
X138239711Y-112121789D01*
X138370814Y-112209390D01*
X138370827Y-112209397D01*
X138516498Y-112269735D01*
X138516503Y-112269737D01*
X138671153Y-112300499D01*
X138671156Y-112300500D01*
X138671158Y-112300500D01*
X138828844Y-112300500D01*
X138828845Y-112300499D01*
X138983497Y-112269737D01*
X139129179Y-112209394D01*
X139260289Y-112121789D01*
X139371789Y-112010289D01*
X139459394Y-111879179D01*
X139519737Y-111733497D01*
X139550500Y-111578842D01*
X139550500Y-111421158D01*
X139550500Y-111421155D01*
X139550499Y-111421153D01*
X139519738Y-111266510D01*
X139519737Y-111266503D01*
X139519735Y-111266498D01*
X139459397Y-111120827D01*
X139459390Y-111120814D01*
X139371789Y-110989711D01*
X139371786Y-110989707D01*
X139260292Y-110878213D01*
X139260288Y-110878210D01*
X139129185Y-110790609D01*
X139129172Y-110790602D01*
X138983501Y-110730264D01*
X138983489Y-110730261D01*
X138828845Y-110699500D01*
X138828842Y-110699500D01*
X138671158Y-110699500D01*
X138671155Y-110699500D01*
X138516510Y-110730261D01*
X138516498Y-110730264D01*
X138370827Y-110790602D01*
X138370814Y-110790609D01*
X138239711Y-110878210D01*
X138239707Y-110878213D01*
X138128213Y-110989707D01*
X138128210Y-110989711D01*
X138040609Y-111120814D01*
X138040602Y-111120827D01*
X137980264Y-111266498D01*
X137980261Y-111266510D01*
X137949500Y-111421153D01*
X133000500Y-111421153D01*
X133000500Y-73933713D01*
X135869500Y-73933713D01*
X135869500Y-74146286D01*
X135902753Y-74356239D01*
X135968444Y-74558414D01*
X136064951Y-74747820D01*
X136189890Y-74919786D01*
X136340213Y-75070109D01*
X136512182Y-75195050D01*
X136520946Y-75199516D01*
X136571742Y-75247491D01*
X136588536Y-75315312D01*
X136565998Y-75381447D01*
X136520946Y-75420484D01*
X136512182Y-75424949D01*
X136340213Y-75549890D01*
X136189890Y-75700213D01*
X136064951Y-75872179D01*
X135968444Y-76061585D01*
X135902753Y-76263760D01*
X135869500Y-76473713D01*
X135869500Y-76686286D01*
X135902753Y-76896239D01*
X135968444Y-77098414D01*
X136064951Y-77287820D01*
X136189890Y-77459786D01*
X136340213Y-77610109D01*
X136512182Y-77735050D01*
X136520946Y-77739516D01*
X136571742Y-77787491D01*
X136588536Y-77855312D01*
X136565998Y-77921447D01*
X136520946Y-77960484D01*
X136512182Y-77964949D01*
X136340213Y-78089890D01*
X136189890Y-78240213D01*
X136064951Y-78412179D01*
X135968444Y-78601585D01*
X135902753Y-78803760D01*
X135869500Y-79013713D01*
X135869500Y-79226286D01*
X135902753Y-79436239D01*
X135968444Y-79638414D01*
X136064951Y-79827820D01*
X136189890Y-79999786D01*
X136340213Y-80150109D01*
X136512182Y-80275050D01*
X136520946Y-80279516D01*
X136571742Y-80327491D01*
X136588536Y-80395312D01*
X136565998Y-80461447D01*
X136520946Y-80500484D01*
X136512182Y-80504949D01*
X136340213Y-80629890D01*
X136189890Y-80780213D01*
X136064951Y-80952179D01*
X135968444Y-81141585D01*
X135902753Y-81343760D01*
X135869500Y-81553713D01*
X135869500Y-81766286D01*
X135902753Y-81976239D01*
X135968444Y-82178414D01*
X136064951Y-82367820D01*
X136189890Y-82539786D01*
X136340213Y-82690109D01*
X136512182Y-82815050D01*
X136520946Y-82819516D01*
X136571742Y-82867491D01*
X136588536Y-82935312D01*
X136565998Y-83001447D01*
X136520946Y-83040484D01*
X136512182Y-83044949D01*
X136340213Y-83169890D01*
X136189890Y-83320213D01*
X136064951Y-83492179D01*
X135968444Y-83681585D01*
X135902753Y-83883760D01*
X135869500Y-84093713D01*
X135869500Y-84306286D01*
X135901810Y-84510288D01*
X135902754Y-84516243D01*
X135965512Y-84709392D01*
X135968444Y-84718414D01*
X136064951Y-84907820D01*
X136189890Y-85079786D01*
X136340213Y-85230109D01*
X136512182Y-85355050D01*
X136520946Y-85359516D01*
X136571742Y-85407491D01*
X136588536Y-85475312D01*
X136565998Y-85541447D01*
X136520946Y-85580484D01*
X136512182Y-85584949D01*
X136340213Y-85709890D01*
X136189890Y-85860213D01*
X136064951Y-86032179D01*
X135968444Y-86221585D01*
X135902753Y-86423760D01*
X135889649Y-86506498D01*
X135869500Y-86633713D01*
X135869500Y-86846287D01*
X135902754Y-87056243D01*
X135965803Y-87250288D01*
X135968444Y-87258414D01*
X136064951Y-87447820D01*
X136189890Y-87619786D01*
X136340213Y-87770109D01*
X136512182Y-87895050D01*
X136520946Y-87899516D01*
X136571742Y-87947491D01*
X136588536Y-88015312D01*
X136565998Y-88081447D01*
X136520946Y-88120484D01*
X136512182Y-88124949D01*
X136340213Y-88249890D01*
X136189890Y-88400213D01*
X136064951Y-88572179D01*
X135968444Y-88761585D01*
X135902753Y-88963760D01*
X135869500Y-89173713D01*
X135869500Y-89386286D01*
X135902753Y-89596239D01*
X135968444Y-89798414D01*
X136064951Y-89987820D01*
X136189890Y-90159786D01*
X136340213Y-90310109D01*
X136512182Y-90435050D01*
X136520946Y-90439516D01*
X136571742Y-90487491D01*
X136588536Y-90555312D01*
X136565998Y-90621447D01*
X136520946Y-90660484D01*
X136512182Y-90664949D01*
X136340213Y-90789890D01*
X136189890Y-90940213D01*
X136064951Y-91112179D01*
X135968444Y-91301585D01*
X135902753Y-91503760D01*
X135869500Y-91713713D01*
X135869500Y-91926286D01*
X135902753Y-92136239D01*
X135968444Y-92338414D01*
X136064951Y-92527820D01*
X136189890Y-92699786D01*
X136340213Y-92850109D01*
X136512182Y-92975050D01*
X136520946Y-92979516D01*
X136571742Y-93027491D01*
X136588536Y-93095312D01*
X136565998Y-93161447D01*
X136520946Y-93200484D01*
X136512182Y-93204949D01*
X136340213Y-93329890D01*
X136189890Y-93480213D01*
X136064951Y-93652179D01*
X135968444Y-93841585D01*
X135902753Y-94043760D01*
X135869500Y-94253713D01*
X135869500Y-94466287D01*
X135902754Y-94676243D01*
X135968378Y-94878213D01*
X135968444Y-94878414D01*
X136064951Y-95067820D01*
X136189890Y-95239786D01*
X136340213Y-95390109D01*
X136512182Y-95515050D01*
X136520946Y-95519516D01*
X136571742Y-95567491D01*
X136588536Y-95635312D01*
X136565998Y-95701447D01*
X136520946Y-95740484D01*
X136512182Y-95744949D01*
X136340213Y-95869890D01*
X136189890Y-96020213D01*
X136064951Y-96192179D01*
X135968444Y-96381585D01*
X135902753Y-96583760D01*
X135874794Y-96760288D01*
X135869500Y-96793713D01*
X135869500Y-97006287D01*
X135876503Y-97050499D01*
X135902753Y-97216239D01*
X135968444Y-97418414D01*
X136064951Y-97607820D01*
X136189890Y-97779786D01*
X136340213Y-97930109D01*
X136512182Y-98055050D01*
X136520946Y-98059516D01*
X136571742Y-98107491D01*
X136588536Y-98175312D01*
X136565998Y-98241447D01*
X136520946Y-98280484D01*
X136512182Y-98284949D01*
X136340213Y-98409890D01*
X136189890Y-98560213D01*
X136064951Y-98732179D01*
X135968444Y-98921585D01*
X135902753Y-99123760D01*
X135869500Y-99333713D01*
X135869500Y-99546286D01*
X135893257Y-99696286D01*
X135902754Y-99756243D01*
X135951492Y-99906243D01*
X135968444Y-99958414D01*
X136064951Y-100147820D01*
X136189890Y-100319786D01*
X136340213Y-100470109D01*
X136512182Y-100595050D01*
X136520946Y-100599516D01*
X136571742Y-100647491D01*
X136588536Y-100715312D01*
X136565998Y-100781447D01*
X136520946Y-100820484D01*
X136512182Y-100824949D01*
X136340213Y-100949890D01*
X136189890Y-101100213D01*
X136064951Y-101272179D01*
X135968444Y-101461585D01*
X135902753Y-101663760D01*
X135869500Y-101873713D01*
X135869500Y-102086286D01*
X135893257Y-102236286D01*
X135902754Y-102296243D01*
X135963594Y-102483489D01*
X135968444Y-102498414D01*
X136064951Y-102687820D01*
X136189890Y-102859786D01*
X136340213Y-103010109D01*
X136512182Y-103135050D01*
X136520946Y-103139516D01*
X136571742Y-103187491D01*
X136588536Y-103255312D01*
X136565998Y-103321447D01*
X136520946Y-103360484D01*
X136512182Y-103364949D01*
X136340213Y-103489890D01*
X136189890Y-103640213D01*
X136064951Y-103812179D01*
X135968444Y-104001585D01*
X135902753Y-104203760D01*
X135869500Y-104413713D01*
X135869500Y-104626286D01*
X135893257Y-104776286D01*
X135902754Y-104836243D01*
X135951492Y-104986243D01*
X135968444Y-105038414D01*
X136064951Y-105227820D01*
X136189890Y-105399786D01*
X136340213Y-105550109D01*
X136512179Y-105675048D01*
X136512181Y-105675049D01*
X136512184Y-105675051D01*
X136701588Y-105771557D01*
X136903757Y-105837246D01*
X137113713Y-105870500D01*
X137113714Y-105870500D01*
X137326286Y-105870500D01*
X137326287Y-105870500D01*
X137536243Y-105837246D01*
X137738412Y-105771557D01*
X137927816Y-105675051D01*
X137949789Y-105659086D01*
X138099786Y-105550109D01*
X138099788Y-105550106D01*
X138099792Y-105550104D01*
X138250104Y-105399792D01*
X138250106Y-105399788D01*
X138250109Y-105399786D01*
X138375048Y-105227820D01*
X138375047Y-105227820D01*
X138375051Y-105227816D01*
X138471557Y-105038412D01*
X138537246Y-104836243D01*
X138570500Y-104626287D01*
X138570500Y-104413713D01*
X138537246Y-104203757D01*
X138471557Y-104001588D01*
X138375051Y-103812184D01*
X138375049Y-103812181D01*
X138375048Y-103812179D01*
X138250109Y-103640213D01*
X138099786Y-103489890D01*
X137927820Y-103364951D01*
X137927115Y-103364591D01*
X137919054Y-103360485D01*
X137868259Y-103312512D01*
X137851463Y-103244692D01*
X137873999Y-103178556D01*
X137919054Y-103139515D01*
X137927816Y-103135051D01*
X137949789Y-103119086D01*
X138099786Y-103010109D01*
X138099788Y-103010106D01*
X138099792Y-103010104D01*
X138250104Y-102859792D01*
X138250106Y-102859788D01*
X138250109Y-102859786D01*
X138375048Y-102687820D01*
X138375047Y-102687820D01*
X138375051Y-102687816D01*
X138471557Y-102498412D01*
X138537246Y-102296243D01*
X138557058Y-102171153D01*
X139449500Y-102171153D01*
X139449500Y-102328846D01*
X139480261Y-102483489D01*
X139480264Y-102483501D01*
X139540602Y-102629172D01*
X139540609Y-102629185D01*
X139628210Y-102760288D01*
X139628213Y-102760292D01*
X139739707Y-102871786D01*
X139739711Y-102871789D01*
X139870814Y-102959390D01*
X139870827Y-102959397D01*
X140016498Y-103019735D01*
X140016503Y-103019737D01*
X140171153Y-103050499D01*
X140171156Y-103050500D01*
X140171158Y-103050500D01*
X140328844Y-103050500D01*
X140328845Y-103050499D01*
X140483497Y-103019737D01*
X140629179Y-102959394D01*
X140760289Y-102871789D01*
X140871789Y-102760289D01*
X140959394Y-102629179D01*
X140966834Y-102611216D01*
X141010674Y-102556815D01*
X141076968Y-102534749D01*
X141144667Y-102552028D01*
X141192278Y-102603164D01*
X141199324Y-102620348D01*
X141202194Y-102629181D01*
X141208444Y-102648414D01*
X141304951Y-102837820D01*
X141429890Y-103009786D01*
X141580213Y-103160109D01*
X141752182Y-103285050D01*
X141760946Y-103289516D01*
X141811742Y-103337491D01*
X141828536Y-103405312D01*
X141805998Y-103471447D01*
X141760946Y-103510484D01*
X141752182Y-103514949D01*
X141580213Y-103639890D01*
X141429890Y-103790213D01*
X141304951Y-103962179D01*
X141208444Y-104151585D01*
X141142753Y-104353760D01*
X141109500Y-104563713D01*
X141109500Y-104776287D01*
X141142754Y-104986243D01*
X141159705Y-105038414D01*
X141208444Y-105188414D01*
X141304951Y-105377820D01*
X141429890Y-105549786D01*
X141580213Y-105700109D01*
X141752182Y-105825050D01*
X141760946Y-105829516D01*
X141811742Y-105877491D01*
X141828536Y-105945312D01*
X141805998Y-106011447D01*
X141760946Y-106050484D01*
X141752182Y-106054949D01*
X141580213Y-106179890D01*
X141429890Y-106330213D01*
X141304951Y-106502179D01*
X141208444Y-106691585D01*
X141142753Y-106893760D01*
X141109500Y-107103713D01*
X141109500Y-107316286D01*
X141142753Y-107526239D01*
X141208444Y-107728414D01*
X141304951Y-107917820D01*
X141429890Y-108089786D01*
X141580213Y-108240109D01*
X141752182Y-108365050D01*
X141760946Y-108369516D01*
X141811742Y-108417491D01*
X141828536Y-108485312D01*
X141805998Y-108551447D01*
X141760946Y-108590484D01*
X141752182Y-108594949D01*
X141580213Y-108719890D01*
X141429890Y-108870213D01*
X141304951Y-109042179D01*
X141208444Y-109231585D01*
X141142753Y-109433760D01*
X141109500Y-109643713D01*
X141109500Y-109856286D01*
X141142753Y-110066239D01*
X141208444Y-110268414D01*
X141304951Y-110457820D01*
X141429890Y-110629786D01*
X141580213Y-110780109D01*
X141752179Y-110905048D01*
X141752181Y-110905049D01*
X141752184Y-110905051D01*
X141941588Y-111001557D01*
X142143757Y-111067246D01*
X142353713Y-111100500D01*
X142353714Y-111100500D01*
X142566286Y-111100500D01*
X142566287Y-111100500D01*
X142776243Y-111067246D01*
X142978412Y-111001557D01*
X143167816Y-110905051D01*
X143204760Y-110878210D01*
X143339786Y-110780109D01*
X143339788Y-110780106D01*
X143339792Y-110780104D01*
X143490104Y-110629792D01*
X143490106Y-110629788D01*
X143490109Y-110629786D01*
X143615048Y-110457820D01*
X143615047Y-110457820D01*
X143615051Y-110457816D01*
X143619514Y-110449054D01*
X143667488Y-110398259D01*
X143735308Y-110381463D01*
X143801444Y-110403999D01*
X143840486Y-110449056D01*
X143844951Y-110457820D01*
X143969890Y-110629786D01*
X144120213Y-110780109D01*
X144292179Y-110905048D01*
X144292181Y-110905049D01*
X144292184Y-110905051D01*
X144481588Y-111001557D01*
X144683757Y-111067246D01*
X144893713Y-111100500D01*
X144893714Y-111100500D01*
X145106286Y-111100500D01*
X145106287Y-111100500D01*
X145316243Y-111067246D01*
X145518412Y-111001557D01*
X145707816Y-110905051D01*
X145744760Y-110878210D01*
X145879786Y-110780109D01*
X145879788Y-110780106D01*
X145879792Y-110780104D01*
X146030104Y-110629792D01*
X146030106Y-110629788D01*
X146030109Y-110629786D01*
X146155048Y-110457820D01*
X146155047Y-110457820D01*
X146155051Y-110457816D01*
X146251557Y-110268412D01*
X146317246Y-110066243D01*
X146350500Y-109856287D01*
X146350500Y-109643713D01*
X146317246Y-109433757D01*
X146251557Y-109231588D01*
X146155051Y-109042184D01*
X146155049Y-109042181D01*
X146155048Y-109042179D01*
X146030109Y-108870213D01*
X145879786Y-108719890D01*
X145707820Y-108594951D01*
X145707115Y-108594591D01*
X145699054Y-108590485D01*
X145648259Y-108542512D01*
X145631463Y-108474692D01*
X145653999Y-108408556D01*
X145699054Y-108369515D01*
X145707816Y-108365051D01*
X145729789Y-108349086D01*
X145879786Y-108240109D01*
X145879788Y-108240106D01*
X145879792Y-108240104D01*
X146030104Y-108089792D01*
X146030106Y-108089788D01*
X146030109Y-108089786D01*
X146155048Y-107917820D01*
X146155047Y-107917820D01*
X146155051Y-107917816D01*
X146251557Y-107728412D01*
X146317246Y-107526243D01*
X146350500Y-107316287D01*
X146350500Y-107103713D01*
X146317246Y-106893757D01*
X146251557Y-106691588D01*
X146155051Y-106502184D01*
X146155049Y-106502181D01*
X146155048Y-106502179D01*
X146030109Y-106330213D01*
X145879786Y-106179890D01*
X145707820Y-106054951D01*
X145707115Y-106054591D01*
X145699054Y-106050485D01*
X145648259Y-106002512D01*
X145631463Y-105934692D01*
X145653999Y-105868556D01*
X145699054Y-105829515D01*
X145707816Y-105825051D01*
X145781445Y-105771557D01*
X145879786Y-105700109D01*
X145879788Y-105700106D01*
X145879792Y-105700104D01*
X146030104Y-105549792D01*
X146030106Y-105549788D01*
X146030109Y-105549786D01*
X146155048Y-105377820D01*
X146155047Y-105377820D01*
X146155051Y-105377816D01*
X146251557Y-105188412D01*
X146317246Y-104986243D01*
X146350500Y-104776287D01*
X146350500Y-104563713D01*
X146317246Y-104353757D01*
X146251557Y-104151588D01*
X146155051Y-103962184D01*
X146155049Y-103962181D01*
X146155048Y-103962179D01*
X146030109Y-103790213D01*
X145879786Y-103639890D01*
X145707820Y-103514951D01*
X145707115Y-103514591D01*
X145699054Y-103510485D01*
X145648259Y-103462512D01*
X145631463Y-103394692D01*
X145653999Y-103328556D01*
X145699054Y-103289515D01*
X145707816Y-103285051D01*
X145842097Y-103187491D01*
X145879786Y-103160109D01*
X145879788Y-103160106D01*
X145879792Y-103160104D01*
X146030104Y-103009792D01*
X146030106Y-103009788D01*
X146030109Y-103009786D01*
X146155048Y-102837820D01*
X146155047Y-102837820D01*
X146155051Y-102837816D01*
X146251557Y-102648412D01*
X146317246Y-102446243D01*
X146350500Y-102236287D01*
X146350500Y-102023713D01*
X146317246Y-101813757D01*
X146251557Y-101611588D01*
X146155051Y-101422184D01*
X146155049Y-101422181D01*
X146155048Y-101422179D01*
X146030109Y-101250213D01*
X145879790Y-101099894D01*
X145879785Y-101099890D01*
X145765048Y-101016529D01*
X145765022Y-101016511D01*
X145707816Y-100974949D01*
X145692096Y-100966939D01*
X145685639Y-100962550D01*
X145668210Y-100941354D01*
X145648259Y-100922512D01*
X145647922Y-100921153D01*
X147199500Y-100921153D01*
X147199500Y-101078846D01*
X147230261Y-101233489D01*
X147230264Y-101233501D01*
X147290602Y-101379172D01*
X147290609Y-101379185D01*
X147378210Y-101510288D01*
X147378213Y-101510292D01*
X147489707Y-101621786D01*
X147489711Y-101621789D01*
X147620814Y-101709390D01*
X147620827Y-101709397D01*
X147694013Y-101739711D01*
X147766503Y-101769737D01*
X147886701Y-101793646D01*
X147921153Y-101800499D01*
X147921156Y-101800500D01*
X147921158Y-101800500D01*
X148078844Y-101800500D01*
X148078845Y-101800499D01*
X148233497Y-101769737D01*
X148379179Y-101709394D01*
X148379178Y-101709394D01*
X148384749Y-101707087D01*
X148454218Y-101699618D01*
X148516697Y-101730893D01*
X148552349Y-101790982D01*
X148554674Y-101841046D01*
X148549500Y-101873713D01*
X148549500Y-102086286D01*
X148573257Y-102236286D01*
X148582754Y-102296243D01*
X148643594Y-102483489D01*
X148648444Y-102498414D01*
X148744951Y-102687820D01*
X148869890Y-102859786D01*
X149020213Y-103010109D01*
X149192182Y-103135050D01*
X149200946Y-103139516D01*
X149251742Y-103187491D01*
X149268536Y-103255312D01*
X149245998Y-103321447D01*
X149200946Y-103360484D01*
X149192182Y-103364949D01*
X149020213Y-103489890D01*
X148869890Y-103640213D01*
X148744951Y-103812179D01*
X148648444Y-104001585D01*
X148582753Y-104203760D01*
X148549500Y-104413713D01*
X148549500Y-104626286D01*
X148573257Y-104776286D01*
X148582754Y-104836243D01*
X148631492Y-104986243D01*
X148648444Y-105038414D01*
X148744951Y-105227820D01*
X148869890Y-105399786D01*
X149020213Y-105550109D01*
X149192179Y-105675048D01*
X149192181Y-105675049D01*
X149192184Y-105675051D01*
X149381588Y-105771557D01*
X149583757Y-105837246D01*
X149793713Y-105870500D01*
X149793714Y-105870500D01*
X150006286Y-105870500D01*
X150006287Y-105870500D01*
X150216243Y-105837246D01*
X150418412Y-105771557D01*
X150607816Y-105675051D01*
X150629789Y-105659086D01*
X150779786Y-105550109D01*
X150779788Y-105550106D01*
X150779792Y-105550104D01*
X150930104Y-105399792D01*
X150930106Y-105399788D01*
X150930109Y-105399786D01*
X151055048Y-105227820D01*
X151055047Y-105227820D01*
X151055051Y-105227816D01*
X151151557Y-105038412D01*
X151217246Y-104836243D01*
X151250500Y-104626287D01*
X151250500Y-104413713D01*
X151217246Y-104203757D01*
X151151557Y-104001588D01*
X151055051Y-103812184D01*
X151055049Y-103812181D01*
X151055048Y-103812179D01*
X150930109Y-103640213D01*
X150779786Y-103489890D01*
X150607820Y-103364951D01*
X150607115Y-103364591D01*
X150599054Y-103360485D01*
X150548259Y-103312512D01*
X150531463Y-103244692D01*
X150553999Y-103178556D01*
X150599054Y-103139515D01*
X150607816Y-103135051D01*
X150629789Y-103119086D01*
X150779786Y-103010109D01*
X150779788Y-103010106D01*
X150779792Y-103010104D01*
X150930104Y-102859792D01*
X150930106Y-102859788D01*
X150930109Y-102859786D01*
X151055048Y-102687820D01*
X151055047Y-102687820D01*
X151055051Y-102687816D01*
X151151557Y-102498412D01*
X151217246Y-102296243D01*
X151250500Y-102086287D01*
X151250500Y-101873713D01*
X151217246Y-101663757D01*
X151151557Y-101461588D01*
X151055051Y-101272184D01*
X151055049Y-101272181D01*
X151055048Y-101272179D01*
X150930109Y-101100213D01*
X150779786Y-100949890D01*
X150607820Y-100824951D01*
X150607115Y-100824591D01*
X150599054Y-100820485D01*
X150548259Y-100772512D01*
X150531463Y-100704692D01*
X150553999Y-100638556D01*
X150599054Y-100599515D01*
X150607816Y-100595051D01*
X150745549Y-100494983D01*
X150779786Y-100470109D01*
X150779788Y-100470106D01*
X150779792Y-100470104D01*
X150930104Y-100319792D01*
X150930106Y-100319788D01*
X150930109Y-100319786D01*
X151055048Y-100147820D01*
X151055047Y-100147820D01*
X151055051Y-100147816D01*
X151151557Y-99958412D01*
X151217246Y-99756243D01*
X151250500Y-99546287D01*
X151250500Y-99333713D01*
X151217246Y-99123757D01*
X151151557Y-98921588D01*
X151055051Y-98732184D01*
X151055049Y-98732181D01*
X151055048Y-98732179D01*
X150930109Y-98560213D01*
X150779786Y-98409890D01*
X150607820Y-98284951D01*
X150607115Y-98284591D01*
X150599054Y-98280485D01*
X150548259Y-98232512D01*
X150531463Y-98164692D01*
X150553999Y-98098556D01*
X150599054Y-98059515D01*
X150607816Y-98055051D01*
X150629789Y-98039086D01*
X150779786Y-97930109D01*
X150779788Y-97930106D01*
X150779792Y-97930104D01*
X150930104Y-97779792D01*
X150930106Y-97779788D01*
X150930109Y-97779786D01*
X151055048Y-97607820D01*
X151055047Y-97607820D01*
X151055051Y-97607816D01*
X151151557Y-97418412D01*
X151217246Y-97216243D01*
X151250500Y-97006287D01*
X151250500Y-96793713D01*
X151217246Y-96583757D01*
X151151557Y-96381588D01*
X151055051Y-96192184D01*
X151055049Y-96192181D01*
X151055048Y-96192179D01*
X150930109Y-96020213D01*
X150779786Y-95869890D01*
X150607820Y-95744951D01*
X150607115Y-95744591D01*
X150599054Y-95740485D01*
X150548259Y-95692512D01*
X150531463Y-95624692D01*
X150553999Y-95558556D01*
X150599054Y-95519515D01*
X150607816Y-95515051D01*
X150698040Y-95449500D01*
X150779786Y-95390109D01*
X150779788Y-95390106D01*
X150779792Y-95390104D01*
X150930104Y-95239792D01*
X150930106Y-95239788D01*
X150930109Y-95239786D01*
X151055048Y-95067820D01*
X151055047Y-95067820D01*
X151055051Y-95067816D01*
X151151557Y-94878412D01*
X151217246Y-94676243D01*
X151250500Y-94466287D01*
X151250500Y-94253713D01*
X151217246Y-94043757D01*
X151151557Y-93841588D01*
X151055051Y-93652184D01*
X151055049Y-93652181D01*
X151055048Y-93652179D01*
X150930109Y-93480213D01*
X150779786Y-93329890D01*
X150607820Y-93204951D01*
X150607115Y-93204591D01*
X150599054Y-93200485D01*
X150548259Y-93152512D01*
X150531463Y-93084692D01*
X150553999Y-93018556D01*
X150599054Y-92979515D01*
X150607816Y-92975051D01*
X150629789Y-92959086D01*
X150779786Y-92850109D01*
X150779788Y-92850106D01*
X150779792Y-92850104D01*
X150930104Y-92699792D01*
X150930106Y-92699788D01*
X150930109Y-92699786D01*
X151055048Y-92527820D01*
X151055047Y-92527820D01*
X151055051Y-92527816D01*
X151151557Y-92338412D01*
X151217246Y-92136243D01*
X151250500Y-91926287D01*
X151250500Y-91713713D01*
X151217246Y-91503757D01*
X151151557Y-91301588D01*
X151055051Y-91112184D01*
X151055049Y-91112181D01*
X151055048Y-91112179D01*
X150930109Y-90940213D01*
X150779786Y-90789890D01*
X150607820Y-90664951D01*
X150607115Y-90664591D01*
X150599054Y-90660485D01*
X150548259Y-90612512D01*
X150531463Y-90544692D01*
X150553999Y-90478556D01*
X150599054Y-90439515D01*
X150607816Y-90435051D01*
X150629789Y-90419086D01*
X150779786Y-90310109D01*
X150779788Y-90310106D01*
X150779792Y-90310104D01*
X150930104Y-90159792D01*
X150930106Y-90159788D01*
X150930109Y-90159786D01*
X151055048Y-89987820D01*
X151055047Y-89987820D01*
X151055051Y-89987816D01*
X151151557Y-89798412D01*
X151217246Y-89596243D01*
X151250500Y-89386287D01*
X151250500Y-89173713D01*
X151217246Y-88963757D01*
X151151557Y-88761588D01*
X151055051Y-88572184D01*
X151055049Y-88572181D01*
X151055048Y-88572179D01*
X150930109Y-88400213D01*
X150779786Y-88249890D01*
X150607820Y-88124951D01*
X150607115Y-88124591D01*
X150599054Y-88120485D01*
X150548259Y-88072512D01*
X150531463Y-88004692D01*
X150553999Y-87938556D01*
X150599054Y-87899515D01*
X150607816Y-87895051D01*
X150629789Y-87879086D01*
X150779786Y-87770109D01*
X150779788Y-87770106D01*
X150779792Y-87770104D01*
X150930104Y-87619792D01*
X150930106Y-87619788D01*
X150930109Y-87619786D01*
X151053902Y-87449397D01*
X151055051Y-87447816D01*
X151151557Y-87258412D01*
X151217246Y-87056243D01*
X151250500Y-86846287D01*
X151250500Y-86633713D01*
X151217246Y-86423757D01*
X151151557Y-86221588D01*
X151055051Y-86032184D01*
X151055049Y-86032181D01*
X151055048Y-86032179D01*
X150930109Y-85860213D01*
X150779786Y-85709890D01*
X150607820Y-85584951D01*
X150607115Y-85584591D01*
X150599054Y-85580485D01*
X150548259Y-85532512D01*
X150531463Y-85464692D01*
X150553999Y-85398556D01*
X150599054Y-85359515D01*
X150607816Y-85355051D01*
X150629789Y-85339086D01*
X150779786Y-85230109D01*
X150779788Y-85230106D01*
X150779792Y-85230104D01*
X150930104Y-85079792D01*
X150930106Y-85079788D01*
X150930109Y-85079786D01*
X151055048Y-84907820D01*
X151055047Y-84907820D01*
X151055051Y-84907816D01*
X151151557Y-84718412D01*
X151217246Y-84516243D01*
X151250500Y-84306287D01*
X151250500Y-84093713D01*
X151217246Y-83883757D01*
X151151557Y-83681588D01*
X151055051Y-83492184D01*
X151055049Y-83492181D01*
X151055048Y-83492179D01*
X150930109Y-83320213D01*
X150779786Y-83169890D01*
X150607820Y-83044951D01*
X150607115Y-83044591D01*
X150599054Y-83040485D01*
X150548259Y-82992512D01*
X150531463Y-82924692D01*
X150553999Y-82858556D01*
X150599054Y-82819515D01*
X150607816Y-82815051D01*
X150641467Y-82790602D01*
X150779786Y-82690109D01*
X150779788Y-82690106D01*
X150779792Y-82690104D01*
X150930104Y-82539792D01*
X150930106Y-82539788D01*
X150930109Y-82539786D01*
X151055048Y-82367820D01*
X151055047Y-82367820D01*
X151055051Y-82367816D01*
X151151557Y-82178412D01*
X151217246Y-81976243D01*
X151250500Y-81766287D01*
X151250500Y-81553713D01*
X151217246Y-81343757D01*
X151151557Y-81141588D01*
X151055051Y-80952184D01*
X151055049Y-80952181D01*
X151055048Y-80952179D01*
X150930109Y-80780213D01*
X150779786Y-80629890D01*
X150607820Y-80504951D01*
X150607115Y-80504591D01*
X150599054Y-80500485D01*
X150548259Y-80452512D01*
X150531463Y-80384692D01*
X150553999Y-80318556D01*
X150599054Y-80279515D01*
X150607816Y-80275051D01*
X150629789Y-80259086D01*
X150779786Y-80150109D01*
X150779788Y-80150106D01*
X150779792Y-80150104D01*
X150930104Y-79999792D01*
X150930106Y-79999788D01*
X150930109Y-79999786D01*
X151055048Y-79827820D01*
X151055047Y-79827820D01*
X151055051Y-79827816D01*
X151151557Y-79638412D01*
X151217246Y-79436243D01*
X151250500Y-79226287D01*
X151250500Y-79013713D01*
X151217246Y-78803757D01*
X151151557Y-78601588D01*
X151055051Y-78412184D01*
X151055049Y-78412181D01*
X151055048Y-78412179D01*
X150930109Y-78240213D01*
X150779786Y-78089890D01*
X150607820Y-77964951D01*
X150607115Y-77964591D01*
X150599054Y-77960485D01*
X150548259Y-77912512D01*
X150531463Y-77844692D01*
X150553999Y-77778556D01*
X150599054Y-77739515D01*
X150607816Y-77735051D01*
X150629789Y-77719086D01*
X150779786Y-77610109D01*
X150779788Y-77610106D01*
X150779792Y-77610104D01*
X150930104Y-77459792D01*
X150930106Y-77459788D01*
X150930109Y-77459786D01*
X151055048Y-77287820D01*
X151055047Y-77287820D01*
X151055051Y-77287816D01*
X151151557Y-77098412D01*
X151217246Y-76896243D01*
X151250500Y-76686287D01*
X151250500Y-76473713D01*
X151217246Y-76263757D01*
X151151557Y-76061588D01*
X151055051Y-75872184D01*
X151055049Y-75872181D01*
X151055048Y-75872179D01*
X150930109Y-75700213D01*
X150779786Y-75549890D01*
X150607820Y-75424951D01*
X150607115Y-75424591D01*
X150599054Y-75420485D01*
X150548259Y-75372512D01*
X150531463Y-75304692D01*
X150553999Y-75238556D01*
X150599054Y-75199515D01*
X150607816Y-75195051D01*
X150629789Y-75179086D01*
X150779786Y-75070109D01*
X150779788Y-75070106D01*
X150779792Y-75070104D01*
X150930104Y-74919792D01*
X150930106Y-74919788D01*
X150930109Y-74919786D01*
X151055048Y-74747820D01*
X151055047Y-74747820D01*
X151055051Y-74747816D01*
X151151557Y-74558412D01*
X151217246Y-74356243D01*
X151250500Y-74146287D01*
X151250500Y-73933713D01*
X151217246Y-73723757D01*
X151151557Y-73521588D01*
X151055051Y-73332184D01*
X151055049Y-73332181D01*
X151055048Y-73332179D01*
X150930109Y-73160213D01*
X150816569Y-73046673D01*
X150783084Y-72985350D01*
X150788068Y-72915658D01*
X150829940Y-72859725D01*
X150860915Y-72842810D01*
X150992331Y-72793796D01*
X151107546Y-72707546D01*
X151193796Y-72592331D01*
X151244091Y-72457483D01*
X151250500Y-72397873D01*
X151250499Y-70602128D01*
X151244091Y-70542517D01*
X151193884Y-70407906D01*
X151193797Y-70407671D01*
X151193793Y-70407664D01*
X151107547Y-70292455D01*
X151107544Y-70292452D01*
X150992335Y-70206206D01*
X150992328Y-70206202D01*
X150857482Y-70155908D01*
X150857483Y-70155908D01*
X150797883Y-70149501D01*
X150797881Y-70149500D01*
X150797873Y-70149500D01*
X150797864Y-70149500D01*
X149002129Y-70149500D01*
X149002123Y-70149501D01*
X148942516Y-70155908D01*
X148807671Y-70206202D01*
X148807664Y-70206206D01*
X148692455Y-70292452D01*
X148692452Y-70292455D01*
X148606206Y-70407664D01*
X148606202Y-70407671D01*
X148555908Y-70542517D01*
X148549501Y-70602116D01*
X148549501Y-70602123D01*
X148549500Y-70602135D01*
X148549500Y-72397870D01*
X148549501Y-72397876D01*
X148555908Y-72457483D01*
X148606202Y-72592328D01*
X148606206Y-72592335D01*
X148692452Y-72707544D01*
X148692455Y-72707547D01*
X148807664Y-72793793D01*
X148807671Y-72793797D01*
X148939082Y-72842810D01*
X148995016Y-72884681D01*
X149019433Y-72950145D01*
X149004582Y-73018418D01*
X148983431Y-73046673D01*
X148869889Y-73160215D01*
X148744951Y-73332179D01*
X148648444Y-73521585D01*
X148582753Y-73723760D01*
X148549500Y-73933713D01*
X148549500Y-74146286D01*
X148582753Y-74356239D01*
X148648444Y-74558414D01*
X148744951Y-74747820D01*
X148869890Y-74919786D01*
X149020213Y-75070109D01*
X149192182Y-75195050D01*
X149200946Y-75199516D01*
X149251742Y-75247491D01*
X149268536Y-75315312D01*
X149245998Y-75381447D01*
X149200946Y-75420484D01*
X149192182Y-75424949D01*
X149020213Y-75549890D01*
X148869890Y-75700213D01*
X148744951Y-75872179D01*
X148648444Y-76061585D01*
X148582753Y-76263760D01*
X148549500Y-76473713D01*
X148549500Y-76686286D01*
X148582753Y-76896239D01*
X148648444Y-77098414D01*
X148744951Y-77287820D01*
X148869890Y-77459786D01*
X149020213Y-77610109D01*
X149192182Y-77735050D01*
X149200946Y-77739516D01*
X149251742Y-77787491D01*
X149268536Y-77855312D01*
X149245998Y-77921447D01*
X149200946Y-77960484D01*
X149192182Y-77964949D01*
X149020213Y-78089890D01*
X148869890Y-78240213D01*
X148744951Y-78412179D01*
X148648444Y-78601585D01*
X148582753Y-78803760D01*
X148549500Y-79013713D01*
X148549500Y-79226286D01*
X148582753Y-79436239D01*
X148648444Y-79638414D01*
X148744951Y-79827820D01*
X148869890Y-79999786D01*
X149020213Y-80150109D01*
X149192182Y-80275050D01*
X149200946Y-80279516D01*
X149251742Y-80327491D01*
X149268536Y-80395312D01*
X149245998Y-80461447D01*
X149200946Y-80500484D01*
X149192182Y-80504949D01*
X149020213Y-80629890D01*
X148869890Y-80780213D01*
X148744951Y-80952179D01*
X148648444Y-81141585D01*
X148582753Y-81343760D01*
X148549500Y-81553713D01*
X148549500Y-81766286D01*
X148582753Y-81976239D01*
X148648444Y-82178414D01*
X148744951Y-82367820D01*
X148869890Y-82539786D01*
X149020213Y-82690109D01*
X149192182Y-82815050D01*
X149200946Y-82819516D01*
X149251742Y-82867491D01*
X149268536Y-82935312D01*
X149245998Y-83001447D01*
X149200946Y-83040484D01*
X149192182Y-83044949D01*
X149020213Y-83169890D01*
X148869890Y-83320213D01*
X148744951Y-83492179D01*
X148648444Y-83681585D01*
X148582753Y-83883760D01*
X148549500Y-84093713D01*
X148549500Y-84306286D01*
X148581810Y-84510288D01*
X148582754Y-84516243D01*
X148645512Y-84709392D01*
X148648444Y-84718414D01*
X148744951Y-84907820D01*
X148869890Y-85079786D01*
X149020213Y-85230109D01*
X149192182Y-85355050D01*
X149200946Y-85359516D01*
X149251742Y-85407491D01*
X149268536Y-85475312D01*
X149245998Y-85541447D01*
X149200946Y-85580484D01*
X149192182Y-85584949D01*
X149020213Y-85709890D01*
X148869890Y-85860213D01*
X148744951Y-86032179D01*
X148648444Y-86221585D01*
X148582753Y-86423760D01*
X148569649Y-86506498D01*
X148549500Y-86633713D01*
X148549500Y-86846287D01*
X148582754Y-87056243D01*
X148645803Y-87250288D01*
X148648444Y-87258414D01*
X148744951Y-87447820D01*
X148869890Y-87619786D01*
X149020213Y-87770109D01*
X149192182Y-87895050D01*
X149200946Y-87899516D01*
X149251742Y-87947491D01*
X149268536Y-88015312D01*
X149245998Y-88081447D01*
X149200946Y-88120484D01*
X149192182Y-88124949D01*
X149020213Y-88249890D01*
X148869890Y-88400213D01*
X148744951Y-88572179D01*
X148648444Y-88761585D01*
X148582753Y-88963760D01*
X148549500Y-89173713D01*
X148549500Y-89386286D01*
X148582753Y-89596239D01*
X148648444Y-89798414D01*
X148744951Y-89987820D01*
X148869890Y-90159786D01*
X149020213Y-90310109D01*
X149192182Y-90435050D01*
X149200946Y-90439516D01*
X149251742Y-90487491D01*
X149268536Y-90555312D01*
X149245998Y-90621447D01*
X149200946Y-90660484D01*
X149192182Y-90664949D01*
X149020213Y-90789890D01*
X148869890Y-90940213D01*
X148744951Y-91112179D01*
X148648444Y-91301585D01*
X148582753Y-91503760D01*
X148549500Y-91713713D01*
X148549500Y-91926286D01*
X148582753Y-92136239D01*
X148648444Y-92338414D01*
X148744951Y-92527820D01*
X148869890Y-92699786D01*
X149020213Y-92850109D01*
X149192182Y-92975050D01*
X149200946Y-92979516D01*
X149251742Y-93027491D01*
X149268536Y-93095312D01*
X149245998Y-93161447D01*
X149200946Y-93200484D01*
X149192182Y-93204949D01*
X149020213Y-93329890D01*
X148869890Y-93480213D01*
X148744951Y-93652179D01*
X148648444Y-93841585D01*
X148582753Y-94043760D01*
X148549500Y-94253713D01*
X148549500Y-94466287D01*
X148582754Y-94676243D01*
X148648378Y-94878213D01*
X148648444Y-94878414D01*
X148744951Y-95067820D01*
X148869890Y-95239786D01*
X149020213Y-95390109D01*
X149192182Y-95515050D01*
X149200946Y-95519516D01*
X149251742Y-95567491D01*
X149268536Y-95635312D01*
X149245998Y-95701447D01*
X149200946Y-95740484D01*
X149192182Y-95744949D01*
X149020213Y-95869890D01*
X148869890Y-96020213D01*
X148744951Y-96192179D01*
X148648444Y-96381585D01*
X148582753Y-96583760D01*
X148554794Y-96760288D01*
X148549500Y-96793713D01*
X148549500Y-97006287D01*
X148556503Y-97050499D01*
X148582753Y-97216239D01*
X148648444Y-97418414D01*
X148744951Y-97607820D01*
X148869890Y-97779786D01*
X149020213Y-97930109D01*
X149192182Y-98055050D01*
X149200946Y-98059516D01*
X149251742Y-98107491D01*
X149268536Y-98175312D01*
X149245998Y-98241447D01*
X149200946Y-98280484D01*
X149192182Y-98284949D01*
X149020213Y-98409890D01*
X148869890Y-98560213D01*
X148744951Y-98732179D01*
X148648444Y-98921585D01*
X148582753Y-99123760D01*
X148549500Y-99333713D01*
X148549500Y-99546286D01*
X148573257Y-99696286D01*
X148582754Y-99756243D01*
X148631492Y-99906243D01*
X148648444Y-99958414D01*
X148744951Y-100147820D01*
X148869890Y-100319786D01*
X149020213Y-100470109D01*
X149192182Y-100595050D01*
X149200946Y-100599516D01*
X149251742Y-100647491D01*
X149268536Y-100715312D01*
X149245998Y-100781447D01*
X149200946Y-100820484D01*
X149192182Y-100824949D01*
X149020214Y-100949890D01*
X149005757Y-100964347D01*
X148944433Y-100997830D01*
X148874741Y-100992844D01*
X148818809Y-100950971D01*
X148796461Y-100900854D01*
X148793068Y-100883796D01*
X148769737Y-100766503D01*
X148746333Y-100710000D01*
X148709397Y-100620827D01*
X148709390Y-100620814D01*
X148621789Y-100489711D01*
X148621786Y-100489707D01*
X148510292Y-100378213D01*
X148510288Y-100378210D01*
X148379185Y-100290609D01*
X148379172Y-100290602D01*
X148233501Y-100230264D01*
X148233489Y-100230261D01*
X148078845Y-100199500D01*
X148078842Y-100199500D01*
X147921158Y-100199500D01*
X147921155Y-100199500D01*
X147766510Y-100230261D01*
X147766498Y-100230264D01*
X147620827Y-100290602D01*
X147620814Y-100290609D01*
X147489711Y-100378210D01*
X147489707Y-100378213D01*
X147378213Y-100489707D01*
X147378210Y-100489711D01*
X147290609Y-100620814D01*
X147290602Y-100620827D01*
X147230264Y-100766498D01*
X147230261Y-100766510D01*
X147199500Y-100921153D01*
X145647922Y-100921153D01*
X145646337Y-100914754D01*
X145641263Y-100908583D01*
X145638060Y-100881331D01*
X145631463Y-100854692D01*
X145634040Y-100847127D01*
X145633108Y-100839191D01*
X145645147Y-100814532D01*
X145653999Y-100788556D01*
X145660639Y-100782801D01*
X145663763Y-100776405D01*
X145677971Y-100767784D01*
X145699054Y-100749515D01*
X145707816Y-100745051D01*
X145794138Y-100682335D01*
X145879786Y-100620109D01*
X145879788Y-100620106D01*
X145879792Y-100620104D01*
X146030104Y-100469792D01*
X146030106Y-100469788D01*
X146030109Y-100469786D01*
X146155048Y-100297820D01*
X146155047Y-100297820D01*
X146155051Y-100297816D01*
X146251557Y-100108412D01*
X146317246Y-99906243D01*
X146350500Y-99696287D01*
X146350500Y-99483713D01*
X146317246Y-99273757D01*
X146251557Y-99071588D01*
X146155051Y-98882184D01*
X146155049Y-98882181D01*
X146155048Y-98882179D01*
X146030109Y-98710213D01*
X145879786Y-98559890D01*
X145707820Y-98434951D01*
X145518414Y-98338444D01*
X145518413Y-98338443D01*
X145518412Y-98338443D01*
X145316243Y-98272754D01*
X145316241Y-98272753D01*
X145316240Y-98272753D01*
X145154957Y-98247208D01*
X145106287Y-98239500D01*
X144893713Y-98239500D01*
X144845042Y-98247208D01*
X144683760Y-98272753D01*
X144481585Y-98338444D01*
X144292179Y-98434951D01*
X144120215Y-98559889D01*
X144006673Y-98673431D01*
X143945350Y-98706915D01*
X143875658Y-98701931D01*
X143819725Y-98660059D01*
X143802810Y-98629082D01*
X143753797Y-98497671D01*
X143753793Y-98497664D01*
X143667547Y-98382455D01*
X143667544Y-98382452D01*
X143552335Y-98296206D01*
X143552328Y-98296202D01*
X143417482Y-98245908D01*
X143417483Y-98245908D01*
X143357883Y-98239501D01*
X143357881Y-98239500D01*
X143357873Y-98239500D01*
X143357864Y-98239500D01*
X141562129Y-98239500D01*
X141562123Y-98239501D01*
X141502516Y-98245908D01*
X141367671Y-98296202D01*
X141367664Y-98296206D01*
X141252455Y-98382452D01*
X141252452Y-98382455D01*
X141166206Y-98497664D01*
X141166202Y-98497671D01*
X141115908Y-98632517D01*
X141109501Y-98692116D01*
X141109500Y-98692135D01*
X141109500Y-100487870D01*
X141109501Y-100487876D01*
X141115908Y-100547483D01*
X141166202Y-100682328D01*
X141166206Y-100682335D01*
X141252452Y-100797544D01*
X141252455Y-100797547D01*
X141367664Y-100883793D01*
X141367671Y-100883797D01*
X141499082Y-100932810D01*
X141555016Y-100974681D01*
X141579433Y-101040145D01*
X141564582Y-101108418D01*
X141543431Y-101136673D01*
X141429889Y-101250215D01*
X141304951Y-101422179D01*
X141208444Y-101611583D01*
X141149288Y-101793646D01*
X141109850Y-101851321D01*
X141045491Y-101878519D01*
X140976645Y-101866604D01*
X140928255Y-101824218D01*
X140871789Y-101739710D01*
X140760292Y-101628213D01*
X140760288Y-101628210D01*
X140629185Y-101540609D01*
X140629172Y-101540602D01*
X140483501Y-101480264D01*
X140483489Y-101480261D01*
X140328845Y-101449500D01*
X140328842Y-101449500D01*
X140171158Y-101449500D01*
X140171155Y-101449500D01*
X140016510Y-101480261D01*
X140016498Y-101480264D01*
X139870827Y-101540602D01*
X139870814Y-101540609D01*
X139739711Y-101628210D01*
X139739707Y-101628213D01*
X139628213Y-101739707D01*
X139628210Y-101739711D01*
X139540609Y-101870814D01*
X139540602Y-101870827D01*
X139480264Y-102016498D01*
X139480261Y-102016510D01*
X139449500Y-102171153D01*
X138557058Y-102171153D01*
X138570500Y-102086287D01*
X138570500Y-101873713D01*
X138537246Y-101663757D01*
X138471557Y-101461588D01*
X138375051Y-101272184D01*
X138375049Y-101272181D01*
X138375048Y-101272179D01*
X138250109Y-101100213D01*
X138099786Y-100949890D01*
X137927820Y-100824951D01*
X137927115Y-100824591D01*
X137919054Y-100820485D01*
X137868259Y-100772512D01*
X137851463Y-100704692D01*
X137873999Y-100638556D01*
X137919054Y-100599515D01*
X137927816Y-100595051D01*
X138065549Y-100494983D01*
X138099786Y-100470109D01*
X138099788Y-100470106D01*
X138099792Y-100470104D01*
X138250104Y-100319792D01*
X138250106Y-100319788D01*
X138250109Y-100319786D01*
X138375048Y-100147820D01*
X138375047Y-100147820D01*
X138375051Y-100147816D01*
X138471557Y-99958412D01*
X138537246Y-99756243D01*
X138570500Y-99546287D01*
X138570500Y-99333713D01*
X138537246Y-99123757D01*
X138471557Y-98921588D01*
X138375051Y-98732184D01*
X138375049Y-98732181D01*
X138375048Y-98732179D01*
X138250109Y-98560213D01*
X138099786Y-98409890D01*
X137927820Y-98284951D01*
X137927115Y-98284591D01*
X137919054Y-98280485D01*
X137868259Y-98232512D01*
X137851463Y-98164692D01*
X137873999Y-98098556D01*
X137919054Y-98059515D01*
X137927816Y-98055051D01*
X137949789Y-98039086D01*
X138099786Y-97930109D01*
X138099788Y-97930106D01*
X138099792Y-97930104D01*
X138250104Y-97779792D01*
X138250106Y-97779788D01*
X138250109Y-97779786D01*
X138375048Y-97607820D01*
X138375047Y-97607820D01*
X138375051Y-97607816D01*
X138471557Y-97418412D01*
X138537246Y-97216243D01*
X138570500Y-97006287D01*
X138570500Y-96793713D01*
X138537246Y-96583757D01*
X138471557Y-96381588D01*
X138375051Y-96192184D01*
X138375049Y-96192181D01*
X138375048Y-96192179D01*
X138250109Y-96020213D01*
X138099786Y-95869890D01*
X137927820Y-95744951D01*
X137927115Y-95744591D01*
X137919054Y-95740485D01*
X137868259Y-95692512D01*
X137851463Y-95624692D01*
X137873999Y-95558556D01*
X137919054Y-95519515D01*
X137927816Y-95515051D01*
X138018040Y-95449500D01*
X138057057Y-95421153D01*
X143199500Y-95421153D01*
X143199500Y-95578846D01*
X143230261Y-95733489D01*
X143230264Y-95733501D01*
X143290602Y-95879172D01*
X143290609Y-95879185D01*
X143378210Y-96010288D01*
X143378213Y-96010292D01*
X143489707Y-96121786D01*
X143489711Y-96121789D01*
X143620814Y-96209390D01*
X143620827Y-96209397D01*
X143766498Y-96269735D01*
X143766503Y-96269737D01*
X143862367Y-96288805D01*
X143863535Y-96289038D01*
X143925446Y-96321422D01*
X143960020Y-96382138D01*
X143960961Y-96386463D01*
X143980261Y-96483491D01*
X143980264Y-96483501D01*
X144040602Y-96629172D01*
X144040609Y-96629185D01*
X144128210Y-96760288D01*
X144128213Y-96760292D01*
X144239707Y-96871786D01*
X144239711Y-96871789D01*
X144370814Y-96959390D01*
X144370827Y-96959397D01*
X144516498Y-97019735D01*
X144516503Y-97019737D01*
X144671153Y-97050499D01*
X144671156Y-97050500D01*
X144671158Y-97050500D01*
X144828844Y-97050500D01*
X144828845Y-97050499D01*
X144983497Y-97019737D01*
X145129179Y-96959394D01*
X145260289Y-96871789D01*
X145371789Y-96760289D01*
X145459394Y-96629179D01*
X145519737Y-96483497D01*
X145550500Y-96328842D01*
X145550500Y-96171158D01*
X145550500Y-96171155D01*
X145550499Y-96171153D01*
X145949500Y-96171153D01*
X145949500Y-96328846D01*
X145980261Y-96483489D01*
X145980264Y-96483501D01*
X146040602Y-96629172D01*
X146040609Y-96629185D01*
X146128210Y-96760288D01*
X146128213Y-96760292D01*
X146239707Y-96871786D01*
X146239711Y-96871789D01*
X146370814Y-96959390D01*
X146370827Y-96959397D01*
X146516498Y-97019735D01*
X146516503Y-97019737D01*
X146671153Y-97050499D01*
X146671156Y-97050500D01*
X146671158Y-97050500D01*
X146828844Y-97050500D01*
X146828845Y-97050499D01*
X146983497Y-97019737D01*
X147129179Y-96959394D01*
X147260289Y-96871789D01*
X147371789Y-96760289D01*
X147459394Y-96629179D01*
X147519737Y-96483497D01*
X147550500Y-96328842D01*
X147550500Y-96171158D01*
X147550500Y-96171155D01*
X147550499Y-96171153D01*
X147519738Y-96016510D01*
X147519737Y-96016503D01*
X147517163Y-96010288D01*
X147459397Y-95870827D01*
X147459390Y-95870814D01*
X147371789Y-95739711D01*
X147371786Y-95739707D01*
X147260292Y-95628213D01*
X147260288Y-95628210D01*
X147129185Y-95540609D01*
X147129172Y-95540602D01*
X146983501Y-95480264D01*
X146983489Y-95480261D01*
X146828845Y-95449500D01*
X146828842Y-95449500D01*
X146671158Y-95449500D01*
X146671155Y-95449500D01*
X146516510Y-95480261D01*
X146516498Y-95480264D01*
X146370827Y-95540602D01*
X146370814Y-95540609D01*
X146239711Y-95628210D01*
X146239707Y-95628213D01*
X146128213Y-95739707D01*
X146128210Y-95739711D01*
X146040609Y-95870814D01*
X146040602Y-95870827D01*
X145980264Y-96016498D01*
X145980261Y-96016510D01*
X145949500Y-96171153D01*
X145550499Y-96171153D01*
X145519738Y-96016510D01*
X145519737Y-96016503D01*
X145517163Y-96010288D01*
X145459397Y-95870827D01*
X145459390Y-95870814D01*
X145371789Y-95739711D01*
X145371786Y-95739707D01*
X145260292Y-95628213D01*
X145260288Y-95628210D01*
X145129185Y-95540609D01*
X145129172Y-95540602D01*
X144983501Y-95480264D01*
X144983491Y-95480261D01*
X144886463Y-95460961D01*
X144824552Y-95428576D01*
X144789978Y-95367860D01*
X144789038Y-95363535D01*
X144769738Y-95266510D01*
X144769737Y-95266503D01*
X144758671Y-95239786D01*
X144709397Y-95120827D01*
X144709390Y-95120814D01*
X144621789Y-94989711D01*
X144621786Y-94989707D01*
X144510292Y-94878213D01*
X144510288Y-94878210D01*
X144379185Y-94790609D01*
X144379172Y-94790602D01*
X144233501Y-94730264D01*
X144233489Y-94730261D01*
X144078845Y-94699500D01*
X144078842Y-94699500D01*
X143921158Y-94699500D01*
X143921155Y-94699500D01*
X143766510Y-94730261D01*
X143766498Y-94730264D01*
X143620827Y-94790602D01*
X143620814Y-94790609D01*
X143489711Y-94878210D01*
X143489707Y-94878213D01*
X143378213Y-94989707D01*
X143378210Y-94989711D01*
X143290609Y-95120814D01*
X143290602Y-95120827D01*
X143230264Y-95266498D01*
X143230261Y-95266510D01*
X143199500Y-95421153D01*
X138057057Y-95421153D01*
X138099786Y-95390109D01*
X138099788Y-95390106D01*
X138099792Y-95390104D01*
X138250104Y-95239792D01*
X138250106Y-95239788D01*
X138250109Y-95239786D01*
X138375048Y-95067820D01*
X138375047Y-95067820D01*
X138375051Y-95067816D01*
X138471557Y-94878412D01*
X138537246Y-94676243D01*
X138570500Y-94466287D01*
X138570500Y-94253713D01*
X138537246Y-94043757D01*
X138471557Y-93841588D01*
X138375051Y-93652184D01*
X138375049Y-93652181D01*
X138375048Y-93652179D01*
X138250109Y-93480213D01*
X138099786Y-93329890D01*
X137927820Y-93204951D01*
X137927115Y-93204591D01*
X137919054Y-93200485D01*
X137868259Y-93152512D01*
X137851463Y-93084692D01*
X137873999Y-93018556D01*
X137919054Y-92979515D01*
X137927816Y-92975051D01*
X137949789Y-92959086D01*
X138099786Y-92850109D01*
X138099788Y-92850106D01*
X138099792Y-92850104D01*
X138250104Y-92699792D01*
X138250106Y-92699788D01*
X138250109Y-92699786D01*
X138375048Y-92527820D01*
X138375047Y-92527820D01*
X138375051Y-92527816D01*
X138471557Y-92338412D01*
X138537246Y-92136243D01*
X138570500Y-91926287D01*
X138570500Y-91713713D01*
X138537246Y-91503757D01*
X138471557Y-91301588D01*
X138375051Y-91112184D01*
X138375049Y-91112181D01*
X138375048Y-91112179D01*
X138284792Y-90987951D01*
X138250109Y-90940213D01*
X138231049Y-90921153D01*
X141449500Y-90921153D01*
X141449500Y-91078846D01*
X141480261Y-91233489D01*
X141480264Y-91233501D01*
X141540602Y-91379172D01*
X141540609Y-91379185D01*
X141628210Y-91510288D01*
X141628213Y-91510292D01*
X141739707Y-91621786D01*
X141739711Y-91621789D01*
X141870814Y-91709390D01*
X141870827Y-91709397D01*
X142016498Y-91769735D01*
X142016503Y-91769737D01*
X142171153Y-91800499D01*
X142171156Y-91800500D01*
X142171158Y-91800500D01*
X142328844Y-91800500D01*
X142328845Y-91800499D01*
X142483497Y-91769737D01*
X142629179Y-91709394D01*
X142760289Y-91621789D01*
X142871789Y-91510289D01*
X142959394Y-91379179D01*
X143019737Y-91233497D01*
X143050500Y-91078842D01*
X143050500Y-90921158D01*
X143050500Y-90921155D01*
X143050499Y-90921153D01*
X144949500Y-90921153D01*
X144949500Y-91078846D01*
X144980261Y-91233489D01*
X144980264Y-91233501D01*
X145040602Y-91379172D01*
X145040609Y-91379185D01*
X145128210Y-91510288D01*
X145128213Y-91510292D01*
X145239707Y-91621786D01*
X145239711Y-91621789D01*
X145370814Y-91709390D01*
X145370827Y-91709397D01*
X145516498Y-91769735D01*
X145516503Y-91769737D01*
X145671153Y-91800499D01*
X145671156Y-91800500D01*
X145671158Y-91800500D01*
X145828844Y-91800500D01*
X145828845Y-91800499D01*
X145983497Y-91769737D01*
X146129179Y-91709394D01*
X146260289Y-91621789D01*
X146371789Y-91510289D01*
X146459394Y-91379179D01*
X146519737Y-91233497D01*
X146550500Y-91078842D01*
X146550500Y-90921158D01*
X146550500Y-90921155D01*
X146550499Y-90921153D01*
X146519738Y-90766510D01*
X146519737Y-90766503D01*
X146477673Y-90664951D01*
X146459397Y-90620827D01*
X146459390Y-90620814D01*
X146371789Y-90489711D01*
X146371786Y-90489707D01*
X146260292Y-90378213D01*
X146260288Y-90378210D01*
X146129185Y-90290609D01*
X146129172Y-90290602D01*
X145983501Y-90230264D01*
X145983489Y-90230261D01*
X145828845Y-90199500D01*
X145828842Y-90199500D01*
X145671158Y-90199500D01*
X145671155Y-90199500D01*
X145516510Y-90230261D01*
X145516498Y-90230264D01*
X145370827Y-90290602D01*
X145370814Y-90290609D01*
X145239711Y-90378210D01*
X145239707Y-90378213D01*
X145128213Y-90489707D01*
X145128210Y-90489711D01*
X145040609Y-90620814D01*
X145040602Y-90620827D01*
X144980264Y-90766498D01*
X144980261Y-90766510D01*
X144949500Y-90921153D01*
X143050499Y-90921153D01*
X143019738Y-90766510D01*
X143019737Y-90766503D01*
X142977673Y-90664951D01*
X142959397Y-90620827D01*
X142959390Y-90620814D01*
X142871789Y-90489711D01*
X142871786Y-90489707D01*
X142760292Y-90378213D01*
X142760288Y-90378210D01*
X142629185Y-90290609D01*
X142629172Y-90290602D01*
X142483501Y-90230264D01*
X142483489Y-90230261D01*
X142328845Y-90199500D01*
X142328842Y-90199500D01*
X142171158Y-90199500D01*
X142171155Y-90199500D01*
X142016510Y-90230261D01*
X142016498Y-90230264D01*
X141870827Y-90290602D01*
X141870814Y-90290609D01*
X141739711Y-90378210D01*
X141739707Y-90378213D01*
X141628213Y-90489707D01*
X141628210Y-90489711D01*
X141540609Y-90620814D01*
X141540602Y-90620827D01*
X141480264Y-90766498D01*
X141480261Y-90766510D01*
X141449500Y-90921153D01*
X138231049Y-90921153D01*
X138099786Y-90789890D01*
X137927820Y-90664951D01*
X137927115Y-90664591D01*
X137919054Y-90660485D01*
X137868259Y-90612512D01*
X137851463Y-90544692D01*
X137873999Y-90478556D01*
X137919054Y-90439515D01*
X137927816Y-90435051D01*
X137949789Y-90419086D01*
X138099786Y-90310109D01*
X138099788Y-90310106D01*
X138099792Y-90310104D01*
X138250104Y-90159792D01*
X138250106Y-90159788D01*
X138250109Y-90159786D01*
X138375048Y-89987820D01*
X138375047Y-89987820D01*
X138375051Y-89987816D01*
X138471557Y-89798412D01*
X138537246Y-89596243D01*
X138570500Y-89386287D01*
X138570500Y-89173713D01*
X138537246Y-88963757D01*
X138471557Y-88761588D01*
X138375051Y-88572184D01*
X138375049Y-88572181D01*
X138375048Y-88572179D01*
X138250109Y-88400213D01*
X138099786Y-88249890D01*
X137927820Y-88124951D01*
X137927115Y-88124591D01*
X137919054Y-88120485D01*
X137868259Y-88072512D01*
X137851463Y-88004692D01*
X137873999Y-87938556D01*
X137919054Y-87899515D01*
X137927816Y-87895051D01*
X137949789Y-87879086D01*
X138099786Y-87770109D01*
X138099788Y-87770106D01*
X138099792Y-87770104D01*
X138250104Y-87619792D01*
X138250106Y-87619788D01*
X138250109Y-87619786D01*
X138373902Y-87449397D01*
X138375051Y-87447816D01*
X138471557Y-87258412D01*
X138537246Y-87056243D01*
X138570500Y-86846287D01*
X138570500Y-86661153D01*
X142439500Y-86661153D01*
X142439500Y-86818846D01*
X142470261Y-86973489D01*
X142470264Y-86973501D01*
X142530602Y-87119172D01*
X142530609Y-87119185D01*
X142618210Y-87250288D01*
X142618213Y-87250292D01*
X142729707Y-87361786D01*
X142729711Y-87361789D01*
X142860814Y-87449390D01*
X142860827Y-87449397D01*
X143006498Y-87509735D01*
X143006503Y-87509737D01*
X143161153Y-87540499D01*
X143161156Y-87540500D01*
X143161158Y-87540500D01*
X143318844Y-87540500D01*
X143318845Y-87540499D01*
X143473497Y-87509737D01*
X143619179Y-87449394D01*
X143750289Y-87361789D01*
X143861789Y-87250289D01*
X143949394Y-87119179D01*
X144009737Y-86973497D01*
X144040500Y-86818842D01*
X144040500Y-86661158D01*
X144040500Y-86661155D01*
X144040499Y-86661153D01*
X144009738Y-86506510D01*
X144009737Y-86506503D01*
X143949394Y-86360821D01*
X143923034Y-86321371D01*
X143902157Y-86254696D01*
X143920641Y-86187316D01*
X143922985Y-86183667D01*
X143959394Y-86129179D01*
X144019737Y-85983497D01*
X144050500Y-85828842D01*
X144050500Y-85671158D01*
X144050500Y-85671155D01*
X144050499Y-85671153D01*
X144032464Y-85580486D01*
X144019737Y-85516503D01*
X144000475Y-85470000D01*
X143959397Y-85370827D01*
X143959390Y-85370814D01*
X143871789Y-85239711D01*
X143871786Y-85239707D01*
X143760292Y-85128213D01*
X143760288Y-85128210D01*
X143629185Y-85040609D01*
X143629175Y-85040604D01*
X143598896Y-85028062D01*
X143544493Y-84984221D01*
X143522428Y-84917926D01*
X143539708Y-84850227D01*
X143590845Y-84802617D01*
X143622158Y-84791884D01*
X143644241Y-84787491D01*
X143733497Y-84769737D01*
X143857403Y-84718414D01*
X143879172Y-84709397D01*
X143879172Y-84709396D01*
X143879179Y-84709394D01*
X144010289Y-84621789D01*
X144121789Y-84510289D01*
X144209394Y-84379179D01*
X144269737Y-84233497D01*
X144289038Y-84136460D01*
X144321422Y-84074553D01*
X144382138Y-84039979D01*
X144386400Y-84039050D01*
X144483497Y-84019737D01*
X144629179Y-83959394D01*
X144760289Y-83871789D01*
X144871789Y-83760289D01*
X144959394Y-83629179D01*
X144962854Y-83620827D01*
X144980244Y-83578842D01*
X145019737Y-83483497D01*
X145032138Y-83421153D01*
X145949500Y-83421153D01*
X145949500Y-83578846D01*
X145980261Y-83733489D01*
X145980264Y-83733501D01*
X146040602Y-83879172D01*
X146040609Y-83879185D01*
X146128210Y-84010288D01*
X146128213Y-84010292D01*
X146239707Y-84121786D01*
X146239711Y-84121789D01*
X146370814Y-84209390D01*
X146370827Y-84209397D01*
X146516498Y-84269735D01*
X146516503Y-84269737D01*
X146671153Y-84300499D01*
X146671156Y-84300500D01*
X146671158Y-84300500D01*
X146828844Y-84300500D01*
X146828845Y-84300499D01*
X146983497Y-84269737D01*
X147129179Y-84209394D01*
X147260289Y-84121789D01*
X147371789Y-84010289D01*
X147459394Y-83879179D01*
X147519737Y-83733497D01*
X147550500Y-83578842D01*
X147550500Y-83421158D01*
X147550500Y-83421155D01*
X147550499Y-83421153D01*
X147532137Y-83328842D01*
X147519737Y-83266503D01*
X147519735Y-83266498D01*
X147459397Y-83120827D01*
X147459390Y-83120814D01*
X147371789Y-82989711D01*
X147371786Y-82989707D01*
X147260292Y-82878213D01*
X147260288Y-82878210D01*
X147129185Y-82790609D01*
X147129172Y-82790602D01*
X146983501Y-82730264D01*
X146983489Y-82730261D01*
X146828845Y-82699500D01*
X146828842Y-82699500D01*
X146671158Y-82699500D01*
X146671155Y-82699500D01*
X146516510Y-82730261D01*
X146516498Y-82730264D01*
X146370827Y-82790602D01*
X146370814Y-82790609D01*
X146239711Y-82878210D01*
X146239707Y-82878213D01*
X146128213Y-82989707D01*
X146128210Y-82989711D01*
X146040609Y-83120814D01*
X146040602Y-83120827D01*
X145980264Y-83266498D01*
X145980261Y-83266510D01*
X145949500Y-83421153D01*
X145032138Y-83421153D01*
X145038161Y-83390874D01*
X145050500Y-83328844D01*
X145050500Y-83171155D01*
X145050499Y-83171153D01*
X145039038Y-83113536D01*
X145019737Y-83016503D01*
X145009800Y-82992512D01*
X144959397Y-82870827D01*
X144959390Y-82870814D01*
X144871789Y-82739711D01*
X144871786Y-82739707D01*
X144760292Y-82628213D01*
X144760288Y-82628210D01*
X144629185Y-82540609D01*
X144629172Y-82540602D01*
X144483501Y-82480264D01*
X144483489Y-82480261D01*
X144328845Y-82449500D01*
X144328842Y-82449500D01*
X144171158Y-82449500D01*
X144171155Y-82449500D01*
X144016510Y-82480261D01*
X144016498Y-82480264D01*
X143870827Y-82540602D01*
X143870814Y-82540609D01*
X143739711Y-82628210D01*
X143739707Y-82628213D01*
X143628213Y-82739707D01*
X143628210Y-82739711D01*
X143540609Y-82870814D01*
X143540602Y-82870827D01*
X143480264Y-83016498D01*
X143480261Y-83016508D01*
X143460961Y-83113536D01*
X143428576Y-83175447D01*
X143367860Y-83210021D01*
X143363536Y-83210961D01*
X143266508Y-83230261D01*
X143266498Y-83230264D01*
X143120827Y-83290602D01*
X143120814Y-83290609D01*
X142989711Y-83378210D01*
X142989707Y-83378213D01*
X142878213Y-83489707D01*
X142878210Y-83489711D01*
X142790609Y-83620814D01*
X142790602Y-83620827D01*
X142730264Y-83766498D01*
X142730261Y-83766510D01*
X142699500Y-83921153D01*
X142699500Y-84078846D01*
X142730261Y-84233489D01*
X142730264Y-84233501D01*
X142790602Y-84379172D01*
X142790609Y-84379185D01*
X142878210Y-84510288D01*
X142878213Y-84510292D01*
X142989707Y-84621786D01*
X142989711Y-84621789D01*
X143120814Y-84709390D01*
X143120818Y-84709392D01*
X143120821Y-84709394D01*
X143151103Y-84721937D01*
X143205505Y-84765777D01*
X143227571Y-84832071D01*
X143210292Y-84899770D01*
X143159156Y-84947381D01*
X143127842Y-84958115D01*
X143016508Y-84980261D01*
X143016498Y-84980264D01*
X142870827Y-85040602D01*
X142870814Y-85040609D01*
X142739711Y-85128210D01*
X142739707Y-85128213D01*
X142628213Y-85239707D01*
X142628210Y-85239711D01*
X142540609Y-85370814D01*
X142540602Y-85370827D01*
X142480264Y-85516498D01*
X142480261Y-85516510D01*
X142449500Y-85671153D01*
X142449500Y-85828846D01*
X142480261Y-85983489D01*
X142480264Y-85983501D01*
X142540602Y-86129172D01*
X142540610Y-86129187D01*
X142566962Y-86168624D01*
X142587841Y-86235301D01*
X142569357Y-86302682D01*
X142566964Y-86306405D01*
X142530611Y-86360812D01*
X142530602Y-86360828D01*
X142470264Y-86506498D01*
X142470261Y-86506510D01*
X142439500Y-86661153D01*
X138570500Y-86661153D01*
X138570500Y-86633713D01*
X138537246Y-86423757D01*
X138471557Y-86221588D01*
X138375051Y-86032184D01*
X138375049Y-86032181D01*
X138375048Y-86032179D01*
X138250109Y-85860213D01*
X138099786Y-85709890D01*
X137927820Y-85584951D01*
X137927115Y-85584591D01*
X137919054Y-85580485D01*
X137868259Y-85532512D01*
X137851463Y-85464692D01*
X137873999Y-85398556D01*
X137919054Y-85359515D01*
X137927816Y-85355051D01*
X137949789Y-85339086D01*
X138099786Y-85230109D01*
X138099788Y-85230106D01*
X138099792Y-85230104D01*
X138250104Y-85079792D01*
X138250106Y-85079788D01*
X138250109Y-85079786D01*
X138375048Y-84907820D01*
X138375047Y-84907820D01*
X138375051Y-84907816D01*
X138471557Y-84718412D01*
X138537246Y-84516243D01*
X138570500Y-84306287D01*
X138570500Y-84093713D01*
X138537246Y-83883757D01*
X138471557Y-83681588D01*
X138375051Y-83492184D01*
X138375049Y-83492181D01*
X138375048Y-83492179D01*
X138250109Y-83320213D01*
X138099786Y-83169890D01*
X137927820Y-83044951D01*
X137927115Y-83044591D01*
X137919054Y-83040485D01*
X137868259Y-82992512D01*
X137851463Y-82924692D01*
X137873999Y-82858556D01*
X137919054Y-82819515D01*
X137927816Y-82815051D01*
X137961467Y-82790602D01*
X138099786Y-82690109D01*
X138099788Y-82690106D01*
X138099792Y-82690104D01*
X138250104Y-82539792D01*
X138250106Y-82539788D01*
X138250109Y-82539786D01*
X138375048Y-82367820D01*
X138375047Y-82367820D01*
X138375051Y-82367816D01*
X138471557Y-82178412D01*
X138537246Y-81976243D01*
X138570500Y-81766287D01*
X138570500Y-81553713D01*
X138537246Y-81343757D01*
X138471557Y-81141588D01*
X138375051Y-80952184D01*
X138375049Y-80952181D01*
X138375048Y-80952179D01*
X138250109Y-80780213D01*
X138099786Y-80629890D01*
X137927820Y-80504951D01*
X137927115Y-80504591D01*
X137919054Y-80500485D01*
X137868259Y-80452512D01*
X137851463Y-80384692D01*
X137873999Y-80318556D01*
X137919054Y-80279515D01*
X137927816Y-80275051D01*
X137949789Y-80259086D01*
X138099786Y-80150109D01*
X138099788Y-80150106D01*
X138099792Y-80150104D01*
X138250104Y-79999792D01*
X138250106Y-79999788D01*
X138250109Y-79999786D01*
X138375048Y-79827820D01*
X138375047Y-79827820D01*
X138375051Y-79827816D01*
X138471557Y-79638412D01*
X138537246Y-79436243D01*
X138570500Y-79226287D01*
X138570500Y-79013713D01*
X138537246Y-78803757D01*
X138471557Y-78601588D01*
X138375051Y-78412184D01*
X138375049Y-78412181D01*
X138375048Y-78412179D01*
X138250109Y-78240213D01*
X138099786Y-78089890D01*
X137927820Y-77964951D01*
X137927115Y-77964591D01*
X137919054Y-77960485D01*
X137868259Y-77912512D01*
X137851463Y-77844692D01*
X137873999Y-77778556D01*
X137919054Y-77739515D01*
X137927816Y-77735051D01*
X137949789Y-77719086D01*
X138099786Y-77610109D01*
X138099788Y-77610106D01*
X138099792Y-77610104D01*
X138250104Y-77459792D01*
X138250106Y-77459788D01*
X138250109Y-77459786D01*
X138375048Y-77287820D01*
X138375047Y-77287820D01*
X138375051Y-77287816D01*
X138471557Y-77098412D01*
X138537246Y-76896243D01*
X138570500Y-76686287D01*
X138570500Y-76473713D01*
X138537246Y-76263757D01*
X138471557Y-76061588D01*
X138375051Y-75872184D01*
X138375049Y-75872181D01*
X138375048Y-75872179D01*
X138250109Y-75700213D01*
X138099786Y-75549890D01*
X137927820Y-75424951D01*
X137927115Y-75424591D01*
X137919054Y-75420485D01*
X137868259Y-75372512D01*
X137851463Y-75304692D01*
X137873999Y-75238556D01*
X137919054Y-75199515D01*
X137927816Y-75195051D01*
X137949789Y-75179086D01*
X138099786Y-75070109D01*
X138099788Y-75070106D01*
X138099792Y-75070104D01*
X138250104Y-74919792D01*
X138250106Y-74919788D01*
X138250109Y-74919786D01*
X138375048Y-74747820D01*
X138375047Y-74747820D01*
X138375051Y-74747816D01*
X138471557Y-74558412D01*
X138537246Y-74356243D01*
X138570500Y-74146287D01*
X138570500Y-73933713D01*
X138570500Y-73928841D01*
X138571674Y-73928841D01*
X138584899Y-73865861D01*
X138633947Y-73816100D01*
X138694158Y-73800500D01*
X138828844Y-73800500D01*
X138828845Y-73800499D01*
X138983497Y-73769737D01*
X139129179Y-73709394D01*
X139260289Y-73621789D01*
X139371789Y-73510289D01*
X139459394Y-73379179D01*
X139519737Y-73233497D01*
X139550500Y-73078842D01*
X139550500Y-72921158D01*
X139550500Y-72921155D01*
X139550499Y-72921153D01*
X139546945Y-72903286D01*
X139519737Y-72766503D01*
X139495317Y-72707547D01*
X139459397Y-72620827D01*
X139459390Y-72620814D01*
X139371789Y-72489711D01*
X139371786Y-72489707D01*
X139260292Y-72378213D01*
X139260288Y-72378210D01*
X139129185Y-72290609D01*
X139129172Y-72290602D01*
X138983501Y-72230264D01*
X138983489Y-72230261D01*
X138828845Y-72199500D01*
X138828842Y-72199500D01*
X138694000Y-72199500D01*
X138626961Y-72179815D01*
X138581206Y-72127011D01*
X138570000Y-72075500D01*
X138570000Y-71750000D01*
X137653012Y-71750000D01*
X137685925Y-71692993D01*
X137720000Y-71565826D01*
X137720000Y-71434174D01*
X137685925Y-71307007D01*
X137653012Y-71250000D01*
X138570000Y-71250000D01*
X138570000Y-70602172D01*
X138569999Y-70602155D01*
X138563598Y-70542627D01*
X138563596Y-70542620D01*
X138513354Y-70407913D01*
X138513350Y-70407906D01*
X138427190Y-70292812D01*
X138427187Y-70292809D01*
X138312093Y-70206649D01*
X138312086Y-70206645D01*
X138177379Y-70156403D01*
X138177372Y-70156401D01*
X138117844Y-70150000D01*
X137470000Y-70150000D01*
X137470000Y-71066988D01*
X137412993Y-71034075D01*
X137285826Y-71000000D01*
X137154174Y-71000000D01*
X137027007Y-71034075D01*
X136970000Y-71066988D01*
X136970000Y-70150000D01*
X136322155Y-70150000D01*
X136262627Y-70156401D01*
X136262620Y-70156403D01*
X136127913Y-70206645D01*
X136127906Y-70206649D01*
X136012812Y-70292809D01*
X136012809Y-70292812D01*
X135926649Y-70407906D01*
X135926645Y-70407913D01*
X135876403Y-70542620D01*
X135876401Y-70542627D01*
X135870000Y-70602155D01*
X135870000Y-71250000D01*
X136786988Y-71250000D01*
X136754075Y-71307007D01*
X136720000Y-71434174D01*
X136720000Y-71565826D01*
X136754075Y-71692993D01*
X136786988Y-71750000D01*
X135870000Y-71750000D01*
X135870000Y-72397844D01*
X135876401Y-72457372D01*
X135876403Y-72457379D01*
X135926645Y-72592086D01*
X135926649Y-72592093D01*
X136012809Y-72707187D01*
X136012812Y-72707190D01*
X136127906Y-72793350D01*
X136127913Y-72793354D01*
X136259470Y-72842422D01*
X136315404Y-72884293D01*
X136339821Y-72949758D01*
X136324969Y-73018031D01*
X136303819Y-73046285D01*
X136189889Y-73160215D01*
X136064951Y-73332179D01*
X135968444Y-73521585D01*
X135902753Y-73723760D01*
X135869500Y-73933713D01*
X133000500Y-73933713D01*
X133000500Y-67897757D01*
X133020185Y-67830718D01*
X133072989Y-67784963D01*
X133142147Y-67775019D01*
X133148692Y-67776140D01*
X133271155Y-67800500D01*
X133271158Y-67800500D01*
X133428844Y-67800500D01*
X133428845Y-67800499D01*
X133583497Y-67769737D01*
X133729179Y-67709394D01*
X133860289Y-67621789D01*
X133903753Y-67578325D01*
X133962319Y-67519760D01*
X134023642Y-67486275D01*
X134093334Y-67491259D01*
X134137681Y-67519760D01*
X134239707Y-67621786D01*
X134239711Y-67621789D01*
X134370814Y-67709390D01*
X134370827Y-67709397D01*
X134516498Y-67769735D01*
X134516503Y-67769737D01*
X134671153Y-67800499D01*
X134671156Y-67800500D01*
X134671158Y-67800500D01*
X134828844Y-67800500D01*
X134828845Y-67800499D01*
X134983497Y-67769737D01*
X135129179Y-67709394D01*
X135260289Y-67621789D01*
X135371789Y-67510289D01*
X135431348Y-67421153D01*
X140949500Y-67421153D01*
X140949500Y-67578846D01*
X140980261Y-67733489D01*
X140980264Y-67733501D01*
X141040602Y-67879172D01*
X141040609Y-67879185D01*
X141128210Y-68010288D01*
X141128213Y-68010292D01*
X141239707Y-68121786D01*
X141239711Y-68121789D01*
X141370814Y-68209390D01*
X141370827Y-68209397D01*
X141516498Y-68269735D01*
X141516503Y-68269737D01*
X141671153Y-68300499D01*
X141671156Y-68300500D01*
X141671158Y-68300500D01*
X141828844Y-68300500D01*
X141828845Y-68300499D01*
X141983497Y-68269737D01*
X142129179Y-68209394D01*
X142260289Y-68121789D01*
X142371789Y-68010289D01*
X142459394Y-67879179D01*
X142495610Y-67791743D01*
X142539449Y-67737344D01*
X142605743Y-67715278D01*
X142657622Y-67724638D01*
X142766498Y-67769735D01*
X142766503Y-67769737D01*
X142921153Y-67800499D01*
X142921156Y-67800500D01*
X142921158Y-67800500D01*
X143078844Y-67800500D01*
X143078845Y-67800499D01*
X143233497Y-67769737D01*
X143322237Y-67732980D01*
X146387673Y-67732980D01*
X146387673Y-67890673D01*
X146418434Y-68045316D01*
X146418437Y-68045328D01*
X146478775Y-68190999D01*
X146478782Y-68191012D01*
X146566383Y-68322115D01*
X146566386Y-68322119D01*
X146677880Y-68433613D01*
X146677884Y-68433616D01*
X146808987Y-68521217D01*
X146809000Y-68521224D01*
X146954671Y-68581562D01*
X146954676Y-68581564D01*
X147109326Y-68612326D01*
X147109329Y-68612327D01*
X147109331Y-68612327D01*
X147267017Y-68612327D01*
X147267018Y-68612326D01*
X147421670Y-68581564D01*
X147567352Y-68521221D01*
X147698462Y-68433616D01*
X147809962Y-68322116D01*
X147897567Y-68191006D01*
X147957910Y-68045324D01*
X147988673Y-67890669D01*
X147988673Y-67732985D01*
X147988673Y-67732982D01*
X147988672Y-67732980D01*
X147966953Y-67623791D01*
X147957910Y-67578330D01*
X147933640Y-67519737D01*
X147897570Y-67432654D01*
X147897563Y-67432641D01*
X147809962Y-67301538D01*
X147809959Y-67301534D01*
X147698465Y-67190040D01*
X147698461Y-67190037D01*
X147567358Y-67102436D01*
X147567345Y-67102429D01*
X147421674Y-67042091D01*
X147421662Y-67042088D01*
X147267018Y-67011327D01*
X147267015Y-67011327D01*
X147109331Y-67011327D01*
X147109328Y-67011327D01*
X146954683Y-67042088D01*
X146954671Y-67042091D01*
X146809000Y-67102429D01*
X146808987Y-67102436D01*
X146677884Y-67190037D01*
X146677880Y-67190040D01*
X146566386Y-67301534D01*
X146566383Y-67301538D01*
X146478782Y-67432641D01*
X146478775Y-67432654D01*
X146418437Y-67578325D01*
X146418434Y-67578337D01*
X146387673Y-67732980D01*
X143322237Y-67732980D01*
X143379179Y-67709394D01*
X143507294Y-67623790D01*
X143507295Y-67623790D01*
X143509040Y-67622623D01*
X143510289Y-67621789D01*
X143621789Y-67510289D01*
X143709394Y-67379179D01*
X143769737Y-67233497D01*
X143800500Y-67078842D01*
X143800500Y-66921158D01*
X143800500Y-66921155D01*
X143800499Y-66921153D01*
X143774531Y-66790606D01*
X143769737Y-66766503D01*
X143758426Y-66739196D01*
X143709396Y-66620825D01*
X143709394Y-66620822D01*
X143709394Y-66620821D01*
X143674694Y-66568889D01*
X143653816Y-66502215D01*
X143672300Y-66434835D01*
X143674676Y-66431136D01*
X143709394Y-66379179D01*
X143769737Y-66233497D01*
X143800500Y-66078842D01*
X143800500Y-65921158D01*
X143800500Y-65921155D01*
X143800499Y-65921153D01*
X143783784Y-65837121D01*
X143769737Y-65766503D01*
X143737464Y-65688588D01*
X143709397Y-65620827D01*
X143709390Y-65620814D01*
X143621789Y-65489711D01*
X143621786Y-65489707D01*
X143510292Y-65378213D01*
X143510288Y-65378210D01*
X143507358Y-65376252D01*
X148485360Y-65376252D01*
X148485360Y-65533945D01*
X148516121Y-65688588D01*
X148516124Y-65688600D01*
X148576462Y-65834271D01*
X148576469Y-65834284D01*
X148664070Y-65965387D01*
X148664073Y-65965391D01*
X148775567Y-66076885D01*
X148775571Y-66076888D01*
X148906674Y-66164489D01*
X148906687Y-66164496D01*
X148980223Y-66194955D01*
X149034627Y-66238795D01*
X149056692Y-66305089D01*
X149042790Y-66365132D01*
X149042937Y-66365193D01*
X149042573Y-66366071D01*
X149042137Y-66367955D01*
X149040606Y-66370818D01*
X148980264Y-66516498D01*
X148980261Y-66516510D01*
X148949500Y-66671153D01*
X148949500Y-66828846D01*
X148980261Y-66983489D01*
X148980264Y-66983501D01*
X149040602Y-67129172D01*
X149040609Y-67129185D01*
X149128210Y-67260288D01*
X149128213Y-67260292D01*
X149239707Y-67371786D01*
X149239711Y-67371789D01*
X149370814Y-67459390D01*
X149370827Y-67459397D01*
X149516498Y-67519735D01*
X149516503Y-67519737D01*
X149671153Y-67550499D01*
X149671156Y-67550500D01*
X149671158Y-67550500D01*
X149828844Y-67550500D01*
X149828845Y-67550499D01*
X149983497Y-67519737D01*
X150129179Y-67459394D01*
X150260289Y-67371789D01*
X150371789Y-67260289D01*
X150459394Y-67129179D01*
X150462854Y-67120827D01*
X150495468Y-67042088D01*
X150519737Y-66983497D01*
X150550500Y-66828842D01*
X150550500Y-66671158D01*
X150550500Y-66671155D01*
X150550499Y-66671153D01*
X150540486Y-66620814D01*
X150519737Y-66516503D01*
X150511984Y-66497786D01*
X150459397Y-66370827D01*
X150459390Y-66370814D01*
X150371789Y-66239711D01*
X150371786Y-66239707D01*
X150260292Y-66128213D01*
X150260288Y-66128210D01*
X150129185Y-66040609D01*
X150129176Y-66040604D01*
X150055635Y-66010143D01*
X150001232Y-65966302D01*
X149979167Y-65900008D01*
X149993074Y-65839969D01*
X149992923Y-65839907D01*
X149993298Y-65838999D01*
X149993734Y-65837121D01*
X149995257Y-65834272D01*
X150055595Y-65688600D01*
X150055597Y-65688596D01*
X150086360Y-65533941D01*
X150086360Y-65376257D01*
X150086360Y-65376254D01*
X150086359Y-65376252D01*
X150076929Y-65328846D01*
X150055597Y-65221602D01*
X150034703Y-65171158D01*
X149995257Y-65075926D01*
X149995250Y-65075913D01*
X149907649Y-64944810D01*
X149907646Y-64944806D01*
X149796152Y-64833312D01*
X149796148Y-64833309D01*
X149665045Y-64745708D01*
X149665032Y-64745701D01*
X149519361Y-64685363D01*
X149519349Y-64685360D01*
X149364705Y-64654599D01*
X149364702Y-64654599D01*
X149207018Y-64654599D01*
X149207015Y-64654599D01*
X149052370Y-64685360D01*
X149052358Y-64685363D01*
X148906687Y-64745701D01*
X148906674Y-64745708D01*
X148775571Y-64833309D01*
X148775567Y-64833312D01*
X148664073Y-64944806D01*
X148664070Y-64944810D01*
X148576469Y-65075913D01*
X148576462Y-65075926D01*
X148516124Y-65221597D01*
X148516121Y-65221609D01*
X148485360Y-65376252D01*
X143507358Y-65376252D01*
X143379185Y-65290609D01*
X143379169Y-65290601D01*
X143377038Y-65289718D01*
X143376094Y-65288957D01*
X143373809Y-65287736D01*
X143374040Y-65287302D01*
X143322638Y-65245873D01*
X143300579Y-65179577D01*
X143300500Y-65175161D01*
X143300500Y-65171155D01*
X143300499Y-65171153D01*
X143269738Y-65016510D01*
X143269737Y-65016503D01*
X143240041Y-64944810D01*
X143209397Y-64870827D01*
X143209390Y-64870814D01*
X143121789Y-64739711D01*
X143121786Y-64739707D01*
X143010292Y-64628213D01*
X143010288Y-64628210D01*
X142879185Y-64540609D01*
X142879173Y-64540602D01*
X142852674Y-64529627D01*
X142733501Y-64480264D01*
X142733489Y-64480261D01*
X142578845Y-64449500D01*
X142578842Y-64449500D01*
X142421158Y-64449500D01*
X142421155Y-64449500D01*
X142266510Y-64480261D01*
X142266498Y-64480264D01*
X142120827Y-64540602D01*
X142120814Y-64540609D01*
X141989711Y-64628210D01*
X141989707Y-64628213D01*
X141878213Y-64739707D01*
X141878210Y-64739711D01*
X141790609Y-64870814D01*
X141790602Y-64870827D01*
X141730264Y-65016498D01*
X141730261Y-65016510D01*
X141699500Y-65171153D01*
X141699500Y-65328846D01*
X141730261Y-65483489D01*
X141730264Y-65483501D01*
X141790602Y-65629172D01*
X141790609Y-65629185D01*
X141878210Y-65760288D01*
X141878213Y-65760292D01*
X141989710Y-65871789D01*
X142120815Y-65959390D01*
X142120821Y-65959394D01*
X142122945Y-65960274D01*
X142123885Y-65961031D01*
X142126192Y-65962264D01*
X142125958Y-65962701D01*
X142177349Y-66004107D01*
X142199421Y-66070399D01*
X142199500Y-66074837D01*
X142199500Y-66078846D01*
X142230261Y-66233489D01*
X142230264Y-66233501D01*
X142290602Y-66379172D01*
X142290609Y-66379185D01*
X142325304Y-66431109D01*
X142329171Y-66443461D01*
X142337200Y-66453616D01*
X142339411Y-66476164D01*
X142346182Y-66497786D01*
X142342915Y-66511879D01*
X142344021Y-66523152D01*
X142335443Y-66544113D01*
X142332564Y-66556535D01*
X142329289Y-66562926D01*
X142290606Y-66620821D01*
X142252476Y-66712874D01*
X142250191Y-66717336D01*
X142229454Y-66739196D01*
X142210549Y-66762657D01*
X142205656Y-66764285D01*
X142202107Y-66768027D01*
X142172847Y-66775205D01*
X142144255Y-66784722D01*
X142138378Y-66783661D01*
X142134249Y-66784675D01*
X142123447Y-66780967D01*
X142092377Y-66775362D01*
X141983501Y-66730264D01*
X141983489Y-66730261D01*
X141828845Y-66699500D01*
X141828842Y-66699500D01*
X141671158Y-66699500D01*
X141671155Y-66699500D01*
X141516510Y-66730261D01*
X141516498Y-66730264D01*
X141370827Y-66790602D01*
X141370814Y-66790609D01*
X141239711Y-66878210D01*
X141239707Y-66878213D01*
X141128213Y-66989707D01*
X141128210Y-66989711D01*
X141040609Y-67120814D01*
X141040602Y-67120827D01*
X140980264Y-67266498D01*
X140980261Y-67266510D01*
X140949500Y-67421153D01*
X135431348Y-67421153D01*
X135459394Y-67379179D01*
X135519737Y-67233497D01*
X135550500Y-67078842D01*
X135550500Y-66921158D01*
X135550500Y-66921155D01*
X135550499Y-66921153D01*
X135524531Y-66790606D01*
X135519737Y-66766503D01*
X135508426Y-66739196D01*
X135459397Y-66620827D01*
X135459390Y-66620814D01*
X135371789Y-66489711D01*
X135371786Y-66489707D01*
X135260292Y-66378213D01*
X135260288Y-66378210D01*
X135129185Y-66290609D01*
X135129172Y-66290602D01*
X134983501Y-66230264D01*
X134983489Y-66230261D01*
X134828845Y-66199500D01*
X134828842Y-66199500D01*
X134671158Y-66199500D01*
X134671155Y-66199500D01*
X134516510Y-66230261D01*
X134516498Y-66230264D01*
X134370827Y-66290602D01*
X134370814Y-66290609D01*
X134239711Y-66378210D01*
X134239707Y-66378213D01*
X134137681Y-66480240D01*
X134076358Y-66513725D01*
X134006666Y-66508741D01*
X133962319Y-66480240D01*
X133860292Y-66378213D01*
X133860288Y-66378210D01*
X133729185Y-66290609D01*
X133729172Y-66290602D01*
X133583501Y-66230264D01*
X133583489Y-66230261D01*
X133428845Y-66199500D01*
X133428842Y-66199500D01*
X133271158Y-66199500D01*
X133271153Y-66199500D01*
X133148691Y-66223859D01*
X133079099Y-66217632D01*
X133023922Y-66174768D01*
X133000678Y-66108879D01*
X133000500Y-66102242D01*
X133000500Y-63921153D01*
X137449500Y-63921153D01*
X137449500Y-64078846D01*
X137480261Y-64233489D01*
X137480264Y-64233501D01*
X137540602Y-64379172D01*
X137540609Y-64379185D01*
X137628210Y-64510288D01*
X137628213Y-64510292D01*
X137739707Y-64621786D01*
X137739711Y-64621789D01*
X137870814Y-64709390D01*
X137870827Y-64709397D01*
X137958484Y-64745705D01*
X138016503Y-64769737D01*
X138171153Y-64800499D01*
X138171156Y-64800500D01*
X138171158Y-64800500D01*
X138328844Y-64800500D01*
X138328845Y-64800499D01*
X138483497Y-64769737D01*
X138629179Y-64709394D01*
X138760289Y-64621789D01*
X138871789Y-64510289D01*
X138931348Y-64421153D01*
X145449500Y-64421153D01*
X145449500Y-64578846D01*
X145480261Y-64733489D01*
X145480264Y-64733501D01*
X145540602Y-64879172D01*
X145540609Y-64879185D01*
X145628210Y-65010288D01*
X145628213Y-65010292D01*
X145739707Y-65121786D01*
X145739711Y-65121789D01*
X145870814Y-65209390D01*
X145870827Y-65209397D01*
X146016498Y-65269735D01*
X146016503Y-65269737D01*
X146171153Y-65300499D01*
X146171156Y-65300500D01*
X146171158Y-65300500D01*
X146328844Y-65300500D01*
X146328845Y-65300499D01*
X146483497Y-65269737D01*
X146502496Y-65261867D01*
X146517618Y-65255604D01*
X146629172Y-65209397D01*
X146629172Y-65209396D01*
X146629179Y-65209394D01*
X146760289Y-65121789D01*
X146871789Y-65010289D01*
X146959394Y-64879179D01*
X146962854Y-64870827D01*
X146991984Y-64800499D01*
X147019737Y-64733497D01*
X147050500Y-64578842D01*
X147050500Y-64421158D01*
X147050500Y-64421155D01*
X147050499Y-64421153D01*
X147019738Y-64266510D01*
X147019737Y-64266503D01*
X146959794Y-64121786D01*
X146959397Y-64120827D01*
X146959390Y-64120814D01*
X146871789Y-63989711D01*
X146871786Y-63989707D01*
X146760292Y-63878213D01*
X146760288Y-63878210D01*
X146629185Y-63790609D01*
X146629172Y-63790602D01*
X146483501Y-63730264D01*
X146483489Y-63730261D01*
X146328845Y-63699500D01*
X146328842Y-63699500D01*
X146171158Y-63699500D01*
X146171155Y-63699500D01*
X146016510Y-63730261D01*
X146016498Y-63730264D01*
X145870827Y-63790602D01*
X145870814Y-63790609D01*
X145739711Y-63878210D01*
X145739707Y-63878213D01*
X145628213Y-63989707D01*
X145628210Y-63989711D01*
X145540609Y-64120814D01*
X145540602Y-64120827D01*
X145480264Y-64266498D01*
X145480261Y-64266510D01*
X145449500Y-64421153D01*
X138931348Y-64421153D01*
X138959394Y-64379179D01*
X139019737Y-64233497D01*
X139050500Y-64078842D01*
X139050500Y-63921158D01*
X139050500Y-63921155D01*
X139050499Y-63921153D01*
X139024531Y-63790606D01*
X139019737Y-63766503D01*
X139010721Y-63744736D01*
X138959397Y-63620827D01*
X138959390Y-63620814D01*
X138871789Y-63489711D01*
X138871786Y-63489707D01*
X138760292Y-63378213D01*
X138760288Y-63378210D01*
X138629185Y-63290609D01*
X138629175Y-63290604D01*
X138598896Y-63278062D01*
X138544493Y-63234221D01*
X138522428Y-63167926D01*
X138539708Y-63100227D01*
X138590845Y-63052617D01*
X138622158Y-63041884D01*
X138644241Y-63037491D01*
X138733497Y-63019737D01*
X138879179Y-62959394D01*
X139010289Y-62871789D01*
X139121789Y-62760289D01*
X139172643Y-62684181D01*
X139226255Y-62639376D01*
X139295580Y-62630669D01*
X139358607Y-62660823D01*
X139395327Y-62720266D01*
X139397362Y-62777263D01*
X139368740Y-62921153D01*
X139368740Y-63078846D01*
X139399501Y-63233489D01*
X139399504Y-63233501D01*
X139459842Y-63379172D01*
X139459849Y-63379185D01*
X139547450Y-63510288D01*
X139547453Y-63510292D01*
X139658947Y-63621786D01*
X139658951Y-63621789D01*
X139790054Y-63709390D01*
X139790067Y-63709397D01*
X139875387Y-63744737D01*
X139935743Y-63769737D01*
X140090393Y-63800499D01*
X140090396Y-63800500D01*
X140090398Y-63800500D01*
X140248084Y-63800500D01*
X140248085Y-63800499D01*
X140402737Y-63769737D01*
X140548419Y-63709394D01*
X140679529Y-63621789D01*
X140791029Y-63510289D01*
X140850588Y-63421153D01*
X149349500Y-63421153D01*
X149349500Y-63578846D01*
X149380261Y-63733489D01*
X149380264Y-63733501D01*
X149440602Y-63879172D01*
X149440609Y-63879185D01*
X149528210Y-64010288D01*
X149528213Y-64010292D01*
X149639707Y-64121786D01*
X149639711Y-64121789D01*
X149770814Y-64209390D01*
X149770827Y-64209397D01*
X149908683Y-64266498D01*
X149916503Y-64269737D01*
X150071153Y-64300499D01*
X150071156Y-64300500D01*
X150071158Y-64300500D01*
X150228844Y-64300500D01*
X150228845Y-64300499D01*
X150383497Y-64269737D01*
X150529179Y-64209394D01*
X150660289Y-64121789D01*
X150771789Y-64010289D01*
X150859394Y-63879179D01*
X150878995Y-63831855D01*
X150922833Y-63777452D01*
X150969360Y-63757690D01*
X151034485Y-63744737D01*
X151180167Y-63684394D01*
X151311277Y-63596789D01*
X151422777Y-63485289D01*
X151510382Y-63354179D01*
X151570725Y-63208497D01*
X151601488Y-63053842D01*
X151601488Y-62896158D01*
X151601488Y-62896155D01*
X151601487Y-62896153D01*
X151574462Y-62760292D01*
X151570725Y-62741503D01*
X151565244Y-62728271D01*
X151510385Y-62595827D01*
X151510378Y-62595814D01*
X151422777Y-62464711D01*
X151422774Y-62464707D01*
X151311280Y-62353213D01*
X151311276Y-62353210D01*
X151180173Y-62265609D01*
X151180164Y-62265604D01*
X151058051Y-62215024D01*
X151003648Y-62171183D01*
X150981583Y-62104889D01*
X150990942Y-62053014D01*
X151019737Y-61983497D01*
X151050500Y-61828842D01*
X151050500Y-61671158D01*
X151050500Y-61671155D01*
X151050499Y-61671153D01*
X151024531Y-61540606D01*
X151019737Y-61516503D01*
X151019735Y-61516498D01*
X150959397Y-61370827D01*
X150959390Y-61370814D01*
X150871789Y-61239711D01*
X150871786Y-61239707D01*
X150760292Y-61128213D01*
X150760288Y-61128210D01*
X150629185Y-61040609D01*
X150629172Y-61040602D01*
X150483501Y-60980264D01*
X150483489Y-60980261D01*
X150328845Y-60949500D01*
X150328842Y-60949500D01*
X150171158Y-60949500D01*
X150171155Y-60949500D01*
X150016510Y-60980261D01*
X150016498Y-60980264D01*
X149870827Y-61040602D01*
X149870814Y-61040609D01*
X149739711Y-61128210D01*
X149739707Y-61128213D01*
X149628213Y-61239707D01*
X149628210Y-61239711D01*
X149540609Y-61370814D01*
X149540602Y-61370827D01*
X149480264Y-61516498D01*
X149480261Y-61516510D01*
X149449500Y-61671153D01*
X149449500Y-61828846D01*
X149480261Y-61983489D01*
X149480264Y-61983501D01*
X149540602Y-62129172D01*
X149540609Y-62129185D01*
X149628210Y-62260288D01*
X149628213Y-62260292D01*
X149739707Y-62371786D01*
X149739711Y-62371789D01*
X149870814Y-62459390D01*
X149870821Y-62459394D01*
X149949768Y-62492094D01*
X150004170Y-62535934D01*
X150026236Y-62602228D01*
X150008957Y-62669927D01*
X149957821Y-62717538D01*
X149926512Y-62728271D01*
X149916511Y-62730260D01*
X149916498Y-62730264D01*
X149770827Y-62790602D01*
X149770814Y-62790609D01*
X149639711Y-62878210D01*
X149639707Y-62878213D01*
X149528213Y-62989707D01*
X149528210Y-62989711D01*
X149440609Y-63120814D01*
X149440602Y-63120827D01*
X149380264Y-63266498D01*
X149380261Y-63266510D01*
X149349500Y-63421153D01*
X140850588Y-63421153D01*
X140878634Y-63379179D01*
X140938977Y-63233497D01*
X140969740Y-63078842D01*
X140969740Y-62921158D01*
X140969740Y-62921155D01*
X140969739Y-62921153D01*
X140964767Y-62896158D01*
X140938977Y-62766503D01*
X140928620Y-62741498D01*
X140878637Y-62620827D01*
X140878630Y-62620814D01*
X140791029Y-62489711D01*
X140791026Y-62489707D01*
X140679532Y-62378213D01*
X140679528Y-62378210D01*
X140548425Y-62290609D01*
X140548412Y-62290602D01*
X140402741Y-62230264D01*
X140402729Y-62230261D01*
X140248085Y-62199500D01*
X140248082Y-62199500D01*
X140090398Y-62199500D01*
X140090395Y-62199500D01*
X139935750Y-62230261D01*
X139935738Y-62230264D01*
X139790067Y-62290602D01*
X139790054Y-62290609D01*
X139658951Y-62378210D01*
X139658947Y-62378213D01*
X139547453Y-62489707D01*
X139547448Y-62489713D01*
X139496595Y-62565819D01*
X139442982Y-62610624D01*
X139373657Y-62619330D01*
X139310630Y-62589174D01*
X139273912Y-62529731D01*
X139271877Y-62472738D01*
X139295653Y-62353210D01*
X139300500Y-62328844D01*
X139300500Y-62171155D01*
X139300499Y-62171153D01*
X139287318Y-62104889D01*
X139269737Y-62016503D01*
X139256062Y-61983489D01*
X139209397Y-61870827D01*
X139209390Y-61870814D01*
X139121789Y-61739711D01*
X139121786Y-61739707D01*
X139010292Y-61628213D01*
X139010288Y-61628210D01*
X138879185Y-61540609D01*
X138879172Y-61540602D01*
X138733501Y-61480264D01*
X138733489Y-61480261D01*
X138578845Y-61449500D01*
X138578842Y-61449500D01*
X138421158Y-61449500D01*
X138421155Y-61449500D01*
X138266510Y-61480261D01*
X138266498Y-61480264D01*
X138120827Y-61540602D01*
X138120814Y-61540609D01*
X137989711Y-61628210D01*
X137989707Y-61628213D01*
X137878213Y-61739707D01*
X137878210Y-61739711D01*
X137790609Y-61870814D01*
X137790602Y-61870827D01*
X137730264Y-62016498D01*
X137730261Y-62016510D01*
X137699500Y-62171153D01*
X137699500Y-62328846D01*
X137730261Y-62483489D01*
X137730264Y-62483501D01*
X137790602Y-62629172D01*
X137790609Y-62629185D01*
X137878210Y-62760288D01*
X137878213Y-62760292D01*
X137989707Y-62871786D01*
X137989711Y-62871789D01*
X138120814Y-62959390D01*
X138120818Y-62959392D01*
X138120821Y-62959394D01*
X138151103Y-62971937D01*
X138205505Y-63015777D01*
X138227571Y-63082071D01*
X138210292Y-63149770D01*
X138159156Y-63197381D01*
X138127842Y-63208115D01*
X138016508Y-63230261D01*
X138016498Y-63230264D01*
X137870827Y-63290602D01*
X137870814Y-63290609D01*
X137739711Y-63378210D01*
X137739707Y-63378213D01*
X137628213Y-63489707D01*
X137628210Y-63489711D01*
X137540609Y-63620814D01*
X137540602Y-63620827D01*
X137480264Y-63766498D01*
X137480261Y-63766510D01*
X137449500Y-63921153D01*
X133000500Y-63921153D01*
X133000500Y-60671153D01*
X135199500Y-60671153D01*
X135199500Y-60828846D01*
X135230261Y-60983489D01*
X135230264Y-60983501D01*
X135290602Y-61129172D01*
X135290609Y-61129185D01*
X135378210Y-61260288D01*
X135378213Y-61260292D01*
X135489707Y-61371786D01*
X135489711Y-61371789D01*
X135620814Y-61459390D01*
X135620827Y-61459397D01*
X135758683Y-61516498D01*
X135766503Y-61519737D01*
X135921153Y-61550499D01*
X135921156Y-61550500D01*
X135921158Y-61550500D01*
X136078844Y-61550500D01*
X136078845Y-61550499D01*
X136233497Y-61519737D01*
X136379179Y-61459394D01*
X136510289Y-61371789D01*
X136621789Y-61260289D01*
X136709394Y-61129179D01*
X136769737Y-60983497D01*
X136800500Y-60828842D01*
X136800500Y-60671158D01*
X136800500Y-60671155D01*
X136800499Y-60671153D01*
X136795245Y-60644738D01*
X136769737Y-60516503D01*
X136769732Y-60516492D01*
X136767969Y-60510676D01*
X136769249Y-60510287D01*
X136762516Y-60447623D01*
X136793795Y-60385145D01*
X136853886Y-60349496D01*
X136908741Y-60348030D01*
X136921156Y-60350500D01*
X136921158Y-60350500D01*
X137078844Y-60350500D01*
X137078845Y-60350499D01*
X137233497Y-60319737D01*
X137379179Y-60259394D01*
X137510289Y-60171789D01*
X137621789Y-60060289D01*
X137709394Y-59929179D01*
X137709395Y-59929176D01*
X137709397Y-59929173D01*
X137712719Y-59921153D01*
X148699500Y-59921153D01*
X148699500Y-60078846D01*
X148730261Y-60233489D01*
X148730264Y-60233501D01*
X148790602Y-60379172D01*
X148790609Y-60379185D01*
X148878210Y-60510288D01*
X148878213Y-60510292D01*
X148989707Y-60621786D01*
X148989711Y-60621789D01*
X149120814Y-60709390D01*
X149120827Y-60709397D01*
X149266498Y-60769735D01*
X149266503Y-60769737D01*
X149421153Y-60800499D01*
X149421156Y-60800500D01*
X149421158Y-60800500D01*
X149578844Y-60800500D01*
X149578845Y-60800499D01*
X149733497Y-60769737D01*
X149879179Y-60709394D01*
X150010289Y-60621789D01*
X150055087Y-60576991D01*
X150116410Y-60543505D01*
X150186101Y-60548489D01*
X150211660Y-60561569D01*
X150245814Y-60584390D01*
X150245827Y-60584397D01*
X150336101Y-60621789D01*
X150391503Y-60644737D01*
X150546153Y-60675499D01*
X150546156Y-60675500D01*
X150546158Y-60675500D01*
X150703844Y-60675500D01*
X150703845Y-60675499D01*
X150858497Y-60644737D01*
X151004179Y-60584394D01*
X151135289Y-60496789D01*
X151246789Y-60385289D01*
X151334394Y-60254179D01*
X151340389Y-60239707D01*
X151386571Y-60128211D01*
X151394737Y-60108497D01*
X151425500Y-59953842D01*
X151425500Y-59796158D01*
X151425500Y-59796155D01*
X151425499Y-59796153D01*
X151394738Y-59641510D01*
X151394737Y-59641503D01*
X151386170Y-59620821D01*
X151334397Y-59495827D01*
X151334390Y-59495814D01*
X151246789Y-59364711D01*
X151246786Y-59364707D01*
X151135292Y-59253213D01*
X151135288Y-59253210D01*
X151004185Y-59165609D01*
X151004172Y-59165602D01*
X150858501Y-59105264D01*
X150858489Y-59105261D01*
X150703845Y-59074500D01*
X150703842Y-59074500D01*
X150546158Y-59074500D01*
X150546155Y-59074500D01*
X150391510Y-59105261D01*
X150391498Y-59105264D01*
X150245827Y-59165602D01*
X150245814Y-59165609D01*
X150114711Y-59253210D01*
X150114706Y-59253214D01*
X150069910Y-59298010D01*
X150008587Y-59331494D01*
X149938895Y-59326509D01*
X149913340Y-59313431D01*
X149879183Y-59290608D01*
X149879172Y-59290602D01*
X149733501Y-59230264D01*
X149733489Y-59230261D01*
X149578845Y-59199500D01*
X149578842Y-59199500D01*
X149421158Y-59199500D01*
X149421155Y-59199500D01*
X149266510Y-59230261D01*
X149266498Y-59230264D01*
X149120827Y-59290602D01*
X149120814Y-59290609D01*
X148989711Y-59378210D01*
X148989707Y-59378213D01*
X148878213Y-59489707D01*
X148878210Y-59489711D01*
X148790609Y-59620814D01*
X148790602Y-59620827D01*
X148730264Y-59766498D01*
X148730261Y-59766510D01*
X148699500Y-59921153D01*
X137712719Y-59921153D01*
X137734895Y-59867614D01*
X137734895Y-59867613D01*
X137769737Y-59783497D01*
X137800500Y-59628842D01*
X137800500Y-59471158D01*
X137800500Y-59471155D01*
X137782012Y-59378213D01*
X137778237Y-59359235D01*
X137784464Y-59289647D01*
X137827326Y-59234469D01*
X137852398Y-59220486D01*
X137879179Y-59209394D01*
X138010289Y-59121789D01*
X138121789Y-59010289D01*
X138209394Y-58879179D01*
X138269737Y-58733497D01*
X138300500Y-58578842D01*
X138300500Y-58421158D01*
X138300500Y-58421155D01*
X138300499Y-58421153D01*
X138269738Y-58266510D01*
X138269737Y-58266503D01*
X138209794Y-58121786D01*
X138209397Y-58120827D01*
X138209390Y-58120814D01*
X138121789Y-57989711D01*
X138121786Y-57989707D01*
X138010292Y-57878213D01*
X138010288Y-57878210D01*
X137879185Y-57790609D01*
X137879178Y-57790605D01*
X137875451Y-57789062D01*
X137821047Y-57745222D01*
X137798981Y-57678928D01*
X137816259Y-57611229D01*
X137867395Y-57563617D01*
X137922902Y-57550500D01*
X138078844Y-57550500D01*
X138078845Y-57550499D01*
X138233497Y-57519737D01*
X138346166Y-57473067D01*
X138379172Y-57459397D01*
X138379172Y-57459396D01*
X138379179Y-57459394D01*
X138506609Y-57374248D01*
X138573286Y-57353370D01*
X138640666Y-57371854D01*
X138687357Y-57423833D01*
X138699500Y-57477350D01*
X138699500Y-57578846D01*
X138730261Y-57733489D01*
X138730264Y-57733501D01*
X138790602Y-57879172D01*
X138790609Y-57879185D01*
X138878210Y-58010288D01*
X138878213Y-58010292D01*
X138989707Y-58121786D01*
X138989711Y-58121789D01*
X139120814Y-58209390D01*
X139120827Y-58209397D01*
X139258683Y-58266498D01*
X139266503Y-58269737D01*
X139421153Y-58300499D01*
X139421156Y-58300500D01*
X139421158Y-58300500D01*
X139578844Y-58300500D01*
X139578845Y-58300499D01*
X139733497Y-58269737D01*
X139879179Y-58209394D01*
X140010289Y-58121789D01*
X140121789Y-58010289D01*
X140209394Y-57879179D01*
X140269737Y-57733497D01*
X140300500Y-57578842D01*
X140300500Y-57421158D01*
X140300500Y-57421155D01*
X140300499Y-57421153D01*
X141199500Y-57421153D01*
X141199500Y-57578846D01*
X141230261Y-57733489D01*
X141230264Y-57733501D01*
X141290602Y-57879172D01*
X141290609Y-57879185D01*
X141378210Y-58010288D01*
X141378213Y-58010292D01*
X141489707Y-58121786D01*
X141489711Y-58121789D01*
X141620814Y-58209390D01*
X141620827Y-58209397D01*
X141758683Y-58266498D01*
X141766503Y-58269737D01*
X141921153Y-58300499D01*
X141921156Y-58300500D01*
X141921158Y-58300500D01*
X142078844Y-58300500D01*
X142078845Y-58300499D01*
X142233497Y-58269737D01*
X142379179Y-58209394D01*
X142510289Y-58121789D01*
X142621789Y-58010289D01*
X142709394Y-57879179D01*
X142769737Y-57733497D01*
X142800500Y-57578842D01*
X142800500Y-57421158D01*
X142800500Y-57421155D01*
X142800499Y-57421153D01*
X143699500Y-57421153D01*
X143699500Y-57578846D01*
X143730261Y-57733489D01*
X143730264Y-57733501D01*
X143790602Y-57879172D01*
X143790609Y-57879185D01*
X143878210Y-58010288D01*
X143878213Y-58010292D01*
X143989707Y-58121786D01*
X143989711Y-58121789D01*
X144120814Y-58209390D01*
X144120827Y-58209397D01*
X144258683Y-58266498D01*
X144266503Y-58269737D01*
X144421153Y-58300499D01*
X144421156Y-58300500D01*
X144421158Y-58300500D01*
X144578844Y-58300500D01*
X144578845Y-58300499D01*
X144733497Y-58269737D01*
X144879179Y-58209394D01*
X145010289Y-58121789D01*
X145121789Y-58010289D01*
X145209394Y-57879179D01*
X145269737Y-57733497D01*
X145300500Y-57578842D01*
X145300500Y-57421158D01*
X145300500Y-57421155D01*
X145300499Y-57421153D01*
X145269738Y-57266510D01*
X145269737Y-57266503D01*
X145262413Y-57248821D01*
X145209397Y-57120827D01*
X145209390Y-57120814D01*
X145121789Y-56989711D01*
X145121786Y-56989707D01*
X145010292Y-56878213D01*
X145010288Y-56878210D01*
X144879185Y-56790609D01*
X144879172Y-56790602D01*
X144733501Y-56730264D01*
X144733489Y-56730261D01*
X144578845Y-56699500D01*
X144578842Y-56699500D01*
X144421158Y-56699500D01*
X144421155Y-56699500D01*
X144266510Y-56730261D01*
X144266498Y-56730264D01*
X144120827Y-56790602D01*
X144120814Y-56790609D01*
X143989711Y-56878210D01*
X143989707Y-56878213D01*
X143878213Y-56989707D01*
X143878210Y-56989711D01*
X143790609Y-57120814D01*
X143790602Y-57120827D01*
X143730264Y-57266498D01*
X143730261Y-57266510D01*
X143699500Y-57421153D01*
X142800499Y-57421153D01*
X142769738Y-57266510D01*
X142769737Y-57266503D01*
X142762413Y-57248821D01*
X142709397Y-57120827D01*
X142709390Y-57120814D01*
X142621789Y-56989711D01*
X142621786Y-56989707D01*
X142510292Y-56878213D01*
X142510288Y-56878210D01*
X142379185Y-56790609D01*
X142379172Y-56790602D01*
X142233501Y-56730264D01*
X142233489Y-56730261D01*
X142078845Y-56699500D01*
X142078842Y-56699500D01*
X141921158Y-56699500D01*
X141921155Y-56699500D01*
X141766510Y-56730261D01*
X141766498Y-56730264D01*
X141620827Y-56790602D01*
X141620814Y-56790609D01*
X141489711Y-56878210D01*
X141489707Y-56878213D01*
X141378213Y-56989707D01*
X141378210Y-56989711D01*
X141290609Y-57120814D01*
X141290602Y-57120827D01*
X141230264Y-57266498D01*
X141230261Y-57266510D01*
X141199500Y-57421153D01*
X140300499Y-57421153D01*
X140269738Y-57266510D01*
X140269737Y-57266503D01*
X140262413Y-57248821D01*
X140209397Y-57120827D01*
X140209390Y-57120814D01*
X140121789Y-56989711D01*
X140121786Y-56989707D01*
X140010292Y-56878213D01*
X140010288Y-56878210D01*
X139879185Y-56790609D01*
X139879172Y-56790602D01*
X139733501Y-56730264D01*
X139733489Y-56730261D01*
X139578845Y-56699500D01*
X139578842Y-56699500D01*
X139421158Y-56699500D01*
X139421155Y-56699500D01*
X139266510Y-56730261D01*
X139266498Y-56730264D01*
X139120827Y-56790602D01*
X139120814Y-56790609D01*
X138993391Y-56875751D01*
X138926713Y-56896629D01*
X138859333Y-56878144D01*
X138812643Y-56826165D01*
X138800500Y-56772649D01*
X138800500Y-56671155D01*
X138800499Y-56671153D01*
X138769738Y-56516510D01*
X138769737Y-56516503D01*
X138730242Y-56421153D01*
X138709397Y-56370827D01*
X138709390Y-56370814D01*
X138621790Y-56239712D01*
X138621784Y-56239705D01*
X138553232Y-56171153D01*
X149449500Y-56171153D01*
X149449500Y-56328846D01*
X149480261Y-56483489D01*
X149480264Y-56483501D01*
X149540602Y-56629172D01*
X149540609Y-56629185D01*
X149628210Y-56760288D01*
X149628213Y-56760292D01*
X149739707Y-56871786D01*
X149739711Y-56871789D01*
X149870814Y-56959390D01*
X149870827Y-56959397D01*
X150016498Y-57019735D01*
X150016503Y-57019737D01*
X150171153Y-57050499D01*
X150171156Y-57050500D01*
X150171158Y-57050500D01*
X150328844Y-57050500D01*
X150328845Y-57050499D01*
X150483497Y-57019737D01*
X150629179Y-56959394D01*
X150760289Y-56871789D01*
X150871789Y-56760289D01*
X150959394Y-56629179D01*
X151019737Y-56483497D01*
X151050500Y-56328842D01*
X151050500Y-56171158D01*
X151050500Y-56171155D01*
X151050499Y-56171153D01*
X151024531Y-56040606D01*
X151019737Y-56016503D01*
X151013389Y-56001178D01*
X150959397Y-55870827D01*
X150959390Y-55870814D01*
X150871789Y-55739711D01*
X150871786Y-55739707D01*
X150760292Y-55628213D01*
X150760288Y-55628210D01*
X150629185Y-55540609D01*
X150629172Y-55540602D01*
X150483501Y-55480264D01*
X150483489Y-55480261D01*
X150328845Y-55449500D01*
X150328842Y-55449500D01*
X150171158Y-55449500D01*
X150171155Y-55449500D01*
X150016510Y-55480261D01*
X150016498Y-55480264D01*
X149870827Y-55540602D01*
X149870814Y-55540609D01*
X149739711Y-55628210D01*
X149739707Y-55628213D01*
X149628213Y-55739707D01*
X149628210Y-55739711D01*
X149540609Y-55870814D01*
X149540602Y-55870827D01*
X149480264Y-56016498D01*
X149480261Y-56016510D01*
X149449500Y-56171153D01*
X138553232Y-56171153D01*
X138510292Y-56128213D01*
X138510288Y-56128210D01*
X138379185Y-56040609D01*
X138379172Y-56040602D01*
X138233501Y-55980264D01*
X138233489Y-55980261D01*
X138078845Y-55949500D01*
X138078842Y-55949500D01*
X137921158Y-55949500D01*
X137921155Y-55949500D01*
X137766511Y-55980260D01*
X137766501Y-55980263D01*
X137734041Y-55993709D01*
X137664571Y-56001178D01*
X137602092Y-55969902D01*
X137598908Y-55966829D01*
X137510292Y-55878213D01*
X137510288Y-55878210D01*
X137379185Y-55790609D01*
X137379172Y-55790602D01*
X137233501Y-55730264D01*
X137233489Y-55730261D01*
X137078845Y-55699500D01*
X137078842Y-55699500D01*
X136921158Y-55699500D01*
X136921155Y-55699500D01*
X136766510Y-55730261D01*
X136766498Y-55730264D01*
X136620827Y-55790602D01*
X136620814Y-55790609D01*
X136489711Y-55878210D01*
X136489707Y-55878213D01*
X136378213Y-55989707D01*
X136378210Y-55989711D01*
X136290609Y-56120814D01*
X136290602Y-56120827D01*
X136230264Y-56266498D01*
X136230261Y-56266510D01*
X136199500Y-56421153D01*
X136199500Y-56578846D01*
X136230261Y-56733489D01*
X136230264Y-56733501D01*
X136290602Y-56879172D01*
X136290609Y-56879185D01*
X136378210Y-57010288D01*
X136378213Y-57010292D01*
X136489707Y-57121786D01*
X136489711Y-57121789D01*
X136620814Y-57209390D01*
X136620827Y-57209397D01*
X136734041Y-57256291D01*
X136766503Y-57269737D01*
X136921153Y-57300499D01*
X136921156Y-57300500D01*
X136921158Y-57300500D01*
X137078844Y-57300500D01*
X137078845Y-57300499D01*
X137233497Y-57269737D01*
X137265959Y-57256290D01*
X137335423Y-57248821D01*
X137397903Y-57280093D01*
X137401091Y-57283170D01*
X137489707Y-57371786D01*
X137489711Y-57371789D01*
X137620814Y-57459390D01*
X137620821Y-57459394D01*
X137624549Y-57460938D01*
X137678953Y-57504778D01*
X137701019Y-57571072D01*
X137683741Y-57638771D01*
X137632605Y-57686383D01*
X137577098Y-57699500D01*
X137421155Y-57699500D01*
X137266510Y-57730261D01*
X137266498Y-57730264D01*
X137120827Y-57790602D01*
X137120814Y-57790609D01*
X136989711Y-57878210D01*
X136989707Y-57878213D01*
X136878213Y-57989707D01*
X136878210Y-57989711D01*
X136790609Y-58120814D01*
X136790602Y-58120827D01*
X136730264Y-58266498D01*
X136730261Y-58266510D01*
X136699500Y-58421153D01*
X136699500Y-58578846D01*
X136721761Y-58690762D01*
X136715534Y-58760354D01*
X136672670Y-58815531D01*
X136647599Y-58829513D01*
X136620826Y-58840603D01*
X136620814Y-58840609D01*
X136489711Y-58928210D01*
X136489707Y-58928213D01*
X136378213Y-59039707D01*
X136378210Y-59039711D01*
X136290609Y-59170814D01*
X136290602Y-59170827D01*
X136230264Y-59316498D01*
X136230261Y-59316510D01*
X136199500Y-59471153D01*
X136199500Y-59628846D01*
X136230261Y-59783489D01*
X136232031Y-59789324D01*
X136230751Y-59789712D01*
X136237480Y-59852388D01*
X136206196Y-59914863D01*
X136146101Y-59950506D01*
X136091263Y-59951970D01*
X136078845Y-59949500D01*
X136078842Y-59949500D01*
X135921158Y-59949500D01*
X135921155Y-59949500D01*
X135766510Y-59980261D01*
X135766498Y-59980264D01*
X135620827Y-60040602D01*
X135620814Y-60040609D01*
X135489711Y-60128210D01*
X135489707Y-60128213D01*
X135378213Y-60239707D01*
X135378210Y-60239711D01*
X135290609Y-60370814D01*
X135290602Y-60370827D01*
X135230264Y-60516498D01*
X135230261Y-60516510D01*
X135199500Y-60671153D01*
X133000500Y-60671153D01*
X133000500Y-54921153D01*
X138699500Y-54921153D01*
X138699500Y-55078846D01*
X138730261Y-55233489D01*
X138730264Y-55233501D01*
X138790602Y-55379172D01*
X138790609Y-55379185D01*
X138878210Y-55510288D01*
X138878213Y-55510292D01*
X138989707Y-55621786D01*
X138989711Y-55621789D01*
X139120814Y-55709390D01*
X139120827Y-55709397D01*
X139194013Y-55739711D01*
X139266503Y-55769737D01*
X139421153Y-55800499D01*
X139421156Y-55800500D01*
X139421158Y-55800500D01*
X139578844Y-55800500D01*
X139578845Y-55800499D01*
X139733497Y-55769737D01*
X139879179Y-55709394D01*
X140010289Y-55621789D01*
X140121789Y-55510289D01*
X140209394Y-55379179D01*
X140269737Y-55233497D01*
X140300500Y-55078842D01*
X140300500Y-54921158D01*
X140300500Y-54921155D01*
X140300499Y-54921153D01*
X143699500Y-54921153D01*
X143699500Y-55078846D01*
X143730261Y-55233489D01*
X143730264Y-55233501D01*
X143790602Y-55379172D01*
X143790609Y-55379185D01*
X143878210Y-55510288D01*
X143878213Y-55510292D01*
X143989707Y-55621786D01*
X143989711Y-55621789D01*
X144120814Y-55709390D01*
X144120827Y-55709397D01*
X144194013Y-55739711D01*
X144266503Y-55769737D01*
X144421153Y-55800499D01*
X144421156Y-55800500D01*
X144421158Y-55800500D01*
X144578844Y-55800500D01*
X144578845Y-55800499D01*
X144733497Y-55769737D01*
X144879179Y-55709394D01*
X145010289Y-55621789D01*
X145121789Y-55510289D01*
X145209394Y-55379179D01*
X145269737Y-55233497D01*
X145300500Y-55078842D01*
X145300500Y-54921158D01*
X145300500Y-54921155D01*
X145300499Y-54921153D01*
X145269738Y-54766510D01*
X145269737Y-54766503D01*
X145209794Y-54621786D01*
X145209397Y-54620827D01*
X145209390Y-54620814D01*
X145121789Y-54489711D01*
X145121786Y-54489707D01*
X145010292Y-54378213D01*
X145010288Y-54378210D01*
X144879185Y-54290609D01*
X144879172Y-54290602D01*
X144733501Y-54230264D01*
X144733489Y-54230261D01*
X144578845Y-54199500D01*
X144578842Y-54199500D01*
X144421158Y-54199500D01*
X144421155Y-54199500D01*
X144266510Y-54230261D01*
X144266498Y-54230264D01*
X144120827Y-54290602D01*
X144120814Y-54290609D01*
X143989711Y-54378210D01*
X143989707Y-54378213D01*
X143878213Y-54489707D01*
X143878210Y-54489711D01*
X143790609Y-54620814D01*
X143790602Y-54620827D01*
X143730264Y-54766498D01*
X143730261Y-54766510D01*
X143699500Y-54921153D01*
X140300499Y-54921153D01*
X140269738Y-54766510D01*
X140269737Y-54766503D01*
X140209794Y-54621786D01*
X140209397Y-54620827D01*
X140209390Y-54620814D01*
X140121789Y-54489711D01*
X140121786Y-54489707D01*
X140010292Y-54378213D01*
X140010288Y-54378210D01*
X139879185Y-54290609D01*
X139879172Y-54290602D01*
X139733501Y-54230264D01*
X139733489Y-54230261D01*
X139578845Y-54199500D01*
X139578842Y-54199500D01*
X139421158Y-54199500D01*
X139421155Y-54199500D01*
X139266510Y-54230261D01*
X139266498Y-54230264D01*
X139120827Y-54290602D01*
X139120814Y-54290609D01*
X138989711Y-54378210D01*
X138989707Y-54378213D01*
X138878213Y-54489707D01*
X138878210Y-54489711D01*
X138790609Y-54620814D01*
X138790602Y-54620827D01*
X138730264Y-54766498D01*
X138730261Y-54766510D01*
X138699500Y-54921153D01*
X133000500Y-54921153D01*
X133000500Y-53921153D01*
X136199500Y-53921153D01*
X136199500Y-54078846D01*
X136230261Y-54233489D01*
X136230264Y-54233501D01*
X136290602Y-54379172D01*
X136290609Y-54379185D01*
X136378210Y-54510288D01*
X136378213Y-54510292D01*
X136489707Y-54621786D01*
X136489711Y-54621789D01*
X136620814Y-54709390D01*
X136620827Y-54709397D01*
X136758683Y-54766498D01*
X136766503Y-54769737D01*
X136921153Y-54800499D01*
X136921156Y-54800500D01*
X136921158Y-54800500D01*
X137078844Y-54800500D01*
X137078845Y-54800499D01*
X137089179Y-54798443D01*
X137114287Y-54793450D01*
X137114292Y-54793449D01*
X137199800Y-54776439D01*
X137233497Y-54769737D01*
X137379179Y-54709394D01*
X137510289Y-54621789D01*
X137621789Y-54510289D01*
X137709394Y-54379179D01*
X137769737Y-54233497D01*
X137800500Y-54078842D01*
X137800500Y-53921158D01*
X137800500Y-53921155D01*
X137800499Y-53921153D01*
X137769738Y-53766510D01*
X137769737Y-53766503D01*
X137709794Y-53621786D01*
X137709397Y-53620827D01*
X137709390Y-53620814D01*
X137621789Y-53489711D01*
X137621786Y-53489707D01*
X137510292Y-53378213D01*
X137510288Y-53378210D01*
X137379185Y-53290609D01*
X137379172Y-53290602D01*
X137233501Y-53230264D01*
X137233489Y-53230261D01*
X137078845Y-53199500D01*
X137078842Y-53199500D01*
X136921158Y-53199500D01*
X136921155Y-53199500D01*
X136766510Y-53230261D01*
X136766498Y-53230264D01*
X136620827Y-53290602D01*
X136620814Y-53290609D01*
X136489711Y-53378210D01*
X136489707Y-53378213D01*
X136378213Y-53489707D01*
X136378210Y-53489711D01*
X136290609Y-53620814D01*
X136290602Y-53620827D01*
X136230264Y-53766498D01*
X136230261Y-53766510D01*
X136199500Y-53921153D01*
X133000500Y-53921153D01*
X133000500Y-53527350D01*
X133020185Y-53460311D01*
X133072989Y-53414556D01*
X133142147Y-53404612D01*
X133193391Y-53424248D01*
X133320814Y-53509390D01*
X133320827Y-53509397D01*
X133466498Y-53569735D01*
X133466503Y-53569737D01*
X133621153Y-53600499D01*
X133621156Y-53600500D01*
X133621158Y-53600500D01*
X133778844Y-53600500D01*
X133778845Y-53600499D01*
X133933497Y-53569737D01*
X134079179Y-53509394D01*
X134210289Y-53421789D01*
X134321789Y-53310289D01*
X134409394Y-53179179D01*
X134469737Y-53033497D01*
X134500500Y-52878842D01*
X134500500Y-52721158D01*
X134500500Y-52721155D01*
X134500499Y-52721153D01*
X134482204Y-52629179D01*
X134469737Y-52566503D01*
X134469735Y-52566498D01*
X134409397Y-52420827D01*
X134409390Y-52420814D01*
X134321789Y-52289711D01*
X134321786Y-52289707D01*
X134210292Y-52178213D01*
X134210288Y-52178210D01*
X134199727Y-52171153D01*
X135449500Y-52171153D01*
X135449500Y-52328846D01*
X135480261Y-52483489D01*
X135480264Y-52483501D01*
X135540602Y-52629172D01*
X135540609Y-52629185D01*
X135628210Y-52760288D01*
X135628213Y-52760292D01*
X135739707Y-52871786D01*
X135739711Y-52871789D01*
X135870814Y-52959390D01*
X135870827Y-52959397D01*
X136016498Y-53019735D01*
X136016503Y-53019737D01*
X136171153Y-53050499D01*
X136171156Y-53050500D01*
X136171158Y-53050500D01*
X136328844Y-53050500D01*
X136328845Y-53050499D01*
X136483497Y-53019737D01*
X136629179Y-52959394D01*
X136760289Y-52871789D01*
X136871789Y-52760289D01*
X136959394Y-52629179D01*
X136962854Y-52620827D01*
X136992287Y-52549767D01*
X137019737Y-52483497D01*
X137050500Y-52328842D01*
X137050500Y-52171158D01*
X137050500Y-52171155D01*
X137050499Y-52171153D01*
X137034650Y-52091477D01*
X137019737Y-52016503D01*
X137012694Y-51999500D01*
X136959397Y-51870827D01*
X136959390Y-51870814D01*
X136871790Y-51739712D01*
X136871784Y-51739705D01*
X136803232Y-51671153D01*
X137699500Y-51671153D01*
X137699500Y-51828846D01*
X137730261Y-51983489D01*
X137730264Y-51983501D01*
X137790602Y-52129172D01*
X137790609Y-52129185D01*
X137878210Y-52260288D01*
X137878213Y-52260292D01*
X137989707Y-52371786D01*
X137989711Y-52371789D01*
X138120814Y-52459390D01*
X138120827Y-52459397D01*
X138266498Y-52519735D01*
X138266503Y-52519737D01*
X138386168Y-52543540D01*
X138421153Y-52550499D01*
X138421156Y-52550500D01*
X138421158Y-52550500D01*
X138578843Y-52550500D01*
X138595939Y-52547099D01*
X138613831Y-52543540D01*
X138683423Y-52549767D01*
X138738601Y-52592629D01*
X138761846Y-52658518D01*
X138752586Y-52712607D01*
X138730264Y-52766499D01*
X138730261Y-52766510D01*
X138699500Y-52921153D01*
X138699500Y-53078846D01*
X138730261Y-53233489D01*
X138730264Y-53233501D01*
X138790602Y-53379172D01*
X138790609Y-53379185D01*
X138878210Y-53510288D01*
X138878213Y-53510292D01*
X138989707Y-53621786D01*
X138989711Y-53621789D01*
X139120814Y-53709390D01*
X139120827Y-53709397D01*
X139258683Y-53766498D01*
X139266503Y-53769737D01*
X139421153Y-53800499D01*
X139421156Y-53800500D01*
X139421158Y-53800500D01*
X139578844Y-53800500D01*
X139578845Y-53800499D01*
X139733497Y-53769737D01*
X139879179Y-53709394D01*
X140010289Y-53621789D01*
X140121789Y-53510289D01*
X140209394Y-53379179D01*
X140269737Y-53233497D01*
X140300500Y-53078842D01*
X140300500Y-52921158D01*
X140300500Y-52921155D01*
X140300499Y-52921153D01*
X140292148Y-52879172D01*
X140269737Y-52766503D01*
X140250955Y-52721158D01*
X140209397Y-52620827D01*
X140209390Y-52620814D01*
X140121790Y-52489712D01*
X140121784Y-52489705D01*
X140053232Y-52421153D01*
X141199500Y-52421153D01*
X141199500Y-52578846D01*
X141230261Y-52733489D01*
X141230264Y-52733501D01*
X141290602Y-52879172D01*
X141290609Y-52879185D01*
X141378210Y-53010288D01*
X141378213Y-53010292D01*
X141489707Y-53121786D01*
X141489711Y-53121789D01*
X141620814Y-53209390D01*
X141620827Y-53209397D01*
X141766498Y-53269735D01*
X141766503Y-53269737D01*
X141921153Y-53300499D01*
X141921156Y-53300500D01*
X141921158Y-53300500D01*
X142078844Y-53300500D01*
X142078845Y-53300499D01*
X142233497Y-53269737D01*
X142379179Y-53209394D01*
X142510289Y-53121789D01*
X142621789Y-53010289D01*
X142681348Y-52921153D01*
X143699500Y-52921153D01*
X143699500Y-53078846D01*
X143730261Y-53233489D01*
X143730264Y-53233501D01*
X143790602Y-53379172D01*
X143790609Y-53379185D01*
X143878210Y-53510288D01*
X143878213Y-53510292D01*
X143989707Y-53621786D01*
X143989711Y-53621789D01*
X144120814Y-53709390D01*
X144120827Y-53709397D01*
X144258683Y-53766498D01*
X144266503Y-53769737D01*
X144421153Y-53800499D01*
X144421156Y-53800500D01*
X144421158Y-53800500D01*
X144578844Y-53800500D01*
X144578845Y-53800499D01*
X144733497Y-53769737D01*
X144879179Y-53709394D01*
X145010289Y-53621789D01*
X145121789Y-53510289D01*
X145209394Y-53379179D01*
X145269737Y-53233497D01*
X145300500Y-53078842D01*
X145300500Y-52921158D01*
X145300500Y-52921155D01*
X145300499Y-52921153D01*
X145292148Y-52879172D01*
X145269737Y-52766503D01*
X145250955Y-52721158D01*
X145209397Y-52620827D01*
X145209390Y-52620814D01*
X145121789Y-52489711D01*
X145121786Y-52489707D01*
X145010292Y-52378213D01*
X145010288Y-52378210D01*
X144879185Y-52290609D01*
X144879172Y-52290602D01*
X144733501Y-52230264D01*
X144733489Y-52230261D01*
X144578845Y-52199500D01*
X144578842Y-52199500D01*
X144421158Y-52199500D01*
X144421155Y-52199500D01*
X144266510Y-52230261D01*
X144266498Y-52230264D01*
X144120827Y-52290602D01*
X144120814Y-52290609D01*
X143989711Y-52378210D01*
X143989707Y-52378213D01*
X143878213Y-52489707D01*
X143878210Y-52489711D01*
X143790609Y-52620814D01*
X143790602Y-52620827D01*
X143730264Y-52766498D01*
X143730261Y-52766510D01*
X143699500Y-52921153D01*
X142681348Y-52921153D01*
X142709394Y-52879179D01*
X142769737Y-52733497D01*
X142800500Y-52578842D01*
X142800500Y-52421158D01*
X142800500Y-52421155D01*
X142800499Y-52421153D01*
X142774531Y-52290606D01*
X142769737Y-52266503D01*
X142756062Y-52233489D01*
X142709397Y-52120827D01*
X142709390Y-52120814D01*
X142621789Y-51989711D01*
X142621786Y-51989707D01*
X142510292Y-51878213D01*
X142510288Y-51878210D01*
X142379185Y-51790609D01*
X142379172Y-51790602D01*
X142233501Y-51730264D01*
X142233489Y-51730261D01*
X142078845Y-51699500D01*
X142078842Y-51699500D01*
X141921158Y-51699500D01*
X141921155Y-51699500D01*
X141766510Y-51730261D01*
X141766498Y-51730264D01*
X141620827Y-51790602D01*
X141620814Y-51790609D01*
X141489711Y-51878210D01*
X141489707Y-51878213D01*
X141378213Y-51989707D01*
X141378210Y-51989711D01*
X141290609Y-52120814D01*
X141290602Y-52120827D01*
X141230264Y-52266498D01*
X141230261Y-52266510D01*
X141199500Y-52421153D01*
X140053232Y-52421153D01*
X140010292Y-52378213D01*
X140010288Y-52378210D01*
X139879185Y-52290609D01*
X139879172Y-52290602D01*
X139733501Y-52230264D01*
X139733489Y-52230261D01*
X139578845Y-52199500D01*
X139578842Y-52199500D01*
X139421158Y-52199500D01*
X139421157Y-52199500D01*
X139386164Y-52206460D01*
X139316573Y-52200231D01*
X139261396Y-52157367D01*
X139238153Y-52091477D01*
X139247414Y-52037389D01*
X139269737Y-51983497D01*
X139300500Y-51828842D01*
X139300500Y-51671158D01*
X139300500Y-51671155D01*
X139300499Y-51671153D01*
X139274531Y-51540606D01*
X139269737Y-51516503D01*
X139269735Y-51516498D01*
X139209397Y-51370827D01*
X139209390Y-51370814D01*
X139121789Y-51239711D01*
X139121786Y-51239707D01*
X139010292Y-51128213D01*
X139010288Y-51128210D01*
X138879185Y-51040609D01*
X138879172Y-51040602D01*
X138733501Y-50980264D01*
X138733489Y-50980261D01*
X138578845Y-50949500D01*
X138578842Y-50949500D01*
X138421158Y-50949500D01*
X138421155Y-50949500D01*
X138266510Y-50980261D01*
X138266498Y-50980264D01*
X138120827Y-51040602D01*
X138120814Y-51040609D01*
X137989711Y-51128210D01*
X137989707Y-51128213D01*
X137878213Y-51239707D01*
X137878210Y-51239711D01*
X137790609Y-51370814D01*
X137790602Y-51370827D01*
X137730264Y-51516498D01*
X137730261Y-51516510D01*
X137699500Y-51671153D01*
X136803232Y-51671153D01*
X136760292Y-51628213D01*
X136760288Y-51628210D01*
X136629185Y-51540609D01*
X136629172Y-51540602D01*
X136483501Y-51480264D01*
X136483489Y-51480261D01*
X136328845Y-51449500D01*
X136328842Y-51449500D01*
X136171158Y-51449500D01*
X136171155Y-51449500D01*
X136016510Y-51480261D01*
X136016498Y-51480264D01*
X135870827Y-51540602D01*
X135870814Y-51540609D01*
X135739711Y-51628210D01*
X135739707Y-51628213D01*
X135628213Y-51739707D01*
X135628210Y-51739711D01*
X135540609Y-51870814D01*
X135540602Y-51870827D01*
X135480264Y-52016498D01*
X135480261Y-52016510D01*
X135449500Y-52171153D01*
X134199727Y-52171153D01*
X134079185Y-52090609D01*
X134079172Y-52090602D01*
X133933501Y-52030264D01*
X133933489Y-52030261D01*
X133778845Y-51999500D01*
X133778842Y-51999500D01*
X133621158Y-51999500D01*
X133621155Y-51999500D01*
X133466510Y-52030261D01*
X133466498Y-52030264D01*
X133320827Y-52090602D01*
X133320814Y-52090609D01*
X133193391Y-52175751D01*
X133126713Y-52196629D01*
X133059333Y-52178144D01*
X133012643Y-52126165D01*
X133000500Y-52072649D01*
X133000500Y-49421153D01*
X135699500Y-49421153D01*
X135699500Y-49578846D01*
X135730261Y-49733489D01*
X135730264Y-49733501D01*
X135790602Y-49879172D01*
X135790609Y-49879185D01*
X135878210Y-50010288D01*
X135878213Y-50010292D01*
X135989707Y-50121786D01*
X135989711Y-50121789D01*
X136120814Y-50209390D01*
X136120827Y-50209397D01*
X136194013Y-50239711D01*
X136266503Y-50269737D01*
X136421153Y-50300499D01*
X136421156Y-50300500D01*
X136421158Y-50300500D01*
X136578844Y-50300500D01*
X136578845Y-50300499D01*
X136733497Y-50269737D01*
X136846166Y-50223067D01*
X136879172Y-50209397D01*
X136879172Y-50209396D01*
X136879179Y-50209394D01*
X137010289Y-50121789D01*
X137121789Y-50010289D01*
X137209394Y-49879179D01*
X137269737Y-49733497D01*
X137300500Y-49578842D01*
X137300500Y-49421158D01*
X137300500Y-49421155D01*
X137300499Y-49421153D01*
X149699500Y-49421153D01*
X149699500Y-49578846D01*
X149730261Y-49733489D01*
X149730264Y-49733501D01*
X149790602Y-49879172D01*
X149790609Y-49879185D01*
X149878210Y-50010288D01*
X149878213Y-50010292D01*
X149905240Y-50037319D01*
X149938725Y-50098642D01*
X149933741Y-50168334D01*
X149905240Y-50212681D01*
X149878213Y-50239707D01*
X149878210Y-50239711D01*
X149790609Y-50370814D01*
X149790602Y-50370827D01*
X149730264Y-50516498D01*
X149730261Y-50516510D01*
X149699500Y-50671153D01*
X149699500Y-50828846D01*
X149730261Y-50983489D01*
X149730264Y-50983501D01*
X149790602Y-51129172D01*
X149790609Y-51129185D01*
X149878210Y-51260288D01*
X149878213Y-51260292D01*
X149905240Y-51287319D01*
X149938725Y-51348642D01*
X149933741Y-51418334D01*
X149905240Y-51462681D01*
X149878213Y-51489707D01*
X149878210Y-51489711D01*
X149790609Y-51620814D01*
X149790602Y-51620827D01*
X149730264Y-51766498D01*
X149730261Y-51766510D01*
X149699500Y-51921153D01*
X149699500Y-52078846D01*
X149730261Y-52233489D01*
X149730264Y-52233501D01*
X149790602Y-52379172D01*
X149790609Y-52379185D01*
X149878210Y-52510288D01*
X149878213Y-52510292D01*
X149989707Y-52621786D01*
X149989711Y-52621789D01*
X150120814Y-52709390D01*
X150120827Y-52709397D01*
X150258695Y-52766503D01*
X150266503Y-52769737D01*
X150421153Y-52800499D01*
X150421156Y-52800500D01*
X150421158Y-52800500D01*
X150578844Y-52800500D01*
X150578845Y-52800499D01*
X150733497Y-52769737D01*
X150879179Y-52709394D01*
X151010289Y-52621789D01*
X151121789Y-52510289D01*
X151209394Y-52379179D01*
X151269737Y-52233497D01*
X151300500Y-52078842D01*
X151300500Y-51921158D01*
X151300500Y-51921155D01*
X151300499Y-51921153D01*
X151274531Y-51790606D01*
X151269737Y-51766503D01*
X151258640Y-51739712D01*
X151209397Y-51620827D01*
X151209390Y-51620814D01*
X151121789Y-51489711D01*
X151121786Y-51489707D01*
X151094760Y-51462681D01*
X151061275Y-51401358D01*
X151066259Y-51331666D01*
X151094760Y-51287319D01*
X151121786Y-51260292D01*
X151121789Y-51260289D01*
X151209394Y-51129179D01*
X151269737Y-50983497D01*
X151300500Y-50828842D01*
X151300500Y-50671158D01*
X151300500Y-50671155D01*
X151300499Y-50671153D01*
X151269738Y-50516510D01*
X151269737Y-50516503D01*
X151269735Y-50516498D01*
X151209397Y-50370827D01*
X151209390Y-50370814D01*
X151121789Y-50239711D01*
X151121786Y-50239707D01*
X151094760Y-50212681D01*
X151061275Y-50151358D01*
X151066259Y-50081666D01*
X151094760Y-50037319D01*
X151121786Y-50010292D01*
X151121789Y-50010289D01*
X151209394Y-49879179D01*
X151269737Y-49733497D01*
X151300500Y-49578842D01*
X151300500Y-49421158D01*
X151300500Y-49421155D01*
X151300499Y-49421153D01*
X151269738Y-49266510D01*
X151269737Y-49266503D01*
X151269735Y-49266498D01*
X151209397Y-49120827D01*
X151209390Y-49120814D01*
X151121789Y-48989711D01*
X151121786Y-48989707D01*
X151010292Y-48878213D01*
X151010288Y-48878210D01*
X150879185Y-48790609D01*
X150879172Y-48790602D01*
X150733501Y-48730264D01*
X150733489Y-48730261D01*
X150578845Y-48699500D01*
X150578842Y-48699500D01*
X150421158Y-48699500D01*
X150421155Y-48699500D01*
X150266510Y-48730261D01*
X150266498Y-48730264D01*
X150120827Y-48790602D01*
X150120814Y-48790609D01*
X149989711Y-48878210D01*
X149989707Y-48878213D01*
X149878213Y-48989707D01*
X149878210Y-48989711D01*
X149790609Y-49120814D01*
X149790602Y-49120827D01*
X149730264Y-49266498D01*
X149730261Y-49266510D01*
X149699500Y-49421153D01*
X137300499Y-49421153D01*
X137269738Y-49266510D01*
X137269737Y-49266503D01*
X137269735Y-49266498D01*
X137209397Y-49120827D01*
X137209390Y-49120814D01*
X137121789Y-48989711D01*
X137121786Y-48989707D01*
X137010292Y-48878213D01*
X137010288Y-48878210D01*
X136879185Y-48790609D01*
X136879172Y-48790602D01*
X136733501Y-48730264D01*
X136733489Y-48730261D01*
X136578845Y-48699500D01*
X136578842Y-48699500D01*
X136421158Y-48699500D01*
X136421155Y-48699500D01*
X136266510Y-48730261D01*
X136266498Y-48730264D01*
X136120827Y-48790602D01*
X136120814Y-48790609D01*
X135989711Y-48878210D01*
X135989707Y-48878213D01*
X135878213Y-48989707D01*
X135878210Y-48989711D01*
X135790609Y-49120814D01*
X135790602Y-49120827D01*
X135730264Y-49266498D01*
X135730261Y-49266510D01*
X135699500Y-49421153D01*
X133000500Y-49421153D01*
X133000500Y-48174500D01*
X133020185Y-48107461D01*
X133072989Y-48061706D01*
X133124500Y-48050500D01*
X153975500Y-48050500D01*
X154042539Y-48070185D01*
G37*
%TD.AperFunction*%
%TD*%
M02*
