%TF.GenerationSoftware,KiCad,Pcbnew,10.0.1*%
%TF.CreationDate,2026-09-18T14:06:58+03:00*%
%TF.ProjectId,EuroPlatvorm,4575726f-506c-4617-9476-6f726d2e6b69,rev?*%
%TF.SameCoordinates,Original*%
%TF.FileFunction,Copper,L4,Bot*%
%TF.FilePolarity,Positive*%
%FSLAX46Y46*%
G04 Gerber Fmt 4.6, Leading zero omitted, Abs format (unit mm)*
G04 Created by KiCad (PCBNEW 10.0.1) date 2026-09-18 14:06:58*
%MOMM*%
%LPD*%
G01*
G04 APERTURE LIST*
%TA.AperFunction,ComponentPad*%
%ADD10R,1.700000X1.700000*%
%TD*%
%TA.AperFunction,ComponentPad*%
%ADD11C,1.700000*%
%TD*%
%TA.AperFunction,ComponentPad*%
%ADD12O,1.200000X2.000000*%
%TD*%
%TA.AperFunction,ComponentPad*%
%ADD13O,1.200000X1.800000*%
%TD*%
%TA.AperFunction,ViaPad*%
%ADD14C,0.600000*%
%TD*%
%TA.AperFunction,ViaPad*%
%ADD15C,0.800000*%
%TD*%
%TA.AperFunction,Conductor*%
%ADD16C,1.000000*%
%TD*%
%TA.AperFunction,Conductor*%
%ADD17C,0.300000*%
%TD*%
G04 APERTURE END LIST*
D10*
%TO.P,J1,1,Pin_1_1*%
%TO.N,/-12V*%
X142460000Y-99590000D03*
D11*
%TO.P,J1,2,Pin_2_2*%
X145000000Y-99590000D03*
%TO.P,J1,3,Pin_3_3*%
%TO.N,GND*%
X142460000Y-102130000D03*
%TO.P,J1,4,Pin_4_4*%
X145000000Y-102130000D03*
%TO.P,J1,5,Pin_5_5*%
X142460000Y-104670000D03*
%TO.P,J1,6,Pin_6_6*%
X145000000Y-104670000D03*
%TO.P,J1,7,Pin_7_7*%
X142460000Y-107210000D03*
%TO.P,J1,8,Pin_8_8*%
X145000000Y-107210000D03*
%TO.P,J1,9,Pin_9_9*%
%TO.N,+12V*%
X142460000Y-109750000D03*
%TO.P,J1,10,Pin_10_10*%
X145000000Y-109750000D03*
%TD*%
D12*
%TO.P,J2,1,SHIELD_1*%
%TO.N,GND*%
X148060000Y-131570000D03*
D13*
%TO.P,J2,2,SHIELD_2*%
X148060000Y-135750000D03*
%TO.P,J2,3,SHIELD_3*%
X139400000Y-135750000D03*
D12*
%TO.P,J2,4,SHIELD_4*%
X139400000Y-131570000D03*
%TD*%
D10*
%TO.P,J4,1,Pin_1_1*%
%TO.N,/GPIO23*%
X149900000Y-71500000D03*
D11*
%TO.P,J4,2,Pin_2_2*%
%TO.N,/GPIO22*%
X149900000Y-74040000D03*
%TO.P,J4,3,Pin_3_3*%
%TO.N,/GPIO21*%
X149900000Y-76580000D03*
%TO.P,J4,4,Pin_4_4*%
%TO.N,/GPIO20*%
X149900000Y-79120000D03*
%TO.P,J4,5,Pin_5_5*%
%TO.N,/GPIO19*%
X149900000Y-81660000D03*
%TO.P,J4,6,Pin_6_6*%
%TO.N,/GPIO18*%
X149900000Y-84200000D03*
%TO.P,J4,7,Pin_7_7*%
%TO.N,/GPIO17*%
X149900000Y-86740000D03*
%TO.P,J4,8,Pin_8_8*%
%TO.N,/GPIO16*%
X149900000Y-89280000D03*
%TO.P,J4,9,Pin_9_9*%
%TO.N,/GPIO15*%
X149900000Y-91820000D03*
%TO.P,J4,10,Pin_10_10*%
%TO.N,/GPIO11*%
X149900000Y-94360000D03*
%TO.P,J4,11,Pin_11_11*%
%TO.N,/GPIO10*%
X149900000Y-96900000D03*
%TO.P,J4,12,Pin_12_12*%
%TO.N,/GPIO9*%
X149900000Y-99440000D03*
%TO.P,J4,13,Pin_13_13*%
%TO.N,/GPIO8*%
X149900000Y-101980000D03*
%TO.P,J4,14,Pin_14_14*%
%TO.N,GND*%
X149900000Y-104520000D03*
%TD*%
D10*
%TO.P,J3,1,Pin_1_1*%
%TO.N,+3V3*%
X137220000Y-71500000D03*
D11*
%TO.P,J3,2,Pin_2_2*%
%TO.N,+12V*%
X137220000Y-74040000D03*
%TO.P,J3,3,Pin_3_3*%
%TO.N,/-12V*%
X137220000Y-76580000D03*
%TO.P,J3,4,Pin_4_4*%
%TO.N,/GPIO0*%
X137220000Y-79120000D03*
%TO.P,J3,5,Pin_5_5*%
%TO.N,/GPIO1*%
X137220000Y-81660000D03*
%TO.P,J3,6,Pin_6_6*%
%TO.N,/GPIO2*%
X137220000Y-84200000D03*
%TO.P,J3,7,Pin_7_7*%
%TO.N,/GPIO3*%
X137220000Y-86740000D03*
%TO.P,J3,8,Pin_8_8*%
%TO.N,/GPIO4*%
X137220000Y-89280000D03*
%TO.P,J3,9,Pin_9_9*%
%TO.N,/GPIO5*%
X137220000Y-91820000D03*
%TO.P,J3,10,Pin_10_10*%
%TO.N,/GPIO6*%
X137220000Y-94360000D03*
%TO.P,J3,11,Pin_11_11*%
%TO.N,/GPIO7*%
X137220000Y-96900000D03*
%TO.P,J3,12,Pin_12_12*%
%TO.N,/USB_DP*%
X137220000Y-99440000D03*
%TO.P,J3,13,Pin_13_13*%
%TO.N,/USB_DM*%
X137220000Y-101980000D03*
%TO.P,J3,14,Pin_14_14*%
%TO.N,GND*%
X137220000Y-104520000D03*
%TD*%
D14*
%TO.N,GND*%
X139500000Y-57500000D03*
X152460000Y-129060000D03*
X139500000Y-53000000D03*
X142000000Y-57500000D03*
X133300000Y-132500000D03*
X143000000Y-67000000D03*
D15*
X138600000Y-114300000D03*
D14*
X137000000Y-127000000D03*
X134500000Y-123000000D03*
X142000000Y-52500000D03*
X152500000Y-122000000D03*
X144500000Y-53000000D03*
X139500000Y-55000000D03*
X133350000Y-67000000D03*
X144000000Y-135000000D03*
X138750000Y-111500000D03*
X135600000Y-117200000D03*
X150500000Y-49500000D03*
X133700000Y-52800000D03*
X144500000Y-57500000D03*
X144500000Y-55000000D03*
X133400000Y-130600000D03*
X142400000Y-119000000D03*
X136500000Y-49500000D03*
X142250000Y-91000000D03*
X152200000Y-116700000D03*
X151000000Y-121100000D03*
X140250000Y-102250000D03*
%TO.N,+3V3*%
X146750000Y-86500000D03*
X139750000Y-104500000D03*
X139000000Y-126500000D03*
X147160000Y-126050000D03*
X137000000Y-51500000D03*
X152000000Y-112400000D03*
X141600000Y-114900000D03*
X148360000Y-124150000D03*
X142500000Y-73500000D03*
X149500000Y-122500000D03*
X148250000Y-106750000D03*
X147160000Y-124150000D03*
D15*
X137700000Y-121000000D03*
D14*
X148360000Y-126050000D03*
%TO.N,Net-(U4-EN{slash}CHIP_PU)*%
X136250000Y-52250000D03*
X141750000Y-67500000D03*
%TO.N,/GPIO9*%
X146750000Y-96250000D03*
X145750000Y-91000000D03*
%TO.N,/USB_DP*%
X134500000Y-132500000D03*
X134750000Y-67000000D03*
X134500000Y-130538738D03*
X144000000Y-133500000D03*
%TO.N,/USB_DM*%
X135500000Y-127500000D03*
X143500000Y-129000000D03*
X135412500Y-131900000D03*
%TO.N,/GPIO8*%
X136000000Y-60750000D03*
X148000000Y-101000000D03*
%TO.N,/GPIO4*%
X138750000Y-73000000D03*
X138250000Y-64000000D03*
%TO.N,/GPIO5*%
X137000000Y-54000000D03*
X138500000Y-51750000D03*
%TO.N,/GPIO6*%
X143500000Y-84000000D03*
X138000000Y-56750000D03*
%TO.N,/GPIO7*%
X144250000Y-83250000D03*
X137000000Y-56500000D03*
%TO.N,/GPIO0*%
X137500000Y-58500000D03*
X143000000Y-66000000D03*
%TO.N,/GPIO1*%
X137000000Y-59550000D03*
X142500000Y-65250000D03*
%TO.N,/GPIO10*%
X144750000Y-96250000D03*
X138500000Y-62250000D03*
%TO.N,/GPIO11*%
X144000000Y-95500000D03*
X140169240Y-63000000D03*
%TO.N,/GPIO18*%
X149750000Y-66750000D03*
%TO.N,/GPIO19*%
X150150000Y-63500000D03*
%TO.N,/GPIO20*%
X150800988Y-62975000D03*
%TO.N,/GPIO22*%
X150250000Y-61750000D03*
X150625000Y-59875000D03*
%TO.N,/GPIO23*%
X149285860Y-65455099D03*
X149500000Y-60000000D03*
%TO.N,/GPIO15*%
X150250000Y-56250000D03*
X146250000Y-64500000D03*
%TO.N,/GPIO17*%
X147188173Y-67811827D03*
X146750000Y-83500000D03*
%TO.N,/GPIO3*%
X150500000Y-52000000D03*
X143240000Y-86740000D03*
%TO.N,/GPIO2*%
X150500000Y-50750000D03*
X143250000Y-85750000D03*
%TD*%
%TO.N,/-12V*%
D16*
X139080000Y-76580000D02*
X139500000Y-77000000D01*
X139500000Y-96750000D02*
X142340000Y-99590000D01*
X142340000Y-99590000D02*
X142460000Y-99590000D01*
X139500000Y-77000000D02*
X139500000Y-96750000D01*
X137220000Y-76580000D02*
X139080000Y-76580000D01*
%TO.N,+12V*%
X145000000Y-109750000D02*
X147000000Y-107750000D01*
X146750000Y-98000000D02*
X142447056Y-98000000D01*
X142447056Y-98000000D02*
X140723528Y-96276472D01*
X147000000Y-98250000D02*
X146750000Y-98000000D01*
X140723528Y-96276472D02*
X140723528Y-76526472D01*
X140723528Y-76526472D02*
X138237056Y-74040000D01*
X147000000Y-107750000D02*
X147000000Y-98250000D01*
X138237056Y-74040000D02*
X137220000Y-74040000D01*
%TO.N,Net-(U4-EN{slash}CHIP_PU)*%
D17*
X141750000Y-67500000D02*
X141750000Y-63661521D01*
X137769239Y-61600000D02*
X136250000Y-60080761D01*
X139688479Y-61600000D02*
X137769239Y-61600000D01*
X141750000Y-63661521D02*
X139688479Y-61600000D01*
X136250000Y-60080761D02*
X136250000Y-52250000D01*
%TO.N,/GPIO9*%
X146750000Y-96250000D02*
X145750000Y-95250000D01*
X145750000Y-95250000D02*
X145750000Y-91000000D01*
%TO.N,/USB_DP*%
X135560000Y-99440000D02*
X137220000Y-99440000D01*
X134500000Y-132500000D02*
X136500000Y-134500000D01*
X134519369Y-123899870D02*
X135230761Y-123188478D01*
X134750000Y-67000000D02*
X134900000Y-67150000D01*
X134519369Y-130519369D02*
X134519369Y-123899870D01*
X135230761Y-122150000D02*
X134850000Y-121769239D01*
X134850000Y-100150000D02*
X134900000Y-100100000D01*
X134850000Y-121769239D02*
X134850000Y-100150000D01*
X136500000Y-134500000D02*
X143000000Y-134500000D01*
X135560000Y-99440000D02*
X134850000Y-100150000D01*
X143000000Y-134500000D02*
X144000000Y-133500000D01*
X134900000Y-67150000D02*
X134900000Y-100100000D01*
X135230761Y-123188478D02*
X135230761Y-122150000D01*
%TO.N,/USB_DM*%
X137850000Y-126350000D02*
X136650000Y-126350000D01*
X135500000Y-102500000D02*
X136020000Y-101980000D01*
X136020000Y-101980000D02*
X137220000Y-101980000D01*
X136650000Y-126350000D02*
X135500000Y-127500000D01*
X136650000Y-126350000D02*
X136650000Y-106900000D01*
X140500000Y-129000000D02*
X137850000Y-126350000D01*
X143500000Y-129000000D02*
X140500000Y-129000000D01*
X135500000Y-105750000D02*
X135500000Y-102500000D01*
X135412500Y-131900000D02*
X135500000Y-127500000D01*
X136650000Y-106900000D02*
X135500000Y-105750000D01*
%TO.N,/GPIO8*%
X148000000Y-101000000D02*
X148000000Y-98047918D01*
X142649138Y-97000000D02*
X141573528Y-95924390D01*
X146952082Y-97000000D02*
X142649138Y-97000000D01*
X139574569Y-74175431D02*
X139574569Y-64324569D01*
X141573528Y-76174390D02*
X139574569Y-74175431D01*
X139574569Y-64324569D02*
X136000000Y-60750000D01*
X141573528Y-95924390D02*
X141573528Y-76174390D01*
X148000000Y-98047918D02*
X146952082Y-97000000D01*
%TO.N,/GPIO4*%
X138500000Y-64000000D02*
X138250000Y-64000000D01*
X138750000Y-73000000D02*
X138750000Y-64250000D01*
X138750000Y-64250000D02*
X138500000Y-64000000D01*
%TO.N,/GPIO5*%
X138500000Y-52500000D02*
X137000000Y-54000000D01*
X138500000Y-51750000D02*
X138500000Y-52500000D01*
%TO.N,/GPIO6*%
X143500000Y-84000000D02*
X143269239Y-83769239D01*
X143650000Y-67269239D02*
X143650000Y-60692893D01*
X143650000Y-60692893D02*
X139707107Y-56750000D01*
X139707107Y-56750000D02*
X138000000Y-56750000D01*
X143269239Y-67650000D02*
X143650000Y-67269239D01*
X143269239Y-83769239D02*
X143269239Y-67650000D01*
%TO.N,/GPIO7*%
X144250000Y-58830761D02*
X141419239Y-56000000D01*
X144250000Y-83250000D02*
X144250000Y-58830761D01*
X141419239Y-56000000D02*
X137500000Y-56000000D01*
X137500000Y-56000000D02*
X137000000Y-56500000D01*
%TO.N,/GPIO0*%
X143150000Y-60900000D02*
X143150000Y-65850000D01*
X143150000Y-65850000D02*
X143000000Y-66000000D01*
X137500000Y-58500000D02*
X140750000Y-58500000D01*
X140750000Y-58500000D02*
X143150000Y-60900000D01*
%TO.N,/GPIO1*%
X137000000Y-59550000D02*
X137050000Y-59500000D01*
X139350000Y-59000000D02*
X140542894Y-59000000D01*
X140542894Y-59000000D02*
X142500000Y-60957106D01*
X138850000Y-59500000D02*
X139350000Y-59000000D01*
X142500000Y-60957106D02*
X142500000Y-65250000D01*
X137050000Y-59500000D02*
X138850000Y-59500000D01*
%TO.N,/GPIO10*%
X140250000Y-74143756D02*
X142073528Y-75967283D01*
X142900000Y-90576472D02*
X142073528Y-89750000D01*
X144750000Y-96250000D02*
X142606244Y-96250000D01*
X142178122Y-92071878D02*
X142900000Y-91350000D01*
X142073528Y-75967283D02*
X142073528Y-89750000D01*
X142178122Y-95821878D02*
X142178122Y-92071878D01*
X142900000Y-91350000D02*
X142900000Y-90576472D01*
X142606244Y-96250000D02*
X142178122Y-95821878D01*
X140250000Y-64000000D02*
X140250000Y-74143756D01*
X138500000Y-62250000D02*
X140250000Y-64000000D01*
%TO.N,/GPIO11*%
X143750000Y-95750000D02*
X144000000Y-95500000D01*
X140169240Y-63000000D02*
X141000000Y-63830760D01*
X143400000Y-91600000D02*
X142678122Y-92321878D01*
X142678122Y-95428122D02*
X143000000Y-95750000D01*
X142573528Y-75760176D02*
X142573528Y-89542893D01*
X142678122Y-92321878D02*
X142678122Y-95428122D01*
X141000000Y-63830760D02*
X141000000Y-74186650D01*
X143000000Y-95750000D02*
X143750000Y-95750000D01*
X143400000Y-90369365D02*
X143400000Y-91600000D01*
X142573528Y-89542893D02*
X143400000Y-90369365D01*
X141000000Y-74186650D02*
X142573528Y-75760176D01*
%TO.N,/GPIO18*%
X149250000Y-66750000D02*
X147500000Y-68500000D01*
X149250000Y-66750000D02*
X149750000Y-66750000D01*
X149900000Y-84200000D02*
X147500000Y-81800000D01*
X147500000Y-81800000D02*
X147500000Y-68500000D01*
%TO.N,/GPIO19*%
X149900000Y-81660000D02*
X148000000Y-79760000D01*
X148000000Y-79760000D02*
X148000000Y-69000000D01*
X150250000Y-67500000D02*
X150500000Y-67250000D01*
X148000000Y-69000000D02*
X149250000Y-67750000D01*
X149542893Y-67750000D02*
X149792894Y-67500000D01*
X149250000Y-67750000D02*
X149542893Y-67750000D01*
X150500000Y-63850000D02*
X150150000Y-63500000D01*
X150500000Y-67250000D02*
X150500000Y-63850000D01*
X149792894Y-67500000D02*
X150250000Y-67500000D01*
%TO.N,/GPIO20*%
X150000000Y-68000000D02*
X148500000Y-69500000D01*
X148500000Y-69500000D02*
X148500000Y-77720000D01*
X150457106Y-68000000D02*
X151000000Y-67457106D01*
X151000000Y-63174012D02*
X150800988Y-62975000D01*
X151000000Y-67457106D02*
X151000000Y-63174012D01*
X148500000Y-77720000D02*
X149900000Y-79120000D01*
X150000000Y-68000000D02*
X150457106Y-68000000D01*
%TO.N,/GPIO22*%
X150250000Y-60250000D02*
X150625000Y-59875000D01*
X150250000Y-61750000D02*
X150250000Y-60250000D01*
%TO.N,/GPIO23*%
X149285860Y-65455099D02*
X149350000Y-65390959D01*
X149350000Y-65250000D02*
X149429046Y-65170954D01*
X149429046Y-60070954D02*
X149500000Y-60000000D01*
X149350000Y-65390959D02*
X149350000Y-65250000D01*
X149429046Y-65170954D02*
X149429046Y-60070954D01*
%TO.N,/GPIO15*%
X146250000Y-64500000D02*
X148250000Y-62500000D01*
X148250000Y-62500000D02*
X148250000Y-58250000D01*
X148250000Y-58250000D02*
X150250000Y-56250000D01*
%TO.N,/GPIO17*%
X146750000Y-68250000D02*
X146750000Y-83500000D01*
X147188173Y-67811827D02*
X146750000Y-68250000D01*
%TO.N,/GPIO3*%
X145500000Y-84480000D02*
X145500000Y-64207106D01*
X145500000Y-64207106D02*
X147500000Y-62207107D01*
X149000000Y-52000000D02*
X150500000Y-52000000D01*
X147500000Y-53500000D02*
X149000000Y-52000000D01*
X143240000Y-86740000D02*
X145500000Y-84480000D01*
X147500000Y-62207107D02*
X147500000Y-53500000D01*
%TO.N,/GPIO2*%
X145000000Y-84000000D02*
X145000000Y-64000000D01*
X147000000Y-52750000D02*
X149000000Y-50750000D01*
X149000000Y-50750000D02*
X150500000Y-50750000D01*
X143250000Y-85750000D02*
X145000000Y-84000000D01*
X145000000Y-64000000D02*
X147000000Y-62000000D01*
X147000000Y-62000000D02*
X147000000Y-52750000D01*
%TD*%
M02*
