%TF.GenerationSoftware,KiCad,Pcbnew,10.0.1*%
%TF.CreationDate,2026-09-18T13:35:24+03:00*%
%TF.ProjectId,EuroPlatvorm,4575726f-506c-4617-9476-6f726d2e6b69,rev?*%
%TF.SameCoordinates,Original*%
%TF.FileFunction,AssemblyDrawing,Bot*%
%FSLAX46Y46*%
G04 Gerber Fmt 4.6, Leading zero omitted, Abs format (unit mm)*
G04 Created by KiCad (PCBNEW 10.0.1) date 2026-09-18 13:35:24*
%MOMM*%
%LPD*%
G01*
G04 APERTURE LIST*
%ADD10C,0.150000*%
%ADD11C,0.100000*%
G04 APERTURE END LIST*
D10*
X153638095Y-107259580D02*
X153685714Y-107307200D01*
X153685714Y-107307200D02*
X153828571Y-107354819D01*
X153828571Y-107354819D02*
X153923809Y-107354819D01*
X153923809Y-107354819D02*
X154066666Y-107307200D01*
X154066666Y-107307200D02*
X154161904Y-107211961D01*
X154161904Y-107211961D02*
X154209523Y-107116723D01*
X154209523Y-107116723D02*
X154257142Y-106926247D01*
X154257142Y-106926247D02*
X154257142Y-106783390D01*
X154257142Y-106783390D02*
X154209523Y-106592914D01*
X154209523Y-106592914D02*
X154161904Y-106497676D01*
X154161904Y-106497676D02*
X154066666Y-106402438D01*
X154066666Y-106402438D02*
X153923809Y-106354819D01*
X153923809Y-106354819D02*
X153828571Y-106354819D01*
X153828571Y-106354819D02*
X153685714Y-106402438D01*
X153685714Y-106402438D02*
X153638095Y-106450057D01*
X153066666Y-107354819D02*
X153161904Y-107307200D01*
X153161904Y-107307200D02*
X153209523Y-107259580D01*
X153209523Y-107259580D02*
X153257142Y-107164342D01*
X153257142Y-107164342D02*
X153257142Y-106878628D01*
X153257142Y-106878628D02*
X153209523Y-106783390D01*
X153209523Y-106783390D02*
X153161904Y-106735771D01*
X153161904Y-106735771D02*
X153066666Y-106688152D01*
X153066666Y-106688152D02*
X152923809Y-106688152D01*
X152923809Y-106688152D02*
X152828571Y-106735771D01*
X152828571Y-106735771D02*
X152780952Y-106783390D01*
X152780952Y-106783390D02*
X152733333Y-106878628D01*
X152733333Y-106878628D02*
X152733333Y-107164342D01*
X152733333Y-107164342D02*
X152780952Y-107259580D01*
X152780952Y-107259580D02*
X152828571Y-107307200D01*
X152828571Y-107307200D02*
X152923809Y-107354819D01*
X152923809Y-107354819D02*
X153066666Y-107354819D01*
X152304761Y-106688152D02*
X152304761Y-107354819D01*
X152304761Y-106783390D02*
X152257142Y-106735771D01*
X152257142Y-106735771D02*
X152161904Y-106688152D01*
X152161904Y-106688152D02*
X152019047Y-106688152D01*
X152019047Y-106688152D02*
X151923809Y-106735771D01*
X151923809Y-106735771D02*
X151876190Y-106831009D01*
X151876190Y-106831009D02*
X151876190Y-107354819D01*
X151399999Y-106688152D02*
X151399999Y-107354819D01*
X151399999Y-106783390D02*
X151352380Y-106735771D01*
X151352380Y-106735771D02*
X151257142Y-106688152D01*
X151257142Y-106688152D02*
X151114285Y-106688152D01*
X151114285Y-106688152D02*
X151019047Y-106735771D01*
X151019047Y-106735771D02*
X150971428Y-106831009D01*
X150971428Y-106831009D02*
X150971428Y-107354819D01*
X150733333Y-107450057D02*
X149971428Y-107450057D01*
X149542856Y-106354819D02*
X149447618Y-106354819D01*
X149447618Y-106354819D02*
X149352380Y-106402438D01*
X149352380Y-106402438D02*
X149304761Y-106450057D01*
X149304761Y-106450057D02*
X149257142Y-106545295D01*
X149257142Y-106545295D02*
X149209523Y-106735771D01*
X149209523Y-106735771D02*
X149209523Y-106973866D01*
X149209523Y-106973866D02*
X149257142Y-107164342D01*
X149257142Y-107164342D02*
X149304761Y-107259580D01*
X149304761Y-107259580D02*
X149352380Y-107307200D01*
X149352380Y-107307200D02*
X149447618Y-107354819D01*
X149447618Y-107354819D02*
X149542856Y-107354819D01*
X149542856Y-107354819D02*
X149638094Y-107307200D01*
X149638094Y-107307200D02*
X149685713Y-107259580D01*
X149685713Y-107259580D02*
X149733332Y-107164342D01*
X149733332Y-107164342D02*
X149780951Y-106973866D01*
X149780951Y-106973866D02*
X149780951Y-106735771D01*
X149780951Y-106735771D02*
X149733332Y-106545295D01*
X149733332Y-106545295D02*
X149685713Y-106450057D01*
X149685713Y-106450057D02*
X149638094Y-106402438D01*
X149638094Y-106402438D02*
X149542856Y-106354819D01*
X148257142Y-107354819D02*
X148828570Y-107354819D01*
X148542856Y-107354819D02*
X148542856Y-106354819D01*
X148542856Y-106354819D02*
X148638094Y-106497676D01*
X148638094Y-106497676D02*
X148733332Y-106592914D01*
X148733332Y-106592914D02*
X148828570Y-106640533D01*
X147923808Y-107354819D02*
X147399999Y-106688152D01*
X147923808Y-106688152D02*
X147399999Y-107354819D01*
X146495237Y-107354819D02*
X147066665Y-107354819D01*
X146780951Y-107354819D02*
X146780951Y-106354819D01*
X146780951Y-106354819D02*
X146876189Y-106497676D01*
X146876189Y-106497676D02*
X146971427Y-106592914D01*
X146971427Y-106592914D02*
X147066665Y-106640533D01*
X145638094Y-106688152D02*
X145638094Y-107354819D01*
X145876189Y-106307200D02*
X146114284Y-107021485D01*
X146114284Y-107021485D02*
X145495237Y-107021485D01*
X149354819Y-87676666D02*
X150069104Y-87676666D01*
X150069104Y-87676666D02*
X150211961Y-87629047D01*
X150211961Y-87629047D02*
X150307200Y-87533809D01*
X150307200Y-87533809D02*
X150354819Y-87390952D01*
X150354819Y-87390952D02*
X150354819Y-87295714D01*
X149688152Y-88581428D02*
X150354819Y-88581428D01*
X149307200Y-88343333D02*
X150021485Y-88105238D01*
X150021485Y-88105238D02*
X150021485Y-88724285D01*
X140958095Y-107259580D02*
X141005714Y-107307200D01*
X141005714Y-107307200D02*
X141148571Y-107354819D01*
X141148571Y-107354819D02*
X141243809Y-107354819D01*
X141243809Y-107354819D02*
X141386666Y-107307200D01*
X141386666Y-107307200D02*
X141481904Y-107211961D01*
X141481904Y-107211961D02*
X141529523Y-107116723D01*
X141529523Y-107116723D02*
X141577142Y-106926247D01*
X141577142Y-106926247D02*
X141577142Y-106783390D01*
X141577142Y-106783390D02*
X141529523Y-106592914D01*
X141529523Y-106592914D02*
X141481904Y-106497676D01*
X141481904Y-106497676D02*
X141386666Y-106402438D01*
X141386666Y-106402438D02*
X141243809Y-106354819D01*
X141243809Y-106354819D02*
X141148571Y-106354819D01*
X141148571Y-106354819D02*
X141005714Y-106402438D01*
X141005714Y-106402438D02*
X140958095Y-106450057D01*
X140386666Y-107354819D02*
X140481904Y-107307200D01*
X140481904Y-107307200D02*
X140529523Y-107259580D01*
X140529523Y-107259580D02*
X140577142Y-107164342D01*
X140577142Y-107164342D02*
X140577142Y-106878628D01*
X140577142Y-106878628D02*
X140529523Y-106783390D01*
X140529523Y-106783390D02*
X140481904Y-106735771D01*
X140481904Y-106735771D02*
X140386666Y-106688152D01*
X140386666Y-106688152D02*
X140243809Y-106688152D01*
X140243809Y-106688152D02*
X140148571Y-106735771D01*
X140148571Y-106735771D02*
X140100952Y-106783390D01*
X140100952Y-106783390D02*
X140053333Y-106878628D01*
X140053333Y-106878628D02*
X140053333Y-107164342D01*
X140053333Y-107164342D02*
X140100952Y-107259580D01*
X140100952Y-107259580D02*
X140148571Y-107307200D01*
X140148571Y-107307200D02*
X140243809Y-107354819D01*
X140243809Y-107354819D02*
X140386666Y-107354819D01*
X139624761Y-106688152D02*
X139624761Y-107354819D01*
X139624761Y-106783390D02*
X139577142Y-106735771D01*
X139577142Y-106735771D02*
X139481904Y-106688152D01*
X139481904Y-106688152D02*
X139339047Y-106688152D01*
X139339047Y-106688152D02*
X139243809Y-106735771D01*
X139243809Y-106735771D02*
X139196190Y-106831009D01*
X139196190Y-106831009D02*
X139196190Y-107354819D01*
X138719999Y-106688152D02*
X138719999Y-107354819D01*
X138719999Y-106783390D02*
X138672380Y-106735771D01*
X138672380Y-106735771D02*
X138577142Y-106688152D01*
X138577142Y-106688152D02*
X138434285Y-106688152D01*
X138434285Y-106688152D02*
X138339047Y-106735771D01*
X138339047Y-106735771D02*
X138291428Y-106831009D01*
X138291428Y-106831009D02*
X138291428Y-107354819D01*
X138053333Y-107450057D02*
X137291428Y-107450057D01*
X136862856Y-106354819D02*
X136767618Y-106354819D01*
X136767618Y-106354819D02*
X136672380Y-106402438D01*
X136672380Y-106402438D02*
X136624761Y-106450057D01*
X136624761Y-106450057D02*
X136577142Y-106545295D01*
X136577142Y-106545295D02*
X136529523Y-106735771D01*
X136529523Y-106735771D02*
X136529523Y-106973866D01*
X136529523Y-106973866D02*
X136577142Y-107164342D01*
X136577142Y-107164342D02*
X136624761Y-107259580D01*
X136624761Y-107259580D02*
X136672380Y-107307200D01*
X136672380Y-107307200D02*
X136767618Y-107354819D01*
X136767618Y-107354819D02*
X136862856Y-107354819D01*
X136862856Y-107354819D02*
X136958094Y-107307200D01*
X136958094Y-107307200D02*
X137005713Y-107259580D01*
X137005713Y-107259580D02*
X137053332Y-107164342D01*
X137053332Y-107164342D02*
X137100951Y-106973866D01*
X137100951Y-106973866D02*
X137100951Y-106735771D01*
X137100951Y-106735771D02*
X137053332Y-106545295D01*
X137053332Y-106545295D02*
X137005713Y-106450057D01*
X137005713Y-106450057D02*
X136958094Y-106402438D01*
X136958094Y-106402438D02*
X136862856Y-106354819D01*
X135577142Y-107354819D02*
X136148570Y-107354819D01*
X135862856Y-107354819D02*
X135862856Y-106354819D01*
X135862856Y-106354819D02*
X135958094Y-106497676D01*
X135958094Y-106497676D02*
X136053332Y-106592914D01*
X136053332Y-106592914D02*
X136148570Y-106640533D01*
X135243808Y-107354819D02*
X134719999Y-106688152D01*
X135243808Y-106688152D02*
X134719999Y-107354819D01*
X133815237Y-107354819D02*
X134386665Y-107354819D01*
X134100951Y-107354819D02*
X134100951Y-106354819D01*
X134100951Y-106354819D02*
X134196189Y-106497676D01*
X134196189Y-106497676D02*
X134291427Y-106592914D01*
X134291427Y-106592914D02*
X134386665Y-106640533D01*
X132958094Y-106688152D02*
X132958094Y-107354819D01*
X133196189Y-106307200D02*
X133434284Y-107021485D01*
X133434284Y-107021485D02*
X132815237Y-107021485D01*
X136674819Y-87676666D02*
X137389104Y-87676666D01*
X137389104Y-87676666D02*
X137531961Y-87629047D01*
X137531961Y-87629047D02*
X137627200Y-87533809D01*
X137627200Y-87533809D02*
X137674819Y-87390952D01*
X137674819Y-87390952D02*
X137674819Y-87295714D01*
X136674819Y-88057619D02*
X136674819Y-88676666D01*
X136674819Y-88676666D02*
X137055771Y-88343333D01*
X137055771Y-88343333D02*
X137055771Y-88486190D01*
X137055771Y-88486190D02*
X137103390Y-88581428D01*
X137103390Y-88581428D02*
X137151009Y-88629047D01*
X137151009Y-88629047D02*
X137246247Y-88676666D01*
X137246247Y-88676666D02*
X137484342Y-88676666D01*
X137484342Y-88676666D02*
X137579580Y-88629047D01*
X137579580Y-88629047D02*
X137627200Y-88581428D01*
X137627200Y-88581428D02*
X137674819Y-88486190D01*
X137674819Y-88486190D02*
X137674819Y-88200476D01*
X137674819Y-88200476D02*
X137627200Y-88105238D01*
X137627200Y-88105238D02*
X137579580Y-88057619D01*
%TO.C,J4*%
D11*
X148630000Y-70230000D02*
X148630000Y-105790000D01*
X148630000Y-105790000D02*
X151170000Y-105790000D01*
X150535000Y-70230000D02*
X148630000Y-70230000D01*
X151170000Y-70865000D02*
X150535000Y-70230000D01*
X151170000Y-105790000D02*
X151170000Y-70865000D01*
%TO.C,J3*%
X135950000Y-70230000D02*
X135950000Y-105790000D01*
X135950000Y-105790000D02*
X138490000Y-105790000D01*
X137855000Y-70230000D02*
X135950000Y-70230000D01*
X138490000Y-70865000D02*
X137855000Y-70230000D01*
X138490000Y-105790000D02*
X138490000Y-70865000D01*
%TD*%
M02*
