%TF.GenerationSoftware,KiCad,Pcbnew,10.0.1*%
%TF.CreationDate,2026-09-18T13:35:24+03:00*%
%TF.ProjectId,EuroPlatvorm,4575726f-506c-4617-9476-6f726d2e6b69,rev?*%
%TF.SameCoordinates,Original*%
%TF.FileFunction,Copper,L2,Inr*%
%TF.FilePolarity,Positive*%
%FSLAX46Y46*%
G04 Gerber Fmt 4.6, Leading zero omitted, Abs format (unit mm)*
G04 Created by KiCad (PCBNEW 10.0.1) date 2026-09-18 13:35:24*
%MOMM*%
%LPD*%
G01*
G04 APERTURE LIST*
%TA.AperFunction,ComponentPad*%
%ADD10R,1.700000X1.700000*%
%TD*%
%TA.AperFunction,ComponentPad*%
%ADD11C,1.700000*%
%TD*%
%TA.AperFunction,ComponentPad*%
%ADD12O,1.200000X2.000000*%
%TD*%
%TA.AperFunction,ComponentPad*%
%ADD13O,1.200000X1.800000*%
%TD*%
%TA.AperFunction,ViaPad*%
%ADD14C,0.600000*%
%TD*%
%TA.AperFunction,ViaPad*%
%ADD15C,0.800000*%
%TD*%
G04 APERTURE END LIST*
D10*
%TO.N,/-12V*%
%TO.C,J1*%
X142460000Y-99590000D03*
D11*
X145000000Y-99590000D03*
%TO.N,GND*%
X142460000Y-102130000D03*
X145000000Y-102130000D03*
X142460000Y-104670000D03*
X145000000Y-104670000D03*
X142460000Y-107210000D03*
X145000000Y-107210000D03*
%TO.N,+12V*%
X142460000Y-109750000D03*
X145000000Y-109750000D03*
%TD*%
D12*
%TO.N,GND*%
%TO.C,J2*%
X148060000Y-131570000D03*
D13*
X148060000Y-135750000D03*
X139400000Y-135750000D03*
D12*
X139400000Y-131570000D03*
%TD*%
D10*
%TO.N,/GPIO23*%
%TO.C,J4*%
X149900000Y-71500000D03*
D11*
%TO.N,/GPIO22*%
X149900000Y-74040000D03*
%TO.N,/GPIO21*%
X149900000Y-76580000D03*
%TO.N,/GPIO20*%
X149900000Y-79120000D03*
%TO.N,/GPIO19*%
X149900000Y-81660000D03*
%TO.N,/GPIO18*%
X149900000Y-84200000D03*
%TO.N,/GPIO17*%
X149900000Y-86740000D03*
%TO.N,/GPIO16*%
X149900000Y-89280000D03*
%TO.N,/GPIO15*%
X149900000Y-91820000D03*
%TO.N,/GPIO11*%
X149900000Y-94360000D03*
%TO.N,/GPIO10*%
X149900000Y-96900000D03*
%TO.N,/GPIO9*%
X149900000Y-99440000D03*
%TO.N,/GPIO8*%
X149900000Y-101980000D03*
%TO.N,GND*%
X149900000Y-104520000D03*
%TD*%
D10*
%TO.N,+3V3*%
%TO.C,J3*%
X137220000Y-71500000D03*
D11*
%TO.N,+12V*%
X137220000Y-74040000D03*
%TO.N,/-12V*%
X137220000Y-76580000D03*
%TO.N,/GPIO0*%
X137220000Y-79120000D03*
%TO.N,/GPIO1*%
X137220000Y-81660000D03*
%TO.N,/GPIO2*%
X137220000Y-84200000D03*
%TO.N,/GPIO3*%
X137220000Y-86740000D03*
%TO.N,/GPIO4*%
X137220000Y-89280000D03*
%TO.N,/GPIO5*%
X137220000Y-91820000D03*
%TO.N,/GPIO6*%
X137220000Y-94360000D03*
%TO.N,/GPIO7*%
X137220000Y-96900000D03*
%TO.N,/USB_DP*%
X137220000Y-99440000D03*
%TO.N,/USB_DM*%
X137220000Y-101980000D03*
%TO.N,GND*%
X137220000Y-104520000D03*
%TD*%
D14*
%TO.N,GND*%
X139500000Y-57500000D03*
X152460000Y-129060000D03*
X139500000Y-53000000D03*
X142000000Y-57500000D03*
X133300000Y-132500000D03*
X143000000Y-67000000D03*
D15*
X138600000Y-114300000D03*
D14*
X137000000Y-127000000D03*
X134500000Y-123000000D03*
X142000000Y-52500000D03*
X152500000Y-122000000D03*
X144500000Y-53000000D03*
X139500000Y-55000000D03*
X133350000Y-67000000D03*
X144000000Y-135000000D03*
X138750000Y-111500000D03*
X135600000Y-117200000D03*
X150500000Y-49500000D03*
X133700000Y-52800000D03*
X144500000Y-57500000D03*
X144500000Y-55000000D03*
X133400000Y-130600000D03*
X142400000Y-119000000D03*
X136500000Y-49500000D03*
X142250000Y-91000000D03*
X152200000Y-116700000D03*
X151000000Y-121100000D03*
X140250000Y-102250000D03*
%TO.N,+3V3*%
X146750000Y-86500000D03*
X139750000Y-104500000D03*
X139000000Y-126500000D03*
X147160000Y-126050000D03*
X137000000Y-51500000D03*
X152000000Y-112400000D03*
X141600000Y-114900000D03*
X148360000Y-124150000D03*
X142500000Y-73500000D03*
X149500000Y-122500000D03*
X148250000Y-106750000D03*
X147160000Y-124150000D03*
D15*
X137700000Y-121000000D03*
D14*
X148360000Y-126050000D03*
%TO.N,Net-(U4-EN{slash}CHIP_PU)*%
X136250000Y-52250000D03*
X141750000Y-67500000D03*
%TO.N,/GPIO9*%
X146750000Y-96250000D03*
X145750000Y-91000000D03*
%TO.N,/USB_DP*%
X134500000Y-132500000D03*
X134750000Y-67000000D03*
X134500000Y-130538738D03*
X144000000Y-133500000D03*
%TO.N,/USB_DM*%
X135500000Y-127500000D03*
X143500000Y-129000000D03*
X135412500Y-131900000D03*
%TO.N,/GPIO8*%
X136000000Y-60750000D03*
X148000000Y-101000000D03*
%TO.N,/GPIO4*%
X138750000Y-73000000D03*
X138250000Y-64000000D03*
%TO.N,/GPIO5*%
X137000000Y-54000000D03*
X138500000Y-51750000D03*
%TO.N,/GPIO6*%
X143500000Y-84000000D03*
X138000000Y-56750000D03*
%TO.N,/GPIO7*%
X144250000Y-83250000D03*
X137000000Y-56500000D03*
%TO.N,/GPIO0*%
X137500000Y-58500000D03*
X143000000Y-66000000D03*
%TO.N,/GPIO1*%
X137000000Y-59550000D03*
X142500000Y-65250000D03*
%TO.N,/GPIO10*%
X144750000Y-96250000D03*
X138500000Y-62250000D03*
%TO.N,/GPIO11*%
X144000000Y-95500000D03*
X140169240Y-63000000D03*
%TO.N,/GPIO18*%
X149750000Y-66750000D03*
%TO.N,/GPIO19*%
X150150000Y-63500000D03*
%TO.N,/GPIO20*%
X150800988Y-62975000D03*
%TO.N,/GPIO22*%
X150250000Y-61750000D03*
X150625000Y-59875000D03*
%TO.N,/GPIO23*%
X149285860Y-65455099D03*
X149500000Y-60000000D03*
%TO.N,/GPIO15*%
X150250000Y-56250000D03*
X146250000Y-64500000D03*
%TO.N,/GPIO17*%
X147188173Y-67811827D03*
X146750000Y-83500000D03*
%TO.N,/GPIO3*%
X150500000Y-52000000D03*
X143240000Y-86740000D03*
%TO.N,/GPIO2*%
X150500000Y-50750000D03*
X143250000Y-85750000D03*
%TD*%
%TA.AperFunction,Conductor*%
%TO.N,GND*%
G36*
X144534075Y-107402993D02*
G01*
X144599901Y-107517007D01*
X144692993Y-107610099D01*
X144807007Y-107675925D01*
X144870590Y-107692962D01*
X144238282Y-108325269D01*
X144238282Y-108325270D01*
X144292452Y-108364626D01*
X144292451Y-108364626D01*
X144301495Y-108369234D01*
X144352292Y-108417208D01*
X144369087Y-108485029D01*
X144346550Y-108551164D01*
X144301499Y-108590202D01*
X144292182Y-108594949D01*
X144120213Y-108719890D01*
X143969890Y-108870213D01*
X143844949Y-109042182D01*
X143840484Y-109050946D01*
X143792509Y-109101742D01*
X143724688Y-109118536D01*
X143658553Y-109095998D01*
X143619516Y-109050946D01*
X143615050Y-109042182D01*
X143490109Y-108870213D01*
X143339786Y-108719890D01*
X143167817Y-108594949D01*
X143158504Y-108590204D01*
X143107707Y-108542230D01*
X143090912Y-108474409D01*
X143113449Y-108408274D01*
X143158507Y-108369232D01*
X143167555Y-108364622D01*
X143221716Y-108325270D01*
X143221717Y-108325270D01*
X142589408Y-107692962D01*
X142652993Y-107675925D01*
X142767007Y-107610099D01*
X142860099Y-107517007D01*
X142925925Y-107402993D01*
X142942962Y-107339409D01*
X143575270Y-107971717D01*
X143575270Y-107971716D01*
X143614622Y-107917554D01*
X143619514Y-107907954D01*
X143667488Y-107857157D01*
X143735308Y-107840361D01*
X143801444Y-107862897D01*
X143840486Y-107907954D01*
X143845375Y-107917550D01*
X143884728Y-107971716D01*
X144517037Y-107339408D01*
X144534075Y-107402993D01*
G37*
%TD.AperFunction*%
%TA.AperFunction,Conductor*%
G36*
X144534075Y-104862993D02*
G01*
X144599901Y-104977007D01*
X144692993Y-105070099D01*
X144807007Y-105135925D01*
X144870590Y-105152962D01*
X144238282Y-105785269D01*
X144238282Y-105785270D01*
X144292452Y-105824626D01*
X144302048Y-105829516D01*
X144352844Y-105877491D01*
X144369638Y-105945312D01*
X144347100Y-106011447D01*
X144302051Y-106050483D01*
X144292440Y-106055380D01*
X144238282Y-106094727D01*
X144238282Y-106094728D01*
X144870591Y-106727037D01*
X144807007Y-106744075D01*
X144692993Y-106809901D01*
X144599901Y-106902993D01*
X144534075Y-107017007D01*
X144517037Y-107080591D01*
X143884728Y-106448282D01*
X143884727Y-106448282D01*
X143845380Y-106502440D01*
X143840483Y-106512051D01*
X143792506Y-106562845D01*
X143724684Y-106579638D01*
X143658550Y-106557098D01*
X143619516Y-106512048D01*
X143614626Y-106502452D01*
X143575270Y-106448282D01*
X143575269Y-106448282D01*
X142942962Y-107080590D01*
X142925925Y-107017007D01*
X142860099Y-106902993D01*
X142767007Y-106809901D01*
X142652993Y-106744075D01*
X142589409Y-106727037D01*
X143221716Y-106094728D01*
X143167550Y-106055375D01*
X143157954Y-106050486D01*
X143107157Y-106002512D01*
X143090361Y-105934692D01*
X143111288Y-105870895D01*
X143190027Y-105753581D01*
X142589408Y-105152962D01*
X142652993Y-105135925D01*
X142767007Y-105070099D01*
X142860099Y-104977007D01*
X142925925Y-104862993D01*
X142942962Y-104799409D01*
X143575270Y-105431717D01*
X143575270Y-105431716D01*
X143614622Y-105377554D01*
X143619514Y-105367954D01*
X143667488Y-105317157D01*
X143735308Y-105300361D01*
X143801444Y-105322897D01*
X143840486Y-105367954D01*
X143845375Y-105377550D01*
X143884728Y-105431716D01*
X144517037Y-104799408D01*
X144534075Y-104862993D01*
G37*
%TD.AperFunction*%
%TA.AperFunction,Conductor*%
G36*
X144534075Y-102322993D02*
G01*
X144599901Y-102437007D01*
X144692993Y-102530099D01*
X144807007Y-102595925D01*
X144870590Y-102612962D01*
X144238282Y-103245269D01*
X144238282Y-103245270D01*
X144292452Y-103284626D01*
X144302048Y-103289516D01*
X144352844Y-103337491D01*
X144369638Y-103405312D01*
X144347100Y-103471447D01*
X144302051Y-103510483D01*
X144292440Y-103515380D01*
X144238282Y-103554727D01*
X144238282Y-103554728D01*
X144870591Y-104187037D01*
X144807007Y-104204075D01*
X144692993Y-104269901D01*
X144599901Y-104362993D01*
X144534075Y-104477007D01*
X144517037Y-104540591D01*
X143884728Y-103908282D01*
X143884727Y-103908282D01*
X143845380Y-103962440D01*
X143840483Y-103972051D01*
X143792506Y-104022845D01*
X143724684Y-104039638D01*
X143658550Y-104017098D01*
X143619516Y-103972048D01*
X143614626Y-103962452D01*
X143575270Y-103908282D01*
X143575269Y-103908282D01*
X142942962Y-104540590D01*
X142925925Y-104477007D01*
X142860099Y-104362993D01*
X142767007Y-104269901D01*
X142652993Y-104204075D01*
X142589409Y-104187037D01*
X143221716Y-103554728D01*
X143167550Y-103515375D01*
X143157954Y-103510486D01*
X143107157Y-103462512D01*
X143090361Y-103394692D01*
X143111288Y-103330895D01*
X143190027Y-103213581D01*
X142589408Y-102612962D01*
X142652993Y-102595925D01*
X142767007Y-102530099D01*
X142860099Y-102437007D01*
X142925925Y-102322993D01*
X142942962Y-102259409D01*
X143575270Y-102891717D01*
X143575270Y-102891716D01*
X143614622Y-102837554D01*
X143619514Y-102827954D01*
X143667488Y-102777157D01*
X143735308Y-102760361D01*
X143801444Y-102782897D01*
X143840486Y-102827954D01*
X143845375Y-102837550D01*
X143884728Y-102891716D01*
X144517037Y-102259408D01*
X144534075Y-102322993D01*
G37*
%TD.AperFunction*%
%TA.AperFunction,Conductor*%
G36*
X143978418Y-100485417D02*
G01*
X144006673Y-100506569D01*
X144120213Y-100620109D01*
X144292179Y-100745048D01*
X144292181Y-100745049D01*
X144292184Y-100745051D01*
X144301493Y-100749794D01*
X144352290Y-100797766D01*
X144369087Y-100865587D01*
X144346552Y-100931722D01*
X144301505Y-100970760D01*
X144292446Y-100975376D01*
X144292440Y-100975380D01*
X144238282Y-101014727D01*
X144238282Y-101014728D01*
X144870591Y-101647037D01*
X144807007Y-101664075D01*
X144692993Y-101729901D01*
X144599901Y-101822993D01*
X144534075Y-101937007D01*
X144517037Y-102000591D01*
X143884728Y-101368282D01*
X143884727Y-101368282D01*
X143845380Y-101422440D01*
X143840483Y-101432051D01*
X143792506Y-101482845D01*
X143724684Y-101499638D01*
X143658550Y-101477098D01*
X143619516Y-101432048D01*
X143614626Y-101422452D01*
X143575270Y-101368282D01*
X143575269Y-101368282D01*
X142942962Y-102000590D01*
X142925925Y-101937007D01*
X142860099Y-101822993D01*
X142767007Y-101729901D01*
X142652993Y-101664075D01*
X142589409Y-101647037D01*
X143259627Y-100976818D01*
X143320950Y-100943333D01*
X143347307Y-100940499D01*
X143357872Y-100940499D01*
X143417483Y-100934091D01*
X143552331Y-100883796D01*
X143667546Y-100797546D01*
X143753796Y-100682331D01*
X143802810Y-100550916D01*
X143844681Y-100494984D01*
X143910145Y-100470566D01*
X143978418Y-100485417D01*
G37*
%TD.AperFunction*%
%TA.AperFunction,Conductor*%
G36*
X154042539Y-48070185D02*
G01*
X154088294Y-48122989D01*
X154099500Y-48174500D01*
X154099500Y-137075500D01*
X154079815Y-137142539D01*
X154027011Y-137188294D01*
X153975500Y-137199500D01*
X148730913Y-137199500D01*
X148663874Y-137179815D01*
X148618119Y-137127011D01*
X148608175Y-137057853D01*
X148637200Y-136994297D01*
X148658028Y-136975181D01*
X148776602Y-136889032D01*
X148899032Y-136766602D01*
X149000804Y-136626524D01*
X149079408Y-136472257D01*
X149132914Y-136307584D01*
X149160000Y-136136571D01*
X149160000Y-136000000D01*
X148459999Y-136000000D01*
X148459999Y-135500000D01*
X149160000Y-135500000D01*
X149160000Y-135363428D01*
X149132914Y-135192415D01*
X149079408Y-135027742D01*
X149000804Y-134873475D01*
X148899032Y-134733397D01*
X148776602Y-134610967D01*
X148636524Y-134509195D01*
X148482257Y-134430591D01*
X148317589Y-134377087D01*
X148317581Y-134377085D01*
X148310000Y-134375884D01*
X148310000Y-135234316D01*
X148305605Y-135229921D01*
X148214394Y-135177260D01*
X148112661Y-135150001D01*
X148007339Y-135150001D01*
X147905606Y-135177260D01*
X147814395Y-135229921D01*
X147810000Y-135234316D01*
X147810000Y-134375884D01*
X147809999Y-134375884D01*
X147802418Y-134377085D01*
X147802410Y-134377087D01*
X147637742Y-134430591D01*
X147483475Y-134509195D01*
X147343397Y-134610967D01*
X147220967Y-134733397D01*
X147119195Y-134873475D01*
X147040591Y-135027742D01*
X146987085Y-135192415D01*
X146960000Y-135363428D01*
X146960000Y-135500000D01*
X147660001Y-135500000D01*
X147660001Y-136000000D01*
X146960000Y-136000000D01*
X146960000Y-136136571D01*
X146987085Y-136307584D01*
X147040591Y-136472257D01*
X147119195Y-136626524D01*
X147220967Y-136766602D01*
X147343397Y-136889032D01*
X147461972Y-136975181D01*
X147504638Y-137030511D01*
X147510617Y-137100125D01*
X147478012Y-137161920D01*
X147417173Y-137196277D01*
X147389087Y-137199500D01*
X140070913Y-137199500D01*
X140003874Y-137179815D01*
X139958119Y-137127011D01*
X139948175Y-137057853D01*
X139977200Y-136994297D01*
X139998028Y-136975181D01*
X140116602Y-136889032D01*
X140239032Y-136766602D01*
X140340804Y-136626524D01*
X140419408Y-136472257D01*
X140472914Y-136307584D01*
X140500000Y-136136571D01*
X140500000Y-136000000D01*
X139799999Y-136000000D01*
X139799999Y-135500000D01*
X140500000Y-135500000D01*
X140500000Y-135363428D01*
X140472914Y-135192415D01*
X140419408Y-135027742D01*
X140340804Y-134873475D01*
X140239032Y-134733397D01*
X140116602Y-134610967D01*
X139976524Y-134509195D01*
X139822257Y-134430591D01*
X139657589Y-134377087D01*
X139657581Y-134377085D01*
X139650000Y-134375884D01*
X139650000Y-135234316D01*
X139645605Y-135229921D01*
X139554394Y-135177260D01*
X139452661Y-135150001D01*
X139347339Y-135150001D01*
X139245606Y-135177260D01*
X139154395Y-135229921D01*
X139150000Y-135234316D01*
X139150000Y-134375884D01*
X139149999Y-134375884D01*
X139142418Y-134377085D01*
X139142410Y-134377087D01*
X138977742Y-134430591D01*
X138823475Y-134509195D01*
X138683397Y-134610967D01*
X138560967Y-134733397D01*
X138459195Y-134873475D01*
X138380591Y-135027742D01*
X138327085Y-135192415D01*
X138300000Y-135363428D01*
X138300000Y-135500000D01*
X139000001Y-135500000D01*
X139000001Y-136000000D01*
X138300000Y-136000000D01*
X138300000Y-136136571D01*
X138327085Y-136307584D01*
X138380591Y-136472257D01*
X138459195Y-136626524D01*
X138560967Y-136766602D01*
X138683397Y-136889032D01*
X138801972Y-136975181D01*
X138844638Y-137030511D01*
X138850617Y-137100125D01*
X138818012Y-137161920D01*
X138757173Y-137196277D01*
X138729087Y-137199500D01*
X133124500Y-137199500D01*
X133057461Y-137179815D01*
X133011706Y-137127011D01*
X133000500Y-137075500D01*
X133000500Y-133421153D01*
X143199500Y-133421153D01*
X143199500Y-133578846D01*
X143230261Y-133733489D01*
X143230264Y-133733501D01*
X143290602Y-133879172D01*
X143290609Y-133879185D01*
X143378210Y-134010288D01*
X143378213Y-134010292D01*
X143489707Y-134121786D01*
X143489711Y-134121789D01*
X143620814Y-134209390D01*
X143620827Y-134209397D01*
X143766498Y-134269735D01*
X143766503Y-134269737D01*
X143921153Y-134300499D01*
X143921156Y-134300500D01*
X143921158Y-134300500D01*
X144078844Y-134300500D01*
X144078845Y-134300499D01*
X144233497Y-134269737D01*
X144379179Y-134209394D01*
X144510289Y-134121789D01*
X144621789Y-134010289D01*
X144709394Y-133879179D01*
X144769737Y-133733497D01*
X144800500Y-133578842D01*
X144800500Y-133421158D01*
X144800500Y-133421155D01*
X144800499Y-133421153D01*
X144769738Y-133266510D01*
X144769737Y-133266503D01*
X144709794Y-133121786D01*
X144709397Y-133120827D01*
X144709390Y-133120814D01*
X144621789Y-132989711D01*
X144621786Y-132989707D01*
X144510292Y-132878213D01*
X144510288Y-132878210D01*
X144379185Y-132790609D01*
X144379172Y-132790602D01*
X144233501Y-132730264D01*
X144233489Y-132730261D01*
X144078845Y-132699500D01*
X144078842Y-132699500D01*
X143921158Y-132699500D01*
X143921155Y-132699500D01*
X143766510Y-132730261D01*
X143766498Y-132730264D01*
X143620827Y-132790602D01*
X143620814Y-132790609D01*
X143489711Y-132878210D01*
X143489707Y-132878213D01*
X143378213Y-132989707D01*
X143378210Y-132989711D01*
X143290609Y-133120814D01*
X143290602Y-133120827D01*
X143230264Y-133266498D01*
X143230261Y-133266510D01*
X143199500Y-133421153D01*
X133000500Y-133421153D01*
X133000500Y-130459891D01*
X133699500Y-130459891D01*
X133699500Y-130617584D01*
X133730261Y-130772227D01*
X133730264Y-130772239D01*
X133790602Y-130917910D01*
X133790609Y-130917923D01*
X133878210Y-131049026D01*
X133878213Y-131049030D01*
X133989707Y-131160524D01*
X133989711Y-131160527D01*
X134120814Y-131248128D01*
X134120827Y-131248135D01*
X134266498Y-131308473D01*
X134266503Y-131308475D01*
X134417091Y-131338429D01*
X134421153Y-131339237D01*
X134421156Y-131339238D01*
X134421158Y-131339238D01*
X134578840Y-131339238D01*
X134578842Y-131339238D01*
X134578843Y-131339237D01*
X134581591Y-131338967D01*
X134583020Y-131339238D01*
X134584934Y-131339238D01*
X134584934Y-131339600D01*
X134585826Y-131339770D01*
X134589922Y-131338429D01*
X134619845Y-131346221D01*
X134650237Y-131351985D01*
X134653366Y-131354950D01*
X134657537Y-131356037D01*
X134678497Y-131378771D01*
X134700948Y-131400050D01*
X134701976Y-131404236D01*
X134704898Y-131407405D01*
X134710240Y-131437860D01*
X134717623Y-131467900D01*
X134716436Y-131473180D01*
X134716970Y-131476224D01*
X134712572Y-131490369D01*
X134708075Y-131510379D01*
X134704678Y-131518467D01*
X134703106Y-131520821D01*
X134660684Y-131623235D01*
X134660570Y-131623509D01*
X134638747Y-131650321D01*
X134616962Y-131677356D01*
X134616662Y-131677455D01*
X134616465Y-131677698D01*
X134583616Y-131688454D01*
X134550667Y-131699421D01*
X134550094Y-131699431D01*
X134550065Y-131699441D01*
X134550031Y-131699432D01*
X134546241Y-131699500D01*
X134421155Y-131699500D01*
X134266510Y-131730261D01*
X134266498Y-131730264D01*
X134120827Y-131790602D01*
X134120814Y-131790609D01*
X133989711Y-131878210D01*
X133989707Y-131878213D01*
X133878213Y-131989707D01*
X133878210Y-131989711D01*
X133790609Y-132120814D01*
X133790602Y-132120827D01*
X133730264Y-132266498D01*
X133730261Y-132266510D01*
X133699500Y-132421153D01*
X133699500Y-132578846D01*
X133730261Y-132733489D01*
X133730264Y-132733501D01*
X133790602Y-132879172D01*
X133790609Y-132879185D01*
X133878210Y-133010288D01*
X133878213Y-133010292D01*
X133989707Y-133121786D01*
X133989711Y-133121789D01*
X134120814Y-133209390D01*
X134120827Y-133209397D01*
X134258683Y-133266498D01*
X134266503Y-133269737D01*
X134421153Y-133300499D01*
X134421156Y-133300500D01*
X134421158Y-133300500D01*
X134578844Y-133300500D01*
X134578845Y-133300499D01*
X134589179Y-133298443D01*
X134614287Y-133293450D01*
X134614292Y-133293449D01*
X134699800Y-133276439D01*
X134733497Y-133269737D01*
X134879179Y-133209394D01*
X135010289Y-133121789D01*
X135121789Y-133010289D01*
X135209394Y-132879179D01*
X135251698Y-132777048D01*
X135295538Y-132722644D01*
X135361833Y-132700579D01*
X135366259Y-132700500D01*
X135491344Y-132700500D01*
X135491345Y-132700499D01*
X135645997Y-132669737D01*
X135791679Y-132609394D01*
X135922789Y-132521789D01*
X136034289Y-132410289D01*
X136121894Y-132279179D01*
X136182237Y-132133497D01*
X136213000Y-131978842D01*
X136213000Y-131821158D01*
X136207365Y-131792828D01*
X136207365Y-131792825D01*
X136182238Y-131666508D01*
X136182237Y-131666507D01*
X136182237Y-131666503D01*
X136166905Y-131629488D01*
X136121897Y-131520827D01*
X136121890Y-131520814D01*
X136034289Y-131389711D01*
X136034286Y-131389707D01*
X135922792Y-131278213D01*
X135922788Y-131278210D01*
X135791681Y-131190606D01*
X135791677Y-131190604D01*
X135646001Y-131130264D01*
X135645989Y-131130261D01*
X135491345Y-131099500D01*
X135491342Y-131099500D01*
X135333658Y-131099500D01*
X135333648Y-131099500D01*
X135330893Y-131099771D01*
X135329465Y-131099500D01*
X135327566Y-131099500D01*
X135327566Y-131099139D01*
X135262249Y-131086745D01*
X135258750Y-131083428D01*
X138300000Y-131083428D01*
X138300000Y-131320000D01*
X139000001Y-131320000D01*
X139000001Y-131820000D01*
X138300000Y-131820000D01*
X138300000Y-132056571D01*
X138327085Y-132227584D01*
X138380591Y-132392257D01*
X138459195Y-132546524D01*
X138560967Y-132686602D01*
X138683397Y-132809032D01*
X138823475Y-132910804D01*
X138977744Y-132989408D01*
X139142415Y-133042914D01*
X139142414Y-133042914D01*
X139149999Y-133044115D01*
X139150000Y-133044114D01*
X139150000Y-132235684D01*
X139154395Y-132240079D01*
X139245606Y-132292740D01*
X139347339Y-132319999D01*
X139452661Y-132319999D01*
X139554394Y-132292740D01*
X139645605Y-132240079D01*
X139650000Y-132235684D01*
X139650000Y-133044115D01*
X139657584Y-133042914D01*
X139822255Y-132989408D01*
X139976524Y-132910804D01*
X140116602Y-132809032D01*
X140239032Y-132686602D01*
X140330899Y-132560157D01*
X140386229Y-132517491D01*
X140455842Y-132511512D01*
X140493218Y-132525655D01*
X140592511Y-132582982D01*
X140592512Y-132582982D01*
X140592515Y-132582984D01*
X140732525Y-132620500D01*
X140732528Y-132620500D01*
X140927472Y-132620500D01*
X140927475Y-132620500D01*
X141067485Y-132582984D01*
X141193015Y-132510509D01*
X141295509Y-132408015D01*
X141367984Y-132282485D01*
X141405500Y-132142475D01*
X141405500Y-131997525D01*
X146054500Y-131997525D01*
X146054500Y-132142475D01*
X146091128Y-132279172D01*
X146092017Y-132282488D01*
X146164488Y-132408011D01*
X146164490Y-132408013D01*
X146164491Y-132408015D01*
X146266985Y-132510509D01*
X146266986Y-132510510D01*
X146266988Y-132510511D01*
X146392511Y-132582982D01*
X146392512Y-132582982D01*
X146392515Y-132582984D01*
X146532525Y-132620500D01*
X146532528Y-132620500D01*
X146727472Y-132620500D01*
X146727475Y-132620500D01*
X146867485Y-132582984D01*
X146966782Y-132525654D01*
X147034680Y-132509182D01*
X147100707Y-132532034D01*
X147129099Y-132560157D01*
X147220961Y-132686595D01*
X147220965Y-132686600D01*
X147343397Y-132809032D01*
X147483475Y-132910804D01*
X147637744Y-132989408D01*
X147802415Y-133042914D01*
X147802414Y-133042914D01*
X147809999Y-133044115D01*
X147810000Y-133044114D01*
X147810000Y-132235684D01*
X147814395Y-132240079D01*
X147905606Y-132292740D01*
X148007339Y-132319999D01*
X148112661Y-132319999D01*
X148214394Y-132292740D01*
X148305605Y-132240079D01*
X148310000Y-132235684D01*
X148310000Y-133044115D01*
X148317584Y-133042914D01*
X148482255Y-132989408D01*
X148636524Y-132910804D01*
X148776602Y-132809032D01*
X148899032Y-132686602D01*
X149000804Y-132546524D01*
X149079408Y-132392257D01*
X149132914Y-132227584D01*
X149160000Y-132056571D01*
X149160000Y-131820000D01*
X148459999Y-131820000D01*
X148459999Y-131320000D01*
X149160000Y-131320000D01*
X149160000Y-131083428D01*
X149132914Y-130912415D01*
X149079408Y-130747742D01*
X149000804Y-130593475D01*
X148899032Y-130453397D01*
X148776602Y-130330967D01*
X148636524Y-130229195D01*
X148482257Y-130150591D01*
X148317589Y-130097087D01*
X148317581Y-130097085D01*
X148310000Y-130095884D01*
X148310000Y-130904316D01*
X148305605Y-130899921D01*
X148214394Y-130847260D01*
X148112661Y-130820001D01*
X148007339Y-130820001D01*
X147905606Y-130847260D01*
X147814395Y-130899921D01*
X147810000Y-130904316D01*
X147810000Y-130095884D01*
X147809999Y-130095884D01*
X147802418Y-130097085D01*
X147802410Y-130097087D01*
X147637742Y-130150591D01*
X147483475Y-130229195D01*
X147343397Y-130330967D01*
X147220967Y-130453397D01*
X147119195Y-130593475D01*
X147040591Y-130747742D01*
X146987085Y-130912415D01*
X146960000Y-131083428D01*
X146960000Y-131420205D01*
X146940315Y-131487244D01*
X146887511Y-131532999D01*
X146818353Y-131542943D01*
X146803907Y-131539980D01*
X146777853Y-131532999D01*
X146727475Y-131519500D01*
X146532525Y-131519500D01*
X146403993Y-131553940D01*
X146392511Y-131557017D01*
X146266988Y-131629488D01*
X146266982Y-131629493D01*
X146164493Y-131731982D01*
X146164488Y-131731988D01*
X146092017Y-131857511D01*
X146092016Y-131857515D01*
X146054500Y-131997525D01*
X141405500Y-131997525D01*
X141367984Y-131857515D01*
X141346993Y-131821158D01*
X141295511Y-131731988D01*
X141295506Y-131731982D01*
X141193017Y-131629493D01*
X141193011Y-131629488D01*
X141067488Y-131557017D01*
X141067489Y-131557017D01*
X141056006Y-131553940D01*
X140927475Y-131519500D01*
X140732525Y-131519500D01*
X140656093Y-131539980D01*
X140586243Y-131538317D01*
X140528381Y-131499154D01*
X140500877Y-131434926D01*
X140500000Y-131420205D01*
X140500000Y-131083428D01*
X140472914Y-130912415D01*
X140419408Y-130747742D01*
X140340804Y-130593475D01*
X140239032Y-130453397D01*
X140116602Y-130330967D01*
X139976524Y-130229195D01*
X139822257Y-130150591D01*
X139657589Y-130097087D01*
X139657581Y-130097085D01*
X139650000Y-130095884D01*
X139650000Y-130904316D01*
X139645605Y-130899921D01*
X139554394Y-130847260D01*
X139452661Y-130820001D01*
X139347339Y-130820001D01*
X139245606Y-130847260D01*
X139154395Y-130899921D01*
X139150000Y-130904316D01*
X139150000Y-130095884D01*
X139149999Y-130095884D01*
X139142418Y-130097085D01*
X139142410Y-130097087D01*
X138977742Y-130150591D01*
X138823475Y-130229195D01*
X138683397Y-130330967D01*
X138560967Y-130453397D01*
X138459195Y-130593475D01*
X138380591Y-130747742D01*
X138327085Y-130912415D01*
X138300000Y-131083428D01*
X135258750Y-131083428D01*
X135211544Y-131038674D01*
X135194877Y-130970821D01*
X135207773Y-130923840D01*
X135207063Y-130923546D01*
X135269735Y-130772239D01*
X135269737Y-130772235D01*
X135300500Y-130617580D01*
X135300500Y-130459896D01*
X135300500Y-130459893D01*
X135300499Y-130459891D01*
X135269738Y-130305248D01*
X135269737Y-130305241D01*
X135238238Y-130229195D01*
X135209397Y-130159565D01*
X135209390Y-130159552D01*
X135121789Y-130028449D01*
X135121786Y-130028445D01*
X135010292Y-129916951D01*
X135010288Y-129916948D01*
X134879185Y-129829347D01*
X134879172Y-129829340D01*
X134733501Y-129769002D01*
X134733489Y-129768999D01*
X134578845Y-129738238D01*
X134578842Y-129738238D01*
X134421158Y-129738238D01*
X134421155Y-129738238D01*
X134266510Y-129768999D01*
X134266498Y-129769002D01*
X134120827Y-129829340D01*
X134120814Y-129829347D01*
X133989711Y-129916948D01*
X133989707Y-129916951D01*
X133878213Y-130028445D01*
X133878210Y-130028449D01*
X133790609Y-130159552D01*
X133790602Y-130159565D01*
X133730264Y-130305236D01*
X133730261Y-130305248D01*
X133699500Y-130459891D01*
X133000500Y-130459891D01*
X133000500Y-128921153D01*
X142699500Y-128921153D01*
X142699500Y-129078846D01*
X142730261Y-129233489D01*
X142730264Y-129233501D01*
X142790602Y-129379172D01*
X142790609Y-129379185D01*
X142878210Y-129510288D01*
X142878213Y-129510292D01*
X142989707Y-129621786D01*
X142989711Y-129621789D01*
X143120814Y-129709390D01*
X143120827Y-129709397D01*
X143266498Y-129769735D01*
X143266503Y-129769737D01*
X143421153Y-129800499D01*
X143421156Y-129800500D01*
X143421158Y-129800500D01*
X143578844Y-129800500D01*
X143578845Y-129800499D01*
X143733497Y-129769737D01*
X143879179Y-129709394D01*
X144010289Y-129621789D01*
X144121789Y-129510289D01*
X144209394Y-129379179D01*
X144269737Y-129233497D01*
X144300500Y-129078842D01*
X144300500Y-128921158D01*
X144300500Y-128921155D01*
X144300499Y-128921153D01*
X144269738Y-128766510D01*
X144269737Y-128766503D01*
X144269735Y-128766498D01*
X144209397Y-128620827D01*
X144209390Y-128620814D01*
X144121789Y-128489711D01*
X144121786Y-128489707D01*
X144010292Y-128378213D01*
X144010288Y-128378210D01*
X143879185Y-128290609D01*
X143879172Y-128290602D01*
X143733501Y-128230264D01*
X143733489Y-128230261D01*
X143578845Y-128199500D01*
X143578842Y-128199500D01*
X143421158Y-128199500D01*
X143421155Y-128199500D01*
X143266510Y-128230261D01*
X143266498Y-128230264D01*
X143120827Y-128290602D01*
X143120814Y-128290609D01*
X142989711Y-128378210D01*
X142989707Y-128378213D01*
X142878213Y-128489707D01*
X142878210Y-128489711D01*
X142790609Y-128620814D01*
X142790602Y-128620827D01*
X142730264Y-128766498D01*
X142730261Y-128766510D01*
X142699500Y-128921153D01*
X133000500Y-128921153D01*
X133000500Y-127421153D01*
X134699500Y-127421153D01*
X134699500Y-127578846D01*
X134730261Y-127733489D01*
X134730264Y-127733501D01*
X134790602Y-127879172D01*
X134790609Y-127879185D01*
X134878210Y-128010288D01*
X134878213Y-128010292D01*
X134989707Y-128121786D01*
X134989711Y-128121789D01*
X135120814Y-128209390D01*
X135120827Y-128209397D01*
X135266498Y-128269735D01*
X135266503Y-128269737D01*
X135421153Y-128300499D01*
X135421156Y-128300500D01*
X135421158Y-128300500D01*
X135578844Y-128300500D01*
X135578845Y-128300499D01*
X135733497Y-128269737D01*
X135879179Y-128209394D01*
X136010289Y-128121789D01*
X136121789Y-128010289D01*
X136209394Y-127879179D01*
X136269737Y-127733497D01*
X136300500Y-127578842D01*
X136300500Y-127421158D01*
X136300500Y-127421155D01*
X136300499Y-127421153D01*
X136269738Y-127266510D01*
X136269737Y-127266503D01*
X136209794Y-127121786D01*
X136209397Y-127120827D01*
X136209390Y-127120814D01*
X136121789Y-126989711D01*
X136121786Y-126989707D01*
X136010292Y-126878213D01*
X136010288Y-126878210D01*
X135879185Y-126790609D01*
X135879172Y-126790602D01*
X135733501Y-126730264D01*
X135733489Y-126730261D01*
X135578845Y-126699500D01*
X135578842Y-126699500D01*
X135421158Y-126699500D01*
X135421155Y-126699500D01*
X135266510Y-126730261D01*
X135266498Y-126730264D01*
X135120827Y-126790602D01*
X135120814Y-126790609D01*
X134989711Y-126878210D01*
X134989707Y-126878213D01*
X134878213Y-126989707D01*
X134878210Y-126989711D01*
X134790609Y-127120814D01*
X134790602Y-127120827D01*
X134730264Y-127266498D01*
X134730261Y-127266510D01*
X134699500Y-127421153D01*
X133000500Y-127421153D01*
X133000500Y-126421153D01*
X138199500Y-126421153D01*
X138199500Y-126578846D01*
X138230261Y-126733489D01*
X138230264Y-126733501D01*
X138290602Y-126879172D01*
X138290609Y-126879185D01*
X138378210Y-127010288D01*
X138378213Y-127010292D01*
X138489707Y-127121786D01*
X138489711Y-127121789D01*
X138620814Y-127209390D01*
X138620827Y-127209397D01*
X138758683Y-127266498D01*
X138766503Y-127269737D01*
X138921153Y-127300499D01*
X138921156Y-127300500D01*
X138921158Y-127300500D01*
X139078844Y-127300500D01*
X139078845Y-127300499D01*
X139233497Y-127269737D01*
X139379179Y-127209394D01*
X139510289Y-127121789D01*
X139621789Y-127010289D01*
X139709394Y-126879179D01*
X139769737Y-126733497D01*
X139800500Y-126578842D01*
X139800500Y-126421158D01*
X139800500Y-126421155D01*
X139800499Y-126421153D01*
X139773117Y-126283497D01*
X139769737Y-126266503D01*
X139769735Y-126266498D01*
X139709397Y-126120827D01*
X139709390Y-126120814D01*
X139651354Y-126033957D01*
X139621789Y-125989711D01*
X139621786Y-125989707D01*
X139603232Y-125971153D01*
X146359500Y-125971153D01*
X146359500Y-126128846D01*
X146390261Y-126283489D01*
X146390264Y-126283501D01*
X146450602Y-126429172D01*
X146450609Y-126429185D01*
X146538210Y-126560288D01*
X146538213Y-126560292D01*
X146649707Y-126671786D01*
X146649711Y-126671789D01*
X146780814Y-126759390D01*
X146780827Y-126759397D01*
X146856181Y-126790609D01*
X146926503Y-126819737D01*
X147081153Y-126850499D01*
X147081156Y-126850500D01*
X147081158Y-126850500D01*
X147238844Y-126850500D01*
X147238845Y-126850499D01*
X147393497Y-126819737D01*
X147539179Y-126759394D01*
X147670289Y-126671789D01*
X147672312Y-126669766D01*
X147673634Y-126669043D01*
X147674999Y-126667924D01*
X147675211Y-126668182D01*
X147733632Y-126636276D01*
X147803324Y-126641255D01*
X147844939Y-126667999D01*
X147845001Y-126667924D01*
X147845648Y-126668454D01*
X147847688Y-126669766D01*
X147849711Y-126671789D01*
X147980814Y-126759390D01*
X147980827Y-126759397D01*
X148056181Y-126790609D01*
X148126503Y-126819737D01*
X148281153Y-126850499D01*
X148281156Y-126850500D01*
X148281158Y-126850500D01*
X148438844Y-126850500D01*
X148438845Y-126850499D01*
X148593497Y-126819737D01*
X148739179Y-126759394D01*
X148870289Y-126671789D01*
X148981789Y-126560289D01*
X149069394Y-126429179D01*
X149072719Y-126421153D01*
X149129735Y-126283501D01*
X149129737Y-126283497D01*
X149160500Y-126128842D01*
X149160500Y-125971158D01*
X149160500Y-125971155D01*
X149160499Y-125971153D01*
X149142012Y-125878213D01*
X149129737Y-125816503D01*
X149129735Y-125816498D01*
X149069397Y-125670827D01*
X149069390Y-125670814D01*
X148981789Y-125539711D01*
X148981786Y-125539707D01*
X148870292Y-125428213D01*
X148870288Y-125428210D01*
X148739185Y-125340609D01*
X148739172Y-125340602D01*
X148593501Y-125280264D01*
X148593489Y-125280261D01*
X148438845Y-125249500D01*
X148438842Y-125249500D01*
X148281158Y-125249500D01*
X148281155Y-125249500D01*
X148126510Y-125280261D01*
X148126498Y-125280264D01*
X147980827Y-125340602D01*
X147980814Y-125340609D01*
X147849711Y-125428210D01*
X147849707Y-125428213D01*
X147847681Y-125430240D01*
X147846357Y-125430962D01*
X147845001Y-125432076D01*
X147844789Y-125431818D01*
X147786358Y-125463725D01*
X147716666Y-125458741D01*
X147675060Y-125432001D01*
X147674999Y-125432076D01*
X147674360Y-125431552D01*
X147672319Y-125430240D01*
X147670292Y-125428213D01*
X147670288Y-125428210D01*
X147539185Y-125340609D01*
X147539172Y-125340602D01*
X147393501Y-125280264D01*
X147393489Y-125280261D01*
X147238845Y-125249500D01*
X147238842Y-125249500D01*
X147081158Y-125249500D01*
X147081155Y-125249500D01*
X146926510Y-125280261D01*
X146926498Y-125280264D01*
X146780827Y-125340602D01*
X146780814Y-125340609D01*
X146649711Y-125428210D01*
X146649707Y-125428213D01*
X146538213Y-125539707D01*
X146538210Y-125539711D01*
X146450609Y-125670814D01*
X146450602Y-125670827D01*
X146390264Y-125816498D01*
X146390261Y-125816510D01*
X146359500Y-125971153D01*
X139603232Y-125971153D01*
X139510292Y-125878213D01*
X139510288Y-125878210D01*
X139379185Y-125790609D01*
X139379172Y-125790602D01*
X139233501Y-125730264D01*
X139233489Y-125730261D01*
X139078845Y-125699500D01*
X139078842Y-125699500D01*
X138921158Y-125699500D01*
X138921155Y-125699500D01*
X138766510Y-125730261D01*
X138766498Y-125730264D01*
X138620827Y-125790602D01*
X138620814Y-125790609D01*
X138489711Y-125878210D01*
X138489707Y-125878213D01*
X138378213Y-125989707D01*
X138378210Y-125989711D01*
X138290609Y-126120814D01*
X138290602Y-126120827D01*
X138230264Y-126266498D01*
X138230261Y-126266510D01*
X138199500Y-126421153D01*
X133000500Y-126421153D01*
X133000500Y-124071153D01*
X146359500Y-124071153D01*
X146359500Y-124228846D01*
X146390261Y-124383489D01*
X146390264Y-124383501D01*
X146450602Y-124529172D01*
X146450609Y-124529185D01*
X146538210Y-124660288D01*
X146538213Y-124660292D01*
X146649707Y-124771786D01*
X146649711Y-124771789D01*
X146780814Y-124859390D01*
X146780827Y-124859397D01*
X146926498Y-124919735D01*
X146926503Y-124919737D01*
X147081153Y-124950499D01*
X147081156Y-124950500D01*
X147081158Y-124950500D01*
X147238844Y-124950500D01*
X147238845Y-124950499D01*
X147393497Y-124919737D01*
X147539179Y-124859394D01*
X147670289Y-124771789D01*
X147672312Y-124769766D01*
X147673634Y-124769043D01*
X147674999Y-124767924D01*
X147675211Y-124768182D01*
X147733632Y-124736276D01*
X147803324Y-124741255D01*
X147844939Y-124767999D01*
X147845001Y-124767924D01*
X147845648Y-124768454D01*
X147847688Y-124769766D01*
X147849711Y-124771789D01*
X147980814Y-124859390D01*
X147980827Y-124859397D01*
X148126498Y-124919735D01*
X148126503Y-124919737D01*
X148281153Y-124950499D01*
X148281156Y-124950500D01*
X148281158Y-124950500D01*
X148438844Y-124950500D01*
X148438845Y-124950499D01*
X148593497Y-124919737D01*
X148739179Y-124859394D01*
X148870289Y-124771789D01*
X148981789Y-124660289D01*
X149069394Y-124529179D01*
X149129737Y-124383497D01*
X149160500Y-124228842D01*
X149160500Y-124071158D01*
X149160500Y-124071155D01*
X149160499Y-124071153D01*
X149129738Y-123916510D01*
X149129737Y-123916503D01*
X149129735Y-123916498D01*
X149069397Y-123770827D01*
X149069390Y-123770814D01*
X148981789Y-123639711D01*
X148981786Y-123639707D01*
X148870292Y-123528213D01*
X148870288Y-123528210D01*
X148739185Y-123440609D01*
X148739172Y-123440602D01*
X148593501Y-123380264D01*
X148593489Y-123380261D01*
X148438845Y-123349500D01*
X148438842Y-123349500D01*
X148281158Y-123349500D01*
X148281155Y-123349500D01*
X148126510Y-123380261D01*
X148126498Y-123380264D01*
X147980827Y-123440602D01*
X147980814Y-123440609D01*
X147849711Y-123528210D01*
X147849707Y-123528213D01*
X147847681Y-123530240D01*
X147846357Y-123530962D01*
X147845001Y-123532076D01*
X147844789Y-123531818D01*
X147786358Y-123563725D01*
X147716666Y-123558741D01*
X147675060Y-123532001D01*
X147674999Y-123532076D01*
X147674360Y-123531552D01*
X147672319Y-123530240D01*
X147670292Y-123528213D01*
X147670288Y-123528210D01*
X147539185Y-123440609D01*
X147539172Y-123440602D01*
X147393501Y-123380264D01*
X147393489Y-123380261D01*
X147238845Y-123349500D01*
X147238842Y-123349500D01*
X147081158Y-123349500D01*
X147081155Y-123349500D01*
X146926510Y-123380261D01*
X146926498Y-123380264D01*
X146780827Y-123440602D01*
X146780814Y-123440609D01*
X146649711Y-123528210D01*
X146649707Y-123528213D01*
X146538213Y-123639707D01*
X146538210Y-123639711D01*
X146450609Y-123770814D01*
X146450602Y-123770827D01*
X146390264Y-123916498D01*
X146390261Y-123916510D01*
X146359500Y-124071153D01*
X133000500Y-124071153D01*
X133000500Y-122421153D01*
X148699500Y-122421153D01*
X148699500Y-122578846D01*
X148730261Y-122733489D01*
X148730264Y-122733501D01*
X148790602Y-122879172D01*
X148790609Y-122879185D01*
X148878210Y-123010288D01*
X148878213Y-123010292D01*
X148989707Y-123121786D01*
X148989711Y-123121789D01*
X149120814Y-123209390D01*
X149120827Y-123209397D01*
X149266498Y-123269735D01*
X149266503Y-123269737D01*
X149421153Y-123300499D01*
X149421156Y-123300500D01*
X149421158Y-123300500D01*
X149578844Y-123300500D01*
X149578845Y-123300499D01*
X149733497Y-123269737D01*
X149879179Y-123209394D01*
X150010289Y-123121789D01*
X150121789Y-123010289D01*
X150209394Y-122879179D01*
X150269737Y-122733497D01*
X150300500Y-122578842D01*
X150300500Y-122421158D01*
X150300500Y-122421155D01*
X150300499Y-122421153D01*
X150269738Y-122266510D01*
X150269737Y-122266503D01*
X150269735Y-122266498D01*
X150209397Y-122120827D01*
X150209390Y-122120814D01*
X150121789Y-121989711D01*
X150121786Y-121989707D01*
X150010292Y-121878213D01*
X150010288Y-121878210D01*
X149879185Y-121790609D01*
X149879172Y-121790602D01*
X149733501Y-121730264D01*
X149733489Y-121730261D01*
X149578845Y-121699500D01*
X149578842Y-121699500D01*
X149421158Y-121699500D01*
X149421155Y-121699500D01*
X149266510Y-121730261D01*
X149266498Y-121730264D01*
X149120827Y-121790602D01*
X149120814Y-121790609D01*
X148989711Y-121878210D01*
X148989707Y-121878213D01*
X148878213Y-121989707D01*
X148878210Y-121989711D01*
X148790609Y-122120814D01*
X148790602Y-122120827D01*
X148730264Y-122266498D01*
X148730261Y-122266510D01*
X148699500Y-122421153D01*
X133000500Y-122421153D01*
X133000500Y-120911304D01*
X136799500Y-120911304D01*
X136799500Y-121088695D01*
X136834103Y-121262658D01*
X136834106Y-121262667D01*
X136901983Y-121426540D01*
X136901990Y-121426553D01*
X137000535Y-121574034D01*
X137000538Y-121574038D01*
X137125961Y-121699461D01*
X137125965Y-121699464D01*
X137273446Y-121798009D01*
X137273459Y-121798016D01*
X137396363Y-121848923D01*
X137437334Y-121865894D01*
X137437336Y-121865894D01*
X137437341Y-121865896D01*
X137611304Y-121900499D01*
X137611307Y-121900500D01*
X137611309Y-121900500D01*
X137788693Y-121900500D01*
X137788694Y-121900499D01*
X137846682Y-121888964D01*
X137962658Y-121865896D01*
X137962661Y-121865894D01*
X137962666Y-121865894D01*
X138126547Y-121798013D01*
X138274035Y-121699464D01*
X138399464Y-121574035D01*
X138498013Y-121426547D01*
X138565894Y-121262666D01*
X138600500Y-121088691D01*
X138600500Y-120911309D01*
X138600500Y-120911306D01*
X138600499Y-120911304D01*
X138565896Y-120737341D01*
X138565893Y-120737332D01*
X138498016Y-120573459D01*
X138498009Y-120573446D01*
X138399464Y-120425965D01*
X138399461Y-120425961D01*
X138274038Y-120300538D01*
X138274034Y-120300535D01*
X138126553Y-120201990D01*
X138126540Y-120201983D01*
X137962667Y-120134106D01*
X137962658Y-120134103D01*
X137788694Y-120099500D01*
X137788691Y-120099500D01*
X137611309Y-120099500D01*
X137611306Y-120099500D01*
X137437341Y-120134103D01*
X137437332Y-120134106D01*
X137273459Y-120201983D01*
X137273446Y-120201990D01*
X137125965Y-120300535D01*
X137125961Y-120300538D01*
X137000538Y-120425961D01*
X137000535Y-120425965D01*
X136901990Y-120573446D01*
X136901983Y-120573459D01*
X136834106Y-120737332D01*
X136834103Y-120737341D01*
X136799500Y-120911304D01*
X133000500Y-120911304D01*
X133000500Y-114821153D01*
X140799500Y-114821153D01*
X140799500Y-114978846D01*
X140830261Y-115133489D01*
X140830264Y-115133501D01*
X140890602Y-115279172D01*
X140890609Y-115279185D01*
X140978210Y-115410288D01*
X140978213Y-115410292D01*
X141089707Y-115521786D01*
X141089711Y-115521789D01*
X141220814Y-115609390D01*
X141220827Y-115609397D01*
X141366498Y-115669735D01*
X141366503Y-115669737D01*
X141521153Y-115700499D01*
X141521156Y-115700500D01*
X141521158Y-115700500D01*
X141678844Y-115700500D01*
X141678845Y-115700499D01*
X141833497Y-115669737D01*
X141979179Y-115609394D01*
X142110289Y-115521789D01*
X142221789Y-115410289D01*
X142309394Y-115279179D01*
X142369737Y-115133497D01*
X142400500Y-114978842D01*
X142400500Y-114821158D01*
X142400500Y-114821155D01*
X142400499Y-114821153D01*
X142369738Y-114666510D01*
X142369737Y-114666503D01*
X142369735Y-114666498D01*
X142309397Y-114520827D01*
X142309390Y-114520814D01*
X142221789Y-114389711D01*
X142221786Y-114389707D01*
X142110292Y-114278213D01*
X142110288Y-114278210D01*
X141979185Y-114190609D01*
X141979172Y-114190602D01*
X141833501Y-114130264D01*
X141833489Y-114130261D01*
X141678845Y-114099500D01*
X141678842Y-114099500D01*
X141521158Y-114099500D01*
X141521155Y-114099500D01*
X141366510Y-114130261D01*
X141366498Y-114130264D01*
X141220827Y-114190602D01*
X141220814Y-114190609D01*
X141089711Y-114278210D01*
X141089707Y-114278213D01*
X140978213Y-114389707D01*
X140978210Y-114389711D01*
X140890609Y-114520814D01*
X140890602Y-114520827D01*
X140830264Y-114666498D01*
X140830261Y-114666510D01*
X140799500Y-114821153D01*
X133000500Y-114821153D01*
X133000500Y-112321153D01*
X151199500Y-112321153D01*
X151199500Y-112478846D01*
X151230261Y-112633489D01*
X151230264Y-112633501D01*
X151290602Y-112779172D01*
X151290609Y-112779185D01*
X151378210Y-112910288D01*
X151378213Y-112910292D01*
X151489707Y-113021786D01*
X151489711Y-113021789D01*
X151620814Y-113109390D01*
X151620827Y-113109397D01*
X151766498Y-113169735D01*
X151766503Y-113169737D01*
X151921153Y-113200499D01*
X151921156Y-113200500D01*
X151921158Y-113200500D01*
X152078844Y-113200500D01*
X152078845Y-113200499D01*
X152233497Y-113169737D01*
X152379179Y-113109394D01*
X152510289Y-113021789D01*
X152621789Y-112910289D01*
X152709394Y-112779179D01*
X152769737Y-112633497D01*
X152800500Y-112478842D01*
X152800500Y-112321158D01*
X152800500Y-112321155D01*
X152800499Y-112321153D01*
X152769738Y-112166510D01*
X152769737Y-112166503D01*
X152769735Y-112166498D01*
X152709397Y-112020827D01*
X152709390Y-112020814D01*
X152621789Y-111889711D01*
X152621786Y-111889707D01*
X152510292Y-111778213D01*
X152510288Y-111778210D01*
X152379185Y-111690609D01*
X152379172Y-111690602D01*
X152233501Y-111630264D01*
X152233489Y-111630261D01*
X152078845Y-111599500D01*
X152078842Y-111599500D01*
X151921158Y-111599500D01*
X151921155Y-111599500D01*
X151766510Y-111630261D01*
X151766498Y-111630264D01*
X151620827Y-111690602D01*
X151620814Y-111690609D01*
X151489711Y-111778210D01*
X151489707Y-111778213D01*
X151378213Y-111889707D01*
X151378210Y-111889711D01*
X151290609Y-112020814D01*
X151290602Y-112020827D01*
X151230264Y-112166498D01*
X151230261Y-112166510D01*
X151199500Y-112321153D01*
X133000500Y-112321153D01*
X133000500Y-70602135D01*
X135869500Y-70602135D01*
X135869500Y-72397870D01*
X135869501Y-72397876D01*
X135875908Y-72457483D01*
X135926202Y-72592328D01*
X135926206Y-72592335D01*
X136012452Y-72707544D01*
X136012455Y-72707547D01*
X136127664Y-72793793D01*
X136127671Y-72793797D01*
X136259082Y-72842810D01*
X136315016Y-72884681D01*
X136339433Y-72950145D01*
X136324582Y-73018418D01*
X136303431Y-73046673D01*
X136189889Y-73160215D01*
X136064951Y-73332179D01*
X135968444Y-73521585D01*
X135902753Y-73723760D01*
X135869500Y-73933713D01*
X135869500Y-74146286D01*
X135902753Y-74356239D01*
X135968444Y-74558414D01*
X136064951Y-74747820D01*
X136189890Y-74919786D01*
X136340213Y-75070109D01*
X136512182Y-75195050D01*
X136520946Y-75199516D01*
X136571742Y-75247491D01*
X136588536Y-75315312D01*
X136565998Y-75381447D01*
X136520946Y-75420484D01*
X136512182Y-75424949D01*
X136340213Y-75549890D01*
X136189890Y-75700213D01*
X136064951Y-75872179D01*
X135968444Y-76061585D01*
X135902753Y-76263760D01*
X135869500Y-76473713D01*
X135869500Y-76686286D01*
X135902753Y-76896239D01*
X135968444Y-77098414D01*
X136064951Y-77287820D01*
X136189890Y-77459786D01*
X136340213Y-77610109D01*
X136512182Y-77735050D01*
X136520946Y-77739516D01*
X136571742Y-77787491D01*
X136588536Y-77855312D01*
X136565998Y-77921447D01*
X136520946Y-77960484D01*
X136512182Y-77964949D01*
X136340213Y-78089890D01*
X136189890Y-78240213D01*
X136064951Y-78412179D01*
X135968444Y-78601585D01*
X135902753Y-78803760D01*
X135869500Y-79013713D01*
X135869500Y-79226286D01*
X135902753Y-79436239D01*
X135968444Y-79638414D01*
X136064951Y-79827820D01*
X136189890Y-79999786D01*
X136340213Y-80150109D01*
X136512182Y-80275050D01*
X136520946Y-80279516D01*
X136571742Y-80327491D01*
X136588536Y-80395312D01*
X136565998Y-80461447D01*
X136520946Y-80500484D01*
X136512182Y-80504949D01*
X136340213Y-80629890D01*
X136189890Y-80780213D01*
X136064951Y-80952179D01*
X135968444Y-81141585D01*
X135902753Y-81343760D01*
X135869500Y-81553713D01*
X135869500Y-81766286D01*
X135902753Y-81976239D01*
X135968444Y-82178414D01*
X136064951Y-82367820D01*
X136189890Y-82539786D01*
X136340213Y-82690109D01*
X136512182Y-82815050D01*
X136520946Y-82819516D01*
X136571742Y-82867491D01*
X136588536Y-82935312D01*
X136565998Y-83001447D01*
X136520946Y-83040484D01*
X136512182Y-83044949D01*
X136340213Y-83169890D01*
X136189890Y-83320213D01*
X136064951Y-83492179D01*
X135968444Y-83681585D01*
X135902753Y-83883760D01*
X135869500Y-84093713D01*
X135869500Y-84306286D01*
X135901810Y-84510288D01*
X135902754Y-84516243D01*
X135965512Y-84709392D01*
X135968444Y-84718414D01*
X136064951Y-84907820D01*
X136189890Y-85079786D01*
X136340213Y-85230109D01*
X136512182Y-85355050D01*
X136520946Y-85359516D01*
X136571742Y-85407491D01*
X136588536Y-85475312D01*
X136565998Y-85541447D01*
X136520946Y-85580484D01*
X136512182Y-85584949D01*
X136340213Y-85709890D01*
X136189890Y-85860213D01*
X136064951Y-86032179D01*
X135968444Y-86221585D01*
X135968443Y-86221587D01*
X135968443Y-86221588D01*
X135958405Y-86252483D01*
X135902753Y-86423760D01*
X135869500Y-86633713D01*
X135869500Y-86846286D01*
X135895475Y-87010289D01*
X135902754Y-87056243D01*
X135965803Y-87250288D01*
X135968444Y-87258414D01*
X136064951Y-87447820D01*
X136189890Y-87619786D01*
X136340213Y-87770109D01*
X136512182Y-87895050D01*
X136520946Y-87899516D01*
X136571742Y-87947491D01*
X136588536Y-88015312D01*
X136565998Y-88081447D01*
X136520946Y-88120484D01*
X136512182Y-88124949D01*
X136340213Y-88249890D01*
X136189890Y-88400213D01*
X136064951Y-88572179D01*
X135968444Y-88761585D01*
X135902753Y-88963760D01*
X135869500Y-89173713D01*
X135869500Y-89386286D01*
X135902753Y-89596239D01*
X135968444Y-89798414D01*
X136064951Y-89987820D01*
X136189890Y-90159786D01*
X136340213Y-90310109D01*
X136512182Y-90435050D01*
X136520946Y-90439516D01*
X136571742Y-90487491D01*
X136588536Y-90555312D01*
X136565998Y-90621447D01*
X136520946Y-90660484D01*
X136512182Y-90664949D01*
X136340213Y-90789890D01*
X136189890Y-90940213D01*
X136064951Y-91112179D01*
X135968444Y-91301585D01*
X135902753Y-91503760D01*
X135869500Y-91713713D01*
X135869500Y-91926286D01*
X135902753Y-92136239D01*
X135968444Y-92338414D01*
X136064951Y-92527820D01*
X136189890Y-92699786D01*
X136340213Y-92850109D01*
X136512182Y-92975050D01*
X136520946Y-92979516D01*
X136571742Y-93027491D01*
X136588536Y-93095312D01*
X136565998Y-93161447D01*
X136520946Y-93200484D01*
X136512182Y-93204949D01*
X136340213Y-93329890D01*
X136189890Y-93480213D01*
X136064951Y-93652179D01*
X135968444Y-93841585D01*
X135902753Y-94043760D01*
X135869500Y-94253713D01*
X135869500Y-94466287D01*
X135902754Y-94676243D01*
X135968378Y-94878213D01*
X135968444Y-94878414D01*
X136064951Y-95067820D01*
X136189890Y-95239786D01*
X136340213Y-95390109D01*
X136512182Y-95515050D01*
X136520946Y-95519516D01*
X136571742Y-95567491D01*
X136588536Y-95635312D01*
X136565998Y-95701447D01*
X136520946Y-95740484D01*
X136512182Y-95744949D01*
X136340213Y-95869890D01*
X136189890Y-96020213D01*
X136064951Y-96192179D01*
X135968444Y-96381585D01*
X135902753Y-96583760D01*
X135874794Y-96760288D01*
X135869500Y-96793713D01*
X135869500Y-97006287D01*
X135876503Y-97050499D01*
X135902753Y-97216239D01*
X135968444Y-97418414D01*
X136064951Y-97607820D01*
X136189890Y-97779786D01*
X136340213Y-97930109D01*
X136512182Y-98055050D01*
X136520946Y-98059516D01*
X136571742Y-98107491D01*
X136588536Y-98175312D01*
X136565998Y-98241447D01*
X136520946Y-98280484D01*
X136512182Y-98284949D01*
X136340213Y-98409890D01*
X136189890Y-98560213D01*
X136064951Y-98732179D01*
X135968444Y-98921585D01*
X135902753Y-99123760D01*
X135869500Y-99333713D01*
X135869500Y-99546286D01*
X135893257Y-99696286D01*
X135902754Y-99756243D01*
X135951492Y-99906243D01*
X135968444Y-99958414D01*
X136064951Y-100147820D01*
X136189890Y-100319786D01*
X136340213Y-100470109D01*
X136512182Y-100595050D01*
X136520946Y-100599516D01*
X136571742Y-100647491D01*
X136588536Y-100715312D01*
X136565998Y-100781447D01*
X136520946Y-100820484D01*
X136512182Y-100824949D01*
X136340213Y-100949890D01*
X136189890Y-101100213D01*
X136064951Y-101272179D01*
X135968444Y-101461585D01*
X135902753Y-101663760D01*
X135882603Y-101790982D01*
X135869500Y-101873713D01*
X135869500Y-102086287D01*
X135902754Y-102296243D01*
X135963615Y-102483554D01*
X135968444Y-102498414D01*
X136064951Y-102687820D01*
X136189890Y-102859786D01*
X136340213Y-103010109D01*
X136512179Y-103135048D01*
X136512181Y-103135049D01*
X136512184Y-103135051D01*
X136521493Y-103139794D01*
X136572290Y-103187766D01*
X136589087Y-103255587D01*
X136566552Y-103321722D01*
X136521505Y-103360760D01*
X136512446Y-103365376D01*
X136512440Y-103365380D01*
X136458282Y-103404727D01*
X136458282Y-103404728D01*
X137090591Y-104037037D01*
X137027007Y-104054075D01*
X136912993Y-104119901D01*
X136819901Y-104212993D01*
X136754075Y-104327007D01*
X136737037Y-104390591D01*
X136104728Y-103758282D01*
X136104727Y-103758282D01*
X136065380Y-103812439D01*
X135968904Y-104001782D01*
X135903242Y-104203869D01*
X135903242Y-104203872D01*
X135870000Y-104413753D01*
X135870000Y-104626246D01*
X135903242Y-104836127D01*
X135903242Y-104836130D01*
X135968904Y-105038217D01*
X136065375Y-105227550D01*
X136104728Y-105281716D01*
X136737037Y-104649408D01*
X136754075Y-104712993D01*
X136819901Y-104827007D01*
X136912993Y-104920099D01*
X137027007Y-104985925D01*
X137090590Y-105002962D01*
X136458282Y-105635269D01*
X136458282Y-105635270D01*
X136512449Y-105674624D01*
X136701782Y-105771095D01*
X136903870Y-105836757D01*
X137113754Y-105870000D01*
X137326246Y-105870000D01*
X137536127Y-105836757D01*
X137536130Y-105836757D01*
X137738217Y-105771095D01*
X137927554Y-105674622D01*
X137978383Y-105637693D01*
X137981716Y-105635270D01*
X137981717Y-105635270D01*
X137349408Y-105002962D01*
X137412993Y-104985925D01*
X137527007Y-104920099D01*
X137620099Y-104827007D01*
X137685925Y-104712993D01*
X137702962Y-104649408D01*
X138335270Y-105281717D01*
X138335270Y-105281716D01*
X138374622Y-105227554D01*
X138471095Y-105038217D01*
X138536757Y-104836130D01*
X138536757Y-104836127D01*
X138570000Y-104626246D01*
X138570000Y-104421153D01*
X138949500Y-104421153D01*
X138949500Y-104578846D01*
X138980261Y-104733489D01*
X138980264Y-104733501D01*
X139040602Y-104879172D01*
X139040609Y-104879185D01*
X139128210Y-105010288D01*
X139128213Y-105010292D01*
X139239707Y-105121786D01*
X139239711Y-105121789D01*
X139370814Y-105209390D01*
X139370827Y-105209397D01*
X139414663Y-105227554D01*
X139516503Y-105269737D01*
X139670459Y-105300361D01*
X139671153Y-105300499D01*
X139671156Y-105300500D01*
X139671158Y-105300500D01*
X139828844Y-105300500D01*
X139828845Y-105300499D01*
X139983497Y-105269737D01*
X140129179Y-105209394D01*
X140260289Y-105121789D01*
X140371789Y-105010289D01*
X140459394Y-104879179D01*
X140519737Y-104733497D01*
X140550500Y-104578842D01*
X140550500Y-104421158D01*
X140550500Y-104421155D01*
X140550499Y-104421153D01*
X140519738Y-104266510D01*
X140519737Y-104266503D01*
X140493795Y-104203872D01*
X140459397Y-104120827D01*
X140459390Y-104120814D01*
X140371789Y-103989711D01*
X140371786Y-103989707D01*
X140260292Y-103878213D01*
X140260288Y-103878210D01*
X140129185Y-103790609D01*
X140129172Y-103790602D01*
X139983501Y-103730264D01*
X139983489Y-103730261D01*
X139828845Y-103699500D01*
X139828842Y-103699500D01*
X139671158Y-103699500D01*
X139671155Y-103699500D01*
X139516510Y-103730261D01*
X139516498Y-103730264D01*
X139370827Y-103790602D01*
X139370814Y-103790609D01*
X139239711Y-103878210D01*
X139239707Y-103878213D01*
X139128213Y-103989707D01*
X139128210Y-103989711D01*
X139040609Y-104120814D01*
X139040602Y-104120827D01*
X138980264Y-104266498D01*
X138980261Y-104266510D01*
X138949500Y-104421153D01*
X138570000Y-104421153D01*
X138570000Y-104413753D01*
X138536757Y-104203872D01*
X138536757Y-104203869D01*
X138471095Y-104001782D01*
X138374624Y-103812449D01*
X138335270Y-103758282D01*
X138335269Y-103758282D01*
X137702962Y-104390590D01*
X137685925Y-104327007D01*
X137620099Y-104212993D01*
X137527007Y-104119901D01*
X137412993Y-104054075D01*
X137349409Y-104037037D01*
X137981716Y-103404728D01*
X137927547Y-103365373D01*
X137927547Y-103365372D01*
X137918500Y-103360763D01*
X137914935Y-103357396D01*
X137910199Y-103356124D01*
X137889782Y-103333639D01*
X137867706Y-103312788D01*
X137866527Y-103308028D01*
X137863230Y-103304397D01*
X137858209Y-103274437D01*
X137850912Y-103244966D01*
X137852493Y-103240325D01*
X137851683Y-103235488D01*
X137863653Y-103207579D01*
X137873451Y-103178832D01*
X137877822Y-103174545D01*
X137879225Y-103171276D01*
X137889801Y-103162799D01*
X137905354Y-103147550D01*
X137911686Y-103143269D01*
X137927816Y-103135051D01*
X138099792Y-103010104D01*
X138250104Y-102859792D01*
X138250106Y-102859788D01*
X138250109Y-102859786D01*
X138375048Y-102687820D01*
X138375047Y-102687820D01*
X138375051Y-102687816D01*
X138471557Y-102498412D01*
X138537246Y-102296243D01*
X138570500Y-102086287D01*
X138570500Y-101873713D01*
X138537246Y-101663757D01*
X138471557Y-101461588D01*
X138375051Y-101272184D01*
X138375049Y-101272181D01*
X138375048Y-101272179D01*
X138250109Y-101100213D01*
X138099786Y-100949890D01*
X137927820Y-100824951D01*
X137927115Y-100824591D01*
X137919054Y-100820485D01*
X137868259Y-100772512D01*
X137851463Y-100704692D01*
X137873999Y-100638556D01*
X137919054Y-100599515D01*
X137927816Y-100595051D01*
X138049602Y-100506569D01*
X138099786Y-100470109D01*
X138099788Y-100470106D01*
X138099792Y-100470104D01*
X138250104Y-100319792D01*
X138250106Y-100319788D01*
X138250109Y-100319786D01*
X138375048Y-100147820D01*
X138375047Y-100147820D01*
X138375051Y-100147816D01*
X138471557Y-99958412D01*
X138537246Y-99756243D01*
X138570500Y-99546287D01*
X138570500Y-99333713D01*
X138537246Y-99123757D01*
X138471557Y-98921588D01*
X138375051Y-98732184D01*
X138375049Y-98732181D01*
X138375048Y-98732179D01*
X138345955Y-98692135D01*
X141109500Y-98692135D01*
X141109500Y-100487870D01*
X141109501Y-100487876D01*
X141115908Y-100547483D01*
X141166202Y-100682328D01*
X141166206Y-100682335D01*
X141252452Y-100797544D01*
X141252455Y-100797547D01*
X141367664Y-100883793D01*
X141367671Y-100883797D01*
X141412618Y-100900561D01*
X141502517Y-100934091D01*
X141562127Y-100940500D01*
X141572685Y-100940499D01*
X141639723Y-100960179D01*
X141660372Y-100976818D01*
X142330591Y-101647037D01*
X142267007Y-101664075D01*
X142152993Y-101729901D01*
X142059901Y-101822993D01*
X141994075Y-101937007D01*
X141977037Y-102000591D01*
X141344728Y-101368282D01*
X141344727Y-101368282D01*
X141305380Y-101422439D01*
X141208904Y-101611782D01*
X141143242Y-101813869D01*
X141143242Y-101813872D01*
X141110000Y-102023753D01*
X141110000Y-102236246D01*
X141143242Y-102446127D01*
X141143242Y-102446130D01*
X141208904Y-102648217D01*
X141305375Y-102837550D01*
X141344728Y-102891716D01*
X141977037Y-102259408D01*
X141994075Y-102322993D01*
X142059901Y-102437007D01*
X142152993Y-102530099D01*
X142267007Y-102595925D01*
X142330590Y-102612962D01*
X141698282Y-103245269D01*
X141698282Y-103245270D01*
X141752452Y-103284626D01*
X141762048Y-103289516D01*
X141812844Y-103337491D01*
X141829638Y-103405312D01*
X141807100Y-103471447D01*
X141762051Y-103510483D01*
X141752440Y-103515380D01*
X141698282Y-103554727D01*
X141698282Y-103554728D01*
X142330591Y-104187037D01*
X142267007Y-104204075D01*
X142152993Y-104269901D01*
X142059901Y-104362993D01*
X141994075Y-104477007D01*
X141977037Y-104540591D01*
X141344728Y-103908282D01*
X141344727Y-103908282D01*
X141305380Y-103962439D01*
X141208904Y-104151782D01*
X141143242Y-104353869D01*
X141143242Y-104353872D01*
X141110000Y-104563753D01*
X141110000Y-104776246D01*
X141143242Y-104986127D01*
X141143242Y-104986130D01*
X141208904Y-105188217D01*
X141305375Y-105377550D01*
X141344728Y-105431716D01*
X141977037Y-104799408D01*
X141994075Y-104862993D01*
X142059901Y-104977007D01*
X142152993Y-105070099D01*
X142267007Y-105135925D01*
X142330591Y-105152962D01*
X141729971Y-105753581D01*
X141808711Y-105870895D01*
X141809920Y-105874729D01*
X141812844Y-105877491D01*
X141820343Y-105907778D01*
X141829727Y-105937529D01*
X141828671Y-105941408D01*
X141829638Y-105945312D01*
X141819573Y-105974844D01*
X141811383Y-106004947D01*
X141808397Y-106007640D01*
X141807100Y-106011447D01*
X141762051Y-106050483D01*
X141752440Y-106055380D01*
X141698282Y-106094727D01*
X141698282Y-106094728D01*
X142330591Y-106727037D01*
X142267007Y-106744075D01*
X142152993Y-106809901D01*
X142059901Y-106902993D01*
X141994075Y-107017007D01*
X141977037Y-107080591D01*
X141344728Y-106448282D01*
X141344727Y-106448282D01*
X141305380Y-106502439D01*
X141208904Y-106691782D01*
X141143242Y-106893869D01*
X141143242Y-106893872D01*
X141110000Y-107103753D01*
X141110000Y-107316246D01*
X141143242Y-107526127D01*
X141143242Y-107526130D01*
X141208904Y-107728217D01*
X141305375Y-107917550D01*
X141344728Y-107971716D01*
X141977037Y-107339408D01*
X141994075Y-107402993D01*
X142059901Y-107517007D01*
X142152993Y-107610099D01*
X142267007Y-107675925D01*
X142330590Y-107692962D01*
X141698282Y-108325269D01*
X141698282Y-108325270D01*
X141752452Y-108364626D01*
X141752451Y-108364626D01*
X141761495Y-108369234D01*
X141812292Y-108417208D01*
X141829087Y-108485029D01*
X141806550Y-108551164D01*
X141761499Y-108590202D01*
X141752182Y-108594949D01*
X141580213Y-108719890D01*
X141429890Y-108870213D01*
X141304951Y-109042179D01*
X141208444Y-109231585D01*
X141142753Y-109433760D01*
X141109500Y-109643713D01*
X141109500Y-109856286D01*
X141142753Y-110066239D01*
X141208444Y-110268414D01*
X141304951Y-110457820D01*
X141429890Y-110629786D01*
X141580213Y-110780109D01*
X141752179Y-110905048D01*
X141752181Y-110905049D01*
X141752184Y-110905051D01*
X141941588Y-111001557D01*
X142143757Y-111067246D01*
X142353713Y-111100500D01*
X142353714Y-111100500D01*
X142566286Y-111100500D01*
X142566287Y-111100500D01*
X142776243Y-111067246D01*
X142978412Y-111001557D01*
X143167816Y-110905051D01*
X143189789Y-110889086D01*
X143339786Y-110780109D01*
X143339788Y-110780106D01*
X143339792Y-110780104D01*
X143490104Y-110629792D01*
X143490106Y-110629788D01*
X143490109Y-110629786D01*
X143615048Y-110457820D01*
X143615047Y-110457820D01*
X143615051Y-110457816D01*
X143619514Y-110449054D01*
X143667488Y-110398259D01*
X143735308Y-110381463D01*
X143801444Y-110403999D01*
X143840486Y-110449056D01*
X143844951Y-110457820D01*
X143969890Y-110629786D01*
X144120213Y-110780109D01*
X144292179Y-110905048D01*
X144292181Y-110905049D01*
X144292184Y-110905051D01*
X144481588Y-111001557D01*
X144683757Y-111067246D01*
X144893713Y-111100500D01*
X144893714Y-111100500D01*
X145106286Y-111100500D01*
X145106287Y-111100500D01*
X145316243Y-111067246D01*
X145518412Y-111001557D01*
X145707816Y-110905051D01*
X145729789Y-110889086D01*
X145879786Y-110780109D01*
X145879788Y-110780106D01*
X145879792Y-110780104D01*
X146030104Y-110629792D01*
X146030106Y-110629788D01*
X146030109Y-110629786D01*
X146155048Y-110457820D01*
X146155047Y-110457820D01*
X146155051Y-110457816D01*
X146251557Y-110268412D01*
X146317246Y-110066243D01*
X146350500Y-109856287D01*
X146350500Y-109643713D01*
X146317246Y-109433757D01*
X146251557Y-109231588D01*
X146155051Y-109042184D01*
X146155049Y-109042181D01*
X146155048Y-109042179D01*
X146030109Y-108870213D01*
X145879786Y-108719890D01*
X145707817Y-108594949D01*
X145698504Y-108590204D01*
X145647707Y-108542230D01*
X145630912Y-108474409D01*
X145653449Y-108408274D01*
X145698507Y-108369232D01*
X145707555Y-108364622D01*
X145761716Y-108325270D01*
X145761717Y-108325270D01*
X145129408Y-107692962D01*
X145192993Y-107675925D01*
X145307007Y-107610099D01*
X145400099Y-107517007D01*
X145465925Y-107402993D01*
X145482962Y-107339408D01*
X146115270Y-107971717D01*
X146115270Y-107971716D01*
X146154622Y-107917554D01*
X146251095Y-107728217D01*
X146316757Y-107526130D01*
X146316757Y-107526127D01*
X146350000Y-107316246D01*
X146350000Y-107103753D01*
X146316757Y-106893872D01*
X146316757Y-106893869D01*
X146254865Y-106703384D01*
X146251095Y-106691782D01*
X146240584Y-106671153D01*
X147449500Y-106671153D01*
X147449500Y-106828846D01*
X147480261Y-106983489D01*
X147480264Y-106983501D01*
X147540602Y-107129172D01*
X147540609Y-107129185D01*
X147628210Y-107260288D01*
X147628213Y-107260292D01*
X147739707Y-107371786D01*
X147739711Y-107371789D01*
X147870814Y-107459390D01*
X147870827Y-107459397D01*
X148009912Y-107517007D01*
X148016503Y-107519737D01*
X148171153Y-107550499D01*
X148171156Y-107550500D01*
X148171158Y-107550500D01*
X148328844Y-107550500D01*
X148328845Y-107550499D01*
X148483497Y-107519737D01*
X148629179Y-107459394D01*
X148760289Y-107371789D01*
X148871789Y-107260289D01*
X148959394Y-107129179D01*
X149019737Y-106983497D01*
X149050500Y-106828842D01*
X149050500Y-106671158D01*
X149050500Y-106671155D01*
X149050499Y-106671153D01*
X149019738Y-106516510D01*
X149019737Y-106516503D01*
X148991479Y-106448282D01*
X148959397Y-106370827D01*
X148959390Y-106370814D01*
X148871789Y-106239711D01*
X148871786Y-106239707D01*
X148760292Y-106128213D01*
X148760288Y-106128210D01*
X148629185Y-106040609D01*
X148629172Y-106040602D01*
X148483501Y-105980264D01*
X148483489Y-105980261D01*
X148328845Y-105949500D01*
X148328842Y-105949500D01*
X148171158Y-105949500D01*
X148171155Y-105949500D01*
X148016510Y-105980261D01*
X148016498Y-105980264D01*
X147870827Y-106040602D01*
X147870814Y-106040609D01*
X147739711Y-106128210D01*
X147739707Y-106128213D01*
X147628213Y-106239707D01*
X147628210Y-106239711D01*
X147540609Y-106370814D01*
X147540602Y-106370827D01*
X147480264Y-106516498D01*
X147480261Y-106516510D01*
X147449500Y-106671153D01*
X146240584Y-106671153D01*
X146154624Y-106502449D01*
X146115270Y-106448282D01*
X146115269Y-106448282D01*
X145482962Y-107080590D01*
X145465925Y-107017007D01*
X145400099Y-106902993D01*
X145307007Y-106809901D01*
X145192993Y-106744075D01*
X145129409Y-106727037D01*
X145761716Y-106094728D01*
X145707550Y-106055375D01*
X145697954Y-106050486D01*
X145647157Y-106002512D01*
X145630361Y-105934692D01*
X145652897Y-105868556D01*
X145697954Y-105829514D01*
X145707554Y-105824622D01*
X145761716Y-105785270D01*
X145761717Y-105785270D01*
X145652139Y-105675692D01*
X145129408Y-105152962D01*
X145192993Y-105135925D01*
X145307007Y-105070099D01*
X145400099Y-104977007D01*
X145465925Y-104862993D01*
X145482962Y-104799408D01*
X146115270Y-105431717D01*
X146115270Y-105431716D01*
X146154622Y-105377554D01*
X146251095Y-105188217D01*
X146316757Y-104986130D01*
X146316757Y-104986127D01*
X146350000Y-104776246D01*
X146350000Y-104563753D01*
X146328543Y-104428279D01*
X146316757Y-104353872D01*
X146316757Y-104353869D01*
X146251095Y-104151782D01*
X146154624Y-103962449D01*
X146115270Y-103908282D01*
X146115269Y-103908282D01*
X145482962Y-104540590D01*
X145465925Y-104477007D01*
X145400099Y-104362993D01*
X145307007Y-104269901D01*
X145192993Y-104204075D01*
X145129409Y-104187037D01*
X145761716Y-103554728D01*
X145707550Y-103515375D01*
X145697954Y-103510486D01*
X145647157Y-103462512D01*
X145630361Y-103394692D01*
X145652897Y-103328556D01*
X145697954Y-103289514D01*
X145707554Y-103284622D01*
X145761716Y-103245270D01*
X145761717Y-103245270D01*
X145129408Y-102612962D01*
X145192993Y-102595925D01*
X145307007Y-102530099D01*
X145400099Y-102437007D01*
X145465925Y-102322993D01*
X145482962Y-102259408D01*
X146115270Y-102891717D01*
X146115270Y-102891716D01*
X146154622Y-102837554D01*
X146251095Y-102648217D01*
X146316757Y-102446130D01*
X146316757Y-102446127D01*
X146350000Y-102236246D01*
X146350000Y-102023753D01*
X146316757Y-101813872D01*
X146316757Y-101813869D01*
X146251095Y-101611782D01*
X146154624Y-101422449D01*
X146115270Y-101368282D01*
X146115269Y-101368282D01*
X145482962Y-102000590D01*
X145465925Y-101937007D01*
X145400099Y-101822993D01*
X145307007Y-101729901D01*
X145192993Y-101664075D01*
X145129409Y-101647037D01*
X145761645Y-101014799D01*
X145685154Y-100962875D01*
X145667685Y-100941658D01*
X145647706Y-100922788D01*
X145647301Y-100921153D01*
X147199500Y-100921153D01*
X147199500Y-101078846D01*
X147230261Y-101233489D01*
X147230264Y-101233501D01*
X147290602Y-101379172D01*
X147290609Y-101379185D01*
X147378210Y-101510288D01*
X147378213Y-101510292D01*
X147489707Y-101621786D01*
X147489711Y-101621789D01*
X147620814Y-101709390D01*
X147620827Y-101709397D01*
X147766498Y-101769735D01*
X147766503Y-101769737D01*
X147921153Y-101800499D01*
X147921156Y-101800500D01*
X147921158Y-101800500D01*
X148078844Y-101800500D01*
X148078845Y-101800499D01*
X148233497Y-101769737D01*
X148379179Y-101709394D01*
X148379178Y-101709394D01*
X148384749Y-101707087D01*
X148454218Y-101699618D01*
X148516697Y-101730893D01*
X148552349Y-101790982D01*
X148554673Y-101841045D01*
X148549500Y-101873713D01*
X148549500Y-102086287D01*
X148582754Y-102296243D01*
X148643615Y-102483554D01*
X148648444Y-102498414D01*
X148744951Y-102687820D01*
X148869890Y-102859786D01*
X149020213Y-103010109D01*
X149192179Y-103135048D01*
X149192181Y-103135049D01*
X149192184Y-103135051D01*
X149201493Y-103139794D01*
X149252290Y-103187766D01*
X149269087Y-103255587D01*
X149246552Y-103321722D01*
X149201505Y-103360760D01*
X149192446Y-103365376D01*
X149192440Y-103365380D01*
X149138282Y-103404727D01*
X149138282Y-103404728D01*
X149770591Y-104037037D01*
X149707007Y-104054075D01*
X149592993Y-104119901D01*
X149499901Y-104212993D01*
X149434075Y-104327007D01*
X149417037Y-104390591D01*
X148784728Y-103758282D01*
X148784727Y-103758282D01*
X148745380Y-103812439D01*
X148648904Y-104001782D01*
X148583242Y-104203869D01*
X148583242Y-104203872D01*
X148550000Y-104413753D01*
X148550000Y-104626246D01*
X148583242Y-104836127D01*
X148583242Y-104836130D01*
X148648904Y-105038217D01*
X148745375Y-105227550D01*
X148784728Y-105281716D01*
X149417037Y-104649408D01*
X149434075Y-104712993D01*
X149499901Y-104827007D01*
X149592993Y-104920099D01*
X149707007Y-104985925D01*
X149770590Y-105002962D01*
X149138282Y-105635269D01*
X149138282Y-105635270D01*
X149192449Y-105674624D01*
X149381782Y-105771095D01*
X149583870Y-105836757D01*
X149793754Y-105870000D01*
X150006246Y-105870000D01*
X150216127Y-105836757D01*
X150216130Y-105836757D01*
X150418217Y-105771095D01*
X150607554Y-105674622D01*
X150661716Y-105635270D01*
X150661717Y-105635270D01*
X150029408Y-105002962D01*
X150092993Y-104985925D01*
X150207007Y-104920099D01*
X150300099Y-104827007D01*
X150365925Y-104712993D01*
X150382962Y-104649408D01*
X151015270Y-105281717D01*
X151015270Y-105281716D01*
X151054622Y-105227554D01*
X151151095Y-105038217D01*
X151216757Y-104836130D01*
X151216757Y-104836127D01*
X151250000Y-104626246D01*
X151250000Y-104413753D01*
X151216757Y-104203872D01*
X151216757Y-104203869D01*
X151151095Y-104001782D01*
X151054624Y-103812449D01*
X151015270Y-103758282D01*
X151015269Y-103758282D01*
X150382962Y-104390590D01*
X150365925Y-104327007D01*
X150300099Y-104212993D01*
X150207007Y-104119901D01*
X150092993Y-104054075D01*
X150029409Y-104037037D01*
X150661716Y-103404728D01*
X150607547Y-103365373D01*
X150607547Y-103365372D01*
X150598500Y-103360763D01*
X150547706Y-103312788D01*
X150530912Y-103244966D01*
X150553451Y-103178832D01*
X150598508Y-103139793D01*
X150607816Y-103135051D01*
X150687007Y-103077515D01*
X150779786Y-103010109D01*
X150779788Y-103010106D01*
X150779792Y-103010104D01*
X150930104Y-102859792D01*
X150930106Y-102859788D01*
X150930109Y-102859786D01*
X151055048Y-102687820D01*
X151055047Y-102687820D01*
X151055051Y-102687816D01*
X151151557Y-102498412D01*
X151217246Y-102296243D01*
X151250500Y-102086287D01*
X151250500Y-101873713D01*
X151217246Y-101663757D01*
X151151557Y-101461588D01*
X151055051Y-101272184D01*
X151055049Y-101272181D01*
X151055048Y-101272179D01*
X150930109Y-101100213D01*
X150779786Y-100949890D01*
X150607820Y-100824951D01*
X150607115Y-100824591D01*
X150599054Y-100820485D01*
X150548259Y-100772512D01*
X150531463Y-100704692D01*
X150553999Y-100638556D01*
X150599054Y-100599515D01*
X150607816Y-100595051D01*
X150729602Y-100506569D01*
X150779786Y-100470109D01*
X150779788Y-100470106D01*
X150779792Y-100470104D01*
X150930104Y-100319792D01*
X150930106Y-100319788D01*
X150930109Y-100319786D01*
X151055048Y-100147820D01*
X151055047Y-100147820D01*
X151055051Y-100147816D01*
X151151557Y-99958412D01*
X151217246Y-99756243D01*
X151250500Y-99546287D01*
X151250500Y-99333713D01*
X151217246Y-99123757D01*
X151151557Y-98921588D01*
X151055051Y-98732184D01*
X151055049Y-98732181D01*
X151055048Y-98732179D01*
X150930109Y-98560213D01*
X150779786Y-98409890D01*
X150607820Y-98284951D01*
X150607115Y-98284591D01*
X150599054Y-98280485D01*
X150548259Y-98232512D01*
X150531463Y-98164692D01*
X150553999Y-98098556D01*
X150599054Y-98059515D01*
X150607816Y-98055051D01*
X150629789Y-98039086D01*
X150779786Y-97930109D01*
X150779788Y-97930106D01*
X150779792Y-97930104D01*
X150930104Y-97779792D01*
X150930106Y-97779788D01*
X150930109Y-97779786D01*
X151055048Y-97607820D01*
X151055047Y-97607820D01*
X151055051Y-97607816D01*
X151151557Y-97418412D01*
X151217246Y-97216243D01*
X151250500Y-97006287D01*
X151250500Y-96793713D01*
X151217246Y-96583757D01*
X151151557Y-96381588D01*
X151055051Y-96192184D01*
X151055049Y-96192181D01*
X151055048Y-96192179D01*
X150930109Y-96020213D01*
X150779786Y-95869890D01*
X150607820Y-95744951D01*
X150607115Y-95744591D01*
X150599054Y-95740485D01*
X150548259Y-95692512D01*
X150531463Y-95624692D01*
X150553999Y-95558556D01*
X150599054Y-95519515D01*
X150607816Y-95515051D01*
X150698040Y-95449500D01*
X150779786Y-95390109D01*
X150779788Y-95390106D01*
X150779792Y-95390104D01*
X150930104Y-95239792D01*
X150930106Y-95239788D01*
X150930109Y-95239786D01*
X151055048Y-95067820D01*
X151055047Y-95067820D01*
X151055051Y-95067816D01*
X151151557Y-94878412D01*
X151217246Y-94676243D01*
X151250500Y-94466287D01*
X151250500Y-94253713D01*
X151217246Y-94043757D01*
X151151557Y-93841588D01*
X151055051Y-93652184D01*
X151055049Y-93652181D01*
X151055048Y-93652179D01*
X150930109Y-93480213D01*
X150779786Y-93329890D01*
X150607820Y-93204951D01*
X150607115Y-93204591D01*
X150599054Y-93200485D01*
X150548259Y-93152512D01*
X150531463Y-93084692D01*
X150553999Y-93018556D01*
X150599054Y-92979515D01*
X150607816Y-92975051D01*
X150629789Y-92959086D01*
X150779786Y-92850109D01*
X150779788Y-92850106D01*
X150779792Y-92850104D01*
X150930104Y-92699792D01*
X150930106Y-92699788D01*
X150930109Y-92699786D01*
X151055048Y-92527820D01*
X151055047Y-92527820D01*
X151055051Y-92527816D01*
X151151557Y-92338412D01*
X151217246Y-92136243D01*
X151250500Y-91926287D01*
X151250500Y-91713713D01*
X151217246Y-91503757D01*
X151151557Y-91301588D01*
X151055051Y-91112184D01*
X151055049Y-91112181D01*
X151055048Y-91112179D01*
X150930109Y-90940213D01*
X150779786Y-90789890D01*
X150607820Y-90664951D01*
X150607115Y-90664591D01*
X150599054Y-90660485D01*
X150548259Y-90612512D01*
X150531463Y-90544692D01*
X150553999Y-90478556D01*
X150599054Y-90439515D01*
X150607816Y-90435051D01*
X150629789Y-90419086D01*
X150779786Y-90310109D01*
X150779788Y-90310106D01*
X150779792Y-90310104D01*
X150930104Y-90159792D01*
X150930106Y-90159788D01*
X150930109Y-90159786D01*
X151055048Y-89987820D01*
X151055047Y-89987820D01*
X151055051Y-89987816D01*
X151151557Y-89798412D01*
X151217246Y-89596243D01*
X151250500Y-89386287D01*
X151250500Y-89173713D01*
X151217246Y-88963757D01*
X151151557Y-88761588D01*
X151055051Y-88572184D01*
X151055049Y-88572181D01*
X151055048Y-88572179D01*
X150930109Y-88400213D01*
X150779786Y-88249890D01*
X150607820Y-88124951D01*
X150607115Y-88124591D01*
X150599054Y-88120485D01*
X150548259Y-88072512D01*
X150531463Y-88004692D01*
X150553999Y-87938556D01*
X150599054Y-87899515D01*
X150607816Y-87895051D01*
X150629789Y-87879086D01*
X150779786Y-87770109D01*
X150779788Y-87770106D01*
X150779792Y-87770104D01*
X150930104Y-87619792D01*
X150930106Y-87619788D01*
X150930109Y-87619786D01*
X151053902Y-87449397D01*
X151055051Y-87447816D01*
X151151557Y-87258412D01*
X151217246Y-87056243D01*
X151250500Y-86846287D01*
X151250500Y-86633713D01*
X151217246Y-86423757D01*
X151151557Y-86221588D01*
X151055051Y-86032184D01*
X151055049Y-86032181D01*
X151055048Y-86032179D01*
X150930109Y-85860213D01*
X150779786Y-85709890D01*
X150607820Y-85584951D01*
X150607115Y-85584591D01*
X150599054Y-85580485D01*
X150548259Y-85532512D01*
X150531463Y-85464692D01*
X150553999Y-85398556D01*
X150599054Y-85359515D01*
X150607816Y-85355051D01*
X150629789Y-85339086D01*
X150779786Y-85230109D01*
X150779788Y-85230106D01*
X150779792Y-85230104D01*
X150930104Y-85079792D01*
X150930106Y-85079788D01*
X150930109Y-85079786D01*
X151055048Y-84907820D01*
X151055047Y-84907820D01*
X151055051Y-84907816D01*
X151151557Y-84718412D01*
X151217246Y-84516243D01*
X151250500Y-84306287D01*
X151250500Y-84093713D01*
X151217246Y-83883757D01*
X151151557Y-83681588D01*
X151055051Y-83492184D01*
X151055049Y-83492181D01*
X151055048Y-83492179D01*
X150930109Y-83320213D01*
X150779786Y-83169890D01*
X150607820Y-83044951D01*
X150607115Y-83044591D01*
X150599054Y-83040485D01*
X150548259Y-82992512D01*
X150531463Y-82924692D01*
X150553999Y-82858556D01*
X150599054Y-82819515D01*
X150607816Y-82815051D01*
X150641467Y-82790602D01*
X150779786Y-82690109D01*
X150779788Y-82690106D01*
X150779792Y-82690104D01*
X150930104Y-82539792D01*
X150930106Y-82539788D01*
X150930109Y-82539786D01*
X151055048Y-82367820D01*
X151055047Y-82367820D01*
X151055051Y-82367816D01*
X151151557Y-82178412D01*
X151217246Y-81976243D01*
X151250500Y-81766287D01*
X151250500Y-81553713D01*
X151217246Y-81343757D01*
X151151557Y-81141588D01*
X151055051Y-80952184D01*
X151055049Y-80952181D01*
X151055048Y-80952179D01*
X150930109Y-80780213D01*
X150779786Y-80629890D01*
X150607820Y-80504951D01*
X150607115Y-80504591D01*
X150599054Y-80500485D01*
X150548259Y-80452512D01*
X150531463Y-80384692D01*
X150553999Y-80318556D01*
X150599054Y-80279515D01*
X150607816Y-80275051D01*
X150629789Y-80259086D01*
X150779786Y-80150109D01*
X150779788Y-80150106D01*
X150779792Y-80150104D01*
X150930104Y-79999792D01*
X150930106Y-79999788D01*
X150930109Y-79999786D01*
X151055048Y-79827820D01*
X151055047Y-79827820D01*
X151055051Y-79827816D01*
X151151557Y-79638412D01*
X151217246Y-79436243D01*
X151250500Y-79226287D01*
X151250500Y-79013713D01*
X151217246Y-78803757D01*
X151151557Y-78601588D01*
X151055051Y-78412184D01*
X151055049Y-78412181D01*
X151055048Y-78412179D01*
X150930109Y-78240213D01*
X150779786Y-78089890D01*
X150607820Y-77964951D01*
X150607115Y-77964591D01*
X150599054Y-77960485D01*
X150548259Y-77912512D01*
X150531463Y-77844692D01*
X150553999Y-77778556D01*
X150599054Y-77739515D01*
X150607816Y-77735051D01*
X150629789Y-77719086D01*
X150779786Y-77610109D01*
X150779788Y-77610106D01*
X150779792Y-77610104D01*
X150930104Y-77459792D01*
X150930106Y-77459788D01*
X150930109Y-77459786D01*
X151055048Y-77287820D01*
X151055047Y-77287820D01*
X151055051Y-77287816D01*
X151151557Y-77098412D01*
X151217246Y-76896243D01*
X151250500Y-76686287D01*
X151250500Y-76473713D01*
X151217246Y-76263757D01*
X151151557Y-76061588D01*
X151055051Y-75872184D01*
X151055049Y-75872181D01*
X151055048Y-75872179D01*
X150930109Y-75700213D01*
X150779786Y-75549890D01*
X150607820Y-75424951D01*
X150607115Y-75424591D01*
X150599054Y-75420485D01*
X150548259Y-75372512D01*
X150531463Y-75304692D01*
X150553999Y-75238556D01*
X150599054Y-75199515D01*
X150607816Y-75195051D01*
X150629789Y-75179086D01*
X150779786Y-75070109D01*
X150779788Y-75070106D01*
X150779792Y-75070104D01*
X150930104Y-74919792D01*
X150930106Y-74919788D01*
X150930109Y-74919786D01*
X151055048Y-74747820D01*
X151055047Y-74747820D01*
X151055051Y-74747816D01*
X151151557Y-74558412D01*
X151217246Y-74356243D01*
X151250500Y-74146287D01*
X151250500Y-73933713D01*
X151217246Y-73723757D01*
X151151557Y-73521588D01*
X151055051Y-73332184D01*
X151055049Y-73332181D01*
X151055048Y-73332179D01*
X150930109Y-73160213D01*
X150816569Y-73046673D01*
X150783084Y-72985350D01*
X150788068Y-72915658D01*
X150829940Y-72859725D01*
X150860915Y-72842810D01*
X150992331Y-72793796D01*
X151107546Y-72707546D01*
X151193796Y-72592331D01*
X151244091Y-72457483D01*
X151250500Y-72397873D01*
X151250499Y-70602128D01*
X151244091Y-70542517D01*
X151193796Y-70407669D01*
X151193795Y-70407668D01*
X151193793Y-70407664D01*
X151107547Y-70292455D01*
X151107544Y-70292452D01*
X150992335Y-70206206D01*
X150992328Y-70206202D01*
X150857482Y-70155908D01*
X150857483Y-70155908D01*
X150797883Y-70149501D01*
X150797881Y-70149500D01*
X150797873Y-70149500D01*
X150797864Y-70149500D01*
X149002129Y-70149500D01*
X149002123Y-70149501D01*
X148942516Y-70155908D01*
X148807671Y-70206202D01*
X148807664Y-70206206D01*
X148692455Y-70292452D01*
X148692452Y-70292455D01*
X148606206Y-70407664D01*
X148606202Y-70407671D01*
X148555908Y-70542517D01*
X148549501Y-70602116D01*
X148549501Y-70602123D01*
X148549500Y-70602135D01*
X148549500Y-72397870D01*
X148549501Y-72397876D01*
X148555908Y-72457483D01*
X148606202Y-72592328D01*
X148606206Y-72592335D01*
X148692452Y-72707544D01*
X148692455Y-72707547D01*
X148807664Y-72793793D01*
X148807671Y-72793797D01*
X148939082Y-72842810D01*
X148995016Y-72884681D01*
X149019433Y-72950145D01*
X149004582Y-73018418D01*
X148983431Y-73046673D01*
X148869889Y-73160215D01*
X148744951Y-73332179D01*
X148648444Y-73521585D01*
X148582753Y-73723760D01*
X148549500Y-73933713D01*
X148549500Y-74146286D01*
X148582753Y-74356239D01*
X148648444Y-74558414D01*
X148744951Y-74747820D01*
X148869890Y-74919786D01*
X149020213Y-75070109D01*
X149192182Y-75195050D01*
X149200946Y-75199516D01*
X149251742Y-75247491D01*
X149268536Y-75315312D01*
X149245998Y-75381447D01*
X149200946Y-75420484D01*
X149192182Y-75424949D01*
X149020213Y-75549890D01*
X148869890Y-75700213D01*
X148744951Y-75872179D01*
X148648444Y-76061585D01*
X148582753Y-76263760D01*
X148549500Y-76473713D01*
X148549500Y-76686286D01*
X148582753Y-76896239D01*
X148648444Y-77098414D01*
X148744951Y-77287820D01*
X148869890Y-77459786D01*
X149020213Y-77610109D01*
X149192182Y-77735050D01*
X149200946Y-77739516D01*
X149251742Y-77787491D01*
X149268536Y-77855312D01*
X149245998Y-77921447D01*
X149200946Y-77960484D01*
X149192182Y-77964949D01*
X149020213Y-78089890D01*
X148869890Y-78240213D01*
X148744951Y-78412179D01*
X148648444Y-78601585D01*
X148582753Y-78803760D01*
X148549500Y-79013713D01*
X148549500Y-79226286D01*
X148582753Y-79436239D01*
X148648444Y-79638414D01*
X148744951Y-79827820D01*
X148869890Y-79999786D01*
X149020213Y-80150109D01*
X149192182Y-80275050D01*
X149200946Y-80279516D01*
X149251742Y-80327491D01*
X149268536Y-80395312D01*
X149245998Y-80461447D01*
X149200946Y-80500484D01*
X149192182Y-80504949D01*
X149020213Y-80629890D01*
X148869890Y-80780213D01*
X148744951Y-80952179D01*
X148648444Y-81141585D01*
X148582753Y-81343760D01*
X148549500Y-81553713D01*
X148549500Y-81766286D01*
X148582753Y-81976239D01*
X148648444Y-82178414D01*
X148744951Y-82367820D01*
X148869890Y-82539786D01*
X149020213Y-82690109D01*
X149192182Y-82815050D01*
X149200946Y-82819516D01*
X149251742Y-82867491D01*
X149268536Y-82935312D01*
X149245998Y-83001447D01*
X149200946Y-83040484D01*
X149192182Y-83044949D01*
X149020213Y-83169890D01*
X148869890Y-83320213D01*
X148744951Y-83492179D01*
X148648444Y-83681585D01*
X148582753Y-83883760D01*
X148549500Y-84093713D01*
X148549500Y-84306286D01*
X148581810Y-84510288D01*
X148582754Y-84516243D01*
X148645512Y-84709392D01*
X148648444Y-84718414D01*
X148744951Y-84907820D01*
X148869890Y-85079786D01*
X149020213Y-85230109D01*
X149192182Y-85355050D01*
X149200946Y-85359516D01*
X149251742Y-85407491D01*
X149268536Y-85475312D01*
X149245998Y-85541447D01*
X149200946Y-85580484D01*
X149192182Y-85584949D01*
X149020213Y-85709890D01*
X148869890Y-85860213D01*
X148744951Y-86032179D01*
X148648444Y-86221585D01*
X148648443Y-86221587D01*
X148648443Y-86221588D01*
X148638405Y-86252483D01*
X148582753Y-86423760D01*
X148549500Y-86633713D01*
X148549500Y-86846286D01*
X148575475Y-87010289D01*
X148582754Y-87056243D01*
X148645803Y-87250288D01*
X148648444Y-87258414D01*
X148744951Y-87447820D01*
X148869890Y-87619786D01*
X149020213Y-87770109D01*
X149192182Y-87895050D01*
X149200946Y-87899516D01*
X149251742Y-87947491D01*
X149268536Y-88015312D01*
X149245998Y-88081447D01*
X149200946Y-88120484D01*
X149192182Y-88124949D01*
X149020213Y-88249890D01*
X148869890Y-88400213D01*
X148744951Y-88572179D01*
X148648444Y-88761585D01*
X148582753Y-88963760D01*
X148549500Y-89173713D01*
X148549500Y-89386286D01*
X148582753Y-89596239D01*
X148648444Y-89798414D01*
X148744951Y-89987820D01*
X148869890Y-90159786D01*
X149020213Y-90310109D01*
X149192182Y-90435050D01*
X149200946Y-90439516D01*
X149251742Y-90487491D01*
X149268536Y-90555312D01*
X149245998Y-90621447D01*
X149200946Y-90660484D01*
X149192182Y-90664949D01*
X149020213Y-90789890D01*
X148869890Y-90940213D01*
X148744951Y-91112179D01*
X148648444Y-91301585D01*
X148582753Y-91503760D01*
X148549500Y-91713713D01*
X148549500Y-91926286D01*
X148582753Y-92136239D01*
X148648444Y-92338414D01*
X148744951Y-92527820D01*
X148869890Y-92699786D01*
X149020213Y-92850109D01*
X149192182Y-92975050D01*
X149200946Y-92979516D01*
X149251742Y-93027491D01*
X149268536Y-93095312D01*
X149245998Y-93161447D01*
X149200946Y-93200484D01*
X149192182Y-93204949D01*
X149020213Y-93329890D01*
X148869890Y-93480213D01*
X148744951Y-93652179D01*
X148648444Y-93841585D01*
X148582753Y-94043760D01*
X148549500Y-94253713D01*
X148549500Y-94466287D01*
X148582754Y-94676243D01*
X148648378Y-94878213D01*
X148648444Y-94878414D01*
X148744951Y-95067820D01*
X148869890Y-95239786D01*
X149020213Y-95390109D01*
X149192182Y-95515050D01*
X149200946Y-95519516D01*
X149251742Y-95567491D01*
X149268536Y-95635312D01*
X149245998Y-95701447D01*
X149200946Y-95740484D01*
X149192182Y-95744949D01*
X149020213Y-95869890D01*
X148869890Y-96020213D01*
X148744951Y-96192179D01*
X148648444Y-96381585D01*
X148582753Y-96583760D01*
X148554794Y-96760288D01*
X148549500Y-96793713D01*
X148549500Y-97006287D01*
X148556503Y-97050499D01*
X148582753Y-97216239D01*
X148648444Y-97418414D01*
X148744951Y-97607820D01*
X148869890Y-97779786D01*
X149020213Y-97930109D01*
X149192182Y-98055050D01*
X149200946Y-98059516D01*
X149251742Y-98107491D01*
X149268536Y-98175312D01*
X149245998Y-98241447D01*
X149200946Y-98280484D01*
X149192182Y-98284949D01*
X149020213Y-98409890D01*
X148869890Y-98560213D01*
X148744951Y-98732179D01*
X148648444Y-98921585D01*
X148582753Y-99123760D01*
X148549500Y-99333713D01*
X148549500Y-99546286D01*
X148573257Y-99696286D01*
X148582754Y-99756243D01*
X148631492Y-99906243D01*
X148648444Y-99958414D01*
X148744951Y-100147820D01*
X148869890Y-100319786D01*
X149020213Y-100470109D01*
X149192182Y-100595050D01*
X149200946Y-100599516D01*
X149251742Y-100647491D01*
X149268536Y-100715312D01*
X149245998Y-100781447D01*
X149200946Y-100820484D01*
X149192182Y-100824949D01*
X149020214Y-100949890D01*
X149005757Y-100964347D01*
X148944433Y-100997830D01*
X148874741Y-100992844D01*
X148818809Y-100950971D01*
X148796461Y-100900854D01*
X148793068Y-100883796D01*
X148769737Y-100766503D01*
X148746333Y-100710000D01*
X148709397Y-100620827D01*
X148709390Y-100620814D01*
X148621789Y-100489711D01*
X148621786Y-100489707D01*
X148510292Y-100378213D01*
X148510288Y-100378210D01*
X148379185Y-100290609D01*
X148379172Y-100290602D01*
X148233501Y-100230264D01*
X148233489Y-100230261D01*
X148078845Y-100199500D01*
X148078842Y-100199500D01*
X147921158Y-100199500D01*
X147921155Y-100199500D01*
X147766510Y-100230261D01*
X147766498Y-100230264D01*
X147620827Y-100290602D01*
X147620814Y-100290609D01*
X147489711Y-100378210D01*
X147489707Y-100378213D01*
X147378213Y-100489707D01*
X147378210Y-100489711D01*
X147290609Y-100620814D01*
X147290602Y-100620827D01*
X147230264Y-100766498D01*
X147230261Y-100766510D01*
X147199500Y-100921153D01*
X145647301Y-100921153D01*
X145645795Y-100915072D01*
X145640743Y-100908936D01*
X145637517Y-100881641D01*
X145630912Y-100854966D01*
X145633475Y-100847443D01*
X145632543Y-100839549D01*
X145644585Y-100814845D01*
X145653451Y-100788832D01*
X145660056Y-100783109D01*
X145663159Y-100776744D01*
X145677367Y-100768109D01*
X145698508Y-100749793D01*
X145707816Y-100745051D01*
X145854395Y-100638556D01*
X145879786Y-100620109D01*
X145879788Y-100620106D01*
X145879792Y-100620104D01*
X146030104Y-100469792D01*
X146030106Y-100469788D01*
X146030109Y-100469786D01*
X146155048Y-100297820D01*
X146155047Y-100297820D01*
X146155051Y-100297816D01*
X146251557Y-100108412D01*
X146317246Y-99906243D01*
X146350500Y-99696287D01*
X146350500Y-99483713D01*
X146317246Y-99273757D01*
X146251557Y-99071588D01*
X146155051Y-98882184D01*
X146155049Y-98882181D01*
X146155048Y-98882179D01*
X146030109Y-98710213D01*
X145879786Y-98559890D01*
X145707820Y-98434951D01*
X145518414Y-98338444D01*
X145518413Y-98338443D01*
X145518412Y-98338443D01*
X145316243Y-98272754D01*
X145316241Y-98272753D01*
X145316240Y-98272753D01*
X145154957Y-98247208D01*
X145106287Y-98239500D01*
X144893713Y-98239500D01*
X144845042Y-98247208D01*
X144683760Y-98272753D01*
X144481585Y-98338444D01*
X144292179Y-98434951D01*
X144120215Y-98559889D01*
X144006673Y-98673431D01*
X143945350Y-98706915D01*
X143875658Y-98701931D01*
X143819725Y-98660059D01*
X143802810Y-98629082D01*
X143753797Y-98497671D01*
X143753793Y-98497664D01*
X143667547Y-98382455D01*
X143667544Y-98382452D01*
X143552335Y-98296206D01*
X143552328Y-98296202D01*
X143417482Y-98245908D01*
X143417483Y-98245908D01*
X143357883Y-98239501D01*
X143357881Y-98239500D01*
X143357873Y-98239500D01*
X143357864Y-98239500D01*
X141562129Y-98239500D01*
X141562123Y-98239501D01*
X141502516Y-98245908D01*
X141367671Y-98296202D01*
X141367664Y-98296206D01*
X141252455Y-98382452D01*
X141252452Y-98382455D01*
X141166206Y-98497664D01*
X141166202Y-98497671D01*
X141115908Y-98632517D01*
X141109501Y-98692116D01*
X141109500Y-98692135D01*
X138345955Y-98692135D01*
X138250109Y-98560213D01*
X138099786Y-98409890D01*
X137927820Y-98284951D01*
X137927115Y-98284591D01*
X137919054Y-98280485D01*
X137868259Y-98232512D01*
X137851463Y-98164692D01*
X137873999Y-98098556D01*
X137919054Y-98059515D01*
X137927816Y-98055051D01*
X137949789Y-98039086D01*
X138099786Y-97930109D01*
X138099788Y-97930106D01*
X138099792Y-97930104D01*
X138250104Y-97779792D01*
X138250106Y-97779788D01*
X138250109Y-97779786D01*
X138375048Y-97607820D01*
X138375047Y-97607820D01*
X138375051Y-97607816D01*
X138471557Y-97418412D01*
X138537246Y-97216243D01*
X138570500Y-97006287D01*
X138570500Y-96793713D01*
X138537246Y-96583757D01*
X138471557Y-96381588D01*
X138375051Y-96192184D01*
X138375049Y-96192181D01*
X138375048Y-96192179D01*
X138250109Y-96020213D01*
X138099786Y-95869890D01*
X137927820Y-95744951D01*
X137927115Y-95744591D01*
X137919054Y-95740485D01*
X137868259Y-95692512D01*
X137851463Y-95624692D01*
X137873999Y-95558556D01*
X137919054Y-95519515D01*
X137927816Y-95515051D01*
X138018040Y-95449500D01*
X138057057Y-95421153D01*
X143199500Y-95421153D01*
X143199500Y-95578846D01*
X143230261Y-95733489D01*
X143230264Y-95733501D01*
X143290602Y-95879172D01*
X143290609Y-95879185D01*
X143378210Y-96010288D01*
X143378213Y-96010292D01*
X143489707Y-96121786D01*
X143489711Y-96121789D01*
X143620814Y-96209390D01*
X143620827Y-96209397D01*
X143766498Y-96269735D01*
X143766503Y-96269737D01*
X143862367Y-96288805D01*
X143863535Y-96289038D01*
X143925446Y-96321422D01*
X143960020Y-96382138D01*
X143960961Y-96386463D01*
X143980261Y-96483491D01*
X143980264Y-96483501D01*
X144040602Y-96629172D01*
X144040609Y-96629185D01*
X144128210Y-96760288D01*
X144128213Y-96760292D01*
X144239707Y-96871786D01*
X144239711Y-96871789D01*
X144370814Y-96959390D01*
X144370827Y-96959397D01*
X144516498Y-97019735D01*
X144516503Y-97019737D01*
X144671153Y-97050499D01*
X144671156Y-97050500D01*
X144671158Y-97050500D01*
X144828844Y-97050500D01*
X144828845Y-97050499D01*
X144983497Y-97019737D01*
X145129179Y-96959394D01*
X145260289Y-96871789D01*
X145371789Y-96760289D01*
X145459394Y-96629179D01*
X145519737Y-96483497D01*
X145550500Y-96328842D01*
X145550500Y-96171158D01*
X145550500Y-96171155D01*
X145550499Y-96171153D01*
X145949500Y-96171153D01*
X145949500Y-96328846D01*
X145980261Y-96483489D01*
X145980264Y-96483501D01*
X146040602Y-96629172D01*
X146040609Y-96629185D01*
X146128210Y-96760288D01*
X146128213Y-96760292D01*
X146239707Y-96871786D01*
X146239711Y-96871789D01*
X146370814Y-96959390D01*
X146370827Y-96959397D01*
X146516498Y-97019735D01*
X146516503Y-97019737D01*
X146671153Y-97050499D01*
X146671156Y-97050500D01*
X146671158Y-97050500D01*
X146828844Y-97050500D01*
X146828845Y-97050499D01*
X146983497Y-97019737D01*
X147129179Y-96959394D01*
X147260289Y-96871789D01*
X147371789Y-96760289D01*
X147459394Y-96629179D01*
X147519737Y-96483497D01*
X147550500Y-96328842D01*
X147550500Y-96171158D01*
X147550500Y-96171155D01*
X147550499Y-96171153D01*
X147519738Y-96016510D01*
X147519737Y-96016503D01*
X147517163Y-96010288D01*
X147459397Y-95870827D01*
X147459390Y-95870814D01*
X147371789Y-95739711D01*
X147371786Y-95739707D01*
X147260292Y-95628213D01*
X147260288Y-95628210D01*
X147129185Y-95540609D01*
X147129172Y-95540602D01*
X146983501Y-95480264D01*
X146983489Y-95480261D01*
X146828845Y-95449500D01*
X146828842Y-95449500D01*
X146671158Y-95449500D01*
X146671155Y-95449500D01*
X146516510Y-95480261D01*
X146516498Y-95480264D01*
X146370827Y-95540602D01*
X146370814Y-95540609D01*
X146239711Y-95628210D01*
X146239707Y-95628213D01*
X146128213Y-95739707D01*
X146128210Y-95739711D01*
X146040609Y-95870814D01*
X146040602Y-95870827D01*
X145980264Y-96016498D01*
X145980261Y-96016510D01*
X145949500Y-96171153D01*
X145550499Y-96171153D01*
X145519738Y-96016510D01*
X145519737Y-96016503D01*
X145517163Y-96010288D01*
X145459397Y-95870827D01*
X145459390Y-95870814D01*
X145371789Y-95739711D01*
X145371786Y-95739707D01*
X145260292Y-95628213D01*
X145260288Y-95628210D01*
X145129185Y-95540609D01*
X145129172Y-95540602D01*
X144983501Y-95480264D01*
X144983491Y-95480261D01*
X144886463Y-95460961D01*
X144824552Y-95428576D01*
X144789978Y-95367860D01*
X144789038Y-95363535D01*
X144769738Y-95266510D01*
X144769737Y-95266503D01*
X144758671Y-95239786D01*
X144709397Y-95120827D01*
X144709390Y-95120814D01*
X144621789Y-94989711D01*
X144621786Y-94989707D01*
X144510292Y-94878213D01*
X144510288Y-94878210D01*
X144379185Y-94790609D01*
X144379172Y-94790602D01*
X144233501Y-94730264D01*
X144233489Y-94730261D01*
X144078845Y-94699500D01*
X144078842Y-94699500D01*
X143921158Y-94699500D01*
X143921155Y-94699500D01*
X143766510Y-94730261D01*
X143766498Y-94730264D01*
X143620827Y-94790602D01*
X143620814Y-94790609D01*
X143489711Y-94878210D01*
X143489707Y-94878213D01*
X143378213Y-94989707D01*
X143378210Y-94989711D01*
X143290609Y-95120814D01*
X143290602Y-95120827D01*
X143230264Y-95266498D01*
X143230261Y-95266510D01*
X143199500Y-95421153D01*
X138057057Y-95421153D01*
X138099786Y-95390109D01*
X138099788Y-95390106D01*
X138099792Y-95390104D01*
X138250104Y-95239792D01*
X138250106Y-95239788D01*
X138250109Y-95239786D01*
X138375048Y-95067820D01*
X138375047Y-95067820D01*
X138375051Y-95067816D01*
X138471557Y-94878412D01*
X138537246Y-94676243D01*
X138570500Y-94466287D01*
X138570500Y-94253713D01*
X138537246Y-94043757D01*
X138471557Y-93841588D01*
X138375051Y-93652184D01*
X138375049Y-93652181D01*
X138375048Y-93652179D01*
X138250109Y-93480213D01*
X138099786Y-93329890D01*
X137927820Y-93204951D01*
X137927115Y-93204591D01*
X137919054Y-93200485D01*
X137868259Y-93152512D01*
X137851463Y-93084692D01*
X137873999Y-93018556D01*
X137919054Y-92979515D01*
X137927816Y-92975051D01*
X137949789Y-92959086D01*
X138099786Y-92850109D01*
X138099788Y-92850106D01*
X138099792Y-92850104D01*
X138250104Y-92699792D01*
X138250106Y-92699788D01*
X138250109Y-92699786D01*
X138375048Y-92527820D01*
X138375047Y-92527820D01*
X138375051Y-92527816D01*
X138471557Y-92338412D01*
X138537246Y-92136243D01*
X138570500Y-91926287D01*
X138570500Y-91713713D01*
X138537246Y-91503757D01*
X138471557Y-91301588D01*
X138375051Y-91112184D01*
X138375049Y-91112181D01*
X138375048Y-91112179D01*
X138284792Y-90987951D01*
X138250109Y-90940213D01*
X138231049Y-90921153D01*
X144949500Y-90921153D01*
X144949500Y-91078846D01*
X144980261Y-91233489D01*
X144980264Y-91233501D01*
X145040602Y-91379172D01*
X145040609Y-91379185D01*
X145128210Y-91510288D01*
X145128213Y-91510292D01*
X145239707Y-91621786D01*
X145239711Y-91621789D01*
X145370814Y-91709390D01*
X145370827Y-91709397D01*
X145516498Y-91769735D01*
X145516503Y-91769737D01*
X145671153Y-91800499D01*
X145671156Y-91800500D01*
X145671158Y-91800500D01*
X145828844Y-91800500D01*
X145828845Y-91800499D01*
X145983497Y-91769737D01*
X146129179Y-91709394D01*
X146260289Y-91621789D01*
X146371789Y-91510289D01*
X146459394Y-91379179D01*
X146519737Y-91233497D01*
X146550500Y-91078842D01*
X146550500Y-90921158D01*
X146550500Y-90921155D01*
X146550499Y-90921153D01*
X146519738Y-90766510D01*
X146519737Y-90766503D01*
X146477673Y-90664951D01*
X146459397Y-90620827D01*
X146459390Y-90620814D01*
X146371789Y-90489711D01*
X146371786Y-90489707D01*
X146260292Y-90378213D01*
X146260288Y-90378210D01*
X146129185Y-90290609D01*
X146129172Y-90290602D01*
X145983501Y-90230264D01*
X145983489Y-90230261D01*
X145828845Y-90199500D01*
X145828842Y-90199500D01*
X145671158Y-90199500D01*
X145671155Y-90199500D01*
X145516510Y-90230261D01*
X145516498Y-90230264D01*
X145370827Y-90290602D01*
X145370814Y-90290609D01*
X145239711Y-90378210D01*
X145239707Y-90378213D01*
X145128213Y-90489707D01*
X145128210Y-90489711D01*
X145040609Y-90620814D01*
X145040602Y-90620827D01*
X144980264Y-90766498D01*
X144980261Y-90766510D01*
X144949500Y-90921153D01*
X138231049Y-90921153D01*
X138099786Y-90789890D01*
X137927820Y-90664951D01*
X137927115Y-90664591D01*
X137919054Y-90660485D01*
X137868259Y-90612512D01*
X137851463Y-90544692D01*
X137873999Y-90478556D01*
X137919054Y-90439515D01*
X137927816Y-90435051D01*
X137949789Y-90419086D01*
X138099786Y-90310109D01*
X138099788Y-90310106D01*
X138099792Y-90310104D01*
X138250104Y-90159792D01*
X138250106Y-90159788D01*
X138250109Y-90159786D01*
X138375048Y-89987820D01*
X138375047Y-89987820D01*
X138375051Y-89987816D01*
X138471557Y-89798412D01*
X138537246Y-89596243D01*
X138570500Y-89386287D01*
X138570500Y-89173713D01*
X138537246Y-88963757D01*
X138471557Y-88761588D01*
X138375051Y-88572184D01*
X138375049Y-88572181D01*
X138375048Y-88572179D01*
X138250109Y-88400213D01*
X138099786Y-88249890D01*
X137927820Y-88124951D01*
X137927115Y-88124591D01*
X137919054Y-88120485D01*
X137868259Y-88072512D01*
X137851463Y-88004692D01*
X137873999Y-87938556D01*
X137919054Y-87899515D01*
X137927816Y-87895051D01*
X137949789Y-87879086D01*
X138099786Y-87770109D01*
X138099788Y-87770106D01*
X138099792Y-87770104D01*
X138250104Y-87619792D01*
X138250106Y-87619788D01*
X138250109Y-87619786D01*
X138373902Y-87449397D01*
X138375051Y-87447816D01*
X138471557Y-87258412D01*
X138537246Y-87056243D01*
X138570500Y-86846287D01*
X138570500Y-86661153D01*
X142439500Y-86661153D01*
X142439500Y-86818846D01*
X142470261Y-86973489D01*
X142470264Y-86973501D01*
X142530602Y-87119172D01*
X142530609Y-87119185D01*
X142618210Y-87250288D01*
X142618213Y-87250292D01*
X142729707Y-87361786D01*
X142729711Y-87361789D01*
X142860814Y-87449390D01*
X142860827Y-87449397D01*
X143006498Y-87509735D01*
X143006503Y-87509737D01*
X143161153Y-87540499D01*
X143161156Y-87540500D01*
X143161158Y-87540500D01*
X143318844Y-87540500D01*
X143318845Y-87540499D01*
X143473497Y-87509737D01*
X143619179Y-87449394D01*
X143750289Y-87361789D01*
X143861789Y-87250289D01*
X143949394Y-87119179D01*
X144009737Y-86973497D01*
X144040500Y-86818842D01*
X144040500Y-86661158D01*
X144040500Y-86661155D01*
X144040499Y-86661153D01*
X144024127Y-86578846D01*
X144009737Y-86506503D01*
X143974384Y-86421153D01*
X145949500Y-86421153D01*
X145949500Y-86578846D01*
X145980261Y-86733489D01*
X145980264Y-86733501D01*
X146040602Y-86879172D01*
X146040609Y-86879185D01*
X146128210Y-87010288D01*
X146128213Y-87010292D01*
X146239707Y-87121786D01*
X146239711Y-87121789D01*
X146370814Y-87209390D01*
X146370827Y-87209397D01*
X146516498Y-87269735D01*
X146516503Y-87269737D01*
X146671153Y-87300499D01*
X146671156Y-87300500D01*
X146671158Y-87300500D01*
X146828844Y-87300500D01*
X146828845Y-87300499D01*
X146983497Y-87269737D01*
X147129179Y-87209394D01*
X147260289Y-87121789D01*
X147371789Y-87010289D01*
X147459394Y-86879179D01*
X147519737Y-86733497D01*
X147550500Y-86578842D01*
X147550500Y-86421158D01*
X147550500Y-86421155D01*
X147550499Y-86421153D01*
X147519737Y-86266503D01*
X147519735Y-86266498D01*
X147459397Y-86120827D01*
X147459390Y-86120814D01*
X147371789Y-85989711D01*
X147371786Y-85989707D01*
X147260292Y-85878213D01*
X147260288Y-85878210D01*
X147129185Y-85790609D01*
X147129172Y-85790602D01*
X146983501Y-85730264D01*
X146983489Y-85730261D01*
X146828845Y-85699500D01*
X146828842Y-85699500D01*
X146671158Y-85699500D01*
X146671155Y-85699500D01*
X146516510Y-85730261D01*
X146516498Y-85730264D01*
X146370827Y-85790602D01*
X146370814Y-85790609D01*
X146239711Y-85878210D01*
X146239707Y-85878213D01*
X146128213Y-85989707D01*
X146128210Y-85989711D01*
X146040609Y-86120814D01*
X146040602Y-86120827D01*
X145980264Y-86266498D01*
X145980261Y-86266510D01*
X145949500Y-86421153D01*
X143974384Y-86421153D01*
X143949394Y-86360821D01*
X143918478Y-86314553D01*
X143914861Y-86307196D01*
X143910244Y-86280525D01*
X143902157Y-86254696D01*
X143904374Y-86246611D01*
X143902945Y-86238350D01*
X143913480Y-86213419D01*
X143920641Y-86187316D01*
X143922985Y-86183667D01*
X143959394Y-86129179D01*
X144019737Y-85983497D01*
X144050500Y-85828842D01*
X144050500Y-85671158D01*
X144050500Y-85671155D01*
X144050499Y-85671153D01*
X144032464Y-85580486D01*
X144019737Y-85516503D01*
X144000475Y-85470000D01*
X143959397Y-85370827D01*
X143959390Y-85370814D01*
X143871789Y-85239711D01*
X143871786Y-85239707D01*
X143760292Y-85128213D01*
X143760288Y-85128210D01*
X143629185Y-85040609D01*
X143629175Y-85040604D01*
X143598896Y-85028062D01*
X143544493Y-84984221D01*
X143522428Y-84917926D01*
X143539708Y-84850227D01*
X143590845Y-84802617D01*
X143622158Y-84791884D01*
X143644241Y-84787491D01*
X143733497Y-84769737D01*
X143857403Y-84718414D01*
X143879172Y-84709397D01*
X143879172Y-84709396D01*
X143879179Y-84709394D01*
X144010289Y-84621789D01*
X144121789Y-84510289D01*
X144209394Y-84379179D01*
X144269737Y-84233497D01*
X144289038Y-84136460D01*
X144321422Y-84074553D01*
X144382138Y-84039979D01*
X144386400Y-84039050D01*
X144483497Y-84019737D01*
X144629179Y-83959394D01*
X144760289Y-83871789D01*
X144871789Y-83760289D01*
X144959394Y-83629179D01*
X144962854Y-83620827D01*
X144980244Y-83578842D01*
X145019737Y-83483497D01*
X145032138Y-83421153D01*
X145949500Y-83421153D01*
X145949500Y-83578846D01*
X145980261Y-83733489D01*
X145980264Y-83733501D01*
X146040602Y-83879172D01*
X146040609Y-83879185D01*
X146128210Y-84010288D01*
X146128213Y-84010292D01*
X146239707Y-84121786D01*
X146239711Y-84121789D01*
X146370814Y-84209390D01*
X146370827Y-84209397D01*
X146516498Y-84269735D01*
X146516503Y-84269737D01*
X146671153Y-84300499D01*
X146671156Y-84300500D01*
X146671158Y-84300500D01*
X146828844Y-84300500D01*
X146828845Y-84300499D01*
X146983497Y-84269737D01*
X147129179Y-84209394D01*
X147260289Y-84121789D01*
X147371789Y-84010289D01*
X147459394Y-83879179D01*
X147519737Y-83733497D01*
X147550500Y-83578842D01*
X147550500Y-83421158D01*
X147550500Y-83421155D01*
X147550499Y-83421153D01*
X147532137Y-83328842D01*
X147519737Y-83266503D01*
X147519735Y-83266498D01*
X147459397Y-83120827D01*
X147459390Y-83120814D01*
X147371789Y-82989711D01*
X147371786Y-82989707D01*
X147260292Y-82878213D01*
X147260288Y-82878210D01*
X147129185Y-82790609D01*
X147129172Y-82790602D01*
X146983501Y-82730264D01*
X146983489Y-82730261D01*
X146828845Y-82699500D01*
X146828842Y-82699500D01*
X146671158Y-82699500D01*
X146671155Y-82699500D01*
X146516510Y-82730261D01*
X146516498Y-82730264D01*
X146370827Y-82790602D01*
X146370814Y-82790609D01*
X146239711Y-82878210D01*
X146239707Y-82878213D01*
X146128213Y-82989707D01*
X146128210Y-82989711D01*
X146040609Y-83120814D01*
X146040602Y-83120827D01*
X145980264Y-83266498D01*
X145980261Y-83266510D01*
X145949500Y-83421153D01*
X145032138Y-83421153D01*
X145038161Y-83390874D01*
X145050500Y-83328844D01*
X145050500Y-83171155D01*
X145050499Y-83171153D01*
X145039038Y-83113536D01*
X145019737Y-83016503D01*
X145009800Y-82992512D01*
X144959397Y-82870827D01*
X144959390Y-82870814D01*
X144871789Y-82739711D01*
X144871786Y-82739707D01*
X144760292Y-82628213D01*
X144760288Y-82628210D01*
X144629185Y-82540609D01*
X144629172Y-82540602D01*
X144483501Y-82480264D01*
X144483489Y-82480261D01*
X144328845Y-82449500D01*
X144328842Y-82449500D01*
X144171158Y-82449500D01*
X144171155Y-82449500D01*
X144016510Y-82480261D01*
X144016498Y-82480264D01*
X143870827Y-82540602D01*
X143870814Y-82540609D01*
X143739711Y-82628210D01*
X143739707Y-82628213D01*
X143628213Y-82739707D01*
X143628210Y-82739711D01*
X143540609Y-82870814D01*
X143540602Y-82870827D01*
X143480264Y-83016498D01*
X143480261Y-83016508D01*
X143460961Y-83113536D01*
X143428576Y-83175447D01*
X143367860Y-83210021D01*
X143363536Y-83210961D01*
X143266508Y-83230261D01*
X143266498Y-83230264D01*
X143120827Y-83290602D01*
X143120814Y-83290609D01*
X142989711Y-83378210D01*
X142989707Y-83378213D01*
X142878213Y-83489707D01*
X142878210Y-83489711D01*
X142790609Y-83620814D01*
X142790602Y-83620827D01*
X142730264Y-83766498D01*
X142730261Y-83766510D01*
X142699500Y-83921153D01*
X142699500Y-84078846D01*
X142730261Y-84233489D01*
X142730264Y-84233501D01*
X142790602Y-84379172D01*
X142790609Y-84379185D01*
X142878210Y-84510288D01*
X142878213Y-84510292D01*
X142989707Y-84621786D01*
X142989711Y-84621789D01*
X143120814Y-84709390D01*
X143120818Y-84709392D01*
X143120821Y-84709394D01*
X143151103Y-84721937D01*
X143205505Y-84765777D01*
X143227571Y-84832071D01*
X143210292Y-84899770D01*
X143159156Y-84947381D01*
X143127842Y-84958115D01*
X143016508Y-84980261D01*
X143016498Y-84980264D01*
X142870827Y-85040602D01*
X142870814Y-85040609D01*
X142739711Y-85128210D01*
X142739707Y-85128213D01*
X142628213Y-85239707D01*
X142628210Y-85239711D01*
X142540609Y-85370814D01*
X142540602Y-85370827D01*
X142480264Y-85516498D01*
X142480261Y-85516510D01*
X142449500Y-85671153D01*
X142449500Y-85828846D01*
X142480261Y-85983489D01*
X142480264Y-85983501D01*
X142540602Y-86129172D01*
X142540610Y-86129187D01*
X142566962Y-86168624D01*
X142587841Y-86235301D01*
X142569357Y-86302682D01*
X142566964Y-86306405D01*
X142530611Y-86360812D01*
X142530602Y-86360828D01*
X142470264Y-86506498D01*
X142470261Y-86506510D01*
X142439500Y-86661153D01*
X138570500Y-86661153D01*
X138570500Y-86633713D01*
X138537246Y-86423757D01*
X138471557Y-86221588D01*
X138375051Y-86032184D01*
X138375049Y-86032181D01*
X138375048Y-86032179D01*
X138250109Y-85860213D01*
X138099786Y-85709890D01*
X137927820Y-85584951D01*
X137927115Y-85584591D01*
X137919054Y-85580485D01*
X137868259Y-85532512D01*
X137851463Y-85464692D01*
X137873999Y-85398556D01*
X137919054Y-85359515D01*
X137927816Y-85355051D01*
X137949789Y-85339086D01*
X138099786Y-85230109D01*
X138099788Y-85230106D01*
X138099792Y-85230104D01*
X138250104Y-85079792D01*
X138250106Y-85079788D01*
X138250109Y-85079786D01*
X138375048Y-84907820D01*
X138375047Y-84907820D01*
X138375051Y-84907816D01*
X138471557Y-84718412D01*
X138537246Y-84516243D01*
X138570500Y-84306287D01*
X138570500Y-84093713D01*
X138537246Y-83883757D01*
X138471557Y-83681588D01*
X138375051Y-83492184D01*
X138375049Y-83492181D01*
X138375048Y-83492179D01*
X138250109Y-83320213D01*
X138099786Y-83169890D01*
X137927820Y-83044951D01*
X137927115Y-83044591D01*
X137919054Y-83040485D01*
X137868259Y-82992512D01*
X137851463Y-82924692D01*
X137873999Y-82858556D01*
X137919054Y-82819515D01*
X137927816Y-82815051D01*
X137961467Y-82790602D01*
X138099786Y-82690109D01*
X138099788Y-82690106D01*
X138099792Y-82690104D01*
X138250104Y-82539792D01*
X138250106Y-82539788D01*
X138250109Y-82539786D01*
X138375048Y-82367820D01*
X138375047Y-82367820D01*
X138375051Y-82367816D01*
X138471557Y-82178412D01*
X138537246Y-81976243D01*
X138570500Y-81766287D01*
X138570500Y-81553713D01*
X138537246Y-81343757D01*
X138471557Y-81141588D01*
X138375051Y-80952184D01*
X138375049Y-80952181D01*
X138375048Y-80952179D01*
X138250109Y-80780213D01*
X138099786Y-80629890D01*
X137927820Y-80504951D01*
X137927115Y-80504591D01*
X137919054Y-80500485D01*
X137868259Y-80452512D01*
X137851463Y-80384692D01*
X137873999Y-80318556D01*
X137919054Y-80279515D01*
X137927816Y-80275051D01*
X137949789Y-80259086D01*
X138099786Y-80150109D01*
X138099788Y-80150106D01*
X138099792Y-80150104D01*
X138250104Y-79999792D01*
X138250106Y-79999788D01*
X138250109Y-79999786D01*
X138375048Y-79827820D01*
X138375047Y-79827820D01*
X138375051Y-79827816D01*
X138471557Y-79638412D01*
X138537246Y-79436243D01*
X138570500Y-79226287D01*
X138570500Y-79013713D01*
X138537246Y-78803757D01*
X138471557Y-78601588D01*
X138375051Y-78412184D01*
X138375049Y-78412181D01*
X138375048Y-78412179D01*
X138250109Y-78240213D01*
X138099786Y-78089890D01*
X137927820Y-77964951D01*
X137927115Y-77964591D01*
X137919054Y-77960485D01*
X137868259Y-77912512D01*
X137851463Y-77844692D01*
X137873999Y-77778556D01*
X137919054Y-77739515D01*
X137927816Y-77735051D01*
X137949789Y-77719086D01*
X138099786Y-77610109D01*
X138099788Y-77610106D01*
X138099792Y-77610104D01*
X138250104Y-77459792D01*
X138250106Y-77459788D01*
X138250109Y-77459786D01*
X138375048Y-77287820D01*
X138375047Y-77287820D01*
X138375051Y-77287816D01*
X138471557Y-77098412D01*
X138537246Y-76896243D01*
X138570500Y-76686287D01*
X138570500Y-76473713D01*
X138537246Y-76263757D01*
X138471557Y-76061588D01*
X138375051Y-75872184D01*
X138375049Y-75872181D01*
X138375048Y-75872179D01*
X138250109Y-75700213D01*
X138099786Y-75549890D01*
X137927820Y-75424951D01*
X137927115Y-75424591D01*
X137919054Y-75420485D01*
X137868259Y-75372512D01*
X137851463Y-75304692D01*
X137873999Y-75238556D01*
X137919054Y-75199515D01*
X137927816Y-75195051D01*
X137949789Y-75179086D01*
X138099786Y-75070109D01*
X138099788Y-75070106D01*
X138099792Y-75070104D01*
X138250104Y-74919792D01*
X138250106Y-74919788D01*
X138250109Y-74919786D01*
X138375048Y-74747820D01*
X138375047Y-74747820D01*
X138375051Y-74747816D01*
X138471557Y-74558412D01*
X138537246Y-74356243D01*
X138570500Y-74146287D01*
X138570500Y-73933713D01*
X138570500Y-73928841D01*
X138571674Y-73928841D01*
X138584899Y-73865861D01*
X138633947Y-73816100D01*
X138694158Y-73800500D01*
X138828844Y-73800500D01*
X138828845Y-73800499D01*
X138983497Y-73769737D01*
X139129179Y-73709394D01*
X139260289Y-73621789D01*
X139371789Y-73510289D01*
X139431348Y-73421153D01*
X141699500Y-73421153D01*
X141699500Y-73578846D01*
X141730261Y-73733489D01*
X141730264Y-73733501D01*
X141790602Y-73879172D01*
X141790609Y-73879185D01*
X141878210Y-74010288D01*
X141878213Y-74010292D01*
X141989707Y-74121786D01*
X141989711Y-74121789D01*
X142120814Y-74209390D01*
X142120827Y-74209397D01*
X142266498Y-74269735D01*
X142266503Y-74269737D01*
X142421153Y-74300499D01*
X142421156Y-74300500D01*
X142421158Y-74300500D01*
X142578844Y-74300500D01*
X142578845Y-74300499D01*
X142733497Y-74269737D01*
X142879179Y-74209394D01*
X143010289Y-74121789D01*
X143121789Y-74010289D01*
X143209394Y-73879179D01*
X143214911Y-73865861D01*
X143252342Y-73775493D01*
X143269737Y-73733497D01*
X143300500Y-73578842D01*
X143300500Y-73421158D01*
X143300500Y-73421155D01*
X143300499Y-73421153D01*
X143269738Y-73266510D01*
X143269737Y-73266503D01*
X143256062Y-73233489D01*
X143209397Y-73120827D01*
X143209390Y-73120814D01*
X143121789Y-72989711D01*
X143121786Y-72989707D01*
X143010292Y-72878213D01*
X143010288Y-72878210D01*
X142879185Y-72790609D01*
X142879172Y-72790602D01*
X142733501Y-72730264D01*
X142733489Y-72730261D01*
X142578845Y-72699500D01*
X142578842Y-72699500D01*
X142421158Y-72699500D01*
X142421155Y-72699500D01*
X142266510Y-72730261D01*
X142266498Y-72730264D01*
X142120827Y-72790602D01*
X142120814Y-72790609D01*
X141989711Y-72878210D01*
X141989707Y-72878213D01*
X141878213Y-72989707D01*
X141878210Y-72989711D01*
X141790609Y-73120814D01*
X141790602Y-73120827D01*
X141730264Y-73266498D01*
X141730261Y-73266510D01*
X141699500Y-73421153D01*
X139431348Y-73421153D01*
X139459394Y-73379179D01*
X139519737Y-73233497D01*
X139550500Y-73078842D01*
X139550500Y-72921158D01*
X139550500Y-72921155D01*
X139550499Y-72921153D01*
X139546945Y-72903286D01*
X139519737Y-72766503D01*
X139519735Y-72766498D01*
X139459397Y-72620827D01*
X139459390Y-72620814D01*
X139371789Y-72489711D01*
X139371786Y-72489707D01*
X139260292Y-72378213D01*
X139260288Y-72378210D01*
X139129185Y-72290609D01*
X139129172Y-72290602D01*
X138983501Y-72230264D01*
X138983489Y-72230261D01*
X138828845Y-72199500D01*
X138828842Y-72199500D01*
X138694499Y-72199500D01*
X138627460Y-72179815D01*
X138581705Y-72127011D01*
X138570499Y-72075500D01*
X138570499Y-70602129D01*
X138570498Y-70602123D01*
X138570497Y-70602116D01*
X138564091Y-70542517D01*
X138513796Y-70407669D01*
X138513795Y-70407668D01*
X138513793Y-70407664D01*
X138427547Y-70292455D01*
X138427544Y-70292452D01*
X138312335Y-70206206D01*
X138312328Y-70206202D01*
X138177482Y-70155908D01*
X138177483Y-70155908D01*
X138117883Y-70149501D01*
X138117881Y-70149500D01*
X138117873Y-70149500D01*
X138117864Y-70149500D01*
X136322129Y-70149500D01*
X136322123Y-70149501D01*
X136262516Y-70155908D01*
X136127671Y-70206202D01*
X136127664Y-70206206D01*
X136012455Y-70292452D01*
X136012452Y-70292455D01*
X135926206Y-70407664D01*
X135926202Y-70407671D01*
X135875908Y-70542517D01*
X135869501Y-70602116D01*
X135869501Y-70602123D01*
X135869500Y-70602135D01*
X133000500Y-70602135D01*
X133000500Y-66921153D01*
X133949500Y-66921153D01*
X133949500Y-67078846D01*
X133980261Y-67233489D01*
X133980264Y-67233501D01*
X134040602Y-67379172D01*
X134040609Y-67379185D01*
X134128210Y-67510288D01*
X134128213Y-67510292D01*
X134239707Y-67621786D01*
X134239711Y-67621789D01*
X134370814Y-67709390D01*
X134370827Y-67709397D01*
X134516498Y-67769735D01*
X134516503Y-67769737D01*
X134671153Y-67800499D01*
X134671156Y-67800500D01*
X134671158Y-67800500D01*
X134828844Y-67800500D01*
X134828845Y-67800499D01*
X134983497Y-67769737D01*
X135129179Y-67709394D01*
X135260289Y-67621789D01*
X135371789Y-67510289D01*
X135431348Y-67421153D01*
X140949500Y-67421153D01*
X140949500Y-67578846D01*
X140980261Y-67733489D01*
X140980264Y-67733501D01*
X141040602Y-67879172D01*
X141040609Y-67879185D01*
X141128210Y-68010288D01*
X141128213Y-68010292D01*
X141239707Y-68121786D01*
X141239711Y-68121789D01*
X141370814Y-68209390D01*
X141370827Y-68209397D01*
X141516498Y-68269735D01*
X141516503Y-68269737D01*
X141671153Y-68300499D01*
X141671156Y-68300500D01*
X141671158Y-68300500D01*
X141828844Y-68300500D01*
X141828845Y-68300499D01*
X141983497Y-68269737D01*
X142129179Y-68209394D01*
X142260289Y-68121789D01*
X142371789Y-68010289D01*
X142459394Y-67879179D01*
X142519737Y-67733497D01*
X142519840Y-67732980D01*
X146387673Y-67732980D01*
X146387673Y-67890673D01*
X146418434Y-68045316D01*
X146418437Y-68045328D01*
X146478775Y-68190999D01*
X146478782Y-68191012D01*
X146566383Y-68322115D01*
X146566386Y-68322119D01*
X146677880Y-68433613D01*
X146677884Y-68433616D01*
X146808987Y-68521217D01*
X146809000Y-68521224D01*
X146954671Y-68581562D01*
X146954676Y-68581564D01*
X147109326Y-68612326D01*
X147109329Y-68612327D01*
X147109331Y-68612327D01*
X147267017Y-68612327D01*
X147267018Y-68612326D01*
X147421670Y-68581564D01*
X147567352Y-68521221D01*
X147698462Y-68433616D01*
X147809962Y-68322116D01*
X147897567Y-68191006D01*
X147957910Y-68045324D01*
X147988673Y-67890669D01*
X147988673Y-67732985D01*
X147988673Y-67732982D01*
X147988672Y-67732980D01*
X147982649Y-67702701D01*
X147957910Y-67578330D01*
X147933640Y-67519737D01*
X147897570Y-67432654D01*
X147897563Y-67432641D01*
X147809962Y-67301538D01*
X147809959Y-67301534D01*
X147698465Y-67190040D01*
X147698461Y-67190037D01*
X147567358Y-67102436D01*
X147567345Y-67102429D01*
X147421674Y-67042091D01*
X147421662Y-67042088D01*
X147267018Y-67011327D01*
X147267015Y-67011327D01*
X147109331Y-67011327D01*
X147109328Y-67011327D01*
X146954683Y-67042088D01*
X146954671Y-67042091D01*
X146809000Y-67102429D01*
X146808987Y-67102436D01*
X146677884Y-67190037D01*
X146677880Y-67190040D01*
X146566386Y-67301534D01*
X146566383Y-67301538D01*
X146478782Y-67432641D01*
X146478775Y-67432654D01*
X146418437Y-67578325D01*
X146418434Y-67578337D01*
X146387673Y-67732980D01*
X142519840Y-67732980D01*
X142524531Y-67709397D01*
X142525863Y-67702702D01*
X142525863Y-67702701D01*
X142550500Y-67578844D01*
X142550500Y-67421155D01*
X142550499Y-67421153D01*
X142519738Y-67266510D01*
X142519737Y-67266503D01*
X142506062Y-67233489D01*
X142459397Y-67120827D01*
X142459390Y-67120814D01*
X142371789Y-66989711D01*
X142371786Y-66989707D01*
X142260292Y-66878213D01*
X142260288Y-66878210D01*
X142129185Y-66790609D01*
X142129172Y-66790602D01*
X141983501Y-66730264D01*
X141983489Y-66730261D01*
X141828845Y-66699500D01*
X141828842Y-66699500D01*
X141671158Y-66699500D01*
X141671155Y-66699500D01*
X141516510Y-66730261D01*
X141516498Y-66730264D01*
X141370827Y-66790602D01*
X141370814Y-66790609D01*
X141239711Y-66878210D01*
X141239707Y-66878213D01*
X141128213Y-66989707D01*
X141128210Y-66989711D01*
X141040609Y-67120814D01*
X141040602Y-67120827D01*
X140980264Y-67266498D01*
X140980261Y-67266510D01*
X140949500Y-67421153D01*
X135431348Y-67421153D01*
X135459394Y-67379179D01*
X135519737Y-67233497D01*
X135550500Y-67078842D01*
X135550500Y-66921158D01*
X135550500Y-66921155D01*
X135550499Y-66921153D01*
X135524531Y-66790606D01*
X135519737Y-66766503D01*
X135519735Y-66766498D01*
X135459397Y-66620827D01*
X135459390Y-66620814D01*
X135371789Y-66489711D01*
X135371786Y-66489707D01*
X135260292Y-66378213D01*
X135260288Y-66378210D01*
X135129185Y-66290609D01*
X135129172Y-66290602D01*
X134983501Y-66230264D01*
X134983489Y-66230261D01*
X134828845Y-66199500D01*
X134828842Y-66199500D01*
X134671158Y-66199500D01*
X134671155Y-66199500D01*
X134516510Y-66230261D01*
X134516498Y-66230264D01*
X134370827Y-66290602D01*
X134370814Y-66290609D01*
X134239711Y-66378210D01*
X134239707Y-66378213D01*
X134128213Y-66489707D01*
X134128210Y-66489711D01*
X134040609Y-66620814D01*
X134040602Y-66620827D01*
X133980264Y-66766498D01*
X133980261Y-66766510D01*
X133949500Y-66921153D01*
X133000500Y-66921153D01*
X133000500Y-65171153D01*
X141699500Y-65171153D01*
X141699500Y-65328846D01*
X141730261Y-65483489D01*
X141730264Y-65483501D01*
X141790602Y-65629172D01*
X141790609Y-65629185D01*
X141878210Y-65760288D01*
X141878213Y-65760292D01*
X141989710Y-65871789D01*
X142120815Y-65959390D01*
X142120821Y-65959394D01*
X142122945Y-65960274D01*
X142123885Y-65961031D01*
X142126192Y-65962264D01*
X142125958Y-65962701D01*
X142177349Y-66004107D01*
X142199421Y-66070399D01*
X142199500Y-66074837D01*
X142199500Y-66078846D01*
X142230261Y-66233489D01*
X142230264Y-66233501D01*
X142290602Y-66379172D01*
X142290609Y-66379185D01*
X142378210Y-66510288D01*
X142378213Y-66510292D01*
X142489707Y-66621786D01*
X142489711Y-66621789D01*
X142620814Y-66709390D01*
X142620827Y-66709397D01*
X142758683Y-66766498D01*
X142766503Y-66769737D01*
X142921153Y-66800499D01*
X142921156Y-66800500D01*
X142921158Y-66800500D01*
X143078844Y-66800500D01*
X143078845Y-66800499D01*
X143233497Y-66769737D01*
X143379179Y-66709394D01*
X143510289Y-66621789D01*
X143621789Y-66510289D01*
X143709394Y-66379179D01*
X143712854Y-66370827D01*
X143740083Y-66305089D01*
X143769737Y-66233497D01*
X143800500Y-66078842D01*
X143800500Y-65921158D01*
X143800500Y-65921155D01*
X143800499Y-65921153D01*
X143783784Y-65837121D01*
X143769737Y-65766503D01*
X143737464Y-65688588D01*
X143709397Y-65620827D01*
X143709390Y-65620814D01*
X143621789Y-65489711D01*
X143621786Y-65489707D01*
X143510292Y-65378213D01*
X143510288Y-65378210D01*
X143507358Y-65376252D01*
X148485360Y-65376252D01*
X148485360Y-65533945D01*
X148516121Y-65688588D01*
X148516124Y-65688600D01*
X148576462Y-65834271D01*
X148576469Y-65834284D01*
X148664070Y-65965387D01*
X148664073Y-65965391D01*
X148775567Y-66076885D01*
X148775571Y-66076888D01*
X148906674Y-66164489D01*
X148906687Y-66164496D01*
X148980223Y-66194955D01*
X149034627Y-66238795D01*
X149056692Y-66305089D01*
X149042790Y-66365132D01*
X149042937Y-66365193D01*
X149042573Y-66366071D01*
X149042137Y-66367955D01*
X149040606Y-66370818D01*
X148980264Y-66516498D01*
X148980261Y-66516510D01*
X148949500Y-66671153D01*
X148949500Y-66828846D01*
X148980261Y-66983489D01*
X148980264Y-66983501D01*
X149040602Y-67129172D01*
X149040609Y-67129185D01*
X149128210Y-67260288D01*
X149128213Y-67260292D01*
X149239707Y-67371786D01*
X149239711Y-67371789D01*
X149370814Y-67459390D01*
X149370827Y-67459397D01*
X149516498Y-67519735D01*
X149516503Y-67519737D01*
X149671153Y-67550499D01*
X149671156Y-67550500D01*
X149671158Y-67550500D01*
X149828844Y-67550500D01*
X149828845Y-67550499D01*
X149983497Y-67519737D01*
X150129179Y-67459394D01*
X150260289Y-67371789D01*
X150371789Y-67260289D01*
X150459394Y-67129179D01*
X150462854Y-67120827D01*
X150495468Y-67042088D01*
X150519737Y-66983497D01*
X150550500Y-66828842D01*
X150550500Y-66671158D01*
X150550500Y-66671155D01*
X150550499Y-66671153D01*
X150519738Y-66516510D01*
X150519737Y-66516503D01*
X150517163Y-66510288D01*
X150459397Y-66370827D01*
X150459390Y-66370814D01*
X150371789Y-66239711D01*
X150371786Y-66239707D01*
X150260292Y-66128213D01*
X150260288Y-66128210D01*
X150129185Y-66040609D01*
X150129176Y-66040604D01*
X150055635Y-66010143D01*
X150001232Y-65966302D01*
X149979167Y-65900008D01*
X149993074Y-65839969D01*
X149992923Y-65839907D01*
X149993298Y-65838999D01*
X149993734Y-65837121D01*
X149995257Y-65834272D01*
X150055595Y-65688600D01*
X150055597Y-65688596D01*
X150086360Y-65533941D01*
X150086360Y-65376257D01*
X150086360Y-65376254D01*
X150086359Y-65376252D01*
X150076929Y-65328846D01*
X150055597Y-65221602D01*
X150034703Y-65171158D01*
X149995257Y-65075926D01*
X149995250Y-65075913D01*
X149907649Y-64944810D01*
X149907646Y-64944806D01*
X149796152Y-64833312D01*
X149796148Y-64833309D01*
X149665045Y-64745708D01*
X149665032Y-64745701D01*
X149519361Y-64685363D01*
X149519349Y-64685360D01*
X149364705Y-64654599D01*
X149364702Y-64654599D01*
X149207018Y-64654599D01*
X149207015Y-64654599D01*
X149052370Y-64685360D01*
X149052358Y-64685363D01*
X148906687Y-64745701D01*
X148906674Y-64745708D01*
X148775571Y-64833309D01*
X148775567Y-64833312D01*
X148664073Y-64944806D01*
X148664070Y-64944810D01*
X148576469Y-65075913D01*
X148576462Y-65075926D01*
X148516124Y-65221597D01*
X148516121Y-65221609D01*
X148485360Y-65376252D01*
X143507358Y-65376252D01*
X143379185Y-65290609D01*
X143379169Y-65290601D01*
X143377038Y-65289718D01*
X143376094Y-65288957D01*
X143373809Y-65287736D01*
X143374040Y-65287302D01*
X143322638Y-65245873D01*
X143300579Y-65179577D01*
X143300500Y-65175161D01*
X143300500Y-65171155D01*
X143300499Y-65171153D01*
X143269738Y-65016510D01*
X143269737Y-65016503D01*
X143240041Y-64944810D01*
X143209397Y-64870827D01*
X143209390Y-64870814D01*
X143121789Y-64739711D01*
X143121786Y-64739707D01*
X143010292Y-64628213D01*
X143010288Y-64628210D01*
X142879185Y-64540609D01*
X142879173Y-64540602D01*
X142852674Y-64529627D01*
X142733501Y-64480264D01*
X142733489Y-64480261D01*
X142578845Y-64449500D01*
X142578842Y-64449500D01*
X142421158Y-64449500D01*
X142421155Y-64449500D01*
X142266510Y-64480261D01*
X142266498Y-64480264D01*
X142120827Y-64540602D01*
X142120814Y-64540609D01*
X141989711Y-64628210D01*
X141989707Y-64628213D01*
X141878213Y-64739707D01*
X141878210Y-64739711D01*
X141790609Y-64870814D01*
X141790602Y-64870827D01*
X141730264Y-65016498D01*
X141730261Y-65016510D01*
X141699500Y-65171153D01*
X133000500Y-65171153D01*
X133000500Y-63921153D01*
X137449500Y-63921153D01*
X137449500Y-64078846D01*
X137480261Y-64233489D01*
X137480264Y-64233501D01*
X137540602Y-64379172D01*
X137540609Y-64379185D01*
X137628210Y-64510288D01*
X137628213Y-64510292D01*
X137739707Y-64621786D01*
X137739711Y-64621789D01*
X137870814Y-64709390D01*
X137870827Y-64709397D01*
X137958484Y-64745705D01*
X138016503Y-64769737D01*
X138171153Y-64800499D01*
X138171156Y-64800500D01*
X138171158Y-64800500D01*
X138328844Y-64800500D01*
X138328845Y-64800499D01*
X138483497Y-64769737D01*
X138629179Y-64709394D01*
X138760289Y-64621789D01*
X138871789Y-64510289D01*
X138931348Y-64421153D01*
X145449500Y-64421153D01*
X145449500Y-64578846D01*
X145480261Y-64733489D01*
X145480264Y-64733501D01*
X145540602Y-64879172D01*
X145540609Y-64879185D01*
X145628210Y-65010288D01*
X145628213Y-65010292D01*
X145739707Y-65121786D01*
X145739711Y-65121789D01*
X145870814Y-65209390D01*
X145870827Y-65209397D01*
X146016498Y-65269735D01*
X146016503Y-65269737D01*
X146171153Y-65300499D01*
X146171156Y-65300500D01*
X146171158Y-65300500D01*
X146328844Y-65300500D01*
X146328845Y-65300499D01*
X146483497Y-65269737D01*
X146502496Y-65261867D01*
X146517618Y-65255604D01*
X146629172Y-65209397D01*
X146629172Y-65209396D01*
X146629179Y-65209394D01*
X146760289Y-65121789D01*
X146871789Y-65010289D01*
X146959394Y-64879179D01*
X146962854Y-64870827D01*
X146991984Y-64800499D01*
X147019737Y-64733497D01*
X147050500Y-64578842D01*
X147050500Y-64421158D01*
X147050500Y-64421155D01*
X147050499Y-64421153D01*
X147019738Y-64266510D01*
X147019737Y-64266503D01*
X146959794Y-64121786D01*
X146959397Y-64120827D01*
X146959390Y-64120814D01*
X146871789Y-63989711D01*
X146871786Y-63989707D01*
X146760292Y-63878213D01*
X146760288Y-63878210D01*
X146629185Y-63790609D01*
X146629172Y-63790602D01*
X146483501Y-63730264D01*
X146483489Y-63730261D01*
X146328845Y-63699500D01*
X146328842Y-63699500D01*
X146171158Y-63699500D01*
X146171155Y-63699500D01*
X146016510Y-63730261D01*
X146016498Y-63730264D01*
X145870827Y-63790602D01*
X145870814Y-63790609D01*
X145739711Y-63878210D01*
X145739707Y-63878213D01*
X145628213Y-63989707D01*
X145628210Y-63989711D01*
X145540609Y-64120814D01*
X145540602Y-64120827D01*
X145480264Y-64266498D01*
X145480261Y-64266510D01*
X145449500Y-64421153D01*
X138931348Y-64421153D01*
X138959394Y-64379179D01*
X139019737Y-64233497D01*
X139050500Y-64078842D01*
X139050500Y-63921158D01*
X139050500Y-63921155D01*
X139050499Y-63921153D01*
X139024531Y-63790606D01*
X139019737Y-63766503D01*
X139010721Y-63744736D01*
X138959397Y-63620827D01*
X138959390Y-63620814D01*
X138871789Y-63489711D01*
X138871786Y-63489707D01*
X138760292Y-63378213D01*
X138760288Y-63378210D01*
X138629185Y-63290609D01*
X138629175Y-63290604D01*
X138598896Y-63278062D01*
X138544493Y-63234221D01*
X138522428Y-63167926D01*
X138539708Y-63100227D01*
X138590845Y-63052617D01*
X138622158Y-63041884D01*
X138644241Y-63037491D01*
X138733497Y-63019737D01*
X138879179Y-62959394D01*
X139010289Y-62871789D01*
X139121789Y-62760289D01*
X139172643Y-62684181D01*
X139226255Y-62639376D01*
X139295580Y-62630669D01*
X139358607Y-62660823D01*
X139395327Y-62720266D01*
X139397362Y-62777263D01*
X139368740Y-62921153D01*
X139368740Y-63078846D01*
X139399501Y-63233489D01*
X139399504Y-63233501D01*
X139459842Y-63379172D01*
X139459849Y-63379185D01*
X139547450Y-63510288D01*
X139547453Y-63510292D01*
X139658947Y-63621786D01*
X139658951Y-63621789D01*
X139790054Y-63709390D01*
X139790067Y-63709397D01*
X139875387Y-63744737D01*
X139935743Y-63769737D01*
X140090393Y-63800499D01*
X140090396Y-63800500D01*
X140090398Y-63800500D01*
X140248084Y-63800500D01*
X140248085Y-63800499D01*
X140402737Y-63769737D01*
X140548419Y-63709394D01*
X140679529Y-63621789D01*
X140791029Y-63510289D01*
X140850588Y-63421153D01*
X149349500Y-63421153D01*
X149349500Y-63578846D01*
X149380261Y-63733489D01*
X149380264Y-63733501D01*
X149440602Y-63879172D01*
X149440609Y-63879185D01*
X149528210Y-64010288D01*
X149528213Y-64010292D01*
X149639707Y-64121786D01*
X149639711Y-64121789D01*
X149770814Y-64209390D01*
X149770827Y-64209397D01*
X149908683Y-64266498D01*
X149916503Y-64269737D01*
X150071153Y-64300499D01*
X150071156Y-64300500D01*
X150071158Y-64300500D01*
X150228844Y-64300500D01*
X150228845Y-64300499D01*
X150383497Y-64269737D01*
X150529179Y-64209394D01*
X150660289Y-64121789D01*
X150771789Y-64010289D01*
X150859394Y-63879179D01*
X150878995Y-63831855D01*
X150922833Y-63777452D01*
X150969360Y-63757690D01*
X151034485Y-63744737D01*
X151180167Y-63684394D01*
X151311277Y-63596789D01*
X151422777Y-63485289D01*
X151510382Y-63354179D01*
X151570725Y-63208497D01*
X151601488Y-63053842D01*
X151601488Y-62896158D01*
X151601488Y-62896155D01*
X151601487Y-62896153D01*
X151574462Y-62760292D01*
X151570725Y-62741503D01*
X151565244Y-62728271D01*
X151510385Y-62595827D01*
X151510378Y-62595814D01*
X151422777Y-62464711D01*
X151422774Y-62464707D01*
X151311280Y-62353213D01*
X151311276Y-62353210D01*
X151180173Y-62265609D01*
X151180164Y-62265604D01*
X151058051Y-62215024D01*
X151003648Y-62171183D01*
X150981583Y-62104889D01*
X150990942Y-62053014D01*
X151019737Y-61983497D01*
X151050500Y-61828842D01*
X151050500Y-61671158D01*
X151050500Y-61671155D01*
X151050499Y-61671153D01*
X151024531Y-61540606D01*
X151019737Y-61516503D01*
X151019735Y-61516498D01*
X150959397Y-61370827D01*
X150959390Y-61370814D01*
X150871789Y-61239711D01*
X150871786Y-61239707D01*
X150760292Y-61128213D01*
X150760288Y-61128210D01*
X150629185Y-61040609D01*
X150629172Y-61040602D01*
X150483501Y-60980264D01*
X150483489Y-60980261D01*
X150328845Y-60949500D01*
X150328842Y-60949500D01*
X150171158Y-60949500D01*
X150171155Y-60949500D01*
X150016510Y-60980261D01*
X150016498Y-60980264D01*
X149870827Y-61040602D01*
X149870814Y-61040609D01*
X149739711Y-61128210D01*
X149739707Y-61128213D01*
X149628213Y-61239707D01*
X149628210Y-61239711D01*
X149540609Y-61370814D01*
X149540602Y-61370827D01*
X149480264Y-61516498D01*
X149480261Y-61516510D01*
X149449500Y-61671153D01*
X149449500Y-61828846D01*
X149480261Y-61983489D01*
X149480264Y-61983501D01*
X149540602Y-62129172D01*
X149540609Y-62129185D01*
X149628210Y-62260288D01*
X149628213Y-62260292D01*
X149739707Y-62371786D01*
X149739711Y-62371789D01*
X149870814Y-62459390D01*
X149870821Y-62459394D01*
X149949768Y-62492094D01*
X150004170Y-62535934D01*
X150026236Y-62602228D01*
X150008957Y-62669927D01*
X149957821Y-62717538D01*
X149926512Y-62728271D01*
X149916511Y-62730260D01*
X149916498Y-62730264D01*
X149770827Y-62790602D01*
X149770814Y-62790609D01*
X149639711Y-62878210D01*
X149639707Y-62878213D01*
X149528213Y-62989707D01*
X149528210Y-62989711D01*
X149440609Y-63120814D01*
X149440602Y-63120827D01*
X149380264Y-63266498D01*
X149380261Y-63266510D01*
X149349500Y-63421153D01*
X140850588Y-63421153D01*
X140878634Y-63379179D01*
X140938977Y-63233497D01*
X140969740Y-63078842D01*
X140969740Y-62921158D01*
X140969740Y-62921155D01*
X140969739Y-62921153D01*
X140964767Y-62896158D01*
X140938977Y-62766503D01*
X140928620Y-62741498D01*
X140878637Y-62620827D01*
X140878630Y-62620814D01*
X140791029Y-62489711D01*
X140791026Y-62489707D01*
X140679532Y-62378213D01*
X140679528Y-62378210D01*
X140548425Y-62290609D01*
X140548412Y-62290602D01*
X140402741Y-62230264D01*
X140402729Y-62230261D01*
X140248085Y-62199500D01*
X140248082Y-62199500D01*
X140090398Y-62199500D01*
X140090395Y-62199500D01*
X139935750Y-62230261D01*
X139935738Y-62230264D01*
X139790067Y-62290602D01*
X139790054Y-62290609D01*
X139658951Y-62378210D01*
X139658947Y-62378213D01*
X139547453Y-62489707D01*
X139547448Y-62489713D01*
X139496595Y-62565819D01*
X139442982Y-62610624D01*
X139373657Y-62619330D01*
X139310630Y-62589174D01*
X139273912Y-62529731D01*
X139271877Y-62472738D01*
X139295653Y-62353210D01*
X139300500Y-62328844D01*
X139300500Y-62171155D01*
X139300499Y-62171153D01*
X139287318Y-62104889D01*
X139269737Y-62016503D01*
X139256062Y-61983489D01*
X139209397Y-61870827D01*
X139209390Y-61870814D01*
X139121789Y-61739711D01*
X139121786Y-61739707D01*
X139010292Y-61628213D01*
X139010288Y-61628210D01*
X138879185Y-61540609D01*
X138879172Y-61540602D01*
X138733501Y-61480264D01*
X138733489Y-61480261D01*
X138578845Y-61449500D01*
X138578842Y-61449500D01*
X138421158Y-61449500D01*
X138421155Y-61449500D01*
X138266510Y-61480261D01*
X138266498Y-61480264D01*
X138120827Y-61540602D01*
X138120814Y-61540609D01*
X137989711Y-61628210D01*
X137989707Y-61628213D01*
X137878213Y-61739707D01*
X137878210Y-61739711D01*
X137790609Y-61870814D01*
X137790602Y-61870827D01*
X137730264Y-62016498D01*
X137730261Y-62016510D01*
X137699500Y-62171153D01*
X137699500Y-62328846D01*
X137730261Y-62483489D01*
X137730264Y-62483501D01*
X137790602Y-62629172D01*
X137790609Y-62629185D01*
X137878210Y-62760288D01*
X137878213Y-62760292D01*
X137989707Y-62871786D01*
X137989711Y-62871789D01*
X138120814Y-62959390D01*
X138120818Y-62959392D01*
X138120821Y-62959394D01*
X138151103Y-62971937D01*
X138205505Y-63015777D01*
X138227571Y-63082071D01*
X138210292Y-63149770D01*
X138159156Y-63197381D01*
X138127842Y-63208115D01*
X138016508Y-63230261D01*
X138016498Y-63230264D01*
X137870827Y-63290602D01*
X137870814Y-63290609D01*
X137739711Y-63378210D01*
X137739707Y-63378213D01*
X137628213Y-63489707D01*
X137628210Y-63489711D01*
X137540609Y-63620814D01*
X137540602Y-63620827D01*
X137480264Y-63766498D01*
X137480261Y-63766510D01*
X137449500Y-63921153D01*
X133000500Y-63921153D01*
X133000500Y-60671153D01*
X135199500Y-60671153D01*
X135199500Y-60828846D01*
X135230261Y-60983489D01*
X135230264Y-60983501D01*
X135290602Y-61129172D01*
X135290609Y-61129185D01*
X135378210Y-61260288D01*
X135378213Y-61260292D01*
X135489707Y-61371786D01*
X135489711Y-61371789D01*
X135620814Y-61459390D01*
X135620827Y-61459397D01*
X135758683Y-61516498D01*
X135766503Y-61519737D01*
X135921153Y-61550499D01*
X135921156Y-61550500D01*
X135921158Y-61550500D01*
X136078844Y-61550500D01*
X136078845Y-61550499D01*
X136233497Y-61519737D01*
X136379179Y-61459394D01*
X136510289Y-61371789D01*
X136621789Y-61260289D01*
X136709394Y-61129179D01*
X136769737Y-60983497D01*
X136800500Y-60828842D01*
X136800500Y-60671158D01*
X136800500Y-60671155D01*
X136800499Y-60671153D01*
X136795245Y-60644738D01*
X136769737Y-60516503D01*
X136769732Y-60516492D01*
X136767969Y-60510676D01*
X136769249Y-60510287D01*
X136762516Y-60447623D01*
X136793795Y-60385145D01*
X136853886Y-60349496D01*
X136908741Y-60348030D01*
X136921156Y-60350500D01*
X136921158Y-60350500D01*
X137078844Y-60350500D01*
X137078845Y-60350499D01*
X137233497Y-60319737D01*
X137379179Y-60259394D01*
X137510289Y-60171789D01*
X137621789Y-60060289D01*
X137709394Y-59929179D01*
X137709395Y-59929176D01*
X137709397Y-59929173D01*
X137712719Y-59921153D01*
X148699500Y-59921153D01*
X148699500Y-60078846D01*
X148730261Y-60233489D01*
X148730264Y-60233501D01*
X148790602Y-60379172D01*
X148790609Y-60379185D01*
X148878210Y-60510288D01*
X148878213Y-60510292D01*
X148989707Y-60621786D01*
X148989711Y-60621789D01*
X149120814Y-60709390D01*
X149120827Y-60709397D01*
X149266498Y-60769735D01*
X149266503Y-60769737D01*
X149421153Y-60800499D01*
X149421156Y-60800500D01*
X149421158Y-60800500D01*
X149578844Y-60800500D01*
X149578845Y-60800499D01*
X149733497Y-60769737D01*
X149879179Y-60709394D01*
X150010289Y-60621789D01*
X150055087Y-60576991D01*
X150116410Y-60543505D01*
X150186101Y-60548489D01*
X150211660Y-60561569D01*
X150245814Y-60584390D01*
X150245827Y-60584397D01*
X150336101Y-60621789D01*
X150391503Y-60644737D01*
X150546153Y-60675499D01*
X150546156Y-60675500D01*
X150546158Y-60675500D01*
X150703844Y-60675500D01*
X150703845Y-60675499D01*
X150858497Y-60644737D01*
X151004179Y-60584394D01*
X151135289Y-60496789D01*
X151246789Y-60385289D01*
X151334394Y-60254179D01*
X151340389Y-60239707D01*
X151386571Y-60128211D01*
X151394737Y-60108497D01*
X151425500Y-59953842D01*
X151425500Y-59796158D01*
X151425500Y-59796155D01*
X151425499Y-59796153D01*
X151394738Y-59641510D01*
X151394737Y-59641503D01*
X151386170Y-59620821D01*
X151334397Y-59495827D01*
X151334390Y-59495814D01*
X151246789Y-59364711D01*
X151246786Y-59364707D01*
X151135292Y-59253213D01*
X151135288Y-59253210D01*
X151004185Y-59165609D01*
X151004172Y-59165602D01*
X150858501Y-59105264D01*
X150858489Y-59105261D01*
X150703845Y-59074500D01*
X150703842Y-59074500D01*
X150546158Y-59074500D01*
X150546155Y-59074500D01*
X150391510Y-59105261D01*
X150391498Y-59105264D01*
X150245827Y-59165602D01*
X150245814Y-59165609D01*
X150114711Y-59253210D01*
X150114706Y-59253214D01*
X150069910Y-59298010D01*
X150008587Y-59331494D01*
X149938895Y-59326509D01*
X149913340Y-59313431D01*
X149879183Y-59290608D01*
X149879172Y-59290602D01*
X149733501Y-59230264D01*
X149733489Y-59230261D01*
X149578845Y-59199500D01*
X149578842Y-59199500D01*
X149421158Y-59199500D01*
X149421155Y-59199500D01*
X149266510Y-59230261D01*
X149266498Y-59230264D01*
X149120827Y-59290602D01*
X149120814Y-59290609D01*
X148989711Y-59378210D01*
X148989707Y-59378213D01*
X148878213Y-59489707D01*
X148878210Y-59489711D01*
X148790609Y-59620814D01*
X148790602Y-59620827D01*
X148730264Y-59766498D01*
X148730261Y-59766510D01*
X148699500Y-59921153D01*
X137712719Y-59921153D01*
X137734895Y-59867614D01*
X137734895Y-59867613D01*
X137769737Y-59783497D01*
X137800500Y-59628842D01*
X137800500Y-59471158D01*
X137800500Y-59471155D01*
X137782012Y-59378213D01*
X137778237Y-59359235D01*
X137784464Y-59289647D01*
X137827326Y-59234469D01*
X137852398Y-59220486D01*
X137879179Y-59209394D01*
X138010289Y-59121789D01*
X138121789Y-59010289D01*
X138209394Y-58879179D01*
X138269737Y-58733497D01*
X138300500Y-58578842D01*
X138300500Y-58421158D01*
X138300500Y-58421155D01*
X138300499Y-58421153D01*
X138269738Y-58266510D01*
X138269737Y-58266503D01*
X138269735Y-58266498D01*
X138209397Y-58120827D01*
X138209390Y-58120814D01*
X138121789Y-57989711D01*
X138121786Y-57989707D01*
X138010292Y-57878213D01*
X138010288Y-57878210D01*
X137879185Y-57790609D01*
X137879178Y-57790605D01*
X137875451Y-57789062D01*
X137821047Y-57745222D01*
X137798981Y-57678928D01*
X137816259Y-57611229D01*
X137867395Y-57563617D01*
X137922902Y-57550500D01*
X138078844Y-57550500D01*
X138078845Y-57550499D01*
X138233497Y-57519737D01*
X138346166Y-57473067D01*
X138379172Y-57459397D01*
X138379172Y-57459396D01*
X138379179Y-57459394D01*
X138510289Y-57371789D01*
X138621789Y-57260289D01*
X138709394Y-57129179D01*
X138769737Y-56983497D01*
X138800500Y-56828842D01*
X138800500Y-56671158D01*
X138800500Y-56671155D01*
X138800499Y-56671153D01*
X138769738Y-56516510D01*
X138769737Y-56516503D01*
X138730242Y-56421153D01*
X138709397Y-56370827D01*
X138709390Y-56370814D01*
X138621790Y-56239712D01*
X138621784Y-56239705D01*
X138553232Y-56171153D01*
X149449500Y-56171153D01*
X149449500Y-56328846D01*
X149480261Y-56483489D01*
X149480264Y-56483501D01*
X149540602Y-56629172D01*
X149540609Y-56629185D01*
X149628210Y-56760288D01*
X149628213Y-56760292D01*
X149739707Y-56871786D01*
X149739711Y-56871789D01*
X149870814Y-56959390D01*
X149870827Y-56959397D01*
X150016498Y-57019735D01*
X150016503Y-57019737D01*
X150171153Y-57050499D01*
X150171156Y-57050500D01*
X150171158Y-57050500D01*
X150328844Y-57050500D01*
X150328845Y-57050499D01*
X150483497Y-57019737D01*
X150629179Y-56959394D01*
X150760289Y-56871789D01*
X150871789Y-56760289D01*
X150959394Y-56629179D01*
X151019737Y-56483497D01*
X151050500Y-56328842D01*
X151050500Y-56171158D01*
X151050500Y-56171155D01*
X151050499Y-56171153D01*
X151024531Y-56040606D01*
X151019737Y-56016503D01*
X151013389Y-56001178D01*
X150959397Y-55870827D01*
X150959390Y-55870814D01*
X150871789Y-55739711D01*
X150871786Y-55739707D01*
X150760292Y-55628213D01*
X150760288Y-55628210D01*
X150629185Y-55540609D01*
X150629172Y-55540602D01*
X150483501Y-55480264D01*
X150483489Y-55480261D01*
X150328845Y-55449500D01*
X150328842Y-55449500D01*
X150171158Y-55449500D01*
X150171155Y-55449500D01*
X150016510Y-55480261D01*
X150016498Y-55480264D01*
X149870827Y-55540602D01*
X149870814Y-55540609D01*
X149739711Y-55628210D01*
X149739707Y-55628213D01*
X149628213Y-55739707D01*
X149628210Y-55739711D01*
X149540609Y-55870814D01*
X149540602Y-55870827D01*
X149480264Y-56016498D01*
X149480261Y-56016510D01*
X149449500Y-56171153D01*
X138553232Y-56171153D01*
X138510292Y-56128213D01*
X138510288Y-56128210D01*
X138379185Y-56040609D01*
X138379172Y-56040602D01*
X138233501Y-55980264D01*
X138233489Y-55980261D01*
X138078845Y-55949500D01*
X138078842Y-55949500D01*
X137921158Y-55949500D01*
X137921155Y-55949500D01*
X137766511Y-55980260D01*
X137766501Y-55980263D01*
X137734041Y-55993709D01*
X137664571Y-56001178D01*
X137602092Y-55969902D01*
X137598908Y-55966829D01*
X137510292Y-55878213D01*
X137510288Y-55878210D01*
X137379185Y-55790609D01*
X137379172Y-55790602D01*
X137233501Y-55730264D01*
X137233489Y-55730261D01*
X137078845Y-55699500D01*
X137078842Y-55699500D01*
X136921158Y-55699500D01*
X136921155Y-55699500D01*
X136766510Y-55730261D01*
X136766498Y-55730264D01*
X136620827Y-55790602D01*
X136620814Y-55790609D01*
X136489711Y-55878210D01*
X136489707Y-55878213D01*
X136378213Y-55989707D01*
X136378210Y-55989711D01*
X136290609Y-56120814D01*
X136290602Y-56120827D01*
X136230264Y-56266498D01*
X136230261Y-56266510D01*
X136199500Y-56421153D01*
X136199500Y-56578846D01*
X136230261Y-56733489D01*
X136230264Y-56733501D01*
X136290602Y-56879172D01*
X136290609Y-56879185D01*
X136378210Y-57010288D01*
X136378213Y-57010292D01*
X136489707Y-57121786D01*
X136489711Y-57121789D01*
X136620814Y-57209390D01*
X136620827Y-57209397D01*
X136766498Y-57269735D01*
X136766503Y-57269737D01*
X136921153Y-57300499D01*
X136921156Y-57300500D01*
X136921158Y-57300500D01*
X137078844Y-57300500D01*
X137078845Y-57300499D01*
X137233497Y-57269737D01*
X137265959Y-57256290D01*
X137335423Y-57248821D01*
X137397903Y-57280093D01*
X137401091Y-57283170D01*
X137489707Y-57371786D01*
X137489711Y-57371789D01*
X137620814Y-57459390D01*
X137620821Y-57459394D01*
X137624549Y-57460938D01*
X137678953Y-57504778D01*
X137701019Y-57571072D01*
X137683741Y-57638771D01*
X137632605Y-57686383D01*
X137577098Y-57699500D01*
X137421155Y-57699500D01*
X137266510Y-57730261D01*
X137266498Y-57730264D01*
X137120827Y-57790602D01*
X137120814Y-57790609D01*
X136989711Y-57878210D01*
X136989707Y-57878213D01*
X136878213Y-57989707D01*
X136878210Y-57989711D01*
X136790609Y-58120814D01*
X136790602Y-58120827D01*
X136730264Y-58266498D01*
X136730261Y-58266510D01*
X136699500Y-58421153D01*
X136699500Y-58578846D01*
X136721761Y-58690762D01*
X136715534Y-58760354D01*
X136672670Y-58815531D01*
X136647599Y-58829513D01*
X136620826Y-58840603D01*
X136620814Y-58840609D01*
X136489711Y-58928210D01*
X136489707Y-58928213D01*
X136378213Y-59039707D01*
X136378210Y-59039711D01*
X136290609Y-59170814D01*
X136290602Y-59170827D01*
X136230264Y-59316498D01*
X136230261Y-59316510D01*
X136199500Y-59471153D01*
X136199500Y-59628846D01*
X136230261Y-59783489D01*
X136232031Y-59789324D01*
X136230751Y-59789712D01*
X136237480Y-59852388D01*
X136206196Y-59914863D01*
X136146101Y-59950506D01*
X136091263Y-59951970D01*
X136078845Y-59949500D01*
X136078842Y-59949500D01*
X135921158Y-59949500D01*
X135921155Y-59949500D01*
X135766510Y-59980261D01*
X135766498Y-59980264D01*
X135620827Y-60040602D01*
X135620814Y-60040609D01*
X135489711Y-60128210D01*
X135489707Y-60128213D01*
X135378213Y-60239707D01*
X135378210Y-60239711D01*
X135290609Y-60370814D01*
X135290602Y-60370827D01*
X135230264Y-60516498D01*
X135230261Y-60516510D01*
X135199500Y-60671153D01*
X133000500Y-60671153D01*
X133000500Y-53921153D01*
X136199500Y-53921153D01*
X136199500Y-54078846D01*
X136230261Y-54233489D01*
X136230264Y-54233501D01*
X136290602Y-54379172D01*
X136290609Y-54379185D01*
X136378210Y-54510288D01*
X136378213Y-54510292D01*
X136489707Y-54621786D01*
X136489711Y-54621789D01*
X136620814Y-54709390D01*
X136620827Y-54709397D01*
X136766498Y-54769735D01*
X136766503Y-54769737D01*
X136921153Y-54800499D01*
X136921156Y-54800500D01*
X136921158Y-54800500D01*
X137078844Y-54800500D01*
X137078845Y-54800499D01*
X137233497Y-54769737D01*
X137379179Y-54709394D01*
X137510289Y-54621789D01*
X137621789Y-54510289D01*
X137709394Y-54379179D01*
X137769737Y-54233497D01*
X137800500Y-54078842D01*
X137800500Y-53921158D01*
X137800500Y-53921155D01*
X137800499Y-53921153D01*
X137769738Y-53766510D01*
X137769737Y-53766503D01*
X137769735Y-53766498D01*
X137709397Y-53620827D01*
X137709390Y-53620814D01*
X137621789Y-53489711D01*
X137621786Y-53489707D01*
X137510292Y-53378213D01*
X137510288Y-53378210D01*
X137379185Y-53290609D01*
X137379172Y-53290602D01*
X137233501Y-53230264D01*
X137233489Y-53230261D01*
X137078845Y-53199500D01*
X137078842Y-53199500D01*
X136921158Y-53199500D01*
X136921155Y-53199500D01*
X136766510Y-53230261D01*
X136766498Y-53230264D01*
X136620827Y-53290602D01*
X136620814Y-53290609D01*
X136489711Y-53378210D01*
X136489707Y-53378213D01*
X136378213Y-53489707D01*
X136378210Y-53489711D01*
X136290609Y-53620814D01*
X136290602Y-53620827D01*
X136230264Y-53766498D01*
X136230261Y-53766510D01*
X136199500Y-53921153D01*
X133000500Y-53921153D01*
X133000500Y-52171153D01*
X135449500Y-52171153D01*
X135449500Y-52328846D01*
X135480261Y-52483489D01*
X135480264Y-52483501D01*
X135540602Y-52629172D01*
X135540609Y-52629185D01*
X135628210Y-52760288D01*
X135628213Y-52760292D01*
X135739707Y-52871786D01*
X135739711Y-52871789D01*
X135870814Y-52959390D01*
X135870827Y-52959397D01*
X136016498Y-53019735D01*
X136016503Y-53019737D01*
X136171153Y-53050499D01*
X136171156Y-53050500D01*
X136171158Y-53050500D01*
X136328844Y-53050500D01*
X136328845Y-53050499D01*
X136483497Y-53019737D01*
X136629179Y-52959394D01*
X136760289Y-52871789D01*
X136871789Y-52760289D01*
X136959394Y-52629179D01*
X137019737Y-52483497D01*
X137039038Y-52386460D01*
X137071422Y-52324553D01*
X137132138Y-52289979D01*
X137136400Y-52289050D01*
X137233497Y-52269737D01*
X137379179Y-52209394D01*
X137510289Y-52121789D01*
X137575115Y-52056962D01*
X137636436Y-52023479D01*
X137706128Y-52028463D01*
X137762062Y-52070334D01*
X137777356Y-52097191D01*
X137790606Y-52129179D01*
X137790609Y-52129185D01*
X137878210Y-52260288D01*
X137878213Y-52260292D01*
X137989707Y-52371786D01*
X137989711Y-52371789D01*
X138120814Y-52459390D01*
X138120827Y-52459397D01*
X138266498Y-52519735D01*
X138266503Y-52519737D01*
X138421153Y-52550499D01*
X138421156Y-52550500D01*
X138421158Y-52550500D01*
X138578844Y-52550500D01*
X138578845Y-52550499D01*
X138733497Y-52519737D01*
X138879179Y-52459394D01*
X139010289Y-52371789D01*
X139121789Y-52260289D01*
X139209394Y-52129179D01*
X139269737Y-51983497D01*
X139300500Y-51828842D01*
X139300500Y-51671158D01*
X139300500Y-51671155D01*
X139300499Y-51671153D01*
X139274531Y-51540606D01*
X139269737Y-51516503D01*
X139269735Y-51516498D01*
X139209397Y-51370827D01*
X139209390Y-51370814D01*
X139121789Y-51239711D01*
X139121786Y-51239707D01*
X139010292Y-51128213D01*
X139010288Y-51128210D01*
X138879185Y-51040609D01*
X138879172Y-51040602D01*
X138733501Y-50980264D01*
X138733489Y-50980261D01*
X138578845Y-50949500D01*
X138578842Y-50949500D01*
X138421158Y-50949500D01*
X138421155Y-50949500D01*
X138266510Y-50980261D01*
X138266498Y-50980264D01*
X138120827Y-51040602D01*
X138120814Y-51040609D01*
X137989711Y-51128210D01*
X137924885Y-51193036D01*
X137863561Y-51226520D01*
X137793870Y-51221535D01*
X137737936Y-51179664D01*
X137722643Y-51152806D01*
X137709397Y-51120827D01*
X137709390Y-51120814D01*
X137621789Y-50989711D01*
X137621786Y-50989707D01*
X137510292Y-50878213D01*
X137510288Y-50878210D01*
X137379185Y-50790609D01*
X137379173Y-50790602D01*
X137352674Y-50779627D01*
X137233501Y-50730264D01*
X137233489Y-50730261D01*
X137078845Y-50699500D01*
X137078842Y-50699500D01*
X136921158Y-50699500D01*
X136921155Y-50699500D01*
X136766510Y-50730261D01*
X136766498Y-50730264D01*
X136620827Y-50790602D01*
X136620814Y-50790609D01*
X136489711Y-50878210D01*
X136489707Y-50878213D01*
X136378213Y-50989707D01*
X136378210Y-50989711D01*
X136290609Y-51120814D01*
X136290602Y-51120827D01*
X136230264Y-51266498D01*
X136230261Y-51266508D01*
X136210961Y-51363536D01*
X136178576Y-51425447D01*
X136117860Y-51460021D01*
X136113536Y-51460961D01*
X136016508Y-51480261D01*
X136016498Y-51480264D01*
X135870827Y-51540602D01*
X135870814Y-51540609D01*
X135739711Y-51628210D01*
X135739707Y-51628213D01*
X135628213Y-51739707D01*
X135628210Y-51739711D01*
X135540609Y-51870814D01*
X135540602Y-51870827D01*
X135480264Y-52016498D01*
X135480261Y-52016510D01*
X135449500Y-52171153D01*
X133000500Y-52171153D01*
X133000500Y-50671153D01*
X149699500Y-50671153D01*
X149699500Y-50828846D01*
X149730261Y-50983489D01*
X149730264Y-50983501D01*
X149790602Y-51129172D01*
X149790609Y-51129185D01*
X149878210Y-51260288D01*
X149878213Y-51260292D01*
X149905240Y-51287319D01*
X149938725Y-51348642D01*
X149933741Y-51418334D01*
X149905240Y-51462681D01*
X149878213Y-51489707D01*
X149878210Y-51489711D01*
X149790609Y-51620814D01*
X149790602Y-51620827D01*
X149730264Y-51766498D01*
X149730261Y-51766510D01*
X149699500Y-51921153D01*
X149699500Y-52078846D01*
X149730261Y-52233489D01*
X149730264Y-52233501D01*
X149790602Y-52379172D01*
X149790609Y-52379185D01*
X149878210Y-52510288D01*
X149878213Y-52510292D01*
X149989707Y-52621786D01*
X149989711Y-52621789D01*
X150120814Y-52709390D01*
X150120827Y-52709397D01*
X150266498Y-52769735D01*
X150266503Y-52769737D01*
X150421153Y-52800499D01*
X150421156Y-52800500D01*
X150421158Y-52800500D01*
X150578844Y-52800500D01*
X150578845Y-52800499D01*
X150733497Y-52769737D01*
X150879179Y-52709394D01*
X151010289Y-52621789D01*
X151121789Y-52510289D01*
X151209394Y-52379179D01*
X151269737Y-52233497D01*
X151300500Y-52078842D01*
X151300500Y-51921158D01*
X151300500Y-51921155D01*
X151300499Y-51921153D01*
X151269738Y-51766510D01*
X151269737Y-51766503D01*
X151269735Y-51766498D01*
X151209397Y-51620827D01*
X151209390Y-51620814D01*
X151121789Y-51489711D01*
X151121786Y-51489707D01*
X151094760Y-51462681D01*
X151061275Y-51401358D01*
X151066259Y-51331666D01*
X151094760Y-51287319D01*
X151121786Y-51260292D01*
X151121789Y-51260289D01*
X151209394Y-51129179D01*
X151212854Y-51120827D01*
X151223067Y-51096166D01*
X151269737Y-50983497D01*
X151300500Y-50828842D01*
X151300500Y-50671158D01*
X151300500Y-50671155D01*
X151300499Y-50671153D01*
X151269738Y-50516510D01*
X151269737Y-50516503D01*
X151269735Y-50516498D01*
X151209397Y-50370827D01*
X151209390Y-50370814D01*
X151121789Y-50239711D01*
X151121786Y-50239707D01*
X151010292Y-50128213D01*
X151010288Y-50128210D01*
X150879185Y-50040609D01*
X150879172Y-50040602D01*
X150733501Y-49980264D01*
X150733489Y-49980261D01*
X150578845Y-49949500D01*
X150578842Y-49949500D01*
X150421158Y-49949500D01*
X150421155Y-49949500D01*
X150266510Y-49980261D01*
X150266498Y-49980264D01*
X150120827Y-50040602D01*
X150120814Y-50040609D01*
X149989711Y-50128210D01*
X149989707Y-50128213D01*
X149878213Y-50239707D01*
X149878210Y-50239711D01*
X149790609Y-50370814D01*
X149790602Y-50370827D01*
X149730264Y-50516498D01*
X149730261Y-50516510D01*
X149699500Y-50671153D01*
X133000500Y-50671153D01*
X133000500Y-48174500D01*
X133020185Y-48107461D01*
X133072989Y-48061706D01*
X133124500Y-48050500D01*
X153975500Y-48050500D01*
X154042539Y-48070185D01*
G37*
%TD.AperFunction*%
%TD*%
M02*
