%TF.GenerationSoftware,KiCad,Pcbnew,10.0.1*%
%TF.CreationDate,2026-09-18T13:35:24+03:00*%
%TF.ProjectId,EuroPlatvorm,4575726f-506c-4617-9476-6f726d2e6b69,rev?*%
%TF.SameCoordinates,Original*%
%TF.FileFunction,Copper,L1,Top*%
%TF.FilePolarity,Positive*%
%FSLAX46Y46*%
G04 Gerber Fmt 4.6, Leading zero omitted, Abs format (unit mm)*
G04 Created by KiCad (PCBNEW 10.0.1) date 2026-09-18 13:35:24*
%MOMM*%
%LPD*%
G01*
G04 APERTURE LIST*
G04 Aperture macros list*
%AMRoundRect*
0 Rectangle with rounded corners*
0 $1 Rounding radius*
0 $2 $3 $4 $5 $6 $7 $8 $9 X,Y pos of 4 corners*
0 Add a 4 corners polygon primitive as box body*
4,1,4,$2,$3,$4,$5,$6,$7,$8,$9,$2,$3,0*
0 Add four circle primitives for the rounded corners*
1,1,$1+$1,$2,$3*
1,1,$1+$1,$4,$5*
1,1,$1+$1,$6,$7*
1,1,$1+$1,$8,$9*
0 Add four rect primitives between the rounded corners*
20,1,$1+$1,$2,$3,$4,$5,0*
20,1,$1+$1,$4,$5,$6,$7,0*
20,1,$1+$1,$6,$7,$8,$9,0*
20,1,$1+$1,$8,$9,$2,$3,0*%
%AMFreePoly0*
4,1,17,0.185355,0.685443,0.200000,0.650088,0.200000,-0.649935,0.185355,-0.685290,0.150000,-0.699935,0.000318,-0.699935,-0.000051,-0.700088,-0.300050,-0.700088,-0.335405,-0.685443,-0.350050,-0.650088,-0.350050,0.649935,-0.335405,0.685290,-0.300050,0.699935,-0.000445,0.699935,-0.000076,0.700088,0.150000,0.700088,0.185355,0.685443,0.185355,0.685443,$1*%
%AMFreePoly1*
4,1,17,0.275355,0.685290,0.290000,0.649935,0.290000,-0.650037,0.275355,-0.685392,0.240000,-0.700037,0.000187,-0.700037,0.000127,-0.700062,-0.200000,-0.700062,-0.235355,-0.685417,-0.250000,-0.650062,-0.250000,0.649910,-0.235355,0.685265,-0.200000,0.699910,-0.000009,0.699910,0.000051,0.699935,0.240000,0.699935,0.275355,0.685290,0.275355,0.685290,$1*%
%AMFreePoly2*
4,1,13,0.335227,0.685443,0.349872,0.650088,0.349872,-0.649884,0.335227,-0.685239,0.299872,-0.699884,-0.150000,-0.699884,-0.185355,-0.685239,-0.200000,-0.649884,-0.200000,0.650088,-0.185355,0.685443,-0.150000,0.700088,0.299872,0.700088,0.335227,0.685443,0.335227,0.685443,$1*%
%AMFreePoly3*
4,1,13,0.235355,0.685443,0.250000,0.650088,0.250000,-0.649884,0.235355,-0.685239,0.200000,-0.699884,-0.240000,-0.699884,-0.275355,-0.685239,-0.290000,-0.649884,-0.290000,0.650088,-0.275355,0.685443,-0.240000,0.700088,0.200000,0.700088,0.235355,0.685443,0.235355,0.685443,$1*%
G04 Aperture macros list end*
%TA.AperFunction,ComponentPad*%
%ADD10R,1.700000X1.700000*%
%TD*%
%TA.AperFunction,ComponentPad*%
%ADD11C,1.700000*%
%TD*%
%TA.AperFunction,SMDPad,CuDef*%
%ADD12RoundRect,0.225000X-0.250000X0.225000X-0.250000X-0.225000X0.250000X-0.225000X0.250000X0.225000X0*%
%TD*%
%TA.AperFunction,SMDPad,CuDef*%
%ADD13RoundRect,0.200000X-0.275000X0.200000X-0.275000X-0.200000X0.275000X-0.200000X0.275000X0.200000X0*%
%TD*%
%TA.AperFunction,SMDPad,CuDef*%
%ADD14RoundRect,0.200000X0.275000X-0.200000X0.275000X0.200000X-0.275000X0.200000X-0.275000X-0.200000X0*%
%TD*%
%TA.AperFunction,SMDPad,CuDef*%
%ADD15RoundRect,0.225000X0.225000X0.250000X-0.225000X0.250000X-0.225000X-0.250000X0.225000X-0.250000X0*%
%TD*%
%TA.AperFunction,SMDPad,CuDef*%
%ADD16RoundRect,0.250000X0.475000X-0.250000X0.475000X0.250000X-0.475000X0.250000X-0.475000X-0.250000X0*%
%TD*%
%TA.AperFunction,SMDPad,CuDef*%
%ADD17RoundRect,0.250000X-0.375000X-0.625000X0.375000X-0.625000X0.375000X0.625000X-0.375000X0.625000X0*%
%TD*%
%TA.AperFunction,SMDPad,CuDef*%
%ADD18RoundRect,0.250000X-0.475000X0.250000X-0.475000X-0.250000X0.475000X-0.250000X0.475000X0.250000X0*%
%TD*%
%TA.AperFunction,SMDPad,CuDef*%
%ADD19RoundRect,0.150000X-0.150000X0.512500X-0.150000X-0.512500X0.150000X-0.512500X0.150000X0.512500X0*%
%TD*%
%TA.AperFunction,ComponentPad*%
%ADD20O,1.200000X2.000000*%
%TD*%
%TA.AperFunction,ComponentPad*%
%ADD21O,1.200000X1.800000*%
%TD*%
%TA.AperFunction,SMDPad,CuDef*%
%ADD22FreePoly0,0.000000*%
%TD*%
%TA.AperFunction,SMDPad,CuDef*%
%ADD23FreePoly1,0.000000*%
%TD*%
%TA.AperFunction,SMDPad,CuDef*%
%ADD24R,0.300000X1.300000*%
%TD*%
%TA.AperFunction,SMDPad,CuDef*%
%ADD25FreePoly2,0.000000*%
%TD*%
%TA.AperFunction,SMDPad,CuDef*%
%ADD26FreePoly3,0.000000*%
%TD*%
%TA.AperFunction,SMDPad,CuDef*%
%ADD27R,1.000000X0.750000*%
%TD*%
%TA.AperFunction,SMDPad,CuDef*%
%ADD28RoundRect,0.140000X0.170000X-0.140000X0.170000X0.140000X-0.170000X0.140000X-0.170000X-0.140000X0*%
%TD*%
%TA.AperFunction,SMDPad,CuDef*%
%ADD29RoundRect,0.218750X0.256250X-0.218750X0.256250X0.218750X-0.256250X0.218750X-0.256250X-0.218750X0*%
%TD*%
%TA.AperFunction,SMDPad,CuDef*%
%ADD30RoundRect,0.375000X-0.625000X-0.375000X0.625000X-0.375000X0.625000X0.375000X-0.625000X0.375000X0*%
%TD*%
%TA.AperFunction,SMDPad,CuDef*%
%ADD31RoundRect,0.500000X-0.500000X-1.400000X0.500000X-1.400000X0.500000X1.400000X-0.500000X1.400000X0*%
%TD*%
%TA.AperFunction,SMDPad,CuDef*%
%ADD32R,1.500000X0.900000*%
%TD*%
%TA.AperFunction,SMDPad,CuDef*%
%ADD33R,0.800000X0.800000*%
%TD*%
%TA.AperFunction,SMDPad,CuDef*%
%ADD34RoundRect,0.250000X-0.650000X1.000000X-0.650000X-1.000000X0.650000X-1.000000X0.650000X1.000000X0*%
%TD*%
%TA.AperFunction,SMDPad,CuDef*%
%ADD35RoundRect,0.250000X-0.650000X0.325000X-0.650000X-0.325000X0.650000X-0.325000X0.650000X0.325000X0*%
%TD*%
%TA.AperFunction,SMDPad,CuDef*%
%ADD36RoundRect,0.150000X0.512500X0.150000X-0.512500X0.150000X-0.512500X-0.150000X0.512500X-0.150000X0*%
%TD*%
%TA.AperFunction,SMDPad,CuDef*%
%ADD37R,2.200000X5.720000*%
%TD*%
%TA.AperFunction,SMDPad,CuDef*%
%ADD38RoundRect,0.200000X-0.200000X-0.275000X0.200000X-0.275000X0.200000X0.275000X-0.200000X0.275000X0*%
%TD*%
%TA.AperFunction,ViaPad*%
%ADD39C,0.600000*%
%TD*%
%TA.AperFunction,ViaPad*%
%ADD40C,0.800000*%
%TD*%
%TA.AperFunction,Conductor*%
%ADD41C,1.000000*%
%TD*%
%TA.AperFunction,Conductor*%
%ADD42C,0.300000*%
%TD*%
%TA.AperFunction,Conductor*%
%ADD43C,0.200000*%
%TD*%
%TA.AperFunction,Conductor*%
%ADD44C,0.500000*%
%TD*%
G04 APERTURE END LIST*
D10*
%TO.P,J1,1,Pin_1_1*%
%TO.N,/-12V*%
X142460000Y-99590000D03*
D11*
%TO.P,J1,2,Pin_2_2*%
X145000000Y-99590000D03*
%TO.P,J1,3,Pin_3_3*%
%TO.N,GND*%
X142460000Y-102130000D03*
%TO.P,J1,4,Pin_4_4*%
X145000000Y-102130000D03*
%TO.P,J1,5,Pin_5_5*%
X142460000Y-104670000D03*
%TO.P,J1,6,Pin_6_6*%
X145000000Y-104670000D03*
%TO.P,J1,7,Pin_7_7*%
X142460000Y-107210000D03*
%TO.P,J1,8,Pin_8_8*%
X145000000Y-107210000D03*
%TO.P,J1,9,Pin_9_9*%
%TO.N,+12V*%
X142460000Y-109750000D03*
%TO.P,J1,10,Pin_10_10*%
X145000000Y-109750000D03*
%TD*%
D12*
%TO.P,C2,1*%
%TO.N,Net-(D1-K)*%
X135600000Y-115000000D03*
%TO.P,C2,2*%
%TO.N,GND*%
X135600000Y-116550000D03*
%TD*%
D13*
%TO.P,R5,1*%
%TO.N,+3V3*%
X145250000Y-71600000D03*
%TO.P,R5,2*%
%TO.N,Net-(U4-EN{slash}CHIP_PU)*%
X145250000Y-73250000D03*
%TD*%
D14*
%TO.P,R1,1*%
%TO.N,+3V3*%
X137700000Y-119925000D03*
%TO.P,R1,2*%
%TO.N,Net-(U1-FB)*%
X137700000Y-118275000D03*
%TD*%
D15*
%TO.P,C9,1*%
%TO.N,Net-(U4-EN{slash}CHIP_PU)*%
X144750000Y-70000000D03*
%TO.P,C9,2*%
%TO.N,GND*%
X143200000Y-70000000D03*
%TD*%
D13*
%TO.P,R6,1*%
%TO.N,+3V3*%
X146750000Y-87600000D03*
%TO.P,R6,2*%
%TO.N,/GPIO9*%
X146750000Y-89250000D03*
%TD*%
D16*
%TO.P,C8,1*%
%TO.N,+3V3*%
X138660000Y-124900000D03*
%TO.P,C8,2*%
%TO.N,GND*%
X138660000Y-123000000D03*
%TD*%
D17*
%TO.P,F2,1*%
%TO.N,/VBUS*%
X134660000Y-135200000D03*
%TO.P,F2,2*%
%TO.N,Net-(F2-Pad2)*%
X137460000Y-135200000D03*
%TD*%
D18*
%TO.P,C5,1*%
%TO.N,+3V3*%
X152000000Y-113800000D03*
%TO.P,C5,2*%
%TO.N,GND*%
X152000000Y-115700000D03*
%TD*%
D19*
%TO.P,U3,1,I/O1_1*%
%TO.N,/USB_DP*%
X137312500Y-128725000D03*
%TO.P,U3,2,GND_2*%
%TO.N,GND*%
X136362500Y-128725000D03*
%TO.P,U3,3,I/O2_3*%
%TO.N,/USB_DM*%
X135412500Y-128725000D03*
%TO.P,U3,4,I/O2_4*%
X135412500Y-131000000D03*
%TO.P,U3,5,VBUS_5*%
%TO.N,/VBUS*%
X136362500Y-131000000D03*
%TO.P,U3,6,I/O1_6*%
%TO.N,/USB_DP*%
X137312500Y-131000000D03*
%TD*%
D15*
%TO.P,C3,1*%
%TO.N,Net-(U1-SW)*%
X141175000Y-120100000D03*
%TO.P,C3,2*%
%TO.N,Net-(U1-BOOT)*%
X139625000Y-120100000D03*
%TD*%
D20*
%TO.P,J2,1,SHIELD_1*%
%TO.N,GND*%
X148060000Y-131570000D03*
D21*
%TO.P,J2,2,SHIELD_2*%
X148060000Y-135750000D03*
%TO.P,J2,3,SHIELD_3*%
X139400000Y-135750000D03*
D20*
%TO.P,J2,4,SHIELD_4*%
X139400000Y-131570000D03*
D22*
%TO.P,J2,A1B12,GND_A1B12*%
X140530000Y-130810000D03*
D23*
%TO.P,J2,A4B9,VBUS_A4B9*%
%TO.N,Net-(F2-Pad2)*%
X141330000Y-130810000D03*
D24*
%TO.P,J2,A5,CC1_A5*%
%TO.N,Net-(J2-CC1)*%
X142480000Y-130810000D03*
%TO.P,J2,A6,D+_A6*%
%TO.N,/USB_DP*%
X143480000Y-130810000D03*
%TO.P,J2,A7,D-_A7*%
%TO.N,/USB_DM*%
X143980000Y-130810000D03*
%TO.P,J2,A8,SBU1_A8*%
%TO.N,unconnected-(J2-SBU1-PadA8)*%
X144980000Y-130810000D03*
D25*
%TO.P,J2,B1A12,GND_B1A12*%
%TO.N,GND*%
X146930000Y-130810000D03*
D26*
%TO.P,J2,B4A9,VBUS_B4A9*%
%TO.N,Net-(F2-Pad2)*%
X146130000Y-130810000D03*
D24*
%TO.P,J2,B5,CC2_B5*%
%TO.N,Net-(J2-CC2)*%
X145480000Y-130810000D03*
%TO.P,J2,B6,D+_B6*%
%TO.N,/USB_DP*%
X144480000Y-130810000D03*
%TO.P,J2,B7,D-_B7*%
%TO.N,/USB_DM*%
X142980000Y-130810000D03*
%TO.P,J2,B8,SBU2_B8*%
%TO.N,unconnected-(J2-SBU2-PadB8)*%
X141980000Y-130810000D03*
%TD*%
D27*
%TO.P,SW2,1,~_1*%
%TO.N,/GPIO9*%
X146750000Y-94350000D03*
X146750000Y-90650000D03*
%TO.P,SW2,2,~_2*%
%TO.N,GND*%
X140750000Y-94350000D03*
X140750000Y-90650000D03*
%TD*%
%TO.P,SW1,1,~_1*%
%TO.N,GND*%
X140500000Y-75050000D03*
X140500000Y-78750000D03*
%TO.P,SW1,2,~_2*%
%TO.N,Net-(U4-EN{slash}CHIP_PU)*%
X146500000Y-75050000D03*
X146500000Y-78750000D03*
%TD*%
D28*
%TO.P,C11,1*%
%TO.N,GND*%
X133700000Y-51600000D03*
%TO.P,C11,2*%
%TO.N,+3V3*%
X133700000Y-50640000D03*
%TD*%
D15*
%TO.P,C6,1*%
%TO.N,+3V3*%
X141475000Y-113900000D03*
%TO.P,C6,2*%
%TO.N,Net-(U1-FB)*%
X139925000Y-113900000D03*
%TD*%
D17*
%TO.P,F1,1*%
%TO.N,+12V*%
X149760000Y-109100000D03*
%TO.P,F1,2*%
%TO.N,Net-(D1-A)*%
X152560000Y-109100000D03*
%TD*%
D29*
%TO.P,D2,1,K_1*%
%TO.N,GND*%
X139750000Y-110575000D03*
%TO.P,D2,2,A_2*%
%TO.N,Net-(D2-A)*%
X139750000Y-109000000D03*
%TD*%
D18*
%TO.P,C4,1*%
%TO.N,+3V3*%
X152000000Y-118200000D03*
%TO.P,C4,2*%
%TO.N,GND*%
X152000000Y-120100000D03*
%TD*%
D30*
%TO.P,U2,1,GND_1*%
%TO.N,GND*%
X141460000Y-122800000D03*
%TO.P,U2,2,VO_2*%
%TO.N,+3V3*%
X141460000Y-125100000D03*
D31*
X147760000Y-125100000D03*
D30*
%TO.P,U2,3,VI_3*%
%TO.N,/VBUS*%
X141460000Y-127400000D03*
%TD*%
D16*
%TO.P,C7,1*%
%TO.N,/VBUS*%
X136060000Y-124900000D03*
%TO.P,C7,2*%
%TO.N,GND*%
X136060000Y-123000000D03*
%TD*%
D13*
%TO.P,R8,1*%
%TO.N,+3V3*%
X139750000Y-105750000D03*
%TO.P,R8,2*%
%TO.N,Net-(D2-A)*%
X139750000Y-107400000D03*
%TD*%
D14*
%TO.P,R7,1*%
%TO.N,+3V3*%
X147750000Y-103750000D03*
%TO.P,R7,2*%
%TO.N,/GPIO8*%
X147750000Y-102100000D03*
%TD*%
D32*
%TO.P,U4,1,GND_1*%
%TO.N,GND*%
X135260000Y-49390000D03*
%TO.P,U4,2,3V3_2*%
%TO.N,+3V3*%
X135260000Y-50660000D03*
%TO.P,U4,3,EN/CHIP_PU_3*%
%TO.N,Net-(U4-EN{slash}CHIP_PU)*%
X135260000Y-51930000D03*
%TO.P,U4,4,MTMS/GPIO4/ADC1_CH4_4*%
%TO.N,/GPIO4*%
X135260000Y-53200000D03*
%TO.P,U4,5,MTDI/GPIO5/ADC1_CH5_5*%
%TO.N,/GPIO5*%
X135260000Y-54470000D03*
%TO.P,U4,6,MTCK/GPIO6/ADC1_CH6_6*%
%TO.N,/GPIO6*%
X135260000Y-55740000D03*
%TO.P,U4,7,MTDO/GPIO7_7*%
%TO.N,/GPIO7*%
X135260000Y-57010000D03*
%TO.P,U4,8,GPIO0/ADC1_CH0/XTAL_32K_P_8*%
%TO.N,/GPIO0*%
X135260000Y-58280000D03*
%TO.P,U4,9,GPIO1/ADC1_CH1/XTAL_32K_N_9*%
%TO.N,/GPIO1*%
X135260000Y-59550000D03*
%TO.P,U4,10,GPIO8_10*%
%TO.N,/GPIO8*%
X135260000Y-60820000D03*
%TO.P,U4,11,GPIO10_11*%
%TO.N,/GPIO10*%
X135260000Y-62090000D03*
%TO.P,U4,12,GPIO11_12*%
%TO.N,/GPIO11*%
X135260000Y-63360000D03*
%TO.P,U4,13,GPIO12/USB_D-_13*%
%TO.N,/USB_DM*%
X135260000Y-64630000D03*
%TO.P,U4,14,GPIO13/USB_D+_14*%
%TO.N,/USB_DP*%
X135260000Y-65900000D03*
%TO.P,U4,15,GPIO9_15*%
%TO.N,/GPIO9*%
X152760000Y-65900000D03*
%TO.P,U4,16,GPIO18_16*%
%TO.N,/GPIO18*%
X152760000Y-64630000D03*
%TO.P,U4,17,GPIO19_17*%
%TO.N,/GPIO19*%
X152760000Y-63360000D03*
%TO.P,U4,18,GPIO20_18*%
%TO.N,/GPIO20*%
X152760000Y-62090000D03*
%TO.P,U4,19,GPIO21_19*%
%TO.N,/GPIO21*%
X152760000Y-60820000D03*
%TO.P,U4,20,GPIO22_20*%
%TO.N,/GPIO22*%
X152760000Y-59550000D03*
%TO.P,U4,21,GPIO23_21*%
%TO.N,/GPIO23*%
X152760000Y-58280000D03*
%TO.P,U4,22,NC_22*%
%TO.N,unconnected-(U4-NC-Pad22)*%
X152760000Y-57010000D03*
%TO.P,U4,23,GPIO15_23*%
%TO.N,/GPIO15*%
X152760000Y-55740000D03*
%TO.P,U4,24,U0RXD/GPIO17_24*%
%TO.N,/GPIO17*%
X152760000Y-54470000D03*
%TO.P,U4,25,U0TXD/GPIO16_25*%
%TO.N,/GPIO16*%
X152760000Y-53200000D03*
%TO.P,U4,26,GPIO3/ADC1_CH3_26*%
%TO.N,/GPIO3*%
X152760000Y-51930000D03*
%TO.P,U4,27,GPIO2/ADC1_CH2_27*%
%TO.N,/GPIO2*%
X152760000Y-50660000D03*
%TO.P,U4,28,GND_28*%
%TO.N,GND*%
X152760000Y-49390000D03*
D33*
%TO.P,U4,29,GND_29*%
X141255000Y-53860000D03*
X141255000Y-55110000D03*
X141255000Y-56360000D03*
X142505000Y-53860000D03*
X142505000Y-55110000D03*
X142505000Y-56360000D03*
X143755000Y-53860000D03*
X143755000Y-55110000D03*
X143755000Y-56360000D03*
%TD*%
D34*
%TO.P,D1,1,K_1*%
%TO.N,Net-(D1-K)*%
X136500000Y-108250000D03*
%TO.P,D1,2,A_2*%
%TO.N,Net-(D1-A)*%
X136500000Y-112250000D03*
%TD*%
D35*
%TO.P,C1,1*%
%TO.N,Net-(D1-K)*%
X135600000Y-118425000D03*
%TO.P,C1,2*%
%TO.N,GND*%
X135600000Y-121375000D03*
%TD*%
D36*
%TO.P,U1,1,GND_1*%
%TO.N,GND*%
X141900000Y-117800000D03*
%TO.P,U1,2,SW_2*%
%TO.N,Net-(U1-SW)*%
X141900000Y-116850000D03*
%TO.P,U1,3,VIN_3*%
%TO.N,Net-(D1-K)*%
X141900000Y-115900000D03*
%TO.P,U1,4,FB_4*%
%TO.N,Net-(U1-FB)*%
X139625000Y-115900000D03*
%TO.P,U1,5,EN_5*%
%TO.N,unconnected-(U1-EN-Pad5)*%
X139625000Y-116850000D03*
%TO.P,U1,6,BOOT_6*%
%TO.N,Net-(U1-BOOT)*%
X139625000Y-117800000D03*
%TD*%
D37*
%TO.P,L1,1,~_1*%
%TO.N,Net-(U1-SW)*%
X144100000Y-116700000D03*
%TO.P,L1,2,~_2*%
%TO.N,+3V3*%
X149100000Y-116700000D03*
%TD*%
D38*
%TO.P,R4,1*%
%TO.N,Net-(J2-CC2)*%
X150810000Y-127900000D03*
%TO.P,R4,2*%
%TO.N,GND*%
X152460000Y-127900000D03*
%TD*%
%TO.P,R3,1*%
%TO.N,Net-(J2-CC1)*%
X150810000Y-124700000D03*
%TO.P,R3,2*%
%TO.N,GND*%
X152460000Y-124700000D03*
%TD*%
D16*
%TO.P,C10,1*%
%TO.N,GND*%
X140100000Y-73000000D03*
%TO.P,C10,2*%
%TO.N,+3V3*%
X140100000Y-71100000D03*
%TD*%
D14*
%TO.P,R2,1*%
%TO.N,Net-(U1-FB)*%
X137600000Y-116600000D03*
%TO.P,R2,2*%
%TO.N,GND*%
X137600000Y-114950000D03*
%TD*%
D10*
%TO.P,J4,1,Pin_1_1*%
%TO.N,/GPIO23*%
X149900000Y-71500000D03*
D11*
%TO.P,J4,2,Pin_2_2*%
%TO.N,/GPIO22*%
X149900000Y-74040000D03*
%TO.P,J4,3,Pin_3_3*%
%TO.N,/GPIO21*%
X149900000Y-76580000D03*
%TO.P,J4,4,Pin_4_4*%
%TO.N,/GPIO20*%
X149900000Y-79120000D03*
%TO.P,J4,5,Pin_5_5*%
%TO.N,/GPIO19*%
X149900000Y-81660000D03*
%TO.P,J4,6,Pin_6_6*%
%TO.N,/GPIO18*%
X149900000Y-84200000D03*
%TO.P,J4,7,Pin_7_7*%
%TO.N,/GPIO17*%
X149900000Y-86740000D03*
%TO.P,J4,8,Pin_8_8*%
%TO.N,/GPIO16*%
X149900000Y-89280000D03*
%TO.P,J4,9,Pin_9_9*%
%TO.N,/GPIO15*%
X149900000Y-91820000D03*
%TO.P,J4,10,Pin_10_10*%
%TO.N,/GPIO11*%
X149900000Y-94360000D03*
%TO.P,J4,11,Pin_11_11*%
%TO.N,/GPIO10*%
X149900000Y-96900000D03*
%TO.P,J4,12,Pin_12_12*%
%TO.N,/GPIO9*%
X149900000Y-99440000D03*
%TO.P,J4,13,Pin_13_13*%
%TO.N,/GPIO8*%
X149900000Y-101980000D03*
%TO.P,J4,14,Pin_14_14*%
%TO.N,GND*%
X149900000Y-104520000D03*
%TD*%
D10*
%TO.P,J3,1,Pin_1_1*%
%TO.N,+3V3*%
X137220000Y-71500000D03*
D11*
%TO.P,J3,2,Pin_2_2*%
%TO.N,+12V*%
X137220000Y-74040000D03*
%TO.P,J3,3,Pin_3_3*%
%TO.N,/-12V*%
X137220000Y-76580000D03*
%TO.P,J3,4,Pin_4_4*%
%TO.N,/GPIO0*%
X137220000Y-79120000D03*
%TO.P,J3,5,Pin_5_5*%
%TO.N,/GPIO1*%
X137220000Y-81660000D03*
%TO.P,J3,6,Pin_6_6*%
%TO.N,/GPIO2*%
X137220000Y-84200000D03*
%TO.P,J3,7,Pin_7_7*%
%TO.N,/GPIO3*%
X137220000Y-86740000D03*
%TO.P,J3,8,Pin_8_8*%
%TO.N,/GPIO4*%
X137220000Y-89280000D03*
%TO.P,J3,9,Pin_9_9*%
%TO.N,/GPIO5*%
X137220000Y-91820000D03*
%TO.P,J3,10,Pin_10_10*%
%TO.N,/GPIO6*%
X137220000Y-94360000D03*
%TO.P,J3,11,Pin_11_11*%
%TO.N,/GPIO7*%
X137220000Y-96900000D03*
%TO.P,J3,12,Pin_12_12*%
%TO.N,/USB_DP*%
X137220000Y-99440000D03*
%TO.P,J3,13,Pin_13_13*%
%TO.N,/USB_DM*%
X137220000Y-101980000D03*
%TO.P,J3,14,Pin_14_14*%
%TO.N,GND*%
X137220000Y-104520000D03*
%TD*%
D39*
%TO.N,GND*%
X139500000Y-57500000D03*
X152460000Y-129060000D03*
X139500000Y-53000000D03*
X142000000Y-57500000D03*
X133300000Y-132500000D03*
X143000000Y-67000000D03*
D40*
X138600000Y-114300000D03*
D39*
X137000000Y-127000000D03*
X134500000Y-123000000D03*
X142000000Y-52500000D03*
X152500000Y-122000000D03*
X144500000Y-53000000D03*
X139500000Y-55000000D03*
X133350000Y-67000000D03*
X144000000Y-135000000D03*
X138750000Y-111500000D03*
X135600000Y-117200000D03*
X150500000Y-49500000D03*
X133700000Y-52800000D03*
X144500000Y-57500000D03*
X144500000Y-55000000D03*
X133400000Y-130600000D03*
X142400000Y-119000000D03*
X136500000Y-49500000D03*
X142250000Y-91000000D03*
X152200000Y-116700000D03*
X151000000Y-121100000D03*
X140250000Y-102250000D03*
%TO.N,+3V3*%
X146750000Y-86500000D03*
X139750000Y-104500000D03*
X139000000Y-126500000D03*
X147160000Y-126050000D03*
X137000000Y-51500000D03*
X152000000Y-112400000D03*
X141600000Y-114900000D03*
X148360000Y-124150000D03*
X142500000Y-73500000D03*
X149500000Y-122500000D03*
X148250000Y-106750000D03*
X147160000Y-124150000D03*
D40*
X137700000Y-121000000D03*
D39*
X148360000Y-126050000D03*
%TO.N,Net-(U4-EN{slash}CHIP_PU)*%
X136250000Y-52250000D03*
X141750000Y-67500000D03*
%TO.N,/GPIO9*%
X146750000Y-96250000D03*
X145750000Y-91000000D03*
%TO.N,/USB_DP*%
X134500000Y-132500000D03*
X134750000Y-67000000D03*
X134500000Y-130538738D03*
X144000000Y-133500000D03*
%TO.N,/USB_DM*%
X135500000Y-127500000D03*
X143500000Y-129000000D03*
X135412500Y-131900000D03*
%TO.N,/GPIO8*%
X136000000Y-60750000D03*
X148000000Y-101000000D03*
%TO.N,/GPIO4*%
X138750000Y-73000000D03*
X138250000Y-64000000D03*
%TO.N,/GPIO5*%
X137000000Y-54000000D03*
X138500000Y-51750000D03*
%TO.N,/GPIO6*%
X143500000Y-84000000D03*
X138000000Y-56750000D03*
%TO.N,/GPIO7*%
X144250000Y-83250000D03*
X137000000Y-56500000D03*
%TO.N,/GPIO0*%
X137500000Y-58500000D03*
X143000000Y-66000000D03*
%TO.N,/GPIO1*%
X137000000Y-59550000D03*
X142500000Y-65250000D03*
%TO.N,/GPIO10*%
X144750000Y-96250000D03*
X138500000Y-62250000D03*
%TO.N,/GPIO11*%
X144000000Y-95500000D03*
X140169240Y-63000000D03*
%TO.N,/GPIO18*%
X149750000Y-66750000D03*
%TO.N,/GPIO19*%
X150150000Y-63500000D03*
%TO.N,/GPIO20*%
X150800988Y-62975000D03*
%TO.N,/GPIO22*%
X150250000Y-61750000D03*
X150625000Y-59875000D03*
%TO.N,/GPIO23*%
X149285860Y-65455099D03*
X149500000Y-60000000D03*
%TO.N,/GPIO15*%
X150250000Y-56250000D03*
X146250000Y-64500000D03*
%TO.N,/GPIO17*%
X147188173Y-67811827D03*
X146750000Y-83500000D03*
%TO.N,/GPIO3*%
X150500000Y-52000000D03*
X143240000Y-86740000D03*
%TO.N,/GPIO2*%
X150500000Y-50750000D03*
X143250000Y-85750000D03*
%TD*%
%TO.N,/-12V*%
D41*
X145000000Y-99590000D02*
X142460000Y-99590000D01*
%TO.N,GND*%
D42*
X140500000Y-78750000D02*
X140500000Y-75050000D01*
X142005000Y-55110000D02*
X142005000Y-53860000D01*
X142005000Y-55110000D02*
X142005000Y-56360000D01*
X136060000Y-121835000D02*
X135600000Y-121375000D01*
X140755000Y-56360000D02*
X140640000Y-56360000D01*
X142005000Y-52505000D02*
X142000000Y-52500000D01*
X144390000Y-55110000D02*
X144500000Y-55000000D01*
X140500000Y-67830761D02*
X141580761Y-66750000D01*
X140750000Y-70000000D02*
X140500000Y-69750000D01*
X136362500Y-127637500D02*
X137000000Y-127000000D01*
X142005000Y-56360000D02*
X143255000Y-56360000D01*
X143255000Y-56360000D02*
X143360000Y-56360000D01*
X143200000Y-70800000D02*
X142750000Y-71250000D01*
X152460000Y-122040000D02*
X152500000Y-122000000D01*
X140500000Y-69750000D02*
X140500000Y-67830761D01*
X141250000Y-70500000D02*
X140750000Y-70000000D01*
X141580761Y-66750000D02*
X142750000Y-66750000D01*
X140755000Y-55110000D02*
X139610000Y-55110000D01*
X140500000Y-75000000D02*
X141250000Y-74250000D01*
X142005000Y-56360000D02*
X142005000Y-57495000D01*
X141900000Y-117800000D02*
X142400000Y-118300000D01*
X143360000Y-56360000D02*
X144500000Y-57500000D01*
X141900000Y-90650000D02*
X142250000Y-91000000D01*
X136060000Y-123000000D02*
X134500000Y-123000000D01*
X140640000Y-56360000D02*
X139500000Y-57500000D01*
X142005000Y-55110000D02*
X143255000Y-53860000D01*
X140755000Y-55110000D02*
X140755000Y-56360000D01*
X133700000Y-51600000D02*
X133700000Y-52800000D01*
X141250000Y-74250000D02*
X141250000Y-71750000D01*
X143255000Y-53860000D02*
X142005000Y-53860000D01*
X142005000Y-53860000D02*
X140755000Y-53860000D01*
X140360000Y-53860000D02*
X139500000Y-53000000D01*
D43*
X147690000Y-131570000D02*
X146930000Y-130810000D01*
D42*
X139610000Y-55110000D02*
X139500000Y-55000000D01*
X152460000Y-127900000D02*
X152460000Y-129060000D01*
X135600000Y-116550000D02*
X135600000Y-117200000D01*
X142005000Y-55110000D02*
X140755000Y-53860000D01*
X143255000Y-55110000D02*
X143255000Y-53860000D01*
X143200000Y-70000000D02*
X143200000Y-70800000D01*
X143640000Y-53860000D02*
X144500000Y-53000000D01*
X143255000Y-53860000D02*
X143640000Y-53860000D01*
X138860000Y-122800000D02*
X138660000Y-123000000D01*
X152460000Y-127900000D02*
X152460000Y-124700000D01*
X142005000Y-55110000D02*
X140755000Y-55110000D01*
X139900000Y-74450000D02*
X140500000Y-75050000D01*
D43*
X139400000Y-131570000D02*
X139770000Y-131570000D01*
D42*
X138750000Y-111500000D02*
X138825000Y-111500000D01*
X140500000Y-75050000D02*
X140500000Y-75000000D01*
D41*
X152000000Y-115700000D02*
X152000000Y-116500000D01*
D42*
X140750000Y-90650000D02*
X141900000Y-90650000D01*
X150610000Y-49390000D02*
X150500000Y-49500000D01*
X152460000Y-124700000D02*
X152460000Y-122040000D01*
X141250000Y-71750000D02*
X141750000Y-71250000D01*
D41*
X152000000Y-116500000D02*
X152200000Y-116700000D01*
D42*
X141460000Y-122800000D02*
X138860000Y-122800000D01*
D44*
X137950000Y-114950000D02*
X138600000Y-114300000D01*
D42*
X142005000Y-57495000D02*
X142000000Y-57500000D01*
X143255000Y-55110000D02*
X144390000Y-55110000D01*
D44*
X137600000Y-114950000D02*
X137950000Y-114950000D01*
D42*
X138660000Y-123000000D02*
X136060000Y-123000000D01*
D43*
X136390000Y-49390000D02*
X136500000Y-49500000D01*
D42*
X141750000Y-71250000D02*
X142750000Y-71250000D01*
D43*
X148060000Y-131570000D02*
X147690000Y-131570000D01*
D42*
X141250000Y-71750000D02*
X141250000Y-70500000D01*
X140755000Y-56360000D02*
X142005000Y-56360000D01*
X136060000Y-123000000D02*
X136060000Y-121835000D01*
X140750000Y-97250000D02*
X140250000Y-97750000D01*
X140755000Y-53860000D02*
X140360000Y-53860000D01*
X139900000Y-73000000D02*
X139900000Y-74450000D01*
X152260000Y-49390000D02*
X150610000Y-49390000D01*
X143255000Y-56360000D02*
X143255000Y-55110000D01*
X142750000Y-66750000D02*
X143000000Y-67000000D01*
X142005000Y-55110000D02*
X143255000Y-55110000D01*
D43*
X139770000Y-131570000D02*
X140530000Y-130810000D01*
D42*
X142005000Y-53860000D02*
X142005000Y-52505000D01*
X140755000Y-56360000D02*
X142005000Y-55110000D01*
D43*
X135460000Y-49390000D02*
X136390000Y-49390000D01*
D42*
X140750000Y-94350000D02*
X140750000Y-97250000D01*
X138825000Y-111500000D02*
X139750000Y-110575000D01*
D41*
X152000000Y-120100000D02*
X151000000Y-121100000D01*
D42*
X142400000Y-118300000D02*
X142400000Y-119000000D01*
X140250000Y-97750000D02*
X140250000Y-102250000D01*
X136362500Y-128725000D02*
X136362500Y-127637500D01*
X140755000Y-53860000D02*
X140755000Y-55110000D01*
X142005000Y-55110000D02*
X143255000Y-56360000D01*
%TO.N,+12V*%
D41*
X145650000Y-109100000D02*
X145000000Y-109750000D01*
X145000000Y-109750000D02*
X142460000Y-109750000D01*
X149760000Y-109100000D02*
X145650000Y-109100000D01*
%TO.N,Net-(D1-K)*%
D42*
X137700000Y-113900000D02*
X136100000Y-113900000D01*
X135600000Y-115000000D02*
X134400000Y-115000000D01*
X138200000Y-112800000D02*
X137900000Y-113100000D01*
X142300000Y-112800000D02*
X138200000Y-112800000D01*
X141900000Y-115900000D02*
X142650000Y-115150000D01*
D44*
X133800000Y-114400000D02*
X133800000Y-109500000D01*
D42*
X136100000Y-113900000D02*
X135600000Y-114400000D01*
D44*
X135050000Y-108250000D02*
X136500000Y-108250000D01*
D42*
X142650000Y-115150000D02*
X142650000Y-113150000D01*
D44*
X133800000Y-117900000D02*
X133800000Y-114400000D01*
D42*
X137900000Y-113700000D02*
X137700000Y-113900000D01*
X135600000Y-114400000D02*
X135600000Y-115000000D01*
D44*
X135600000Y-118425000D02*
X134325000Y-118425000D01*
X134325000Y-118425000D02*
X133800000Y-117900000D01*
X133800000Y-109500000D02*
X135050000Y-108250000D01*
D42*
X134400000Y-115000000D02*
X133800000Y-114400000D01*
X137900000Y-113100000D02*
X137900000Y-113700000D01*
X142650000Y-113150000D02*
X142300000Y-112800000D01*
%TO.N,+3V3*%
X145250000Y-71600000D02*
X144400000Y-71600000D01*
X141475000Y-114775000D02*
X141600000Y-114900000D01*
X147750000Y-103750000D02*
X147750000Y-106250000D01*
D41*
X152000000Y-118200000D02*
X150600000Y-118200000D01*
D42*
X141475000Y-113900000D02*
X141475000Y-114775000D01*
D44*
X138660000Y-124900000D02*
X138660000Y-126160000D01*
D42*
X139750000Y-105750000D02*
X139750000Y-104500000D01*
X139900000Y-71100000D02*
X137620000Y-71100000D01*
D44*
X147760000Y-125100000D02*
X147760000Y-124240000D01*
X137700000Y-119925000D02*
X137700000Y-121000000D01*
X141460000Y-125100000D02*
X138860000Y-125100000D01*
D41*
X150600000Y-118200000D02*
X149100000Y-116700000D01*
D42*
X135240000Y-50640000D02*
X135260000Y-50660000D01*
X147750000Y-106250000D02*
X148250000Y-106750000D01*
D44*
X138860000Y-125100000D02*
X138660000Y-124900000D01*
D42*
X137620000Y-71100000D02*
X137220000Y-71500000D01*
D44*
X147760000Y-124240000D02*
X149500000Y-122500000D01*
X138660000Y-126160000D02*
X139000000Y-126500000D01*
D42*
X146750000Y-87600000D02*
X146750000Y-86500000D01*
D41*
X149100000Y-115975000D02*
X151275000Y-113800000D01*
D42*
X133700000Y-50640000D02*
X135240000Y-50640000D01*
D41*
X149100000Y-116700000D02*
X149100000Y-115975000D01*
D44*
X137000000Y-51500000D02*
X136160000Y-50660000D01*
D42*
X144400000Y-71600000D02*
X142500000Y-73500000D01*
D41*
X151275000Y-113800000D02*
X152000000Y-113800000D01*
X152000000Y-113800000D02*
X152000000Y-112400000D01*
%TO.N,Net-(U4-EN{slash}CHIP_PU)*%
D42*
X146500000Y-75050000D02*
X146500000Y-74500000D01*
X145250000Y-73250000D02*
X146075000Y-72425000D01*
X146500000Y-74500000D02*
X145250000Y-73250000D01*
X146075000Y-70875000D02*
X145200000Y-70000000D01*
X142250000Y-67500000D02*
X141750000Y-67500000D01*
X146500000Y-75050000D02*
X146500000Y-78750000D01*
X144750000Y-70000000D02*
X142250000Y-67500000D01*
X146075000Y-72425000D02*
X146075000Y-70875000D01*
X135930000Y-51930000D02*
X136250000Y-52250000D01*
X145200000Y-70000000D02*
X144750000Y-70000000D01*
%TO.N,Net-(U1-FB)*%
X139625000Y-115900000D02*
X139625000Y-114200000D01*
D44*
X137700000Y-118275000D02*
X137700000Y-116700000D01*
D42*
X139625000Y-114200000D02*
X139925000Y-113900000D01*
D44*
X137600000Y-116600000D02*
X138300000Y-115900000D01*
X137700000Y-116700000D02*
X137600000Y-116600000D01*
X138300000Y-115900000D02*
X139625000Y-115900000D01*
%TO.N,/GPIO9*%
D42*
X146750000Y-90650000D02*
X146750000Y-89250000D01*
X146750000Y-96290000D02*
X146750000Y-96250000D01*
X146750000Y-90650000D02*
X146100000Y-90650000D01*
X149900000Y-99440000D02*
X146750000Y-96290000D01*
X146750000Y-96250000D02*
X146750000Y-94350000D01*
X151310000Y-99440000D02*
X149900000Y-99440000D01*
X152750000Y-98000000D02*
X151310000Y-99440000D01*
X152750000Y-66390000D02*
X152750000Y-98000000D01*
X146100000Y-90650000D02*
X145750000Y-91000000D01*
%TO.N,/VBUS*%
D43*
X137930000Y-128300000D02*
X138560000Y-128300000D01*
X137930000Y-132547500D02*
X137930000Y-128300000D01*
D42*
X141460000Y-127400000D02*
X138560000Y-127400000D01*
X137312500Y-132547500D02*
X136362500Y-132547500D01*
X138560000Y-127400000D02*
X136060000Y-124900000D01*
X138560000Y-128300000D02*
X138560000Y-127400000D01*
X134660000Y-135200000D02*
X137312500Y-132547500D01*
D43*
X137312500Y-132547500D02*
X137930000Y-132547500D01*
D42*
X136362500Y-132547500D02*
X136362500Y-131000000D01*
%TO.N,Net-(F2-Pad2)*%
D43*
X142068198Y-132138959D02*
X141330000Y-131400761D01*
D42*
X141330000Y-130080699D02*
X141330000Y-130810000D01*
D43*
X142068198Y-133731802D02*
X142068198Y-132138959D01*
X142536396Y-134200000D02*
X142068198Y-133731802D01*
D42*
X138400000Y-130100000D02*
X139269694Y-129749912D01*
X137460000Y-135200000D02*
X138400000Y-134350000D01*
D43*
X144148529Y-134200000D02*
X142536396Y-134200000D01*
X144930000Y-132600761D02*
X144930000Y-133418529D01*
X141330000Y-131400761D02*
X141330000Y-130810000D01*
D42*
X140999213Y-129749912D02*
X141330000Y-130080699D01*
X139269694Y-129749912D02*
X140999213Y-129749912D01*
D43*
X144930000Y-133418529D02*
X144148529Y-134200000D01*
X146130000Y-130810000D02*
X146130000Y-131400761D01*
D42*
X138400000Y-134350000D02*
X138400000Y-130100000D01*
D43*
X146130000Y-131400761D02*
X144930000Y-132600761D01*
%TO.N,/USB_DP*%
D42*
X143480000Y-132980000D02*
X143480000Y-130810000D01*
X135051238Y-129987500D02*
X134519369Y-130519369D01*
X134500000Y-130538738D02*
X134500000Y-132500000D01*
X134760000Y-65900000D02*
X134760000Y-66990000D01*
X134519369Y-130519369D02*
X134500000Y-130538738D01*
X143480000Y-132980000D02*
X144000000Y-133500000D01*
X144000000Y-133500000D02*
X144480000Y-133020000D01*
X137312500Y-128725000D02*
X137312500Y-129387499D01*
X134760000Y-66990000D02*
X134750000Y-67000000D01*
X136712499Y-129987500D02*
X135051238Y-129987500D01*
X144480000Y-133020000D02*
X144480000Y-130810000D01*
X137312500Y-129387499D02*
X136712499Y-129987500D01*
X137312500Y-129300000D02*
X137312500Y-130440000D01*
%TO.N,/USB_DM*%
X143500000Y-129000000D02*
X143980000Y-129480000D01*
X135412500Y-127587500D02*
X135500000Y-127500000D01*
X135412500Y-128725000D02*
X135412500Y-127587500D01*
X134000000Y-65040000D02*
X134000000Y-101500000D01*
X142980000Y-129520000D02*
X143500000Y-129000000D01*
X135412500Y-131500000D02*
X135412500Y-131900000D01*
X142980000Y-129520000D02*
X142980000Y-130810000D01*
X134000000Y-101500000D02*
X134480000Y-101980000D01*
X135460000Y-64630000D02*
X134410000Y-64630000D01*
X137220000Y-101980000D02*
X134480000Y-101980000D01*
X143980000Y-129480000D02*
X143980000Y-130810000D01*
X134410000Y-64630000D02*
X134000000Y-65040000D01*
%TO.N,Net-(U1-SW)*%
D44*
X141900000Y-116850000D02*
X143950000Y-116850000D01*
X143950000Y-116850000D02*
X144100000Y-116700000D01*
D42*
X140887500Y-117438738D02*
X141476238Y-116850000D01*
X141476238Y-116850000D02*
X141900000Y-116850000D01*
X141175000Y-120100000D02*
X140887500Y-119812500D01*
X140887500Y-119812500D02*
X140887500Y-117438738D01*
%TO.N,Net-(U1-BOOT)*%
X139625000Y-120100000D02*
X139625000Y-117800000D01*
%TO.N,Net-(J2-CC1)*%
X150050000Y-124700000D02*
X149750000Y-125000000D01*
X149750000Y-126750000D02*
X148750000Y-127750000D01*
X148750000Y-127750000D02*
X143500000Y-127750000D01*
X149750000Y-125000000D02*
X149750000Y-126750000D01*
X142480000Y-128770000D02*
X142480000Y-130810000D01*
X150810000Y-124700000D02*
X150050000Y-124700000D01*
X143500000Y-127750000D02*
X142480000Y-128770000D01*
%TO.N,Net-(J2-CC2)*%
D43*
X145469848Y-129030152D02*
X145469848Y-130810000D01*
X150510000Y-128200000D02*
X146300000Y-128200000D01*
X146300000Y-128200000D02*
X145469848Y-129030152D01*
X150810000Y-127900000D02*
X150510000Y-128200000D01*
%TO.N,Net-(D1-A)*%
D42*
X151010000Y-110650000D02*
X147350000Y-110650000D01*
X152560000Y-109100000D02*
X151010000Y-110650000D01*
X145750000Y-112250000D02*
X136500000Y-112250000D01*
X147350000Y-110650000D02*
X145750000Y-112250000D01*
%TO.N,Net-(D2-A)*%
X139750000Y-109000000D02*
X139750000Y-107400000D01*
%TO.N,/GPIO8*%
X135930000Y-60820000D02*
X136000000Y-60750000D01*
X147750000Y-101250000D02*
X148000000Y-101000000D01*
X147750000Y-102100000D02*
X147750000Y-101250000D01*
X149900000Y-101980000D02*
X147870000Y-101980000D01*
X147870000Y-101980000D02*
X147750000Y-102100000D01*
%TO.N,/GPIO4*%
X138750000Y-57750000D02*
X139750000Y-58750000D01*
X135750000Y-87810000D02*
X135750000Y-83750000D01*
X138250000Y-64000000D02*
X139750000Y-62500000D01*
X138200000Y-53200000D02*
X138750000Y-53750000D01*
X138750000Y-53750000D02*
X138750000Y-57750000D01*
X137717057Y-82860000D02*
X138750000Y-81827057D01*
X134760000Y-53200000D02*
X138200000Y-53200000D01*
X138750000Y-81827057D02*
X138750000Y-73000000D01*
X137220000Y-89280000D02*
X135750000Y-87810000D01*
X135750000Y-83750000D02*
X136640000Y-82860000D01*
X136640000Y-82860000D02*
X137717057Y-82860000D01*
X139750000Y-62500000D02*
X139750000Y-58750000D01*
%TO.N,/GPIO5*%
X137335788Y-68750000D02*
X141750000Y-64335788D01*
X145250000Y-51750000D02*
X138500000Y-51750000D01*
X145000000Y-58500000D02*
X145750000Y-57750000D01*
X134500000Y-89100000D02*
X134500000Y-69585787D01*
X136530000Y-54470000D02*
X137000000Y-54000000D01*
X135335788Y-68750000D02*
X137335788Y-68750000D01*
X145750000Y-57750000D02*
X145750000Y-52250000D01*
X134760000Y-54470000D02*
X136530000Y-54470000D01*
X137220000Y-91820000D02*
X134500000Y-89100000D01*
X141750000Y-64335788D02*
X141750000Y-59500000D01*
X145750000Y-52250000D02*
X145250000Y-51750000D01*
X142750000Y-58500000D02*
X145000000Y-58500000D01*
X134500000Y-69585787D02*
X135335788Y-68750000D01*
X141750000Y-59500000D02*
X142750000Y-58500000D01*
%TO.N,/GPIO6*%
X139000000Y-88750000D02*
X140000000Y-87750000D01*
X144065380Y-84565380D02*
X143500000Y-84000000D01*
X137159239Y-55740000D02*
X138000000Y-56580761D01*
X139000000Y-92580000D02*
X139000000Y-88750000D01*
X144065380Y-86964620D02*
X144065380Y-84565380D01*
X138000000Y-56580761D02*
X138000000Y-56750000D01*
X143280000Y-87750000D02*
X144065380Y-86964620D01*
X134760000Y-55740000D02*
X137159239Y-55740000D01*
X137220000Y-94360000D02*
X139000000Y-92580000D01*
X140000000Y-87750000D02*
X143280000Y-87750000D01*
%TO.N,/GPIO7*%
X137220000Y-96900000D02*
X139500000Y-94620000D01*
X139500000Y-94620000D02*
X139500000Y-89250000D01*
X134760000Y-57010000D02*
X136490000Y-57010000D01*
X143487107Y-88250000D02*
X144565380Y-87171727D01*
X140500000Y-88250000D02*
X143487107Y-88250000D01*
X144565380Y-87171727D02*
X144565380Y-83565380D01*
X144565380Y-83565380D02*
X144250000Y-83250000D01*
X136490000Y-57010000D02*
X137000000Y-56500000D01*
X139500000Y-89250000D02*
X140500000Y-88250000D01*
%TO.N,/GPIO0*%
X141500000Y-66000000D02*
X137750000Y-69750000D01*
X143000000Y-66000000D02*
X141500000Y-66000000D01*
X137280000Y-58280000D02*
X137500000Y-58500000D01*
X134760000Y-58280000D02*
X137280000Y-58280000D01*
X137750000Y-69750000D02*
X135750000Y-69750000D01*
X135500000Y-70000000D02*
X135500000Y-77400000D01*
X135500000Y-77400000D02*
X137220000Y-79120000D01*
X135750000Y-69750000D02*
X135500000Y-70000000D01*
%TO.N,/GPIO1*%
X142500000Y-65250000D02*
X141542894Y-65250000D01*
X135000000Y-69792894D02*
X135000000Y-79440000D01*
X137000000Y-59550000D02*
X134760000Y-59550000D01*
X135542894Y-69250000D02*
X135000000Y-69792894D01*
X137542894Y-69250000D02*
X135542894Y-69250000D01*
X135000000Y-79440000D02*
X137220000Y-81660000D01*
X141542894Y-65250000D02*
X137542894Y-69250000D01*
%TO.N,/GPIO10*%
X147850000Y-93900000D02*
X147575000Y-93625000D01*
X145900000Y-93625000D02*
X144750000Y-94775000D01*
X134760000Y-62090000D02*
X138340000Y-62090000D01*
X149900000Y-96900000D02*
X147850000Y-94850000D01*
X147850000Y-94850000D02*
X147850000Y-93900000D01*
X138340000Y-62090000D02*
X138500000Y-62250000D01*
X147575000Y-93625000D02*
X145900000Y-93625000D01*
X144750000Y-94775000D02*
X144750000Y-96250000D01*
%TO.N,/GPIO11*%
X144250000Y-94567894D02*
X144250000Y-95250000D01*
X147782106Y-93125000D02*
X145692894Y-93125000D01*
X140169240Y-63000000D02*
X138419240Y-64750000D01*
X148167106Y-93510000D02*
X147782106Y-93125000D01*
X138419240Y-64750000D02*
X137250000Y-64750000D01*
X149050000Y-93510000D02*
X148167106Y-93510000D01*
X145692894Y-93125000D02*
X144250000Y-94567894D01*
X149900000Y-94360000D02*
X149050000Y-93510000D01*
X137250000Y-64750000D02*
X135860000Y-63360000D01*
X144250000Y-95250000D02*
X144000000Y-95500000D01*
%TO.N,/GPIO18*%
X149750000Y-66750000D02*
X150290000Y-66750000D01*
X152260000Y-64630000D02*
X151210000Y-64630000D01*
X150290000Y-66750000D02*
X150750000Y-66290000D01*
X151210000Y-64630000D02*
X150750000Y-65090000D01*
X150750000Y-65090000D02*
X150750000Y-66290000D01*
%TO.N,/GPIO19*%
X151995000Y-63625000D02*
X152260000Y-63360000D01*
X150150000Y-63500000D02*
X150275000Y-63625000D01*
X150275000Y-63625000D02*
X151995000Y-63625000D01*
%TO.N,/GPIO20*%
X150800988Y-62949012D02*
X151660000Y-62090000D01*
X151660000Y-62090000D02*
X152260000Y-62090000D01*
X150800988Y-62975000D02*
X150800988Y-62949012D01*
%TO.N,/GPIO21*%
X149680000Y-60820000D02*
X149000000Y-61500000D01*
X148350000Y-68000000D02*
X148350000Y-75030000D01*
X147280329Y-66930329D02*
X148350000Y-68000000D01*
X152260000Y-60820000D02*
X149680000Y-60820000D01*
X149000000Y-64560660D02*
X147280329Y-66280330D01*
X148350000Y-75030000D02*
X149900000Y-76580000D01*
X149000000Y-61500000D02*
X149000000Y-64560660D01*
X147280329Y-66280330D02*
X147280329Y-66930329D01*
%TO.N,/GPIO22*%
X148923454Y-66105099D02*
X149555099Y-66105099D01*
X149500000Y-62500000D02*
X150250000Y-61750000D01*
X149500000Y-64750000D02*
X149500000Y-62500000D01*
X148528553Y-66500000D02*
X148923454Y-66105099D01*
X150950000Y-59550000D02*
X152260000Y-59550000D01*
X149935860Y-65724338D02*
X149935860Y-65185860D01*
X149264213Y-67500000D02*
X148528553Y-66764340D01*
X149555099Y-66105099D02*
X149935860Y-65724338D01*
X152250000Y-73500000D02*
X152250000Y-68000000D01*
X152250000Y-68000000D02*
X151750000Y-67500000D01*
X149935860Y-65185860D02*
X149500000Y-64750000D01*
X149900000Y-74040000D02*
X151710000Y-74040000D01*
X150625000Y-59875000D02*
X150950000Y-59550000D01*
X148528553Y-66764340D02*
X148528553Y-66500000D01*
X151710000Y-74040000D02*
X152250000Y-73500000D01*
X151750000Y-67500000D02*
X149264213Y-67500000D01*
%TO.N,/GPIO23*%
X149500000Y-60000000D02*
X149500000Y-59990000D01*
X148028553Y-66971447D02*
X148028553Y-66239212D01*
X148850000Y-67792893D02*
X148028553Y-66971447D01*
X148028553Y-66239212D02*
X148812666Y-65455099D01*
X151210000Y-58280000D02*
X152260000Y-58280000D01*
X148850000Y-70450000D02*
X148850000Y-67792893D01*
X149900000Y-71500000D02*
X148850000Y-70450000D01*
X149500000Y-59990000D02*
X151210000Y-58280000D01*
X148812666Y-65455099D02*
X149285860Y-65455099D01*
%TO.N,/GPIO15*%
X147350000Y-69600000D02*
X145603553Y-67853553D01*
X144250000Y-88750000D02*
X145065380Y-87934620D01*
X150760000Y-55740000D02*
X150250000Y-56250000D01*
X147350000Y-79475000D02*
X147350000Y-69600000D01*
X152260000Y-55740000D02*
X150760000Y-55740000D01*
X145065380Y-81759620D02*
X147350000Y-79475000D01*
X145603553Y-65146447D02*
X146250000Y-64500000D01*
X149900000Y-91820000D02*
X145650761Y-91820000D01*
X144250000Y-90419239D02*
X144250000Y-88750000D01*
X145650761Y-91820000D02*
X144250000Y-90419239D01*
X145065380Y-87934620D02*
X145065380Y-81759620D01*
X145603553Y-67853553D02*
X145603553Y-65146447D01*
%TO.N,/GPIO17*%
X149900000Y-86740000D02*
X146750000Y-83590000D01*
X146750000Y-83590000D02*
X146750000Y-83500000D01*
X146603553Y-66250000D02*
X148500000Y-64353553D01*
X146603553Y-67227207D02*
X146603553Y-66250000D01*
X149530000Y-54470000D02*
X152260000Y-54470000D01*
X148500000Y-55500000D02*
X149530000Y-54470000D01*
X147188173Y-67811827D02*
X146603553Y-67227207D01*
X148500000Y-64353553D02*
X148500000Y-55500000D01*
%TO.N,/GPIO16*%
X146750000Y-85000000D02*
X146750000Y-84500000D01*
X147750000Y-86000000D02*
X146750000Y-85000000D01*
X149900000Y-89280000D02*
X147750000Y-87130000D01*
X146103553Y-67646447D02*
X146103553Y-65896447D01*
X147850000Y-79900000D02*
X147850000Y-69392893D01*
X148000000Y-54250000D02*
X149050000Y-53200000D01*
X145565380Y-84000000D02*
X145565380Y-82184620D01*
X147850000Y-69392893D02*
X146103553Y-67646447D01*
X146103553Y-65896447D02*
X148000000Y-64000000D01*
X146250000Y-84000000D02*
X145565380Y-84000000D01*
X146750000Y-84500000D02*
X146250000Y-84000000D01*
X148000000Y-64000000D02*
X148000000Y-54250000D01*
X147750000Y-87130000D02*
X147750000Y-86000000D01*
X145565380Y-82184620D02*
X147850000Y-79900000D01*
X149050000Y-53200000D02*
X152260000Y-53200000D01*
%TO.N,/GPIO3*%
X137220000Y-86740000D02*
X143240000Y-86740000D01*
X150500000Y-52000000D02*
X152190000Y-52000000D01*
X152190000Y-52000000D02*
X152260000Y-51930000D01*
%TO.N,/GPIO2*%
X152170000Y-50750000D02*
X152260000Y-50660000D01*
X142760000Y-86240000D02*
X143250000Y-85750000D01*
X150500000Y-50750000D02*
X152170000Y-50750000D01*
X139260000Y-86240000D02*
X142760000Y-86240000D01*
X137220000Y-84200000D02*
X139260000Y-86240000D01*
%TD*%
M02*
