M48
; DRILL file KiCad 10.0.1 date 2026-09-18T14:06:59
; FORMAT={-:-/ absolute / metric / decimal}
; #@! TF.CreationDate,2026-09-18T14:06:59+03:00
; #@! TF.GenerationSoftware,Kicad,Pcbnew,10.0.1
; #@! TF.FileFunction,MixedPlating,1,4
FMAT,2
METRIC
; #@! TA.AperFunction,Plated,PTH,ViaDrill
T1C0.300
; #@! TA.AperFunction,Plated,PTH,ViaDrill
T2C0.400
; #@! TA.AperFunction,Plated,PTH,ComponentDrill
T3C0.800
; #@! TA.AperFunction,Plated,PTH,ComponentDrill
T4C1.000
; #@! TA.AperFunction,NonPlated,NPTH,ComponentDrill
T5C0.500
%
G90
G05
T1
X133.3Y-132.5
X133.35Y-67.0
X133.4Y-130.6
X133.7Y-52.8
X134.5Y-123.0
X134.5Y-130.539
X134.5Y-132.5
X134.75Y-67.0
X135.412Y-131.9
X135.5Y-127.5
X135.6Y-117.2
X136.0Y-60.75
X136.25Y-52.25
X136.5Y-49.5
X137.0Y-51.5
X137.0Y-54.0
X137.0Y-56.5
X137.0Y-59.55
X137.0Y-127.0
X137.5Y-58.5
X138.0Y-56.75
X138.25Y-64.0
X138.5Y-51.75
X138.5Y-62.25
X138.75Y-73.0
X138.75Y-111.5
X139.0Y-126.5
X139.5Y-53.0
X139.5Y-55.0
X139.5Y-57.5
X139.75Y-104.5
X140.169Y-63.0
X140.25Y-102.25
X141.6Y-114.9
X141.75Y-67.5
X142.0Y-52.5
X142.0Y-57.5
X142.25Y-91.0
X142.4Y-119.0
X142.5Y-65.25
X142.5Y-73.5
X143.0Y-66.0
X143.0Y-67.0
X143.24Y-86.74
X143.25Y-85.75
X143.5Y-84.0
X143.5Y-129.0
X144.0Y-95.5
X144.0Y-133.5
X144.0Y-135.0
X144.25Y-83.25
X144.5Y-53.0
X144.5Y-55.0
X144.5Y-57.5
X144.75Y-96.25
X145.75Y-91.0
X146.25Y-64.5
X146.75Y-83.5
X146.75Y-86.5
X146.75Y-96.25
X147.16Y-124.15
X147.16Y-126.05
X147.188Y-67.812
X148.0Y-101.0
X148.25Y-106.75
X148.36Y-124.15
X148.36Y-126.05
X149.286Y-65.455
X149.5Y-60.0
X149.5Y-122.5
X149.75Y-66.75
X150.15Y-63.5
X150.25Y-56.25
X150.25Y-61.75
X150.5Y-49.5
X150.5Y-50.75
X150.5Y-52.0
X150.625Y-59.875
X150.801Y-62.975
X151.0Y-121.1
X152.0Y-112.4
X152.2Y-116.7
X152.46Y-129.06
X152.5Y-122.0
T2
X137.7Y-121.0
X138.6Y-114.3
T4
X137.22Y-71.5
X137.22Y-74.04
X137.22Y-76.58
X137.22Y-79.12
X137.22Y-81.66
X137.22Y-84.2
X137.22Y-86.74
X137.22Y-89.28
X137.22Y-91.82
X137.22Y-94.36
X137.22Y-96.9
X137.22Y-99.44
X137.22Y-101.98
X137.22Y-104.52
X142.46Y-99.59
X142.46Y-102.13
X142.46Y-104.67
X142.46Y-107.21
X142.46Y-109.75
X145.0Y-99.59
X145.0Y-102.13
X145.0Y-104.67
X145.0Y-107.21
X145.0Y-109.75
X149.9Y-71.5
X149.9Y-74.04
X149.9Y-76.58
X149.9Y-79.12
X149.9Y-81.66
X149.9Y-84.2
X149.9Y-86.74
X149.9Y-89.28
X149.9Y-91.82
X149.9Y-94.36
X149.9Y-96.9
X149.9Y-99.44
X149.9Y-101.98
X149.9Y-104.52
T3
X139.4Y-131.22G85X139.4Y-131.92
G05
X139.4Y-135.55G85X139.4Y-135.95
G05
X148.06Y-131.22G85X148.06Y-131.92
G05
X148.06Y-135.55G85X148.06Y-135.95
G05
T5
X140.805Y-132.07G85X140.855Y-132.07
G05
X146.605Y-132.07G85X146.655Y-132.07
G05
M30
