%TF.GenerationSoftware,KiCad,Pcbnew,10.0.1*%
%TF.CreationDate,2026-09-18T11:15:10+03:00*%
%TF.ProjectId,EuroPlatvorm,4575726f-506c-4617-9476-6f726d2e6b69,rev?*%
%TF.SameCoordinates,Original*%
%TF.FileFunction,Legend,Top*%
%TF.FilePolarity,Positive*%
%FSLAX46Y46*%
G04 Gerber Fmt 4.6, Leading zero omitted, Abs format (unit mm)*
G04 Created by KiCad (PCBNEW 10.0.1) date 2026-09-18 11:15:10*
%MOMM*%
%LPD*%
G01*
G04 APERTURE LIST*
%ADD10C,0.000000*%
%ADD11C,0.100000*%
%ADD12C,0.150000*%
%ADD13C,0.160000*%
%ADD14C,0.120000*%
%ADD15C,0.250000*%
%ADD16C,0.060000*%
G04 APERTURE END LIST*
D10*
G36*
X149775876Y-135924766D02*
G01*
X149798781Y-135925887D01*
X149820916Y-135927753D01*
X149842288Y-135930367D01*
X149862893Y-135933735D01*
X149882740Y-135937845D01*
X149901820Y-135942702D01*
X149920139Y-135948309D01*
X149937699Y-135954664D01*
X149954496Y-135961775D01*
X149970532Y-135969629D01*
X149985809Y-135978236D01*
X150000327Y-135987595D01*
X150014085Y-135997700D01*
X150027090Y-136008559D01*
X150039334Y-136020172D01*
X150050822Y-136032528D01*
X150061557Y-136045645D01*
X150071526Y-136059509D01*
X150080752Y-136074130D01*
X150089218Y-136089501D01*
X150096932Y-136105621D01*
X150103896Y-136122498D01*
X150110105Y-136140130D01*
X150115561Y-136158515D01*
X150120267Y-136177657D01*
X150124224Y-136197551D01*
X150127431Y-136218199D01*
X150129887Y-136239604D01*
X150131600Y-136261766D01*
X150132772Y-136308353D01*
X150132772Y-136836781D01*
X150017252Y-136836781D01*
X150003673Y-136835466D01*
X149997214Y-136834537D01*
X149990973Y-136833426D01*
X149984951Y-136832130D01*
X149979148Y-136830654D01*
X149973566Y-136828991D01*
X149968204Y-136827141D01*
X149963058Y-136825106D01*
X149958129Y-136822883D01*
X149953416Y-136820474D01*
X149948931Y-136817873D01*
X149944661Y-136815081D01*
X149940606Y-136812102D01*
X149936777Y-136808925D01*
X149933161Y-136805558D01*
X149929768Y-136801997D01*
X149926588Y-136798241D01*
X149923629Y-136794285D01*
X149920897Y-136790138D01*
X149918375Y-136785791D01*
X149916076Y-136781246D01*
X149913998Y-136776499D01*
X149912134Y-136771553D01*
X149910491Y-136766407D01*
X149909065Y-136761056D01*
X149907865Y-136755503D01*
X149906878Y-136749745D01*
X149906111Y-136743779D01*
X149905565Y-136737614D01*
X149905234Y-136731240D01*
X149905126Y-136724654D01*
X149905126Y-136262466D01*
X149903620Y-136245507D01*
X149902465Y-136237443D01*
X149901039Y-136229652D01*
X149899343Y-136222147D01*
X149897372Y-136214914D01*
X149895127Y-136207959D01*
X149892616Y-136201284D01*
X149889828Y-136194879D01*
X149886766Y-136188753D01*
X149883429Y-136182903D01*
X149879819Y-136177326D01*
X149875926Y-136172028D01*
X149871761Y-136167003D01*
X149867319Y-136162247D01*
X149862599Y-136157772D01*
X149857599Y-136153568D01*
X149852321Y-136149637D01*
X149846766Y-136145976D01*
X149840927Y-136142596D01*
X149834805Y-136139482D01*
X149828406Y-136136640D01*
X149821720Y-136134076D01*
X149814757Y-136131777D01*
X149807503Y-136129753D01*
X149799972Y-136128001D01*
X149792152Y-136126513D01*
X149784047Y-136125304D01*
X149766979Y-136123684D01*
X149748763Y-136123148D01*
X149730548Y-136123684D01*
X149721873Y-136124358D01*
X149713485Y-136125304D01*
X149705388Y-136126513D01*
X149697578Y-136128001D01*
X149690059Y-136129753D01*
X149682824Y-136131777D01*
X149675880Y-136134076D01*
X149669226Y-136136640D01*
X149662860Y-136139482D01*
X149656782Y-136142596D01*
X149650996Y-136145976D01*
X149645493Y-136149637D01*
X149640283Y-136153568D01*
X149635359Y-136157772D01*
X149630725Y-136162247D01*
X149626380Y-136167003D01*
X149622322Y-136172028D01*
X149618550Y-136177326D01*
X149615072Y-136182903D01*
X149611881Y-136188753D01*
X149608980Y-136194879D01*
X149606366Y-136201284D01*
X149604040Y-136207959D01*
X149602001Y-136214914D01*
X149600255Y-136222147D01*
X149598797Y-136229652D01*
X149597626Y-136237443D01*
X149596747Y-136245507D01*
X149596156Y-136253844D01*
X149595848Y-136262466D01*
X149595848Y-136836781D01*
X149366498Y-136836781D01*
X149366498Y-136308353D01*
X149366879Y-136284684D01*
X149368011Y-136261766D01*
X149369901Y-136239604D01*
X149372552Y-136218199D01*
X149375949Y-136197551D01*
X149380104Y-136177657D01*
X149385018Y-136158515D01*
X149390682Y-136140130D01*
X149397106Y-136122498D01*
X149404277Y-136105621D01*
X149412204Y-136089501D01*
X149420886Y-136074130D01*
X149430320Y-136059509D01*
X149440508Y-136045645D01*
X149451444Y-136032528D01*
X149463133Y-136020172D01*
X149475576Y-136008559D01*
X149488769Y-135997700D01*
X149502714Y-135987595D01*
X149517409Y-135978236D01*
X149532855Y-135969629D01*
X149549051Y-135961775D01*
X149565999Y-135954664D01*
X149583695Y-135948309D01*
X149602140Y-135942702D01*
X149621333Y-135937845D01*
X149641277Y-135933735D01*
X149661967Y-135930367D01*
X149683407Y-135927753D01*
X149705595Y-135925887D01*
X149752211Y-135924389D01*
X149775876Y-135924766D01*
G37*
G36*
X151490283Y-135924766D02*
G01*
X151513189Y-135925887D01*
X151535326Y-135927753D01*
X151556703Y-135930367D01*
X151577313Y-135933735D01*
X151597163Y-135937845D01*
X151616245Y-135942702D01*
X151634568Y-135948309D01*
X151652126Y-135954664D01*
X151668925Y-135961775D01*
X151684963Y-135969629D01*
X151700244Y-135978236D01*
X151714763Y-135987595D01*
X151728522Y-135997700D01*
X151741529Y-136008559D01*
X151753773Y-136020172D01*
X151765261Y-136032528D01*
X151775991Y-136045645D01*
X151785972Y-136059509D01*
X151795193Y-136074130D01*
X151803662Y-136089501D01*
X151811377Y-136105621D01*
X151818343Y-136122498D01*
X151824549Y-136140130D01*
X151830010Y-136158515D01*
X151834715Y-136177657D01*
X151838674Y-136197551D01*
X151841880Y-136218199D01*
X151844338Y-136239604D01*
X151846045Y-136261766D01*
X151847218Y-136308353D01*
X151847218Y-136836781D01*
X151731649Y-136836781D01*
X151718064Y-136835466D01*
X151711604Y-136834537D01*
X151705360Y-136833426D01*
X151699334Y-136832130D01*
X151693531Y-136830654D01*
X151687947Y-136828991D01*
X151682583Y-136827141D01*
X151677434Y-136825106D01*
X151672508Y-136822883D01*
X151667798Y-136820474D01*
X151663312Y-136817873D01*
X151659042Y-136815081D01*
X151654989Y-136812102D01*
X151651158Y-136808925D01*
X151647545Y-136805558D01*
X151644151Y-136801997D01*
X151640977Y-136798241D01*
X151638021Y-136794285D01*
X151635288Y-136790138D01*
X151632763Y-136785791D01*
X151630468Y-136781246D01*
X151628388Y-136776499D01*
X151626527Y-136771553D01*
X151624888Y-136766407D01*
X151623463Y-136761056D01*
X151622261Y-136755503D01*
X151621277Y-136749745D01*
X151620510Y-136743779D01*
X151619961Y-136737614D01*
X151619636Y-136731240D01*
X151619524Y-136724654D01*
X151619524Y-136262466D01*
X151618032Y-136245507D01*
X151616875Y-136237443D01*
X151615452Y-136229652D01*
X151613761Y-136222147D01*
X151611793Y-136214914D01*
X151609555Y-136207959D01*
X151607044Y-136201284D01*
X151604257Y-136194879D01*
X151601199Y-136188753D01*
X151597861Y-136182903D01*
X151594253Y-136177326D01*
X151590366Y-136172028D01*
X151586202Y-136167003D01*
X151581760Y-136162247D01*
X151577041Y-136157772D01*
X151572044Y-136153568D01*
X151566766Y-136149637D01*
X151561209Y-136145976D01*
X151555368Y-136142596D01*
X151549251Y-136139482D01*
X151542851Y-136136640D01*
X151536168Y-136134076D01*
X151529200Y-136131777D01*
X151521953Y-136129753D01*
X151514420Y-136128001D01*
X151506599Y-136126513D01*
X151498495Y-136125304D01*
X151481427Y-136123684D01*
X151463210Y-136123148D01*
X151444996Y-136123684D01*
X151436319Y-136124358D01*
X151427936Y-136125304D01*
X151419836Y-136126513D01*
X151412026Y-136128001D01*
X151404507Y-136129753D01*
X151397273Y-136131777D01*
X151390328Y-136134076D01*
X151383674Y-136136640D01*
X151377304Y-136139482D01*
X151371230Y-136142596D01*
X151365440Y-136145976D01*
X151359938Y-136149637D01*
X151354722Y-136153568D01*
X151349799Y-136157772D01*
X151345167Y-136162247D01*
X151340818Y-136167003D01*
X151336758Y-136172028D01*
X151332987Y-136177326D01*
X151329506Y-136182903D01*
X151326314Y-136188753D01*
X151323410Y-136194879D01*
X151320791Y-136201284D01*
X151318463Y-136207959D01*
X151316425Y-136214914D01*
X151314671Y-136222147D01*
X151313211Y-136229652D01*
X151312038Y-136237443D01*
X151311154Y-136245507D01*
X151310556Y-136253844D01*
X151310250Y-136262466D01*
X151310250Y-136836781D01*
X151080898Y-136836781D01*
X151080898Y-136308353D01*
X151081280Y-136284684D01*
X151082414Y-136261766D01*
X151084304Y-136239604D01*
X151086950Y-136218199D01*
X151090351Y-136197551D01*
X151094506Y-136177657D01*
X151099419Y-136158515D01*
X151105086Y-136140130D01*
X151111506Y-136122498D01*
X151118681Y-136105621D01*
X151126608Y-136089501D01*
X151135288Y-136074130D01*
X151144720Y-136059509D01*
X151154906Y-136045645D01*
X151165844Y-136032528D01*
X151177536Y-136020172D01*
X151189974Y-136008559D01*
X151203169Y-135997700D01*
X151217115Y-135987595D01*
X151231812Y-135978236D01*
X151247255Y-135969629D01*
X151263451Y-135961775D01*
X151280399Y-135954664D01*
X151298097Y-135948309D01*
X151316540Y-135942702D01*
X151335736Y-135937845D01*
X151355679Y-135933735D01*
X151376370Y-135930367D01*
X151397807Y-135927753D01*
X151419993Y-135925887D01*
X151466609Y-135924389D01*
X151490283Y-135924766D01*
G37*
G36*
X150015268Y-133369312D02*
G01*
X150025517Y-133370217D01*
X150035395Y-133371575D01*
X150071382Y-133378182D01*
X150086311Y-133382234D01*
X150099192Y-133387405D01*
X150104864Y-133390553D01*
X150110034Y-133394152D01*
X150114690Y-133398260D01*
X150118836Y-133402942D01*
X150122475Y-133408242D01*
X150125598Y-133414227D01*
X150128218Y-133420952D01*
X150130328Y-133428479D01*
X150131934Y-133436857D01*
X150133023Y-133446155D01*
X150133684Y-133467720D01*
X150132316Y-133493631D01*
X150128917Y-133524354D01*
X150123493Y-133560352D01*
X150116041Y-133602080D01*
X150106566Y-133650009D01*
X150095070Y-133704595D01*
X150089643Y-133734377D01*
X150085815Y-133765574D01*
X150083493Y-133798031D01*
X150082593Y-133831616D01*
X150084697Y-133901569D01*
X150091432Y-133974277D01*
X150102083Y-134048589D01*
X150115952Y-134123344D01*
X150132330Y-134197394D01*
X150150519Y-134269580D01*
X150169806Y-134338748D01*
X150189491Y-134403747D01*
X150227239Y-134516612D01*
X150258119Y-134598939D01*
X150276498Y-134641485D01*
X150278933Y-134646290D01*
X150281116Y-134650939D01*
X150283056Y-134655428D01*
X150284774Y-134659757D01*
X150286271Y-134663930D01*
X150287567Y-134667943D01*
X150288662Y-134671804D01*
X150289580Y-134675507D01*
X150290325Y-134679051D01*
X150290912Y-134682441D01*
X150291347Y-134685672D01*
X150291647Y-134688753D01*
X150291820Y-134691680D01*
X150291882Y-134694450D01*
X150291843Y-134697068D01*
X150291706Y-134699532D01*
X150291492Y-134701845D01*
X150291210Y-134704000D01*
X150290870Y-134706010D01*
X150290481Y-134707865D01*
X150290062Y-134709570D01*
X150289618Y-134711124D01*
X150288705Y-134713785D01*
X150287840Y-134715846D01*
X150287109Y-134717317D01*
X150286412Y-134718488D01*
X150276118Y-134729473D01*
X150263735Y-134741416D01*
X150255877Y-134748481D01*
X150246957Y-134756072D01*
X150237018Y-134764043D01*
X150226098Y-134772241D01*
X150214245Y-134780519D01*
X150201487Y-134788732D01*
X150187872Y-134796726D01*
X150173441Y-134804353D01*
X150158229Y-134811463D01*
X150142278Y-134817912D01*
X150134118Y-134820472D01*
X150125948Y-134822128D01*
X150117785Y-134822924D01*
X150109643Y-134822895D01*
X150101515Y-134822088D01*
X150093427Y-134820548D01*
X150085379Y-134818310D01*
X150077382Y-134815417D01*
X150069453Y-134811917D01*
X150061591Y-134807844D01*
X150053809Y-134803244D01*
X150046123Y-134798159D01*
X150038533Y-134792632D01*
X150031057Y-134786699D01*
X150016464Y-134773792D01*
X150002424Y-134759783D01*
X149989014Y-134745004D01*
X149976316Y-134729784D01*
X149964394Y-134714466D01*
X149953332Y-134699377D01*
X149943206Y-134684858D01*
X149926054Y-134658858D01*
X149921909Y-134653079D01*
X149916962Y-134647382D01*
X149911273Y-134641779D01*
X149904914Y-134636281D01*
X149897931Y-134630884D01*
X149890393Y-134625603D01*
X149873898Y-134615401D01*
X149855917Y-134605731D01*
X149836932Y-134596633D01*
X149817434Y-134588163D01*
X149797914Y-134580371D01*
X149778861Y-134573307D01*
X149760762Y-134567023D01*
X149729382Y-134556992D01*
X149699588Y-134548480D01*
X149682089Y-134536397D01*
X149665439Y-134522629D01*
X149649628Y-134507283D01*
X149634632Y-134490471D01*
X149620431Y-134472299D01*
X149607013Y-134452881D01*
X149594357Y-134432317D01*
X149582451Y-134410720D01*
X149560800Y-134364869D01*
X149541923Y-134316183D01*
X149525686Y-134265540D01*
X149511935Y-134213801D01*
X149500543Y-134161838D01*
X149491364Y-134110522D01*
X149484254Y-134060717D01*
X149479081Y-134013293D01*
X149475701Y-133969123D01*
X149473969Y-133929063D01*
X149473756Y-133893994D01*
X149474912Y-133864780D01*
X149476162Y-133852576D01*
X149478180Y-133840732D01*
X149480907Y-133829244D01*
X149484297Y-133818116D01*
X149488303Y-133807345D01*
X149492871Y-133796934D01*
X149497949Y-133786883D01*
X149503498Y-133777194D01*
X149509454Y-133767866D01*
X149515775Y-133758897D01*
X149522413Y-133750295D01*
X149529311Y-133742056D01*
X149536424Y-133734181D01*
X149543701Y-133726675D01*
X149558554Y-133712757D01*
X149573457Y-133700310D01*
X149588026Y-133689339D01*
X149601851Y-133679854D01*
X149614540Y-133671858D01*
X149625684Y-133665357D01*
X149634892Y-133660356D01*
X149645908Y-133654883D01*
X149657521Y-133716028D01*
X149665425Y-133751479D01*
X149674868Y-133789446D01*
X149685973Y-133829358D01*
X149698847Y-133870661D01*
X149713608Y-133912795D01*
X149730363Y-133955204D01*
X149749226Y-133997330D01*
X149770312Y-134038602D01*
X149793726Y-134078477D01*
X149819591Y-134116390D01*
X149833476Y-134134433D01*
X149848013Y-134151779D01*
X149863221Y-134168353D01*
X149879109Y-134184085D01*
X149895690Y-134198911D01*
X149912983Y-134212754D01*
X149931001Y-134225549D01*
X149949754Y-134237225D01*
X149916153Y-134165263D01*
X149876018Y-134069473D01*
X149854543Y-134011234D01*
X149833818Y-133947852D01*
X149815103Y-133880649D01*
X149799669Y-133810942D01*
X149788775Y-133740037D01*
X149783688Y-133669262D01*
X149783717Y-133634337D01*
X149785671Y-133599937D01*
X149789707Y-133566223D01*
X149795988Y-133533365D01*
X149804671Y-133501532D01*
X149815905Y-133470875D01*
X149829865Y-133441571D01*
X149846696Y-133413778D01*
X149846651Y-133413023D01*
X149859496Y-133405928D01*
X149872318Y-133399510D01*
X149885093Y-133393752D01*
X149897797Y-133388632D01*
X149910400Y-133384145D01*
X149922877Y-133380264D01*
X149935205Y-133376978D01*
X149947358Y-133374276D01*
X149959320Y-133372133D01*
X149971053Y-133370538D01*
X149982537Y-133369476D01*
X149993755Y-133368925D01*
X150004671Y-133368880D01*
X150015268Y-133369312D01*
G37*
G36*
X153243745Y-133368925D02*
G01*
X153254959Y-133369476D01*
X153266446Y-133370538D01*
X153278184Y-133372133D01*
X153290136Y-133374276D01*
X153302290Y-133376978D01*
X153314616Y-133380264D01*
X153327090Y-133384145D01*
X153339686Y-133388632D01*
X153352386Y-133393752D01*
X153365159Y-133399510D01*
X153377979Y-133405928D01*
X153390830Y-133413023D01*
X153390783Y-133413778D01*
X153407612Y-133441571D01*
X153421567Y-133470875D01*
X153432809Y-133501532D01*
X153441488Y-133533365D01*
X153447769Y-133566223D01*
X153451808Y-133599937D01*
X153453770Y-133634337D01*
X153453797Y-133669262D01*
X153448713Y-133740037D01*
X153437824Y-133810942D01*
X153422391Y-133880649D01*
X153403684Y-133947852D01*
X153382962Y-134011234D01*
X153361490Y-134069473D01*
X153321367Y-134165263D01*
X153287771Y-134237225D01*
X153306523Y-134225549D01*
X153324544Y-134212754D01*
X153341837Y-134198911D01*
X153358414Y-134184085D01*
X153374307Y-134168353D01*
X153389512Y-134151779D01*
X153404047Y-134134433D01*
X153417934Y-134116390D01*
X153443798Y-134078477D01*
X153467213Y-134038602D01*
X153488296Y-133997330D01*
X153507157Y-133955204D01*
X153523910Y-133912795D01*
X153538664Y-133870661D01*
X153551538Y-133829358D01*
X153562634Y-133789446D01*
X153572076Y-133751479D01*
X153579971Y-133716028D01*
X153591571Y-133654883D01*
X153602583Y-133660356D01*
X153611797Y-133665357D01*
X153622952Y-133671858D01*
X153635639Y-133679854D01*
X153649465Y-133689339D01*
X153664038Y-133700310D01*
X153678950Y-133712757D01*
X153693803Y-133726675D01*
X153701082Y-133734181D01*
X153708198Y-133742056D01*
X153715105Y-133750295D01*
X153721739Y-133758897D01*
X153728064Y-133767866D01*
X153734021Y-133777194D01*
X153739567Y-133786883D01*
X153744653Y-133796934D01*
X153749220Y-133807345D01*
X153753223Y-133818116D01*
X153756614Y-133829244D01*
X153759345Y-133840732D01*
X153761361Y-133852576D01*
X153762611Y-133864780D01*
X153763772Y-133893994D01*
X153763555Y-133929063D01*
X153761825Y-133969123D01*
X153758440Y-134013293D01*
X153753261Y-134060717D01*
X153746148Y-134110522D01*
X153736971Y-134161838D01*
X153725569Y-134213801D01*
X153711822Y-134265540D01*
X153695578Y-134316183D01*
X153676702Y-134364869D01*
X153655053Y-134410720D01*
X153643147Y-134432317D01*
X153630496Y-134452881D01*
X153617080Y-134472299D01*
X153602883Y-134490471D01*
X153587886Y-134507283D01*
X153572075Y-134522629D01*
X153555431Y-134536397D01*
X153537936Y-134548480D01*
X153508142Y-134556992D01*
X153476764Y-134567023D01*
X153458665Y-134573307D01*
X153439612Y-134580371D01*
X153420090Y-134588163D01*
X153400595Y-134596633D01*
X153381610Y-134605731D01*
X153363623Y-134615401D01*
X153347130Y-134625603D01*
X153339595Y-134630884D01*
X153332614Y-134636281D01*
X153326250Y-134641779D01*
X153320561Y-134647382D01*
X153315617Y-134653079D01*
X153311468Y-134658858D01*
X153294321Y-134684858D01*
X153284194Y-134699377D01*
X153273131Y-134714466D01*
X153261208Y-134729784D01*
X153248508Y-134745004D01*
X153235098Y-134759783D01*
X153221061Y-134773792D01*
X153206470Y-134786699D01*
X153198993Y-134792632D01*
X153191402Y-134798159D01*
X153183715Y-134803244D01*
X153175936Y-134807844D01*
X153168074Y-134811917D01*
X153160144Y-134815417D01*
X153152143Y-134818310D01*
X153144097Y-134820548D01*
X153136007Y-134822088D01*
X153127888Y-134822895D01*
X153119738Y-134822924D01*
X153111576Y-134822128D01*
X153103405Y-134820472D01*
X153095245Y-134817912D01*
X153079296Y-134811463D01*
X153064084Y-134804353D01*
X153049651Y-134796726D01*
X153036038Y-134788732D01*
X153023284Y-134780519D01*
X153011425Y-134772241D01*
X153000509Y-134764043D01*
X152990569Y-134756072D01*
X152981647Y-134748481D01*
X152973789Y-134741416D01*
X152961403Y-134729473D01*
X152951113Y-134718488D01*
X152950420Y-134717317D01*
X152949689Y-134715846D01*
X152948823Y-134713785D01*
X152947916Y-134711124D01*
X152947474Y-134709570D01*
X152947053Y-134707865D01*
X152946671Y-134706010D01*
X152946331Y-134704000D01*
X152946052Y-134701845D01*
X152945836Y-134699532D01*
X152945704Y-134697068D01*
X152945662Y-134694450D01*
X152945724Y-134691680D01*
X152945897Y-134688753D01*
X152946201Y-134685672D01*
X152946636Y-134682441D01*
X152947220Y-134679051D01*
X152947963Y-134675507D01*
X152948879Y-134671804D01*
X152949977Y-134667943D01*
X152951272Y-134663930D01*
X152952766Y-134659757D01*
X152954480Y-134655428D01*
X152956419Y-134650939D01*
X152958598Y-134646290D01*
X152961025Y-134641485D01*
X152979424Y-134598939D01*
X153010308Y-134516612D01*
X153048053Y-134403747D01*
X153067742Y-134338748D01*
X153087033Y-134269580D01*
X153105215Y-134197394D01*
X153121597Y-134123344D01*
X153135468Y-134048589D01*
X153146121Y-133974277D01*
X153152858Y-133901569D01*
X153154968Y-133831616D01*
X153154070Y-133798031D01*
X153151754Y-133765574D01*
X153147926Y-133734377D01*
X153142505Y-133704595D01*
X153131006Y-133650009D01*
X153121530Y-133602080D01*
X153114076Y-133560352D01*
X153108648Y-133524354D01*
X153105243Y-133493631D01*
X153103869Y-133467720D01*
X153104528Y-133446155D01*
X153105616Y-133436857D01*
X153107213Y-133428479D01*
X153109323Y-133420952D01*
X153111936Y-133414227D01*
X153115061Y-133408242D01*
X153118694Y-133402942D01*
X153122836Y-133398260D01*
X153127490Y-133394152D01*
X153132649Y-133390553D01*
X153138319Y-133387405D01*
X153151197Y-133382234D01*
X153166111Y-133378182D01*
X153202084Y-133371575D01*
X153211970Y-133370217D01*
X153222227Y-133369312D01*
X153232823Y-133368880D01*
X153243745Y-133368925D01*
G37*
G36*
X151673052Y-132293836D02*
G01*
X151736376Y-132298984D01*
X151798873Y-132307468D01*
X151860487Y-132319216D01*
X151921146Y-132334152D01*
X151980787Y-132352189D01*
X152039343Y-132373269D01*
X152096748Y-132397303D01*
X152152943Y-132424216D01*
X152207858Y-132453937D01*
X152261435Y-132486385D01*
X152313599Y-132521490D01*
X152364294Y-132559171D01*
X152413453Y-132599348D01*
X152461008Y-132641954D01*
X152506896Y-132686907D01*
X152551057Y-132734133D01*
X152593416Y-132783556D01*
X152633920Y-132835096D01*
X152672494Y-132888682D01*
X152709076Y-132944239D01*
X152743604Y-133001682D01*
X152776015Y-133060944D01*
X152806236Y-133121944D01*
X152834213Y-133184608D01*
X152859873Y-133248858D01*
X152883152Y-133314620D01*
X152903987Y-133381815D01*
X152922317Y-133450370D01*
X152938070Y-133520209D01*
X152951179Y-133591254D01*
X152961595Y-133663427D01*
X152956497Y-133659359D01*
X152951265Y-133655453D01*
X152945895Y-133651707D01*
X152940395Y-133648123D01*
X152934771Y-133644714D01*
X152929024Y-133641476D01*
X152923154Y-133638419D01*
X152917164Y-133635545D01*
X152911058Y-133632855D01*
X152904840Y-133630360D01*
X152898512Y-133628063D01*
X152892075Y-133625965D01*
X152885541Y-133624071D01*
X152878901Y-133622385D01*
X152872164Y-133620918D01*
X152865332Y-133619660D01*
X152854910Y-133618198D01*
X152844537Y-133617268D01*
X152834233Y-133616874D01*
X152824005Y-133616991D01*
X152813871Y-133617619D01*
X152803847Y-133618747D01*
X152793947Y-133620356D01*
X152784186Y-133622440D01*
X152774574Y-133624996D01*
X152765135Y-133628001D01*
X152755878Y-133631453D01*
X152746815Y-133635338D01*
X152737971Y-133639645D01*
X152729350Y-133644365D01*
X152720971Y-133649486D01*
X152712854Y-133655000D01*
X152705003Y-133660891D01*
X152697445Y-133667158D01*
X152690183Y-133673780D01*
X152683242Y-133680754D01*
X152676626Y-133688062D01*
X152670362Y-133695702D01*
X152664455Y-133703655D01*
X152658925Y-133711918D01*
X152653787Y-133720477D01*
X152649053Y-133729321D01*
X152644738Y-133738435D01*
X152640856Y-133747820D01*
X152637429Y-133757453D01*
X152634466Y-133767333D01*
X152631980Y-133777446D01*
X152629987Y-133787778D01*
X152615456Y-133865774D01*
X152597192Y-133946529D01*
X152575160Y-134028628D01*
X152562722Y-134069741D01*
X152549327Y-134110656D01*
X152534978Y-134151204D01*
X152519662Y-134191199D01*
X152503384Y-134230475D01*
X152486133Y-134268846D01*
X152467910Y-134306138D01*
X152448704Y-134342174D01*
X152428519Y-134376782D01*
X152407342Y-134409778D01*
X152397506Y-134424013D01*
X152387024Y-134438453D01*
X152375904Y-134452944D01*
X152364164Y-134467336D01*
X152351810Y-134481476D01*
X152338864Y-134495221D01*
X152325329Y-134508408D01*
X152311222Y-134520899D01*
X152296555Y-134532535D01*
X152281343Y-134543167D01*
X152273531Y-134548059D01*
X152265595Y-134552641D01*
X152257521Y-134556900D01*
X152249322Y-134560814D01*
X152240994Y-134564358D01*
X152232542Y-134567530D01*
X152223964Y-134570292D01*
X152215264Y-134572634D01*
X152206443Y-134574538D01*
X152197502Y-134575986D01*
X152188441Y-134576951D01*
X152179267Y-134577422D01*
X152172428Y-134577501D01*
X152165628Y-134577394D01*
X152158869Y-134577097D01*
X152152156Y-134576603D01*
X152145489Y-134575905D01*
X152138875Y-134574993D01*
X152132308Y-134573870D01*
X152125799Y-134572518D01*
X152119347Y-134570934D01*
X152112950Y-134569111D01*
X152106620Y-134567042D01*
X152100352Y-134564722D01*
X152094152Y-134562141D01*
X152088021Y-134559294D01*
X152081959Y-134556176D01*
X152075975Y-134552777D01*
X152061184Y-134542878D01*
X152046913Y-134531182D01*
X152033147Y-134517798D01*
X152019874Y-134502830D01*
X152007091Y-134486382D01*
X151994779Y-134468560D01*
X151971550Y-134429213D01*
X151950102Y-134385629D01*
X151930363Y-134338653D01*
X151912258Y-134289128D01*
X151895697Y-134237889D01*
X151880611Y-134185781D01*
X151866920Y-134133651D01*
X151843396Y-134032659D01*
X151809608Y-133867375D01*
X151772100Y-133688317D01*
X151750854Y-133596196D01*
X151727049Y-133503904D01*
X151700000Y-133412609D01*
X151669032Y-133323484D01*
X151633470Y-133237691D01*
X151592628Y-133156400D01*
X151545832Y-133080780D01*
X151519991Y-133045460D01*
X151492407Y-133011999D01*
X151462997Y-132980537D01*
X151431671Y-132951222D01*
X151398351Y-132924206D01*
X151362945Y-132899629D01*
X151325379Y-132877634D01*
X151285558Y-132858371D01*
X151243403Y-132841990D01*
X151198828Y-132828629D01*
X151151746Y-132818442D01*
X151102074Y-132811566D01*
X151049724Y-132808154D01*
X150994617Y-132808353D01*
X150939056Y-132812347D01*
X150912156Y-132815778D01*
X150885837Y-132820151D01*
X150860098Y-132825440D01*
X150834937Y-132831640D01*
X150786306Y-132846695D01*
X150739909Y-132865196D01*
X150695716Y-132887017D01*
X150653679Y-132912049D01*
X150613769Y-132940169D01*
X150575945Y-132971252D01*
X150540178Y-133005186D01*
X150506415Y-133041837D01*
X150474628Y-133081100D01*
X150444774Y-133122847D01*
X150416825Y-133166963D01*
X150390743Y-133213321D01*
X150366481Y-133261808D01*
X150357552Y-133281154D01*
X150348918Y-133300692D01*
X150340571Y-133320418D01*
X150332509Y-133340326D01*
X150324716Y-133360402D01*
X150317191Y-133380636D01*
X150309913Y-133401032D01*
X150302891Y-133421568D01*
X150339262Y-133301068D01*
X150383393Y-133185197D01*
X150434915Y-133074391D01*
X150493454Y-132969082D01*
X150558644Y-132869703D01*
X150630111Y-132776691D01*
X150707493Y-132690476D01*
X150748283Y-132650054D01*
X150790414Y-132611498D01*
X150833837Y-132574853D01*
X150878510Y-132540183D01*
X150924379Y-132507536D01*
X150971405Y-132476969D01*
X151019540Y-132448534D01*
X151068737Y-132422291D01*
X151118948Y-132398288D01*
X151170130Y-132376581D01*
X151222237Y-132357226D01*
X151275221Y-132340272D01*
X151329034Y-132325779D01*
X151383639Y-132313806D01*
X151438976Y-132304390D01*
X151495008Y-132297602D01*
X151551687Y-132293487D01*
X151608968Y-132292107D01*
X151673052Y-132293836D01*
G37*
G36*
X151025742Y-133216754D02*
G01*
X151033920Y-133217028D01*
X151042033Y-133217548D01*
X151050080Y-133218322D01*
X151058056Y-133219363D01*
X151065966Y-133220685D01*
X151073799Y-133222284D01*
X151081564Y-133224187D01*
X151089243Y-133226395D01*
X151096853Y-133228916D01*
X151104384Y-133231764D01*
X151111827Y-133234947D01*
X151119186Y-133238475D01*
X151126463Y-133242355D01*
X151133653Y-133246604D01*
X151149092Y-133257264D01*
X151163975Y-133269671D01*
X151178316Y-133283716D01*
X151192119Y-133299301D01*
X151205405Y-133316319D01*
X151218183Y-133334685D01*
X151242250Y-133375012D01*
X151264414Y-133419474D01*
X151284773Y-133467256D01*
X151303414Y-133517551D01*
X151320428Y-133569547D01*
X151335912Y-133622435D01*
X151349955Y-133675398D01*
X151374091Y-133778320D01*
X151409125Y-133949430D01*
X151445020Y-134121541D01*
X151465320Y-134210535D01*
X151488066Y-134299951D01*
X151513898Y-134388638D01*
X151543478Y-134475438D01*
X151577455Y-134559203D01*
X151616485Y-134638778D01*
X151661218Y-134713007D01*
X151685926Y-134747759D01*
X151712306Y-134780741D01*
X151740441Y-134811810D01*
X151770408Y-134840821D01*
X151802287Y-134867634D01*
X151836172Y-134892106D01*
X151872125Y-134914082D01*
X151910244Y-134933425D01*
X151950608Y-134949992D01*
X151993291Y-134963639D01*
X152038383Y-134974220D01*
X152085959Y-134981591D01*
X152136106Y-134985602D01*
X152188901Y-134986124D01*
X152233698Y-134983394D01*
X152277132Y-134977485D01*
X152319211Y-134968526D01*
X152359948Y-134956664D01*
X152399344Y-134942037D01*
X152437406Y-134924786D01*
X152474147Y-134905043D01*
X152509573Y-134882957D01*
X152543687Y-134858662D01*
X152576500Y-134832300D01*
X152608020Y-134804008D01*
X152638259Y-134773926D01*
X152667216Y-134742197D01*
X152694908Y-134708956D01*
X152721332Y-134674350D01*
X152746504Y-134638510D01*
X152762666Y-134613895D01*
X152778394Y-134588661D01*
X152793683Y-134562853D01*
X152808538Y-134536504D01*
X152822957Y-134509643D01*
X152836941Y-134482317D01*
X152863607Y-134426392D01*
X152888553Y-134369009D01*
X152911774Y-134310460D01*
X152933285Y-134251030D01*
X152953097Y-134191004D01*
X152940792Y-134260395D01*
X152925971Y-134328657D01*
X152908703Y-134395720D01*
X152889037Y-134461509D01*
X152842752Y-134588993D01*
X152787609Y-134710549D01*
X152724082Y-134825618D01*
X152652647Y-134933628D01*
X152614119Y-134984812D01*
X152573791Y-135034020D01*
X152531732Y-135081186D01*
X152487988Y-135126236D01*
X152442633Y-135169100D01*
X152395717Y-135209711D01*
X152347307Y-135247991D01*
X152297458Y-135283876D01*
X152246235Y-135317299D01*
X152193691Y-135348181D01*
X152139890Y-135376453D01*
X152084890Y-135402050D01*
X152028754Y-135424898D01*
X151971540Y-135444933D01*
X151913306Y-135462074D01*
X151854118Y-135476255D01*
X151794024Y-135487409D01*
X151733100Y-135495464D01*
X151671392Y-135500347D01*
X151608968Y-135501993D01*
X151545883Y-135500314D01*
X151483538Y-135495326D01*
X151421992Y-135487106D01*
X151361297Y-135475720D01*
X151301527Y-135461242D01*
X151242740Y-135443752D01*
X151184996Y-135423314D01*
X151128359Y-135400000D01*
X151072889Y-135373892D01*
X151018647Y-135345051D01*
X150965697Y-135313557D01*
X150914098Y-135279480D01*
X150863917Y-135242895D01*
X150815208Y-135203871D01*
X150768039Y-135162484D01*
X150722466Y-135118803D01*
X150678557Y-135072902D01*
X150636370Y-135024854D01*
X150595967Y-134974730D01*
X150557415Y-134922605D01*
X150520770Y-134868551D01*
X150486095Y-134812639D01*
X150453445Y-134754940D01*
X150422893Y-134695536D01*
X150394499Y-134634489D01*
X150368316Y-134571871D01*
X150344417Y-134507767D01*
X150322853Y-134442237D01*
X150303698Y-134375358D01*
X150287001Y-134307201D01*
X150272830Y-134237842D01*
X150261252Y-134167351D01*
X150266362Y-134171178D01*
X150271595Y-134174851D01*
X150276957Y-134178369D01*
X150282440Y-134181717D01*
X150288038Y-134184904D01*
X150293755Y-134187922D01*
X150299582Y-134190761D01*
X150305523Y-134193422D01*
X150311566Y-134195904D01*
X150317717Y-134198196D01*
X150323970Y-134200297D01*
X150330319Y-134202209D01*
X150336768Y-134203916D01*
X150343311Y-134205422D01*
X150349943Y-134206719D01*
X150356661Y-134207812D01*
X150367096Y-134209067D01*
X150377477Y-134209790D01*
X150387780Y-134209984D01*
X150397996Y-134209658D01*
X150408108Y-134208833D01*
X150418097Y-134207507D01*
X150427958Y-134205702D01*
X150437666Y-134203421D01*
X150447218Y-134200678D01*
X150456590Y-134197485D01*
X150465774Y-134193850D01*
X150474750Y-134189787D01*
X150483508Y-134185308D01*
X150492024Y-134180420D01*
X150500296Y-134175135D01*
X150508301Y-134169463D01*
X150516027Y-134163417D01*
X150523468Y-134157011D01*
X150530590Y-134150243D01*
X150537393Y-134143142D01*
X150543857Y-134135706D01*
X150549975Y-134127948D01*
X150555720Y-134119885D01*
X150561088Y-134111516D01*
X150566062Y-134102867D01*
X150570626Y-134093938D01*
X150574761Y-134084741D01*
X150578455Y-134075297D01*
X150581698Y-134065599D01*
X150584475Y-134055672D01*
X150586766Y-134045525D01*
X150588559Y-134035162D01*
X150611991Y-133884992D01*
X150625942Y-133807342D01*
X150641994Y-133729405D01*
X150660607Y-133652269D01*
X150671013Y-133614323D01*
X150682231Y-133576988D01*
X150694311Y-133540378D01*
X150707316Y-133504639D01*
X150721305Y-133469904D01*
X150736328Y-133436296D01*
X150747072Y-133414369D01*
X150758382Y-133393069D01*
X150770316Y-133372500D01*
X150782934Y-133352757D01*
X150796299Y-133333945D01*
X150810463Y-133316162D01*
X150825488Y-133299504D01*
X150841429Y-133284081D01*
X150858354Y-133269982D01*
X150867204Y-133263462D01*
X150876316Y-133257313D01*
X150885707Y-133251548D01*
X150895381Y-133246175D01*
X150905335Y-133241209D01*
X150915595Y-133236664D01*
X150926153Y-133232548D01*
X150937027Y-133228882D01*
X150948216Y-133225672D01*
X150959732Y-133222934D01*
X150971583Y-133220668D01*
X150983773Y-133218902D01*
X150996311Y-133217648D01*
X151009203Y-133216914D01*
X151017503Y-133216720D01*
X151025742Y-133216754D01*
G37*
G36*
X152082752Y-129977125D02*
G01*
X152056422Y-130008497D01*
X152022919Y-130051048D01*
X151984177Y-130103974D01*
X151942137Y-130166491D01*
X151898725Y-130237807D01*
X151877115Y-130276517D01*
X151855890Y-130317130D01*
X151835289Y-130359538D01*
X151815561Y-130403657D01*
X151796943Y-130449381D01*
X151779679Y-130496611D01*
X151764005Y-130545242D01*
X151750180Y-130595190D01*
X151738424Y-130646339D01*
X151728992Y-130698600D01*
X151722126Y-130751872D01*
X151718063Y-130806060D01*
X151717055Y-130861050D01*
X151719327Y-130916760D01*
X151725137Y-130973085D01*
X151734718Y-131029922D01*
X151748321Y-131087179D01*
X151766176Y-131144747D01*
X151789600Y-131125740D01*
X151817880Y-131104845D01*
X151856313Y-131078913D01*
X151904237Y-131049858D01*
X151960976Y-131019594D01*
X151992442Y-131004605D01*
X152025866Y-130990029D01*
X152061162Y-130976117D01*
X152098243Y-130963092D01*
X152137028Y-130951196D01*
X152177439Y-130940677D01*
X152219381Y-130931771D01*
X152262782Y-130924717D01*
X152307553Y-130919750D01*
X152353603Y-130917115D01*
X152400867Y-130917046D01*
X152449249Y-130919785D01*
X152498668Y-130925575D01*
X152549035Y-130934651D01*
X152600276Y-130947252D01*
X152652302Y-130963619D01*
X152705030Y-130983990D01*
X152758382Y-131008609D01*
X152812267Y-131037701D01*
X152866608Y-131071526D01*
X152835640Y-131078510D01*
X152753064Y-131100894D01*
X152697259Y-131118532D01*
X152634359Y-131140821D01*
X152566294Y-131168035D01*
X152495007Y-131200442D01*
X152422424Y-131238314D01*
X152386259Y-131259379D01*
X152350491Y-131281910D01*
X152315372Y-131305944D01*
X152281137Y-131331507D01*
X152248032Y-131358635D01*
X152216298Y-131387369D01*
X152186176Y-131417731D01*
X152157911Y-131449765D01*
X152131738Y-131483496D01*
X152107908Y-131518961D01*
X152086655Y-131556199D01*
X152068228Y-131595233D01*
X152052862Y-131636103D01*
X152040799Y-131678840D01*
X152092725Y-131678590D01*
X152148155Y-131677775D01*
X152214812Y-131676053D01*
X152286380Y-131673096D01*
X152356543Y-131668565D01*
X152389123Y-131665604D01*
X152418985Y-131662124D01*
X152445338Y-131658084D01*
X152467394Y-131653441D01*
X152440264Y-131686653D01*
X152410753Y-131721796D01*
X152374512Y-131763638D01*
X152334477Y-131807934D01*
X152313954Y-131829675D01*
X152293579Y-131850442D01*
X152273720Y-131869694D01*
X152254746Y-131886907D01*
X152237019Y-131901554D01*
X152228739Y-131907747D01*
X152220905Y-131913100D01*
X152315582Y-131958255D01*
X152406986Y-132009669D01*
X152494896Y-132067080D01*
X152579085Y-132130249D01*
X152659316Y-132198918D01*
X152735364Y-132272844D01*
X152807001Y-132351771D01*
X152873993Y-132435451D01*
X152936120Y-132523638D01*
X152993141Y-132616085D01*
X153044836Y-132712533D01*
X153090974Y-132812737D01*
X153131321Y-132916451D01*
X153165651Y-133023422D01*
X153193739Y-133133400D01*
X153215349Y-133246135D01*
X153193198Y-133252973D01*
X153171549Y-133260415D01*
X153150425Y-133268447D01*
X153129840Y-133277045D01*
X153109821Y-133286199D01*
X153090377Y-133295888D01*
X153071537Y-133306094D01*
X153053321Y-133316808D01*
X153035769Y-133253265D01*
X153015915Y-133190849D01*
X152993817Y-133129616D01*
X152969531Y-133069624D01*
X152943114Y-133010929D01*
X152914610Y-132953597D01*
X152884076Y-132897680D01*
X152851569Y-132843238D01*
X152817140Y-132790335D01*
X152780845Y-132739023D01*
X152742737Y-132689354D01*
X152702874Y-132641405D01*
X152661299Y-132595220D01*
X152618073Y-132550865D01*
X152573246Y-132508390D01*
X152526882Y-132467863D01*
X152479022Y-132429338D01*
X152429722Y-132392874D01*
X152379043Y-132358531D01*
X152327031Y-132326363D01*
X152273744Y-132296435D01*
X152219237Y-132268801D01*
X152163557Y-132243524D01*
X152106767Y-132220654D01*
X152048913Y-132200258D01*
X151990052Y-132182389D01*
X151930233Y-132167109D01*
X151869516Y-132154481D01*
X151807962Y-132144552D01*
X151745606Y-132137390D01*
X151682515Y-132133049D01*
X151618738Y-132131589D01*
X151554961Y-132133049D01*
X151491868Y-132137390D01*
X151429518Y-132144552D01*
X151367957Y-132154481D01*
X151307243Y-132167109D01*
X151247423Y-132182389D01*
X151188566Y-132200258D01*
X151130713Y-132220654D01*
X151073922Y-132243524D01*
X151018243Y-132268801D01*
X150963734Y-132296435D01*
X150910450Y-132326363D01*
X150858439Y-132358531D01*
X150807762Y-132392874D01*
X150710607Y-132467863D01*
X150619415Y-132550865D01*
X150534616Y-132641405D01*
X150456646Y-132739023D01*
X150385928Y-132843238D01*
X150322896Y-132953597D01*
X150267978Y-133069624D01*
X150221602Y-133190849D01*
X150201752Y-133253265D01*
X150184200Y-133316808D01*
X150165987Y-133306094D01*
X150147148Y-133295888D01*
X150127703Y-133286199D01*
X150107689Y-133277045D01*
X150087101Y-133268447D01*
X150065973Y-133260415D01*
X150044330Y-133252973D01*
X150022176Y-133246135D01*
X150044795Y-133128860D01*
X150074423Y-133014583D01*
X150110797Y-132903590D01*
X150153658Y-132796156D01*
X150202750Y-132692562D01*
X150257814Y-132593097D01*
X150318590Y-132498030D01*
X150384823Y-132407656D01*
X150456254Y-132322254D01*
X150532616Y-132242094D01*
X150613659Y-132167474D01*
X150699129Y-132098658D01*
X150788751Y-132035945D01*
X150882285Y-131979605D01*
X150979462Y-131929920D01*
X151080017Y-131887180D01*
X151041669Y-131850833D01*
X150980136Y-131795112D01*
X150899720Y-131726352D01*
X150853782Y-131689060D01*
X150804749Y-131650884D01*
X150753151Y-131612602D01*
X150699529Y-131575024D01*
X150644425Y-131538927D01*
X150588378Y-131505108D01*
X150531926Y-131474357D01*
X150503718Y-131460380D01*
X150475611Y-131447461D01*
X150447668Y-131435711D01*
X150419967Y-131425223D01*
X150392566Y-131416094D01*
X150365539Y-131408422D01*
X150377996Y-131402901D01*
X150393012Y-131396889D01*
X150413395Y-131389479D01*
X150438768Y-131381266D01*
X150468757Y-131372833D01*
X150502998Y-131364772D01*
X150541112Y-131357664D01*
X150561513Y-131354650D01*
X150582734Y-131352091D01*
X150604747Y-131350068D01*
X150627493Y-131348650D01*
X150650926Y-131347907D01*
X150675011Y-131347918D01*
X150699688Y-131348749D01*
X150724919Y-131350480D01*
X150750653Y-131353185D01*
X150776843Y-131356934D01*
X150803451Y-131361795D01*
X150830421Y-131367853D01*
X150857714Y-131375170D01*
X150885275Y-131383827D01*
X150913065Y-131393894D01*
X150941035Y-131405445D01*
X150931613Y-131380755D01*
X150902144Y-131312942D01*
X150879322Y-131265792D01*
X150850812Y-131211388D01*
X150816384Y-131150891D01*
X150775816Y-131085482D01*
X150728874Y-131016329D01*
X150675339Y-130944610D01*
X150646029Y-130908155D01*
X150614977Y-130871500D01*
X150582171Y-130834779D01*
X150547577Y-130798160D01*
X150511157Y-130761773D01*
X150472895Y-130725771D01*
X150432752Y-130690301D01*
X150390712Y-130655512D01*
X150346739Y-130621543D01*
X150300807Y-130588548D01*
X150252886Y-130556669D01*
X150202942Y-130526056D01*
X150235840Y-130526463D01*
X150324567Y-130530401D01*
X150385193Y-130534969D01*
X150454175Y-130541958D01*
X150529636Y-130551862D01*
X150609710Y-130565207D01*
X150692533Y-130582492D01*
X150776232Y-130604232D01*
X150858941Y-130630944D01*
X150899343Y-130646316D01*
X150938793Y-130663123D01*
X150977066Y-130681427D01*
X151013917Y-130701292D01*
X151049124Y-130722780D01*
X151082446Y-130745956D01*
X151113651Y-130770882D01*
X151142508Y-130797626D01*
X151168783Y-130826247D01*
X151192240Y-130856813D01*
X151202619Y-130820896D01*
X151216218Y-130779499D01*
X151235982Y-130725585D01*
X151262328Y-130661480D01*
X151295678Y-130589526D01*
X151336443Y-130512053D01*
X151385048Y-130431387D01*
X151412418Y-130390592D01*
X151441907Y-130349868D01*
X151473561Y-130309513D01*
X151507434Y-130269817D01*
X151543584Y-130231075D01*
X151582055Y-130193576D01*
X151622903Y-130157612D01*
X151666184Y-130123471D01*
X151711942Y-130091450D01*
X151760235Y-130061840D01*
X151811115Y-130034928D01*
X151864635Y-130011008D01*
X151920843Y-129990372D01*
X151979798Y-129973311D01*
X152041546Y-129960119D01*
X152106139Y-129951078D01*
X152082752Y-129977125D01*
G37*
G36*
X150638337Y-135925299D02*
G01*
X150659803Y-135926500D01*
X150680549Y-135928173D01*
X150700583Y-135930333D01*
X150719897Y-135932973D01*
X150738502Y-135936092D01*
X150756389Y-135939693D01*
X150773564Y-135943780D01*
X150790019Y-135948348D01*
X150805763Y-135953397D01*
X150820797Y-135958938D01*
X150835117Y-135964959D01*
X150848724Y-135971465D01*
X150861617Y-135978462D01*
X150873800Y-135985941D01*
X150885272Y-135993908D01*
X150896027Y-136002370D01*
X150906079Y-136011317D01*
X150915417Y-136020755D01*
X150924039Y-136030681D01*
X150931958Y-136041096D01*
X150939165Y-136052005D01*
X150945661Y-136063402D01*
X150951448Y-136075298D01*
X150956525Y-136087682D01*
X150960899Y-136100563D01*
X150964558Y-136113937D01*
X150967510Y-136127801D01*
X150969759Y-136142169D01*
X150971295Y-136157030D01*
X150972129Y-136172389D01*
X150972129Y-136478266D01*
X150971690Y-136501115D01*
X150970388Y-136523173D01*
X150968231Y-136544437D01*
X150965228Y-136564920D01*
X150961392Y-136584631D01*
X150956728Y-136603571D01*
X150951252Y-136621757D01*
X150944971Y-136639192D01*
X150937896Y-136655886D01*
X150930036Y-136671849D01*
X150921401Y-136687083D01*
X150912006Y-136701601D01*
X150901860Y-136715412D01*
X150890970Y-136728515D01*
X150879349Y-136740936D01*
X150867005Y-136752664D01*
X150853947Y-136763718D01*
X150840189Y-136774104D01*
X150825735Y-136783824D01*
X150810607Y-136792893D01*
X150794807Y-136801324D01*
X150778347Y-136809111D01*
X150761234Y-136816274D01*
X150743482Y-136822816D01*
X150706099Y-136834066D01*
X150666282Y-136842934D01*
X150624110Y-136849485D01*
X150579668Y-136853777D01*
X150559632Y-136855020D01*
X150540003Y-136855588D01*
X150520794Y-136855467D01*
X150502014Y-136854678D01*
X150483683Y-136853211D01*
X150465820Y-136851075D01*
X150448436Y-136848273D01*
X150431546Y-136844807D01*
X150415166Y-136840684D01*
X150399313Y-136835906D01*
X150384002Y-136830470D01*
X150369246Y-136824390D01*
X150355061Y-136817665D01*
X150341462Y-136810296D01*
X150328463Y-136802287D01*
X150316085Y-136793640D01*
X150304336Y-136784366D01*
X150293238Y-136774463D01*
X150282800Y-136763932D01*
X150273042Y-136752781D01*
X150263975Y-136741011D01*
X150255617Y-136728624D01*
X150247982Y-136715626D01*
X150241086Y-136702022D01*
X150234944Y-136687812D01*
X150229572Y-136673001D01*
X150224983Y-136657593D01*
X150221199Y-136641586D01*
X150218226Y-136624994D01*
X150216086Y-136607812D01*
X150214785Y-136590043D01*
X150214353Y-136571696D01*
X150214671Y-136564898D01*
X150436903Y-136564898D01*
X150438244Y-136577844D01*
X150439203Y-136583988D01*
X150440347Y-136589915D01*
X150441680Y-136595629D01*
X150443204Y-136601128D01*
X150444921Y-136606407D01*
X150446828Y-136611474D01*
X150448925Y-136616329D01*
X150451215Y-136620969D01*
X150453701Y-136625392D01*
X150456371Y-136629607D01*
X150459240Y-136633606D01*
X150462300Y-136637400D01*
X150465555Y-136640980D01*
X150469000Y-136644354D01*
X150472642Y-136647513D01*
X150476477Y-136650470D01*
X150480509Y-136653214D01*
X150484734Y-136655752D01*
X150489153Y-136658080D01*
X150493772Y-136660208D01*
X150498583Y-136662128D01*
X150503592Y-136663844D01*
X150508794Y-136665355D01*
X150514201Y-136666660D01*
X150519798Y-136667766D01*
X150525599Y-136668672D01*
X150531594Y-136669370D01*
X150537789Y-136669870D01*
X150550776Y-136670269D01*
X150562418Y-136670051D01*
X150573770Y-136669398D01*
X150584825Y-136668318D01*
X150595574Y-136666807D01*
X150606013Y-136664875D01*
X150616137Y-136662529D01*
X150625944Y-136659765D01*
X150635428Y-136656595D01*
X150644582Y-136653016D01*
X150653400Y-136649035D01*
X150661885Y-136644659D01*
X150670022Y-136639890D01*
X150677812Y-136634727D01*
X150685249Y-136629181D01*
X150692327Y-136623256D01*
X150699042Y-136616950D01*
X150705385Y-136610273D01*
X150711359Y-136603227D01*
X150716948Y-136595815D01*
X150722159Y-136588041D01*
X150726983Y-136579911D01*
X150731411Y-136571426D01*
X150735439Y-136562592D01*
X150739070Y-136553416D01*
X150742288Y-136543899D01*
X150745092Y-136534046D01*
X150747482Y-136523855D01*
X150749447Y-136513340D01*
X150750987Y-136502495D01*
X150752086Y-136491340D01*
X150752753Y-136479859D01*
X150752978Y-136468068D01*
X150752978Y-136384788D01*
X150732833Y-136392926D01*
X150711926Y-136400715D01*
X150690309Y-136408143D01*
X150668017Y-136415188D01*
X150645081Y-136421829D01*
X150621544Y-136428053D01*
X150597445Y-136433844D01*
X150572821Y-136439172D01*
X150556457Y-136442669D01*
X150541134Y-136446752D01*
X150533858Y-136449019D01*
X150526847Y-136451430D01*
X150520097Y-136453991D01*
X150513603Y-136456693D01*
X150507371Y-136459544D01*
X150501403Y-136462544D01*
X150495696Y-136465691D01*
X150490250Y-136468977D01*
X150485072Y-136472413D01*
X150480147Y-136475993D01*
X150475497Y-136479720D01*
X150471100Y-136483589D01*
X150466972Y-136487602D01*
X150463106Y-136491761D01*
X150459507Y-136496064D01*
X150456169Y-136500502D01*
X150453101Y-136505092D01*
X150450293Y-136509821D01*
X150447754Y-136514691D01*
X150445480Y-136519708D01*
X150443471Y-136524861D01*
X150441731Y-136530158D01*
X150440258Y-136535594D01*
X150439049Y-136541174D01*
X150438111Y-136546895D01*
X150437440Y-136552755D01*
X150437037Y-136558754D01*
X150436903Y-136564898D01*
X150214671Y-136564898D01*
X150215274Y-136551928D01*
X150217059Y-136533060D01*
X150219709Y-136515080D01*
X150223201Y-136497954D01*
X150227517Y-136481665D01*
X150232646Y-136466190D01*
X150238575Y-136451505D01*
X150245289Y-136437591D01*
X150252771Y-136424419D01*
X150261004Y-136411975D01*
X150269981Y-136400236D01*
X150279683Y-136389166D01*
X150290097Y-136378761D01*
X150301205Y-136368985D01*
X150312996Y-136359827D01*
X150325452Y-136351256D01*
X150338560Y-136343256D01*
X150352303Y-136335795D01*
X150381646Y-136322425D01*
X150413370Y-136310964D01*
X150447343Y-136301235D01*
X150483456Y-136293060D01*
X150521595Y-136286258D01*
X150561633Y-136280654D01*
X150603460Y-136276066D01*
X150621058Y-136273636D01*
X150637536Y-136270797D01*
X150645360Y-136269228D01*
X150652900Y-136267554D01*
X150660159Y-136265777D01*
X150667134Y-136263899D01*
X150673832Y-136261918D01*
X150680249Y-136259829D01*
X150686380Y-136257635D01*
X150692230Y-136255330D01*
X150697800Y-136252922D01*
X150703085Y-136250401D01*
X150708087Y-136247783D01*
X150712805Y-136245052D01*
X150717242Y-136242208D01*
X150721396Y-136239260D01*
X150725261Y-136236192D01*
X150728843Y-136233024D01*
X150732145Y-136229734D01*
X150735156Y-136226336D01*
X150737882Y-136222825D01*
X150740325Y-136219198D01*
X150742479Y-136215461D01*
X150744347Y-136211607D01*
X150745934Y-136207636D01*
X150747223Y-136203549D01*
X150748233Y-136199347D01*
X150748954Y-136195025D01*
X150749386Y-136190588D01*
X150749529Y-136186032D01*
X150748083Y-136176768D01*
X150746986Y-136172362D01*
X150745638Y-136168108D01*
X150744035Y-136163999D01*
X150742181Y-136160038D01*
X150740080Y-136156231D01*
X150737717Y-136152572D01*
X150735100Y-136149061D01*
X150732234Y-136145701D01*
X150729107Y-136142487D01*
X150725730Y-136139429D01*
X150718198Y-136133749D01*
X150709636Y-136128672D01*
X150700042Y-136124191D01*
X150689407Y-136120304D01*
X150677722Y-136117018D01*
X150664991Y-136114332D01*
X150651205Y-136112240D01*
X150636354Y-136110742D01*
X150620446Y-136109852D01*
X150603460Y-136109552D01*
X150603415Y-136109552D01*
X150588855Y-136109789D01*
X150581887Y-136110092D01*
X150575126Y-136110511D01*
X150568575Y-136111053D01*
X150562226Y-136111714D01*
X150556085Y-136112497D01*
X150550152Y-136113403D01*
X150544418Y-136114430D01*
X150538893Y-136115580D01*
X150533570Y-136116849D01*
X150528443Y-136118241D01*
X150523520Y-136119760D01*
X150518799Y-136121399D01*
X150514281Y-136123165D01*
X150509962Y-136125050D01*
X150505840Y-136127067D01*
X150501919Y-136129205D01*
X150498194Y-136131466D01*
X150494668Y-136133854D01*
X150491337Y-136136366D01*
X150488203Y-136139008D01*
X150485260Y-136141774D01*
X150482520Y-136144663D01*
X150479970Y-136147684D01*
X150477612Y-136150826D01*
X150475446Y-136154101D01*
X150473477Y-136157503D01*
X150471692Y-136161032D01*
X150470103Y-136164690D01*
X150468705Y-136168477D01*
X150467492Y-136172389D01*
X150241546Y-136172389D01*
X150247694Y-136142169D01*
X150255950Y-136113937D01*
X150260868Y-136100563D01*
X150266316Y-136087682D01*
X150272290Y-136075298D01*
X150278797Y-136063402D01*
X150285828Y-136052005D01*
X150293385Y-136041096D01*
X150301475Y-136030681D01*
X150310089Y-136020755D01*
X150319234Y-136011317D01*
X150328903Y-136002370D01*
X150339102Y-135993908D01*
X150349833Y-135985941D01*
X150361086Y-135978462D01*
X150372865Y-135971465D01*
X150385178Y-135964959D01*
X150398017Y-135958938D01*
X150425276Y-135948348D01*
X150454650Y-135939693D01*
X150486137Y-135932973D01*
X150519731Y-135928173D01*
X150555442Y-135925299D01*
X150593265Y-135924342D01*
X150638337Y-135925299D01*
G37*
G36*
X152352740Y-135925299D02*
G01*
X152374201Y-135926500D01*
X152394948Y-135928173D01*
X152414982Y-135930333D01*
X152434301Y-135932973D01*
X152452900Y-135936092D01*
X152470791Y-135939693D01*
X152487963Y-135943780D01*
X152504422Y-135948348D01*
X152520166Y-135953397D01*
X152535200Y-135958938D01*
X152549521Y-135964959D01*
X152563132Y-135971465D01*
X152576023Y-135978462D01*
X152588206Y-135985941D01*
X152599677Y-135993908D01*
X152610438Y-136002370D01*
X152620486Y-136011317D01*
X152629825Y-136020755D01*
X152638455Y-136030681D01*
X152646372Y-136041096D01*
X152653581Y-136052005D01*
X152660082Y-136063402D01*
X152665872Y-136075298D01*
X152670952Y-136087682D01*
X152675325Y-136100563D01*
X152678991Y-136113937D01*
X152681948Y-136127801D01*
X152684198Y-136142169D01*
X152685740Y-136157030D01*
X152686577Y-136172389D01*
X152686577Y-136478266D01*
X152686140Y-136501115D01*
X152684840Y-136523173D01*
X152682678Y-136544437D01*
X152679675Y-136564920D01*
X152675840Y-136584631D01*
X152671176Y-136603571D01*
X152665697Y-136621757D01*
X152659417Y-136639192D01*
X152652341Y-136655886D01*
X152644486Y-136671849D01*
X152635848Y-136687083D01*
X152626453Y-136701601D01*
X152616306Y-136715412D01*
X152605414Y-136728515D01*
X152593790Y-136740936D01*
X152581442Y-136752664D01*
X152568390Y-136763718D01*
X152554625Y-136774104D01*
X152540175Y-136783824D01*
X152525044Y-136792893D01*
X152509240Y-136801324D01*
X152492776Y-136809111D01*
X152475662Y-136816274D01*
X152457908Y-136822816D01*
X152420524Y-136834066D01*
X152380698Y-136842934D01*
X152338521Y-136849485D01*
X152294069Y-136853777D01*
X152274036Y-136855020D01*
X152254401Y-136855588D01*
X152235194Y-136855467D01*
X152216410Y-136854678D01*
X152198084Y-136853211D01*
X152180219Y-136851075D01*
X152162837Y-136848273D01*
X152145946Y-136844807D01*
X152129567Y-136840684D01*
X152113714Y-136835906D01*
X152098402Y-136830470D01*
X152083646Y-136824390D01*
X152069466Y-136817665D01*
X152055863Y-136810296D01*
X152042867Y-136802287D01*
X152030484Y-136793640D01*
X152018736Y-136784366D01*
X152007639Y-136774463D01*
X151997199Y-136763932D01*
X151987444Y-136752781D01*
X151978375Y-136741011D01*
X151970016Y-136728624D01*
X151962384Y-136715626D01*
X151955484Y-136702022D01*
X151949346Y-136687812D01*
X151943972Y-136673001D01*
X151939383Y-136657593D01*
X151935602Y-136641586D01*
X151932625Y-136624994D01*
X151930485Y-136607812D01*
X151929190Y-136590043D01*
X151928753Y-136571696D01*
X151929069Y-136564898D01*
X152151349Y-136564898D01*
X152152687Y-136577844D01*
X152153634Y-136583988D01*
X152154778Y-136589915D01*
X152156109Y-136595629D01*
X152157632Y-136601128D01*
X152159343Y-136606407D01*
X152161250Y-136611474D01*
X152163344Y-136616329D01*
X152165634Y-136620969D01*
X152168113Y-136625392D01*
X152170785Y-136629607D01*
X152173649Y-136633606D01*
X152176707Y-136637400D01*
X152179960Y-136640980D01*
X152183405Y-136644354D01*
X152187046Y-136647513D01*
X152190880Y-136650470D01*
X152194912Y-136653214D01*
X152199135Y-136655752D01*
X152203554Y-136658080D01*
X152208172Y-136660208D01*
X152212984Y-136662128D01*
X152217993Y-136663844D01*
X152223198Y-136665355D01*
X152228602Y-136666660D01*
X152234203Y-136667766D01*
X152239997Y-136668672D01*
X152245995Y-136669370D01*
X152252192Y-136669870D01*
X152265174Y-136670269D01*
X152276824Y-136670051D01*
X152288168Y-136669398D01*
X152299224Y-136668318D01*
X152309971Y-136666807D01*
X152320411Y-136664875D01*
X152330538Y-136662529D01*
X152340343Y-136659765D01*
X152349830Y-136656595D01*
X152358985Y-136653016D01*
X152367804Y-136649035D01*
X152376284Y-136644659D01*
X152384423Y-136639890D01*
X152392210Y-136634727D01*
X152399650Y-136629181D01*
X152406728Y-136623256D01*
X152413439Y-136616950D01*
X152419783Y-136610273D01*
X152425757Y-136603227D01*
X152431352Y-136595815D01*
X152436560Y-136588041D01*
X152441383Y-136579911D01*
X152445811Y-136571426D01*
X152449844Y-136562592D01*
X152453469Y-136553416D01*
X152456689Y-136543899D01*
X152459493Y-136534046D01*
X152461879Y-136523855D01*
X152463846Y-136513340D01*
X152465382Y-136502495D01*
X152466488Y-136491340D01*
X152467153Y-136479859D01*
X152467380Y-136468068D01*
X152467380Y-136384788D01*
X152447230Y-136392926D01*
X152426332Y-136400715D01*
X152404713Y-136408143D01*
X152382422Y-136415188D01*
X152359490Y-136421829D01*
X152335967Y-136428053D01*
X152311876Y-136433844D01*
X152287273Y-136439172D01*
X152270907Y-136442669D01*
X152255579Y-136446752D01*
X152248305Y-136449019D01*
X152241295Y-136451430D01*
X152234544Y-136453991D01*
X152228049Y-136456693D01*
X152221820Y-136459544D01*
X152215853Y-136462544D01*
X152210140Y-136465691D01*
X152204699Y-136468977D01*
X152199516Y-136472413D01*
X152194598Y-136475993D01*
X152189942Y-136479720D01*
X152185551Y-136483589D01*
X152181419Y-136487602D01*
X152177553Y-136491761D01*
X152173953Y-136496064D01*
X152170620Y-136500502D01*
X152167547Y-136505092D01*
X152164741Y-136509821D01*
X152162198Y-136514691D01*
X152159927Y-136519708D01*
X152157920Y-136524861D01*
X152156181Y-136530158D01*
X152154703Y-136535594D01*
X152153497Y-136541174D01*
X152152559Y-136546895D01*
X152151889Y-136552755D01*
X152151486Y-136558754D01*
X152151349Y-136564898D01*
X151929069Y-136564898D01*
X151929671Y-136551928D01*
X151931466Y-136533060D01*
X151934107Y-136515080D01*
X151937596Y-136497954D01*
X151941916Y-136481665D01*
X151947043Y-136466190D01*
X151952973Y-136451505D01*
X151959684Y-136437591D01*
X151967165Y-136424419D01*
X151975397Y-136411975D01*
X151984373Y-136400236D01*
X151994075Y-136389166D01*
X152004487Y-136378761D01*
X152015591Y-136368985D01*
X152027379Y-136359827D01*
X152039835Y-136351256D01*
X152052941Y-136343256D01*
X152066688Y-136335795D01*
X152096027Y-136322425D01*
X152127746Y-136310964D01*
X152161718Y-136301235D01*
X152197833Y-136293060D01*
X152235976Y-136286258D01*
X152276024Y-136280654D01*
X152317862Y-136276066D01*
X152335457Y-136273636D01*
X152351940Y-136270797D01*
X152359758Y-136269228D01*
X152367303Y-136267554D01*
X152374562Y-136265777D01*
X152381542Y-136263899D01*
X152388240Y-136261918D01*
X152394658Y-136259829D01*
X152400794Y-136257635D01*
X152406645Y-136255330D01*
X152412220Y-136252922D01*
X152417503Y-136250401D01*
X152422506Y-136247783D01*
X152427230Y-136245052D01*
X152431669Y-136242208D01*
X152435823Y-136239260D01*
X152439693Y-136236192D01*
X152443279Y-136233024D01*
X152446578Y-136229734D01*
X152449592Y-136226336D01*
X152452319Y-136222825D01*
X152454763Y-136219198D01*
X152456920Y-136215461D01*
X152458791Y-136211607D01*
X152460374Y-136207636D01*
X152461672Y-136203549D01*
X152462681Y-136199347D01*
X152463402Y-136195025D01*
X152463831Y-136190588D01*
X152463980Y-136186032D01*
X152462533Y-136176768D01*
X152461434Y-136172362D01*
X152460085Y-136168108D01*
X152458483Y-136163999D01*
X152456626Y-136160038D01*
X152454524Y-136156231D01*
X152452161Y-136152572D01*
X152449547Y-136149061D01*
X152446679Y-136145701D01*
X152443554Y-136142487D01*
X152440176Y-136139429D01*
X152432645Y-136133749D01*
X152424081Y-136128672D01*
X152414479Y-136124191D01*
X152403842Y-136120304D01*
X152392157Y-136117018D01*
X152379413Y-136114332D01*
X152365626Y-136112240D01*
X152350772Y-136110742D01*
X152334855Y-136109852D01*
X152317862Y-136109552D01*
X152317815Y-136109552D01*
X152303261Y-136109789D01*
X152296300Y-136110092D01*
X152289536Y-136110511D01*
X152282992Y-136111053D01*
X152276644Y-136111714D01*
X152270505Y-136112497D01*
X152264568Y-136113403D01*
X152258839Y-136114430D01*
X152253314Y-136115580D01*
X152247985Y-136116849D01*
X152242865Y-136118241D01*
X152237942Y-136119760D01*
X152233223Y-136121399D01*
X152228697Y-136123165D01*
X152224381Y-136125050D01*
X152220260Y-136127067D01*
X152216332Y-136129205D01*
X152212605Y-136131466D01*
X152209080Y-136133854D01*
X152205747Y-136136366D01*
X152202612Y-136139008D01*
X152199673Y-136141774D01*
X152196927Y-136144663D01*
X152194377Y-136147684D01*
X152192015Y-136150826D01*
X152189851Y-136154101D01*
X152187878Y-136157503D01*
X152186094Y-136161032D01*
X152184506Y-136164690D01*
X152183105Y-136168477D01*
X152181898Y-136172389D01*
X151955948Y-136172389D01*
X151962091Y-136142169D01*
X151970350Y-136113937D01*
X151975272Y-136100563D01*
X151980720Y-136087682D01*
X151986698Y-136075298D01*
X151993202Y-136063402D01*
X152000235Y-136052005D01*
X152007796Y-136041096D01*
X152015888Y-136030681D01*
X152024505Y-136020755D01*
X152033646Y-136011317D01*
X152043320Y-136002370D01*
X152053519Y-135993908D01*
X152064248Y-135985941D01*
X152075503Y-135978462D01*
X152087286Y-135971465D01*
X152099596Y-135964959D01*
X152112438Y-135958938D01*
X152139698Y-135948348D01*
X152169069Y-135939693D01*
X152200553Y-135932973D01*
X152234145Y-135928173D01*
X152269849Y-135925299D01*
X152307664Y-135924342D01*
X152352740Y-135925299D01*
G37*
G36*
X153175200Y-135924693D02*
G01*
X153196023Y-135925588D01*
X153216294Y-135927072D01*
X153235999Y-135929164D01*
X153255151Y-135931847D01*
X153273749Y-135935133D01*
X153291782Y-135939012D01*
X153309261Y-135943487D01*
X153326188Y-135948563D01*
X153342550Y-135954233D01*
X153358359Y-135960505D01*
X153373611Y-135967372D01*
X153388310Y-135974839D01*
X153402446Y-135982905D01*
X153416029Y-135991566D01*
X153429057Y-136000825D01*
X153441128Y-136010936D01*
X153452475Y-136021522D01*
X153463111Y-136032586D01*
X153473031Y-136044133D01*
X153482233Y-136056164D01*
X153490721Y-136068667D01*
X153498487Y-136081642D01*
X153505534Y-136095106D01*
X153511867Y-136109041D01*
X153517488Y-136123461D01*
X153522385Y-136138349D01*
X153526566Y-136153722D01*
X153530032Y-136169573D01*
X153532781Y-136185893D01*
X153534813Y-136202697D01*
X153536125Y-136219973D01*
X153393364Y-136219973D01*
X153383716Y-136219468D01*
X153379054Y-136219063D01*
X153374504Y-136218556D01*
X153370062Y-136217953D01*
X153365734Y-136217249D01*
X153361522Y-136216445D01*
X153357412Y-136215541D01*
X153353419Y-136214540D01*
X153349539Y-136213436D01*
X153345769Y-136212234D01*
X153342117Y-136210928D01*
X153338573Y-136209527D01*
X153335145Y-136208025D01*
X153331825Y-136206423D01*
X153328624Y-136204721D01*
X153325536Y-136202917D01*
X153322565Y-136201019D01*
X153319707Y-136199018D01*
X153316963Y-136196918D01*
X153314338Y-136194719D01*
X153311825Y-136192417D01*
X153309429Y-136190018D01*
X153307149Y-136187518D01*
X153304985Y-136184918D01*
X153302942Y-136182222D01*
X153301011Y-136179423D01*
X153299201Y-136176525D01*
X153297506Y-136173528D01*
X153295931Y-136170429D01*
X153294477Y-136167233D01*
X153293137Y-136163940D01*
X153289908Y-136156808D01*
X153285970Y-136150085D01*
X153281317Y-136143775D01*
X153275958Y-136137887D01*
X153269898Y-136132424D01*
X153263125Y-136127402D01*
X153255654Y-136122818D01*
X153247482Y-136118689D01*
X153238614Y-136115008D01*
X153229051Y-136111804D01*
X153218793Y-136109071D01*
X153207851Y-136106816D01*
X153196216Y-136105050D01*
X153183900Y-136103778D01*
X153170898Y-136103013D01*
X153157215Y-136102753D01*
X153149059Y-136102824D01*
X153141162Y-136103030D01*
X153133526Y-136103377D01*
X153126144Y-136103865D01*
X153119029Y-136104487D01*
X153112166Y-136105250D01*
X153105568Y-136106151D01*
X153099225Y-136107187D01*
X153093141Y-136108359D01*
X153087321Y-136109671D01*
X153081754Y-136111117D01*
X153076449Y-136112697D01*
X153071403Y-136114416D01*
X153066613Y-136116266D01*
X153062083Y-136118258D01*
X153057815Y-136120380D01*
X153053805Y-136122637D01*
X153050052Y-136125027D01*
X153046558Y-136127556D01*
X153043325Y-136130210D01*
X153040350Y-136132999D01*
X153037633Y-136135924D01*
X153035173Y-136138980D01*
X153032976Y-136142168D01*
X153031033Y-136145488D01*
X153029352Y-136148937D01*
X153027930Y-136152519D01*
X153026765Y-136156234D01*
X153025862Y-136160078D01*
X153025214Y-136164052D01*
X153024824Y-136168156D01*
X153024696Y-136172389D01*
X153025372Y-136180873D01*
X153027409Y-136189109D01*
X153030802Y-136197104D01*
X153035559Y-136204841D01*
X153041675Y-136212317D01*
X153049162Y-136219532D01*
X153058018Y-136226477D01*
X153068241Y-136233147D01*
X153079843Y-136239543D01*
X153092818Y-136245650D01*
X153107171Y-136251471D01*
X153122905Y-136256996D01*
X153140025Y-136262224D01*
X153158531Y-136267145D01*
X153178422Y-136271762D01*
X153199706Y-136276066D01*
X153227763Y-136281895D01*
X153254584Y-136287931D01*
X153280173Y-136294152D01*
X153304543Y-136300567D01*
X153327680Y-136307173D01*
X153349598Y-136313960D01*
X153370302Y-136320937D01*
X153389781Y-136328094D01*
X153408050Y-136335433D01*
X153425106Y-136342947D01*
X153440952Y-136350635D01*
X153455591Y-136358499D01*
X153469024Y-136366531D01*
X153481259Y-136374735D01*
X153492297Y-136383101D01*
X153502140Y-136391632D01*
X153509845Y-136400031D01*
X153517037Y-136408662D01*
X153523715Y-136417522D01*
X153529881Y-136426605D01*
X153535536Y-136435913D01*
X153540689Y-136445430D01*
X153545339Y-136455162D01*
X153549487Y-136465093D01*
X153553138Y-136475228D01*
X153556296Y-136485552D01*
X153558955Y-136496070D01*
X153561130Y-136506765D01*
X153562816Y-136517647D01*
X153564014Y-136528697D01*
X153564732Y-136539914D01*
X153564974Y-136551301D01*
X153564468Y-136571601D01*
X153562968Y-136591099D01*
X153560495Y-136609799D01*
X153557061Y-136627719D01*
X153552695Y-136644862D01*
X153547412Y-136661240D01*
X153541232Y-136676868D01*
X153534179Y-136691752D01*
X153526267Y-136705903D01*
X153517517Y-136719338D01*
X153507953Y-136732057D01*
X153497594Y-136744079D01*
X153486458Y-136755411D01*
X153474562Y-136766063D01*
X153461933Y-136776048D01*
X153448588Y-136785372D01*
X153434544Y-136794054D01*
X153419822Y-136802097D01*
X153404445Y-136809515D01*
X153388432Y-136816318D01*
X153354572Y-136828113D01*
X153318400Y-136837578D01*
X153280082Y-136844791D01*
X153239772Y-136849840D01*
X153197631Y-136852807D01*
X153153816Y-136853777D01*
X153130603Y-136853455D01*
X153108111Y-136852509D01*
X153086347Y-136850920D01*
X153065315Y-136848705D01*
X153045018Y-136845860D01*
X153025465Y-136842393D01*
X153006652Y-136838308D01*
X152988602Y-136833594D01*
X152971298Y-136828269D01*
X152954758Y-136822325D01*
X152938982Y-136815770D01*
X152923986Y-136808608D01*
X152909756Y-136800834D01*
X152896309Y-136792455D01*
X152883649Y-136783473D01*
X152871783Y-136773894D01*
X152859432Y-136764025D01*
X152847881Y-136753519D01*
X152837128Y-136742383D01*
X152827163Y-136730614D01*
X152818007Y-136718213D01*
X152809639Y-136705192D01*
X152802074Y-136691545D01*
X152795301Y-136677281D01*
X152789325Y-136662398D01*
X152784147Y-136646899D01*
X152779764Y-136630790D01*
X152776184Y-136614071D01*
X152773389Y-136596744D01*
X152771403Y-136578813D01*
X152770205Y-136560283D01*
X152769807Y-136541147D01*
X153000856Y-136541147D01*
X153001525Y-136550199D01*
X153002582Y-136558873D01*
X153004014Y-136567183D01*
X153005822Y-136575134D01*
X153007997Y-136582726D01*
X153010534Y-136589969D01*
X153013432Y-136596863D01*
X153016681Y-136603422D01*
X153020283Y-136609647D01*
X153024226Y-136615545D01*
X153028505Y-136621118D01*
X153033119Y-136626377D01*
X153038060Y-136631322D01*
X153043328Y-136635966D01*
X153048911Y-136640308D01*
X153054814Y-136644357D01*
X153061016Y-136648115D01*
X153067528Y-136651592D01*
X153074340Y-136654788D01*
X153081439Y-136657718D01*
X153096509Y-136662781D01*
X153112684Y-136666816D01*
X153129943Y-136669885D01*
X153148237Y-136672019D01*
X153167518Y-136673263D01*
X153187763Y-136673667D01*
X153205051Y-136673348D01*
X153213276Y-136672948D01*
X153221221Y-136672389D01*
X153228885Y-136671665D01*
X153236274Y-136670778D01*
X153243383Y-136669730D01*
X153250215Y-136668520D01*
X153256767Y-136667143D01*
X153263038Y-136665598D01*
X153269027Y-136663892D01*
X153274745Y-136662017D01*
X153280177Y-136659980D01*
X153285334Y-136657774D01*
X153290212Y-136655403D01*
X153294809Y-136652857D01*
X153299130Y-136650142D01*
X153303172Y-136647264D01*
X153306934Y-136644204D01*
X153310414Y-136640985D01*
X153313620Y-136637588D01*
X153316550Y-136634018D01*
X153319193Y-136630280D01*
X153321562Y-136626365D01*
X153323653Y-136622276D01*
X153325461Y-136618013D01*
X153326996Y-136613581D01*
X153328251Y-136608966D01*
X153329224Y-136604174D01*
X153329922Y-136599204D01*
X153330341Y-136594057D01*
X153330480Y-136588737D01*
X153329564Y-136580233D01*
X153326819Y-136571927D01*
X153322246Y-136563833D01*
X153315852Y-136555940D01*
X153307638Y-136548260D01*
X153297605Y-136540787D01*
X153285752Y-136533530D01*
X153272088Y-136526490D01*
X153256603Y-136519667D01*
X153239318Y-136513067D01*
X153220226Y-136506693D01*
X153199326Y-136500543D01*
X153176626Y-136494627D01*
X153152122Y-136488937D01*
X153125824Y-136483480D01*
X153097731Y-136478266D01*
X153061591Y-136470964D01*
X153027731Y-136462428D01*
X153011653Y-136457695D01*
X152996143Y-136452655D01*
X152981210Y-136447304D01*
X152966844Y-136441647D01*
X152953053Y-136435677D01*
X152939838Y-136429404D01*
X152927193Y-136422816D01*
X152915125Y-136415926D01*
X152903626Y-136408723D01*
X152892708Y-136401208D01*
X152882371Y-136393389D01*
X152872601Y-136385261D01*
X152863414Y-136376821D01*
X152854804Y-136368076D01*
X152846771Y-136359022D01*
X152839320Y-136349655D01*
X152832447Y-136339986D01*
X152826157Y-136330004D01*
X152820444Y-136319716D01*
X152815315Y-136309117D01*
X152810769Y-136298209D01*
X152806808Y-136286995D01*
X152803425Y-136275473D01*
X152800630Y-136263633D01*
X152798420Y-136251500D01*
X152796794Y-136239051D01*
X152795754Y-136226292D01*
X152795300Y-136213223D01*
X152795748Y-136195362D01*
X152797070Y-136178097D01*
X152799251Y-136161421D01*
X152802273Y-136145339D01*
X152806121Y-136129843D01*
X152810769Y-136114928D01*
X152816203Y-136100597D01*
X152822405Y-136086850D01*
X152829358Y-136073675D01*
X152837045Y-136061081D01*
X152845438Y-136049050D01*
X152854526Y-136037597D01*
X152864288Y-136026710D01*
X152874715Y-136016386D01*
X152885776Y-136006628D01*
X152897458Y-135997427D01*
X152909741Y-135988787D01*
X152922615Y-135980691D01*
X152936047Y-135973160D01*
X152950028Y-135966179D01*
X152979561Y-135953852D01*
X153011061Y-135943695D01*
X153044383Y-135935696D01*
X153079382Y-135929817D01*
X153115908Y-135926059D01*
X153153816Y-135924389D01*
X153175200Y-135924693D01*
G37*
G36*
X151085023Y-132944625D02*
G01*
X151124673Y-132950090D01*
X151162310Y-132958227D01*
X151197996Y-132968952D01*
X151231807Y-132982160D01*
X151263802Y-132997770D01*
X151294057Y-133015678D01*
X151322644Y-133035800D01*
X151349627Y-133058039D01*
X151375079Y-133082295D01*
X151399066Y-133108489D01*
X151421663Y-133136516D01*
X151442934Y-133166290D01*
X151462952Y-133197713D01*
X151481779Y-133230693D01*
X151499496Y-133265145D01*
X151516162Y-133300963D01*
X151531858Y-133338058D01*
X151546640Y-133376347D01*
X151573766Y-133456097D01*
X151598084Y-133539474D01*
X151620168Y-133625728D01*
X151640563Y-133714122D01*
X151678507Y-133894333D01*
X151710846Y-134048678D01*
X151746073Y-134197824D01*
X151765680Y-134268930D01*
X151787109Y-134336914D01*
X151810724Y-134401167D01*
X151836899Y-134461081D01*
X151865994Y-134516048D01*
X151898381Y-134565463D01*
X151915925Y-134587896D01*
X151934428Y-134608710D01*
X151953934Y-134627834D01*
X151974498Y-134645190D01*
X151996161Y-134660694D01*
X152018964Y-134674284D01*
X152042955Y-134685874D01*
X152068187Y-134695396D01*
X152094699Y-134702761D01*
X152122538Y-134707906D01*
X152151751Y-134710753D01*
X152182385Y-134711214D01*
X152195103Y-134710654D01*
X152207675Y-134709574D01*
X152220101Y-134707989D01*
X152232382Y-134705905D01*
X152244513Y-134703338D01*
X152256508Y-134700289D01*
X152280054Y-134692797D01*
X152303023Y-134683509D01*
X152325420Y-134672499D01*
X152347246Y-134659846D01*
X152368494Y-134645623D01*
X152389179Y-134629909D01*
X152409297Y-134612782D01*
X152428852Y-134594317D01*
X152447845Y-134574592D01*
X152466277Y-134553680D01*
X152484151Y-134531662D01*
X152501471Y-134508613D01*
X152518240Y-134484607D01*
X152542335Y-134447057D01*
X152565180Y-134407844D01*
X152586791Y-134367198D01*
X152607183Y-134325342D01*
X152626370Y-134282497D01*
X152644370Y-134238881D01*
X152661186Y-134194728D01*
X152676845Y-134150255D01*
X152691350Y-134105687D01*
X152704725Y-134061244D01*
X152728126Y-133973638D01*
X152747160Y-133889220D01*
X152761940Y-133809779D01*
X152762631Y-133806208D01*
X152763489Y-133802712D01*
X152764515Y-133799304D01*
X152765699Y-133795976D01*
X152767044Y-133792732D01*
X152768532Y-133789583D01*
X152770172Y-133786526D01*
X152771947Y-133783572D01*
X152773860Y-133780718D01*
X152775902Y-133777969D01*
X152778068Y-133775328D01*
X152780355Y-133772805D01*
X152782750Y-133770395D01*
X152785263Y-133768107D01*
X152787878Y-133765943D01*
X152790592Y-133763907D01*
X152793398Y-133762004D01*
X152796294Y-133760236D01*
X152799273Y-133758605D01*
X152802331Y-133757115D01*
X152805462Y-133755776D01*
X152808662Y-133754583D01*
X152811925Y-133753544D01*
X152815242Y-133752663D01*
X152818618Y-133751945D01*
X152822038Y-133751388D01*
X152825503Y-133751000D01*
X152829005Y-133750786D01*
X152832540Y-133750741D01*
X152836099Y-133750884D01*
X152839684Y-133751204D01*
X152843285Y-133751712D01*
X152846856Y-133752402D01*
X152850348Y-133753258D01*
X152853758Y-133754284D01*
X152857089Y-133755468D01*
X152860335Y-133756809D01*
X152863486Y-133758301D01*
X152866542Y-133759935D01*
X152869501Y-133761708D01*
X152872352Y-133763623D01*
X152875101Y-133765658D01*
X152877747Y-133767827D01*
X152880273Y-133770107D01*
X152882685Y-133772505D01*
X152884974Y-133775015D01*
X152887141Y-133777625D01*
X152889177Y-133780339D01*
X152891086Y-133783143D01*
X152892856Y-133786037D01*
X152894489Y-133789012D01*
X152895980Y-133792066D01*
X152897319Y-133795199D01*
X152898516Y-133798394D01*
X152899557Y-133801657D01*
X152900438Y-133804977D01*
X152901159Y-133808348D01*
X152901721Y-133811766D01*
X152902107Y-133815228D01*
X152902325Y-133818729D01*
X152902361Y-133822263D01*
X152902232Y-133825823D01*
X152901906Y-133829406D01*
X152901397Y-133833006D01*
X152885459Y-133918375D01*
X152864854Y-134009246D01*
X152839442Y-134103715D01*
X152824890Y-134151707D01*
X152809087Y-134199890D01*
X152792012Y-134248026D01*
X152773653Y-134295878D01*
X152753987Y-134343211D01*
X152733003Y-134389776D01*
X152710679Y-134435350D01*
X152687000Y-134479695D01*
X152661953Y-134522566D01*
X152635509Y-134563729D01*
X152614127Y-134594246D01*
X152591887Y-134623546D01*
X152568792Y-134651545D01*
X152544817Y-134678136D01*
X152519969Y-134703221D01*
X152494217Y-134726713D01*
X152467578Y-134748506D01*
X152440025Y-134768505D01*
X152411551Y-134786616D01*
X152382147Y-134802740D01*
X152367096Y-134810029D01*
X152351806Y-134816779D01*
X152336284Y-134822987D01*
X152320521Y-134828638D01*
X152304517Y-134833721D01*
X152288273Y-134838221D01*
X152271785Y-134842129D01*
X152255058Y-134845428D01*
X152238083Y-134848108D01*
X152220867Y-134850160D01*
X152203404Y-134851568D01*
X152185689Y-134852327D01*
X152144311Y-134851945D01*
X152104956Y-134848838D01*
X152067556Y-134843102D01*
X152032050Y-134834823D01*
X151998369Y-134824081D01*
X151966449Y-134810969D01*
X151936217Y-134795572D01*
X151907619Y-134777976D01*
X151880589Y-134758270D01*
X151855054Y-134736541D01*
X151830952Y-134712875D01*
X151808218Y-134687358D01*
X151786791Y-134660080D01*
X151766596Y-134631128D01*
X151747575Y-134600578D01*
X151729662Y-134568537D01*
X151712787Y-134535073D01*
X151696886Y-134500286D01*
X151681903Y-134464256D01*
X151667759Y-134427074D01*
X151641749Y-134349589D01*
X151618337Y-134268537D01*
X151596994Y-134184604D01*
X151577205Y-134098497D01*
X151540178Y-133922516D01*
X151506961Y-133764088D01*
X151470472Y-133610526D01*
X151450003Y-133537193D01*
X151427527Y-133467037D01*
X151402634Y-133400696D01*
X151374933Y-133338833D01*
X151344023Y-133282093D01*
X151309511Y-133231133D01*
X151290776Y-133208021D01*
X151270990Y-133186599D01*
X151250109Y-133166948D01*
X151228071Y-133149144D01*
X151204832Y-133133276D01*
X151180345Y-133119422D01*
X151154560Y-133107665D01*
X151127425Y-133098086D01*
X151098890Y-133090763D01*
X151068904Y-133085780D01*
X151037420Y-133083222D01*
X151004390Y-133083166D01*
X150986734Y-133084142D01*
X150969491Y-133085777D01*
X150952652Y-133088059D01*
X150936215Y-133090969D01*
X150920175Y-133094501D01*
X150904514Y-133098644D01*
X150889249Y-133103378D01*
X150874355Y-133108694D01*
X150859831Y-133114582D01*
X150845676Y-133121032D01*
X150831881Y-133128023D01*
X150818440Y-133135551D01*
X150792599Y-133152157D01*
X150768106Y-133170747D01*
X150744919Y-133191230D01*
X150722988Y-133213508D01*
X150702274Y-133237470D01*
X150682722Y-133263026D01*
X150664297Y-133290078D01*
X150646942Y-133318528D01*
X150630620Y-133348273D01*
X150615280Y-133379224D01*
X150599701Y-133414001D01*
X150585110Y-133449975D01*
X150571462Y-133487038D01*
X150558702Y-133525071D01*
X150546778Y-133563957D01*
X150535638Y-133603595D01*
X150515512Y-133684624D01*
X150497916Y-133767262D01*
X150482437Y-133850585D01*
X150468657Y-133933692D01*
X150456186Y-134015665D01*
X150455560Y-134019249D01*
X150454771Y-134022761D01*
X150453813Y-134026194D01*
X150452692Y-134029549D01*
X150451414Y-134032821D01*
X150449987Y-134036003D01*
X150448409Y-134039090D01*
X150446688Y-134042084D01*
X150444835Y-134044981D01*
X150442848Y-134047768D01*
X150440731Y-134050452D01*
X150438498Y-134053025D01*
X150436146Y-134055484D01*
X150433678Y-134057821D01*
X150431107Y-134060040D01*
X150428436Y-134062134D01*
X150425667Y-134064095D01*
X150422804Y-134065918D01*
X150419854Y-134067610D01*
X150416824Y-134069163D01*
X150413722Y-134070567D01*
X150410546Y-134071819D01*
X150407307Y-134072931D01*
X150403999Y-134073876D01*
X150400640Y-134074661D01*
X150397230Y-134075289D01*
X150393770Y-134075741D01*
X150390273Y-134076029D01*
X150386737Y-134076142D01*
X150383172Y-134076072D01*
X150379581Y-134075822D01*
X150375971Y-134075389D01*
X150372386Y-134074769D01*
X150368873Y-134073983D01*
X150365438Y-134073026D01*
X150362086Y-134071907D01*
X150358815Y-134070636D01*
X150355634Y-134069207D01*
X150352545Y-134067632D01*
X150349552Y-134065914D01*
X150346657Y-134064056D01*
X150343864Y-134062070D01*
X150341183Y-134059959D01*
X150338609Y-134057722D01*
X150336153Y-134055369D01*
X150333813Y-134052906D01*
X150331595Y-134050332D01*
X150329504Y-134047659D01*
X150327543Y-134044892D01*
X150325714Y-134042027D01*
X150324025Y-134039081D01*
X150322475Y-134036056D01*
X150321066Y-134032948D01*
X150319813Y-134029775D01*
X150318709Y-134026534D01*
X150317761Y-134023226D01*
X150316972Y-134019870D01*
X150316350Y-134016461D01*
X150315890Y-134013008D01*
X150315605Y-134009512D01*
X150315496Y-134005981D01*
X150315564Y-134002416D01*
X150315812Y-133998831D01*
X150316252Y-133995225D01*
X150329330Y-133909326D01*
X150343849Y-133822071D01*
X150360276Y-133734334D01*
X150379081Y-133646984D01*
X150400736Y-133560900D01*
X150412777Y-133518602D01*
X150425706Y-133476945D01*
X150439585Y-133436040D01*
X150454466Y-133395998D01*
X150470413Y-133356924D01*
X150487484Y-133318933D01*
X150507034Y-133279597D01*
X150527948Y-133241787D01*
X150550282Y-133205619D01*
X150574101Y-133171229D01*
X150599468Y-133138736D01*
X150626449Y-133108261D01*
X150655115Y-133079934D01*
X150685524Y-133053877D01*
X150701404Y-133041740D01*
X150717742Y-133030212D01*
X150734553Y-133019318D01*
X150751834Y-133009068D01*
X150769606Y-132999480D01*
X150787869Y-132990570D01*
X150806631Y-132982350D01*
X150825901Y-132974840D01*
X150845692Y-132968053D01*
X150866007Y-132962006D01*
X150886857Y-132956709D01*
X150908251Y-132952187D01*
X150930184Y-132948446D01*
X150952684Y-132945505D01*
X150975747Y-132943388D01*
X150999384Y-132942101D01*
X151043283Y-132941934D01*
X151085023Y-132944625D01*
G37*
D11*
X139240000Y-100440000D02*
X140740000Y-100440000D01*
X140740000Y-100690000D01*
X139240000Y-100690000D01*
X139240000Y-100440000D01*
G36*
X139240000Y-100440000D02*
G01*
X140740000Y-100440000D01*
X140740000Y-100690000D01*
X139240000Y-100690000D01*
X139240000Y-100440000D01*
G37*
D12*
X139529160Y-96415247D02*
X139795826Y-96415247D01*
X139910112Y-96834295D02*
X139529160Y-96834295D01*
X139529160Y-96834295D02*
X139529160Y-96034295D01*
X139529160Y-96034295D02*
X139910112Y-96034295D01*
X140595827Y-96300961D02*
X140595827Y-96834295D01*
X140252970Y-96300961D02*
X140252970Y-96720009D01*
X140252970Y-96720009D02*
X140291065Y-96796200D01*
X140291065Y-96796200D02*
X140367255Y-96834295D01*
X140367255Y-96834295D02*
X140481541Y-96834295D01*
X140481541Y-96834295D02*
X140557732Y-96796200D01*
X140557732Y-96796200D02*
X140595827Y-96758104D01*
X140976780Y-96834295D02*
X140976780Y-96300961D01*
X140976780Y-96453342D02*
X141014875Y-96377152D01*
X141014875Y-96377152D02*
X141052970Y-96339057D01*
X141052970Y-96339057D02*
X141129161Y-96300961D01*
X141129161Y-96300961D02*
X141205351Y-96300961D01*
X141586303Y-96834295D02*
X141510113Y-96796200D01*
X141510113Y-96796200D02*
X141472018Y-96758104D01*
X141472018Y-96758104D02*
X141433922Y-96681914D01*
X141433922Y-96681914D02*
X141433922Y-96453342D01*
X141433922Y-96453342D02*
X141472018Y-96377152D01*
X141472018Y-96377152D02*
X141510113Y-96339057D01*
X141510113Y-96339057D02*
X141586303Y-96300961D01*
X141586303Y-96300961D02*
X141700589Y-96300961D01*
X141700589Y-96300961D02*
X141776780Y-96339057D01*
X141776780Y-96339057D02*
X141814875Y-96377152D01*
X141814875Y-96377152D02*
X141852970Y-96453342D01*
X141852970Y-96453342D02*
X141852970Y-96681914D01*
X141852970Y-96681914D02*
X141814875Y-96758104D01*
X141814875Y-96758104D02*
X141776780Y-96796200D01*
X141776780Y-96796200D02*
X141700589Y-96834295D01*
X141700589Y-96834295D02*
X141586303Y-96834295D01*
X142195828Y-96834295D02*
X142195828Y-96300961D01*
X142195828Y-96453342D02*
X142233923Y-96377152D01*
X142233923Y-96377152D02*
X142272018Y-96339057D01*
X142272018Y-96339057D02*
X142348209Y-96300961D01*
X142348209Y-96300961D02*
X142424399Y-96300961D01*
X143033923Y-96834295D02*
X143033923Y-96415247D01*
X143033923Y-96415247D02*
X142995828Y-96339057D01*
X142995828Y-96339057D02*
X142919637Y-96300961D01*
X142919637Y-96300961D02*
X142767256Y-96300961D01*
X142767256Y-96300961D02*
X142691066Y-96339057D01*
X143033923Y-96796200D02*
X142957732Y-96834295D01*
X142957732Y-96834295D02*
X142767256Y-96834295D01*
X142767256Y-96834295D02*
X142691066Y-96796200D01*
X142691066Y-96796200D02*
X142652970Y-96720009D01*
X142652970Y-96720009D02*
X142652970Y-96643819D01*
X142652970Y-96643819D02*
X142691066Y-96567628D01*
X142691066Y-96567628D02*
X142767256Y-96529533D01*
X142767256Y-96529533D02*
X142957732Y-96529533D01*
X142957732Y-96529533D02*
X143033923Y-96491438D01*
X143757733Y-96796200D02*
X143681542Y-96834295D01*
X143681542Y-96834295D02*
X143529161Y-96834295D01*
X143529161Y-96834295D02*
X143452971Y-96796200D01*
X143452971Y-96796200D02*
X143414876Y-96758104D01*
X143414876Y-96758104D02*
X143376780Y-96681914D01*
X143376780Y-96681914D02*
X143376780Y-96453342D01*
X143376780Y-96453342D02*
X143414876Y-96377152D01*
X143414876Y-96377152D02*
X143452971Y-96339057D01*
X143452971Y-96339057D02*
X143529161Y-96300961D01*
X143529161Y-96300961D02*
X143681542Y-96300961D01*
X143681542Y-96300961D02*
X143757733Y-96339057D01*
X144100590Y-96834295D02*
X144100590Y-96034295D01*
X144176780Y-96529533D02*
X144405352Y-96834295D01*
X144405352Y-96300961D02*
X144100590Y-96605723D01*
X145357733Y-96834295D02*
X145357733Y-96034295D01*
X145357733Y-96034295D02*
X145662495Y-96034295D01*
X145662495Y-96034295D02*
X145738685Y-96072390D01*
X145738685Y-96072390D02*
X145776780Y-96110485D01*
X145776780Y-96110485D02*
X145814876Y-96186676D01*
X145814876Y-96186676D02*
X145814876Y-96300961D01*
X145814876Y-96300961D02*
X145776780Y-96377152D01*
X145776780Y-96377152D02*
X145738685Y-96415247D01*
X145738685Y-96415247D02*
X145662495Y-96453342D01*
X145662495Y-96453342D02*
X145357733Y-96453342D01*
X146272018Y-96834295D02*
X146195828Y-96796200D01*
X146195828Y-96796200D02*
X146157733Y-96758104D01*
X146157733Y-96758104D02*
X146119637Y-96681914D01*
X146119637Y-96681914D02*
X146119637Y-96453342D01*
X146119637Y-96453342D02*
X146157733Y-96377152D01*
X146157733Y-96377152D02*
X146195828Y-96339057D01*
X146195828Y-96339057D02*
X146272018Y-96300961D01*
X146272018Y-96300961D02*
X146386304Y-96300961D01*
X146386304Y-96300961D02*
X146462495Y-96339057D01*
X146462495Y-96339057D02*
X146500590Y-96377152D01*
X146500590Y-96377152D02*
X146538685Y-96453342D01*
X146538685Y-96453342D02*
X146538685Y-96681914D01*
X146538685Y-96681914D02*
X146500590Y-96758104D01*
X146500590Y-96758104D02*
X146462495Y-96796200D01*
X146462495Y-96796200D02*
X146386304Y-96834295D01*
X146386304Y-96834295D02*
X146272018Y-96834295D01*
X146805352Y-96300961D02*
X146957733Y-96834295D01*
X146957733Y-96834295D02*
X147110114Y-96453342D01*
X147110114Y-96453342D02*
X147262495Y-96834295D01*
X147262495Y-96834295D02*
X147414876Y-96300961D01*
X148024400Y-96796200D02*
X147948209Y-96834295D01*
X147948209Y-96834295D02*
X147795828Y-96834295D01*
X147795828Y-96834295D02*
X147719638Y-96796200D01*
X147719638Y-96796200D02*
X147681542Y-96720009D01*
X147681542Y-96720009D02*
X147681542Y-96415247D01*
X147681542Y-96415247D02*
X147719638Y-96339057D01*
X147719638Y-96339057D02*
X147795828Y-96300961D01*
X147795828Y-96300961D02*
X147948209Y-96300961D01*
X147948209Y-96300961D02*
X148024400Y-96339057D01*
X148024400Y-96339057D02*
X148062495Y-96415247D01*
X148062495Y-96415247D02*
X148062495Y-96491438D01*
X148062495Y-96491438D02*
X147681542Y-96567628D01*
X148405352Y-96834295D02*
X148405352Y-96300961D01*
X148405352Y-96453342D02*
X148443447Y-96377152D01*
X148443447Y-96377152D02*
X148481542Y-96339057D01*
X148481542Y-96339057D02*
X148557733Y-96300961D01*
X148557733Y-96300961D02*
X148633923Y-96300961D01*
X139829533Y-100150839D02*
X139829533Y-99541316D01*
X140134295Y-98741316D02*
X140134295Y-99198459D01*
X140134295Y-98969887D02*
X139334295Y-98969887D01*
X139334295Y-98969887D02*
X139448580Y-99046078D01*
X139448580Y-99046078D02*
X139524771Y-99122268D01*
X139524771Y-99122268D02*
X139562866Y-99198459D01*
X139410485Y-98436554D02*
X139372390Y-98398458D01*
X139372390Y-98398458D02*
X139334295Y-98322268D01*
X139334295Y-98322268D02*
X139334295Y-98131792D01*
X139334295Y-98131792D02*
X139372390Y-98055601D01*
X139372390Y-98055601D02*
X139410485Y-98017506D01*
X139410485Y-98017506D02*
X139486676Y-97979411D01*
X139486676Y-97979411D02*
X139562866Y-97979411D01*
X139562866Y-97979411D02*
X139677152Y-98017506D01*
X139677152Y-98017506D02*
X140134295Y-98474649D01*
X140134295Y-98474649D02*
X140134295Y-97979411D01*
X139334295Y-97750839D02*
X140134295Y-97484172D01*
X140134295Y-97484172D02*
X139334295Y-97217506D01*
X134589533Y-78408207D02*
X134589533Y-77798684D01*
X134894295Y-76998684D02*
X134894295Y-77455827D01*
X134894295Y-77227255D02*
X134094295Y-77227255D01*
X134094295Y-77227255D02*
X134208580Y-77303446D01*
X134208580Y-77303446D02*
X134284771Y-77379636D01*
X134284771Y-77379636D02*
X134322866Y-77455827D01*
X134170485Y-76693922D02*
X134132390Y-76655826D01*
X134132390Y-76655826D02*
X134094295Y-76579636D01*
X134094295Y-76579636D02*
X134094295Y-76389160D01*
X134094295Y-76389160D02*
X134132390Y-76312969D01*
X134132390Y-76312969D02*
X134170485Y-76274874D01*
X134170485Y-76274874D02*
X134246676Y-76236779D01*
X134246676Y-76236779D02*
X134322866Y-76236779D01*
X134322866Y-76236779D02*
X134437152Y-76274874D01*
X134437152Y-76274874D02*
X134894295Y-76732017D01*
X134894295Y-76732017D02*
X134894295Y-76236779D01*
X134094295Y-76008207D02*
X134894295Y-75741540D01*
X134894295Y-75741540D02*
X134094295Y-75474874D01*
X134594295Y-72443922D02*
X134594295Y-71948684D01*
X134594295Y-71948684D02*
X134899057Y-72215350D01*
X134899057Y-72215350D02*
X134899057Y-72101065D01*
X134899057Y-72101065D02*
X134937152Y-72024874D01*
X134937152Y-72024874D02*
X134975247Y-71986779D01*
X134975247Y-71986779D02*
X135051438Y-71948684D01*
X135051438Y-71948684D02*
X135241914Y-71948684D01*
X135241914Y-71948684D02*
X135318104Y-71986779D01*
X135318104Y-71986779D02*
X135356200Y-72024874D01*
X135356200Y-72024874D02*
X135394295Y-72101065D01*
X135394295Y-72101065D02*
X135394295Y-72329636D01*
X135394295Y-72329636D02*
X135356200Y-72405827D01*
X135356200Y-72405827D02*
X135318104Y-72443922D01*
X134594295Y-71720112D02*
X135394295Y-71453445D01*
X135394295Y-71453445D02*
X134594295Y-71186779D01*
X134594295Y-70996303D02*
X134594295Y-70501065D01*
X134594295Y-70501065D02*
X134899057Y-70767731D01*
X134899057Y-70767731D02*
X134899057Y-70653446D01*
X134899057Y-70653446D02*
X134937152Y-70577255D01*
X134937152Y-70577255D02*
X134975247Y-70539160D01*
X134975247Y-70539160D02*
X135051438Y-70501065D01*
X135051438Y-70501065D02*
X135241914Y-70501065D01*
X135241914Y-70501065D02*
X135318104Y-70539160D01*
X135318104Y-70539160D02*
X135356200Y-70577255D01*
X135356200Y-70577255D02*
X135394295Y-70653446D01*
X135394295Y-70653446D02*
X135394295Y-70882017D01*
X135394295Y-70882017D02*
X135356200Y-70958208D01*
X135356200Y-70958208D02*
X135318104Y-70996303D01*
X135394295Y-74698684D02*
X135394295Y-75155827D01*
X135394295Y-74927255D02*
X134594295Y-74927255D01*
X134594295Y-74927255D02*
X134708580Y-75003446D01*
X134708580Y-75003446D02*
X134784771Y-75079636D01*
X134784771Y-75079636D02*
X134822866Y-75155827D01*
X134670485Y-74393922D02*
X134632390Y-74355826D01*
X134632390Y-74355826D02*
X134594295Y-74279636D01*
X134594295Y-74279636D02*
X134594295Y-74089160D01*
X134594295Y-74089160D02*
X134632390Y-74012969D01*
X134632390Y-74012969D02*
X134670485Y-73974874D01*
X134670485Y-73974874D02*
X134746676Y-73936779D01*
X134746676Y-73936779D02*
X134822866Y-73936779D01*
X134822866Y-73936779D02*
X134937152Y-73974874D01*
X134937152Y-73974874D02*
X135394295Y-74432017D01*
X135394295Y-74432017D02*
X135394295Y-73936779D01*
X134594295Y-73708207D02*
X135394295Y-73441540D01*
X135394295Y-73441540D02*
X134594295Y-73174874D01*
X135041541Y-86369819D02*
X135660588Y-86369819D01*
X135660588Y-86369819D02*
X135327255Y-86750771D01*
X135327255Y-86750771D02*
X135470112Y-86750771D01*
X135470112Y-86750771D02*
X135565350Y-86798390D01*
X135565350Y-86798390D02*
X135612969Y-86846009D01*
X135612969Y-86846009D02*
X135660588Y-86941247D01*
X135660588Y-86941247D02*
X135660588Y-87179342D01*
X135660588Y-87179342D02*
X135612969Y-87274580D01*
X135612969Y-87274580D02*
X135565350Y-87322200D01*
X135565350Y-87322200D02*
X135470112Y-87369819D01*
X135470112Y-87369819D02*
X135184398Y-87369819D01*
X135184398Y-87369819D02*
X135089160Y-87322200D01*
X135089160Y-87322200D02*
X135041541Y-87274580D01*
X151436779Y-99869819D02*
X151436779Y-98869819D01*
X151436779Y-98869819D02*
X151674874Y-98869819D01*
X151674874Y-98869819D02*
X151817731Y-98917438D01*
X151817731Y-98917438D02*
X151912969Y-99012676D01*
X151912969Y-99012676D02*
X151960588Y-99107914D01*
X151960588Y-99107914D02*
X152008207Y-99298390D01*
X152008207Y-99298390D02*
X152008207Y-99441247D01*
X152008207Y-99441247D02*
X151960588Y-99631723D01*
X151960588Y-99631723D02*
X151912969Y-99726961D01*
X151912969Y-99726961D02*
X151817731Y-99822200D01*
X151817731Y-99822200D02*
X151674874Y-99869819D01*
X151674874Y-99869819D02*
X151436779Y-99869819D01*
X152436779Y-99488866D02*
X153198684Y-99488866D01*
X152817731Y-99869819D02*
X152817731Y-99107914D01*
X151436779Y-102469819D02*
X151436779Y-101469819D01*
X151436779Y-101469819D02*
X151674874Y-101469819D01*
X151674874Y-101469819D02*
X151817731Y-101517438D01*
X151817731Y-101517438D02*
X151912969Y-101612676D01*
X151912969Y-101612676D02*
X151960588Y-101707914D01*
X151960588Y-101707914D02*
X152008207Y-101898390D01*
X152008207Y-101898390D02*
X152008207Y-102041247D01*
X152008207Y-102041247D02*
X151960588Y-102231723D01*
X151960588Y-102231723D02*
X151912969Y-102326961D01*
X151912969Y-102326961D02*
X151817731Y-102422200D01*
X151817731Y-102422200D02*
X151674874Y-102469819D01*
X151674874Y-102469819D02*
X151436779Y-102469819D01*
X152436779Y-102088866D02*
X153198684Y-102088866D01*
X151489160Y-71065057D02*
X151536779Y-71017438D01*
X151536779Y-71017438D02*
X151632017Y-70969819D01*
X151632017Y-70969819D02*
X151870112Y-70969819D01*
X151870112Y-70969819D02*
X151965350Y-71017438D01*
X151965350Y-71017438D02*
X152012969Y-71065057D01*
X152012969Y-71065057D02*
X152060588Y-71160295D01*
X152060588Y-71160295D02*
X152060588Y-71255533D01*
X152060588Y-71255533D02*
X152012969Y-71398390D01*
X152012969Y-71398390D02*
X151441541Y-71969819D01*
X151441541Y-71969819D02*
X152060588Y-71969819D01*
X152393922Y-70969819D02*
X153012969Y-70969819D01*
X153012969Y-70969819D02*
X152679636Y-71350771D01*
X152679636Y-71350771D02*
X152822493Y-71350771D01*
X152822493Y-71350771D02*
X152917731Y-71398390D01*
X152917731Y-71398390D02*
X152965350Y-71446009D01*
X152965350Y-71446009D02*
X153012969Y-71541247D01*
X153012969Y-71541247D02*
X153012969Y-71779342D01*
X153012969Y-71779342D02*
X152965350Y-71874580D01*
X152965350Y-71874580D02*
X152917731Y-71922200D01*
X152917731Y-71922200D02*
X152822493Y-71969819D01*
X152822493Y-71969819D02*
X152536779Y-71969819D01*
X152536779Y-71969819D02*
X152441541Y-71922200D01*
X152441541Y-71922200D02*
X152393922Y-71874580D01*
X151489160Y-73465057D02*
X151536779Y-73417438D01*
X151536779Y-73417438D02*
X151632017Y-73369819D01*
X151632017Y-73369819D02*
X151870112Y-73369819D01*
X151870112Y-73369819D02*
X151965350Y-73417438D01*
X151965350Y-73417438D02*
X152012969Y-73465057D01*
X152012969Y-73465057D02*
X152060588Y-73560295D01*
X152060588Y-73560295D02*
X152060588Y-73655533D01*
X152060588Y-73655533D02*
X152012969Y-73798390D01*
X152012969Y-73798390D02*
X151441541Y-74369819D01*
X151441541Y-74369819D02*
X152060588Y-74369819D01*
X152441541Y-73465057D02*
X152489160Y-73417438D01*
X152489160Y-73417438D02*
X152584398Y-73369819D01*
X152584398Y-73369819D02*
X152822493Y-73369819D01*
X152822493Y-73369819D02*
X152917731Y-73417438D01*
X152917731Y-73417438D02*
X152965350Y-73465057D01*
X152965350Y-73465057D02*
X153012969Y-73560295D01*
X153012969Y-73560295D02*
X153012969Y-73655533D01*
X153012969Y-73655533D02*
X152965350Y-73798390D01*
X152965350Y-73798390D02*
X152393922Y-74369819D01*
X152393922Y-74369819D02*
X153012969Y-74369819D01*
X151489160Y-76065057D02*
X151536779Y-76017438D01*
X151536779Y-76017438D02*
X151632017Y-75969819D01*
X151632017Y-75969819D02*
X151870112Y-75969819D01*
X151870112Y-75969819D02*
X151965350Y-76017438D01*
X151965350Y-76017438D02*
X152012969Y-76065057D01*
X152012969Y-76065057D02*
X152060588Y-76160295D01*
X152060588Y-76160295D02*
X152060588Y-76255533D01*
X152060588Y-76255533D02*
X152012969Y-76398390D01*
X152012969Y-76398390D02*
X151441541Y-76969819D01*
X151441541Y-76969819D02*
X152060588Y-76969819D01*
X153012969Y-76969819D02*
X152441541Y-76969819D01*
X152727255Y-76969819D02*
X152727255Y-75969819D01*
X152727255Y-75969819D02*
X152632017Y-76112676D01*
X152632017Y-76112676D02*
X152536779Y-76207914D01*
X152536779Y-76207914D02*
X152441541Y-76255533D01*
X151489160Y-78565057D02*
X151536779Y-78517438D01*
X151536779Y-78517438D02*
X151632017Y-78469819D01*
X151632017Y-78469819D02*
X151870112Y-78469819D01*
X151870112Y-78469819D02*
X151965350Y-78517438D01*
X151965350Y-78517438D02*
X152012969Y-78565057D01*
X152012969Y-78565057D02*
X152060588Y-78660295D01*
X152060588Y-78660295D02*
X152060588Y-78755533D01*
X152060588Y-78755533D02*
X152012969Y-78898390D01*
X152012969Y-78898390D02*
X151441541Y-79469819D01*
X151441541Y-79469819D02*
X152060588Y-79469819D01*
X152679636Y-78469819D02*
X152774874Y-78469819D01*
X152774874Y-78469819D02*
X152870112Y-78517438D01*
X152870112Y-78517438D02*
X152917731Y-78565057D01*
X152917731Y-78565057D02*
X152965350Y-78660295D01*
X152965350Y-78660295D02*
X153012969Y-78850771D01*
X153012969Y-78850771D02*
X153012969Y-79088866D01*
X153012969Y-79088866D02*
X152965350Y-79279342D01*
X152965350Y-79279342D02*
X152917731Y-79374580D01*
X152917731Y-79374580D02*
X152870112Y-79422200D01*
X152870112Y-79422200D02*
X152774874Y-79469819D01*
X152774874Y-79469819D02*
X152679636Y-79469819D01*
X152679636Y-79469819D02*
X152584398Y-79422200D01*
X152584398Y-79422200D02*
X152536779Y-79374580D01*
X152536779Y-79374580D02*
X152489160Y-79279342D01*
X152489160Y-79279342D02*
X152441541Y-79088866D01*
X152441541Y-79088866D02*
X152441541Y-78850771D01*
X152441541Y-78850771D02*
X152489160Y-78660295D01*
X152489160Y-78660295D02*
X152536779Y-78565057D01*
X152536779Y-78565057D02*
X152584398Y-78517438D01*
X152584398Y-78517438D02*
X152679636Y-78469819D01*
X152060588Y-82069819D02*
X151489160Y-82069819D01*
X151774874Y-82069819D02*
X151774874Y-81069819D01*
X151774874Y-81069819D02*
X151679636Y-81212676D01*
X151679636Y-81212676D02*
X151584398Y-81307914D01*
X151584398Y-81307914D02*
X151489160Y-81355533D01*
X152536779Y-82069819D02*
X152727255Y-82069819D01*
X152727255Y-82069819D02*
X152822493Y-82022200D01*
X152822493Y-82022200D02*
X152870112Y-81974580D01*
X152870112Y-81974580D02*
X152965350Y-81831723D01*
X152965350Y-81831723D02*
X153012969Y-81641247D01*
X153012969Y-81641247D02*
X153012969Y-81260295D01*
X153012969Y-81260295D02*
X152965350Y-81165057D01*
X152965350Y-81165057D02*
X152917731Y-81117438D01*
X152917731Y-81117438D02*
X152822493Y-81069819D01*
X152822493Y-81069819D02*
X152632017Y-81069819D01*
X152632017Y-81069819D02*
X152536779Y-81117438D01*
X152536779Y-81117438D02*
X152489160Y-81165057D01*
X152489160Y-81165057D02*
X152441541Y-81260295D01*
X152441541Y-81260295D02*
X152441541Y-81498390D01*
X152441541Y-81498390D02*
X152489160Y-81593628D01*
X152489160Y-81593628D02*
X152536779Y-81641247D01*
X152536779Y-81641247D02*
X152632017Y-81688866D01*
X152632017Y-81688866D02*
X152822493Y-81688866D01*
X152822493Y-81688866D02*
X152917731Y-81641247D01*
X152917731Y-81641247D02*
X152965350Y-81593628D01*
X152965350Y-81593628D02*
X153012969Y-81498390D01*
X152060588Y-84669819D02*
X151489160Y-84669819D01*
X151774874Y-84669819D02*
X151774874Y-83669819D01*
X151774874Y-83669819D02*
X151679636Y-83812676D01*
X151679636Y-83812676D02*
X151584398Y-83907914D01*
X151584398Y-83907914D02*
X151489160Y-83955533D01*
X152632017Y-84098390D02*
X152536779Y-84050771D01*
X152536779Y-84050771D02*
X152489160Y-84003152D01*
X152489160Y-84003152D02*
X152441541Y-83907914D01*
X152441541Y-83907914D02*
X152441541Y-83860295D01*
X152441541Y-83860295D02*
X152489160Y-83765057D01*
X152489160Y-83765057D02*
X152536779Y-83717438D01*
X152536779Y-83717438D02*
X152632017Y-83669819D01*
X152632017Y-83669819D02*
X152822493Y-83669819D01*
X152822493Y-83669819D02*
X152917731Y-83717438D01*
X152917731Y-83717438D02*
X152965350Y-83765057D01*
X152965350Y-83765057D02*
X153012969Y-83860295D01*
X153012969Y-83860295D02*
X153012969Y-83907914D01*
X153012969Y-83907914D02*
X152965350Y-84003152D01*
X152965350Y-84003152D02*
X152917731Y-84050771D01*
X152917731Y-84050771D02*
X152822493Y-84098390D01*
X152822493Y-84098390D02*
X152632017Y-84098390D01*
X152632017Y-84098390D02*
X152536779Y-84146009D01*
X152536779Y-84146009D02*
X152489160Y-84193628D01*
X152489160Y-84193628D02*
X152441541Y-84288866D01*
X152441541Y-84288866D02*
X152441541Y-84479342D01*
X152441541Y-84479342D02*
X152489160Y-84574580D01*
X152489160Y-84574580D02*
X152536779Y-84622200D01*
X152536779Y-84622200D02*
X152632017Y-84669819D01*
X152632017Y-84669819D02*
X152822493Y-84669819D01*
X152822493Y-84669819D02*
X152917731Y-84622200D01*
X152917731Y-84622200D02*
X152965350Y-84574580D01*
X152965350Y-84574580D02*
X153012969Y-84479342D01*
X153012969Y-84479342D02*
X153012969Y-84288866D01*
X153012969Y-84288866D02*
X152965350Y-84193628D01*
X152965350Y-84193628D02*
X152917731Y-84146009D01*
X152917731Y-84146009D02*
X152822493Y-84098390D01*
X152060588Y-87169819D02*
X151489160Y-87169819D01*
X151774874Y-87169819D02*
X151774874Y-86169819D01*
X151774874Y-86169819D02*
X151679636Y-86312676D01*
X151679636Y-86312676D02*
X151584398Y-86407914D01*
X151584398Y-86407914D02*
X151489160Y-86455533D01*
X152393922Y-86169819D02*
X153060588Y-86169819D01*
X153060588Y-86169819D02*
X152632017Y-87169819D01*
X152060588Y-92269819D02*
X151489160Y-92269819D01*
X151774874Y-92269819D02*
X151774874Y-91269819D01*
X151774874Y-91269819D02*
X151679636Y-91412676D01*
X151679636Y-91412676D02*
X151584398Y-91507914D01*
X151584398Y-91507914D02*
X151489160Y-91555533D01*
X152965350Y-91269819D02*
X152489160Y-91269819D01*
X152489160Y-91269819D02*
X152441541Y-91746009D01*
X152441541Y-91746009D02*
X152489160Y-91698390D01*
X152489160Y-91698390D02*
X152584398Y-91650771D01*
X152584398Y-91650771D02*
X152822493Y-91650771D01*
X152822493Y-91650771D02*
X152917731Y-91698390D01*
X152917731Y-91698390D02*
X152965350Y-91746009D01*
X152965350Y-91746009D02*
X153012969Y-91841247D01*
X153012969Y-91841247D02*
X153012969Y-92079342D01*
X153012969Y-92079342D02*
X152965350Y-92174580D01*
X152965350Y-92174580D02*
X152917731Y-92222200D01*
X152917731Y-92222200D02*
X152822493Y-92269819D01*
X152822493Y-92269819D02*
X152584398Y-92269819D01*
X152584398Y-92269819D02*
X152489160Y-92222200D01*
X152489160Y-92222200D02*
X152441541Y-92174580D01*
X152060588Y-94769819D02*
X151489160Y-94769819D01*
X151774874Y-94769819D02*
X151774874Y-93769819D01*
X151774874Y-93769819D02*
X151679636Y-93912676D01*
X151679636Y-93912676D02*
X151584398Y-94007914D01*
X151584398Y-94007914D02*
X151489160Y-94055533D01*
X153012969Y-94769819D02*
X152441541Y-94769819D01*
X152727255Y-94769819D02*
X152727255Y-93769819D01*
X152727255Y-93769819D02*
X152632017Y-93912676D01*
X152632017Y-93912676D02*
X152536779Y-94007914D01*
X152536779Y-94007914D02*
X152441541Y-94055533D01*
X152060588Y-97369819D02*
X151489160Y-97369819D01*
X151774874Y-97369819D02*
X151774874Y-96369819D01*
X151774874Y-96369819D02*
X151679636Y-96512676D01*
X151679636Y-96512676D02*
X151584398Y-96607914D01*
X151584398Y-96607914D02*
X151489160Y-96655533D01*
X152679636Y-96369819D02*
X152774874Y-96369819D01*
X152774874Y-96369819D02*
X152870112Y-96417438D01*
X152870112Y-96417438D02*
X152917731Y-96465057D01*
X152917731Y-96465057D02*
X152965350Y-96560295D01*
X152965350Y-96560295D02*
X153012969Y-96750771D01*
X153012969Y-96750771D02*
X153012969Y-96988866D01*
X153012969Y-96988866D02*
X152965350Y-97179342D01*
X152965350Y-97179342D02*
X152917731Y-97274580D01*
X152917731Y-97274580D02*
X152870112Y-97322200D01*
X152870112Y-97322200D02*
X152774874Y-97369819D01*
X152774874Y-97369819D02*
X152679636Y-97369819D01*
X152679636Y-97369819D02*
X152584398Y-97322200D01*
X152584398Y-97322200D02*
X152536779Y-97274580D01*
X152536779Y-97274580D02*
X152489160Y-97179342D01*
X152489160Y-97179342D02*
X152441541Y-96988866D01*
X152441541Y-96988866D02*
X152441541Y-96750771D01*
X152441541Y-96750771D02*
X152489160Y-96560295D01*
X152489160Y-96560295D02*
X152536779Y-96465057D01*
X152536779Y-96465057D02*
X152584398Y-96417438D01*
X152584398Y-96417438D02*
X152679636Y-96369819D01*
X134791792Y-96469819D02*
X135458458Y-96469819D01*
X135458458Y-96469819D02*
X135029887Y-97469819D01*
X135177506Y-78669819D02*
X135272744Y-78669819D01*
X135272744Y-78669819D02*
X135367982Y-78717438D01*
X135367982Y-78717438D02*
X135415601Y-78765057D01*
X135415601Y-78765057D02*
X135463220Y-78860295D01*
X135463220Y-78860295D02*
X135510839Y-79050771D01*
X135510839Y-79050771D02*
X135510839Y-79288866D01*
X135510839Y-79288866D02*
X135463220Y-79479342D01*
X135463220Y-79479342D02*
X135415601Y-79574580D01*
X135415601Y-79574580D02*
X135367982Y-79622200D01*
X135367982Y-79622200D02*
X135272744Y-79669819D01*
X135272744Y-79669819D02*
X135177506Y-79669819D01*
X135177506Y-79669819D02*
X135082268Y-79622200D01*
X135082268Y-79622200D02*
X135034649Y-79574580D01*
X135034649Y-79574580D02*
X134987030Y-79479342D01*
X134987030Y-79479342D02*
X134939411Y-79288866D01*
X134939411Y-79288866D02*
X134939411Y-79050771D01*
X134939411Y-79050771D02*
X134987030Y-78860295D01*
X134987030Y-78860295D02*
X135034649Y-78765057D01*
X135034649Y-78765057D02*
X135082268Y-78717438D01*
X135082268Y-78717438D02*
X135177506Y-78669819D01*
X135510839Y-82169819D02*
X134939411Y-82169819D01*
X135225125Y-82169819D02*
X135225125Y-81169819D01*
X135225125Y-81169819D02*
X135129887Y-81312676D01*
X135129887Y-81312676D02*
X135034649Y-81407914D01*
X135034649Y-81407914D02*
X134939411Y-81455533D01*
X134939411Y-83865057D02*
X134987030Y-83817438D01*
X134987030Y-83817438D02*
X135082268Y-83769819D01*
X135082268Y-83769819D02*
X135320363Y-83769819D01*
X135320363Y-83769819D02*
X135415601Y-83817438D01*
X135415601Y-83817438D02*
X135463220Y-83865057D01*
X135463220Y-83865057D02*
X135510839Y-83960295D01*
X135510839Y-83960295D02*
X135510839Y-84055533D01*
X135510839Y-84055533D02*
X135463220Y-84198390D01*
X135463220Y-84198390D02*
X134891792Y-84769819D01*
X134891792Y-84769819D02*
X135510839Y-84769819D01*
X135415601Y-89103152D02*
X135415601Y-89769819D01*
X135177506Y-88722200D02*
X134939411Y-89436485D01*
X134939411Y-89436485D02*
X135558458Y-89436485D01*
X135463220Y-91369819D02*
X134987030Y-91369819D01*
X134987030Y-91369819D02*
X134939411Y-91846009D01*
X134939411Y-91846009D02*
X134987030Y-91798390D01*
X134987030Y-91798390D02*
X135082268Y-91750771D01*
X135082268Y-91750771D02*
X135320363Y-91750771D01*
X135320363Y-91750771D02*
X135415601Y-91798390D01*
X135415601Y-91798390D02*
X135463220Y-91846009D01*
X135463220Y-91846009D02*
X135510839Y-91941247D01*
X135510839Y-91941247D02*
X135510839Y-92179342D01*
X135510839Y-92179342D02*
X135463220Y-92274580D01*
X135463220Y-92274580D02*
X135415601Y-92322200D01*
X135415601Y-92322200D02*
X135320363Y-92369819D01*
X135320363Y-92369819D02*
X135082268Y-92369819D01*
X135082268Y-92369819D02*
X134987030Y-92322200D01*
X134987030Y-92322200D02*
X134939411Y-92274580D01*
X135415601Y-93869819D02*
X135225125Y-93869819D01*
X135225125Y-93869819D02*
X135129887Y-93917438D01*
X135129887Y-93917438D02*
X135082268Y-93965057D01*
X135082268Y-93965057D02*
X134987030Y-94107914D01*
X134987030Y-94107914D02*
X134939411Y-94298390D01*
X134939411Y-94298390D02*
X134939411Y-94679342D01*
X134939411Y-94679342D02*
X134987030Y-94774580D01*
X134987030Y-94774580D02*
X135034649Y-94822200D01*
X135034649Y-94822200D02*
X135129887Y-94869819D01*
X135129887Y-94869819D02*
X135320363Y-94869819D01*
X135320363Y-94869819D02*
X135415601Y-94822200D01*
X135415601Y-94822200D02*
X135463220Y-94774580D01*
X135463220Y-94774580D02*
X135510839Y-94679342D01*
X135510839Y-94679342D02*
X135510839Y-94441247D01*
X135510839Y-94441247D02*
X135463220Y-94346009D01*
X135463220Y-94346009D02*
X135415601Y-94298390D01*
X135415601Y-94298390D02*
X135320363Y-94250771D01*
X135320363Y-94250771D02*
X135129887Y-94250771D01*
X135129887Y-94250771D02*
X135034649Y-94298390D01*
X135034649Y-94298390D02*
X134987030Y-94346009D01*
X134987030Y-94346009D02*
X134939411Y-94441247D01*
X135129887Y-99398390D02*
X135034649Y-99350771D01*
X135034649Y-99350771D02*
X134987030Y-99303152D01*
X134987030Y-99303152D02*
X134939411Y-99207914D01*
X134939411Y-99207914D02*
X134939411Y-99160295D01*
X134939411Y-99160295D02*
X134987030Y-99065057D01*
X134987030Y-99065057D02*
X135034649Y-99017438D01*
X135034649Y-99017438D02*
X135129887Y-98969819D01*
X135129887Y-98969819D02*
X135320363Y-98969819D01*
X135320363Y-98969819D02*
X135415601Y-99017438D01*
X135415601Y-99017438D02*
X135463220Y-99065057D01*
X135463220Y-99065057D02*
X135510839Y-99160295D01*
X135510839Y-99160295D02*
X135510839Y-99207914D01*
X135510839Y-99207914D02*
X135463220Y-99303152D01*
X135463220Y-99303152D02*
X135415601Y-99350771D01*
X135415601Y-99350771D02*
X135320363Y-99398390D01*
X135320363Y-99398390D02*
X135129887Y-99398390D01*
X135129887Y-99398390D02*
X135034649Y-99446009D01*
X135034649Y-99446009D02*
X134987030Y-99493628D01*
X134987030Y-99493628D02*
X134939411Y-99588866D01*
X134939411Y-99588866D02*
X134939411Y-99779342D01*
X134939411Y-99779342D02*
X134987030Y-99874580D01*
X134987030Y-99874580D02*
X135034649Y-99922200D01*
X135034649Y-99922200D02*
X135129887Y-99969819D01*
X135129887Y-99969819D02*
X135320363Y-99969819D01*
X135320363Y-99969819D02*
X135415601Y-99922200D01*
X135415601Y-99922200D02*
X135463220Y-99874580D01*
X135463220Y-99874580D02*
X135510839Y-99779342D01*
X135510839Y-99779342D02*
X135510839Y-99588866D01*
X135510839Y-99588866D02*
X135463220Y-99493628D01*
X135463220Y-99493628D02*
X135415601Y-99446009D01*
X135415601Y-99446009D02*
X135320363Y-99398390D01*
X135034649Y-102469819D02*
X135225125Y-102469819D01*
X135225125Y-102469819D02*
X135320363Y-102422200D01*
X135320363Y-102422200D02*
X135367982Y-102374580D01*
X135367982Y-102374580D02*
X135463220Y-102231723D01*
X135463220Y-102231723D02*
X135510839Y-102041247D01*
X135510839Y-102041247D02*
X135510839Y-101660295D01*
X135510839Y-101660295D02*
X135463220Y-101565057D01*
X135463220Y-101565057D02*
X135415601Y-101517438D01*
X135415601Y-101517438D02*
X135320363Y-101469819D01*
X135320363Y-101469819D02*
X135129887Y-101469819D01*
X135129887Y-101469819D02*
X135034649Y-101517438D01*
X135034649Y-101517438D02*
X134987030Y-101565057D01*
X134987030Y-101565057D02*
X134939411Y-101660295D01*
X134939411Y-101660295D02*
X134939411Y-101898390D01*
X134939411Y-101898390D02*
X134987030Y-101993628D01*
X134987030Y-101993628D02*
X135034649Y-102041247D01*
X135034649Y-102041247D02*
X135129887Y-102088866D01*
X135129887Y-102088866D02*
X135320363Y-102088866D01*
X135320363Y-102088866D02*
X135415601Y-102041247D01*
X135415601Y-102041247D02*
X135463220Y-101993628D01*
X135463220Y-101993628D02*
X135510839Y-101898390D01*
X134417438Y-105139411D02*
X134369819Y-105234649D01*
X134369819Y-105234649D02*
X134369819Y-105377506D01*
X134369819Y-105377506D02*
X134417438Y-105520363D01*
X134417438Y-105520363D02*
X134512676Y-105615601D01*
X134512676Y-105615601D02*
X134607914Y-105663220D01*
X134607914Y-105663220D02*
X134798390Y-105710839D01*
X134798390Y-105710839D02*
X134941247Y-105710839D01*
X134941247Y-105710839D02*
X135131723Y-105663220D01*
X135131723Y-105663220D02*
X135226961Y-105615601D01*
X135226961Y-105615601D02*
X135322200Y-105520363D01*
X135322200Y-105520363D02*
X135369819Y-105377506D01*
X135369819Y-105377506D02*
X135369819Y-105282268D01*
X135369819Y-105282268D02*
X135322200Y-105139411D01*
X135322200Y-105139411D02*
X135274580Y-105091792D01*
X135274580Y-105091792D02*
X134941247Y-105091792D01*
X134941247Y-105091792D02*
X134941247Y-105282268D01*
X135369819Y-104663220D02*
X134369819Y-104663220D01*
X134369819Y-104663220D02*
X135369819Y-104091792D01*
X135369819Y-104091792D02*
X134369819Y-104091792D01*
X135369819Y-103615601D02*
X134369819Y-103615601D01*
X134369819Y-103615601D02*
X134369819Y-103377506D01*
X134369819Y-103377506D02*
X134417438Y-103234649D01*
X134417438Y-103234649D02*
X134512676Y-103139411D01*
X134512676Y-103139411D02*
X134607914Y-103091792D01*
X134607914Y-103091792D02*
X134798390Y-103044173D01*
X134798390Y-103044173D02*
X134941247Y-103044173D01*
X134941247Y-103044173D02*
X135131723Y-103091792D01*
X135131723Y-103091792D02*
X135226961Y-103139411D01*
X135226961Y-103139411D02*
X135322200Y-103234649D01*
X135322200Y-103234649D02*
X135369819Y-103377506D01*
X135369819Y-103377506D02*
X135369819Y-103615601D01*
X151917438Y-105139411D02*
X151869819Y-105234649D01*
X151869819Y-105234649D02*
X151869819Y-105377506D01*
X151869819Y-105377506D02*
X151917438Y-105520363D01*
X151917438Y-105520363D02*
X152012676Y-105615601D01*
X152012676Y-105615601D02*
X152107914Y-105663220D01*
X152107914Y-105663220D02*
X152298390Y-105710839D01*
X152298390Y-105710839D02*
X152441247Y-105710839D01*
X152441247Y-105710839D02*
X152631723Y-105663220D01*
X152631723Y-105663220D02*
X152726961Y-105615601D01*
X152726961Y-105615601D02*
X152822200Y-105520363D01*
X152822200Y-105520363D02*
X152869819Y-105377506D01*
X152869819Y-105377506D02*
X152869819Y-105282268D01*
X152869819Y-105282268D02*
X152822200Y-105139411D01*
X152822200Y-105139411D02*
X152774580Y-105091792D01*
X152774580Y-105091792D02*
X152441247Y-105091792D01*
X152441247Y-105091792D02*
X152441247Y-105282268D01*
X152869819Y-104663220D02*
X151869819Y-104663220D01*
X151869819Y-104663220D02*
X152869819Y-104091792D01*
X152869819Y-104091792D02*
X151869819Y-104091792D01*
X152869819Y-103615601D02*
X151869819Y-103615601D01*
X151869819Y-103615601D02*
X151869819Y-103377506D01*
X151869819Y-103377506D02*
X151917438Y-103234649D01*
X151917438Y-103234649D02*
X152012676Y-103139411D01*
X152012676Y-103139411D02*
X152107914Y-103091792D01*
X152107914Y-103091792D02*
X152298390Y-103044173D01*
X152298390Y-103044173D02*
X152441247Y-103044173D01*
X152441247Y-103044173D02*
X152631723Y-103091792D01*
X152631723Y-103091792D02*
X152726961Y-103139411D01*
X152726961Y-103139411D02*
X152822200Y-103234649D01*
X152822200Y-103234649D02*
X152869819Y-103377506D01*
X152869819Y-103377506D02*
X152869819Y-103615601D01*
D13*
X152067167Y-89669299D02*
X151495739Y-89669299D01*
X151781453Y-89669299D02*
X151781453Y-88669299D01*
X151781453Y-88669299D02*
X151686215Y-88812156D01*
X151686215Y-88812156D02*
X151590977Y-88907394D01*
X151590977Y-88907394D02*
X151495739Y-88955013D01*
X152924310Y-88669299D02*
X152733834Y-88669299D01*
X152733834Y-88669299D02*
X152638596Y-88716918D01*
X152638596Y-88716918D02*
X152590977Y-88764537D01*
X152590977Y-88764537D02*
X152495739Y-88907394D01*
X152495739Y-88907394D02*
X152448120Y-89097870D01*
X152448120Y-89097870D02*
X152448120Y-89478822D01*
X152448120Y-89478822D02*
X152495739Y-89574060D01*
X152495739Y-89574060D02*
X152543358Y-89621680D01*
X152543358Y-89621680D02*
X152638596Y-89669299D01*
X152638596Y-89669299D02*
X152829072Y-89669299D01*
X152829072Y-89669299D02*
X152924310Y-89621680D01*
X152924310Y-89621680D02*
X152971929Y-89574060D01*
X152971929Y-89574060D02*
X153019548Y-89478822D01*
X153019548Y-89478822D02*
X153019548Y-89240727D01*
X153019548Y-89240727D02*
X152971929Y-89145489D01*
X152971929Y-89145489D02*
X152924310Y-89097870D01*
X152924310Y-89097870D02*
X152829072Y-89050251D01*
X152829072Y-89050251D02*
X152638596Y-89050251D01*
X152638596Y-89050251D02*
X152543358Y-89097870D01*
X152543358Y-89097870D02*
X152495739Y-89145489D01*
X152495739Y-89145489D02*
X152448120Y-89240727D01*
D12*
X143396666Y-132734819D02*
X143396666Y-133449104D01*
X143396666Y-133449104D02*
X143349047Y-133591961D01*
X143349047Y-133591961D02*
X143253809Y-133687200D01*
X143253809Y-133687200D02*
X143110952Y-133734819D01*
X143110952Y-133734819D02*
X143015714Y-133734819D01*
X143825238Y-132830057D02*
X143872857Y-132782438D01*
X143872857Y-132782438D02*
X143968095Y-132734819D01*
X143968095Y-132734819D02*
X144206190Y-132734819D01*
X144206190Y-132734819D02*
X144301428Y-132782438D01*
X144301428Y-132782438D02*
X144349047Y-132830057D01*
X144349047Y-132830057D02*
X144396666Y-132925295D01*
X144396666Y-132925295D02*
X144396666Y-133020533D01*
X144396666Y-133020533D02*
X144349047Y-133163390D01*
X144349047Y-133163390D02*
X143777619Y-133734819D01*
X143777619Y-133734819D02*
X144396666Y-133734819D01*
X142392857Y-88281009D02*
X142535714Y-88328628D01*
X142535714Y-88328628D02*
X142583333Y-88376247D01*
X142583333Y-88376247D02*
X142630952Y-88471485D01*
X142630952Y-88471485D02*
X142630952Y-88614342D01*
X142630952Y-88614342D02*
X142583333Y-88709580D01*
X142583333Y-88709580D02*
X142535714Y-88757200D01*
X142535714Y-88757200D02*
X142440476Y-88804819D01*
X142440476Y-88804819D02*
X142059524Y-88804819D01*
X142059524Y-88804819D02*
X142059524Y-87804819D01*
X142059524Y-87804819D02*
X142392857Y-87804819D01*
X142392857Y-87804819D02*
X142488095Y-87852438D01*
X142488095Y-87852438D02*
X142535714Y-87900057D01*
X142535714Y-87900057D02*
X142583333Y-87995295D01*
X142583333Y-87995295D02*
X142583333Y-88090533D01*
X142583333Y-88090533D02*
X142535714Y-88185771D01*
X142535714Y-88185771D02*
X142488095Y-88233390D01*
X142488095Y-88233390D02*
X142392857Y-88281009D01*
X142392857Y-88281009D02*
X142059524Y-88281009D01*
X143250000Y-87804819D02*
X143440476Y-87804819D01*
X143440476Y-87804819D02*
X143535714Y-87852438D01*
X143535714Y-87852438D02*
X143630952Y-87947676D01*
X143630952Y-87947676D02*
X143678571Y-88138152D01*
X143678571Y-88138152D02*
X143678571Y-88471485D01*
X143678571Y-88471485D02*
X143630952Y-88661961D01*
X143630952Y-88661961D02*
X143535714Y-88757200D01*
X143535714Y-88757200D02*
X143440476Y-88804819D01*
X143440476Y-88804819D02*
X143250000Y-88804819D01*
X143250000Y-88804819D02*
X143154762Y-88757200D01*
X143154762Y-88757200D02*
X143059524Y-88661961D01*
X143059524Y-88661961D02*
X143011905Y-88471485D01*
X143011905Y-88471485D02*
X143011905Y-88138152D01*
X143011905Y-88138152D02*
X143059524Y-87947676D01*
X143059524Y-87947676D02*
X143154762Y-87852438D01*
X143154762Y-87852438D02*
X143250000Y-87804819D01*
X144297619Y-87804819D02*
X144488095Y-87804819D01*
X144488095Y-87804819D02*
X144583333Y-87852438D01*
X144583333Y-87852438D02*
X144678571Y-87947676D01*
X144678571Y-87947676D02*
X144726190Y-88138152D01*
X144726190Y-88138152D02*
X144726190Y-88471485D01*
X144726190Y-88471485D02*
X144678571Y-88661961D01*
X144678571Y-88661961D02*
X144583333Y-88757200D01*
X144583333Y-88757200D02*
X144488095Y-88804819D01*
X144488095Y-88804819D02*
X144297619Y-88804819D01*
X144297619Y-88804819D02*
X144202381Y-88757200D01*
X144202381Y-88757200D02*
X144107143Y-88661961D01*
X144107143Y-88661961D02*
X144059524Y-88471485D01*
X144059524Y-88471485D02*
X144059524Y-88138152D01*
X144059524Y-88138152D02*
X144107143Y-87947676D01*
X144107143Y-87947676D02*
X144202381Y-87852438D01*
X144202381Y-87852438D02*
X144297619Y-87804819D01*
X145011905Y-87804819D02*
X145583333Y-87804819D01*
X145297619Y-88804819D02*
X145297619Y-87804819D01*
X142952380Y-81504819D02*
X142619047Y-81028628D01*
X142380952Y-81504819D02*
X142380952Y-80504819D01*
X142380952Y-80504819D02*
X142761904Y-80504819D01*
X142761904Y-80504819D02*
X142857142Y-80552438D01*
X142857142Y-80552438D02*
X142904761Y-80600057D01*
X142904761Y-80600057D02*
X142952380Y-80695295D01*
X142952380Y-80695295D02*
X142952380Y-80838152D01*
X142952380Y-80838152D02*
X142904761Y-80933390D01*
X142904761Y-80933390D02*
X142857142Y-80981009D01*
X142857142Y-80981009D02*
X142761904Y-81028628D01*
X142761904Y-81028628D02*
X142380952Y-81028628D01*
X143333333Y-81457200D02*
X143476190Y-81504819D01*
X143476190Y-81504819D02*
X143714285Y-81504819D01*
X143714285Y-81504819D02*
X143809523Y-81457200D01*
X143809523Y-81457200D02*
X143857142Y-81409580D01*
X143857142Y-81409580D02*
X143904761Y-81314342D01*
X143904761Y-81314342D02*
X143904761Y-81219104D01*
X143904761Y-81219104D02*
X143857142Y-81123866D01*
X143857142Y-81123866D02*
X143809523Y-81076247D01*
X143809523Y-81076247D02*
X143714285Y-81028628D01*
X143714285Y-81028628D02*
X143523809Y-80981009D01*
X143523809Y-80981009D02*
X143428571Y-80933390D01*
X143428571Y-80933390D02*
X143380952Y-80885771D01*
X143380952Y-80885771D02*
X143333333Y-80790533D01*
X143333333Y-80790533D02*
X143333333Y-80695295D01*
X143333333Y-80695295D02*
X143380952Y-80600057D01*
X143380952Y-80600057D02*
X143428571Y-80552438D01*
X143428571Y-80552438D02*
X143523809Y-80504819D01*
X143523809Y-80504819D02*
X143761904Y-80504819D01*
X143761904Y-80504819D02*
X143904761Y-80552438D01*
X144190476Y-80504819D02*
X144761904Y-80504819D01*
X144476190Y-81504819D02*
X144476190Y-80504819D01*
X139248094Y-45069104D02*
X139724284Y-45069104D01*
X139152856Y-45354819D02*
X139486189Y-44354819D01*
X139486189Y-44354819D02*
X139819522Y-45354819D01*
X140152856Y-44688152D02*
X140152856Y-45354819D01*
X140152856Y-44783390D02*
X140200475Y-44735771D01*
X140200475Y-44735771D02*
X140295713Y-44688152D01*
X140295713Y-44688152D02*
X140438570Y-44688152D01*
X140438570Y-44688152D02*
X140533808Y-44735771D01*
X140533808Y-44735771D02*
X140581427Y-44831009D01*
X140581427Y-44831009D02*
X140581427Y-45354819D01*
X140914761Y-44688152D02*
X141295713Y-44688152D01*
X141057618Y-44354819D02*
X141057618Y-45211961D01*
X141057618Y-45211961D02*
X141105237Y-45307200D01*
X141105237Y-45307200D02*
X141200475Y-45354819D01*
X141200475Y-45354819D02*
X141295713Y-45354819D01*
X142009999Y-45307200D02*
X141914761Y-45354819D01*
X141914761Y-45354819D02*
X141724285Y-45354819D01*
X141724285Y-45354819D02*
X141629047Y-45307200D01*
X141629047Y-45307200D02*
X141581428Y-45211961D01*
X141581428Y-45211961D02*
X141581428Y-44831009D01*
X141581428Y-44831009D02*
X141629047Y-44735771D01*
X141629047Y-44735771D02*
X141724285Y-44688152D01*
X141724285Y-44688152D02*
X141914761Y-44688152D01*
X141914761Y-44688152D02*
X142009999Y-44735771D01*
X142009999Y-44735771D02*
X142057618Y-44831009D01*
X142057618Y-44831009D02*
X142057618Y-44926247D01*
X142057618Y-44926247D02*
X141581428Y-45021485D01*
X142486190Y-44688152D02*
X142486190Y-45354819D01*
X142486190Y-44783390D02*
X142533809Y-44735771D01*
X142533809Y-44735771D02*
X142629047Y-44688152D01*
X142629047Y-44688152D02*
X142771904Y-44688152D01*
X142771904Y-44688152D02*
X142867142Y-44735771D01*
X142867142Y-44735771D02*
X142914761Y-44831009D01*
X142914761Y-44831009D02*
X142914761Y-45354819D01*
X143390952Y-44688152D02*
X143390952Y-45354819D01*
X143390952Y-44783390D02*
X143438571Y-44735771D01*
X143438571Y-44735771D02*
X143533809Y-44688152D01*
X143533809Y-44688152D02*
X143676666Y-44688152D01*
X143676666Y-44688152D02*
X143771904Y-44735771D01*
X143771904Y-44735771D02*
X143819523Y-44831009D01*
X143819523Y-44831009D02*
X143819523Y-45354819D01*
X144724285Y-45354819D02*
X144724285Y-44831009D01*
X144724285Y-44831009D02*
X144676666Y-44735771D01*
X144676666Y-44735771D02*
X144581428Y-44688152D01*
X144581428Y-44688152D02*
X144390952Y-44688152D01*
X144390952Y-44688152D02*
X144295714Y-44735771D01*
X144724285Y-45307200D02*
X144629047Y-45354819D01*
X144629047Y-45354819D02*
X144390952Y-45354819D01*
X144390952Y-45354819D02*
X144295714Y-45307200D01*
X144295714Y-45307200D02*
X144248095Y-45211961D01*
X144248095Y-45211961D02*
X144248095Y-45116723D01*
X144248095Y-45116723D02*
X144295714Y-45021485D01*
X144295714Y-45021485D02*
X144390952Y-44973866D01*
X144390952Y-44973866D02*
X144629047Y-44973866D01*
X144629047Y-44973866D02*
X144724285Y-44926247D01*
X145914762Y-45069104D02*
X146390952Y-45069104D01*
X145819524Y-45354819D02*
X146152857Y-44354819D01*
X146152857Y-44354819D02*
X146486190Y-45354819D01*
X146819524Y-45354819D02*
X146819524Y-44688152D01*
X146819524Y-44878628D02*
X146867143Y-44783390D01*
X146867143Y-44783390D02*
X146914762Y-44735771D01*
X146914762Y-44735771D02*
X147010000Y-44688152D01*
X147010000Y-44688152D02*
X147105238Y-44688152D01*
X147819524Y-45307200D02*
X147724286Y-45354819D01*
X147724286Y-45354819D02*
X147533810Y-45354819D01*
X147533810Y-45354819D02*
X147438572Y-45307200D01*
X147438572Y-45307200D02*
X147390953Y-45211961D01*
X147390953Y-45211961D02*
X147390953Y-44831009D01*
X147390953Y-44831009D02*
X147438572Y-44735771D01*
X147438572Y-44735771D02*
X147533810Y-44688152D01*
X147533810Y-44688152D02*
X147724286Y-44688152D01*
X147724286Y-44688152D02*
X147819524Y-44735771D01*
X147819524Y-44735771D02*
X147867143Y-44831009D01*
X147867143Y-44831009D02*
X147867143Y-44926247D01*
X147867143Y-44926247D02*
X147390953Y-45021485D01*
X148724286Y-45354819D02*
X148724286Y-44831009D01*
X148724286Y-44831009D02*
X148676667Y-44735771D01*
X148676667Y-44735771D02*
X148581429Y-44688152D01*
X148581429Y-44688152D02*
X148390953Y-44688152D01*
X148390953Y-44688152D02*
X148295715Y-44735771D01*
X148724286Y-45307200D02*
X148629048Y-45354819D01*
X148629048Y-45354819D02*
X148390953Y-45354819D01*
X148390953Y-45354819D02*
X148295715Y-45307200D01*
X148295715Y-45307200D02*
X148248096Y-45211961D01*
X148248096Y-45211961D02*
X148248096Y-45116723D01*
X148248096Y-45116723D02*
X148295715Y-45021485D01*
X148295715Y-45021485D02*
X148390953Y-44973866D01*
X148390953Y-44973866D02*
X148629048Y-44973866D01*
X148629048Y-44973866D02*
X148724286Y-44926247D01*
%TO.C,J1*%
D14*
X141080000Y-98210000D02*
X142460000Y-98210000D01*
X141080000Y-99590000D02*
X141080000Y-98210000D01*
X141080000Y-100860000D02*
X141080000Y-111130000D01*
X141080000Y-100860000D02*
X143730000Y-100860000D01*
X141080000Y-111130000D02*
X146380000Y-111130000D01*
X143730000Y-98210000D02*
X146380000Y-98210000D01*
X143730000Y-100860000D02*
X143730000Y-98210000D01*
X146380000Y-98210000D02*
X146380000Y-111130000D01*
%TO.C,C2*%
X135090000Y-115634420D02*
X135090000Y-115915580D01*
X136110000Y-115634420D02*
X136110000Y-115915580D01*
%TO.C,R5*%
X144727500Y-72187742D02*
X144727500Y-72662258D01*
X145772500Y-72187742D02*
X145772500Y-72662258D01*
%TO.C,R1*%
X137177500Y-119337258D02*
X137177500Y-118862742D01*
X138222500Y-119337258D02*
X138222500Y-118862742D01*
%TO.C,C9*%
X144115580Y-69490000D02*
X143834420Y-69490000D01*
X144115580Y-70510000D02*
X143834420Y-70510000D01*
%TO.C,R6*%
X146227500Y-88187742D02*
X146227500Y-88662258D01*
X147272500Y-88187742D02*
X147272500Y-88662258D01*
%TO.C,C8*%
X137925000Y-124211252D02*
X137925000Y-123688748D01*
X139395000Y-124211252D02*
X139395000Y-123688748D01*
%TO.C,F2*%
X135457936Y-134290000D02*
X136662064Y-134290000D01*
X135457936Y-136110000D02*
X136662064Y-136110000D01*
%TO.C,C5*%
X151265000Y-114488748D02*
X151265000Y-115011252D01*
X152735000Y-114488748D02*
X152735000Y-115011252D01*
%TO.C,U3*%
X134802500Y-128952500D02*
X134852500Y-128952500D01*
X134802500Y-130772500D02*
X134802500Y-128952500D01*
X134852500Y-130772500D02*
X134802500Y-130772500D01*
X137872500Y-128952500D02*
X137922500Y-128952500D01*
X137922500Y-128952500D02*
X137922500Y-130772500D01*
X137922500Y-130772500D02*
X137872500Y-130772500D01*
X138202500Y-128652500D02*
X137872500Y-128412500D01*
X138202500Y-128172500D01*
X138202500Y-128652500D01*
G36*
X138202500Y-128652500D02*
G01*
X137872500Y-128412500D01*
X138202500Y-128172500D01*
X138202500Y-128652500D01*
G37*
%TO.C,C3*%
X140540580Y-119590000D02*
X140259420Y-119590000D01*
X140540580Y-120610000D02*
X140259420Y-120610000D01*
%TO.C,J2*%
D15*
X139260000Y-134660000D02*
X139260000Y-132790000D01*
X139260000Y-138370000D02*
X139260000Y-136890000D01*
X148200000Y-134660000D02*
X148200000Y-132790000D01*
X148200000Y-138370000D02*
X139260000Y-138370000D01*
X148200000Y-138370000D02*
X148200000Y-136890000D01*
D16*
X148230000Y-130520000D02*
G75*
G02*
X148170000Y-130520000I-30000J0D01*
G01*
X148170000Y-130520000D02*
G75*
G02*
X148230000Y-130520000I30000J0D01*
G01*
%TO.C,SW2*%
D15*
X141200000Y-93670000D02*
X141200000Y-91330000D01*
X141580000Y-90840000D02*
X142470000Y-89950000D01*
X141950000Y-91600000D02*
X142950000Y-90600000D01*
X141950000Y-93400000D02*
X141950000Y-91600000D01*
X142470000Y-95050000D02*
X141580000Y-94160000D01*
X142850000Y-94300000D02*
X141950000Y-93400000D01*
X142950000Y-90600000D02*
X144650000Y-90600000D01*
X144650000Y-90600000D02*
X145550000Y-91500000D01*
X144750000Y-94300000D02*
X142850000Y-94300000D01*
X145030000Y-89950000D02*
X142470000Y-89950000D01*
X145030000Y-95050000D02*
X142470000Y-95050000D01*
X145030000Y-95050000D02*
X145920000Y-94160000D01*
X145550000Y-91500000D02*
X145550000Y-93500000D01*
X145550000Y-93500000D02*
X144750000Y-94300000D01*
X145920000Y-90840000D02*
X145030000Y-89950000D01*
X146300000Y-93670000D02*
X146300000Y-91330000D01*
X145030000Y-92500000D02*
G75*
G02*
X142470000Y-92500000I-1280000J0D01*
G01*
X142470000Y-92500000D02*
G75*
G02*
X145030000Y-92500000I1280000J0D01*
G01*
D16*
X147030000Y-95050000D02*
G75*
G02*
X146970000Y-95050000I-30000J0D01*
G01*
X146970000Y-95050000D02*
G75*
G02*
X147030000Y-95050000I30000J0D01*
G01*
%TO.C,SW1*%
D15*
X140950000Y-75730000D02*
X140950000Y-78070000D01*
X141330000Y-78560000D02*
X142220000Y-79450000D01*
X141700000Y-75900000D02*
X142500000Y-75100000D01*
X141700000Y-77900000D02*
X141700000Y-75900000D01*
X142220000Y-74350000D02*
X141330000Y-75240000D01*
X142220000Y-74350000D02*
X144780000Y-74350000D01*
X142220000Y-79450000D02*
X144780000Y-79450000D01*
X142500000Y-75100000D02*
X144400000Y-75100000D01*
X142600000Y-78800000D02*
X141700000Y-77900000D01*
X144300000Y-78800000D02*
X142600000Y-78800000D01*
X144400000Y-75100000D02*
X145300000Y-76000000D01*
X144780000Y-74350000D02*
X145670000Y-75240000D01*
X145300000Y-76000000D02*
X145300000Y-77800000D01*
X145300000Y-77800000D02*
X144300000Y-78800000D01*
X145670000Y-78560000D02*
X144780000Y-79450000D01*
X146050000Y-75730000D02*
X146050000Y-78070000D01*
D16*
X140280000Y-74350000D02*
G75*
G02*
X140220000Y-74350000I-30000J0D01*
G01*
X140220000Y-74350000D02*
G75*
G02*
X140280000Y-74350000I30000J0D01*
G01*
D15*
X144780000Y-76900000D02*
G75*
G02*
X142220000Y-76900000I-1280000J0D01*
G01*
X142220000Y-76900000D02*
G75*
G02*
X144780000Y-76900000I1280000J0D01*
G01*
%TO.C,C11*%
D14*
X133340000Y-51227836D02*
X133340000Y-51012164D01*
X134060000Y-51227836D02*
X134060000Y-51012164D01*
%TO.C,C6*%
X140840580Y-113390000D02*
X140559420Y-113390000D01*
X140840580Y-114410000D02*
X140559420Y-114410000D01*
%TO.C,F1*%
X150557936Y-108190000D02*
X151762064Y-108190000D01*
X150557936Y-110010000D02*
X151762064Y-110010000D01*
%TO.C,D2*%
X139015000Y-108987500D02*
X139015000Y-111272500D01*
X139015000Y-111272500D02*
X140485000Y-111272500D01*
X140485000Y-111272500D02*
X140485000Y-108987500D01*
%TO.C,C4*%
X151265000Y-118888748D02*
X151265000Y-119411252D01*
X152735000Y-118888748D02*
X152735000Y-119411252D01*
%TO.C,U2*%
X142760000Y-121690000D02*
X146520000Y-121690000D01*
X142760000Y-128510000D02*
X146520000Y-128510000D01*
X146520000Y-121690000D02*
X146520000Y-122950000D01*
X146520000Y-128510000D02*
X146520000Y-127250000D01*
X141480000Y-121790000D02*
X141240000Y-121460000D01*
X141720000Y-121460000D01*
X141480000Y-121790000D01*
G36*
X141480000Y-121790000D02*
G01*
X141240000Y-121460000D01*
X141720000Y-121460000D01*
X141480000Y-121790000D01*
G37*
%TO.C,C7*%
X135325000Y-124211252D02*
X135325000Y-123688748D01*
X136795000Y-124211252D02*
X136795000Y-123688748D01*
%TO.C,R8*%
X139227500Y-106337742D02*
X139227500Y-106812258D01*
X140272500Y-106337742D02*
X140272500Y-106812258D01*
%TO.C,R7*%
X147227500Y-103162258D02*
X147227500Y-102687742D01*
X148272500Y-103162258D02*
X148272500Y-102687742D01*
%TO.C,U4*%
X135010000Y-41900000D02*
X135010000Y-48650000D01*
X135010000Y-41900000D02*
X153010000Y-41900000D01*
X135010000Y-66650000D02*
X135010000Y-67400000D01*
X135010000Y-67400000D02*
X136010000Y-67400000D01*
X153010000Y-41900000D02*
X153010000Y-48650000D01*
X153010000Y-47900000D02*
X135010000Y-47900000D01*
X153010000Y-66650000D02*
X153010000Y-67400000D01*
X153010000Y-67400000D02*
X152010000Y-67400000D01*
%TO.C,D1*%
X134850000Y-106740000D02*
X134850000Y-112250000D01*
X138150000Y-106740000D02*
X134850000Y-106740000D01*
X138150000Y-106740000D02*
X138150000Y-112250000D01*
%TO.C,C1*%
X134690000Y-119188748D02*
X134690000Y-120611252D01*
X136510000Y-119188748D02*
X136510000Y-120611252D01*
%TO.C,U1*%
X139852500Y-115290000D02*
X141672500Y-115290000D01*
X139852500Y-115340000D02*
X139852500Y-115290000D01*
X139852500Y-118410000D02*
X139852500Y-118360000D01*
X141672500Y-115290000D02*
X141672500Y-115340000D01*
X141672500Y-118360000D02*
X141672500Y-118410000D01*
X141672500Y-118410000D02*
X139852500Y-118410000D01*
X142452500Y-118690000D02*
X141972500Y-118690000D01*
X142212500Y-118360000D01*
X142452500Y-118690000D01*
G36*
X142452500Y-118690000D02*
G01*
X141972500Y-118690000D01*
X142212500Y-118360000D01*
X142452500Y-118690000D01*
G37*
%TO.C,L1*%
D12*
X143420000Y-113520000D02*
X149780000Y-113520000D01*
X143420000Y-113690000D02*
X143420000Y-113520000D01*
X143420000Y-119710000D02*
X143420000Y-119880000D01*
X143420000Y-119880000D02*
X149780000Y-119880000D01*
X149780000Y-113520000D02*
X149780000Y-113690000D01*
X149780000Y-119880000D02*
X149780000Y-119710000D01*
D16*
X143630000Y-119700000D02*
G75*
G02*
X143570000Y-119700000I-30000J0D01*
G01*
X143570000Y-119700000D02*
G75*
G02*
X143630000Y-119700000I30000J0D01*
G01*
%TO.C,R4*%
D14*
X151397742Y-127377500D02*
X151872258Y-127377500D01*
X151397742Y-128422500D02*
X151872258Y-128422500D01*
%TO.C,R3*%
X151397742Y-124177500D02*
X151872258Y-124177500D01*
X151397742Y-125222500D02*
X151872258Y-125222500D01*
%TO.C,C10*%
X139365000Y-72311252D02*
X139365000Y-71788748D01*
X140835000Y-72311252D02*
X140835000Y-71788748D01*
%TO.C,R2*%
X137077500Y-116012258D02*
X137077500Y-115537742D01*
X138122500Y-116012258D02*
X138122500Y-115537742D01*
%TD*%
M02*
