%TF.GenerationSoftware,KiCad,Pcbnew,10.0.1*%
%TF.CreationDate,2026-09-18T14:06:58+03:00*%
%TF.ProjectId,EuroPlatvorm,4575726f-506c-4617-9476-6f726d2e6b69,rev?*%
%TF.SameCoordinates,Original*%
%TF.FileFunction,Soldermask,Bot*%
%TF.FilePolarity,Negative*%
%FSLAX46Y46*%
G04 Gerber Fmt 4.6, Leading zero omitted, Abs format (unit mm)*
G04 Created by KiCad (PCBNEW 10.0.1) date 2026-09-18 14:06:58*
%MOMM*%
%LPD*%
G01*
G04 APERTURE LIST*
%ADD10R,1.700000X1.700000*%
%ADD11C,1.700000*%
%ADD12O,0.550000X0.500000*%
%ADD13O,1.200000X2.000000*%
%ADD14O,1.200000X1.800000*%
G04 APERTURE END LIST*
D10*
%TO.C,J1*%
X142460000Y-99590000D03*
D11*
X145000000Y-99590000D03*
X142460000Y-102130000D03*
X145000000Y-102130000D03*
X142460000Y-104670000D03*
X145000000Y-104670000D03*
X142460000Y-107210000D03*
X145000000Y-107210000D03*
X142460000Y-109750000D03*
X145000000Y-109750000D03*
%TD*%
D12*
%TO.C,J2*%
X140830000Y-132070000D03*
X146630000Y-132070000D03*
D13*
X148060000Y-131570000D03*
D14*
X148060000Y-135750000D03*
X139400000Y-135750000D03*
D13*
X139400000Y-131570000D03*
%TD*%
D10*
%TO.C,J4*%
X149900000Y-71500000D03*
D11*
X149900000Y-74040000D03*
X149900000Y-76580000D03*
X149900000Y-79120000D03*
X149900000Y-81660000D03*
X149900000Y-84200000D03*
X149900000Y-86740000D03*
X149900000Y-89280000D03*
X149900000Y-91820000D03*
X149900000Y-94360000D03*
X149900000Y-96900000D03*
X149900000Y-99440000D03*
X149900000Y-101980000D03*
X149900000Y-104520000D03*
%TD*%
D10*
%TO.C,J3*%
X137220000Y-71500000D03*
D11*
X137220000Y-74040000D03*
X137220000Y-76580000D03*
X137220000Y-79120000D03*
X137220000Y-81660000D03*
X137220000Y-84200000D03*
X137220000Y-86740000D03*
X137220000Y-89280000D03*
X137220000Y-91820000D03*
X137220000Y-94360000D03*
X137220000Y-96900000D03*
X137220000Y-99440000D03*
X137220000Y-101980000D03*
X137220000Y-104520000D03*
%TD*%
M02*
