M48
; DRILL file KiCad 10.0.1 date 2026-09-13T16:10:18
; FORMAT={-:-/ absolute / metric / decimal}
; #@! TF.CreationDate,2026-09-13T16:10:18+03:00
; #@! TF.GenerationSoftware,Kicad,Pcbnew,10.0.1
; #@! TF.FileFunction,MixedPlating,1,2
FMAT,2
METRIC
; #@! TA.AperFunction,Plated,PTH,ViaDrill
T1C0.300
; #@! TA.AperFunction,Plated,PTH,ComponentDrill
T2C0.600
; #@! TA.AperFunction,Plated,PTH,ComponentDrill
T3C0.800
; #@! TA.AperFunction,Plated,PTH,ComponentDrill
T4C1.000
%
G90
G05
T1
X51.883Y-107.273
X51.938Y-87.502
X51.938Y-91.174
X53.05Y-110.164
X54.157Y-91.257
X55.198Y-97.774
X55.5Y-120.867
X55.55Y-87.54
X56.902Y-108.686
X58.0Y-108.709
X58.298Y-99.95
X58.318Y-54.402
X58.539Y-105.4
X59.611Y-89.999
X59.859Y-64.138
X59.99Y-58.616
X61.712Y-86.513
X62.226Y-114.141
X63.171Y-111.2
X63.395Y-113.024
X63.489Y-104.183
X64.302Y-113.282
X65.082Y-70.331
X65.087Y-54.555
X65.087Y-62.405
X66.117Y-105.99
X67.085Y-111.346
X67.437Y-127.742
X68.106Y-126.885
X68.144Y-111.824
X68.74Y-127.526
X69.095Y-109.889
X69.109Y-106.831
X70.05Y-118.113
X70.053Y-56.851
X70.053Y-58.121
X70.053Y-59.626
X70.053Y-60.661
X70.053Y-61.907
X70.054Y-64.472
X70.061Y-71.813
X70.075Y-52.951
X70.088Y-55.252
X71.0Y-118.126
X71.111Y-123.726
X71.15Y-127.671
X72.25Y-127.704
X72.252Y-117.566
X72.905Y-116.079
X74.81Y-107.113
X75.994Y-78.703
X76.129Y-121.0
X76.134Y-122.2
X76.562Y-112.08
X76.963Y-106.685
X77.742Y-113.541
X78.161Y-107.011
X78.462Y-86.471
X78.5Y-124.219
X78.839Y-107.626
X79.19Y-67.851
X79.233Y-69.822
X79.423Y-116.224
X79.515Y-92.68
X79.963Y-104.058
X80.5Y-112.387
X80.5Y-120.109
X80.569Y-100.309
X81.398Y-81.11
X83.275Y-52.015
X84.5Y-124.189
X84.93Y-57.027
X84.931Y-65.439
X84.931Y-63.217
X84.937Y-67.021
X84.946Y-58.097
X84.947Y-53.041
X84.947Y-54.311
X84.947Y-55.581
X87.553Y-60.661
T2
X67.0Y-127.74
X72.8Y-127.74
T4
X52.93Y-53.11
X52.93Y-55.65
X52.93Y-58.19
X52.93Y-60.73
X52.93Y-63.27
X52.93Y-65.81
X52.93Y-68.35
X52.93Y-70.89
X53.5Y-78.46
X53.5Y-81.0
X53.5Y-83.54
X55.47Y-53.11
X55.47Y-55.65
X55.47Y-58.19
X55.47Y-60.73
X55.47Y-63.27
X55.47Y-65.81
X55.47Y-68.35
X55.47Y-70.89
X84.23Y-73.49
X84.23Y-76.03
X84.23Y-78.57
X84.23Y-81.11
X84.23Y-83.65
X84.23Y-86.19
X84.23Y-88.73
X84.23Y-91.27
X84.23Y-93.81
X84.23Y-96.35
X84.23Y-98.89
X84.23Y-101.43
X84.23Y-103.97
X84.23Y-106.51
X86.77Y-73.49
X86.77Y-76.03
X86.77Y-78.57
X86.77Y-81.11
X86.77Y-83.65
X86.77Y-86.19
X86.77Y-88.73
X86.77Y-91.27
X86.77Y-93.81
X86.77Y-96.35
X86.77Y-98.89
X86.77Y-101.43
X86.77Y-103.97
X86.77Y-106.51
T3
X65.57Y-124.26G85X65.57Y-123.86
G05
X65.57Y-128.59G85X65.57Y-127.89
G05
X74.23Y-124.26G85X74.23Y-123.86
G05
X74.23Y-128.59G85X74.23Y-127.89
G05
M30
