G04 #@! TF.GenerationSoftware,KiCad,Pcbnew,10.0.1*
G04 #@! TF.CreationDate,2026-09-13T16:10:18+03:00*
G04 #@! TF.ProjectId,Platvorm,506c6174-766f-4726-9d2e-6b696361645f,rev?*
G04 #@! TF.SameCoordinates,Original*
G04 #@! TF.FileFunction,AssemblyDrawing,Top*
%FSLAX46Y46*%
G04 Gerber Fmt 4.6, Leading zero omitted, Abs format (unit mm)*
G04 Created by KiCad (PCBNEW 10.0.1) date 2026-09-13 16:10:18*
%MOMM*%
%LPD*%
G01*
G04 APERTURE LIST*
%ADD10C,0.150000*%
%ADD11C,0.040000*%
%ADD12C,0.080000*%
%ADD13C,0.110000*%
%ADD14C,0.100000*%
G04 APERTURE END LIST*
D10*
X60814819Y-55119047D02*
X60814819Y-55690475D01*
X60814819Y-55404761D02*
X59814819Y-55404761D01*
X59814819Y-55404761D02*
X59957676Y-55499999D01*
X59957676Y-55499999D02*
X60052914Y-55595237D01*
X60052914Y-55595237D02*
X60100533Y-55690475D01*
X59814819Y-54499999D02*
X59814819Y-54404761D01*
X59814819Y-54404761D02*
X59862438Y-54309523D01*
X59862438Y-54309523D02*
X59910057Y-54261904D01*
X59910057Y-54261904D02*
X60005295Y-54214285D01*
X60005295Y-54214285D02*
X60195771Y-54166666D01*
X60195771Y-54166666D02*
X60433866Y-54166666D01*
X60433866Y-54166666D02*
X60624342Y-54214285D01*
X60624342Y-54214285D02*
X60719580Y-54261904D01*
X60719580Y-54261904D02*
X60767200Y-54309523D01*
X60767200Y-54309523D02*
X60814819Y-54404761D01*
X60814819Y-54404761D02*
X60814819Y-54499999D01*
X60814819Y-54499999D02*
X60767200Y-54595237D01*
X60767200Y-54595237D02*
X60719580Y-54642856D01*
X60719580Y-54642856D02*
X60624342Y-54690475D01*
X60624342Y-54690475D02*
X60433866Y-54738094D01*
X60433866Y-54738094D02*
X60195771Y-54738094D01*
X60195771Y-54738094D02*
X60005295Y-54690475D01*
X60005295Y-54690475D02*
X59910057Y-54642856D01*
X59910057Y-54642856D02*
X59862438Y-54595237D01*
X59862438Y-54595237D02*
X59814819Y-54499999D01*
X59814819Y-53547618D02*
X59814819Y-53452380D01*
X59814819Y-53452380D02*
X59862438Y-53357142D01*
X59862438Y-53357142D02*
X59910057Y-53309523D01*
X59910057Y-53309523D02*
X60005295Y-53261904D01*
X60005295Y-53261904D02*
X60195771Y-53214285D01*
X60195771Y-53214285D02*
X60433866Y-53214285D01*
X60433866Y-53214285D02*
X60624342Y-53261904D01*
X60624342Y-53261904D02*
X60719580Y-53309523D01*
X60719580Y-53309523D02*
X60767200Y-53357142D01*
X60767200Y-53357142D02*
X60814819Y-53452380D01*
X60814819Y-53452380D02*
X60814819Y-53547618D01*
X60814819Y-53547618D02*
X60767200Y-53642856D01*
X60767200Y-53642856D02*
X60719580Y-53690475D01*
X60719580Y-53690475D02*
X60624342Y-53738094D01*
X60624342Y-53738094D02*
X60433866Y-53785713D01*
X60433866Y-53785713D02*
X60195771Y-53785713D01*
X60195771Y-53785713D02*
X60005295Y-53738094D01*
X60005295Y-53738094D02*
X59910057Y-53690475D01*
X59910057Y-53690475D02*
X59862438Y-53642856D01*
X59862438Y-53642856D02*
X59814819Y-53547618D01*
X60148152Y-52785713D02*
X60814819Y-52785713D01*
X60243390Y-52785713D02*
X60195771Y-52738094D01*
X60195771Y-52738094D02*
X60148152Y-52642856D01*
X60148152Y-52642856D02*
X60148152Y-52499999D01*
X60148152Y-52499999D02*
X60195771Y-52404761D01*
X60195771Y-52404761D02*
X60291009Y-52357142D01*
X60291009Y-52357142D02*
X60814819Y-52357142D01*
D11*
X59289765Y-54041666D02*
X59301670Y-54053570D01*
X59301670Y-54053570D02*
X59313574Y-54089285D01*
X59313574Y-54089285D02*
X59313574Y-54113094D01*
X59313574Y-54113094D02*
X59301670Y-54148808D01*
X59301670Y-54148808D02*
X59277860Y-54172618D01*
X59277860Y-54172618D02*
X59254050Y-54184523D01*
X59254050Y-54184523D02*
X59206431Y-54196427D01*
X59206431Y-54196427D02*
X59170717Y-54196427D01*
X59170717Y-54196427D02*
X59123098Y-54184523D01*
X59123098Y-54184523D02*
X59099289Y-54172618D01*
X59099289Y-54172618D02*
X59075479Y-54148808D01*
X59075479Y-54148808D02*
X59063574Y-54113094D01*
X59063574Y-54113094D02*
X59063574Y-54089285D01*
X59063574Y-54089285D02*
X59075479Y-54053570D01*
X59075479Y-54053570D02*
X59087384Y-54041666D01*
X59087384Y-53946427D02*
X59075479Y-53934523D01*
X59075479Y-53934523D02*
X59063574Y-53910713D01*
X59063574Y-53910713D02*
X59063574Y-53851189D01*
X59063574Y-53851189D02*
X59075479Y-53827380D01*
X59075479Y-53827380D02*
X59087384Y-53815475D01*
X59087384Y-53815475D02*
X59111193Y-53803570D01*
X59111193Y-53803570D02*
X59135003Y-53803570D01*
X59135003Y-53803570D02*
X59170717Y-53815475D01*
X59170717Y-53815475D02*
X59313574Y-53958332D01*
X59313574Y-53958332D02*
X59313574Y-53803570D01*
D10*
X62285714Y-116730057D02*
X62333333Y-116682438D01*
X62333333Y-116682438D02*
X62428571Y-116634819D01*
X62428571Y-116634819D02*
X62666666Y-116634819D01*
X62666666Y-116634819D02*
X62761904Y-116682438D01*
X62761904Y-116682438D02*
X62809523Y-116730057D01*
X62809523Y-116730057D02*
X62857142Y-116825295D01*
X62857142Y-116825295D02*
X62857142Y-116920533D01*
X62857142Y-116920533D02*
X62809523Y-117063390D01*
X62809523Y-117063390D02*
X62238095Y-117634819D01*
X62238095Y-117634819D02*
X62857142Y-117634819D01*
X63238095Y-116730057D02*
X63285714Y-116682438D01*
X63285714Y-116682438D02*
X63380952Y-116634819D01*
X63380952Y-116634819D02*
X63619047Y-116634819D01*
X63619047Y-116634819D02*
X63714285Y-116682438D01*
X63714285Y-116682438D02*
X63761904Y-116730057D01*
X63761904Y-116730057D02*
X63809523Y-116825295D01*
X63809523Y-116825295D02*
X63809523Y-116920533D01*
X63809523Y-116920533D02*
X63761904Y-117063390D01*
X63761904Y-117063390D02*
X63190476Y-117634819D01*
X63190476Y-117634819D02*
X63809523Y-117634819D01*
X64666666Y-116968152D02*
X64666666Y-117634819D01*
X64238095Y-116968152D02*
X64238095Y-117491961D01*
X64238095Y-117491961D02*
X64285714Y-117587200D01*
X64285714Y-117587200D02*
X64380952Y-117634819D01*
X64380952Y-117634819D02*
X64523809Y-117634819D01*
X64523809Y-117634819D02*
X64619047Y-117587200D01*
X64619047Y-117587200D02*
X64666666Y-117539580D01*
D12*
X63416666Y-115679530D02*
X63392857Y-115703340D01*
X63392857Y-115703340D02*
X63321428Y-115727149D01*
X63321428Y-115727149D02*
X63273809Y-115727149D01*
X63273809Y-115727149D02*
X63202381Y-115703340D01*
X63202381Y-115703340D02*
X63154762Y-115655720D01*
X63154762Y-115655720D02*
X63130952Y-115608101D01*
X63130952Y-115608101D02*
X63107143Y-115512863D01*
X63107143Y-115512863D02*
X63107143Y-115441435D01*
X63107143Y-115441435D02*
X63130952Y-115346197D01*
X63130952Y-115346197D02*
X63154762Y-115298578D01*
X63154762Y-115298578D02*
X63202381Y-115250959D01*
X63202381Y-115250959D02*
X63273809Y-115227149D01*
X63273809Y-115227149D02*
X63321428Y-115227149D01*
X63321428Y-115227149D02*
X63392857Y-115250959D01*
X63392857Y-115250959D02*
X63416666Y-115274768D01*
X63583333Y-115227149D02*
X63892857Y-115227149D01*
X63892857Y-115227149D02*
X63726190Y-115417625D01*
X63726190Y-115417625D02*
X63797619Y-115417625D01*
X63797619Y-115417625D02*
X63845238Y-115441435D01*
X63845238Y-115441435D02*
X63869047Y-115465244D01*
X63869047Y-115465244D02*
X63892857Y-115512863D01*
X63892857Y-115512863D02*
X63892857Y-115631911D01*
X63892857Y-115631911D02*
X63869047Y-115679530D01*
X63869047Y-115679530D02*
X63845238Y-115703340D01*
X63845238Y-115703340D02*
X63797619Y-115727149D01*
X63797619Y-115727149D02*
X63654762Y-115727149D01*
X63654762Y-115727149D02*
X63607143Y-115703340D01*
X63607143Y-115703340D02*
X63583333Y-115679530D01*
D10*
X51835714Y-102957200D02*
X51978571Y-103004819D01*
X51978571Y-103004819D02*
X52216666Y-103004819D01*
X52216666Y-103004819D02*
X52311904Y-102957200D01*
X52311904Y-102957200D02*
X52359523Y-102909580D01*
X52359523Y-102909580D02*
X52407142Y-102814342D01*
X52407142Y-102814342D02*
X52407142Y-102719104D01*
X52407142Y-102719104D02*
X52359523Y-102623866D01*
X52359523Y-102623866D02*
X52311904Y-102576247D01*
X52311904Y-102576247D02*
X52216666Y-102528628D01*
X52216666Y-102528628D02*
X52026190Y-102481009D01*
X52026190Y-102481009D02*
X51930952Y-102433390D01*
X51930952Y-102433390D02*
X51883333Y-102385771D01*
X51883333Y-102385771D02*
X51835714Y-102290533D01*
X51835714Y-102290533D02*
X51835714Y-102195295D01*
X51835714Y-102195295D02*
X51883333Y-102100057D01*
X51883333Y-102100057D02*
X51930952Y-102052438D01*
X51930952Y-102052438D02*
X52026190Y-102004819D01*
X52026190Y-102004819D02*
X52264285Y-102004819D01*
X52264285Y-102004819D02*
X52407142Y-102052438D01*
X52788095Y-102957200D02*
X52930952Y-103004819D01*
X52930952Y-103004819D02*
X53169047Y-103004819D01*
X53169047Y-103004819D02*
X53264285Y-102957200D01*
X53264285Y-102957200D02*
X53311904Y-102909580D01*
X53311904Y-102909580D02*
X53359523Y-102814342D01*
X53359523Y-102814342D02*
X53359523Y-102719104D01*
X53359523Y-102719104D02*
X53311904Y-102623866D01*
X53311904Y-102623866D02*
X53264285Y-102576247D01*
X53264285Y-102576247D02*
X53169047Y-102528628D01*
X53169047Y-102528628D02*
X52978571Y-102481009D01*
X52978571Y-102481009D02*
X52883333Y-102433390D01*
X52883333Y-102433390D02*
X52835714Y-102385771D01*
X52835714Y-102385771D02*
X52788095Y-102290533D01*
X52788095Y-102290533D02*
X52788095Y-102195295D01*
X52788095Y-102195295D02*
X52835714Y-102100057D01*
X52835714Y-102100057D02*
X52883333Y-102052438D01*
X52883333Y-102052438D02*
X52978571Y-102004819D01*
X52978571Y-102004819D02*
X53216666Y-102004819D01*
X53216666Y-102004819D02*
X53359523Y-102052438D01*
X53692857Y-102004819D02*
X54311904Y-102004819D01*
X54311904Y-102004819D02*
X53978571Y-102385771D01*
X53978571Y-102385771D02*
X54121428Y-102385771D01*
X54121428Y-102385771D02*
X54216666Y-102433390D01*
X54216666Y-102433390D02*
X54264285Y-102481009D01*
X54264285Y-102481009D02*
X54311904Y-102576247D01*
X54311904Y-102576247D02*
X54311904Y-102814342D01*
X54311904Y-102814342D02*
X54264285Y-102909580D01*
X54264285Y-102909580D02*
X54216666Y-102957200D01*
X54216666Y-102957200D02*
X54121428Y-103004819D01*
X54121428Y-103004819D02*
X53835714Y-103004819D01*
X53835714Y-103004819D02*
X53740476Y-102957200D01*
X53740476Y-102957200D02*
X53692857Y-102909580D01*
X55169047Y-102338152D02*
X55169047Y-103004819D01*
X54930952Y-101957200D02*
X54692857Y-102671485D01*
X54692857Y-102671485D02*
X55311904Y-102671485D01*
X52811905Y-97904819D02*
X52811905Y-96904819D01*
X52811905Y-96904819D02*
X53050000Y-96904819D01*
X53050000Y-96904819D02*
X53192857Y-96952438D01*
X53192857Y-96952438D02*
X53288095Y-97047676D01*
X53288095Y-97047676D02*
X53335714Y-97142914D01*
X53335714Y-97142914D02*
X53383333Y-97333390D01*
X53383333Y-97333390D02*
X53383333Y-97476247D01*
X53383333Y-97476247D02*
X53335714Y-97666723D01*
X53335714Y-97666723D02*
X53288095Y-97761961D01*
X53288095Y-97761961D02*
X53192857Y-97857200D01*
X53192857Y-97857200D02*
X53050000Y-97904819D01*
X53050000Y-97904819D02*
X52811905Y-97904819D01*
X54335714Y-97904819D02*
X53764286Y-97904819D01*
X54050000Y-97904819D02*
X54050000Y-96904819D01*
X54050000Y-96904819D02*
X53954762Y-97047676D01*
X53954762Y-97047676D02*
X53859524Y-97142914D01*
X53859524Y-97142914D02*
X53764286Y-97190533D01*
X68624819Y-107095238D02*
X68624819Y-107666666D01*
X68624819Y-107380952D02*
X67624819Y-107380952D01*
X67624819Y-107380952D02*
X67767676Y-107476190D01*
X67767676Y-107476190D02*
X67862914Y-107571428D01*
X67862914Y-107571428D02*
X67910533Y-107666666D01*
X67624819Y-106476190D02*
X67624819Y-106380952D01*
X67624819Y-106380952D02*
X67672438Y-106285714D01*
X67672438Y-106285714D02*
X67720057Y-106238095D01*
X67720057Y-106238095D02*
X67815295Y-106190476D01*
X67815295Y-106190476D02*
X68005771Y-106142857D01*
X68005771Y-106142857D02*
X68243866Y-106142857D01*
X68243866Y-106142857D02*
X68434342Y-106190476D01*
X68434342Y-106190476D02*
X68529580Y-106238095D01*
X68529580Y-106238095D02*
X68577200Y-106285714D01*
X68577200Y-106285714D02*
X68624819Y-106380952D01*
X68624819Y-106380952D02*
X68624819Y-106476190D01*
X68624819Y-106476190D02*
X68577200Y-106571428D01*
X68577200Y-106571428D02*
X68529580Y-106619047D01*
X68529580Y-106619047D02*
X68434342Y-106666666D01*
X68434342Y-106666666D02*
X68243866Y-106714285D01*
X68243866Y-106714285D02*
X68005771Y-106714285D01*
X68005771Y-106714285D02*
X67815295Y-106666666D01*
X67815295Y-106666666D02*
X67720057Y-106619047D01*
X67720057Y-106619047D02*
X67672438Y-106571428D01*
X67672438Y-106571428D02*
X67624819Y-106476190D01*
X68624819Y-105714285D02*
X67624819Y-105714285D01*
X68243866Y-105619047D02*
X68624819Y-105333333D01*
X67958152Y-105333333D02*
X68339104Y-105714285D01*
D11*
X67118200Y-106543332D02*
X66994391Y-106629999D01*
X67118200Y-106691904D02*
X66858200Y-106691904D01*
X66858200Y-106691904D02*
X66858200Y-106592856D01*
X66858200Y-106592856D02*
X66870581Y-106568094D01*
X66870581Y-106568094D02*
X66882962Y-106555713D01*
X66882962Y-106555713D02*
X66907724Y-106543332D01*
X66907724Y-106543332D02*
X66944867Y-106543332D01*
X66944867Y-106543332D02*
X66969629Y-106555713D01*
X66969629Y-106555713D02*
X66982010Y-106568094D01*
X66982010Y-106568094D02*
X66994391Y-106592856D01*
X66994391Y-106592856D02*
X66994391Y-106691904D01*
X66858200Y-106320475D02*
X66858200Y-106369999D01*
X66858200Y-106369999D02*
X66870581Y-106394761D01*
X66870581Y-106394761D02*
X66882962Y-106407142D01*
X66882962Y-106407142D02*
X66920105Y-106431904D01*
X66920105Y-106431904D02*
X66969629Y-106444285D01*
X66969629Y-106444285D02*
X67068677Y-106444285D01*
X67068677Y-106444285D02*
X67093439Y-106431904D01*
X67093439Y-106431904D02*
X67105820Y-106419523D01*
X67105820Y-106419523D02*
X67118200Y-106394761D01*
X67118200Y-106394761D02*
X67118200Y-106345237D01*
X67118200Y-106345237D02*
X67105820Y-106320475D01*
X67105820Y-106320475D02*
X67093439Y-106308094D01*
X67093439Y-106308094D02*
X67068677Y-106295713D01*
X67068677Y-106295713D02*
X67006772Y-106295713D01*
X67006772Y-106295713D02*
X66982010Y-106308094D01*
X66982010Y-106308094D02*
X66969629Y-106320475D01*
X66969629Y-106320475D02*
X66957248Y-106345237D01*
X66957248Y-106345237D02*
X66957248Y-106394761D01*
X66957248Y-106394761D02*
X66969629Y-106419523D01*
X66969629Y-106419523D02*
X66982010Y-106431904D01*
X66982010Y-106431904D02*
X67006772Y-106444285D01*
D10*
X47509523Y-51184819D02*
X47509523Y-50184819D01*
X47509523Y-50184819D02*
X47890475Y-50184819D01*
X47890475Y-50184819D02*
X47985713Y-50232438D01*
X47985713Y-50232438D02*
X48033332Y-50280057D01*
X48033332Y-50280057D02*
X48080951Y-50375295D01*
X48080951Y-50375295D02*
X48080951Y-50518152D01*
X48080951Y-50518152D02*
X48033332Y-50613390D01*
X48033332Y-50613390D02*
X47985713Y-50661009D01*
X47985713Y-50661009D02*
X47890475Y-50708628D01*
X47890475Y-50708628D02*
X47509523Y-50708628D01*
X48652380Y-51184819D02*
X48557142Y-51137200D01*
X48557142Y-51137200D02*
X48509523Y-51089580D01*
X48509523Y-51089580D02*
X48461904Y-50994342D01*
X48461904Y-50994342D02*
X48461904Y-50708628D01*
X48461904Y-50708628D02*
X48509523Y-50613390D01*
X48509523Y-50613390D02*
X48557142Y-50565771D01*
X48557142Y-50565771D02*
X48652380Y-50518152D01*
X48652380Y-50518152D02*
X48795237Y-50518152D01*
X48795237Y-50518152D02*
X48890475Y-50565771D01*
X48890475Y-50565771D02*
X48938094Y-50613390D01*
X48938094Y-50613390D02*
X48985713Y-50708628D01*
X48985713Y-50708628D02*
X48985713Y-50994342D01*
X48985713Y-50994342D02*
X48938094Y-51089580D01*
X48938094Y-51089580D02*
X48890475Y-51137200D01*
X48890475Y-51137200D02*
X48795237Y-51184819D01*
X48795237Y-51184819D02*
X48652380Y-51184819D01*
X49319047Y-50518152D02*
X49509523Y-51184819D01*
X49509523Y-51184819D02*
X49699999Y-50708628D01*
X49699999Y-50708628D02*
X49890475Y-51184819D01*
X49890475Y-51184819D02*
X50080951Y-50518152D01*
X50842856Y-51137200D02*
X50747618Y-51184819D01*
X50747618Y-51184819D02*
X50557142Y-51184819D01*
X50557142Y-51184819D02*
X50461904Y-51137200D01*
X50461904Y-51137200D02*
X50414285Y-51041961D01*
X50414285Y-51041961D02*
X50414285Y-50661009D01*
X50414285Y-50661009D02*
X50461904Y-50565771D01*
X50461904Y-50565771D02*
X50557142Y-50518152D01*
X50557142Y-50518152D02*
X50747618Y-50518152D01*
X50747618Y-50518152D02*
X50842856Y-50565771D01*
X50842856Y-50565771D02*
X50890475Y-50661009D01*
X50890475Y-50661009D02*
X50890475Y-50756247D01*
X50890475Y-50756247D02*
X50414285Y-50851485D01*
X51319047Y-51184819D02*
X51319047Y-50518152D01*
X51319047Y-50708628D02*
X51366666Y-50613390D01*
X51366666Y-50613390D02*
X51414285Y-50565771D01*
X51414285Y-50565771D02*
X51509523Y-50518152D01*
X51509523Y-50518152D02*
X51604761Y-50518152D01*
X52700000Y-51184819D02*
X52700000Y-50184819D01*
X52700000Y-50661009D02*
X53271428Y-50661009D01*
X53271428Y-51184819D02*
X53271428Y-50184819D01*
X54128571Y-51137200D02*
X54033333Y-51184819D01*
X54033333Y-51184819D02*
X53842857Y-51184819D01*
X53842857Y-51184819D02*
X53747619Y-51137200D01*
X53747619Y-51137200D02*
X53700000Y-51041961D01*
X53700000Y-51041961D02*
X53700000Y-50661009D01*
X53700000Y-50661009D02*
X53747619Y-50565771D01*
X53747619Y-50565771D02*
X53842857Y-50518152D01*
X53842857Y-50518152D02*
X54033333Y-50518152D01*
X54033333Y-50518152D02*
X54128571Y-50565771D01*
X54128571Y-50565771D02*
X54176190Y-50661009D01*
X54176190Y-50661009D02*
X54176190Y-50756247D01*
X54176190Y-50756247D02*
X53700000Y-50851485D01*
X55033333Y-51184819D02*
X55033333Y-50661009D01*
X55033333Y-50661009D02*
X54985714Y-50565771D01*
X54985714Y-50565771D02*
X54890476Y-50518152D01*
X54890476Y-50518152D02*
X54700000Y-50518152D01*
X54700000Y-50518152D02*
X54604762Y-50565771D01*
X55033333Y-51137200D02*
X54938095Y-51184819D01*
X54938095Y-51184819D02*
X54700000Y-51184819D01*
X54700000Y-51184819D02*
X54604762Y-51137200D01*
X54604762Y-51137200D02*
X54557143Y-51041961D01*
X54557143Y-51041961D02*
X54557143Y-50946723D01*
X54557143Y-50946723D02*
X54604762Y-50851485D01*
X54604762Y-50851485D02*
X54700000Y-50803866D01*
X54700000Y-50803866D02*
X54938095Y-50803866D01*
X54938095Y-50803866D02*
X55033333Y-50756247D01*
X55938095Y-51184819D02*
X55938095Y-50184819D01*
X55938095Y-51137200D02*
X55842857Y-51184819D01*
X55842857Y-51184819D02*
X55652381Y-51184819D01*
X55652381Y-51184819D02*
X55557143Y-51137200D01*
X55557143Y-51137200D02*
X55509524Y-51089580D01*
X55509524Y-51089580D02*
X55461905Y-50994342D01*
X55461905Y-50994342D02*
X55461905Y-50708628D01*
X55461905Y-50708628D02*
X55509524Y-50613390D01*
X55509524Y-50613390D02*
X55557143Y-50565771D01*
X55557143Y-50565771D02*
X55652381Y-50518152D01*
X55652381Y-50518152D02*
X55842857Y-50518152D01*
X55842857Y-50518152D02*
X55938095Y-50565771D01*
X56795238Y-51137200D02*
X56700000Y-51184819D01*
X56700000Y-51184819D02*
X56509524Y-51184819D01*
X56509524Y-51184819D02*
X56414286Y-51137200D01*
X56414286Y-51137200D02*
X56366667Y-51041961D01*
X56366667Y-51041961D02*
X56366667Y-50661009D01*
X56366667Y-50661009D02*
X56414286Y-50565771D01*
X56414286Y-50565771D02*
X56509524Y-50518152D01*
X56509524Y-50518152D02*
X56700000Y-50518152D01*
X56700000Y-50518152D02*
X56795238Y-50565771D01*
X56795238Y-50565771D02*
X56842857Y-50661009D01*
X56842857Y-50661009D02*
X56842857Y-50756247D01*
X56842857Y-50756247D02*
X56366667Y-50851485D01*
X57271429Y-51184819D02*
X57271429Y-50518152D01*
X57271429Y-50708628D02*
X57319048Y-50613390D01*
X57319048Y-50613390D02*
X57366667Y-50565771D01*
X57366667Y-50565771D02*
X57461905Y-50518152D01*
X57461905Y-50518152D02*
X57557143Y-50518152D01*
X58604763Y-50280057D02*
X58652382Y-50232438D01*
X58652382Y-50232438D02*
X58747620Y-50184819D01*
X58747620Y-50184819D02*
X58985715Y-50184819D01*
X58985715Y-50184819D02*
X59080953Y-50232438D01*
X59080953Y-50232438D02*
X59128572Y-50280057D01*
X59128572Y-50280057D02*
X59176191Y-50375295D01*
X59176191Y-50375295D02*
X59176191Y-50470533D01*
X59176191Y-50470533D02*
X59128572Y-50613390D01*
X59128572Y-50613390D02*
X58557144Y-51184819D01*
X58557144Y-51184819D02*
X59176191Y-51184819D01*
X59509525Y-51184819D02*
X60033334Y-50518152D01*
X59509525Y-50518152D02*
X60033334Y-51184819D01*
X60557144Y-50613390D02*
X60461906Y-50565771D01*
X60461906Y-50565771D02*
X60414287Y-50518152D01*
X60414287Y-50518152D02*
X60366668Y-50422914D01*
X60366668Y-50422914D02*
X60366668Y-50375295D01*
X60366668Y-50375295D02*
X60414287Y-50280057D01*
X60414287Y-50280057D02*
X60461906Y-50232438D01*
X60461906Y-50232438D02*
X60557144Y-50184819D01*
X60557144Y-50184819D02*
X60747620Y-50184819D01*
X60747620Y-50184819D02*
X60842858Y-50232438D01*
X60842858Y-50232438D02*
X60890477Y-50280057D01*
X60890477Y-50280057D02*
X60938096Y-50375295D01*
X60938096Y-50375295D02*
X60938096Y-50422914D01*
X60938096Y-50422914D02*
X60890477Y-50518152D01*
X60890477Y-50518152D02*
X60842858Y-50565771D01*
X60842858Y-50565771D02*
X60747620Y-50613390D01*
X60747620Y-50613390D02*
X60557144Y-50613390D01*
X60557144Y-50613390D02*
X60461906Y-50661009D01*
X60461906Y-50661009D02*
X60414287Y-50708628D01*
X60414287Y-50708628D02*
X60366668Y-50803866D01*
X60366668Y-50803866D02*
X60366668Y-50994342D01*
X60366668Y-50994342D02*
X60414287Y-51089580D01*
X60414287Y-51089580D02*
X60461906Y-51137200D01*
X60461906Y-51137200D02*
X60557144Y-51184819D01*
X60557144Y-51184819D02*
X60747620Y-51184819D01*
X60747620Y-51184819D02*
X60842858Y-51137200D01*
X60842858Y-51137200D02*
X60890477Y-51089580D01*
X60890477Y-51089580D02*
X60938096Y-50994342D01*
X60938096Y-50994342D02*
X60938096Y-50803866D01*
X60938096Y-50803866D02*
X60890477Y-50708628D01*
X60890477Y-50708628D02*
X60842858Y-50661009D01*
X60842858Y-50661009D02*
X60747620Y-50613390D01*
X53654819Y-62333333D02*
X54369104Y-62333333D01*
X54369104Y-62333333D02*
X54511961Y-62380952D01*
X54511961Y-62380952D02*
X54607200Y-62476190D01*
X54607200Y-62476190D02*
X54654819Y-62619047D01*
X54654819Y-62619047D02*
X54654819Y-62714285D01*
X54654819Y-61333333D02*
X54654819Y-61904761D01*
X54654819Y-61619047D02*
X53654819Y-61619047D01*
X53654819Y-61619047D02*
X53797676Y-61714285D01*
X53797676Y-61714285D02*
X53892914Y-61809523D01*
X53892914Y-61809523D02*
X53940533Y-61904761D01*
X49071428Y-86374819D02*
X49071428Y-85374819D01*
X49071428Y-85374819D02*
X49452380Y-85374819D01*
X49452380Y-85374819D02*
X49547618Y-85422438D01*
X49547618Y-85422438D02*
X49595237Y-85470057D01*
X49595237Y-85470057D02*
X49642856Y-85565295D01*
X49642856Y-85565295D02*
X49642856Y-85708152D01*
X49642856Y-85708152D02*
X49595237Y-85803390D01*
X49595237Y-85803390D02*
X49547618Y-85851009D01*
X49547618Y-85851009D02*
X49452380Y-85898628D01*
X49452380Y-85898628D02*
X49071428Y-85898628D01*
X50023809Y-86327200D02*
X50166666Y-86374819D01*
X50166666Y-86374819D02*
X50404761Y-86374819D01*
X50404761Y-86374819D02*
X50499999Y-86327200D01*
X50499999Y-86327200D02*
X50547618Y-86279580D01*
X50547618Y-86279580D02*
X50595237Y-86184342D01*
X50595237Y-86184342D02*
X50595237Y-86089104D01*
X50595237Y-86089104D02*
X50547618Y-85993866D01*
X50547618Y-85993866D02*
X50499999Y-85946247D01*
X50499999Y-85946247D02*
X50404761Y-85898628D01*
X50404761Y-85898628D02*
X50214285Y-85851009D01*
X50214285Y-85851009D02*
X50119047Y-85803390D01*
X50119047Y-85803390D02*
X50071428Y-85755771D01*
X50071428Y-85755771D02*
X50023809Y-85660533D01*
X50023809Y-85660533D02*
X50023809Y-85565295D01*
X50023809Y-85565295D02*
X50071428Y-85470057D01*
X50071428Y-85470057D02*
X50119047Y-85422438D01*
X50119047Y-85422438D02*
X50214285Y-85374819D01*
X50214285Y-85374819D02*
X50452380Y-85374819D01*
X50452380Y-85374819D02*
X50595237Y-85422438D01*
X51595237Y-86374819D02*
X51261904Y-85898628D01*
X51023809Y-86374819D02*
X51023809Y-85374819D01*
X51023809Y-85374819D02*
X51404761Y-85374819D01*
X51404761Y-85374819D02*
X51499999Y-85422438D01*
X51499999Y-85422438D02*
X51547618Y-85470057D01*
X51547618Y-85470057D02*
X51595237Y-85565295D01*
X51595237Y-85565295D02*
X51595237Y-85708152D01*
X51595237Y-85708152D02*
X51547618Y-85803390D01*
X51547618Y-85803390D02*
X51499999Y-85851009D01*
X51499999Y-85851009D02*
X51404761Y-85898628D01*
X51404761Y-85898628D02*
X51023809Y-85898628D01*
X52595237Y-86279580D02*
X52547618Y-86327200D01*
X52547618Y-86327200D02*
X52404761Y-86374819D01*
X52404761Y-86374819D02*
X52309523Y-86374819D01*
X52309523Y-86374819D02*
X52166666Y-86327200D01*
X52166666Y-86327200D02*
X52071428Y-86231961D01*
X52071428Y-86231961D02*
X52023809Y-86136723D01*
X52023809Y-86136723D02*
X51976190Y-85946247D01*
X51976190Y-85946247D02*
X51976190Y-85803390D01*
X51976190Y-85803390D02*
X52023809Y-85612914D01*
X52023809Y-85612914D02*
X52071428Y-85517676D01*
X52071428Y-85517676D02*
X52166666Y-85422438D01*
X52166666Y-85422438D02*
X52309523Y-85374819D01*
X52309523Y-85374819D02*
X52404761Y-85374819D01*
X52404761Y-85374819D02*
X52547618Y-85422438D01*
X52547618Y-85422438D02*
X52595237Y-85470057D01*
X53738095Y-86327200D02*
X53880952Y-86374819D01*
X53880952Y-86374819D02*
X54119047Y-86374819D01*
X54119047Y-86374819D02*
X54214285Y-86327200D01*
X54214285Y-86327200D02*
X54261904Y-86279580D01*
X54261904Y-86279580D02*
X54309523Y-86184342D01*
X54309523Y-86184342D02*
X54309523Y-86089104D01*
X54309523Y-86089104D02*
X54261904Y-85993866D01*
X54261904Y-85993866D02*
X54214285Y-85946247D01*
X54214285Y-85946247D02*
X54119047Y-85898628D01*
X54119047Y-85898628D02*
X53928571Y-85851009D01*
X53928571Y-85851009D02*
X53833333Y-85803390D01*
X53833333Y-85803390D02*
X53785714Y-85755771D01*
X53785714Y-85755771D02*
X53738095Y-85660533D01*
X53738095Y-85660533D02*
X53738095Y-85565295D01*
X53738095Y-85565295D02*
X53785714Y-85470057D01*
X53785714Y-85470057D02*
X53833333Y-85422438D01*
X53833333Y-85422438D02*
X53928571Y-85374819D01*
X53928571Y-85374819D02*
X54166666Y-85374819D01*
X54166666Y-85374819D02*
X54309523Y-85422438D01*
X55119047Y-86327200D02*
X55023809Y-86374819D01*
X55023809Y-86374819D02*
X54833333Y-86374819D01*
X54833333Y-86374819D02*
X54738095Y-86327200D01*
X54738095Y-86327200D02*
X54690476Y-86231961D01*
X54690476Y-86231961D02*
X54690476Y-85851009D01*
X54690476Y-85851009D02*
X54738095Y-85755771D01*
X54738095Y-85755771D02*
X54833333Y-85708152D01*
X54833333Y-85708152D02*
X55023809Y-85708152D01*
X55023809Y-85708152D02*
X55119047Y-85755771D01*
X55119047Y-85755771D02*
X55166666Y-85851009D01*
X55166666Y-85851009D02*
X55166666Y-85946247D01*
X55166666Y-85946247D02*
X54690476Y-86041485D01*
X55738095Y-86374819D02*
X55642857Y-86327200D01*
X55642857Y-86327200D02*
X55595238Y-86231961D01*
X55595238Y-86231961D02*
X55595238Y-85374819D01*
X56500000Y-86327200D02*
X56404762Y-86374819D01*
X56404762Y-86374819D02*
X56214286Y-86374819D01*
X56214286Y-86374819D02*
X56119048Y-86327200D01*
X56119048Y-86327200D02*
X56071429Y-86231961D01*
X56071429Y-86231961D02*
X56071429Y-85851009D01*
X56071429Y-85851009D02*
X56119048Y-85755771D01*
X56119048Y-85755771D02*
X56214286Y-85708152D01*
X56214286Y-85708152D02*
X56404762Y-85708152D01*
X56404762Y-85708152D02*
X56500000Y-85755771D01*
X56500000Y-85755771D02*
X56547619Y-85851009D01*
X56547619Y-85851009D02*
X56547619Y-85946247D01*
X56547619Y-85946247D02*
X56071429Y-86041485D01*
X57404762Y-86327200D02*
X57309524Y-86374819D01*
X57309524Y-86374819D02*
X57119048Y-86374819D01*
X57119048Y-86374819D02*
X57023810Y-86327200D01*
X57023810Y-86327200D02*
X56976191Y-86279580D01*
X56976191Y-86279580D02*
X56928572Y-86184342D01*
X56928572Y-86184342D02*
X56928572Y-85898628D01*
X56928572Y-85898628D02*
X56976191Y-85803390D01*
X56976191Y-85803390D02*
X57023810Y-85755771D01*
X57023810Y-85755771D02*
X57119048Y-85708152D01*
X57119048Y-85708152D02*
X57309524Y-85708152D01*
X57309524Y-85708152D02*
X57404762Y-85755771D01*
X57690477Y-85708152D02*
X58071429Y-85708152D01*
X57833334Y-85374819D02*
X57833334Y-86231961D01*
X57833334Y-86231961D02*
X57880953Y-86327200D01*
X57880953Y-86327200D02*
X57976191Y-86374819D01*
X57976191Y-86374819D02*
X58071429Y-86374819D01*
X52954819Y-81833333D02*
X53669104Y-81833333D01*
X53669104Y-81833333D02*
X53811961Y-81880952D01*
X53811961Y-81880952D02*
X53907200Y-81976190D01*
X53907200Y-81976190D02*
X53954819Y-82119047D01*
X53954819Y-82119047D02*
X53954819Y-82214285D01*
X53954819Y-81357142D02*
X52954819Y-81357142D01*
X52954819Y-81357142D02*
X52954819Y-80976190D01*
X52954819Y-80976190D02*
X53002438Y-80880952D01*
X53002438Y-80880952D02*
X53050057Y-80833333D01*
X53050057Y-80833333D02*
X53145295Y-80785714D01*
X53145295Y-80785714D02*
X53288152Y-80785714D01*
X53288152Y-80785714D02*
X53383390Y-80833333D01*
X53383390Y-80833333D02*
X53431009Y-80880952D01*
X53431009Y-80880952D02*
X53478628Y-80976190D01*
X53478628Y-80976190D02*
X53478628Y-81357142D01*
X53954819Y-79833333D02*
X53954819Y-80404761D01*
X53954819Y-80119047D02*
X52954819Y-80119047D01*
X52954819Y-80119047D02*
X53097676Y-80214285D01*
X53097676Y-80214285D02*
X53192914Y-80309523D01*
X53192914Y-80309523D02*
X53240533Y-80404761D01*
X62857142Y-111134819D02*
X62285714Y-111134819D01*
X62571428Y-111134819D02*
X62571428Y-110134819D01*
X62571428Y-110134819D02*
X62476190Y-110277676D01*
X62476190Y-110277676D02*
X62380952Y-110372914D01*
X62380952Y-110372914D02*
X62285714Y-110420533D01*
X63476190Y-110134819D02*
X63571428Y-110134819D01*
X63571428Y-110134819D02*
X63666666Y-110182438D01*
X63666666Y-110182438D02*
X63714285Y-110230057D01*
X63714285Y-110230057D02*
X63761904Y-110325295D01*
X63761904Y-110325295D02*
X63809523Y-110515771D01*
X63809523Y-110515771D02*
X63809523Y-110753866D01*
X63809523Y-110753866D02*
X63761904Y-110944342D01*
X63761904Y-110944342D02*
X63714285Y-111039580D01*
X63714285Y-111039580D02*
X63666666Y-111087200D01*
X63666666Y-111087200D02*
X63571428Y-111134819D01*
X63571428Y-111134819D02*
X63476190Y-111134819D01*
X63476190Y-111134819D02*
X63380952Y-111087200D01*
X63380952Y-111087200D02*
X63333333Y-111039580D01*
X63333333Y-111039580D02*
X63285714Y-110944342D01*
X63285714Y-110944342D02*
X63238095Y-110753866D01*
X63238095Y-110753866D02*
X63238095Y-110515771D01*
X63238095Y-110515771D02*
X63285714Y-110325295D01*
X63285714Y-110325295D02*
X63333333Y-110230057D01*
X63333333Y-110230057D02*
X63380952Y-110182438D01*
X63380952Y-110182438D02*
X63476190Y-110134819D01*
X64666666Y-110468152D02*
X64666666Y-111134819D01*
X64238095Y-110468152D02*
X64238095Y-110991961D01*
X64238095Y-110991961D02*
X64285714Y-111087200D01*
X64285714Y-111087200D02*
X64380952Y-111134819D01*
X64380952Y-111134819D02*
X64523809Y-111134819D01*
X64523809Y-111134819D02*
X64619047Y-111087200D01*
X64619047Y-111087200D02*
X64666666Y-111039580D01*
D12*
X63416666Y-109179530D02*
X63392857Y-109203340D01*
X63392857Y-109203340D02*
X63321428Y-109227149D01*
X63321428Y-109227149D02*
X63273809Y-109227149D01*
X63273809Y-109227149D02*
X63202381Y-109203340D01*
X63202381Y-109203340D02*
X63154762Y-109155720D01*
X63154762Y-109155720D02*
X63130952Y-109108101D01*
X63130952Y-109108101D02*
X63107143Y-109012863D01*
X63107143Y-109012863D02*
X63107143Y-108941435D01*
X63107143Y-108941435D02*
X63130952Y-108846197D01*
X63130952Y-108846197D02*
X63154762Y-108798578D01*
X63154762Y-108798578D02*
X63202381Y-108750959D01*
X63202381Y-108750959D02*
X63273809Y-108727149D01*
X63273809Y-108727149D02*
X63321428Y-108727149D01*
X63321428Y-108727149D02*
X63392857Y-108750959D01*
X63392857Y-108750959D02*
X63416666Y-108774768D01*
X63892857Y-109227149D02*
X63607143Y-109227149D01*
X63750000Y-109227149D02*
X63750000Y-108727149D01*
X63750000Y-108727149D02*
X63702381Y-108798578D01*
X63702381Y-108798578D02*
X63654762Y-108846197D01*
X63654762Y-108846197D02*
X63607143Y-108870006D01*
D10*
X82204761Y-74424819D02*
X81633333Y-74424819D01*
X81919047Y-74424819D02*
X81919047Y-73424819D01*
X81919047Y-73424819D02*
X81823809Y-73567676D01*
X81823809Y-73567676D02*
X81728571Y-73662914D01*
X81728571Y-73662914D02*
X81633333Y-73710533D01*
X82823809Y-73424819D02*
X82919047Y-73424819D01*
X82919047Y-73424819D02*
X83014285Y-73472438D01*
X83014285Y-73472438D02*
X83061904Y-73520057D01*
X83061904Y-73520057D02*
X83109523Y-73615295D01*
X83109523Y-73615295D02*
X83157142Y-73805771D01*
X83157142Y-73805771D02*
X83157142Y-74043866D01*
X83157142Y-74043866D02*
X83109523Y-74234342D01*
X83109523Y-74234342D02*
X83061904Y-74329580D01*
X83061904Y-74329580D02*
X83014285Y-74377200D01*
X83014285Y-74377200D02*
X82919047Y-74424819D01*
X82919047Y-74424819D02*
X82823809Y-74424819D01*
X82823809Y-74424819D02*
X82728571Y-74377200D01*
X82728571Y-74377200D02*
X82680952Y-74329580D01*
X82680952Y-74329580D02*
X82633333Y-74234342D01*
X82633333Y-74234342D02*
X82585714Y-74043866D01*
X82585714Y-74043866D02*
X82585714Y-73805771D01*
X82585714Y-73805771D02*
X82633333Y-73615295D01*
X82633333Y-73615295D02*
X82680952Y-73520057D01*
X82680952Y-73520057D02*
X82728571Y-73472438D01*
X82728571Y-73472438D02*
X82823809Y-73424819D01*
X83585714Y-74424819D02*
X83585714Y-73424819D01*
X83680952Y-74043866D02*
X83966666Y-74424819D01*
X83966666Y-73758152D02*
X83585714Y-74139104D01*
D11*
X82756667Y-72918200D02*
X82670000Y-72794391D01*
X82608095Y-72918200D02*
X82608095Y-72658200D01*
X82608095Y-72658200D02*
X82707143Y-72658200D01*
X82707143Y-72658200D02*
X82731905Y-72670581D01*
X82731905Y-72670581D02*
X82744286Y-72682962D01*
X82744286Y-72682962D02*
X82756667Y-72707724D01*
X82756667Y-72707724D02*
X82756667Y-72744867D01*
X82756667Y-72744867D02*
X82744286Y-72769629D01*
X82744286Y-72769629D02*
X82731905Y-72782010D01*
X82731905Y-72782010D02*
X82707143Y-72794391D01*
X82707143Y-72794391D02*
X82608095Y-72794391D01*
X82979524Y-72744867D02*
X82979524Y-72918200D01*
X82917619Y-72645820D02*
X82855714Y-72831534D01*
X82855714Y-72831534D02*
X83016667Y-72831534D01*
D10*
X77509580Y-113642857D02*
X77557200Y-113690476D01*
X77557200Y-113690476D02*
X77604819Y-113833333D01*
X77604819Y-113833333D02*
X77604819Y-113928571D01*
X77604819Y-113928571D02*
X77557200Y-114071428D01*
X77557200Y-114071428D02*
X77461961Y-114166666D01*
X77461961Y-114166666D02*
X77366723Y-114214285D01*
X77366723Y-114214285D02*
X77176247Y-114261904D01*
X77176247Y-114261904D02*
X77033390Y-114261904D01*
X77033390Y-114261904D02*
X76842914Y-114214285D01*
X76842914Y-114214285D02*
X76747676Y-114166666D01*
X76747676Y-114166666D02*
X76652438Y-114071428D01*
X76652438Y-114071428D02*
X76604819Y-113928571D01*
X76604819Y-113928571D02*
X76604819Y-113833333D01*
X76604819Y-113833333D02*
X76652438Y-113690476D01*
X76652438Y-113690476D02*
X76700057Y-113642857D01*
X77604819Y-113214285D02*
X76604819Y-113214285D01*
X77081009Y-113214285D02*
X77081009Y-112642857D01*
X77604819Y-112642857D02*
X76604819Y-112642857D01*
X76604819Y-112261904D02*
X76604819Y-111642857D01*
X76604819Y-111642857D02*
X76985771Y-111976190D01*
X76985771Y-111976190D02*
X76985771Y-111833333D01*
X76985771Y-111833333D02*
X77033390Y-111738095D01*
X77033390Y-111738095D02*
X77081009Y-111690476D01*
X77081009Y-111690476D02*
X77176247Y-111642857D01*
X77176247Y-111642857D02*
X77414342Y-111642857D01*
X77414342Y-111642857D02*
X77509580Y-111690476D01*
X77509580Y-111690476D02*
X77557200Y-111738095D01*
X77557200Y-111738095D02*
X77604819Y-111833333D01*
X77604819Y-111833333D02*
X77604819Y-112119047D01*
X77604819Y-112119047D02*
X77557200Y-112214285D01*
X77557200Y-112214285D02*
X77509580Y-112261904D01*
X76938152Y-110785714D02*
X77604819Y-110785714D01*
X76557200Y-111023809D02*
X77271485Y-111261904D01*
X77271485Y-111261904D02*
X77271485Y-110642857D01*
X76604819Y-110071428D02*
X76604819Y-109976190D01*
X76604819Y-109976190D02*
X76652438Y-109880952D01*
X76652438Y-109880952D02*
X76700057Y-109833333D01*
X76700057Y-109833333D02*
X76795295Y-109785714D01*
X76795295Y-109785714D02*
X76985771Y-109738095D01*
X76985771Y-109738095D02*
X77223866Y-109738095D01*
X77223866Y-109738095D02*
X77414342Y-109785714D01*
X77414342Y-109785714D02*
X77509580Y-109833333D01*
X77509580Y-109833333D02*
X77557200Y-109880952D01*
X77557200Y-109880952D02*
X77604819Y-109976190D01*
X77604819Y-109976190D02*
X77604819Y-110071428D01*
X77604819Y-110071428D02*
X77557200Y-110166666D01*
X77557200Y-110166666D02*
X77509580Y-110214285D01*
X77509580Y-110214285D02*
X77414342Y-110261904D01*
X77414342Y-110261904D02*
X77223866Y-110309523D01*
X77223866Y-110309523D02*
X76985771Y-110309523D01*
X76985771Y-110309523D02*
X76795295Y-110261904D01*
X76795295Y-110261904D02*
X76700057Y-110214285D01*
X76700057Y-110214285D02*
X76652438Y-110166666D01*
X76652438Y-110166666D02*
X76604819Y-110071428D01*
X77509580Y-108738095D02*
X77557200Y-108785714D01*
X77557200Y-108785714D02*
X77604819Y-108928571D01*
X77604819Y-108928571D02*
X77604819Y-109023809D01*
X77604819Y-109023809D02*
X77557200Y-109166666D01*
X77557200Y-109166666D02*
X77461961Y-109261904D01*
X77461961Y-109261904D02*
X77366723Y-109309523D01*
X77366723Y-109309523D02*
X77176247Y-109357142D01*
X77176247Y-109357142D02*
X77033390Y-109357142D01*
X77033390Y-109357142D02*
X76842914Y-109309523D01*
X76842914Y-109309523D02*
X76747676Y-109261904D01*
X76747676Y-109261904D02*
X76652438Y-109166666D01*
X76652438Y-109166666D02*
X76604819Y-109023809D01*
X76604819Y-109023809D02*
X76604819Y-108928571D01*
X76604819Y-108928571D02*
X76652438Y-108785714D01*
X76652438Y-108785714D02*
X76700057Y-108738095D01*
X70454819Y-112261904D02*
X71264342Y-112261904D01*
X71264342Y-112261904D02*
X71359580Y-112214285D01*
X71359580Y-112214285D02*
X71407200Y-112166666D01*
X71407200Y-112166666D02*
X71454819Y-112071428D01*
X71454819Y-112071428D02*
X71454819Y-111880952D01*
X71454819Y-111880952D02*
X71407200Y-111785714D01*
X71407200Y-111785714D02*
X71359580Y-111738095D01*
X71359580Y-111738095D02*
X71264342Y-111690476D01*
X71264342Y-111690476D02*
X70454819Y-111690476D01*
X70788152Y-110785714D02*
X71454819Y-110785714D01*
X70407200Y-111023809D02*
X71121485Y-111261904D01*
X71121485Y-111261904D02*
X71121485Y-110642857D01*
X55854819Y-113442856D02*
X55854819Y-112871428D01*
X56854819Y-113157142D02*
X55854819Y-113157142D01*
X56854819Y-112538094D02*
X55854819Y-112538094D01*
X55854819Y-112538094D02*
X55854819Y-112157142D01*
X55854819Y-112157142D02*
X55902438Y-112061904D01*
X55902438Y-112061904D02*
X55950057Y-112014285D01*
X55950057Y-112014285D02*
X56045295Y-111966666D01*
X56045295Y-111966666D02*
X56188152Y-111966666D01*
X56188152Y-111966666D02*
X56283390Y-112014285D01*
X56283390Y-112014285D02*
X56331009Y-112061904D01*
X56331009Y-112061904D02*
X56378628Y-112157142D01*
X56378628Y-112157142D02*
X56378628Y-112538094D01*
X56807200Y-111585713D02*
X56854819Y-111442856D01*
X56854819Y-111442856D02*
X56854819Y-111204761D01*
X56854819Y-111204761D02*
X56807200Y-111109523D01*
X56807200Y-111109523D02*
X56759580Y-111061904D01*
X56759580Y-111061904D02*
X56664342Y-111014285D01*
X56664342Y-111014285D02*
X56569104Y-111014285D01*
X56569104Y-111014285D02*
X56473866Y-111061904D01*
X56473866Y-111061904D02*
X56426247Y-111109523D01*
X56426247Y-111109523D02*
X56378628Y-111204761D01*
X56378628Y-111204761D02*
X56331009Y-111395237D01*
X56331009Y-111395237D02*
X56283390Y-111490475D01*
X56283390Y-111490475D02*
X56235771Y-111538094D01*
X56235771Y-111538094D02*
X56140533Y-111585713D01*
X56140533Y-111585713D02*
X56045295Y-111585713D01*
X56045295Y-111585713D02*
X55950057Y-111538094D01*
X55950057Y-111538094D02*
X55902438Y-111490475D01*
X55902438Y-111490475D02*
X55854819Y-111395237D01*
X55854819Y-111395237D02*
X55854819Y-111157142D01*
X55854819Y-111157142D02*
X55902438Y-111014285D01*
X55854819Y-110109523D02*
X55854819Y-110585713D01*
X55854819Y-110585713D02*
X56331009Y-110633332D01*
X56331009Y-110633332D02*
X56283390Y-110585713D01*
X56283390Y-110585713D02*
X56235771Y-110490475D01*
X56235771Y-110490475D02*
X56235771Y-110252380D01*
X56235771Y-110252380D02*
X56283390Y-110157142D01*
X56283390Y-110157142D02*
X56331009Y-110109523D01*
X56331009Y-110109523D02*
X56426247Y-110061904D01*
X56426247Y-110061904D02*
X56664342Y-110061904D01*
X56664342Y-110061904D02*
X56759580Y-110109523D01*
X56759580Y-110109523D02*
X56807200Y-110157142D01*
X56807200Y-110157142D02*
X56854819Y-110252380D01*
X56854819Y-110252380D02*
X56854819Y-110490475D01*
X56854819Y-110490475D02*
X56807200Y-110585713D01*
X56807200Y-110585713D02*
X56759580Y-110633332D01*
X56188152Y-109204761D02*
X56854819Y-109204761D01*
X55807200Y-109442856D02*
X56521485Y-109680951D01*
X56521485Y-109680951D02*
X56521485Y-109061904D01*
X55950057Y-108728570D02*
X55902438Y-108680951D01*
X55902438Y-108680951D02*
X55854819Y-108585713D01*
X55854819Y-108585713D02*
X55854819Y-108347618D01*
X55854819Y-108347618D02*
X55902438Y-108252380D01*
X55902438Y-108252380D02*
X55950057Y-108204761D01*
X55950057Y-108204761D02*
X56045295Y-108157142D01*
X56045295Y-108157142D02*
X56140533Y-108157142D01*
X56140533Y-108157142D02*
X56283390Y-108204761D01*
X56283390Y-108204761D02*
X56854819Y-108776189D01*
X56854819Y-108776189D02*
X56854819Y-108157142D01*
X55854819Y-107538094D02*
X55854819Y-107442856D01*
X55854819Y-107442856D02*
X55902438Y-107347618D01*
X55902438Y-107347618D02*
X55950057Y-107299999D01*
X55950057Y-107299999D02*
X56045295Y-107252380D01*
X56045295Y-107252380D02*
X56235771Y-107204761D01*
X56235771Y-107204761D02*
X56473866Y-107204761D01*
X56473866Y-107204761D02*
X56664342Y-107252380D01*
X56664342Y-107252380D02*
X56759580Y-107299999D01*
X56759580Y-107299999D02*
X56807200Y-107347618D01*
X56807200Y-107347618D02*
X56854819Y-107442856D01*
X56854819Y-107442856D02*
X56854819Y-107538094D01*
X56854819Y-107538094D02*
X56807200Y-107633332D01*
X56807200Y-107633332D02*
X56759580Y-107680951D01*
X56759580Y-107680951D02*
X56664342Y-107728570D01*
X56664342Y-107728570D02*
X56473866Y-107776189D01*
X56473866Y-107776189D02*
X56235771Y-107776189D01*
X56235771Y-107776189D02*
X56045295Y-107728570D01*
X56045295Y-107728570D02*
X55950057Y-107680951D01*
X55950057Y-107680951D02*
X55902438Y-107633332D01*
X55902438Y-107633332D02*
X55854819Y-107538094D01*
X55950057Y-106823808D02*
X55902438Y-106776189D01*
X55902438Y-106776189D02*
X55854819Y-106680951D01*
X55854819Y-106680951D02*
X55854819Y-106442856D01*
X55854819Y-106442856D02*
X55902438Y-106347618D01*
X55902438Y-106347618D02*
X55950057Y-106299999D01*
X55950057Y-106299999D02*
X56045295Y-106252380D01*
X56045295Y-106252380D02*
X56140533Y-106252380D01*
X56140533Y-106252380D02*
X56283390Y-106299999D01*
X56283390Y-106299999D02*
X56854819Y-106871427D01*
X56854819Y-106871427D02*
X56854819Y-106252380D01*
X56854819Y-105823808D02*
X55854819Y-105823808D01*
X55854819Y-105823808D02*
X55854819Y-105585713D01*
X55854819Y-105585713D02*
X55902438Y-105442856D01*
X55902438Y-105442856D02*
X55997676Y-105347618D01*
X55997676Y-105347618D02*
X56092914Y-105299999D01*
X56092914Y-105299999D02*
X56283390Y-105252380D01*
X56283390Y-105252380D02*
X56426247Y-105252380D01*
X56426247Y-105252380D02*
X56616723Y-105299999D01*
X56616723Y-105299999D02*
X56711961Y-105347618D01*
X56711961Y-105347618D02*
X56807200Y-105442856D01*
X56807200Y-105442856D02*
X56854819Y-105585713D01*
X56854819Y-105585713D02*
X56854819Y-105823808D01*
X56854819Y-104823808D02*
X55854819Y-104823808D01*
X55854819Y-104823808D02*
X55854819Y-104585713D01*
X55854819Y-104585713D02*
X55902438Y-104442856D01*
X55902438Y-104442856D02*
X55997676Y-104347618D01*
X55997676Y-104347618D02*
X56092914Y-104299999D01*
X56092914Y-104299999D02*
X56283390Y-104252380D01*
X56283390Y-104252380D02*
X56426247Y-104252380D01*
X56426247Y-104252380D02*
X56616723Y-104299999D01*
X56616723Y-104299999D02*
X56711961Y-104347618D01*
X56711961Y-104347618D02*
X56807200Y-104442856D01*
X56807200Y-104442856D02*
X56854819Y-104585713D01*
X56854819Y-104585713D02*
X56854819Y-104823808D01*
X56759580Y-103252380D02*
X56807200Y-103299999D01*
X56807200Y-103299999D02*
X56854819Y-103442856D01*
X56854819Y-103442856D02*
X56854819Y-103538094D01*
X56854819Y-103538094D02*
X56807200Y-103680951D01*
X56807200Y-103680951D02*
X56711961Y-103776189D01*
X56711961Y-103776189D02*
X56616723Y-103823808D01*
X56616723Y-103823808D02*
X56426247Y-103871427D01*
X56426247Y-103871427D02*
X56283390Y-103871427D01*
X56283390Y-103871427D02*
X56092914Y-103823808D01*
X56092914Y-103823808D02*
X55997676Y-103776189D01*
X55997676Y-103776189D02*
X55902438Y-103680951D01*
X55902438Y-103680951D02*
X55854819Y-103538094D01*
X55854819Y-103538094D02*
X55854819Y-103442856D01*
X55854819Y-103442856D02*
X55902438Y-103299999D01*
X55902438Y-103299999D02*
X55950057Y-103252380D01*
X56854819Y-102252380D02*
X56378628Y-102585713D01*
X56854819Y-102823808D02*
X55854819Y-102823808D01*
X55854819Y-102823808D02*
X55854819Y-102442856D01*
X55854819Y-102442856D02*
X55902438Y-102347618D01*
X55902438Y-102347618D02*
X55950057Y-102299999D01*
X55950057Y-102299999D02*
X56045295Y-102252380D01*
X56045295Y-102252380D02*
X56188152Y-102252380D01*
X56188152Y-102252380D02*
X56283390Y-102299999D01*
X56283390Y-102299999D02*
X56331009Y-102347618D01*
X56331009Y-102347618D02*
X56378628Y-102442856D01*
X56378628Y-102442856D02*
X56378628Y-102823808D01*
D13*
X53451428Y-107407365D02*
X53451428Y-107990222D01*
X53451428Y-107990222D02*
X53485714Y-108058794D01*
X53485714Y-108058794D02*
X53520000Y-108093080D01*
X53520000Y-108093080D02*
X53588571Y-108127365D01*
X53588571Y-108127365D02*
X53725714Y-108127365D01*
X53725714Y-108127365D02*
X53794285Y-108093080D01*
X53794285Y-108093080D02*
X53828571Y-108058794D01*
X53828571Y-108058794D02*
X53862857Y-107990222D01*
X53862857Y-107990222D02*
X53862857Y-107407365D01*
X54171428Y-107475937D02*
X54205714Y-107441651D01*
X54205714Y-107441651D02*
X54274286Y-107407365D01*
X54274286Y-107407365D02*
X54445714Y-107407365D01*
X54445714Y-107407365D02*
X54514286Y-107441651D01*
X54514286Y-107441651D02*
X54548571Y-107475937D01*
X54548571Y-107475937D02*
X54582857Y-107544508D01*
X54582857Y-107544508D02*
X54582857Y-107613080D01*
X54582857Y-107613080D02*
X54548571Y-107715937D01*
X54548571Y-107715937D02*
X54137143Y-108127365D01*
X54137143Y-108127365D02*
X54582857Y-108127365D01*
D10*
X51835714Y-106607200D02*
X51978571Y-106654819D01*
X51978571Y-106654819D02*
X52216666Y-106654819D01*
X52216666Y-106654819D02*
X52311904Y-106607200D01*
X52311904Y-106607200D02*
X52359523Y-106559580D01*
X52359523Y-106559580D02*
X52407142Y-106464342D01*
X52407142Y-106464342D02*
X52407142Y-106369104D01*
X52407142Y-106369104D02*
X52359523Y-106273866D01*
X52359523Y-106273866D02*
X52311904Y-106226247D01*
X52311904Y-106226247D02*
X52216666Y-106178628D01*
X52216666Y-106178628D02*
X52026190Y-106131009D01*
X52026190Y-106131009D02*
X51930952Y-106083390D01*
X51930952Y-106083390D02*
X51883333Y-106035771D01*
X51883333Y-106035771D02*
X51835714Y-105940533D01*
X51835714Y-105940533D02*
X51835714Y-105845295D01*
X51835714Y-105845295D02*
X51883333Y-105750057D01*
X51883333Y-105750057D02*
X51930952Y-105702438D01*
X51930952Y-105702438D02*
X52026190Y-105654819D01*
X52026190Y-105654819D02*
X52264285Y-105654819D01*
X52264285Y-105654819D02*
X52407142Y-105702438D01*
X52788095Y-106607200D02*
X52930952Y-106654819D01*
X52930952Y-106654819D02*
X53169047Y-106654819D01*
X53169047Y-106654819D02*
X53264285Y-106607200D01*
X53264285Y-106607200D02*
X53311904Y-106559580D01*
X53311904Y-106559580D02*
X53359523Y-106464342D01*
X53359523Y-106464342D02*
X53359523Y-106369104D01*
X53359523Y-106369104D02*
X53311904Y-106273866D01*
X53311904Y-106273866D02*
X53264285Y-106226247D01*
X53264285Y-106226247D02*
X53169047Y-106178628D01*
X53169047Y-106178628D02*
X52978571Y-106131009D01*
X52978571Y-106131009D02*
X52883333Y-106083390D01*
X52883333Y-106083390D02*
X52835714Y-106035771D01*
X52835714Y-106035771D02*
X52788095Y-105940533D01*
X52788095Y-105940533D02*
X52788095Y-105845295D01*
X52788095Y-105845295D02*
X52835714Y-105750057D01*
X52835714Y-105750057D02*
X52883333Y-105702438D01*
X52883333Y-105702438D02*
X52978571Y-105654819D01*
X52978571Y-105654819D02*
X53216666Y-105654819D01*
X53216666Y-105654819D02*
X53359523Y-105702438D01*
X53692857Y-105654819D02*
X54311904Y-105654819D01*
X54311904Y-105654819D02*
X53978571Y-106035771D01*
X53978571Y-106035771D02*
X54121428Y-106035771D01*
X54121428Y-106035771D02*
X54216666Y-106083390D01*
X54216666Y-106083390D02*
X54264285Y-106131009D01*
X54264285Y-106131009D02*
X54311904Y-106226247D01*
X54311904Y-106226247D02*
X54311904Y-106464342D01*
X54311904Y-106464342D02*
X54264285Y-106559580D01*
X54264285Y-106559580D02*
X54216666Y-106607200D01*
X54216666Y-106607200D02*
X54121428Y-106654819D01*
X54121428Y-106654819D02*
X53835714Y-106654819D01*
X53835714Y-106654819D02*
X53740476Y-106607200D01*
X53740476Y-106607200D02*
X53692857Y-106559580D01*
X55169047Y-105988152D02*
X55169047Y-106654819D01*
X54930952Y-105607200D02*
X54692857Y-106321485D01*
X54692857Y-106321485D02*
X55311904Y-106321485D01*
X52811905Y-101554819D02*
X52811905Y-100554819D01*
X52811905Y-100554819D02*
X53050000Y-100554819D01*
X53050000Y-100554819D02*
X53192857Y-100602438D01*
X53192857Y-100602438D02*
X53288095Y-100697676D01*
X53288095Y-100697676D02*
X53335714Y-100792914D01*
X53335714Y-100792914D02*
X53383333Y-100983390D01*
X53383333Y-100983390D02*
X53383333Y-101126247D01*
X53383333Y-101126247D02*
X53335714Y-101316723D01*
X53335714Y-101316723D02*
X53288095Y-101411961D01*
X53288095Y-101411961D02*
X53192857Y-101507200D01*
X53192857Y-101507200D02*
X53050000Y-101554819D01*
X53050000Y-101554819D02*
X52811905Y-101554819D01*
X54288095Y-100554819D02*
X53811905Y-100554819D01*
X53811905Y-100554819D02*
X53764286Y-101031009D01*
X53764286Y-101031009D02*
X53811905Y-100983390D01*
X53811905Y-100983390D02*
X53907143Y-100935771D01*
X53907143Y-100935771D02*
X54145238Y-100935771D01*
X54145238Y-100935771D02*
X54240476Y-100983390D01*
X54240476Y-100983390D02*
X54288095Y-101031009D01*
X54288095Y-101031009D02*
X54335714Y-101126247D01*
X54335714Y-101126247D02*
X54335714Y-101364342D01*
X54335714Y-101364342D02*
X54288095Y-101459580D01*
X54288095Y-101459580D02*
X54240476Y-101507200D01*
X54240476Y-101507200D02*
X54145238Y-101554819D01*
X54145238Y-101554819D02*
X53907143Y-101554819D01*
X53907143Y-101554819D02*
X53811905Y-101507200D01*
X53811905Y-101507200D02*
X53764286Y-101459580D01*
X60824819Y-57595238D02*
X60824819Y-58166666D01*
X60824819Y-57880952D02*
X59824819Y-57880952D01*
X59824819Y-57880952D02*
X59967676Y-57976190D01*
X59967676Y-57976190D02*
X60062914Y-58071428D01*
X60062914Y-58071428D02*
X60110533Y-58166666D01*
X59824819Y-56976190D02*
X59824819Y-56880952D01*
X59824819Y-56880952D02*
X59872438Y-56785714D01*
X59872438Y-56785714D02*
X59920057Y-56738095D01*
X59920057Y-56738095D02*
X60015295Y-56690476D01*
X60015295Y-56690476D02*
X60205771Y-56642857D01*
X60205771Y-56642857D02*
X60443866Y-56642857D01*
X60443866Y-56642857D02*
X60634342Y-56690476D01*
X60634342Y-56690476D02*
X60729580Y-56738095D01*
X60729580Y-56738095D02*
X60777200Y-56785714D01*
X60777200Y-56785714D02*
X60824819Y-56880952D01*
X60824819Y-56880952D02*
X60824819Y-56976190D01*
X60824819Y-56976190D02*
X60777200Y-57071428D01*
X60777200Y-57071428D02*
X60729580Y-57119047D01*
X60729580Y-57119047D02*
X60634342Y-57166666D01*
X60634342Y-57166666D02*
X60443866Y-57214285D01*
X60443866Y-57214285D02*
X60205771Y-57214285D01*
X60205771Y-57214285D02*
X60015295Y-57166666D01*
X60015295Y-57166666D02*
X59920057Y-57119047D01*
X59920057Y-57119047D02*
X59872438Y-57071428D01*
X59872438Y-57071428D02*
X59824819Y-56976190D01*
X60824819Y-56214285D02*
X59824819Y-56214285D01*
X60443866Y-56119047D02*
X60824819Y-55833333D01*
X60158152Y-55833333D02*
X60539104Y-56214285D01*
D11*
X59318200Y-57043332D02*
X59194391Y-57129999D01*
X59318200Y-57191904D02*
X59058200Y-57191904D01*
X59058200Y-57191904D02*
X59058200Y-57092856D01*
X59058200Y-57092856D02*
X59070581Y-57068094D01*
X59070581Y-57068094D02*
X59082962Y-57055713D01*
X59082962Y-57055713D02*
X59107724Y-57043332D01*
X59107724Y-57043332D02*
X59144867Y-57043332D01*
X59144867Y-57043332D02*
X59169629Y-57055713D01*
X59169629Y-57055713D02*
X59182010Y-57068094D01*
X59182010Y-57068094D02*
X59194391Y-57092856D01*
X59194391Y-57092856D02*
X59194391Y-57191904D01*
X59318200Y-56919523D02*
X59318200Y-56869999D01*
X59318200Y-56869999D02*
X59305820Y-56845237D01*
X59305820Y-56845237D02*
X59293439Y-56832856D01*
X59293439Y-56832856D02*
X59256296Y-56808094D01*
X59256296Y-56808094D02*
X59206772Y-56795713D01*
X59206772Y-56795713D02*
X59107724Y-56795713D01*
X59107724Y-56795713D02*
X59082962Y-56808094D01*
X59082962Y-56808094D02*
X59070581Y-56820475D01*
X59070581Y-56820475D02*
X59058200Y-56845237D01*
X59058200Y-56845237D02*
X59058200Y-56894761D01*
X59058200Y-56894761D02*
X59070581Y-56919523D01*
X59070581Y-56919523D02*
X59082962Y-56931904D01*
X59082962Y-56931904D02*
X59107724Y-56944285D01*
X59107724Y-56944285D02*
X59169629Y-56944285D01*
X59169629Y-56944285D02*
X59194391Y-56931904D01*
X59194391Y-56931904D02*
X59206772Y-56919523D01*
X59206772Y-56919523D02*
X59219153Y-56894761D01*
X59219153Y-56894761D02*
X59219153Y-56845237D01*
X59219153Y-56845237D02*
X59206772Y-56820475D01*
X59206772Y-56820475D02*
X59194391Y-56808094D01*
X59194391Y-56808094D02*
X59169629Y-56795713D01*
D10*
X82634819Y-118742857D02*
X82634819Y-119314285D01*
X82634819Y-119028571D02*
X81634819Y-119028571D01*
X81634819Y-119028571D02*
X81777676Y-119123809D01*
X81777676Y-119123809D02*
X81872914Y-119219047D01*
X81872914Y-119219047D02*
X81920533Y-119314285D01*
X81634819Y-118123809D02*
X81634819Y-118028571D01*
X81634819Y-118028571D02*
X81682438Y-117933333D01*
X81682438Y-117933333D02*
X81730057Y-117885714D01*
X81730057Y-117885714D02*
X81825295Y-117838095D01*
X81825295Y-117838095D02*
X82015771Y-117790476D01*
X82015771Y-117790476D02*
X82253866Y-117790476D01*
X82253866Y-117790476D02*
X82444342Y-117838095D01*
X82444342Y-117838095D02*
X82539580Y-117885714D01*
X82539580Y-117885714D02*
X82587200Y-117933333D01*
X82587200Y-117933333D02*
X82634819Y-118028571D01*
X82634819Y-118028571D02*
X82634819Y-118123809D01*
X82634819Y-118123809D02*
X82587200Y-118219047D01*
X82587200Y-118219047D02*
X82539580Y-118266666D01*
X82539580Y-118266666D02*
X82444342Y-118314285D01*
X82444342Y-118314285D02*
X82253866Y-118361904D01*
X82253866Y-118361904D02*
X82015771Y-118361904D01*
X82015771Y-118361904D02*
X81825295Y-118314285D01*
X81825295Y-118314285D02*
X81730057Y-118266666D01*
X81730057Y-118266666D02*
X81682438Y-118219047D01*
X81682438Y-118219047D02*
X81634819Y-118123809D01*
X81968152Y-116933333D02*
X82634819Y-116933333D01*
X81968152Y-117361904D02*
X82491961Y-117361904D01*
X82491961Y-117361904D02*
X82587200Y-117314285D01*
X82587200Y-117314285D02*
X82634819Y-117219047D01*
X82634819Y-117219047D02*
X82634819Y-117076190D01*
X82634819Y-117076190D02*
X82587200Y-116980952D01*
X82587200Y-116980952D02*
X82539580Y-116933333D01*
D12*
X80679530Y-118183333D02*
X80703340Y-118207142D01*
X80703340Y-118207142D02*
X80727149Y-118278571D01*
X80727149Y-118278571D02*
X80727149Y-118326190D01*
X80727149Y-118326190D02*
X80703340Y-118397618D01*
X80703340Y-118397618D02*
X80655720Y-118445237D01*
X80655720Y-118445237D02*
X80608101Y-118469047D01*
X80608101Y-118469047D02*
X80512863Y-118492856D01*
X80512863Y-118492856D02*
X80441435Y-118492856D01*
X80441435Y-118492856D02*
X80346197Y-118469047D01*
X80346197Y-118469047D02*
X80298578Y-118445237D01*
X80298578Y-118445237D02*
X80250959Y-118397618D01*
X80250959Y-118397618D02*
X80227149Y-118326190D01*
X80227149Y-118326190D02*
X80227149Y-118278571D01*
X80227149Y-118278571D02*
X80250959Y-118207142D01*
X80250959Y-118207142D02*
X80274768Y-118183333D01*
X80393816Y-117754761D02*
X80727149Y-117754761D01*
X80203340Y-117873809D02*
X80560482Y-117992856D01*
X80560482Y-117992856D02*
X80560482Y-117683333D01*
D10*
X76619047Y-121624819D02*
X76142857Y-121624819D01*
X76142857Y-121624819D02*
X76095238Y-122101009D01*
X76095238Y-122101009D02*
X76142857Y-122053390D01*
X76142857Y-122053390D02*
X76238095Y-122005771D01*
X76238095Y-122005771D02*
X76476190Y-122005771D01*
X76476190Y-122005771D02*
X76571428Y-122053390D01*
X76571428Y-122053390D02*
X76619047Y-122101009D01*
X76619047Y-122101009D02*
X76666666Y-122196247D01*
X76666666Y-122196247D02*
X76666666Y-122434342D01*
X76666666Y-122434342D02*
X76619047Y-122529580D01*
X76619047Y-122529580D02*
X76571428Y-122577200D01*
X76571428Y-122577200D02*
X76476190Y-122624819D01*
X76476190Y-122624819D02*
X76238095Y-122624819D01*
X76238095Y-122624819D02*
X76142857Y-122577200D01*
X76142857Y-122577200D02*
X76095238Y-122529580D01*
X77095238Y-122529580D02*
X77142857Y-122577200D01*
X77142857Y-122577200D02*
X77095238Y-122624819D01*
X77095238Y-122624819D02*
X77047619Y-122577200D01*
X77047619Y-122577200D02*
X77095238Y-122529580D01*
X77095238Y-122529580D02*
X77095238Y-122624819D01*
X78095237Y-122624819D02*
X77523809Y-122624819D01*
X77809523Y-122624819D02*
X77809523Y-121624819D01*
X77809523Y-121624819D02*
X77714285Y-121767676D01*
X77714285Y-121767676D02*
X77619047Y-121862914D01*
X77619047Y-121862914D02*
X77523809Y-121910533D01*
X78523809Y-122624819D02*
X78523809Y-121624819D01*
X78619047Y-122243866D02*
X78904761Y-122624819D01*
X78904761Y-121958152D02*
X78523809Y-122339104D01*
D11*
X77456667Y-121118200D02*
X77370000Y-120994391D01*
X77308095Y-121118200D02*
X77308095Y-120858200D01*
X77308095Y-120858200D02*
X77407143Y-120858200D01*
X77407143Y-120858200D02*
X77431905Y-120870581D01*
X77431905Y-120870581D02*
X77444286Y-120882962D01*
X77444286Y-120882962D02*
X77456667Y-120907724D01*
X77456667Y-120907724D02*
X77456667Y-120944867D01*
X77456667Y-120944867D02*
X77444286Y-120969629D01*
X77444286Y-120969629D02*
X77431905Y-120982010D01*
X77431905Y-120982010D02*
X77407143Y-120994391D01*
X77407143Y-120994391D02*
X77308095Y-120994391D01*
X77605238Y-120969629D02*
X77580476Y-120957248D01*
X77580476Y-120957248D02*
X77568095Y-120944867D01*
X77568095Y-120944867D02*
X77555714Y-120920105D01*
X77555714Y-120920105D02*
X77555714Y-120907724D01*
X77555714Y-120907724D02*
X77568095Y-120882962D01*
X77568095Y-120882962D02*
X77580476Y-120870581D01*
X77580476Y-120870581D02*
X77605238Y-120858200D01*
X77605238Y-120858200D02*
X77654762Y-120858200D01*
X77654762Y-120858200D02*
X77679524Y-120870581D01*
X77679524Y-120870581D02*
X77691905Y-120882962D01*
X77691905Y-120882962D02*
X77704286Y-120907724D01*
X77704286Y-120907724D02*
X77704286Y-120920105D01*
X77704286Y-120920105D02*
X77691905Y-120944867D01*
X77691905Y-120944867D02*
X77679524Y-120957248D01*
X77679524Y-120957248D02*
X77654762Y-120969629D01*
X77654762Y-120969629D02*
X77605238Y-120969629D01*
X77605238Y-120969629D02*
X77580476Y-120982010D01*
X77580476Y-120982010D02*
X77568095Y-120994391D01*
X77568095Y-120994391D02*
X77555714Y-121019153D01*
X77555714Y-121019153D02*
X77555714Y-121068677D01*
X77555714Y-121068677D02*
X77568095Y-121093439D01*
X77568095Y-121093439D02*
X77580476Y-121105820D01*
X77580476Y-121105820D02*
X77605238Y-121118200D01*
X77605238Y-121118200D02*
X77654762Y-121118200D01*
X77654762Y-121118200D02*
X77679524Y-121105820D01*
X77679524Y-121105820D02*
X77691905Y-121093439D01*
X77691905Y-121093439D02*
X77704286Y-121068677D01*
X77704286Y-121068677D02*
X77704286Y-121019153D01*
X77704286Y-121019153D02*
X77691905Y-120994391D01*
X77691905Y-120994391D02*
X77679524Y-120982010D01*
X77679524Y-120982010D02*
X77654762Y-120969629D01*
D10*
X51835714Y-92007200D02*
X51978571Y-92054819D01*
X51978571Y-92054819D02*
X52216666Y-92054819D01*
X52216666Y-92054819D02*
X52311904Y-92007200D01*
X52311904Y-92007200D02*
X52359523Y-91959580D01*
X52359523Y-91959580D02*
X52407142Y-91864342D01*
X52407142Y-91864342D02*
X52407142Y-91769104D01*
X52407142Y-91769104D02*
X52359523Y-91673866D01*
X52359523Y-91673866D02*
X52311904Y-91626247D01*
X52311904Y-91626247D02*
X52216666Y-91578628D01*
X52216666Y-91578628D02*
X52026190Y-91531009D01*
X52026190Y-91531009D02*
X51930952Y-91483390D01*
X51930952Y-91483390D02*
X51883333Y-91435771D01*
X51883333Y-91435771D02*
X51835714Y-91340533D01*
X51835714Y-91340533D02*
X51835714Y-91245295D01*
X51835714Y-91245295D02*
X51883333Y-91150057D01*
X51883333Y-91150057D02*
X51930952Y-91102438D01*
X51930952Y-91102438D02*
X52026190Y-91054819D01*
X52026190Y-91054819D02*
X52264285Y-91054819D01*
X52264285Y-91054819D02*
X52407142Y-91102438D01*
X52788095Y-92007200D02*
X52930952Y-92054819D01*
X52930952Y-92054819D02*
X53169047Y-92054819D01*
X53169047Y-92054819D02*
X53264285Y-92007200D01*
X53264285Y-92007200D02*
X53311904Y-91959580D01*
X53311904Y-91959580D02*
X53359523Y-91864342D01*
X53359523Y-91864342D02*
X53359523Y-91769104D01*
X53359523Y-91769104D02*
X53311904Y-91673866D01*
X53311904Y-91673866D02*
X53264285Y-91626247D01*
X53264285Y-91626247D02*
X53169047Y-91578628D01*
X53169047Y-91578628D02*
X52978571Y-91531009D01*
X52978571Y-91531009D02*
X52883333Y-91483390D01*
X52883333Y-91483390D02*
X52835714Y-91435771D01*
X52835714Y-91435771D02*
X52788095Y-91340533D01*
X52788095Y-91340533D02*
X52788095Y-91245295D01*
X52788095Y-91245295D02*
X52835714Y-91150057D01*
X52835714Y-91150057D02*
X52883333Y-91102438D01*
X52883333Y-91102438D02*
X52978571Y-91054819D01*
X52978571Y-91054819D02*
X53216666Y-91054819D01*
X53216666Y-91054819D02*
X53359523Y-91102438D01*
X53692857Y-91054819D02*
X54311904Y-91054819D01*
X54311904Y-91054819D02*
X53978571Y-91435771D01*
X53978571Y-91435771D02*
X54121428Y-91435771D01*
X54121428Y-91435771D02*
X54216666Y-91483390D01*
X54216666Y-91483390D02*
X54264285Y-91531009D01*
X54264285Y-91531009D02*
X54311904Y-91626247D01*
X54311904Y-91626247D02*
X54311904Y-91864342D01*
X54311904Y-91864342D02*
X54264285Y-91959580D01*
X54264285Y-91959580D02*
X54216666Y-92007200D01*
X54216666Y-92007200D02*
X54121428Y-92054819D01*
X54121428Y-92054819D02*
X53835714Y-92054819D01*
X53835714Y-92054819D02*
X53740476Y-92007200D01*
X53740476Y-92007200D02*
X53692857Y-91959580D01*
X55169047Y-91388152D02*
X55169047Y-92054819D01*
X54930952Y-91007200D02*
X54692857Y-91721485D01*
X54692857Y-91721485D02*
X55311904Y-91721485D01*
X52811905Y-86954819D02*
X52811905Y-85954819D01*
X52811905Y-85954819D02*
X53050000Y-85954819D01*
X53050000Y-85954819D02*
X53192857Y-86002438D01*
X53192857Y-86002438D02*
X53288095Y-86097676D01*
X53288095Y-86097676D02*
X53335714Y-86192914D01*
X53335714Y-86192914D02*
X53383333Y-86383390D01*
X53383333Y-86383390D02*
X53383333Y-86526247D01*
X53383333Y-86526247D02*
X53335714Y-86716723D01*
X53335714Y-86716723D02*
X53288095Y-86811961D01*
X53288095Y-86811961D02*
X53192857Y-86907200D01*
X53192857Y-86907200D02*
X53050000Y-86954819D01*
X53050000Y-86954819D02*
X52811905Y-86954819D01*
X53764286Y-86050057D02*
X53811905Y-86002438D01*
X53811905Y-86002438D02*
X53907143Y-85954819D01*
X53907143Y-85954819D02*
X54145238Y-85954819D01*
X54145238Y-85954819D02*
X54240476Y-86002438D01*
X54240476Y-86002438D02*
X54288095Y-86050057D01*
X54288095Y-86050057D02*
X54335714Y-86145295D01*
X54335714Y-86145295D02*
X54335714Y-86240533D01*
X54335714Y-86240533D02*
X54288095Y-86383390D01*
X54288095Y-86383390D02*
X53716667Y-86954819D01*
X53716667Y-86954819D02*
X54335714Y-86954819D01*
X80047618Y-133304819D02*
X79714285Y-132828628D01*
X79476190Y-133304819D02*
X79476190Y-132304819D01*
X79476190Y-132304819D02*
X79857142Y-132304819D01*
X79857142Y-132304819D02*
X79952380Y-132352438D01*
X79952380Y-132352438D02*
X79999999Y-132400057D01*
X79999999Y-132400057D02*
X80047618Y-132495295D01*
X80047618Y-132495295D02*
X80047618Y-132638152D01*
X80047618Y-132638152D02*
X79999999Y-132733390D01*
X79999999Y-132733390D02*
X79952380Y-132781009D01*
X79952380Y-132781009D02*
X79857142Y-132828628D01*
X79857142Y-132828628D02*
X79476190Y-132828628D01*
X80476190Y-132781009D02*
X80809523Y-132781009D01*
X80952380Y-133304819D02*
X80476190Y-133304819D01*
X80476190Y-133304819D02*
X80476190Y-132304819D01*
X80476190Y-132304819D02*
X80952380Y-132304819D01*
X81333333Y-133257200D02*
X81476190Y-133304819D01*
X81476190Y-133304819D02*
X81714285Y-133304819D01*
X81714285Y-133304819D02*
X81809523Y-133257200D01*
X81809523Y-133257200D02*
X81857142Y-133209580D01*
X81857142Y-133209580D02*
X81904761Y-133114342D01*
X81904761Y-133114342D02*
X81904761Y-133019104D01*
X81904761Y-133019104D02*
X81857142Y-132923866D01*
X81857142Y-132923866D02*
X81809523Y-132876247D01*
X81809523Y-132876247D02*
X81714285Y-132828628D01*
X81714285Y-132828628D02*
X81523809Y-132781009D01*
X81523809Y-132781009D02*
X81428571Y-132733390D01*
X81428571Y-132733390D02*
X81380952Y-132685771D01*
X81380952Y-132685771D02*
X81333333Y-132590533D01*
X81333333Y-132590533D02*
X81333333Y-132495295D01*
X81333333Y-132495295D02*
X81380952Y-132400057D01*
X81380952Y-132400057D02*
X81428571Y-132352438D01*
X81428571Y-132352438D02*
X81523809Y-132304819D01*
X81523809Y-132304819D02*
X81761904Y-132304819D01*
X81761904Y-132304819D02*
X81904761Y-132352438D01*
X82333333Y-132781009D02*
X82666666Y-132781009D01*
X82809523Y-133304819D02*
X82333333Y-133304819D01*
X82333333Y-133304819D02*
X82333333Y-132304819D01*
X82333333Y-132304819D02*
X82809523Y-132304819D01*
X83095238Y-132304819D02*
X83666666Y-132304819D01*
X83380952Y-133304819D02*
X83380952Y-132304819D01*
X80166667Y-127407200D02*
X80309524Y-127454819D01*
X80309524Y-127454819D02*
X80547619Y-127454819D01*
X80547619Y-127454819D02*
X80642857Y-127407200D01*
X80642857Y-127407200D02*
X80690476Y-127359580D01*
X80690476Y-127359580D02*
X80738095Y-127264342D01*
X80738095Y-127264342D02*
X80738095Y-127169104D01*
X80738095Y-127169104D02*
X80690476Y-127073866D01*
X80690476Y-127073866D02*
X80642857Y-127026247D01*
X80642857Y-127026247D02*
X80547619Y-126978628D01*
X80547619Y-126978628D02*
X80357143Y-126931009D01*
X80357143Y-126931009D02*
X80261905Y-126883390D01*
X80261905Y-126883390D02*
X80214286Y-126835771D01*
X80214286Y-126835771D02*
X80166667Y-126740533D01*
X80166667Y-126740533D02*
X80166667Y-126645295D01*
X80166667Y-126645295D02*
X80214286Y-126550057D01*
X80214286Y-126550057D02*
X80261905Y-126502438D01*
X80261905Y-126502438D02*
X80357143Y-126454819D01*
X80357143Y-126454819D02*
X80595238Y-126454819D01*
X80595238Y-126454819D02*
X80738095Y-126502438D01*
X81071429Y-126454819D02*
X81309524Y-127454819D01*
X81309524Y-127454819D02*
X81500000Y-126740533D01*
X81500000Y-126740533D02*
X81690476Y-127454819D01*
X81690476Y-127454819D02*
X81928572Y-126454819D01*
X82261905Y-126550057D02*
X82309524Y-126502438D01*
X82309524Y-126502438D02*
X82404762Y-126454819D01*
X82404762Y-126454819D02*
X82642857Y-126454819D01*
X82642857Y-126454819D02*
X82738095Y-126502438D01*
X82738095Y-126502438D02*
X82785714Y-126550057D01*
X82785714Y-126550057D02*
X82833333Y-126645295D01*
X82833333Y-126645295D02*
X82833333Y-126740533D01*
X82833333Y-126740533D02*
X82785714Y-126883390D01*
X82785714Y-126883390D02*
X82214286Y-127454819D01*
X82214286Y-127454819D02*
X82833333Y-127454819D01*
X75309524Y-114807200D02*
X75452381Y-114854819D01*
X75452381Y-114854819D02*
X75690476Y-114854819D01*
X75690476Y-114854819D02*
X75785714Y-114807200D01*
X75785714Y-114807200D02*
X75833333Y-114759580D01*
X75833333Y-114759580D02*
X75880952Y-114664342D01*
X75880952Y-114664342D02*
X75880952Y-114569104D01*
X75880952Y-114569104D02*
X75833333Y-114473866D01*
X75833333Y-114473866D02*
X75785714Y-114426247D01*
X75785714Y-114426247D02*
X75690476Y-114378628D01*
X75690476Y-114378628D02*
X75500000Y-114331009D01*
X75500000Y-114331009D02*
X75404762Y-114283390D01*
X75404762Y-114283390D02*
X75357143Y-114235771D01*
X75357143Y-114235771D02*
X75309524Y-114140533D01*
X75309524Y-114140533D02*
X75309524Y-114045295D01*
X75309524Y-114045295D02*
X75357143Y-113950057D01*
X75357143Y-113950057D02*
X75404762Y-113902438D01*
X75404762Y-113902438D02*
X75500000Y-113854819D01*
X75500000Y-113854819D02*
X75738095Y-113854819D01*
X75738095Y-113854819D02*
X75880952Y-113902438D01*
X76452381Y-114283390D02*
X76357143Y-114235771D01*
X76357143Y-114235771D02*
X76309524Y-114188152D01*
X76309524Y-114188152D02*
X76261905Y-114092914D01*
X76261905Y-114092914D02*
X76261905Y-114045295D01*
X76261905Y-114045295D02*
X76309524Y-113950057D01*
X76309524Y-113950057D02*
X76357143Y-113902438D01*
X76357143Y-113902438D02*
X76452381Y-113854819D01*
X76452381Y-113854819D02*
X76642857Y-113854819D01*
X76642857Y-113854819D02*
X76738095Y-113902438D01*
X76738095Y-113902438D02*
X76785714Y-113950057D01*
X76785714Y-113950057D02*
X76833333Y-114045295D01*
X76833333Y-114045295D02*
X76833333Y-114092914D01*
X76833333Y-114092914D02*
X76785714Y-114188152D01*
X76785714Y-114188152D02*
X76738095Y-114235771D01*
X76738095Y-114235771D02*
X76642857Y-114283390D01*
X76642857Y-114283390D02*
X76452381Y-114283390D01*
X76452381Y-114283390D02*
X76357143Y-114331009D01*
X76357143Y-114331009D02*
X76309524Y-114378628D01*
X76309524Y-114378628D02*
X76261905Y-114473866D01*
X76261905Y-114473866D02*
X76261905Y-114664342D01*
X76261905Y-114664342D02*
X76309524Y-114759580D01*
X76309524Y-114759580D02*
X76357143Y-114807200D01*
X76357143Y-114807200D02*
X76452381Y-114854819D01*
X76452381Y-114854819D02*
X76642857Y-114854819D01*
X76642857Y-114854819D02*
X76738095Y-114807200D01*
X76738095Y-114807200D02*
X76785714Y-114759580D01*
X76785714Y-114759580D02*
X76833333Y-114664342D01*
X76833333Y-114664342D02*
X76833333Y-114473866D01*
X76833333Y-114473866D02*
X76785714Y-114378628D01*
X76785714Y-114378628D02*
X76738095Y-114331009D01*
X76738095Y-114331009D02*
X76642857Y-114283390D01*
X77452381Y-113854819D02*
X77547619Y-113854819D01*
X77547619Y-113854819D02*
X77642857Y-113902438D01*
X77642857Y-113902438D02*
X77690476Y-113950057D01*
X77690476Y-113950057D02*
X77738095Y-114045295D01*
X77738095Y-114045295D02*
X77785714Y-114235771D01*
X77785714Y-114235771D02*
X77785714Y-114473866D01*
X77785714Y-114473866D02*
X77738095Y-114664342D01*
X77738095Y-114664342D02*
X77690476Y-114759580D01*
X77690476Y-114759580D02*
X77642857Y-114807200D01*
X77642857Y-114807200D02*
X77547619Y-114854819D01*
X77547619Y-114854819D02*
X77452381Y-114854819D01*
X77452381Y-114854819D02*
X77357143Y-114807200D01*
X77357143Y-114807200D02*
X77309524Y-114759580D01*
X77309524Y-114759580D02*
X77261905Y-114664342D01*
X77261905Y-114664342D02*
X77214286Y-114473866D01*
X77214286Y-114473866D02*
X77214286Y-114235771D01*
X77214286Y-114235771D02*
X77261905Y-114045295D01*
X77261905Y-114045295D02*
X77309524Y-113950057D01*
X77309524Y-113950057D02*
X77357143Y-113902438D01*
X77357143Y-113902438D02*
X77452381Y-113854819D01*
X78690476Y-113854819D02*
X78214286Y-113854819D01*
X78214286Y-113854819D02*
X78166667Y-114331009D01*
X78166667Y-114331009D02*
X78214286Y-114283390D01*
X78214286Y-114283390D02*
X78309524Y-114235771D01*
X78309524Y-114235771D02*
X78547619Y-114235771D01*
X78547619Y-114235771D02*
X78642857Y-114283390D01*
X78642857Y-114283390D02*
X78690476Y-114331009D01*
X78690476Y-114331009D02*
X78738095Y-114426247D01*
X78738095Y-114426247D02*
X78738095Y-114664342D01*
X78738095Y-114664342D02*
X78690476Y-114759580D01*
X78690476Y-114759580D02*
X78642857Y-114807200D01*
X78642857Y-114807200D02*
X78547619Y-114854819D01*
X78547619Y-114854819D02*
X78309524Y-114854819D01*
X78309524Y-114854819D02*
X78214286Y-114807200D01*
X78214286Y-114807200D02*
X78166667Y-114759580D01*
X79357143Y-113854819D02*
X79452381Y-113854819D01*
X79452381Y-113854819D02*
X79547619Y-113902438D01*
X79547619Y-113902438D02*
X79595238Y-113950057D01*
X79595238Y-113950057D02*
X79642857Y-114045295D01*
X79642857Y-114045295D02*
X79690476Y-114235771D01*
X79690476Y-114235771D02*
X79690476Y-114473866D01*
X79690476Y-114473866D02*
X79642857Y-114664342D01*
X79642857Y-114664342D02*
X79595238Y-114759580D01*
X79595238Y-114759580D02*
X79547619Y-114807200D01*
X79547619Y-114807200D02*
X79452381Y-114854819D01*
X79452381Y-114854819D02*
X79357143Y-114854819D01*
X79357143Y-114854819D02*
X79261905Y-114807200D01*
X79261905Y-114807200D02*
X79214286Y-114759580D01*
X79214286Y-114759580D02*
X79166667Y-114664342D01*
X79166667Y-114664342D02*
X79119048Y-114473866D01*
X79119048Y-114473866D02*
X79119048Y-114235771D01*
X79119048Y-114235771D02*
X79166667Y-114045295D01*
X79166667Y-114045295D02*
X79214286Y-113950057D01*
X79214286Y-113950057D02*
X79261905Y-113902438D01*
X79261905Y-113902438D02*
X79357143Y-113854819D01*
D13*
X77895937Y-112068571D02*
X77861651Y-112137142D01*
X77861651Y-112137142D02*
X77793080Y-112205714D01*
X77793080Y-112205714D02*
X77690222Y-112308571D01*
X77690222Y-112308571D02*
X77655937Y-112377142D01*
X77655937Y-112377142D02*
X77655937Y-112445714D01*
X77827365Y-112411428D02*
X77793080Y-112480000D01*
X77793080Y-112480000D02*
X77724508Y-112548571D01*
X77724508Y-112548571D02*
X77587365Y-112582857D01*
X77587365Y-112582857D02*
X77347365Y-112582857D01*
X77347365Y-112582857D02*
X77210222Y-112548571D01*
X77210222Y-112548571D02*
X77141651Y-112480000D01*
X77141651Y-112480000D02*
X77107365Y-112411428D01*
X77107365Y-112411428D02*
X77107365Y-112274285D01*
X77107365Y-112274285D02*
X77141651Y-112205714D01*
X77141651Y-112205714D02*
X77210222Y-112137142D01*
X77210222Y-112137142D02*
X77347365Y-112102857D01*
X77347365Y-112102857D02*
X77587365Y-112102857D01*
X77587365Y-112102857D02*
X77724508Y-112137142D01*
X77724508Y-112137142D02*
X77793080Y-112205714D01*
X77793080Y-112205714D02*
X77827365Y-112274285D01*
X77827365Y-112274285D02*
X77827365Y-112411428D01*
X77175937Y-111828571D02*
X77141651Y-111794285D01*
X77141651Y-111794285D02*
X77107365Y-111725714D01*
X77107365Y-111725714D02*
X77107365Y-111554285D01*
X77107365Y-111554285D02*
X77141651Y-111485714D01*
X77141651Y-111485714D02*
X77175937Y-111451428D01*
X77175937Y-111451428D02*
X77244508Y-111417142D01*
X77244508Y-111417142D02*
X77313080Y-111417142D01*
X77313080Y-111417142D02*
X77415937Y-111451428D01*
X77415937Y-111451428D02*
X77827365Y-111862856D01*
X77827365Y-111862856D02*
X77827365Y-111417142D01*
D10*
X55319048Y-108520057D02*
X55366667Y-108472438D01*
X55366667Y-108472438D02*
X55461905Y-108424819D01*
X55461905Y-108424819D02*
X55700000Y-108424819D01*
X55700000Y-108424819D02*
X55795238Y-108472438D01*
X55795238Y-108472438D02*
X55842857Y-108520057D01*
X55842857Y-108520057D02*
X55890476Y-108615295D01*
X55890476Y-108615295D02*
X55890476Y-108710533D01*
X55890476Y-108710533D02*
X55842857Y-108853390D01*
X55842857Y-108853390D02*
X55271429Y-109424819D01*
X55271429Y-109424819D02*
X55890476Y-109424819D01*
X56271429Y-108520057D02*
X56319048Y-108472438D01*
X56319048Y-108472438D02*
X56414286Y-108424819D01*
X56414286Y-108424819D02*
X56652381Y-108424819D01*
X56652381Y-108424819D02*
X56747619Y-108472438D01*
X56747619Y-108472438D02*
X56795238Y-108520057D01*
X56795238Y-108520057D02*
X56842857Y-108615295D01*
X56842857Y-108615295D02*
X56842857Y-108710533D01*
X56842857Y-108710533D02*
X56795238Y-108853390D01*
X56795238Y-108853390D02*
X56223810Y-109424819D01*
X56223810Y-109424819D02*
X56842857Y-109424819D01*
X57271429Y-109329580D02*
X57319048Y-109377200D01*
X57319048Y-109377200D02*
X57271429Y-109424819D01*
X57271429Y-109424819D02*
X57223810Y-109377200D01*
X57223810Y-109377200D02*
X57271429Y-109329580D01*
X57271429Y-109329580D02*
X57271429Y-109424819D01*
X58271428Y-109424819D02*
X57700000Y-109424819D01*
X57985714Y-109424819D02*
X57985714Y-108424819D01*
X57985714Y-108424819D02*
X57890476Y-108567676D01*
X57890476Y-108567676D02*
X57795238Y-108662914D01*
X57795238Y-108662914D02*
X57700000Y-108710533D01*
X58700000Y-109424819D02*
X58700000Y-108424819D01*
X58795238Y-109043866D02*
X59080952Y-109424819D01*
X59080952Y-108758152D02*
X58700000Y-109139104D01*
D11*
X57156667Y-107918200D02*
X57070000Y-107794391D01*
X57008095Y-107918200D02*
X57008095Y-107658200D01*
X57008095Y-107658200D02*
X57107143Y-107658200D01*
X57107143Y-107658200D02*
X57131905Y-107670581D01*
X57131905Y-107670581D02*
X57144286Y-107682962D01*
X57144286Y-107682962D02*
X57156667Y-107707724D01*
X57156667Y-107707724D02*
X57156667Y-107744867D01*
X57156667Y-107744867D02*
X57144286Y-107769629D01*
X57144286Y-107769629D02*
X57131905Y-107782010D01*
X57131905Y-107782010D02*
X57107143Y-107794391D01*
X57107143Y-107794391D02*
X57008095Y-107794391D01*
X57255714Y-107682962D02*
X57268095Y-107670581D01*
X57268095Y-107670581D02*
X57292857Y-107658200D01*
X57292857Y-107658200D02*
X57354762Y-107658200D01*
X57354762Y-107658200D02*
X57379524Y-107670581D01*
X57379524Y-107670581D02*
X57391905Y-107682962D01*
X57391905Y-107682962D02*
X57404286Y-107707724D01*
X57404286Y-107707724D02*
X57404286Y-107732486D01*
X57404286Y-107732486D02*
X57391905Y-107769629D01*
X57391905Y-107769629D02*
X57243333Y-107918200D01*
X57243333Y-107918200D02*
X57404286Y-107918200D01*
D10*
X68624819Y-105095238D02*
X68624819Y-105666666D01*
X68624819Y-105380952D02*
X67624819Y-105380952D01*
X67624819Y-105380952D02*
X67767676Y-105476190D01*
X67767676Y-105476190D02*
X67862914Y-105571428D01*
X67862914Y-105571428D02*
X67910533Y-105666666D01*
X67624819Y-104476190D02*
X67624819Y-104380952D01*
X67624819Y-104380952D02*
X67672438Y-104285714D01*
X67672438Y-104285714D02*
X67720057Y-104238095D01*
X67720057Y-104238095D02*
X67815295Y-104190476D01*
X67815295Y-104190476D02*
X68005771Y-104142857D01*
X68005771Y-104142857D02*
X68243866Y-104142857D01*
X68243866Y-104142857D02*
X68434342Y-104190476D01*
X68434342Y-104190476D02*
X68529580Y-104238095D01*
X68529580Y-104238095D02*
X68577200Y-104285714D01*
X68577200Y-104285714D02*
X68624819Y-104380952D01*
X68624819Y-104380952D02*
X68624819Y-104476190D01*
X68624819Y-104476190D02*
X68577200Y-104571428D01*
X68577200Y-104571428D02*
X68529580Y-104619047D01*
X68529580Y-104619047D02*
X68434342Y-104666666D01*
X68434342Y-104666666D02*
X68243866Y-104714285D01*
X68243866Y-104714285D02*
X68005771Y-104714285D01*
X68005771Y-104714285D02*
X67815295Y-104666666D01*
X67815295Y-104666666D02*
X67720057Y-104619047D01*
X67720057Y-104619047D02*
X67672438Y-104571428D01*
X67672438Y-104571428D02*
X67624819Y-104476190D01*
X68624819Y-103714285D02*
X67624819Y-103714285D01*
X68243866Y-103619047D02*
X68624819Y-103333333D01*
X67958152Y-103333333D02*
X68339104Y-103714285D01*
D11*
X67118200Y-104543332D02*
X66994391Y-104629999D01*
X67118200Y-104691904D02*
X66858200Y-104691904D01*
X66858200Y-104691904D02*
X66858200Y-104592856D01*
X66858200Y-104592856D02*
X66870581Y-104568094D01*
X66870581Y-104568094D02*
X66882962Y-104555713D01*
X66882962Y-104555713D02*
X66907724Y-104543332D01*
X66907724Y-104543332D02*
X66944867Y-104543332D01*
X66944867Y-104543332D02*
X66969629Y-104555713D01*
X66969629Y-104555713D02*
X66982010Y-104568094D01*
X66982010Y-104568094D02*
X66994391Y-104592856D01*
X66994391Y-104592856D02*
X66994391Y-104691904D01*
X66858200Y-104308094D02*
X66858200Y-104431904D01*
X66858200Y-104431904D02*
X66982010Y-104444285D01*
X66982010Y-104444285D02*
X66969629Y-104431904D01*
X66969629Y-104431904D02*
X66957248Y-104407142D01*
X66957248Y-104407142D02*
X66957248Y-104345237D01*
X66957248Y-104345237D02*
X66969629Y-104320475D01*
X66969629Y-104320475D02*
X66982010Y-104308094D01*
X66982010Y-104308094D02*
X67006772Y-104295713D01*
X67006772Y-104295713D02*
X67068677Y-104295713D01*
X67068677Y-104295713D02*
X67093439Y-104308094D01*
X67093439Y-104308094D02*
X67105820Y-104320475D01*
X67105820Y-104320475D02*
X67118200Y-104345237D01*
X67118200Y-104345237D02*
X67118200Y-104407142D01*
X67118200Y-104407142D02*
X67105820Y-104431904D01*
X67105820Y-104431904D02*
X67093439Y-104444285D01*
D10*
X54214285Y-117454819D02*
X53642857Y-117454819D01*
X53928571Y-117454819D02*
X53928571Y-116454819D01*
X53928571Y-116454819D02*
X53833333Y-116597676D01*
X53833333Y-116597676D02*
X53738095Y-116692914D01*
X53738095Y-116692914D02*
X53642857Y-116740533D01*
X54833333Y-116454819D02*
X54928571Y-116454819D01*
X54928571Y-116454819D02*
X55023809Y-116502438D01*
X55023809Y-116502438D02*
X55071428Y-116550057D01*
X55071428Y-116550057D02*
X55119047Y-116645295D01*
X55119047Y-116645295D02*
X55166666Y-116835771D01*
X55166666Y-116835771D02*
X55166666Y-117073866D01*
X55166666Y-117073866D02*
X55119047Y-117264342D01*
X55119047Y-117264342D02*
X55071428Y-117359580D01*
X55071428Y-117359580D02*
X55023809Y-117407200D01*
X55023809Y-117407200D02*
X54928571Y-117454819D01*
X54928571Y-117454819D02*
X54833333Y-117454819D01*
X54833333Y-117454819D02*
X54738095Y-117407200D01*
X54738095Y-117407200D02*
X54690476Y-117359580D01*
X54690476Y-117359580D02*
X54642857Y-117264342D01*
X54642857Y-117264342D02*
X54595238Y-117073866D01*
X54595238Y-117073866D02*
X54595238Y-116835771D01*
X54595238Y-116835771D02*
X54642857Y-116645295D01*
X54642857Y-116645295D02*
X54690476Y-116550057D01*
X54690476Y-116550057D02*
X54738095Y-116502438D01*
X54738095Y-116502438D02*
X54833333Y-116454819D01*
X56023809Y-116788152D02*
X56023809Y-117454819D01*
X55595238Y-116788152D02*
X55595238Y-117311961D01*
X55595238Y-117311961D02*
X55642857Y-117407200D01*
X55642857Y-117407200D02*
X55738095Y-117454819D01*
X55738095Y-117454819D02*
X55880952Y-117454819D01*
X55880952Y-117454819D02*
X55976190Y-117407200D01*
X55976190Y-117407200D02*
X56023809Y-117359580D01*
X56500000Y-117454819D02*
X56500000Y-116454819D01*
X56500000Y-116931009D02*
X57071428Y-116931009D01*
X57071428Y-117454819D02*
X57071428Y-116454819D01*
X58261904Y-116407200D02*
X57404762Y-117692914D01*
X58547619Y-116550057D02*
X58595238Y-116502438D01*
X58595238Y-116502438D02*
X58690476Y-116454819D01*
X58690476Y-116454819D02*
X58928571Y-116454819D01*
X58928571Y-116454819D02*
X59023809Y-116502438D01*
X59023809Y-116502438D02*
X59071428Y-116550057D01*
X59071428Y-116550057D02*
X59119047Y-116645295D01*
X59119047Y-116645295D02*
X59119047Y-116740533D01*
X59119047Y-116740533D02*
X59071428Y-116883390D01*
X59071428Y-116883390D02*
X58500000Y-117454819D01*
X58500000Y-117454819D02*
X59119047Y-117454819D01*
X59547619Y-117359580D02*
X59595238Y-117407200D01*
X59595238Y-117407200D02*
X59547619Y-117454819D01*
X59547619Y-117454819D02*
X59500000Y-117407200D01*
X59500000Y-117407200D02*
X59547619Y-117359580D01*
X59547619Y-117359580D02*
X59547619Y-117454819D01*
X60452380Y-116788152D02*
X60452380Y-117454819D01*
X60214285Y-116407200D02*
X59976190Y-117121485D01*
X59976190Y-117121485D02*
X60595237Y-117121485D01*
X61452380Y-116454819D02*
X60976190Y-116454819D01*
X60976190Y-116454819D02*
X60928571Y-116931009D01*
X60928571Y-116931009D02*
X60976190Y-116883390D01*
X60976190Y-116883390D02*
X61071428Y-116835771D01*
X61071428Y-116835771D02*
X61309523Y-116835771D01*
X61309523Y-116835771D02*
X61404761Y-116883390D01*
X61404761Y-116883390D02*
X61452380Y-116931009D01*
X61452380Y-116931009D02*
X61499999Y-117026247D01*
X61499999Y-117026247D02*
X61499999Y-117264342D01*
X61499999Y-117264342D02*
X61452380Y-117359580D01*
X61452380Y-117359580D02*
X61404761Y-117407200D01*
X61404761Y-117407200D02*
X61309523Y-117454819D01*
X61309523Y-117454819D02*
X61071428Y-117454819D01*
X61071428Y-117454819D02*
X60976190Y-117407200D01*
X60976190Y-117407200D02*
X60928571Y-117359580D01*
X61880952Y-117169104D02*
X62357142Y-117169104D01*
X61785714Y-117454819D02*
X62119047Y-116454819D01*
X62119047Y-116454819D02*
X62452380Y-117454819D01*
X57833333Y-113454819D02*
X57357143Y-113454819D01*
X57357143Y-113454819D02*
X57357143Y-112454819D01*
X58690476Y-113454819D02*
X58119048Y-113454819D01*
X58404762Y-113454819D02*
X58404762Y-112454819D01*
X58404762Y-112454819D02*
X58309524Y-112597676D01*
X58309524Y-112597676D02*
X58214286Y-112692914D01*
X58214286Y-112692914D02*
X58119048Y-112740533D01*
X51835714Y-95657200D02*
X51978571Y-95704819D01*
X51978571Y-95704819D02*
X52216666Y-95704819D01*
X52216666Y-95704819D02*
X52311904Y-95657200D01*
X52311904Y-95657200D02*
X52359523Y-95609580D01*
X52359523Y-95609580D02*
X52407142Y-95514342D01*
X52407142Y-95514342D02*
X52407142Y-95419104D01*
X52407142Y-95419104D02*
X52359523Y-95323866D01*
X52359523Y-95323866D02*
X52311904Y-95276247D01*
X52311904Y-95276247D02*
X52216666Y-95228628D01*
X52216666Y-95228628D02*
X52026190Y-95181009D01*
X52026190Y-95181009D02*
X51930952Y-95133390D01*
X51930952Y-95133390D02*
X51883333Y-95085771D01*
X51883333Y-95085771D02*
X51835714Y-94990533D01*
X51835714Y-94990533D02*
X51835714Y-94895295D01*
X51835714Y-94895295D02*
X51883333Y-94800057D01*
X51883333Y-94800057D02*
X51930952Y-94752438D01*
X51930952Y-94752438D02*
X52026190Y-94704819D01*
X52026190Y-94704819D02*
X52264285Y-94704819D01*
X52264285Y-94704819D02*
X52407142Y-94752438D01*
X52788095Y-95657200D02*
X52930952Y-95704819D01*
X52930952Y-95704819D02*
X53169047Y-95704819D01*
X53169047Y-95704819D02*
X53264285Y-95657200D01*
X53264285Y-95657200D02*
X53311904Y-95609580D01*
X53311904Y-95609580D02*
X53359523Y-95514342D01*
X53359523Y-95514342D02*
X53359523Y-95419104D01*
X53359523Y-95419104D02*
X53311904Y-95323866D01*
X53311904Y-95323866D02*
X53264285Y-95276247D01*
X53264285Y-95276247D02*
X53169047Y-95228628D01*
X53169047Y-95228628D02*
X52978571Y-95181009D01*
X52978571Y-95181009D02*
X52883333Y-95133390D01*
X52883333Y-95133390D02*
X52835714Y-95085771D01*
X52835714Y-95085771D02*
X52788095Y-94990533D01*
X52788095Y-94990533D02*
X52788095Y-94895295D01*
X52788095Y-94895295D02*
X52835714Y-94800057D01*
X52835714Y-94800057D02*
X52883333Y-94752438D01*
X52883333Y-94752438D02*
X52978571Y-94704819D01*
X52978571Y-94704819D02*
X53216666Y-94704819D01*
X53216666Y-94704819D02*
X53359523Y-94752438D01*
X53692857Y-94704819D02*
X54311904Y-94704819D01*
X54311904Y-94704819D02*
X53978571Y-95085771D01*
X53978571Y-95085771D02*
X54121428Y-95085771D01*
X54121428Y-95085771D02*
X54216666Y-95133390D01*
X54216666Y-95133390D02*
X54264285Y-95181009D01*
X54264285Y-95181009D02*
X54311904Y-95276247D01*
X54311904Y-95276247D02*
X54311904Y-95514342D01*
X54311904Y-95514342D02*
X54264285Y-95609580D01*
X54264285Y-95609580D02*
X54216666Y-95657200D01*
X54216666Y-95657200D02*
X54121428Y-95704819D01*
X54121428Y-95704819D02*
X53835714Y-95704819D01*
X53835714Y-95704819D02*
X53740476Y-95657200D01*
X53740476Y-95657200D02*
X53692857Y-95609580D01*
X55169047Y-95038152D02*
X55169047Y-95704819D01*
X54930952Y-94657200D02*
X54692857Y-95371485D01*
X54692857Y-95371485D02*
X55311904Y-95371485D01*
X52811905Y-90604819D02*
X52811905Y-89604819D01*
X52811905Y-89604819D02*
X53050000Y-89604819D01*
X53050000Y-89604819D02*
X53192857Y-89652438D01*
X53192857Y-89652438D02*
X53288095Y-89747676D01*
X53288095Y-89747676D02*
X53335714Y-89842914D01*
X53335714Y-89842914D02*
X53383333Y-90033390D01*
X53383333Y-90033390D02*
X53383333Y-90176247D01*
X53383333Y-90176247D02*
X53335714Y-90366723D01*
X53335714Y-90366723D02*
X53288095Y-90461961D01*
X53288095Y-90461961D02*
X53192857Y-90557200D01*
X53192857Y-90557200D02*
X53050000Y-90604819D01*
X53050000Y-90604819D02*
X52811905Y-90604819D01*
X53716667Y-89604819D02*
X54335714Y-89604819D01*
X54335714Y-89604819D02*
X54002381Y-89985771D01*
X54002381Y-89985771D02*
X54145238Y-89985771D01*
X54145238Y-89985771D02*
X54240476Y-90033390D01*
X54240476Y-90033390D02*
X54288095Y-90081009D01*
X54288095Y-90081009D02*
X54335714Y-90176247D01*
X54335714Y-90176247D02*
X54335714Y-90414342D01*
X54335714Y-90414342D02*
X54288095Y-90509580D01*
X54288095Y-90509580D02*
X54240476Y-90557200D01*
X54240476Y-90557200D02*
X54145238Y-90604819D01*
X54145238Y-90604819D02*
X53859524Y-90604819D01*
X53859524Y-90604819D02*
X53764286Y-90557200D01*
X53764286Y-90557200D02*
X53716667Y-90509580D01*
X81504819Y-117904761D02*
X81504819Y-118095237D01*
X81504819Y-118095237D02*
X81552438Y-118190475D01*
X81552438Y-118190475D02*
X81600057Y-118238094D01*
X81600057Y-118238094D02*
X81742914Y-118333332D01*
X81742914Y-118333332D02*
X81933390Y-118380951D01*
X81933390Y-118380951D02*
X82314342Y-118380951D01*
X82314342Y-118380951D02*
X82409580Y-118333332D01*
X82409580Y-118333332D02*
X82457200Y-118285713D01*
X82457200Y-118285713D02*
X82504819Y-118190475D01*
X82504819Y-118190475D02*
X82504819Y-117999999D01*
X82504819Y-117999999D02*
X82457200Y-117904761D01*
X82457200Y-117904761D02*
X82409580Y-117857142D01*
X82409580Y-117857142D02*
X82314342Y-117809523D01*
X82314342Y-117809523D02*
X82076247Y-117809523D01*
X82076247Y-117809523D02*
X81981009Y-117857142D01*
X81981009Y-117857142D02*
X81933390Y-117904761D01*
X81933390Y-117904761D02*
X81885771Y-117999999D01*
X81885771Y-117999999D02*
X81885771Y-118190475D01*
X81885771Y-118190475D02*
X81933390Y-118285713D01*
X81933390Y-118285713D02*
X81981009Y-118333332D01*
X81981009Y-118333332D02*
X82076247Y-118380951D01*
X81504819Y-117190475D02*
X81504819Y-117095237D01*
X81504819Y-117095237D02*
X81552438Y-116999999D01*
X81552438Y-116999999D02*
X81600057Y-116952380D01*
X81600057Y-116952380D02*
X81695295Y-116904761D01*
X81695295Y-116904761D02*
X81885771Y-116857142D01*
X81885771Y-116857142D02*
X82123866Y-116857142D01*
X82123866Y-116857142D02*
X82314342Y-116904761D01*
X82314342Y-116904761D02*
X82409580Y-116952380D01*
X82409580Y-116952380D02*
X82457200Y-116999999D01*
X82457200Y-116999999D02*
X82504819Y-117095237D01*
X82504819Y-117095237D02*
X82504819Y-117190475D01*
X82504819Y-117190475D02*
X82457200Y-117285713D01*
X82457200Y-117285713D02*
X82409580Y-117333332D01*
X82409580Y-117333332D02*
X82314342Y-117380951D01*
X82314342Y-117380951D02*
X82123866Y-117428570D01*
X82123866Y-117428570D02*
X81885771Y-117428570D01*
X81885771Y-117428570D02*
X81695295Y-117380951D01*
X81695295Y-117380951D02*
X81600057Y-117333332D01*
X81600057Y-117333332D02*
X81552438Y-117285713D01*
X81552438Y-117285713D02*
X81504819Y-117190475D01*
X81504819Y-116238094D02*
X81504819Y-116142856D01*
X81504819Y-116142856D02*
X81552438Y-116047618D01*
X81552438Y-116047618D02*
X81600057Y-115999999D01*
X81600057Y-115999999D02*
X81695295Y-115952380D01*
X81695295Y-115952380D02*
X81885771Y-115904761D01*
X81885771Y-115904761D02*
X82123866Y-115904761D01*
X82123866Y-115904761D02*
X82314342Y-115952380D01*
X82314342Y-115952380D02*
X82409580Y-115999999D01*
X82409580Y-115999999D02*
X82457200Y-116047618D01*
X82457200Y-116047618D02*
X82504819Y-116142856D01*
X82504819Y-116142856D02*
X82504819Y-116238094D01*
X82504819Y-116238094D02*
X82457200Y-116333332D01*
X82457200Y-116333332D02*
X82409580Y-116380951D01*
X82409580Y-116380951D02*
X82314342Y-116428570D01*
X82314342Y-116428570D02*
X82123866Y-116476189D01*
X82123866Y-116476189D02*
X81885771Y-116476189D01*
X81885771Y-116476189D02*
X81695295Y-116428570D01*
X81695295Y-116428570D02*
X81600057Y-116380951D01*
X81600057Y-116380951D02*
X81552438Y-116333332D01*
X81552438Y-116333332D02*
X81504819Y-116238094D01*
X82504819Y-114904761D02*
X82028628Y-115238094D01*
X82504819Y-115476189D02*
X81504819Y-115476189D01*
X81504819Y-115476189D02*
X81504819Y-115095237D01*
X81504819Y-115095237D02*
X81552438Y-114999999D01*
X81552438Y-114999999D02*
X81600057Y-114952380D01*
X81600057Y-114952380D02*
X81695295Y-114904761D01*
X81695295Y-114904761D02*
X81838152Y-114904761D01*
X81838152Y-114904761D02*
X81933390Y-114952380D01*
X81933390Y-114952380D02*
X81981009Y-114999999D01*
X81981009Y-114999999D02*
X82028628Y-115095237D01*
X82028628Y-115095237D02*
X82028628Y-115476189D01*
X81457200Y-113761904D02*
X82742914Y-114619046D01*
X81504819Y-113523808D02*
X81504819Y-112904761D01*
X81504819Y-112904761D02*
X81885771Y-113238094D01*
X81885771Y-113238094D02*
X81885771Y-113095237D01*
X81885771Y-113095237D02*
X81933390Y-112999999D01*
X81933390Y-112999999D02*
X81981009Y-112952380D01*
X81981009Y-112952380D02*
X82076247Y-112904761D01*
X82076247Y-112904761D02*
X82314342Y-112904761D01*
X82314342Y-112904761D02*
X82409580Y-112952380D01*
X82409580Y-112952380D02*
X82457200Y-112999999D01*
X82457200Y-112999999D02*
X82504819Y-113095237D01*
X82504819Y-113095237D02*
X82504819Y-113380951D01*
X82504819Y-113380951D02*
X82457200Y-113476189D01*
X82457200Y-113476189D02*
X82409580Y-113523808D01*
X82409580Y-112476189D02*
X82457200Y-112428570D01*
X82457200Y-112428570D02*
X82504819Y-112476189D01*
X82504819Y-112476189D02*
X82457200Y-112523808D01*
X82457200Y-112523808D02*
X82409580Y-112476189D01*
X82409580Y-112476189D02*
X82504819Y-112476189D01*
X81504819Y-111523809D02*
X81504819Y-111999999D01*
X81504819Y-111999999D02*
X81981009Y-112047618D01*
X81981009Y-112047618D02*
X81933390Y-111999999D01*
X81933390Y-111999999D02*
X81885771Y-111904761D01*
X81885771Y-111904761D02*
X81885771Y-111666666D01*
X81885771Y-111666666D02*
X81933390Y-111571428D01*
X81933390Y-111571428D02*
X81981009Y-111523809D01*
X81981009Y-111523809D02*
X82076247Y-111476190D01*
X82076247Y-111476190D02*
X82314342Y-111476190D01*
X82314342Y-111476190D02*
X82409580Y-111523809D01*
X82409580Y-111523809D02*
X82457200Y-111571428D01*
X82457200Y-111571428D02*
X82504819Y-111666666D01*
X82504819Y-111666666D02*
X82504819Y-111904761D01*
X82504819Y-111904761D02*
X82457200Y-111999999D01*
X82457200Y-111999999D02*
X82409580Y-112047618D01*
X82219104Y-111095237D02*
X82219104Y-110619047D01*
X82504819Y-111190475D02*
X81504819Y-110857142D01*
X81504819Y-110857142D02*
X82504819Y-110523809D01*
D12*
X80465244Y-114916665D02*
X80465244Y-115083332D01*
X80727149Y-115083332D02*
X80227149Y-115083332D01*
X80227149Y-115083332D02*
X80227149Y-114845237D01*
X80465244Y-114488094D02*
X80489054Y-114416666D01*
X80489054Y-114416666D02*
X80512863Y-114392856D01*
X80512863Y-114392856D02*
X80560482Y-114369047D01*
X80560482Y-114369047D02*
X80631911Y-114369047D01*
X80631911Y-114369047D02*
X80679530Y-114392856D01*
X80679530Y-114392856D02*
X80703340Y-114416666D01*
X80703340Y-114416666D02*
X80727149Y-114464285D01*
X80727149Y-114464285D02*
X80727149Y-114654761D01*
X80727149Y-114654761D02*
X80227149Y-114654761D01*
X80227149Y-114654761D02*
X80227149Y-114488094D01*
X80227149Y-114488094D02*
X80250959Y-114440475D01*
X80250959Y-114440475D02*
X80274768Y-114416666D01*
X80274768Y-114416666D02*
X80322387Y-114392856D01*
X80322387Y-114392856D02*
X80370006Y-114392856D01*
X80370006Y-114392856D02*
X80417625Y-114416666D01*
X80417625Y-114416666D02*
X80441435Y-114440475D01*
X80441435Y-114440475D02*
X80465244Y-114488094D01*
X80465244Y-114488094D02*
X80465244Y-114654761D01*
X80727149Y-113892856D02*
X80727149Y-114178570D01*
X80727149Y-114035713D02*
X80227149Y-114035713D01*
X80227149Y-114035713D02*
X80298578Y-114083332D01*
X80298578Y-114083332D02*
X80346197Y-114130951D01*
X80346197Y-114130951D02*
X80370006Y-114178570D01*
D10*
X72854819Y-125690475D02*
X73664342Y-125690475D01*
X73664342Y-125690475D02*
X73759580Y-125642856D01*
X73759580Y-125642856D02*
X73807200Y-125595237D01*
X73807200Y-125595237D02*
X73854819Y-125499999D01*
X73854819Y-125499999D02*
X73854819Y-125309523D01*
X73854819Y-125309523D02*
X73807200Y-125214285D01*
X73807200Y-125214285D02*
X73759580Y-125166666D01*
X73759580Y-125166666D02*
X73664342Y-125119047D01*
X73664342Y-125119047D02*
X72854819Y-125119047D01*
X73807200Y-124690475D02*
X73854819Y-124547618D01*
X73854819Y-124547618D02*
X73854819Y-124309523D01*
X73854819Y-124309523D02*
X73807200Y-124214285D01*
X73807200Y-124214285D02*
X73759580Y-124166666D01*
X73759580Y-124166666D02*
X73664342Y-124119047D01*
X73664342Y-124119047D02*
X73569104Y-124119047D01*
X73569104Y-124119047D02*
X73473866Y-124166666D01*
X73473866Y-124166666D02*
X73426247Y-124214285D01*
X73426247Y-124214285D02*
X73378628Y-124309523D01*
X73378628Y-124309523D02*
X73331009Y-124499999D01*
X73331009Y-124499999D02*
X73283390Y-124595237D01*
X73283390Y-124595237D02*
X73235771Y-124642856D01*
X73235771Y-124642856D02*
X73140533Y-124690475D01*
X73140533Y-124690475D02*
X73045295Y-124690475D01*
X73045295Y-124690475D02*
X72950057Y-124642856D01*
X72950057Y-124642856D02*
X72902438Y-124595237D01*
X72902438Y-124595237D02*
X72854819Y-124499999D01*
X72854819Y-124499999D02*
X72854819Y-124261904D01*
X72854819Y-124261904D02*
X72902438Y-124119047D01*
X73331009Y-123357142D02*
X73378628Y-123214285D01*
X73378628Y-123214285D02*
X73426247Y-123166666D01*
X73426247Y-123166666D02*
X73521485Y-123119047D01*
X73521485Y-123119047D02*
X73664342Y-123119047D01*
X73664342Y-123119047D02*
X73759580Y-123166666D01*
X73759580Y-123166666D02*
X73807200Y-123214285D01*
X73807200Y-123214285D02*
X73854819Y-123309523D01*
X73854819Y-123309523D02*
X73854819Y-123690475D01*
X73854819Y-123690475D02*
X72854819Y-123690475D01*
X72854819Y-123690475D02*
X72854819Y-123357142D01*
X72854819Y-123357142D02*
X72902438Y-123261904D01*
X72902438Y-123261904D02*
X72950057Y-123214285D01*
X72950057Y-123214285D02*
X73045295Y-123166666D01*
X73045295Y-123166666D02*
X73140533Y-123166666D01*
X73140533Y-123166666D02*
X73235771Y-123214285D01*
X73235771Y-123214285D02*
X73283390Y-123261904D01*
X73283390Y-123261904D02*
X73331009Y-123357142D01*
X73331009Y-123357142D02*
X73331009Y-123690475D01*
X73854819Y-122214285D02*
X73854819Y-122690475D01*
X73854819Y-122690475D02*
X72854819Y-122690475D01*
X73759580Y-121309523D02*
X73807200Y-121357142D01*
X73807200Y-121357142D02*
X73854819Y-121499999D01*
X73854819Y-121499999D02*
X73854819Y-121595237D01*
X73854819Y-121595237D02*
X73807200Y-121738094D01*
X73807200Y-121738094D02*
X73711961Y-121833332D01*
X73711961Y-121833332D02*
X73616723Y-121880951D01*
X73616723Y-121880951D02*
X73426247Y-121928570D01*
X73426247Y-121928570D02*
X73283390Y-121928570D01*
X73283390Y-121928570D02*
X73092914Y-121880951D01*
X73092914Y-121880951D02*
X72997676Y-121833332D01*
X72997676Y-121833332D02*
X72902438Y-121738094D01*
X72902438Y-121738094D02*
X72854819Y-121595237D01*
X72854819Y-121595237D02*
X72854819Y-121499999D01*
X72854819Y-121499999D02*
X72902438Y-121357142D01*
X72902438Y-121357142D02*
X72950057Y-121309523D01*
X72854819Y-120452380D02*
X72854819Y-120642856D01*
X72854819Y-120642856D02*
X72902438Y-120738094D01*
X72902438Y-120738094D02*
X72950057Y-120785713D01*
X72950057Y-120785713D02*
X73092914Y-120880951D01*
X73092914Y-120880951D02*
X73283390Y-120928570D01*
X73283390Y-120928570D02*
X73664342Y-120928570D01*
X73664342Y-120928570D02*
X73759580Y-120880951D01*
X73759580Y-120880951D02*
X73807200Y-120833332D01*
X73807200Y-120833332D02*
X73854819Y-120738094D01*
X73854819Y-120738094D02*
X73854819Y-120547618D01*
X73854819Y-120547618D02*
X73807200Y-120452380D01*
X73807200Y-120452380D02*
X73759580Y-120404761D01*
X73759580Y-120404761D02*
X73664342Y-120357142D01*
X73664342Y-120357142D02*
X73426247Y-120357142D01*
X73426247Y-120357142D02*
X73331009Y-120404761D01*
X73331009Y-120404761D02*
X73283390Y-120452380D01*
X73283390Y-120452380D02*
X73235771Y-120547618D01*
X73235771Y-120547618D02*
X73235771Y-120738094D01*
X73235771Y-120738094D02*
X73283390Y-120833332D01*
X73283390Y-120833332D02*
X73331009Y-120880951D01*
X73331009Y-120880951D02*
X73426247Y-120928570D01*
X73473866Y-119928570D02*
X73473866Y-119166666D01*
X72950057Y-118738094D02*
X72902438Y-118690475D01*
X72902438Y-118690475D02*
X72854819Y-118595237D01*
X72854819Y-118595237D02*
X72854819Y-118357142D01*
X72854819Y-118357142D02*
X72902438Y-118261904D01*
X72902438Y-118261904D02*
X72950057Y-118214285D01*
X72950057Y-118214285D02*
X73045295Y-118166666D01*
X73045295Y-118166666D02*
X73140533Y-118166666D01*
X73140533Y-118166666D02*
X73283390Y-118214285D01*
X73283390Y-118214285D02*
X73854819Y-118785713D01*
X73854819Y-118785713D02*
X73854819Y-118166666D01*
X73807200Y-117785713D02*
X73854819Y-117642856D01*
X73854819Y-117642856D02*
X73854819Y-117404761D01*
X73854819Y-117404761D02*
X73807200Y-117309523D01*
X73807200Y-117309523D02*
X73759580Y-117261904D01*
X73759580Y-117261904D02*
X73664342Y-117214285D01*
X73664342Y-117214285D02*
X73569104Y-117214285D01*
X73569104Y-117214285D02*
X73473866Y-117261904D01*
X73473866Y-117261904D02*
X73426247Y-117309523D01*
X73426247Y-117309523D02*
X73378628Y-117404761D01*
X73378628Y-117404761D02*
X73331009Y-117595237D01*
X73331009Y-117595237D02*
X73283390Y-117690475D01*
X73283390Y-117690475D02*
X73235771Y-117738094D01*
X73235771Y-117738094D02*
X73140533Y-117785713D01*
X73140533Y-117785713D02*
X73045295Y-117785713D01*
X73045295Y-117785713D02*
X72950057Y-117738094D01*
X72950057Y-117738094D02*
X72902438Y-117690475D01*
X72902438Y-117690475D02*
X72854819Y-117595237D01*
X72854819Y-117595237D02*
X72854819Y-117357142D01*
X72854819Y-117357142D02*
X72902438Y-117214285D01*
X73759580Y-116214285D02*
X73807200Y-116261904D01*
X73807200Y-116261904D02*
X73854819Y-116404761D01*
X73854819Y-116404761D02*
X73854819Y-116499999D01*
X73854819Y-116499999D02*
X73807200Y-116642856D01*
X73807200Y-116642856D02*
X73711961Y-116738094D01*
X73711961Y-116738094D02*
X73616723Y-116785713D01*
X73616723Y-116785713D02*
X73426247Y-116833332D01*
X73426247Y-116833332D02*
X73283390Y-116833332D01*
X73283390Y-116833332D02*
X73092914Y-116785713D01*
X73092914Y-116785713D02*
X72997676Y-116738094D01*
X72997676Y-116738094D02*
X72902438Y-116642856D01*
X72902438Y-116642856D02*
X72854819Y-116499999D01*
X72854819Y-116499999D02*
X72854819Y-116404761D01*
X72854819Y-116404761D02*
X72902438Y-116261904D01*
X72902438Y-116261904D02*
X72950057Y-116214285D01*
X72854819Y-115357142D02*
X72854819Y-115547618D01*
X72854819Y-115547618D02*
X72902438Y-115642856D01*
X72902438Y-115642856D02*
X72950057Y-115690475D01*
X72950057Y-115690475D02*
X73092914Y-115785713D01*
X73092914Y-115785713D02*
X73283390Y-115833332D01*
X73283390Y-115833332D02*
X73664342Y-115833332D01*
X73664342Y-115833332D02*
X73759580Y-115785713D01*
X73759580Y-115785713D02*
X73807200Y-115738094D01*
X73807200Y-115738094D02*
X73854819Y-115642856D01*
X73854819Y-115642856D02*
X73854819Y-115452380D01*
X73854819Y-115452380D02*
X73807200Y-115357142D01*
X73807200Y-115357142D02*
X73759580Y-115309523D01*
X73759580Y-115309523D02*
X73664342Y-115261904D01*
X73664342Y-115261904D02*
X73426247Y-115261904D01*
X73426247Y-115261904D02*
X73331009Y-115309523D01*
X73331009Y-115309523D02*
X73283390Y-115357142D01*
X73283390Y-115357142D02*
X73235771Y-115452380D01*
X73235771Y-115452380D02*
X73235771Y-115642856D01*
X73235771Y-115642856D02*
X73283390Y-115738094D01*
X73283390Y-115738094D02*
X73331009Y-115785713D01*
X73331009Y-115785713D02*
X73426247Y-115833332D01*
D13*
X70451428Y-120107365D02*
X70451428Y-120690222D01*
X70451428Y-120690222D02*
X70485714Y-120758794D01*
X70485714Y-120758794D02*
X70520000Y-120793080D01*
X70520000Y-120793080D02*
X70588571Y-120827365D01*
X70588571Y-120827365D02*
X70725714Y-120827365D01*
X70725714Y-120827365D02*
X70794285Y-120793080D01*
X70794285Y-120793080D02*
X70828571Y-120758794D01*
X70828571Y-120758794D02*
X70862857Y-120690222D01*
X70862857Y-120690222D02*
X70862857Y-120107365D01*
X71137143Y-120107365D02*
X71582857Y-120107365D01*
X71582857Y-120107365D02*
X71342857Y-120381651D01*
X71342857Y-120381651D02*
X71445714Y-120381651D01*
X71445714Y-120381651D02*
X71514286Y-120415937D01*
X71514286Y-120415937D02*
X71548571Y-120450222D01*
X71548571Y-120450222D02*
X71582857Y-120518794D01*
X71582857Y-120518794D02*
X71582857Y-120690222D01*
X71582857Y-120690222D02*
X71548571Y-120758794D01*
X71548571Y-120758794D02*
X71514286Y-120793080D01*
X71514286Y-120793080D02*
X71445714Y-120827365D01*
X71445714Y-120827365D02*
X71240000Y-120827365D01*
X71240000Y-120827365D02*
X71171428Y-120793080D01*
X71171428Y-120793080D02*
X71137143Y-120758794D01*
D10*
X60824819Y-60595238D02*
X60824819Y-61166666D01*
X60824819Y-60880952D02*
X59824819Y-60880952D01*
X59824819Y-60880952D02*
X59967676Y-60976190D01*
X59967676Y-60976190D02*
X60062914Y-61071428D01*
X60062914Y-61071428D02*
X60110533Y-61166666D01*
X59824819Y-59976190D02*
X59824819Y-59880952D01*
X59824819Y-59880952D02*
X59872438Y-59785714D01*
X59872438Y-59785714D02*
X59920057Y-59738095D01*
X59920057Y-59738095D02*
X60015295Y-59690476D01*
X60015295Y-59690476D02*
X60205771Y-59642857D01*
X60205771Y-59642857D02*
X60443866Y-59642857D01*
X60443866Y-59642857D02*
X60634342Y-59690476D01*
X60634342Y-59690476D02*
X60729580Y-59738095D01*
X60729580Y-59738095D02*
X60777200Y-59785714D01*
X60777200Y-59785714D02*
X60824819Y-59880952D01*
X60824819Y-59880952D02*
X60824819Y-59976190D01*
X60824819Y-59976190D02*
X60777200Y-60071428D01*
X60777200Y-60071428D02*
X60729580Y-60119047D01*
X60729580Y-60119047D02*
X60634342Y-60166666D01*
X60634342Y-60166666D02*
X60443866Y-60214285D01*
X60443866Y-60214285D02*
X60205771Y-60214285D01*
X60205771Y-60214285D02*
X60015295Y-60166666D01*
X60015295Y-60166666D02*
X59920057Y-60119047D01*
X59920057Y-60119047D02*
X59872438Y-60071428D01*
X59872438Y-60071428D02*
X59824819Y-59976190D01*
X60824819Y-59214285D02*
X59824819Y-59214285D01*
X60443866Y-59119047D02*
X60824819Y-58833333D01*
X60158152Y-58833333D02*
X60539104Y-59214285D01*
D11*
X59318200Y-60043332D02*
X59194391Y-60129999D01*
X59318200Y-60191904D02*
X59058200Y-60191904D01*
X59058200Y-60191904D02*
X59058200Y-60092856D01*
X59058200Y-60092856D02*
X59070581Y-60068094D01*
X59070581Y-60068094D02*
X59082962Y-60055713D01*
X59082962Y-60055713D02*
X59107724Y-60043332D01*
X59107724Y-60043332D02*
X59144867Y-60043332D01*
X59144867Y-60043332D02*
X59169629Y-60055713D01*
X59169629Y-60055713D02*
X59182010Y-60068094D01*
X59182010Y-60068094D02*
X59194391Y-60092856D01*
X59194391Y-60092856D02*
X59194391Y-60191904D01*
X59058200Y-59956666D02*
X59058200Y-59795713D01*
X59058200Y-59795713D02*
X59157248Y-59882380D01*
X59157248Y-59882380D02*
X59157248Y-59845237D01*
X59157248Y-59845237D02*
X59169629Y-59820475D01*
X59169629Y-59820475D02*
X59182010Y-59808094D01*
X59182010Y-59808094D02*
X59206772Y-59795713D01*
X59206772Y-59795713D02*
X59268677Y-59795713D01*
X59268677Y-59795713D02*
X59293439Y-59808094D01*
X59293439Y-59808094D02*
X59305820Y-59820475D01*
X59305820Y-59820475D02*
X59318200Y-59845237D01*
X59318200Y-59845237D02*
X59318200Y-59919523D01*
X59318200Y-59919523D02*
X59305820Y-59944285D01*
X59305820Y-59944285D02*
X59293439Y-59956666D01*
D10*
X60814819Y-63166666D02*
X60814819Y-63738094D01*
X60814819Y-63452380D02*
X59814819Y-63452380D01*
X59814819Y-63452380D02*
X59957676Y-63547618D01*
X59957676Y-63547618D02*
X60052914Y-63642856D01*
X60052914Y-63642856D02*
X60100533Y-63738094D01*
X60148152Y-62309523D02*
X60814819Y-62309523D01*
X60148152Y-62738094D02*
X60671961Y-62738094D01*
X60671961Y-62738094D02*
X60767200Y-62690475D01*
X60767200Y-62690475D02*
X60814819Y-62595237D01*
X60814819Y-62595237D02*
X60814819Y-62452380D01*
X60814819Y-62452380D02*
X60767200Y-62357142D01*
X60767200Y-62357142D02*
X60719580Y-62309523D01*
D11*
X59289765Y-63041666D02*
X59301670Y-63053570D01*
X59301670Y-63053570D02*
X59313574Y-63089285D01*
X59313574Y-63089285D02*
X59313574Y-63113094D01*
X59313574Y-63113094D02*
X59301670Y-63148808D01*
X59301670Y-63148808D02*
X59277860Y-63172618D01*
X59277860Y-63172618D02*
X59254050Y-63184523D01*
X59254050Y-63184523D02*
X59206431Y-63196427D01*
X59206431Y-63196427D02*
X59170717Y-63196427D01*
X59170717Y-63196427D02*
X59123098Y-63184523D01*
X59123098Y-63184523D02*
X59099289Y-63172618D01*
X59099289Y-63172618D02*
X59075479Y-63148808D01*
X59075479Y-63148808D02*
X59063574Y-63113094D01*
X59063574Y-63113094D02*
X59063574Y-63089285D01*
X59063574Y-63089285D02*
X59075479Y-63053570D01*
X59075479Y-63053570D02*
X59087384Y-63041666D01*
X59063574Y-62827380D02*
X59063574Y-62874999D01*
X59063574Y-62874999D02*
X59075479Y-62898808D01*
X59075479Y-62898808D02*
X59087384Y-62910713D01*
X59087384Y-62910713D02*
X59123098Y-62934523D01*
X59123098Y-62934523D02*
X59170717Y-62946427D01*
X59170717Y-62946427D02*
X59265955Y-62946427D01*
X59265955Y-62946427D02*
X59289765Y-62934523D01*
X59289765Y-62934523D02*
X59301670Y-62922618D01*
X59301670Y-62922618D02*
X59313574Y-62898808D01*
X59313574Y-62898808D02*
X59313574Y-62851189D01*
X59313574Y-62851189D02*
X59301670Y-62827380D01*
X59301670Y-62827380D02*
X59289765Y-62815475D01*
X59289765Y-62815475D02*
X59265955Y-62803570D01*
X59265955Y-62803570D02*
X59206431Y-62803570D01*
X59206431Y-62803570D02*
X59182622Y-62815475D01*
X59182622Y-62815475D02*
X59170717Y-62827380D01*
X59170717Y-62827380D02*
X59158812Y-62851189D01*
X59158812Y-62851189D02*
X59158812Y-62898808D01*
X59158812Y-62898808D02*
X59170717Y-62922618D01*
X59170717Y-62922618D02*
X59182622Y-62934523D01*
X59182622Y-62934523D02*
X59206431Y-62946427D01*
D10*
X57142857Y-132331009D02*
X57285714Y-132378628D01*
X57285714Y-132378628D02*
X57333333Y-132426247D01*
X57333333Y-132426247D02*
X57380952Y-132521485D01*
X57380952Y-132521485D02*
X57380952Y-132664342D01*
X57380952Y-132664342D02*
X57333333Y-132759580D01*
X57333333Y-132759580D02*
X57285714Y-132807200D01*
X57285714Y-132807200D02*
X57190476Y-132854819D01*
X57190476Y-132854819D02*
X56809524Y-132854819D01*
X56809524Y-132854819D02*
X56809524Y-131854819D01*
X56809524Y-131854819D02*
X57142857Y-131854819D01*
X57142857Y-131854819D02*
X57238095Y-131902438D01*
X57238095Y-131902438D02*
X57285714Y-131950057D01*
X57285714Y-131950057D02*
X57333333Y-132045295D01*
X57333333Y-132045295D02*
X57333333Y-132140533D01*
X57333333Y-132140533D02*
X57285714Y-132235771D01*
X57285714Y-132235771D02*
X57238095Y-132283390D01*
X57238095Y-132283390D02*
X57142857Y-132331009D01*
X57142857Y-132331009D02*
X56809524Y-132331009D01*
X58000000Y-131854819D02*
X58190476Y-131854819D01*
X58190476Y-131854819D02*
X58285714Y-131902438D01*
X58285714Y-131902438D02*
X58380952Y-131997676D01*
X58380952Y-131997676D02*
X58428571Y-132188152D01*
X58428571Y-132188152D02*
X58428571Y-132521485D01*
X58428571Y-132521485D02*
X58380952Y-132711961D01*
X58380952Y-132711961D02*
X58285714Y-132807200D01*
X58285714Y-132807200D02*
X58190476Y-132854819D01*
X58190476Y-132854819D02*
X58000000Y-132854819D01*
X58000000Y-132854819D02*
X57904762Y-132807200D01*
X57904762Y-132807200D02*
X57809524Y-132711961D01*
X57809524Y-132711961D02*
X57761905Y-132521485D01*
X57761905Y-132521485D02*
X57761905Y-132188152D01*
X57761905Y-132188152D02*
X57809524Y-131997676D01*
X57809524Y-131997676D02*
X57904762Y-131902438D01*
X57904762Y-131902438D02*
X58000000Y-131854819D01*
X59047619Y-131854819D02*
X59238095Y-131854819D01*
X59238095Y-131854819D02*
X59333333Y-131902438D01*
X59333333Y-131902438D02*
X59428571Y-131997676D01*
X59428571Y-131997676D02*
X59476190Y-132188152D01*
X59476190Y-132188152D02*
X59476190Y-132521485D01*
X59476190Y-132521485D02*
X59428571Y-132711961D01*
X59428571Y-132711961D02*
X59333333Y-132807200D01*
X59333333Y-132807200D02*
X59238095Y-132854819D01*
X59238095Y-132854819D02*
X59047619Y-132854819D01*
X59047619Y-132854819D02*
X58952381Y-132807200D01*
X58952381Y-132807200D02*
X58857143Y-132711961D01*
X58857143Y-132711961D02*
X58809524Y-132521485D01*
X58809524Y-132521485D02*
X58809524Y-132188152D01*
X58809524Y-132188152D02*
X58857143Y-131997676D01*
X58857143Y-131997676D02*
X58952381Y-131902438D01*
X58952381Y-131902438D02*
X59047619Y-131854819D01*
X59761905Y-131854819D02*
X60333333Y-131854819D01*
X60047619Y-132854819D02*
X60047619Y-131854819D01*
X57166667Y-126957200D02*
X57309524Y-127004819D01*
X57309524Y-127004819D02*
X57547619Y-127004819D01*
X57547619Y-127004819D02*
X57642857Y-126957200D01*
X57642857Y-126957200D02*
X57690476Y-126909580D01*
X57690476Y-126909580D02*
X57738095Y-126814342D01*
X57738095Y-126814342D02*
X57738095Y-126719104D01*
X57738095Y-126719104D02*
X57690476Y-126623866D01*
X57690476Y-126623866D02*
X57642857Y-126576247D01*
X57642857Y-126576247D02*
X57547619Y-126528628D01*
X57547619Y-126528628D02*
X57357143Y-126481009D01*
X57357143Y-126481009D02*
X57261905Y-126433390D01*
X57261905Y-126433390D02*
X57214286Y-126385771D01*
X57214286Y-126385771D02*
X57166667Y-126290533D01*
X57166667Y-126290533D02*
X57166667Y-126195295D01*
X57166667Y-126195295D02*
X57214286Y-126100057D01*
X57214286Y-126100057D02*
X57261905Y-126052438D01*
X57261905Y-126052438D02*
X57357143Y-126004819D01*
X57357143Y-126004819D02*
X57595238Y-126004819D01*
X57595238Y-126004819D02*
X57738095Y-126052438D01*
X58071429Y-126004819D02*
X58309524Y-127004819D01*
X58309524Y-127004819D02*
X58500000Y-126290533D01*
X58500000Y-126290533D02*
X58690476Y-127004819D01*
X58690476Y-127004819D02*
X58928572Y-126004819D01*
X59833333Y-127004819D02*
X59261905Y-127004819D01*
X59547619Y-127004819D02*
X59547619Y-126004819D01*
X59547619Y-126004819D02*
X59452381Y-126147676D01*
X59452381Y-126147676D02*
X59357143Y-126242914D01*
X59357143Y-126242914D02*
X59261905Y-126290533D01*
X64380952Y-113614819D02*
X63809524Y-113614819D01*
X64095238Y-113614819D02*
X64095238Y-112614819D01*
X64095238Y-112614819D02*
X64000000Y-112757676D01*
X64000000Y-112757676D02*
X63904762Y-112852914D01*
X63904762Y-112852914D02*
X63809524Y-112900533D01*
X65000000Y-112614819D02*
X65095238Y-112614819D01*
X65095238Y-112614819D02*
X65190476Y-112662438D01*
X65190476Y-112662438D02*
X65238095Y-112710057D01*
X65238095Y-112710057D02*
X65285714Y-112805295D01*
X65285714Y-112805295D02*
X65333333Y-112995771D01*
X65333333Y-112995771D02*
X65333333Y-113233866D01*
X65333333Y-113233866D02*
X65285714Y-113424342D01*
X65285714Y-113424342D02*
X65238095Y-113519580D01*
X65238095Y-113519580D02*
X65190476Y-113567200D01*
X65190476Y-113567200D02*
X65095238Y-113614819D01*
X65095238Y-113614819D02*
X65000000Y-113614819D01*
X65000000Y-113614819D02*
X64904762Y-113567200D01*
X64904762Y-113567200D02*
X64857143Y-113519580D01*
X64857143Y-113519580D02*
X64809524Y-113424342D01*
X64809524Y-113424342D02*
X64761905Y-113233866D01*
X64761905Y-113233866D02*
X64761905Y-112995771D01*
X64761905Y-112995771D02*
X64809524Y-112805295D01*
X64809524Y-112805295D02*
X64857143Y-112710057D01*
X64857143Y-112710057D02*
X64904762Y-112662438D01*
X64904762Y-112662438D02*
X65000000Y-112614819D01*
X65952381Y-112614819D02*
X66047619Y-112614819D01*
X66047619Y-112614819D02*
X66142857Y-112662438D01*
X66142857Y-112662438D02*
X66190476Y-112710057D01*
X66190476Y-112710057D02*
X66238095Y-112805295D01*
X66238095Y-112805295D02*
X66285714Y-112995771D01*
X66285714Y-112995771D02*
X66285714Y-113233866D01*
X66285714Y-113233866D02*
X66238095Y-113424342D01*
X66238095Y-113424342D02*
X66190476Y-113519580D01*
X66190476Y-113519580D02*
X66142857Y-113567200D01*
X66142857Y-113567200D02*
X66047619Y-113614819D01*
X66047619Y-113614819D02*
X65952381Y-113614819D01*
X65952381Y-113614819D02*
X65857143Y-113567200D01*
X65857143Y-113567200D02*
X65809524Y-113519580D01*
X65809524Y-113519580D02*
X65761905Y-113424342D01*
X65761905Y-113424342D02*
X65714286Y-113233866D01*
X65714286Y-113233866D02*
X65714286Y-112995771D01*
X65714286Y-112995771D02*
X65761905Y-112805295D01*
X65761905Y-112805295D02*
X65809524Y-112710057D01*
X65809524Y-112710057D02*
X65857143Y-112662438D01*
X65857143Y-112662438D02*
X65952381Y-112614819D01*
X66714286Y-112948152D02*
X66714286Y-113614819D01*
X66714286Y-113043390D02*
X66761905Y-112995771D01*
X66761905Y-112995771D02*
X66857143Y-112948152D01*
X66857143Y-112948152D02*
X67000000Y-112948152D01*
X67000000Y-112948152D02*
X67095238Y-112995771D01*
X67095238Y-112995771D02*
X67142857Y-113091009D01*
X67142857Y-113091009D02*
X67142857Y-113614819D01*
D11*
X65458333Y-112089765D02*
X65446429Y-112101670D01*
X65446429Y-112101670D02*
X65410714Y-112113574D01*
X65410714Y-112113574D02*
X65386905Y-112113574D01*
X65386905Y-112113574D02*
X65351191Y-112101670D01*
X65351191Y-112101670D02*
X65327381Y-112077860D01*
X65327381Y-112077860D02*
X65315476Y-112054050D01*
X65315476Y-112054050D02*
X65303572Y-112006431D01*
X65303572Y-112006431D02*
X65303572Y-111970717D01*
X65303572Y-111970717D02*
X65315476Y-111923098D01*
X65315476Y-111923098D02*
X65327381Y-111899289D01*
X65327381Y-111899289D02*
X65351191Y-111875479D01*
X65351191Y-111875479D02*
X65386905Y-111863574D01*
X65386905Y-111863574D02*
X65410714Y-111863574D01*
X65410714Y-111863574D02*
X65446429Y-111875479D01*
X65446429Y-111875479D02*
X65458333Y-111887384D01*
X65684524Y-111863574D02*
X65565476Y-111863574D01*
X65565476Y-111863574D02*
X65553572Y-111982622D01*
X65553572Y-111982622D02*
X65565476Y-111970717D01*
X65565476Y-111970717D02*
X65589286Y-111958812D01*
X65589286Y-111958812D02*
X65648810Y-111958812D01*
X65648810Y-111958812D02*
X65672619Y-111970717D01*
X65672619Y-111970717D02*
X65684524Y-111982622D01*
X65684524Y-111982622D02*
X65696429Y-112006431D01*
X65696429Y-112006431D02*
X65696429Y-112065955D01*
X65696429Y-112065955D02*
X65684524Y-112089765D01*
X65684524Y-112089765D02*
X65672619Y-112101670D01*
X65672619Y-112101670D02*
X65648810Y-112113574D01*
X65648810Y-112113574D02*
X65589286Y-112113574D01*
X65589286Y-112113574D02*
X65565476Y-112101670D01*
X65565476Y-112101670D02*
X65553572Y-112089765D01*
D10*
X76619047Y-122824819D02*
X76142857Y-122824819D01*
X76142857Y-122824819D02*
X76095238Y-123301009D01*
X76095238Y-123301009D02*
X76142857Y-123253390D01*
X76142857Y-123253390D02*
X76238095Y-123205771D01*
X76238095Y-123205771D02*
X76476190Y-123205771D01*
X76476190Y-123205771D02*
X76571428Y-123253390D01*
X76571428Y-123253390D02*
X76619047Y-123301009D01*
X76619047Y-123301009D02*
X76666666Y-123396247D01*
X76666666Y-123396247D02*
X76666666Y-123634342D01*
X76666666Y-123634342D02*
X76619047Y-123729580D01*
X76619047Y-123729580D02*
X76571428Y-123777200D01*
X76571428Y-123777200D02*
X76476190Y-123824819D01*
X76476190Y-123824819D02*
X76238095Y-123824819D01*
X76238095Y-123824819D02*
X76142857Y-123777200D01*
X76142857Y-123777200D02*
X76095238Y-123729580D01*
X77095238Y-123729580D02*
X77142857Y-123777200D01*
X77142857Y-123777200D02*
X77095238Y-123824819D01*
X77095238Y-123824819D02*
X77047619Y-123777200D01*
X77047619Y-123777200D02*
X77095238Y-123729580D01*
X77095238Y-123729580D02*
X77095238Y-123824819D01*
X78095237Y-123824819D02*
X77523809Y-123824819D01*
X77809523Y-123824819D02*
X77809523Y-122824819D01*
X77809523Y-122824819D02*
X77714285Y-122967676D01*
X77714285Y-122967676D02*
X77619047Y-123062914D01*
X77619047Y-123062914D02*
X77523809Y-123110533D01*
X78523809Y-123824819D02*
X78523809Y-122824819D01*
X78619047Y-123443866D02*
X78904761Y-123824819D01*
X78904761Y-123158152D02*
X78523809Y-123539104D01*
D11*
X77456667Y-122318200D02*
X77370000Y-122194391D01*
X77308095Y-122318200D02*
X77308095Y-122058200D01*
X77308095Y-122058200D02*
X77407143Y-122058200D01*
X77407143Y-122058200D02*
X77431905Y-122070581D01*
X77431905Y-122070581D02*
X77444286Y-122082962D01*
X77444286Y-122082962D02*
X77456667Y-122107724D01*
X77456667Y-122107724D02*
X77456667Y-122144867D01*
X77456667Y-122144867D02*
X77444286Y-122169629D01*
X77444286Y-122169629D02*
X77431905Y-122182010D01*
X77431905Y-122182010D02*
X77407143Y-122194391D01*
X77407143Y-122194391D02*
X77308095Y-122194391D01*
X77543333Y-122058200D02*
X77716667Y-122058200D01*
X77716667Y-122058200D02*
X77605238Y-122318200D01*
D10*
X60434819Y-93042857D02*
X60434819Y-93614285D01*
X60434819Y-93328571D02*
X59434819Y-93328571D01*
X59434819Y-93328571D02*
X59577676Y-93423809D01*
X59577676Y-93423809D02*
X59672914Y-93519047D01*
X59672914Y-93519047D02*
X59720533Y-93614285D01*
X59434819Y-92423809D02*
X59434819Y-92328571D01*
X59434819Y-92328571D02*
X59482438Y-92233333D01*
X59482438Y-92233333D02*
X59530057Y-92185714D01*
X59530057Y-92185714D02*
X59625295Y-92138095D01*
X59625295Y-92138095D02*
X59815771Y-92090476D01*
X59815771Y-92090476D02*
X60053866Y-92090476D01*
X60053866Y-92090476D02*
X60244342Y-92138095D01*
X60244342Y-92138095D02*
X60339580Y-92185714D01*
X60339580Y-92185714D02*
X60387200Y-92233333D01*
X60387200Y-92233333D02*
X60434819Y-92328571D01*
X60434819Y-92328571D02*
X60434819Y-92423809D01*
X60434819Y-92423809D02*
X60387200Y-92519047D01*
X60387200Y-92519047D02*
X60339580Y-92566666D01*
X60339580Y-92566666D02*
X60244342Y-92614285D01*
X60244342Y-92614285D02*
X60053866Y-92661904D01*
X60053866Y-92661904D02*
X59815771Y-92661904D01*
X59815771Y-92661904D02*
X59625295Y-92614285D01*
X59625295Y-92614285D02*
X59530057Y-92566666D01*
X59530057Y-92566666D02*
X59482438Y-92519047D01*
X59482438Y-92519047D02*
X59434819Y-92423809D01*
X59768152Y-91233333D02*
X60434819Y-91233333D01*
X59768152Y-91661904D02*
X60291961Y-91661904D01*
X60291961Y-91661904D02*
X60387200Y-91614285D01*
X60387200Y-91614285D02*
X60434819Y-91519047D01*
X60434819Y-91519047D02*
X60434819Y-91376190D01*
X60434819Y-91376190D02*
X60387200Y-91280952D01*
X60387200Y-91280952D02*
X60339580Y-91233333D01*
D12*
X58479530Y-92721428D02*
X58503340Y-92745237D01*
X58503340Y-92745237D02*
X58527149Y-92816666D01*
X58527149Y-92816666D02*
X58527149Y-92864285D01*
X58527149Y-92864285D02*
X58503340Y-92935713D01*
X58503340Y-92935713D02*
X58455720Y-92983332D01*
X58455720Y-92983332D02*
X58408101Y-93007142D01*
X58408101Y-93007142D02*
X58312863Y-93030951D01*
X58312863Y-93030951D02*
X58241435Y-93030951D01*
X58241435Y-93030951D02*
X58146197Y-93007142D01*
X58146197Y-93007142D02*
X58098578Y-92983332D01*
X58098578Y-92983332D02*
X58050959Y-92935713D01*
X58050959Y-92935713D02*
X58027149Y-92864285D01*
X58027149Y-92864285D02*
X58027149Y-92816666D01*
X58027149Y-92816666D02*
X58050959Y-92745237D01*
X58050959Y-92745237D02*
X58074768Y-92721428D01*
X58527149Y-92245237D02*
X58527149Y-92530951D01*
X58527149Y-92388094D02*
X58027149Y-92388094D01*
X58027149Y-92388094D02*
X58098578Y-92435713D01*
X58098578Y-92435713D02*
X58146197Y-92483332D01*
X58146197Y-92483332D02*
X58170006Y-92530951D01*
X58027149Y-91935714D02*
X58027149Y-91888095D01*
X58027149Y-91888095D02*
X58050959Y-91840476D01*
X58050959Y-91840476D02*
X58074768Y-91816666D01*
X58074768Y-91816666D02*
X58122387Y-91792857D01*
X58122387Y-91792857D02*
X58217625Y-91769047D01*
X58217625Y-91769047D02*
X58336673Y-91769047D01*
X58336673Y-91769047D02*
X58431911Y-91792857D01*
X58431911Y-91792857D02*
X58479530Y-91816666D01*
X58479530Y-91816666D02*
X58503340Y-91840476D01*
X58503340Y-91840476D02*
X58527149Y-91888095D01*
X58527149Y-91888095D02*
X58527149Y-91935714D01*
X58527149Y-91935714D02*
X58503340Y-91983333D01*
X58503340Y-91983333D02*
X58479530Y-92007142D01*
X58479530Y-92007142D02*
X58431911Y-92030952D01*
X58431911Y-92030952D02*
X58336673Y-92054761D01*
X58336673Y-92054761D02*
X58217625Y-92054761D01*
X58217625Y-92054761D02*
X58122387Y-92030952D01*
X58122387Y-92030952D02*
X58074768Y-92007142D01*
X58074768Y-92007142D02*
X58050959Y-91983333D01*
X58050959Y-91983333D02*
X58027149Y-91935714D01*
D10*
X56128571Y-108224819D02*
X55557143Y-108224819D01*
X55842857Y-108224819D02*
X55842857Y-107224819D01*
X55842857Y-107224819D02*
X55747619Y-107367676D01*
X55747619Y-107367676D02*
X55652381Y-107462914D01*
X55652381Y-107462914D02*
X55557143Y-107510533D01*
X56747619Y-107224819D02*
X56842857Y-107224819D01*
X56842857Y-107224819D02*
X56938095Y-107272438D01*
X56938095Y-107272438D02*
X56985714Y-107320057D01*
X56985714Y-107320057D02*
X57033333Y-107415295D01*
X57033333Y-107415295D02*
X57080952Y-107605771D01*
X57080952Y-107605771D02*
X57080952Y-107843866D01*
X57080952Y-107843866D02*
X57033333Y-108034342D01*
X57033333Y-108034342D02*
X56985714Y-108129580D01*
X56985714Y-108129580D02*
X56938095Y-108177200D01*
X56938095Y-108177200D02*
X56842857Y-108224819D01*
X56842857Y-108224819D02*
X56747619Y-108224819D01*
X56747619Y-108224819D02*
X56652381Y-108177200D01*
X56652381Y-108177200D02*
X56604762Y-108129580D01*
X56604762Y-108129580D02*
X56557143Y-108034342D01*
X56557143Y-108034342D02*
X56509524Y-107843866D01*
X56509524Y-107843866D02*
X56509524Y-107605771D01*
X56509524Y-107605771D02*
X56557143Y-107415295D01*
X56557143Y-107415295D02*
X56604762Y-107320057D01*
X56604762Y-107320057D02*
X56652381Y-107272438D01*
X56652381Y-107272438D02*
X56747619Y-107224819D01*
X57700000Y-107224819D02*
X57795238Y-107224819D01*
X57795238Y-107224819D02*
X57890476Y-107272438D01*
X57890476Y-107272438D02*
X57938095Y-107320057D01*
X57938095Y-107320057D02*
X57985714Y-107415295D01*
X57985714Y-107415295D02*
X58033333Y-107605771D01*
X58033333Y-107605771D02*
X58033333Y-107843866D01*
X58033333Y-107843866D02*
X57985714Y-108034342D01*
X57985714Y-108034342D02*
X57938095Y-108129580D01*
X57938095Y-108129580D02*
X57890476Y-108177200D01*
X57890476Y-108177200D02*
X57795238Y-108224819D01*
X57795238Y-108224819D02*
X57700000Y-108224819D01*
X57700000Y-108224819D02*
X57604762Y-108177200D01*
X57604762Y-108177200D02*
X57557143Y-108129580D01*
X57557143Y-108129580D02*
X57509524Y-108034342D01*
X57509524Y-108034342D02*
X57461905Y-107843866D01*
X57461905Y-107843866D02*
X57461905Y-107605771D01*
X57461905Y-107605771D02*
X57509524Y-107415295D01*
X57509524Y-107415295D02*
X57557143Y-107320057D01*
X57557143Y-107320057D02*
X57604762Y-107272438D01*
X57604762Y-107272438D02*
X57700000Y-107224819D01*
X58461905Y-108224819D02*
X58461905Y-107224819D01*
X58557143Y-107843866D02*
X58842857Y-108224819D01*
X58842857Y-107558152D02*
X58461905Y-107939104D01*
D11*
X57156667Y-106718200D02*
X57070000Y-106594391D01*
X57008095Y-106718200D02*
X57008095Y-106458200D01*
X57008095Y-106458200D02*
X57107143Y-106458200D01*
X57107143Y-106458200D02*
X57131905Y-106470581D01*
X57131905Y-106470581D02*
X57144286Y-106482962D01*
X57144286Y-106482962D02*
X57156667Y-106507724D01*
X57156667Y-106507724D02*
X57156667Y-106544867D01*
X57156667Y-106544867D02*
X57144286Y-106569629D01*
X57144286Y-106569629D02*
X57131905Y-106582010D01*
X57131905Y-106582010D02*
X57107143Y-106594391D01*
X57107143Y-106594391D02*
X57008095Y-106594391D01*
X57404286Y-106718200D02*
X57255714Y-106718200D01*
X57330000Y-106718200D02*
X57330000Y-106458200D01*
X57330000Y-106458200D02*
X57305238Y-106495343D01*
X57305238Y-106495343D02*
X57280476Y-106520105D01*
X57280476Y-106520105D02*
X57255714Y-106532486D01*
D10*
X51835714Y-99307200D02*
X51978571Y-99354819D01*
X51978571Y-99354819D02*
X52216666Y-99354819D01*
X52216666Y-99354819D02*
X52311904Y-99307200D01*
X52311904Y-99307200D02*
X52359523Y-99259580D01*
X52359523Y-99259580D02*
X52407142Y-99164342D01*
X52407142Y-99164342D02*
X52407142Y-99069104D01*
X52407142Y-99069104D02*
X52359523Y-98973866D01*
X52359523Y-98973866D02*
X52311904Y-98926247D01*
X52311904Y-98926247D02*
X52216666Y-98878628D01*
X52216666Y-98878628D02*
X52026190Y-98831009D01*
X52026190Y-98831009D02*
X51930952Y-98783390D01*
X51930952Y-98783390D02*
X51883333Y-98735771D01*
X51883333Y-98735771D02*
X51835714Y-98640533D01*
X51835714Y-98640533D02*
X51835714Y-98545295D01*
X51835714Y-98545295D02*
X51883333Y-98450057D01*
X51883333Y-98450057D02*
X51930952Y-98402438D01*
X51930952Y-98402438D02*
X52026190Y-98354819D01*
X52026190Y-98354819D02*
X52264285Y-98354819D01*
X52264285Y-98354819D02*
X52407142Y-98402438D01*
X52788095Y-99307200D02*
X52930952Y-99354819D01*
X52930952Y-99354819D02*
X53169047Y-99354819D01*
X53169047Y-99354819D02*
X53264285Y-99307200D01*
X53264285Y-99307200D02*
X53311904Y-99259580D01*
X53311904Y-99259580D02*
X53359523Y-99164342D01*
X53359523Y-99164342D02*
X53359523Y-99069104D01*
X53359523Y-99069104D02*
X53311904Y-98973866D01*
X53311904Y-98973866D02*
X53264285Y-98926247D01*
X53264285Y-98926247D02*
X53169047Y-98878628D01*
X53169047Y-98878628D02*
X52978571Y-98831009D01*
X52978571Y-98831009D02*
X52883333Y-98783390D01*
X52883333Y-98783390D02*
X52835714Y-98735771D01*
X52835714Y-98735771D02*
X52788095Y-98640533D01*
X52788095Y-98640533D02*
X52788095Y-98545295D01*
X52788095Y-98545295D02*
X52835714Y-98450057D01*
X52835714Y-98450057D02*
X52883333Y-98402438D01*
X52883333Y-98402438D02*
X52978571Y-98354819D01*
X52978571Y-98354819D02*
X53216666Y-98354819D01*
X53216666Y-98354819D02*
X53359523Y-98402438D01*
X53692857Y-98354819D02*
X54311904Y-98354819D01*
X54311904Y-98354819D02*
X53978571Y-98735771D01*
X53978571Y-98735771D02*
X54121428Y-98735771D01*
X54121428Y-98735771D02*
X54216666Y-98783390D01*
X54216666Y-98783390D02*
X54264285Y-98831009D01*
X54264285Y-98831009D02*
X54311904Y-98926247D01*
X54311904Y-98926247D02*
X54311904Y-99164342D01*
X54311904Y-99164342D02*
X54264285Y-99259580D01*
X54264285Y-99259580D02*
X54216666Y-99307200D01*
X54216666Y-99307200D02*
X54121428Y-99354819D01*
X54121428Y-99354819D02*
X53835714Y-99354819D01*
X53835714Y-99354819D02*
X53740476Y-99307200D01*
X53740476Y-99307200D02*
X53692857Y-99259580D01*
X55169047Y-98688152D02*
X55169047Y-99354819D01*
X54930952Y-98307200D02*
X54692857Y-99021485D01*
X54692857Y-99021485D02*
X55311904Y-99021485D01*
X52811905Y-94254819D02*
X52811905Y-93254819D01*
X52811905Y-93254819D02*
X53050000Y-93254819D01*
X53050000Y-93254819D02*
X53192857Y-93302438D01*
X53192857Y-93302438D02*
X53288095Y-93397676D01*
X53288095Y-93397676D02*
X53335714Y-93492914D01*
X53335714Y-93492914D02*
X53383333Y-93683390D01*
X53383333Y-93683390D02*
X53383333Y-93826247D01*
X53383333Y-93826247D02*
X53335714Y-94016723D01*
X53335714Y-94016723D02*
X53288095Y-94111961D01*
X53288095Y-94111961D02*
X53192857Y-94207200D01*
X53192857Y-94207200D02*
X53050000Y-94254819D01*
X53050000Y-94254819D02*
X52811905Y-94254819D01*
X54240476Y-93588152D02*
X54240476Y-94254819D01*
X54002381Y-93207200D02*
X53764286Y-93921485D01*
X53764286Y-93921485D02*
X54383333Y-93921485D01*
X60434819Y-89642857D02*
X60434819Y-90214285D01*
X60434819Y-89928571D02*
X59434819Y-89928571D01*
X59434819Y-89928571D02*
X59577676Y-90023809D01*
X59577676Y-90023809D02*
X59672914Y-90119047D01*
X59672914Y-90119047D02*
X59720533Y-90214285D01*
X59434819Y-89023809D02*
X59434819Y-88928571D01*
X59434819Y-88928571D02*
X59482438Y-88833333D01*
X59482438Y-88833333D02*
X59530057Y-88785714D01*
X59530057Y-88785714D02*
X59625295Y-88738095D01*
X59625295Y-88738095D02*
X59815771Y-88690476D01*
X59815771Y-88690476D02*
X60053866Y-88690476D01*
X60053866Y-88690476D02*
X60244342Y-88738095D01*
X60244342Y-88738095D02*
X60339580Y-88785714D01*
X60339580Y-88785714D02*
X60387200Y-88833333D01*
X60387200Y-88833333D02*
X60434819Y-88928571D01*
X60434819Y-88928571D02*
X60434819Y-89023809D01*
X60434819Y-89023809D02*
X60387200Y-89119047D01*
X60387200Y-89119047D02*
X60339580Y-89166666D01*
X60339580Y-89166666D02*
X60244342Y-89214285D01*
X60244342Y-89214285D02*
X60053866Y-89261904D01*
X60053866Y-89261904D02*
X59815771Y-89261904D01*
X59815771Y-89261904D02*
X59625295Y-89214285D01*
X59625295Y-89214285D02*
X59530057Y-89166666D01*
X59530057Y-89166666D02*
X59482438Y-89119047D01*
X59482438Y-89119047D02*
X59434819Y-89023809D01*
X59768152Y-87833333D02*
X60434819Y-87833333D01*
X59768152Y-88261904D02*
X60291961Y-88261904D01*
X60291961Y-88261904D02*
X60387200Y-88214285D01*
X60387200Y-88214285D02*
X60434819Y-88119047D01*
X60434819Y-88119047D02*
X60434819Y-87976190D01*
X60434819Y-87976190D02*
X60387200Y-87880952D01*
X60387200Y-87880952D02*
X60339580Y-87833333D01*
D12*
X58479530Y-89083333D02*
X58503340Y-89107142D01*
X58503340Y-89107142D02*
X58527149Y-89178571D01*
X58527149Y-89178571D02*
X58527149Y-89226190D01*
X58527149Y-89226190D02*
X58503340Y-89297618D01*
X58503340Y-89297618D02*
X58455720Y-89345237D01*
X58455720Y-89345237D02*
X58408101Y-89369047D01*
X58408101Y-89369047D02*
X58312863Y-89392856D01*
X58312863Y-89392856D02*
X58241435Y-89392856D01*
X58241435Y-89392856D02*
X58146197Y-89369047D01*
X58146197Y-89369047D02*
X58098578Y-89345237D01*
X58098578Y-89345237D02*
X58050959Y-89297618D01*
X58050959Y-89297618D02*
X58027149Y-89226190D01*
X58027149Y-89226190D02*
X58027149Y-89178571D01*
X58027149Y-89178571D02*
X58050959Y-89107142D01*
X58050959Y-89107142D02*
X58074768Y-89083333D01*
X58527149Y-88845237D02*
X58527149Y-88749999D01*
X58527149Y-88749999D02*
X58503340Y-88702380D01*
X58503340Y-88702380D02*
X58479530Y-88678571D01*
X58479530Y-88678571D02*
X58408101Y-88630952D01*
X58408101Y-88630952D02*
X58312863Y-88607142D01*
X58312863Y-88607142D02*
X58122387Y-88607142D01*
X58122387Y-88607142D02*
X58074768Y-88630952D01*
X58074768Y-88630952D02*
X58050959Y-88654761D01*
X58050959Y-88654761D02*
X58027149Y-88702380D01*
X58027149Y-88702380D02*
X58027149Y-88797618D01*
X58027149Y-88797618D02*
X58050959Y-88845237D01*
X58050959Y-88845237D02*
X58074768Y-88869047D01*
X58074768Y-88869047D02*
X58122387Y-88892856D01*
X58122387Y-88892856D02*
X58241435Y-88892856D01*
X58241435Y-88892856D02*
X58289054Y-88869047D01*
X58289054Y-88869047D02*
X58312863Y-88845237D01*
X58312863Y-88845237D02*
X58336673Y-88797618D01*
X58336673Y-88797618D02*
X58336673Y-88702380D01*
X58336673Y-88702380D02*
X58312863Y-88654761D01*
X58312863Y-88654761D02*
X58289054Y-88630952D01*
X58289054Y-88630952D02*
X58241435Y-88607142D01*
D10*
X64380952Y-115614819D02*
X63809524Y-115614819D01*
X64095238Y-115614819D02*
X64095238Y-114614819D01*
X64095238Y-114614819D02*
X64000000Y-114757676D01*
X64000000Y-114757676D02*
X63904762Y-114852914D01*
X63904762Y-114852914D02*
X63809524Y-114900533D01*
X65000000Y-114614819D02*
X65095238Y-114614819D01*
X65095238Y-114614819D02*
X65190476Y-114662438D01*
X65190476Y-114662438D02*
X65238095Y-114710057D01*
X65238095Y-114710057D02*
X65285714Y-114805295D01*
X65285714Y-114805295D02*
X65333333Y-114995771D01*
X65333333Y-114995771D02*
X65333333Y-115233866D01*
X65333333Y-115233866D02*
X65285714Y-115424342D01*
X65285714Y-115424342D02*
X65238095Y-115519580D01*
X65238095Y-115519580D02*
X65190476Y-115567200D01*
X65190476Y-115567200D02*
X65095238Y-115614819D01*
X65095238Y-115614819D02*
X65000000Y-115614819D01*
X65000000Y-115614819D02*
X64904762Y-115567200D01*
X64904762Y-115567200D02*
X64857143Y-115519580D01*
X64857143Y-115519580D02*
X64809524Y-115424342D01*
X64809524Y-115424342D02*
X64761905Y-115233866D01*
X64761905Y-115233866D02*
X64761905Y-114995771D01*
X64761905Y-114995771D02*
X64809524Y-114805295D01*
X64809524Y-114805295D02*
X64857143Y-114710057D01*
X64857143Y-114710057D02*
X64904762Y-114662438D01*
X64904762Y-114662438D02*
X65000000Y-114614819D01*
X65952381Y-114614819D02*
X66047619Y-114614819D01*
X66047619Y-114614819D02*
X66142857Y-114662438D01*
X66142857Y-114662438D02*
X66190476Y-114710057D01*
X66190476Y-114710057D02*
X66238095Y-114805295D01*
X66238095Y-114805295D02*
X66285714Y-114995771D01*
X66285714Y-114995771D02*
X66285714Y-115233866D01*
X66285714Y-115233866D02*
X66238095Y-115424342D01*
X66238095Y-115424342D02*
X66190476Y-115519580D01*
X66190476Y-115519580D02*
X66142857Y-115567200D01*
X66142857Y-115567200D02*
X66047619Y-115614819D01*
X66047619Y-115614819D02*
X65952381Y-115614819D01*
X65952381Y-115614819D02*
X65857143Y-115567200D01*
X65857143Y-115567200D02*
X65809524Y-115519580D01*
X65809524Y-115519580D02*
X65761905Y-115424342D01*
X65761905Y-115424342D02*
X65714286Y-115233866D01*
X65714286Y-115233866D02*
X65714286Y-114995771D01*
X65714286Y-114995771D02*
X65761905Y-114805295D01*
X65761905Y-114805295D02*
X65809524Y-114710057D01*
X65809524Y-114710057D02*
X65857143Y-114662438D01*
X65857143Y-114662438D02*
X65952381Y-114614819D01*
X66714286Y-114948152D02*
X66714286Y-115614819D01*
X66714286Y-115043390D02*
X66761905Y-114995771D01*
X66761905Y-114995771D02*
X66857143Y-114948152D01*
X66857143Y-114948152D02*
X67000000Y-114948152D01*
X67000000Y-114948152D02*
X67095238Y-114995771D01*
X67095238Y-114995771D02*
X67142857Y-115091009D01*
X67142857Y-115091009D02*
X67142857Y-115614819D01*
D11*
X65458333Y-114089765D02*
X65446429Y-114101670D01*
X65446429Y-114101670D02*
X65410714Y-114113574D01*
X65410714Y-114113574D02*
X65386905Y-114113574D01*
X65386905Y-114113574D02*
X65351191Y-114101670D01*
X65351191Y-114101670D02*
X65327381Y-114077860D01*
X65327381Y-114077860D02*
X65315476Y-114054050D01*
X65315476Y-114054050D02*
X65303572Y-114006431D01*
X65303572Y-114006431D02*
X65303572Y-113970717D01*
X65303572Y-113970717D02*
X65315476Y-113923098D01*
X65315476Y-113923098D02*
X65327381Y-113899289D01*
X65327381Y-113899289D02*
X65351191Y-113875479D01*
X65351191Y-113875479D02*
X65386905Y-113863574D01*
X65386905Y-113863574D02*
X65410714Y-113863574D01*
X65410714Y-113863574D02*
X65446429Y-113875479D01*
X65446429Y-113875479D02*
X65458333Y-113887384D01*
X65601191Y-113970717D02*
X65577381Y-113958812D01*
X65577381Y-113958812D02*
X65565476Y-113946908D01*
X65565476Y-113946908D02*
X65553572Y-113923098D01*
X65553572Y-113923098D02*
X65553572Y-113911193D01*
X65553572Y-113911193D02*
X65565476Y-113887384D01*
X65565476Y-113887384D02*
X65577381Y-113875479D01*
X65577381Y-113875479D02*
X65601191Y-113863574D01*
X65601191Y-113863574D02*
X65648810Y-113863574D01*
X65648810Y-113863574D02*
X65672619Y-113875479D01*
X65672619Y-113875479D02*
X65684524Y-113887384D01*
X65684524Y-113887384D02*
X65696429Y-113911193D01*
X65696429Y-113911193D02*
X65696429Y-113923098D01*
X65696429Y-113923098D02*
X65684524Y-113946908D01*
X65684524Y-113946908D02*
X65672619Y-113958812D01*
X65672619Y-113958812D02*
X65648810Y-113970717D01*
X65648810Y-113970717D02*
X65601191Y-113970717D01*
X65601191Y-113970717D02*
X65577381Y-113982622D01*
X65577381Y-113982622D02*
X65565476Y-113994527D01*
X65565476Y-113994527D02*
X65553572Y-114018336D01*
X65553572Y-114018336D02*
X65553572Y-114065955D01*
X65553572Y-114065955D02*
X65565476Y-114089765D01*
X65565476Y-114089765D02*
X65577381Y-114101670D01*
X65577381Y-114101670D02*
X65601191Y-114113574D01*
X65601191Y-114113574D02*
X65648810Y-114113574D01*
X65648810Y-114113574D02*
X65672619Y-114101670D01*
X65672619Y-114101670D02*
X65684524Y-114089765D01*
X65684524Y-114089765D02*
X65696429Y-114065955D01*
X65696429Y-114065955D02*
X65696429Y-114018336D01*
X65696429Y-114018336D02*
X65684524Y-113994527D01*
X65684524Y-113994527D02*
X65672619Y-113982622D01*
X65672619Y-113982622D02*
X65648810Y-113970717D01*
D10*
X56080952Y-107014819D02*
X55509524Y-107014819D01*
X55795238Y-107014819D02*
X55795238Y-106014819D01*
X55795238Y-106014819D02*
X55700000Y-106157676D01*
X55700000Y-106157676D02*
X55604762Y-106252914D01*
X55604762Y-106252914D02*
X55509524Y-106300533D01*
X56700000Y-106014819D02*
X56795238Y-106014819D01*
X56795238Y-106014819D02*
X56890476Y-106062438D01*
X56890476Y-106062438D02*
X56938095Y-106110057D01*
X56938095Y-106110057D02*
X56985714Y-106205295D01*
X56985714Y-106205295D02*
X57033333Y-106395771D01*
X57033333Y-106395771D02*
X57033333Y-106633866D01*
X57033333Y-106633866D02*
X56985714Y-106824342D01*
X56985714Y-106824342D02*
X56938095Y-106919580D01*
X56938095Y-106919580D02*
X56890476Y-106967200D01*
X56890476Y-106967200D02*
X56795238Y-107014819D01*
X56795238Y-107014819D02*
X56700000Y-107014819D01*
X56700000Y-107014819D02*
X56604762Y-106967200D01*
X56604762Y-106967200D02*
X56557143Y-106919580D01*
X56557143Y-106919580D02*
X56509524Y-106824342D01*
X56509524Y-106824342D02*
X56461905Y-106633866D01*
X56461905Y-106633866D02*
X56461905Y-106395771D01*
X56461905Y-106395771D02*
X56509524Y-106205295D01*
X56509524Y-106205295D02*
X56557143Y-106110057D01*
X56557143Y-106110057D02*
X56604762Y-106062438D01*
X56604762Y-106062438D02*
X56700000Y-106014819D01*
X57652381Y-106014819D02*
X57747619Y-106014819D01*
X57747619Y-106014819D02*
X57842857Y-106062438D01*
X57842857Y-106062438D02*
X57890476Y-106110057D01*
X57890476Y-106110057D02*
X57938095Y-106205295D01*
X57938095Y-106205295D02*
X57985714Y-106395771D01*
X57985714Y-106395771D02*
X57985714Y-106633866D01*
X57985714Y-106633866D02*
X57938095Y-106824342D01*
X57938095Y-106824342D02*
X57890476Y-106919580D01*
X57890476Y-106919580D02*
X57842857Y-106967200D01*
X57842857Y-106967200D02*
X57747619Y-107014819D01*
X57747619Y-107014819D02*
X57652381Y-107014819D01*
X57652381Y-107014819D02*
X57557143Y-106967200D01*
X57557143Y-106967200D02*
X57509524Y-106919580D01*
X57509524Y-106919580D02*
X57461905Y-106824342D01*
X57461905Y-106824342D02*
X57414286Y-106633866D01*
X57414286Y-106633866D02*
X57414286Y-106395771D01*
X57414286Y-106395771D02*
X57461905Y-106205295D01*
X57461905Y-106205295D02*
X57509524Y-106110057D01*
X57509524Y-106110057D02*
X57557143Y-106062438D01*
X57557143Y-106062438D02*
X57652381Y-106014819D01*
X58414286Y-106348152D02*
X58414286Y-107014819D01*
X58414286Y-106443390D02*
X58461905Y-106395771D01*
X58461905Y-106395771D02*
X58557143Y-106348152D01*
X58557143Y-106348152D02*
X58700000Y-106348152D01*
X58700000Y-106348152D02*
X58795238Y-106395771D01*
X58795238Y-106395771D02*
X58842857Y-106491009D01*
X58842857Y-106491009D02*
X58842857Y-107014819D01*
D11*
X57158333Y-105489765D02*
X57146429Y-105501670D01*
X57146429Y-105501670D02*
X57110714Y-105513574D01*
X57110714Y-105513574D02*
X57086905Y-105513574D01*
X57086905Y-105513574D02*
X57051191Y-105501670D01*
X57051191Y-105501670D02*
X57027381Y-105477860D01*
X57027381Y-105477860D02*
X57015476Y-105454050D01*
X57015476Y-105454050D02*
X57003572Y-105406431D01*
X57003572Y-105406431D02*
X57003572Y-105370717D01*
X57003572Y-105370717D02*
X57015476Y-105323098D01*
X57015476Y-105323098D02*
X57027381Y-105299289D01*
X57027381Y-105299289D02*
X57051191Y-105275479D01*
X57051191Y-105275479D02*
X57086905Y-105263574D01*
X57086905Y-105263574D02*
X57110714Y-105263574D01*
X57110714Y-105263574D02*
X57146429Y-105275479D01*
X57146429Y-105275479D02*
X57158333Y-105287384D01*
X57241667Y-105263574D02*
X57408333Y-105263574D01*
X57408333Y-105263574D02*
X57301191Y-105513574D01*
D10*
X75709524Y-111307200D02*
X75852381Y-111354819D01*
X75852381Y-111354819D02*
X76090476Y-111354819D01*
X76090476Y-111354819D02*
X76185714Y-111307200D01*
X76185714Y-111307200D02*
X76233333Y-111259580D01*
X76233333Y-111259580D02*
X76280952Y-111164342D01*
X76280952Y-111164342D02*
X76280952Y-111069104D01*
X76280952Y-111069104D02*
X76233333Y-110973866D01*
X76233333Y-110973866D02*
X76185714Y-110926247D01*
X76185714Y-110926247D02*
X76090476Y-110878628D01*
X76090476Y-110878628D02*
X75900000Y-110831009D01*
X75900000Y-110831009D02*
X75804762Y-110783390D01*
X75804762Y-110783390D02*
X75757143Y-110735771D01*
X75757143Y-110735771D02*
X75709524Y-110640533D01*
X75709524Y-110640533D02*
X75709524Y-110545295D01*
X75709524Y-110545295D02*
X75757143Y-110450057D01*
X75757143Y-110450057D02*
X75804762Y-110402438D01*
X75804762Y-110402438D02*
X75900000Y-110354819D01*
X75900000Y-110354819D02*
X76138095Y-110354819D01*
X76138095Y-110354819D02*
X76280952Y-110402438D01*
X76852381Y-110783390D02*
X76757143Y-110735771D01*
X76757143Y-110735771D02*
X76709524Y-110688152D01*
X76709524Y-110688152D02*
X76661905Y-110592914D01*
X76661905Y-110592914D02*
X76661905Y-110545295D01*
X76661905Y-110545295D02*
X76709524Y-110450057D01*
X76709524Y-110450057D02*
X76757143Y-110402438D01*
X76757143Y-110402438D02*
X76852381Y-110354819D01*
X76852381Y-110354819D02*
X77042857Y-110354819D01*
X77042857Y-110354819D02*
X77138095Y-110402438D01*
X77138095Y-110402438D02*
X77185714Y-110450057D01*
X77185714Y-110450057D02*
X77233333Y-110545295D01*
X77233333Y-110545295D02*
X77233333Y-110592914D01*
X77233333Y-110592914D02*
X77185714Y-110688152D01*
X77185714Y-110688152D02*
X77138095Y-110735771D01*
X77138095Y-110735771D02*
X77042857Y-110783390D01*
X77042857Y-110783390D02*
X76852381Y-110783390D01*
X76852381Y-110783390D02*
X76757143Y-110831009D01*
X76757143Y-110831009D02*
X76709524Y-110878628D01*
X76709524Y-110878628D02*
X76661905Y-110973866D01*
X76661905Y-110973866D02*
X76661905Y-111164342D01*
X76661905Y-111164342D02*
X76709524Y-111259580D01*
X76709524Y-111259580D02*
X76757143Y-111307200D01*
X76757143Y-111307200D02*
X76852381Y-111354819D01*
X76852381Y-111354819D02*
X77042857Y-111354819D01*
X77042857Y-111354819D02*
X77138095Y-111307200D01*
X77138095Y-111307200D02*
X77185714Y-111259580D01*
X77185714Y-111259580D02*
X77233333Y-111164342D01*
X77233333Y-111164342D02*
X77233333Y-110973866D01*
X77233333Y-110973866D02*
X77185714Y-110878628D01*
X77185714Y-110878628D02*
X77138095Y-110831009D01*
X77138095Y-110831009D02*
X77042857Y-110783390D01*
X77852381Y-110354819D02*
X77947619Y-110354819D01*
X77947619Y-110354819D02*
X78042857Y-110402438D01*
X78042857Y-110402438D02*
X78090476Y-110450057D01*
X78090476Y-110450057D02*
X78138095Y-110545295D01*
X78138095Y-110545295D02*
X78185714Y-110735771D01*
X78185714Y-110735771D02*
X78185714Y-110973866D01*
X78185714Y-110973866D02*
X78138095Y-111164342D01*
X78138095Y-111164342D02*
X78090476Y-111259580D01*
X78090476Y-111259580D02*
X78042857Y-111307200D01*
X78042857Y-111307200D02*
X77947619Y-111354819D01*
X77947619Y-111354819D02*
X77852381Y-111354819D01*
X77852381Y-111354819D02*
X77757143Y-111307200D01*
X77757143Y-111307200D02*
X77709524Y-111259580D01*
X77709524Y-111259580D02*
X77661905Y-111164342D01*
X77661905Y-111164342D02*
X77614286Y-110973866D01*
X77614286Y-110973866D02*
X77614286Y-110735771D01*
X77614286Y-110735771D02*
X77661905Y-110545295D01*
X77661905Y-110545295D02*
X77709524Y-110450057D01*
X77709524Y-110450057D02*
X77757143Y-110402438D01*
X77757143Y-110402438D02*
X77852381Y-110354819D01*
X79090476Y-110354819D02*
X78614286Y-110354819D01*
X78614286Y-110354819D02*
X78566667Y-110831009D01*
X78566667Y-110831009D02*
X78614286Y-110783390D01*
X78614286Y-110783390D02*
X78709524Y-110735771D01*
X78709524Y-110735771D02*
X78947619Y-110735771D01*
X78947619Y-110735771D02*
X79042857Y-110783390D01*
X79042857Y-110783390D02*
X79090476Y-110831009D01*
X79090476Y-110831009D02*
X79138095Y-110926247D01*
X79138095Y-110926247D02*
X79138095Y-111164342D01*
X79138095Y-111164342D02*
X79090476Y-111259580D01*
X79090476Y-111259580D02*
X79042857Y-111307200D01*
X79042857Y-111307200D02*
X78947619Y-111354819D01*
X78947619Y-111354819D02*
X78709524Y-111354819D01*
X78709524Y-111354819D02*
X78614286Y-111307200D01*
X78614286Y-111307200D02*
X78566667Y-111259580D01*
X79757143Y-110354819D02*
X79852381Y-110354819D01*
X79852381Y-110354819D02*
X79947619Y-110402438D01*
X79947619Y-110402438D02*
X79995238Y-110450057D01*
X79995238Y-110450057D02*
X80042857Y-110545295D01*
X80042857Y-110545295D02*
X80090476Y-110735771D01*
X80090476Y-110735771D02*
X80090476Y-110973866D01*
X80090476Y-110973866D02*
X80042857Y-111164342D01*
X80042857Y-111164342D02*
X79995238Y-111259580D01*
X79995238Y-111259580D02*
X79947619Y-111307200D01*
X79947619Y-111307200D02*
X79852381Y-111354819D01*
X79852381Y-111354819D02*
X79757143Y-111354819D01*
X79757143Y-111354819D02*
X79661905Y-111307200D01*
X79661905Y-111307200D02*
X79614286Y-111259580D01*
X79614286Y-111259580D02*
X79566667Y-111164342D01*
X79566667Y-111164342D02*
X79519048Y-110973866D01*
X79519048Y-110973866D02*
X79519048Y-110735771D01*
X79519048Y-110735771D02*
X79566667Y-110545295D01*
X79566667Y-110545295D02*
X79614286Y-110450057D01*
X79614286Y-110450057D02*
X79661905Y-110402438D01*
X79661905Y-110402438D02*
X79757143Y-110354819D01*
D13*
X78295937Y-108568571D02*
X78261651Y-108637142D01*
X78261651Y-108637142D02*
X78193080Y-108705714D01*
X78193080Y-108705714D02*
X78090222Y-108808571D01*
X78090222Y-108808571D02*
X78055937Y-108877142D01*
X78055937Y-108877142D02*
X78055937Y-108945714D01*
X78227365Y-108911428D02*
X78193080Y-108980000D01*
X78193080Y-108980000D02*
X78124508Y-109048571D01*
X78124508Y-109048571D02*
X77987365Y-109082857D01*
X77987365Y-109082857D02*
X77747365Y-109082857D01*
X77747365Y-109082857D02*
X77610222Y-109048571D01*
X77610222Y-109048571D02*
X77541651Y-108980000D01*
X77541651Y-108980000D02*
X77507365Y-108911428D01*
X77507365Y-108911428D02*
X77507365Y-108774285D01*
X77507365Y-108774285D02*
X77541651Y-108705714D01*
X77541651Y-108705714D02*
X77610222Y-108637142D01*
X77610222Y-108637142D02*
X77747365Y-108602857D01*
X77747365Y-108602857D02*
X77987365Y-108602857D01*
X77987365Y-108602857D02*
X78124508Y-108637142D01*
X78124508Y-108637142D02*
X78193080Y-108705714D01*
X78193080Y-108705714D02*
X78227365Y-108774285D01*
X78227365Y-108774285D02*
X78227365Y-108911428D01*
X78227365Y-107917142D02*
X78227365Y-108328571D01*
X78227365Y-108122856D02*
X77507365Y-108122856D01*
X77507365Y-108122856D02*
X77610222Y-108191428D01*
X77610222Y-108191428D02*
X77678794Y-108259999D01*
X77678794Y-108259999D02*
X77713080Y-108328571D01*
D10*
X67738096Y-71686009D02*
X68071429Y-71686009D01*
X68214286Y-72209819D02*
X67738096Y-72209819D01*
X67738096Y-72209819D02*
X67738096Y-71209819D01*
X67738096Y-71209819D02*
X68214286Y-71209819D01*
X68595239Y-72162200D02*
X68738096Y-72209819D01*
X68738096Y-72209819D02*
X68976191Y-72209819D01*
X68976191Y-72209819D02*
X69071429Y-72162200D01*
X69071429Y-72162200D02*
X69119048Y-72114580D01*
X69119048Y-72114580D02*
X69166667Y-72019342D01*
X69166667Y-72019342D02*
X69166667Y-71924104D01*
X69166667Y-71924104D02*
X69119048Y-71828866D01*
X69119048Y-71828866D02*
X69071429Y-71781247D01*
X69071429Y-71781247D02*
X68976191Y-71733628D01*
X68976191Y-71733628D02*
X68785715Y-71686009D01*
X68785715Y-71686009D02*
X68690477Y-71638390D01*
X68690477Y-71638390D02*
X68642858Y-71590771D01*
X68642858Y-71590771D02*
X68595239Y-71495533D01*
X68595239Y-71495533D02*
X68595239Y-71400295D01*
X68595239Y-71400295D02*
X68642858Y-71305057D01*
X68642858Y-71305057D02*
X68690477Y-71257438D01*
X68690477Y-71257438D02*
X68785715Y-71209819D01*
X68785715Y-71209819D02*
X69023810Y-71209819D01*
X69023810Y-71209819D02*
X69166667Y-71257438D01*
X69595239Y-72209819D02*
X69595239Y-71209819D01*
X69595239Y-71209819D02*
X69976191Y-71209819D01*
X69976191Y-71209819D02*
X70071429Y-71257438D01*
X70071429Y-71257438D02*
X70119048Y-71305057D01*
X70119048Y-71305057D02*
X70166667Y-71400295D01*
X70166667Y-71400295D02*
X70166667Y-71543152D01*
X70166667Y-71543152D02*
X70119048Y-71638390D01*
X70119048Y-71638390D02*
X70071429Y-71686009D01*
X70071429Y-71686009D02*
X69976191Y-71733628D01*
X69976191Y-71733628D02*
X69595239Y-71733628D01*
X70500001Y-71209819D02*
X71119048Y-71209819D01*
X71119048Y-71209819D02*
X70785715Y-71590771D01*
X70785715Y-71590771D02*
X70928572Y-71590771D01*
X70928572Y-71590771D02*
X71023810Y-71638390D01*
X71023810Y-71638390D02*
X71071429Y-71686009D01*
X71071429Y-71686009D02*
X71119048Y-71781247D01*
X71119048Y-71781247D02*
X71119048Y-72019342D01*
X71119048Y-72019342D02*
X71071429Y-72114580D01*
X71071429Y-72114580D02*
X71023810Y-72162200D01*
X71023810Y-72162200D02*
X70928572Y-72209819D01*
X70928572Y-72209819D02*
X70642858Y-72209819D01*
X70642858Y-72209819D02*
X70547620Y-72162200D01*
X70547620Y-72162200D02*
X70500001Y-72114580D01*
X71500001Y-71305057D02*
X71547620Y-71257438D01*
X71547620Y-71257438D02*
X71642858Y-71209819D01*
X71642858Y-71209819D02*
X71880953Y-71209819D01*
X71880953Y-71209819D02*
X71976191Y-71257438D01*
X71976191Y-71257438D02*
X72023810Y-71305057D01*
X72023810Y-71305057D02*
X72071429Y-71400295D01*
X72071429Y-71400295D02*
X72071429Y-71495533D01*
X72071429Y-71495533D02*
X72023810Y-71638390D01*
X72023810Y-71638390D02*
X71452382Y-72209819D01*
X71452382Y-72209819D02*
X72071429Y-72209819D01*
X72500001Y-71828866D02*
X73261906Y-71828866D01*
X74309524Y-72114580D02*
X74261905Y-72162200D01*
X74261905Y-72162200D02*
X74119048Y-72209819D01*
X74119048Y-72209819D02*
X74023810Y-72209819D01*
X74023810Y-72209819D02*
X73880953Y-72162200D01*
X73880953Y-72162200D02*
X73785715Y-72066961D01*
X73785715Y-72066961D02*
X73738096Y-71971723D01*
X73738096Y-71971723D02*
X73690477Y-71781247D01*
X73690477Y-71781247D02*
X73690477Y-71638390D01*
X73690477Y-71638390D02*
X73738096Y-71447914D01*
X73738096Y-71447914D02*
X73785715Y-71352676D01*
X73785715Y-71352676D02*
X73880953Y-71257438D01*
X73880953Y-71257438D02*
X74023810Y-71209819D01*
X74023810Y-71209819D02*
X74119048Y-71209819D01*
X74119048Y-71209819D02*
X74261905Y-71257438D01*
X74261905Y-71257438D02*
X74309524Y-71305057D01*
X75166667Y-71209819D02*
X74976191Y-71209819D01*
X74976191Y-71209819D02*
X74880953Y-71257438D01*
X74880953Y-71257438D02*
X74833334Y-71305057D01*
X74833334Y-71305057D02*
X74738096Y-71447914D01*
X74738096Y-71447914D02*
X74690477Y-71638390D01*
X74690477Y-71638390D02*
X74690477Y-72019342D01*
X74690477Y-72019342D02*
X74738096Y-72114580D01*
X74738096Y-72114580D02*
X74785715Y-72162200D01*
X74785715Y-72162200D02*
X74880953Y-72209819D01*
X74880953Y-72209819D02*
X75071429Y-72209819D01*
X75071429Y-72209819D02*
X75166667Y-72162200D01*
X75166667Y-72162200D02*
X75214286Y-72114580D01*
X75214286Y-72114580D02*
X75261905Y-72019342D01*
X75261905Y-72019342D02*
X75261905Y-71781247D01*
X75261905Y-71781247D02*
X75214286Y-71686009D01*
X75214286Y-71686009D02*
X75166667Y-71638390D01*
X75166667Y-71638390D02*
X75071429Y-71590771D01*
X75071429Y-71590771D02*
X74880953Y-71590771D01*
X74880953Y-71590771D02*
X74785715Y-71638390D01*
X74785715Y-71638390D02*
X74738096Y-71686009D01*
X74738096Y-71686009D02*
X74690477Y-71781247D01*
X75690477Y-71828866D02*
X76452382Y-71828866D01*
X76833334Y-71209819D02*
X77071429Y-72209819D01*
X77071429Y-72209819D02*
X77261905Y-71495533D01*
X77261905Y-71495533D02*
X77452381Y-72209819D01*
X77452381Y-72209819D02*
X77690477Y-71209819D01*
X78642857Y-72209819D02*
X78309524Y-71733628D01*
X78071429Y-72209819D02*
X78071429Y-71209819D01*
X78071429Y-71209819D02*
X78452381Y-71209819D01*
X78452381Y-71209819D02*
X78547619Y-71257438D01*
X78547619Y-71257438D02*
X78595238Y-71305057D01*
X78595238Y-71305057D02*
X78642857Y-71400295D01*
X78642857Y-71400295D02*
X78642857Y-71543152D01*
X78642857Y-71543152D02*
X78595238Y-71638390D01*
X78595238Y-71638390D02*
X78547619Y-71686009D01*
X78547619Y-71686009D02*
X78452381Y-71733628D01*
X78452381Y-71733628D02*
X78071429Y-71733628D01*
X79261905Y-71209819D02*
X79452381Y-71209819D01*
X79452381Y-71209819D02*
X79547619Y-71257438D01*
X79547619Y-71257438D02*
X79642857Y-71352676D01*
X79642857Y-71352676D02*
X79690476Y-71543152D01*
X79690476Y-71543152D02*
X79690476Y-71876485D01*
X79690476Y-71876485D02*
X79642857Y-72066961D01*
X79642857Y-72066961D02*
X79547619Y-72162200D01*
X79547619Y-72162200D02*
X79452381Y-72209819D01*
X79452381Y-72209819D02*
X79261905Y-72209819D01*
X79261905Y-72209819D02*
X79166667Y-72162200D01*
X79166667Y-72162200D02*
X79071429Y-72066961D01*
X79071429Y-72066961D02*
X79023810Y-71876485D01*
X79023810Y-71876485D02*
X79023810Y-71543152D01*
X79023810Y-71543152D02*
X79071429Y-71352676D01*
X79071429Y-71352676D02*
X79166667Y-71257438D01*
X79166667Y-71257438D02*
X79261905Y-71209819D01*
X80309524Y-71209819D02*
X80500000Y-71209819D01*
X80500000Y-71209819D02*
X80595238Y-71257438D01*
X80595238Y-71257438D02*
X80690476Y-71352676D01*
X80690476Y-71352676D02*
X80738095Y-71543152D01*
X80738095Y-71543152D02*
X80738095Y-71876485D01*
X80738095Y-71876485D02*
X80690476Y-72066961D01*
X80690476Y-72066961D02*
X80595238Y-72162200D01*
X80595238Y-72162200D02*
X80500000Y-72209819D01*
X80500000Y-72209819D02*
X80309524Y-72209819D01*
X80309524Y-72209819D02*
X80214286Y-72162200D01*
X80214286Y-72162200D02*
X80119048Y-72066961D01*
X80119048Y-72066961D02*
X80071429Y-71876485D01*
X80071429Y-71876485D02*
X80071429Y-71543152D01*
X80071429Y-71543152D02*
X80119048Y-71352676D01*
X80119048Y-71352676D02*
X80214286Y-71257438D01*
X80214286Y-71257438D02*
X80309524Y-71209819D01*
X81166667Y-72209819D02*
X81166667Y-71209819D01*
X81166667Y-71209819D02*
X81500000Y-71924104D01*
X81500000Y-71924104D02*
X81833333Y-71209819D01*
X81833333Y-71209819D02*
X81833333Y-72209819D01*
X82309524Y-71828866D02*
X83071429Y-71828866D01*
X84071428Y-72209819D02*
X83500000Y-72209819D01*
X83785714Y-72209819D02*
X83785714Y-71209819D01*
X83785714Y-71209819D02*
X83690476Y-71352676D01*
X83690476Y-71352676D02*
X83595238Y-71447914D01*
X83595238Y-71447914D02*
X83500000Y-71495533D01*
X84500000Y-71828866D02*
X85261905Y-71828866D01*
X85738095Y-72209819D02*
X85738095Y-71209819D01*
X85738095Y-71209819D02*
X86309523Y-72209819D01*
X86309523Y-72209819D02*
X86309523Y-71209819D01*
X86928571Y-71638390D02*
X86833333Y-71590771D01*
X86833333Y-71590771D02*
X86785714Y-71543152D01*
X86785714Y-71543152D02*
X86738095Y-71447914D01*
X86738095Y-71447914D02*
X86738095Y-71400295D01*
X86738095Y-71400295D02*
X86785714Y-71305057D01*
X86785714Y-71305057D02*
X86833333Y-71257438D01*
X86833333Y-71257438D02*
X86928571Y-71209819D01*
X86928571Y-71209819D02*
X87119047Y-71209819D01*
X87119047Y-71209819D02*
X87214285Y-71257438D01*
X87214285Y-71257438D02*
X87261904Y-71305057D01*
X87261904Y-71305057D02*
X87309523Y-71400295D01*
X87309523Y-71400295D02*
X87309523Y-71447914D01*
X87309523Y-71447914D02*
X87261904Y-71543152D01*
X87261904Y-71543152D02*
X87214285Y-71590771D01*
X87214285Y-71590771D02*
X87119047Y-71638390D01*
X87119047Y-71638390D02*
X86928571Y-71638390D01*
X86928571Y-71638390D02*
X86833333Y-71686009D01*
X86833333Y-71686009D02*
X86785714Y-71733628D01*
X86785714Y-71733628D02*
X86738095Y-71828866D01*
X86738095Y-71828866D02*
X86738095Y-72019342D01*
X86738095Y-72019342D02*
X86785714Y-72114580D01*
X86785714Y-72114580D02*
X86833333Y-72162200D01*
X86833333Y-72162200D02*
X86928571Y-72209819D01*
X86928571Y-72209819D02*
X87119047Y-72209819D01*
X87119047Y-72209819D02*
X87214285Y-72162200D01*
X87214285Y-72162200D02*
X87261904Y-72114580D01*
X87261904Y-72114580D02*
X87309523Y-72019342D01*
X87309523Y-72019342D02*
X87309523Y-71828866D01*
X87309523Y-71828866D02*
X87261904Y-71733628D01*
X87261904Y-71733628D02*
X87214285Y-71686009D01*
X87214285Y-71686009D02*
X87119047Y-71638390D01*
X76738095Y-59209819D02*
X76738095Y-60019342D01*
X76738095Y-60019342D02*
X76785714Y-60114580D01*
X76785714Y-60114580D02*
X76833333Y-60162200D01*
X76833333Y-60162200D02*
X76928571Y-60209819D01*
X76928571Y-60209819D02*
X77119047Y-60209819D01*
X77119047Y-60209819D02*
X77214285Y-60162200D01*
X77214285Y-60162200D02*
X77261904Y-60114580D01*
X77261904Y-60114580D02*
X77309523Y-60019342D01*
X77309523Y-60019342D02*
X77309523Y-59209819D01*
X78309523Y-60209819D02*
X77738095Y-60209819D01*
X78023809Y-60209819D02*
X78023809Y-59209819D01*
X78023809Y-59209819D02*
X77928571Y-59352676D01*
X77928571Y-59352676D02*
X77833333Y-59447914D01*
X77833333Y-59447914D02*
X77738095Y-59495533D01*
X67519048Y-119510719D02*
X67519048Y-120320242D01*
X67519048Y-120320242D02*
X67566667Y-120415480D01*
X67566667Y-120415480D02*
X67614286Y-120463100D01*
X67614286Y-120463100D02*
X67709524Y-120510719D01*
X67709524Y-120510719D02*
X67900000Y-120510719D01*
X67900000Y-120510719D02*
X67995238Y-120463100D01*
X67995238Y-120463100D02*
X68042857Y-120415480D01*
X68042857Y-120415480D02*
X68090476Y-120320242D01*
X68090476Y-120320242D02*
X68090476Y-119510719D01*
X68519048Y-120463100D02*
X68661905Y-120510719D01*
X68661905Y-120510719D02*
X68900000Y-120510719D01*
X68900000Y-120510719D02*
X68995238Y-120463100D01*
X68995238Y-120463100D02*
X69042857Y-120415480D01*
X69042857Y-120415480D02*
X69090476Y-120320242D01*
X69090476Y-120320242D02*
X69090476Y-120225004D01*
X69090476Y-120225004D02*
X69042857Y-120129766D01*
X69042857Y-120129766D02*
X68995238Y-120082147D01*
X68995238Y-120082147D02*
X68900000Y-120034528D01*
X68900000Y-120034528D02*
X68709524Y-119986909D01*
X68709524Y-119986909D02*
X68614286Y-119939290D01*
X68614286Y-119939290D02*
X68566667Y-119891671D01*
X68566667Y-119891671D02*
X68519048Y-119796433D01*
X68519048Y-119796433D02*
X68519048Y-119701195D01*
X68519048Y-119701195D02*
X68566667Y-119605957D01*
X68566667Y-119605957D02*
X68614286Y-119558338D01*
X68614286Y-119558338D02*
X68709524Y-119510719D01*
X68709524Y-119510719D02*
X68947619Y-119510719D01*
X68947619Y-119510719D02*
X69090476Y-119558338D01*
X69852381Y-119986909D02*
X69995238Y-120034528D01*
X69995238Y-120034528D02*
X70042857Y-120082147D01*
X70042857Y-120082147D02*
X70090476Y-120177385D01*
X70090476Y-120177385D02*
X70090476Y-120320242D01*
X70090476Y-120320242D02*
X70042857Y-120415480D01*
X70042857Y-120415480D02*
X69995238Y-120463100D01*
X69995238Y-120463100D02*
X69900000Y-120510719D01*
X69900000Y-120510719D02*
X69519048Y-120510719D01*
X69519048Y-120510719D02*
X69519048Y-119510719D01*
X69519048Y-119510719D02*
X69852381Y-119510719D01*
X69852381Y-119510719D02*
X69947619Y-119558338D01*
X69947619Y-119558338D02*
X69995238Y-119605957D01*
X69995238Y-119605957D02*
X70042857Y-119701195D01*
X70042857Y-119701195D02*
X70042857Y-119796433D01*
X70042857Y-119796433D02*
X69995238Y-119891671D01*
X69995238Y-119891671D02*
X69947619Y-119939290D01*
X69947619Y-119939290D02*
X69852381Y-119986909D01*
X69852381Y-119986909D02*
X69519048Y-119986909D01*
X70519048Y-120129766D02*
X71280953Y-120129766D01*
X72328571Y-120415480D02*
X72280952Y-120463100D01*
X72280952Y-120463100D02*
X72138095Y-120510719D01*
X72138095Y-120510719D02*
X72042857Y-120510719D01*
X72042857Y-120510719D02*
X71900000Y-120463100D01*
X71900000Y-120463100D02*
X71804762Y-120367861D01*
X71804762Y-120367861D02*
X71757143Y-120272623D01*
X71757143Y-120272623D02*
X71709524Y-120082147D01*
X71709524Y-120082147D02*
X71709524Y-119939290D01*
X71709524Y-119939290D02*
X71757143Y-119748814D01*
X71757143Y-119748814D02*
X71804762Y-119653576D01*
X71804762Y-119653576D02*
X71900000Y-119558338D01*
X71900000Y-119558338D02*
X72042857Y-119510719D01*
X72042857Y-119510719D02*
X72138095Y-119510719D01*
X72138095Y-119510719D02*
X72280952Y-119558338D01*
X72280952Y-119558338D02*
X72328571Y-119605957D01*
X69566666Y-125984719D02*
X69566666Y-126699004D01*
X69566666Y-126699004D02*
X69519047Y-126841861D01*
X69519047Y-126841861D02*
X69423809Y-126937100D01*
X69423809Y-126937100D02*
X69280952Y-126984719D01*
X69280952Y-126984719D02*
X69185714Y-126984719D01*
X69947619Y-125984719D02*
X70566666Y-125984719D01*
X70566666Y-125984719D02*
X70233333Y-126365671D01*
X70233333Y-126365671D02*
X70376190Y-126365671D01*
X70376190Y-126365671D02*
X70471428Y-126413290D01*
X70471428Y-126413290D02*
X70519047Y-126460909D01*
X70519047Y-126460909D02*
X70566666Y-126556147D01*
X70566666Y-126556147D02*
X70566666Y-126794242D01*
X70566666Y-126794242D02*
X70519047Y-126889480D01*
X70519047Y-126889480D02*
X70471428Y-126937100D01*
X70471428Y-126937100D02*
X70376190Y-126984719D01*
X70376190Y-126984719D02*
X70090476Y-126984719D01*
X70090476Y-126984719D02*
X69995238Y-126937100D01*
X69995238Y-126937100D02*
X69947619Y-126889480D01*
G04 #@! TO.C,C2*
D14*
X58950000Y-53500000D02*
X59450000Y-53500000D01*
X59450000Y-54500000D01*
X58950000Y-54500000D01*
X58950000Y-53500000D01*
G04 #@! TO.C,C3*
X62500000Y-114875000D02*
X64500000Y-114875000D01*
X64500000Y-116125000D01*
X62500000Y-116125000D01*
X62500000Y-114875000D01*
G04 #@! TO.C,D1*
X51250000Y-101450000D02*
X51250000Y-98450000D01*
X52900560Y-99150920D02*
X52900560Y-100751120D01*
X52900560Y-99951020D02*
X51998860Y-99951020D01*
X52900560Y-99951020D02*
X54051180Y-99150920D01*
X52900560Y-99951020D02*
X54051180Y-100700320D01*
X54051180Y-99951020D02*
X55049400Y-99951020D01*
X54051180Y-100700320D02*
X54051180Y-99150920D01*
X55850000Y-98450000D02*
X51250000Y-98450000D01*
X55850000Y-98450000D02*
X55850000Y-101450000D01*
X55850000Y-101450000D02*
X51250000Y-101450000D01*
G04 #@! TO.C,R6*
X66730000Y-105975000D02*
X67270000Y-105975000D01*
X67270000Y-107025000D01*
X66730000Y-107025000D01*
X66730000Y-105975000D01*
G04 #@! TO.C,J1*
X51660000Y-51840000D02*
X56740000Y-51840000D01*
X51660000Y-72160000D02*
X51660000Y-51840000D01*
X55470000Y-72160000D02*
X51660000Y-72160000D01*
X56740000Y-51840000D02*
X56740000Y-70890000D01*
X56740000Y-70890000D02*
X55470000Y-72160000D01*
G04 #@! TO.C,JP1*
X52230000Y-77825000D02*
X52865000Y-77190000D01*
X52230000Y-84810000D02*
X52230000Y-77825000D01*
X52865000Y-77190000D02*
X54770000Y-77190000D01*
X54770000Y-77190000D02*
X54770000Y-84810000D01*
X54770000Y-84810000D02*
X52230000Y-84810000D01*
G04 #@! TO.C,C1*
X62500000Y-108375000D02*
X64500000Y-108375000D01*
X64500000Y-109625000D01*
X62500000Y-109625000D01*
X62500000Y-108375000D01*
G04 #@! TO.C,R4*
X82275000Y-72530000D02*
X83325000Y-72530000D01*
X83325000Y-73070000D01*
X82275000Y-73070000D01*
X82275000Y-72530000D01*
G04 #@! TO.C,U4*
X76200000Y-113700000D02*
X66800000Y-113700000D01*
X65800000Y-112700000D01*
X65800000Y-109300000D01*
X76200000Y-109300000D01*
X76200000Y-113700000D01*
G04 #@! TO.C,U2*
X55450000Y-108600000D02*
X52950000Y-108600000D01*
X52550000Y-108200000D01*
X52550000Y-107000000D01*
X55450000Y-107000000D01*
X55450000Y-108600000D01*
G04 #@! TO.C,D5*
X51250000Y-105100000D02*
X51250000Y-102100000D01*
X52900560Y-102800920D02*
X52900560Y-104401120D01*
X52900560Y-103601020D02*
X51998860Y-103601020D01*
X52900560Y-103601020D02*
X54051180Y-102800920D01*
X52900560Y-103601020D02*
X54051180Y-104350320D01*
X54051180Y-103601020D02*
X55049400Y-103601020D01*
X54051180Y-104350320D02*
X54051180Y-102800920D01*
X55850000Y-102100000D02*
X51250000Y-102100000D01*
X55850000Y-102100000D02*
X55850000Y-105100000D01*
X55850000Y-105100000D02*
X51250000Y-105100000D01*
G04 #@! TO.C,R9*
X58930000Y-56475000D02*
X59470000Y-56475000D01*
X59470000Y-57525000D01*
X58930000Y-57525000D01*
X58930000Y-56475000D01*
G04 #@! TO.C,C4*
X79875000Y-117100000D02*
X81125000Y-117100000D01*
X81125000Y-119100000D01*
X79875000Y-119100000D01*
X79875000Y-117100000D01*
G04 #@! TO.C,R8*
X76975000Y-120730000D02*
X78025000Y-120730000D01*
X78025000Y-121270000D01*
X76975000Y-121270000D01*
X76975000Y-120730000D01*
G04 #@! TO.C,D2*
X51250000Y-90500000D02*
X51250000Y-87500000D01*
X52900560Y-88200920D02*
X52900560Y-89801120D01*
X52900560Y-89001020D02*
X51998860Y-89001020D01*
X52900560Y-89001020D02*
X54051180Y-88200920D01*
X52900560Y-89001020D02*
X54051180Y-89750320D01*
X54051180Y-89001020D02*
X55049400Y-89001020D01*
X54051180Y-89750320D02*
X54051180Y-88200920D01*
X55850000Y-87500000D02*
X51250000Y-87500000D01*
X55850000Y-87500000D02*
X55850000Y-90500000D01*
X55850000Y-90500000D02*
X51250000Y-90500000D01*
G04 #@! TO.C,Q2*
X78150000Y-113450000D02*
X76850000Y-113450000D01*
X76850000Y-110875000D01*
X77175000Y-110550000D01*
X78150000Y-110550000D01*
X78150000Y-113450000D01*
G04 #@! TO.C,R2*
X56675000Y-107530000D02*
X57725000Y-107530000D01*
X57725000Y-108070000D01*
X56675000Y-108070000D01*
X56675000Y-107530000D01*
G04 #@! TO.C,R5*
X66730000Y-103975000D02*
X67270000Y-103975000D01*
X67270000Y-105025000D01*
X66730000Y-105025000D01*
X66730000Y-103975000D01*
G04 #@! TO.C,D3*
X51250000Y-94150000D02*
X51250000Y-91150000D01*
X52900560Y-91850920D02*
X52900560Y-93451120D01*
X52900560Y-92651020D02*
X51998860Y-92651020D01*
X52900560Y-92651020D02*
X54051180Y-91850920D01*
X52900560Y-92651020D02*
X54051180Y-93400320D01*
X54051180Y-92651020D02*
X55049400Y-92651020D01*
X54051180Y-93400320D02*
X54051180Y-91850920D01*
X55850000Y-91150000D02*
X51250000Y-91150000D01*
X55850000Y-91150000D02*
X55850000Y-94150000D01*
X55850000Y-94150000D02*
X51250000Y-94150000D01*
G04 #@! TO.C,FB1*
X80050000Y-113500000D02*
X80950000Y-113500000D01*
X80950000Y-115500000D01*
X80050000Y-115500000D01*
X80050000Y-113500000D01*
G04 #@! TO.C,U3*
X72450000Y-121300000D02*
X69950000Y-121300000D01*
X69550000Y-120900000D01*
X69550000Y-119700000D01*
X72450000Y-119700000D01*
X72450000Y-121300000D01*
G04 #@! TO.C,R3*
X58930000Y-59475000D02*
X59470000Y-59475000D01*
X59470000Y-60525000D01*
X58930000Y-60525000D01*
X58930000Y-59475000D01*
G04 #@! TO.C,C6*
X58950000Y-62500000D02*
X59450000Y-62500000D01*
X59450000Y-63500000D01*
X58950000Y-63500000D01*
X58950000Y-62500000D01*
G04 #@! TO.C,C5*
X65000000Y-111750000D02*
X66000000Y-111750000D01*
X66000000Y-112250000D01*
X65000000Y-112250000D01*
X65000000Y-111750000D01*
G04 #@! TO.C,R7*
X76975000Y-121930000D02*
X78025000Y-121930000D01*
X78025000Y-122470000D01*
X76975000Y-122470000D01*
X76975000Y-121930000D01*
G04 #@! TO.C,C10*
X57675000Y-91400000D02*
X58925000Y-91400000D01*
X58925000Y-93400000D01*
X57675000Y-93400000D01*
X57675000Y-91400000D01*
G04 #@! TO.C,R1*
X56675000Y-106330000D02*
X57725000Y-106330000D01*
X57725000Y-106870000D01*
X56675000Y-106870000D01*
X56675000Y-106330000D01*
G04 #@! TO.C,D4*
X51250000Y-97800000D02*
X51250000Y-94800000D01*
X52900560Y-95500920D02*
X52900560Y-97101120D01*
X52900560Y-96301020D02*
X51998860Y-96301020D01*
X52900560Y-96301020D02*
X54051180Y-95500920D01*
X52900560Y-96301020D02*
X54051180Y-97050320D01*
X54051180Y-96301020D02*
X55049400Y-96301020D01*
X54051180Y-97050320D02*
X54051180Y-95500920D01*
X55850000Y-94800000D02*
X51250000Y-94800000D01*
X55850000Y-94800000D02*
X55850000Y-97800000D01*
X55850000Y-97800000D02*
X51250000Y-97800000D01*
G04 #@! TO.C,C9*
X57675000Y-88000000D02*
X58925000Y-88000000D01*
X58925000Y-90000000D01*
X57675000Y-90000000D01*
X57675000Y-88000000D01*
G04 #@! TO.C,C8*
X65000000Y-113750000D02*
X66000000Y-113750000D01*
X66000000Y-114250000D01*
X65000000Y-114250000D01*
X65000000Y-113750000D01*
G04 #@! TO.C,C7*
X56700000Y-105150000D02*
X57700000Y-105150000D01*
X57700000Y-105650000D01*
X56700000Y-105650000D01*
X56700000Y-105150000D01*
G04 #@! TO.C,Q1*
X78550000Y-109950000D02*
X77250000Y-109950000D01*
X77250000Y-107375000D01*
X77575000Y-107050000D01*
X78550000Y-107050000D01*
X78550000Y-109950000D01*
G04 #@! TD*
M02*
