G04 #@! TF.GenerationSoftware,KiCad,Pcbnew,10.0.1*
G04 #@! TF.CreationDate,2026-09-13T16:10:18+03:00*
G04 #@! TF.ProjectId,Platvorm,506c6174-766f-4726-9d2e-6b696361645f,rev?*
G04 #@! TF.SameCoordinates,Original*
G04 #@! TF.FileFunction,Other,ECO2*
%FSLAX46Y46*%
G04 Gerber Fmt 4.6, Leading zero omitted, Abs format (unit mm)*
G04 Created by KiCad (PCBNEW 10.0.1) date 2026-09-13 16:10:18*
%MOMM*%
%LPD*%
G01*
G04 APERTURE LIST*
%ADD10C,0.150000*%
%ADD11C,0.120000*%
G04 APERTURE END LIST*
D10*
X72738094Y-47174104D02*
X73214284Y-47174104D01*
X72642856Y-47459819D02*
X72976189Y-46459819D01*
X72976189Y-46459819D02*
X73309522Y-47459819D01*
X73642856Y-46793152D02*
X73642856Y-47459819D01*
X73642856Y-46888390D02*
X73690475Y-46840771D01*
X73690475Y-46840771D02*
X73785713Y-46793152D01*
X73785713Y-46793152D02*
X73928570Y-46793152D01*
X73928570Y-46793152D02*
X74023808Y-46840771D01*
X74023808Y-46840771D02*
X74071427Y-46936009D01*
X74071427Y-46936009D02*
X74071427Y-47459819D01*
X74404761Y-46793152D02*
X74785713Y-46793152D01*
X74547618Y-46459819D02*
X74547618Y-47316961D01*
X74547618Y-47316961D02*
X74595237Y-47412200D01*
X74595237Y-47412200D02*
X74690475Y-47459819D01*
X74690475Y-47459819D02*
X74785713Y-47459819D01*
X75499999Y-47412200D02*
X75404761Y-47459819D01*
X75404761Y-47459819D02*
X75214285Y-47459819D01*
X75214285Y-47459819D02*
X75119047Y-47412200D01*
X75119047Y-47412200D02*
X75071428Y-47316961D01*
X75071428Y-47316961D02*
X75071428Y-46936009D01*
X75071428Y-46936009D02*
X75119047Y-46840771D01*
X75119047Y-46840771D02*
X75214285Y-46793152D01*
X75214285Y-46793152D02*
X75404761Y-46793152D01*
X75404761Y-46793152D02*
X75499999Y-46840771D01*
X75499999Y-46840771D02*
X75547618Y-46936009D01*
X75547618Y-46936009D02*
X75547618Y-47031247D01*
X75547618Y-47031247D02*
X75071428Y-47126485D01*
X75976190Y-46793152D02*
X75976190Y-47459819D01*
X75976190Y-46888390D02*
X76023809Y-46840771D01*
X76023809Y-46840771D02*
X76119047Y-46793152D01*
X76119047Y-46793152D02*
X76261904Y-46793152D01*
X76261904Y-46793152D02*
X76357142Y-46840771D01*
X76357142Y-46840771D02*
X76404761Y-46936009D01*
X76404761Y-46936009D02*
X76404761Y-47459819D01*
X76880952Y-46793152D02*
X76880952Y-47459819D01*
X76880952Y-46888390D02*
X76928571Y-46840771D01*
X76928571Y-46840771D02*
X77023809Y-46793152D01*
X77023809Y-46793152D02*
X77166666Y-46793152D01*
X77166666Y-46793152D02*
X77261904Y-46840771D01*
X77261904Y-46840771D02*
X77309523Y-46936009D01*
X77309523Y-46936009D02*
X77309523Y-47459819D01*
X78214285Y-47459819D02*
X78214285Y-46936009D01*
X78214285Y-46936009D02*
X78166666Y-46840771D01*
X78166666Y-46840771D02*
X78071428Y-46793152D01*
X78071428Y-46793152D02*
X77880952Y-46793152D01*
X77880952Y-46793152D02*
X77785714Y-46840771D01*
X78214285Y-47412200D02*
X78119047Y-47459819D01*
X78119047Y-47459819D02*
X77880952Y-47459819D01*
X77880952Y-47459819D02*
X77785714Y-47412200D01*
X77785714Y-47412200D02*
X77738095Y-47316961D01*
X77738095Y-47316961D02*
X77738095Y-47221723D01*
X77738095Y-47221723D02*
X77785714Y-47126485D01*
X77785714Y-47126485D02*
X77880952Y-47078866D01*
X77880952Y-47078866D02*
X78119047Y-47078866D01*
X78119047Y-47078866D02*
X78214285Y-47031247D01*
X79404762Y-47174104D02*
X79880952Y-47174104D01*
X79309524Y-47459819D02*
X79642857Y-46459819D01*
X79642857Y-46459819D02*
X79976190Y-47459819D01*
X80309524Y-47459819D02*
X80309524Y-46793152D01*
X80309524Y-46983628D02*
X80357143Y-46888390D01*
X80357143Y-46888390D02*
X80404762Y-46840771D01*
X80404762Y-46840771D02*
X80500000Y-46793152D01*
X80500000Y-46793152D02*
X80595238Y-46793152D01*
X81309524Y-47412200D02*
X81214286Y-47459819D01*
X81214286Y-47459819D02*
X81023810Y-47459819D01*
X81023810Y-47459819D02*
X80928572Y-47412200D01*
X80928572Y-47412200D02*
X80880953Y-47316961D01*
X80880953Y-47316961D02*
X80880953Y-46936009D01*
X80880953Y-46936009D02*
X80928572Y-46840771D01*
X80928572Y-46840771D02*
X81023810Y-46793152D01*
X81023810Y-46793152D02*
X81214286Y-46793152D01*
X81214286Y-46793152D02*
X81309524Y-46840771D01*
X81309524Y-46840771D02*
X81357143Y-46936009D01*
X81357143Y-46936009D02*
X81357143Y-47031247D01*
X81357143Y-47031247D02*
X80880953Y-47126485D01*
X82214286Y-47459819D02*
X82214286Y-46936009D01*
X82214286Y-46936009D02*
X82166667Y-46840771D01*
X82166667Y-46840771D02*
X82071429Y-46793152D01*
X82071429Y-46793152D02*
X81880953Y-46793152D01*
X81880953Y-46793152D02*
X81785715Y-46840771D01*
X82214286Y-47412200D02*
X82119048Y-47459819D01*
X82119048Y-47459819D02*
X81880953Y-47459819D01*
X81880953Y-47459819D02*
X81785715Y-47412200D01*
X81785715Y-47412200D02*
X81738096Y-47316961D01*
X81738096Y-47316961D02*
X81738096Y-47221723D01*
X81738096Y-47221723D02*
X81785715Y-47126485D01*
X81785715Y-47126485D02*
X81880953Y-47078866D01*
X81880953Y-47078866D02*
X82119048Y-47078866D01*
X82119048Y-47078866D02*
X82214286Y-47031247D01*
G04 #@! TO.C,U1*
D11*
X68500000Y-44005000D02*
X86500000Y-44005000D01*
X68500000Y-50005000D02*
X86500000Y-50005000D01*
X68500000Y-69505000D02*
X68500000Y-44005000D01*
X86500000Y-44005000D02*
X86500000Y-69505000D01*
X86500000Y-69505000D02*
X68500000Y-69505000D01*
G04 #@! TD*
M02*
