G04 #@! TF.GenerationSoftware,KiCad,Pcbnew,10.0.1*
G04 #@! TF.CreationDate,2026-09-13T16:10:18+03:00*
G04 #@! TF.ProjectId,Platvorm,506c6174-766f-4726-9d2e-6b696361645f,rev?*
G04 #@! TF.SameCoordinates,Original*
G04 #@! TF.FileFunction,Legend,Bot*
G04 #@! TF.FilePolarity,Positive*
%FSLAX46Y46*%
G04 Gerber Fmt 4.6, Leading zero omitted, Abs format (unit mm)*
G04 Created by KiCad (PCBNEW 10.0.1) date 2026-09-13 16:10:18*
%MOMM*%
%LPD*%
G01*
G04 APERTURE LIST*
%ADD10C,0.150000*%
%ADD11C,0.120000*%
G04 APERTURE END LIST*
D10*
X85833333Y-108344819D02*
X85833333Y-109059104D01*
X85833333Y-109059104D02*
X85880952Y-109201961D01*
X85880952Y-109201961D02*
X85976190Y-109297200D01*
X85976190Y-109297200D02*
X86119047Y-109344819D01*
X86119047Y-109344819D02*
X86214285Y-109344819D01*
X85404761Y-108440057D02*
X85357142Y-108392438D01*
X85357142Y-108392438D02*
X85261904Y-108344819D01*
X85261904Y-108344819D02*
X85023809Y-108344819D01*
X85023809Y-108344819D02*
X84928571Y-108392438D01*
X84928571Y-108392438D02*
X84880952Y-108440057D01*
X84880952Y-108440057D02*
X84833333Y-108535295D01*
X84833333Y-108535295D02*
X84833333Y-108630533D01*
X84833333Y-108630533D02*
X84880952Y-108773390D01*
X84880952Y-108773390D02*
X85452380Y-109344819D01*
X85452380Y-109344819D02*
X84833333Y-109344819D01*
X92152381Y-107089726D02*
X92152381Y-105819726D01*
X92152381Y-105819726D02*
X91668571Y-105819726D01*
X91668571Y-105819726D02*
X91547619Y-105880202D01*
X91547619Y-105880202D02*
X91487142Y-105940678D01*
X91487142Y-105940678D02*
X91426666Y-106061630D01*
X91426666Y-106061630D02*
X91426666Y-106243059D01*
X91426666Y-106243059D02*
X91487142Y-106364011D01*
X91487142Y-106364011D02*
X91547619Y-106424488D01*
X91547619Y-106424488D02*
X91668571Y-106484964D01*
X91668571Y-106484964D02*
X92152381Y-106484964D01*
X91003333Y-105819726D02*
X90156666Y-105819726D01*
X90156666Y-105819726D02*
X91003333Y-107089726D01*
X91003333Y-107089726D02*
X90156666Y-107089726D01*
X89733333Y-105940678D02*
X89672857Y-105880202D01*
X89672857Y-105880202D02*
X89551904Y-105819726D01*
X89551904Y-105819726D02*
X89249523Y-105819726D01*
X89249523Y-105819726D02*
X89128571Y-105880202D01*
X89128571Y-105880202D02*
X89068095Y-105940678D01*
X89068095Y-105940678D02*
X89007618Y-106061630D01*
X89007618Y-106061630D02*
X89007618Y-106182583D01*
X89007618Y-106182583D02*
X89068095Y-106364011D01*
X89068095Y-106364011D02*
X89793809Y-107089726D01*
X89793809Y-107089726D02*
X89007618Y-107089726D01*
X87858571Y-105819726D02*
X88463333Y-105819726D01*
X88463333Y-105819726D02*
X88523809Y-106424488D01*
X88523809Y-106424488D02*
X88463333Y-106364011D01*
X88463333Y-106364011D02*
X88342380Y-106303535D01*
X88342380Y-106303535D02*
X88039999Y-106303535D01*
X88039999Y-106303535D02*
X87919047Y-106364011D01*
X87919047Y-106364011D02*
X87858571Y-106424488D01*
X87858571Y-106424488D02*
X87798094Y-106545440D01*
X87798094Y-106545440D02*
X87798094Y-106847821D01*
X87798094Y-106847821D02*
X87858571Y-106968773D01*
X87858571Y-106968773D02*
X87919047Y-107029250D01*
X87919047Y-107029250D02*
X88039999Y-107089726D01*
X88039999Y-107089726D02*
X88342380Y-107089726D01*
X88342380Y-107089726D02*
X88463333Y-107029250D01*
X88463333Y-107029250D02*
X88523809Y-106968773D01*
X86709523Y-106243059D02*
X86709523Y-107089726D01*
X87011904Y-105759250D02*
X87314285Y-106666392D01*
X87314285Y-106666392D02*
X86528094Y-106666392D01*
X86225713Y-105819726D02*
X85802380Y-107089726D01*
X85802380Y-107089726D02*
X85379046Y-105819726D01*
X84955714Y-106605916D02*
X83988095Y-106605916D01*
X82718094Y-107089726D02*
X83443809Y-107089726D01*
X83080952Y-107089726D02*
X83080952Y-105819726D01*
X83080952Y-105819726D02*
X83201904Y-106001154D01*
X83201904Y-106001154D02*
X83322856Y-106122107D01*
X83322856Y-106122107D02*
X83443809Y-106182583D01*
X82234285Y-105940678D02*
X82173809Y-105880202D01*
X82173809Y-105880202D02*
X82052856Y-105819726D01*
X82052856Y-105819726D02*
X81750475Y-105819726D01*
X81750475Y-105819726D02*
X81629523Y-105880202D01*
X81629523Y-105880202D02*
X81569047Y-105940678D01*
X81569047Y-105940678D02*
X81508570Y-106061630D01*
X81508570Y-106061630D02*
X81508570Y-106182583D01*
X81508570Y-106182583D02*
X81569047Y-106364011D01*
X81569047Y-106364011D02*
X82294761Y-107089726D01*
X82294761Y-107089726D02*
X81508570Y-107089726D01*
X80964285Y-106605916D02*
X79996666Y-106605916D01*
X79452380Y-105940678D02*
X79391904Y-105880202D01*
X79391904Y-105880202D02*
X79270951Y-105819726D01*
X79270951Y-105819726D02*
X78968570Y-105819726D01*
X78968570Y-105819726D02*
X78847618Y-105880202D01*
X78847618Y-105880202D02*
X78787142Y-105940678D01*
X78787142Y-105940678D02*
X78726665Y-106061630D01*
X78726665Y-106061630D02*
X78726665Y-106182583D01*
X78726665Y-106182583D02*
X78787142Y-106364011D01*
X78787142Y-106364011D02*
X79512856Y-107089726D01*
X79512856Y-107089726D02*
X78726665Y-107089726D01*
X78000951Y-106364011D02*
X78121903Y-106303535D01*
X78121903Y-106303535D02*
X78182380Y-106243059D01*
X78182380Y-106243059D02*
X78242856Y-106122107D01*
X78242856Y-106122107D02*
X78242856Y-106061630D01*
X78242856Y-106061630D02*
X78182380Y-105940678D01*
X78182380Y-105940678D02*
X78121903Y-105880202D01*
X78121903Y-105880202D02*
X78000951Y-105819726D01*
X78000951Y-105819726D02*
X77759046Y-105819726D01*
X77759046Y-105819726D02*
X77638094Y-105880202D01*
X77638094Y-105880202D02*
X77577618Y-105940678D01*
X77577618Y-105940678D02*
X77517141Y-106061630D01*
X77517141Y-106061630D02*
X77517141Y-106122107D01*
X77517141Y-106122107D02*
X77577618Y-106243059D01*
X77577618Y-106243059D02*
X77638094Y-106303535D01*
X77638094Y-106303535D02*
X77759046Y-106364011D01*
X77759046Y-106364011D02*
X78000951Y-106364011D01*
X78000951Y-106364011D02*
X78121903Y-106424488D01*
X78121903Y-106424488D02*
X78182380Y-106484964D01*
X78182380Y-106484964D02*
X78242856Y-106605916D01*
X78242856Y-106605916D02*
X78242856Y-106847821D01*
X78242856Y-106847821D02*
X78182380Y-106968773D01*
X78182380Y-106968773D02*
X78121903Y-107029250D01*
X78121903Y-107029250D02*
X78000951Y-107089726D01*
X78000951Y-107089726D02*
X77759046Y-107089726D01*
X77759046Y-107089726D02*
X77638094Y-107029250D01*
X77638094Y-107029250D02*
X77577618Y-106968773D01*
X77577618Y-106968773D02*
X77517141Y-106847821D01*
X77517141Y-106847821D02*
X77517141Y-106605916D01*
X77517141Y-106605916D02*
X77577618Y-106484964D01*
X77577618Y-106484964D02*
X77638094Y-106424488D01*
X77638094Y-106424488D02*
X77759046Y-106364011D01*
X76972856Y-107089726D02*
X76972856Y-105819726D01*
X76972856Y-105819726D02*
X76489046Y-105819726D01*
X76489046Y-105819726D02*
X76368094Y-105880202D01*
X76368094Y-105880202D02*
X76307617Y-105940678D01*
X76307617Y-105940678D02*
X76247141Y-106061630D01*
X76247141Y-106061630D02*
X76247141Y-106243059D01*
X76247141Y-106243059D02*
X76307617Y-106364011D01*
X76307617Y-106364011D02*
X76368094Y-106424488D01*
X76368094Y-106424488D02*
X76489046Y-106484964D01*
X76489046Y-106484964D02*
X76972856Y-106484964D01*
X88675000Y-106968773D02*
X88735476Y-107029250D01*
X88735476Y-107029250D02*
X88916905Y-107089726D01*
X88916905Y-107089726D02*
X89037857Y-107089726D01*
X89037857Y-107089726D02*
X89219286Y-107029250D01*
X89219286Y-107029250D02*
X89340238Y-106908297D01*
X89340238Y-106908297D02*
X89400715Y-106787345D01*
X89400715Y-106787345D02*
X89461191Y-106545440D01*
X89461191Y-106545440D02*
X89461191Y-106364011D01*
X89461191Y-106364011D02*
X89400715Y-106122107D01*
X89400715Y-106122107D02*
X89340238Y-106001154D01*
X89340238Y-106001154D02*
X89219286Y-105880202D01*
X89219286Y-105880202D02*
X89037857Y-105819726D01*
X89037857Y-105819726D02*
X88916905Y-105819726D01*
X88916905Y-105819726D02*
X88735476Y-105880202D01*
X88735476Y-105880202D02*
X88675000Y-105940678D01*
X88191191Y-105940678D02*
X88130715Y-105880202D01*
X88130715Y-105880202D02*
X88009762Y-105819726D01*
X88009762Y-105819726D02*
X87707381Y-105819726D01*
X87707381Y-105819726D02*
X87586429Y-105880202D01*
X87586429Y-105880202D02*
X87525953Y-105940678D01*
X87525953Y-105940678D02*
X87465476Y-106061630D01*
X87465476Y-106061630D02*
X87465476Y-106182583D01*
X87465476Y-106182583D02*
X87525953Y-106364011D01*
X87525953Y-106364011D02*
X88251667Y-107089726D01*
X88251667Y-107089726D02*
X87465476Y-107089726D01*
X86981667Y-105940678D02*
X86921191Y-105880202D01*
X86921191Y-105880202D02*
X86800238Y-105819726D01*
X86800238Y-105819726D02*
X86497857Y-105819726D01*
X86497857Y-105819726D02*
X86376905Y-105880202D01*
X86376905Y-105880202D02*
X86316429Y-105940678D01*
X86316429Y-105940678D02*
X86255952Y-106061630D01*
X86255952Y-106061630D02*
X86255952Y-106182583D01*
X86255952Y-106182583D02*
X86316429Y-106364011D01*
X86316429Y-106364011D02*
X87042143Y-107089726D01*
X87042143Y-107089726D02*
X86255952Y-107089726D01*
X85167381Y-106243059D02*
X85167381Y-107089726D01*
X85469762Y-105759250D02*
X85772143Y-106666392D01*
X85772143Y-106666392D02*
X84985952Y-106666392D01*
X83957857Y-105819726D02*
X84199762Y-105819726D01*
X84199762Y-105819726D02*
X84320714Y-105880202D01*
X84320714Y-105880202D02*
X84381190Y-105940678D01*
X84381190Y-105940678D02*
X84502143Y-106122107D01*
X84502143Y-106122107D02*
X84562619Y-106364011D01*
X84562619Y-106364011D02*
X84562619Y-106847821D01*
X84562619Y-106847821D02*
X84502143Y-106968773D01*
X84502143Y-106968773D02*
X84441666Y-107029250D01*
X84441666Y-107029250D02*
X84320714Y-107089726D01*
X84320714Y-107089726D02*
X84078809Y-107089726D01*
X84078809Y-107089726D02*
X83957857Y-107029250D01*
X83957857Y-107029250D02*
X83897381Y-106968773D01*
X83897381Y-106968773D02*
X83836904Y-106847821D01*
X83836904Y-106847821D02*
X83836904Y-106545440D01*
X83836904Y-106545440D02*
X83897381Y-106424488D01*
X83897381Y-106424488D02*
X83957857Y-106364011D01*
X83957857Y-106364011D02*
X84078809Y-106303535D01*
X84078809Y-106303535D02*
X84320714Y-106303535D01*
X84320714Y-106303535D02*
X84441666Y-106364011D01*
X84441666Y-106364011D02*
X84502143Y-106424488D01*
X84502143Y-106424488D02*
X84562619Y-106545440D01*
X82687857Y-105819726D02*
X83292619Y-105819726D01*
X83292619Y-105819726D02*
X83353095Y-106424488D01*
X83353095Y-106424488D02*
X83292619Y-106364011D01*
X83292619Y-106364011D02*
X83171666Y-106303535D01*
X83171666Y-106303535D02*
X82869285Y-106303535D01*
X82869285Y-106303535D02*
X82748333Y-106364011D01*
X82748333Y-106364011D02*
X82687857Y-106424488D01*
X82687857Y-106424488D02*
X82627380Y-106545440D01*
X82627380Y-106545440D02*
X82627380Y-106847821D01*
X82627380Y-106847821D02*
X82687857Y-106968773D01*
X82687857Y-106968773D02*
X82748333Y-107029250D01*
X82748333Y-107029250D02*
X82869285Y-107089726D01*
X82869285Y-107089726D02*
X83171666Y-107089726D01*
X83171666Y-107089726D02*
X83292619Y-107029250D01*
X83292619Y-107029250D02*
X83353095Y-106968773D01*
X81901666Y-106364011D02*
X82022618Y-106303535D01*
X82022618Y-106303535D02*
X82083095Y-106243059D01*
X82083095Y-106243059D02*
X82143571Y-106122107D01*
X82143571Y-106122107D02*
X82143571Y-106061630D01*
X82143571Y-106061630D02*
X82083095Y-105940678D01*
X82083095Y-105940678D02*
X82022618Y-105880202D01*
X82022618Y-105880202D02*
X81901666Y-105819726D01*
X81901666Y-105819726D02*
X81659761Y-105819726D01*
X81659761Y-105819726D02*
X81538809Y-105880202D01*
X81538809Y-105880202D02*
X81478333Y-105940678D01*
X81478333Y-105940678D02*
X81417856Y-106061630D01*
X81417856Y-106061630D02*
X81417856Y-106122107D01*
X81417856Y-106122107D02*
X81478333Y-106243059D01*
X81478333Y-106243059D02*
X81538809Y-106303535D01*
X81538809Y-106303535D02*
X81659761Y-106364011D01*
X81659761Y-106364011D02*
X81901666Y-106364011D01*
X81901666Y-106364011D02*
X82022618Y-106424488D01*
X82022618Y-106424488D02*
X82083095Y-106484964D01*
X82083095Y-106484964D02*
X82143571Y-106605916D01*
X82143571Y-106605916D02*
X82143571Y-106847821D01*
X82143571Y-106847821D02*
X82083095Y-106968773D01*
X82083095Y-106968773D02*
X82022618Y-107029250D01*
X82022618Y-107029250D02*
X81901666Y-107089726D01*
X81901666Y-107089726D02*
X81659761Y-107089726D01*
X81659761Y-107089726D02*
X81538809Y-107029250D01*
X81538809Y-107029250D02*
X81478333Y-106968773D01*
X81478333Y-106968773D02*
X81417856Y-106847821D01*
X81417856Y-106847821D02*
X81417856Y-106605916D01*
X81417856Y-106605916D02*
X81478333Y-106484964D01*
X81478333Y-106484964D02*
X81538809Y-106424488D01*
X81538809Y-106424488D02*
X81659761Y-106364011D01*
X80692142Y-106364011D02*
X80813094Y-106303535D01*
X80813094Y-106303535D02*
X80873571Y-106243059D01*
X80873571Y-106243059D02*
X80934047Y-106122107D01*
X80934047Y-106122107D02*
X80934047Y-106061630D01*
X80934047Y-106061630D02*
X80873571Y-105940678D01*
X80873571Y-105940678D02*
X80813094Y-105880202D01*
X80813094Y-105880202D02*
X80692142Y-105819726D01*
X80692142Y-105819726D02*
X80450237Y-105819726D01*
X80450237Y-105819726D02*
X80329285Y-105880202D01*
X80329285Y-105880202D02*
X80268809Y-105940678D01*
X80268809Y-105940678D02*
X80208332Y-106061630D01*
X80208332Y-106061630D02*
X80208332Y-106122107D01*
X80208332Y-106122107D02*
X80268809Y-106243059D01*
X80268809Y-106243059D02*
X80329285Y-106303535D01*
X80329285Y-106303535D02*
X80450237Y-106364011D01*
X80450237Y-106364011D02*
X80692142Y-106364011D01*
X80692142Y-106364011D02*
X80813094Y-106424488D01*
X80813094Y-106424488D02*
X80873571Y-106484964D01*
X80873571Y-106484964D02*
X80934047Y-106605916D01*
X80934047Y-106605916D02*
X80934047Y-106847821D01*
X80934047Y-106847821D02*
X80873571Y-106968773D01*
X80873571Y-106968773D02*
X80813094Y-107029250D01*
X80813094Y-107029250D02*
X80692142Y-107089726D01*
X80692142Y-107089726D02*
X80450237Y-107089726D01*
X80450237Y-107089726D02*
X80329285Y-107029250D01*
X80329285Y-107029250D02*
X80268809Y-106968773D01*
X80268809Y-106968773D02*
X80208332Y-106847821D01*
X80208332Y-106847821D02*
X80208332Y-106605916D01*
X80208332Y-106605916D02*
X80268809Y-106484964D01*
X80268809Y-106484964D02*
X80329285Y-106424488D01*
X80329285Y-106424488D02*
X80450237Y-106364011D01*
X79482618Y-106364011D02*
X79603570Y-106303535D01*
X79603570Y-106303535D02*
X79664047Y-106243059D01*
X79664047Y-106243059D02*
X79724523Y-106122107D01*
X79724523Y-106122107D02*
X79724523Y-106061630D01*
X79724523Y-106061630D02*
X79664047Y-105940678D01*
X79664047Y-105940678D02*
X79603570Y-105880202D01*
X79603570Y-105880202D02*
X79482618Y-105819726D01*
X79482618Y-105819726D02*
X79240713Y-105819726D01*
X79240713Y-105819726D02*
X79119761Y-105880202D01*
X79119761Y-105880202D02*
X79059285Y-105940678D01*
X79059285Y-105940678D02*
X78998808Y-106061630D01*
X78998808Y-106061630D02*
X78998808Y-106122107D01*
X78998808Y-106122107D02*
X79059285Y-106243059D01*
X79059285Y-106243059D02*
X79119761Y-106303535D01*
X79119761Y-106303535D02*
X79240713Y-106364011D01*
X79240713Y-106364011D02*
X79482618Y-106364011D01*
X79482618Y-106364011D02*
X79603570Y-106424488D01*
X79603570Y-106424488D02*
X79664047Y-106484964D01*
X79664047Y-106484964D02*
X79724523Y-106605916D01*
X79724523Y-106605916D02*
X79724523Y-106847821D01*
X79724523Y-106847821D02*
X79664047Y-106968773D01*
X79664047Y-106968773D02*
X79603570Y-107029250D01*
X79603570Y-107029250D02*
X79482618Y-107089726D01*
X79482618Y-107089726D02*
X79240713Y-107089726D01*
X79240713Y-107089726D02*
X79119761Y-107029250D01*
X79119761Y-107029250D02*
X79059285Y-106968773D01*
X79059285Y-106968773D02*
X78998808Y-106847821D01*
X78998808Y-106847821D02*
X78998808Y-106605916D01*
X78998808Y-106605916D02*
X79059285Y-106484964D01*
X79059285Y-106484964D02*
X79119761Y-106424488D01*
X79119761Y-106424488D02*
X79240713Y-106364011D01*
X89279760Y-105880202D02*
X89400713Y-105819726D01*
X89400713Y-105819726D02*
X89582141Y-105819726D01*
X89582141Y-105819726D02*
X89763570Y-105880202D01*
X89763570Y-105880202D02*
X89884522Y-106001154D01*
X89884522Y-106001154D02*
X89944999Y-106122107D01*
X89944999Y-106122107D02*
X90005475Y-106364011D01*
X90005475Y-106364011D02*
X90005475Y-106545440D01*
X90005475Y-106545440D02*
X89944999Y-106787345D01*
X89944999Y-106787345D02*
X89884522Y-106908297D01*
X89884522Y-106908297D02*
X89763570Y-107029250D01*
X89763570Y-107029250D02*
X89582141Y-107089726D01*
X89582141Y-107089726D02*
X89461189Y-107089726D01*
X89461189Y-107089726D02*
X89279760Y-107029250D01*
X89279760Y-107029250D02*
X89219284Y-106968773D01*
X89219284Y-106968773D02*
X89219284Y-106545440D01*
X89219284Y-106545440D02*
X89461189Y-106545440D01*
X88674999Y-107089726D02*
X88674999Y-105819726D01*
X88674999Y-105819726D02*
X88191189Y-105819726D01*
X88191189Y-105819726D02*
X88070237Y-105880202D01*
X88070237Y-105880202D02*
X88009760Y-105940678D01*
X88009760Y-105940678D02*
X87949284Y-106061630D01*
X87949284Y-106061630D02*
X87949284Y-106243059D01*
X87949284Y-106243059D02*
X88009760Y-106364011D01*
X88009760Y-106364011D02*
X88070237Y-106424488D01*
X88070237Y-106424488D02*
X88191189Y-106484964D01*
X88191189Y-106484964D02*
X88674999Y-106484964D01*
X87404999Y-107089726D02*
X87404999Y-105819726D01*
X86558332Y-105819726D02*
X86316427Y-105819726D01*
X86316427Y-105819726D02*
X86195475Y-105880202D01*
X86195475Y-105880202D02*
X86074522Y-106001154D01*
X86074522Y-106001154D02*
X86014046Y-106243059D01*
X86014046Y-106243059D02*
X86014046Y-106666392D01*
X86014046Y-106666392D02*
X86074522Y-106908297D01*
X86074522Y-106908297D02*
X86195475Y-107029250D01*
X86195475Y-107029250D02*
X86316427Y-107089726D01*
X86316427Y-107089726D02*
X86558332Y-107089726D01*
X86558332Y-107089726D02*
X86679284Y-107029250D01*
X86679284Y-107029250D02*
X86800237Y-106908297D01*
X86800237Y-106908297D02*
X86860713Y-106666392D01*
X86860713Y-106666392D02*
X86860713Y-106243059D01*
X86860713Y-106243059D02*
X86800237Y-106001154D01*
X86800237Y-106001154D02*
X86679284Y-105880202D01*
X86679284Y-105880202D02*
X86558332Y-105819726D01*
X84502142Y-107089726D02*
X84502142Y-105819726D01*
X84502142Y-106424488D02*
X83776427Y-106424488D01*
X83776427Y-107089726D02*
X83776427Y-105819726D01*
X82687856Y-107029250D02*
X82808808Y-107089726D01*
X82808808Y-107089726D02*
X83050713Y-107089726D01*
X83050713Y-107089726D02*
X83171666Y-107029250D01*
X83171666Y-107029250D02*
X83232142Y-106908297D01*
X83232142Y-106908297D02*
X83232142Y-106424488D01*
X83232142Y-106424488D02*
X83171666Y-106303535D01*
X83171666Y-106303535D02*
X83050713Y-106243059D01*
X83050713Y-106243059D02*
X82808808Y-106243059D01*
X82808808Y-106243059D02*
X82687856Y-106303535D01*
X82687856Y-106303535D02*
X82627380Y-106424488D01*
X82627380Y-106424488D02*
X82627380Y-106545440D01*
X82627380Y-106545440D02*
X83232142Y-106666392D01*
X81538809Y-107089726D02*
X81538809Y-106424488D01*
X81538809Y-106424488D02*
X81599285Y-106303535D01*
X81599285Y-106303535D02*
X81720237Y-106243059D01*
X81720237Y-106243059D02*
X81962142Y-106243059D01*
X81962142Y-106243059D02*
X82083095Y-106303535D01*
X81538809Y-107029250D02*
X81659761Y-107089726D01*
X81659761Y-107089726D02*
X81962142Y-107089726D01*
X81962142Y-107089726D02*
X82083095Y-107029250D01*
X82083095Y-107029250D02*
X82143571Y-106908297D01*
X82143571Y-106908297D02*
X82143571Y-106787345D01*
X82143571Y-106787345D02*
X82083095Y-106666392D01*
X82083095Y-106666392D02*
X81962142Y-106605916D01*
X81962142Y-106605916D02*
X81659761Y-106605916D01*
X81659761Y-106605916D02*
X81538809Y-106545440D01*
X80389761Y-107089726D02*
X80389761Y-105819726D01*
X80389761Y-107029250D02*
X80510713Y-107089726D01*
X80510713Y-107089726D02*
X80752618Y-107089726D01*
X80752618Y-107089726D02*
X80873570Y-107029250D01*
X80873570Y-107029250D02*
X80934047Y-106968773D01*
X80934047Y-106968773D02*
X80994523Y-106847821D01*
X80994523Y-106847821D02*
X80994523Y-106484964D01*
X80994523Y-106484964D02*
X80934047Y-106364011D01*
X80934047Y-106364011D02*
X80873570Y-106303535D01*
X80873570Y-106303535D02*
X80752618Y-106243059D01*
X80752618Y-106243059D02*
X80510713Y-106243059D01*
X80510713Y-106243059D02*
X80389761Y-106303535D01*
X79301189Y-107029250D02*
X79422141Y-107089726D01*
X79422141Y-107089726D02*
X79664046Y-107089726D01*
X79664046Y-107089726D02*
X79784999Y-107029250D01*
X79784999Y-107029250D02*
X79845475Y-106908297D01*
X79845475Y-106908297D02*
X79845475Y-106424488D01*
X79845475Y-106424488D02*
X79784999Y-106303535D01*
X79784999Y-106303535D02*
X79664046Y-106243059D01*
X79664046Y-106243059D02*
X79422141Y-106243059D01*
X79422141Y-106243059D02*
X79301189Y-106303535D01*
X79301189Y-106303535D02*
X79240713Y-106424488D01*
X79240713Y-106424488D02*
X79240713Y-106545440D01*
X79240713Y-106545440D02*
X79845475Y-106666392D01*
X78696428Y-107089726D02*
X78696428Y-106243059D01*
X78696428Y-106484964D02*
X78635951Y-106364011D01*
X78635951Y-106364011D02*
X78575475Y-106303535D01*
X78575475Y-106303535D02*
X78454523Y-106243059D01*
X78454523Y-106243059D02*
X78333570Y-106243059D01*
X90338095Y-106243059D02*
X90338095Y-107271154D01*
X90338095Y-107271154D02*
X90398571Y-107392107D01*
X90398571Y-107392107D02*
X90459047Y-107452583D01*
X90459047Y-107452583D02*
X90580000Y-107513059D01*
X90580000Y-107513059D02*
X90761428Y-107513059D01*
X90761428Y-107513059D02*
X90882381Y-107452583D01*
X90338095Y-107029250D02*
X90459047Y-107089726D01*
X90459047Y-107089726D02*
X90700952Y-107089726D01*
X90700952Y-107089726D02*
X90821904Y-107029250D01*
X90821904Y-107029250D02*
X90882381Y-106968773D01*
X90882381Y-106968773D02*
X90942857Y-106847821D01*
X90942857Y-106847821D02*
X90942857Y-106484964D01*
X90942857Y-106484964D02*
X90882381Y-106364011D01*
X90882381Y-106364011D02*
X90821904Y-106303535D01*
X90821904Y-106303535D02*
X90700952Y-106243059D01*
X90700952Y-106243059D02*
X90459047Y-106243059D01*
X90459047Y-106243059D02*
X90338095Y-106303535D01*
X89733333Y-106243059D02*
X89733333Y-107513059D01*
X89733333Y-106303535D02*
X89612380Y-106243059D01*
X89612380Y-106243059D02*
X89370475Y-106243059D01*
X89370475Y-106243059D02*
X89249523Y-106303535D01*
X89249523Y-106303535D02*
X89189047Y-106364011D01*
X89189047Y-106364011D02*
X89128571Y-106484964D01*
X89128571Y-106484964D02*
X89128571Y-106847821D01*
X89128571Y-106847821D02*
X89189047Y-106968773D01*
X89189047Y-106968773D02*
X89249523Y-107029250D01*
X89249523Y-107029250D02*
X89370475Y-107089726D01*
X89370475Y-107089726D02*
X89612380Y-107089726D01*
X89612380Y-107089726D02*
X89733333Y-107029250D01*
X88584285Y-107089726D02*
X88584285Y-106243059D01*
X88584285Y-105819726D02*
X88644761Y-105880202D01*
X88644761Y-105880202D02*
X88584285Y-105940678D01*
X88584285Y-105940678D02*
X88523808Y-105880202D01*
X88523808Y-105880202D02*
X88584285Y-105819726D01*
X88584285Y-105819726D02*
X88584285Y-105940678D01*
X87798094Y-107089726D02*
X87919046Y-107029250D01*
X87919046Y-107029250D02*
X87979523Y-106968773D01*
X87979523Y-106968773D02*
X88039999Y-106847821D01*
X88039999Y-106847821D02*
X88039999Y-106484964D01*
X88039999Y-106484964D02*
X87979523Y-106364011D01*
X87979523Y-106364011D02*
X87919046Y-106303535D01*
X87919046Y-106303535D02*
X87798094Y-106243059D01*
X87798094Y-106243059D02*
X87616665Y-106243059D01*
X87616665Y-106243059D02*
X87495713Y-106303535D01*
X87495713Y-106303535D02*
X87435237Y-106364011D01*
X87435237Y-106364011D02*
X87374761Y-106484964D01*
X87374761Y-106484964D02*
X87374761Y-106847821D01*
X87374761Y-106847821D02*
X87435237Y-106968773D01*
X87435237Y-106968773D02*
X87495713Y-107029250D01*
X87495713Y-107029250D02*
X87616665Y-107089726D01*
X87616665Y-107089726D02*
X87798094Y-107089726D01*
X86830475Y-106968773D02*
X86769998Y-107029250D01*
X86769998Y-107029250D02*
X86830475Y-107089726D01*
X86830475Y-107089726D02*
X86890951Y-107029250D01*
X86890951Y-107029250D02*
X86830475Y-106968773D01*
X86830475Y-106968773D02*
X86830475Y-107089726D01*
X86225713Y-107089726D02*
X86225713Y-105819726D01*
X86104760Y-106605916D02*
X85741903Y-107089726D01*
X85741903Y-106243059D02*
X86225713Y-106726869D01*
X85197618Y-107089726D02*
X85197618Y-106243059D01*
X85197618Y-105819726D02*
X85258094Y-105880202D01*
X85258094Y-105880202D02*
X85197618Y-105940678D01*
X85197618Y-105940678D02*
X85137141Y-105880202D01*
X85137141Y-105880202D02*
X85197618Y-105819726D01*
X85197618Y-105819726D02*
X85197618Y-105940678D01*
X84048570Y-107029250D02*
X84169522Y-107089726D01*
X84169522Y-107089726D02*
X84411427Y-107089726D01*
X84411427Y-107089726D02*
X84532379Y-107029250D01*
X84532379Y-107029250D02*
X84592856Y-106968773D01*
X84592856Y-106968773D02*
X84653332Y-106847821D01*
X84653332Y-106847821D02*
X84653332Y-106484964D01*
X84653332Y-106484964D02*
X84592856Y-106364011D01*
X84592856Y-106364011D02*
X84532379Y-106303535D01*
X84532379Y-106303535D02*
X84411427Y-106243059D01*
X84411427Y-106243059D02*
X84169522Y-106243059D01*
X84169522Y-106243059D02*
X84048570Y-106303535D01*
X82959999Y-107089726D02*
X82959999Y-106424488D01*
X82959999Y-106424488D02*
X83020475Y-106303535D01*
X83020475Y-106303535D02*
X83141427Y-106243059D01*
X83141427Y-106243059D02*
X83383332Y-106243059D01*
X83383332Y-106243059D02*
X83504285Y-106303535D01*
X82959999Y-107029250D02*
X83080951Y-107089726D01*
X83080951Y-107089726D02*
X83383332Y-107089726D01*
X83383332Y-107089726D02*
X83504285Y-107029250D01*
X83504285Y-107029250D02*
X83564761Y-106908297D01*
X83564761Y-106908297D02*
X83564761Y-106787345D01*
X83564761Y-106787345D02*
X83504285Y-106666392D01*
X83504285Y-106666392D02*
X83383332Y-106605916D01*
X83383332Y-106605916D02*
X83080951Y-106605916D01*
X83080951Y-106605916D02*
X82959999Y-106545440D01*
X81810951Y-107089726D02*
X81810951Y-105819726D01*
X81810951Y-107029250D02*
X81931903Y-107089726D01*
X81931903Y-107089726D02*
X82173808Y-107089726D01*
X82173808Y-107089726D02*
X82294760Y-107029250D01*
X82294760Y-107029250D02*
X82355237Y-106968773D01*
X82355237Y-106968773D02*
X82415713Y-106847821D01*
X82415713Y-106847821D02*
X82415713Y-106484964D01*
X82415713Y-106484964D02*
X82355237Y-106364011D01*
X82355237Y-106364011D02*
X82294760Y-106303535D01*
X82294760Y-106303535D02*
X82173808Y-106243059D01*
X82173808Y-106243059D02*
X81931903Y-106243059D01*
X81931903Y-106243059D02*
X81810951Y-106303535D01*
X81508570Y-107210678D02*
X80540950Y-107210678D01*
X80299046Y-107029250D02*
X80178093Y-107089726D01*
X80178093Y-107089726D02*
X79936189Y-107089726D01*
X79936189Y-107089726D02*
X79815236Y-107029250D01*
X79815236Y-107029250D02*
X79754760Y-106908297D01*
X79754760Y-106908297D02*
X79754760Y-106847821D01*
X79754760Y-106847821D02*
X79815236Y-106726869D01*
X79815236Y-106726869D02*
X79936189Y-106666392D01*
X79936189Y-106666392D02*
X80117617Y-106666392D01*
X80117617Y-106666392D02*
X80238570Y-106605916D01*
X80238570Y-106605916D02*
X80299046Y-106484964D01*
X80299046Y-106484964D02*
X80299046Y-106424488D01*
X80299046Y-106424488D02*
X80238570Y-106303535D01*
X80238570Y-106303535D02*
X80117617Y-106243059D01*
X80117617Y-106243059D02*
X79936189Y-106243059D01*
X79936189Y-106243059D02*
X79815236Y-106303535D01*
X78666189Y-107029250D02*
X78787141Y-107089726D01*
X78787141Y-107089726D02*
X79029046Y-107089726D01*
X79029046Y-107089726D02*
X79149998Y-107029250D01*
X79149998Y-107029250D02*
X79210475Y-106968773D01*
X79210475Y-106968773D02*
X79270951Y-106847821D01*
X79270951Y-106847821D02*
X79270951Y-106484964D01*
X79270951Y-106484964D02*
X79210475Y-106364011D01*
X79210475Y-106364011D02*
X79149998Y-106303535D01*
X79149998Y-106303535D02*
X79029046Y-106243059D01*
X79029046Y-106243059D02*
X78787141Y-106243059D01*
X78787141Y-106243059D02*
X78666189Y-106303535D01*
X78121904Y-107089726D02*
X78121904Y-105819726D01*
X77577618Y-107089726D02*
X77577618Y-106424488D01*
X77577618Y-106424488D02*
X77638094Y-106303535D01*
X77638094Y-106303535D02*
X77759046Y-106243059D01*
X77759046Y-106243059D02*
X77940475Y-106243059D01*
X77940475Y-106243059D02*
X78061427Y-106303535D01*
X78061427Y-106303535D02*
X78121904Y-106364011D01*
G04 #@! TO.C,J2*
D11*
X82850000Y-72110000D02*
X88150000Y-72110000D01*
X82850000Y-105240000D02*
X82850000Y-72110000D01*
X82850000Y-105240000D02*
X85500000Y-105240000D01*
X82850000Y-106510000D02*
X82850000Y-107890000D01*
X82850000Y-107890000D02*
X84230000Y-107890000D01*
X85500000Y-105240000D02*
X85500000Y-107890000D01*
X85500000Y-107890000D02*
X88150000Y-107890000D01*
X88150000Y-107890000D02*
X88150000Y-72110000D01*
G04 #@! TD*
M02*
