G04 #@! TF.GenerationSoftware,KiCad,Pcbnew,10.0.1*
G04 #@! TF.CreationDate,2026-09-13T16:10:18+03:00*
G04 #@! TF.ProjectId,Platvorm,506c6174-766f-4726-9d2e-6b696361645f,rev?*
G04 #@! TF.SameCoordinates,Original*
G04 #@! TF.FileFunction,Soldermask,Bot*
G04 #@! TF.FilePolarity,Negative*
%FSLAX46Y46*%
G04 Gerber Fmt 4.6, Leading zero omitted, Abs format (unit mm)*
G04 Created by KiCad (PCBNEW 10.0.1) date 2026-09-13 16:10:18*
%MOMM*%
%LPD*%
G01*
G04 APERTURE LIST*
%ADD10R,1.700000X1.700000*%
%ADD11C,1.700000*%
%ADD12C,0.600000*%
%ADD13O,1.200000X2.000000*%
%ADD14O,1.200000X1.800000*%
G04 APERTURE END LIST*
D10*
G04 #@! TO.C,J1*
X55470000Y-70890000D03*
D11*
X52930000Y-70890000D03*
X55470000Y-68350000D03*
X52930000Y-68350000D03*
X55470000Y-65810000D03*
X52930000Y-65810000D03*
X55470000Y-63270000D03*
X52930000Y-63270000D03*
X55470000Y-60730000D03*
X52930000Y-60730000D03*
X55470000Y-58190000D03*
X52930000Y-58190000D03*
X55470000Y-55650000D03*
X52930000Y-55650000D03*
X55470000Y-53110000D03*
X52930000Y-53110000D03*
G04 #@! TD*
D10*
G04 #@! TO.C,JP1*
X53500000Y-78460000D03*
D11*
X53500000Y-81000000D03*
X53500000Y-83540000D03*
G04 #@! TD*
D12*
G04 #@! TO.C,J3*
X72800000Y-127739900D03*
X67000000Y-127739900D03*
D13*
X65570000Y-128239900D03*
D14*
X65570000Y-124059900D03*
X74230000Y-124059900D03*
D13*
X74230000Y-128239900D03*
G04 #@! TD*
D10*
G04 #@! TO.C,J2*
X84230000Y-106510000D03*
D11*
X86770000Y-106510000D03*
X84230000Y-103970000D03*
X86770000Y-103970000D03*
X84230000Y-101430000D03*
X86770000Y-101430000D03*
X84230000Y-98890000D03*
X86770000Y-98890000D03*
X84230000Y-96350000D03*
X86770000Y-96350000D03*
X84230000Y-93810000D03*
X86770000Y-93810000D03*
X84230000Y-91270000D03*
X86770000Y-91270000D03*
X84230000Y-88730000D03*
X86770000Y-88730000D03*
X84230000Y-86190000D03*
X86770000Y-86190000D03*
X84230000Y-83650000D03*
X86770000Y-83650000D03*
X84230000Y-81110000D03*
X86770000Y-81110000D03*
X84230000Y-78570000D03*
X86770000Y-78570000D03*
X84230000Y-76030000D03*
X86770000Y-76030000D03*
X84230000Y-73490000D03*
X86770000Y-73490000D03*
G04 #@! TD*
M02*
