%TF.GenerationSoftware,KiCad,Pcbnew,9.0.6*%
%TF.CreationDate,2026-01-15T19:23:28+02:00*%
%TF.ProjectId,V3.0,56332e30-2e6b-4696-9361-645f70636258,3*%
%TF.SameCoordinates,Original*%
%TF.FileFunction,Paste,Bot*%
%TF.FilePolarity,Positive*%
%FSLAX46Y46*%
G04 Gerber Fmt 4.6, Leading zero omitted, Abs format (unit mm)*
G04 Created by KiCad (PCBNEW 9.0.6) date 2026-01-15 19:23:28*
%MOMM*%
%LPD*%
G01*
G04 APERTURE LIST*
G04 Aperture macros list*
%AMRoundRect*
0 Rectangle with rounded corners*
0 $1 Rounding radius*
0 $2 $3 $4 $5 $6 $7 $8 $9 X,Y pos of 4 corners*
0 Add a 4 corners polygon primitive as box body*
4,1,4,$2,$3,$4,$5,$6,$7,$8,$9,$2,$3,0*
0 Add four circle primitives for the rounded corners*
1,1,$1+$1,$2,$3*
1,1,$1+$1,$4,$5*
1,1,$1+$1,$6,$7*
1,1,$1+$1,$8,$9*
0 Add four rect primitives between the rounded corners*
20,1,$1+$1,$2,$3,$4,$5,0*
20,1,$1+$1,$4,$5,$6,$7,0*
20,1,$1+$1,$6,$7,$8,$9,0*
20,1,$1+$1,$8,$9,$2,$3,0*%
G04 Aperture macros list end*
%TA.AperFunction,ComponentPad*%
%ADD10C,1.700000*%
%TD*%
%TA.AperFunction,ComponentPad*%
%ADD11C,2.010000*%
%TD*%
%TA.AperFunction,ComponentPad*%
%ADD12C,1.651000*%
%TD*%
%TA.AperFunction,ComponentPad*%
%ADD13R,1.800000X1.800000*%
%TD*%
%TA.AperFunction,ComponentPad*%
%ADD14C,1.800000*%
%TD*%
%TA.AperFunction,ComponentPad*%
%ADD15R,1.950000X1.950000*%
%TD*%
%TA.AperFunction,ComponentPad*%
%ADD16C,1.950000*%
%TD*%
%TA.AperFunction,ViaPad*%
%ADD17C,0.600000*%
%TD*%
%TA.AperFunction,SMDPad,CuDef*%
%ADD18RoundRect,0.225000X-0.225000X-0.250000X0.225000X-0.250000X0.225000X0.250000X-0.225000X0.250000X0*%
%TD*%
%TA.AperFunction,SMDPad,CuDef*%
%ADD19RoundRect,0.250000X0.312500X0.625000X-0.312500X0.625000X-0.312500X-0.625000X0.312500X-0.625000X0*%
%TD*%
%TA.AperFunction,SMDPad,CuDef*%
%ADD20R,1.400000X0.700000*%
%TD*%
%TA.AperFunction,SMDPad,CuDef*%
%ADD21R,1.400000X0.760000*%
%TD*%
%TA.AperFunction,SMDPad,CuDef*%
%ADD22R,1.400000X0.800000*%
%TD*%
%TA.AperFunction,SMDPad,CuDef*%
%ADD23RoundRect,0.225000X-0.250000X0.225000X-0.250000X-0.225000X0.250000X-0.225000X0.250000X0.225000X0*%
%TD*%
%TA.AperFunction,SMDPad,CuDef*%
%ADD24RoundRect,0.250000X-0.625000X0.312500X-0.625000X-0.312500X0.625000X-0.312500X0.625000X0.312500X0*%
%TD*%
%TA.AperFunction,SMDPad,CuDef*%
%ADD25RoundRect,0.250000X1.500000X0.550000X-1.500000X0.550000X-1.500000X-0.550000X1.500000X-0.550000X0*%
%TD*%
%TA.AperFunction,SMDPad,CuDef*%
%ADD26R,2.200000X2.150000*%
%TD*%
%TA.AperFunction,SMDPad,CuDef*%
%ADD27RoundRect,0.250000X-0.550000X1.500000X-0.550000X-1.500000X0.550000X-1.500000X0.550000X1.500000X0*%
%TD*%
%TA.AperFunction,SMDPad,CuDef*%
%ADD28RoundRect,0.225000X0.225000X0.250000X-0.225000X0.250000X-0.225000X-0.250000X0.225000X-0.250000X0*%
%TD*%
%TA.AperFunction,SMDPad,CuDef*%
%ADD29RoundRect,0.250000X-1.450000X0.312500X-1.450000X-0.312500X1.450000X-0.312500X1.450000X0.312500X0*%
%TD*%
%TA.AperFunction,Conductor*%
%ADD30C,0.500000*%
%TD*%
G04 APERTURE END LIST*
D10*
%TO.P,J1,MH1,MH1*%
%TO.N,GND*%
X139710000Y-46110000D03*
%TO.P,J1,MH2,MH2*%
X139710000Y-54750000D03*
D11*
%TO.P,J1,MH3,MH3*%
X135910000Y-46110000D03*
%TO.P,J1,MH4,MH4*%
X135910000Y-54750000D03*
%TD*%
D12*
%TO.P,J2,1,P1*%
%TO.N,unconnected-(J2-P1-Pad1)*%
X139970000Y-109710000D03*
%TO.P,J2,2,P2*%
%TO.N,unconnected-(J2-P2-Pad2)*%
X139970000Y-112250000D03*
%TO.P,J2,3,P3*%
%TO.N,unconnected-(J2-P3-Pad3)*%
X142510000Y-109710000D03*
%TO.P,J2,4,P4*%
%TO.N,unconnected-(J2-P4-Pad4)*%
X142510000Y-112250000D03*
%TO.P,J2,5,+12V*%
%TO.N,+5V*%
X145050000Y-109710000D03*
%TO.P,J2,6,P6*%
X145050000Y-112250000D03*
%TO.P,J2,7,12V*%
%TO.N,+12V*%
X147590000Y-109710000D03*
%TO.P,J2,8,+12V*%
X147590000Y-112250000D03*
%TO.P,J2,9,GND*%
%TO.N,GND*%
X150130000Y-109710000D03*
%TO.P,J2,10,GND*%
X150130000Y-112250000D03*
%TO.P,J2,11,GND*%
X152670000Y-109710000D03*
%TO.P,J2,12,GND*%
X152670000Y-112250000D03*
%TO.P,J2,13,-12*%
X155210000Y-109710000D03*
%TO.P,J2,14,-12V*%
X155210000Y-112250000D03*
%TO.P,J2,15,-12V*%
%TO.N,-12V*%
X157750000Y-109710000D03*
%TO.P,J2,16,P16*%
X157750000Y-112250000D03*
%TD*%
D13*
%TO.P,D2,1,K*%
%TO.N,GND*%
X137750000Y-101460000D03*
D14*
%TO.P,D2,2,A*%
%TO.N,Net-(D2-A)*%
X137750000Y-104000000D03*
%TD*%
D15*
%TO.P,J6,1,1*%
%TO.N,Net-(J1-VBUS_1)*%
X159750000Y-48750000D03*
D16*
%TO.P,J6,2,2*%
%TO.N,+5V*%
X159750000Y-46210000D03*
%TD*%
%TO.P,PS1,1,+VIN*%
%TO.N,/+Vin*%
X152000000Y-63250000D03*
%TO.P,PS1,2,-VIN*%
%TO.N,GND*%
X146920000Y-63250000D03*
%TO.P,PS1,3,+VOUT*%
%TO.N,+12V*%
X159620000Y-83570000D03*
%TO.P,PS1,4,COMMON*%
%TO.N,GND*%
X149460000Y-83570000D03*
%TO.P,PS1,5,-VOUT*%
%TO.N,-12V*%
X139300000Y-83570000D03*
%TO.P,PS1,6,R.C.*%
%TO.N,unconnected-(PS1-R.C.-Pad6)*%
X139300000Y-63250000D03*
%TD*%
D13*
%TO.P,D4,1,K*%
%TO.N,Net-(D4-K)*%
X137750000Y-95710000D03*
D14*
%TO.P,D4,2,A*%
%TO.N,GND*%
X137750000Y-98250000D03*
%TD*%
D12*
%TO.P,J3,1,P1*%
%TO.N,unconnected-(J3-P1-Pad1)*%
X139970000Y-125000000D03*
%TO.P,J3,2,P2*%
%TO.N,unconnected-(J3-P2-Pad2)*%
X139970000Y-127540000D03*
%TO.P,J3,3,P3*%
%TO.N,unconnected-(J3-P3-Pad3)*%
X142510000Y-125000000D03*
%TO.P,J3,4,P4*%
%TO.N,unconnected-(J3-P4-Pad4)*%
X142510000Y-127540000D03*
%TO.P,J3,5,+12V*%
%TO.N,+5V*%
X145050000Y-125000000D03*
%TO.P,J3,6,P6*%
X145050000Y-127540000D03*
%TO.P,J3,7,12V*%
%TO.N,+12V*%
X147590000Y-125000000D03*
%TO.P,J3,8,+12V*%
X147590000Y-127540000D03*
%TO.P,J3,9,GND*%
%TO.N,GND*%
X150130000Y-125000000D03*
%TO.P,J3,10,GND*%
X150130000Y-127540000D03*
%TO.P,J3,11,GND*%
X152670000Y-125000000D03*
%TO.P,J3,12,GND*%
X152670000Y-127540000D03*
%TO.P,J3,13,-12*%
X155210000Y-125000000D03*
%TO.P,J3,14,-12V*%
X155210000Y-127540000D03*
%TO.P,J3,15,-12V*%
%TO.N,-12V*%
X157750000Y-125000000D03*
%TO.P,J3,16,P16*%
X157750000Y-127540000D03*
%TD*%
D13*
%TO.P,D3,1,K*%
%TO.N,GND*%
X137750000Y-89960000D03*
D14*
%TO.P,D3,2,A*%
%TO.N,Net-(D3-A)*%
X137750000Y-92500000D03*
%TD*%
D17*
%TO.N,GND*%
X144500000Y-41750000D03*
X141500000Y-55750000D03*
X155210000Y-121500000D03*
X140000000Y-90000000D03*
X135910000Y-50250000D03*
X139250000Y-118750000D03*
X152500000Y-97500000D03*
X150130000Y-116250000D03*
X161500000Y-97500000D03*
X146920000Y-69000000D03*
X153000000Y-56775000D03*
X140250000Y-99750000D03*
X152670000Y-118750000D03*
X149460000Y-76500000D03*
X141500000Y-45250000D03*
X147850000Y-44750000D03*
%TD*%
%TA.AperFunction,Conductor*%
%TO.N,GND*%
G36*
X149710667Y-125173694D02*
G01*
X149769910Y-125276306D01*
X149853694Y-125360090D01*
X149956306Y-125419333D01*
X150041415Y-125442138D01*
X149385822Y-126097730D01*
X149385822Y-126097731D01*
X149435285Y-126133669D01*
X149486010Y-126159515D01*
X149536806Y-126207490D01*
X149553601Y-126275310D01*
X149531064Y-126341445D01*
X149486010Y-126380485D01*
X149435285Y-126406330D01*
X149385822Y-126442268D01*
X149385821Y-126442268D01*
X150041415Y-127097861D01*
X149956306Y-127120667D01*
X149853694Y-127179910D01*
X149769910Y-127263694D01*
X149710667Y-127366306D01*
X149687861Y-127451414D01*
X149032268Y-126795821D01*
X149032268Y-126795822D01*
X148996330Y-126845285D01*
X148970765Y-126895460D01*
X148922790Y-126946256D01*
X148854969Y-126963051D01*
X148788834Y-126940513D01*
X148749795Y-126895460D01*
X148724229Y-126845285D01*
X148724097Y-126845025D01*
X148601416Y-126676169D01*
X148453831Y-126528584D01*
X148284975Y-126405903D01*
X148235088Y-126380484D01*
X148184293Y-126332511D01*
X148167498Y-126264690D01*
X148190035Y-126198555D01*
X148235089Y-126159515D01*
X148284975Y-126134097D01*
X148453831Y-126011416D01*
X148601416Y-125863831D01*
X148724097Y-125694975D01*
X148749795Y-125644540D01*
X148797769Y-125593743D01*
X148865590Y-125576948D01*
X148931725Y-125599485D01*
X148970765Y-125644540D01*
X148996328Y-125694711D01*
X148996328Y-125694712D01*
X149032268Y-125744176D01*
X149687861Y-125088584D01*
X149710667Y-125173694D01*
G37*
%TD.AperFunction*%
%TA.AperFunction,Conductor*%
G36*
X152250667Y-125173694D02*
G01*
X152309910Y-125276306D01*
X152393694Y-125360090D01*
X152496306Y-125419333D01*
X152581415Y-125442138D01*
X151925822Y-126097730D01*
X151925822Y-126097731D01*
X151975285Y-126133669D01*
X152026010Y-126159515D01*
X152076806Y-126207490D01*
X152093601Y-126275310D01*
X152071064Y-126341445D01*
X152026010Y-126380485D01*
X151975285Y-126406330D01*
X151925822Y-126442268D01*
X151925821Y-126442268D01*
X152581415Y-127097861D01*
X152496306Y-127120667D01*
X152393694Y-127179910D01*
X152309910Y-127263694D01*
X152250667Y-127366306D01*
X152227861Y-127451414D01*
X151572268Y-126795821D01*
X151572268Y-126795822D01*
X151536330Y-126845285D01*
X151510485Y-126896010D01*
X151462510Y-126946806D01*
X151394690Y-126963601D01*
X151328555Y-126941064D01*
X151289515Y-126896010D01*
X151263669Y-126845285D01*
X151227730Y-126795822D01*
X150572138Y-127451414D01*
X150549333Y-127366306D01*
X150490090Y-127263694D01*
X150406306Y-127179910D01*
X150303694Y-127120667D01*
X150218584Y-127097861D01*
X150874176Y-126442268D01*
X150874176Y-126442267D01*
X150824711Y-126406328D01*
X150773990Y-126380485D01*
X150723194Y-126332511D01*
X150706398Y-126264690D01*
X150728935Y-126198555D01*
X150773990Y-126159515D01*
X150824705Y-126133674D01*
X150824708Y-126133672D01*
X150874176Y-126097730D01*
X150218584Y-125442138D01*
X150303694Y-125419333D01*
X150406306Y-125360090D01*
X150490090Y-125276306D01*
X150549333Y-125173694D01*
X150572138Y-125088584D01*
X151227730Y-125744176D01*
X151263672Y-125694708D01*
X151263674Y-125694705D01*
X151289515Y-125643990D01*
X151337489Y-125593194D01*
X151405310Y-125576398D01*
X151471445Y-125598935D01*
X151510485Y-125643990D01*
X151536328Y-125694711D01*
X151536328Y-125694712D01*
X151572268Y-125744176D01*
X152227861Y-125088584D01*
X152250667Y-125173694D01*
G37*
%TD.AperFunction*%
%TA.AperFunction,Conductor*%
G36*
X154790667Y-125173694D02*
G01*
X154849910Y-125276306D01*
X154933694Y-125360090D01*
X155036306Y-125419333D01*
X155121415Y-125442138D01*
X154465822Y-126097730D01*
X154465822Y-126097731D01*
X154515285Y-126133669D01*
X154566010Y-126159515D01*
X154616806Y-126207490D01*
X154633601Y-126275310D01*
X154611064Y-126341445D01*
X154566010Y-126380485D01*
X154515285Y-126406330D01*
X154465822Y-126442268D01*
X154465821Y-126442268D01*
X155121415Y-127097861D01*
X155036306Y-127120667D01*
X154933694Y-127179910D01*
X154849910Y-127263694D01*
X154790667Y-127366306D01*
X154767861Y-127451414D01*
X154112268Y-126795821D01*
X154112268Y-126795822D01*
X154076330Y-126845285D01*
X154050485Y-126896010D01*
X154002510Y-126946806D01*
X153934690Y-126963601D01*
X153868555Y-126941064D01*
X153829515Y-126896010D01*
X153803669Y-126845285D01*
X153767730Y-126795822D01*
X153112138Y-127451414D01*
X153089333Y-127366306D01*
X153030090Y-127263694D01*
X152946306Y-127179910D01*
X152843694Y-127120667D01*
X152758584Y-127097861D01*
X153414176Y-126442268D01*
X153414176Y-126442267D01*
X153364711Y-126406328D01*
X153313990Y-126380485D01*
X153263194Y-126332511D01*
X153246398Y-126264690D01*
X153268935Y-126198555D01*
X153313990Y-126159515D01*
X153364705Y-126133674D01*
X153364708Y-126133672D01*
X153414176Y-126097730D01*
X152758584Y-125442138D01*
X152843694Y-125419333D01*
X152946306Y-125360090D01*
X153030090Y-125276306D01*
X153089333Y-125173694D01*
X153112138Y-125088584D01*
X153767730Y-125744176D01*
X153803672Y-125694708D01*
X153803674Y-125694705D01*
X153829515Y-125643990D01*
X153877489Y-125593194D01*
X153945310Y-125576398D01*
X154011445Y-125598935D01*
X154050485Y-125643990D01*
X154076328Y-125694711D01*
X154076328Y-125694712D01*
X154112268Y-125744176D01*
X154767861Y-125088584D01*
X154790667Y-125173694D01*
G37*
%TD.AperFunction*%
%TA.AperFunction,Conductor*%
G36*
X156307730Y-125744176D02*
G01*
X156343671Y-125694709D01*
X156369233Y-125644541D01*
X156417207Y-125593744D01*
X156485027Y-125576948D01*
X156551163Y-125599484D01*
X156590203Y-125644538D01*
X156615767Y-125694709D01*
X156615903Y-125694975D01*
X156738584Y-125863831D01*
X156886169Y-126011416D01*
X157012811Y-126103426D01*
X157055026Y-126134098D01*
X157104911Y-126159516D01*
X157155706Y-126207490D01*
X157172501Y-126275311D01*
X157149963Y-126341446D01*
X157104911Y-126380484D01*
X157055026Y-126405901D01*
X156886166Y-126528586D01*
X156738586Y-126676166D01*
X156615903Y-126845024D01*
X156590203Y-126895462D01*
X156542228Y-126946257D01*
X156474406Y-126963051D01*
X156408272Y-126940512D01*
X156369234Y-126895459D01*
X156343671Y-126845288D01*
X156343671Y-126845287D01*
X156307730Y-126795822D01*
X155652138Y-127451414D01*
X155629333Y-127366306D01*
X155570090Y-127263694D01*
X155486306Y-127179910D01*
X155383694Y-127120667D01*
X155298584Y-127097861D01*
X155954176Y-126442268D01*
X155954176Y-126442267D01*
X155904711Y-126406328D01*
X155853990Y-126380485D01*
X155803194Y-126332511D01*
X155786398Y-126264690D01*
X155808935Y-126198555D01*
X155853990Y-126159515D01*
X155904705Y-126133674D01*
X155904708Y-126133672D01*
X155954176Y-126097730D01*
X155298584Y-125442138D01*
X155383694Y-125419333D01*
X155486306Y-125360090D01*
X155570090Y-125276306D01*
X155629333Y-125173694D01*
X155652138Y-125088584D01*
X156307730Y-125744176D01*
G37*
%TD.AperFunction*%
%TA.AperFunction,Conductor*%
G36*
X149710667Y-109883694D02*
G01*
X149769910Y-109986306D01*
X149853694Y-110070090D01*
X149956306Y-110129333D01*
X150041415Y-110152138D01*
X149385822Y-110807730D01*
X149385822Y-110807731D01*
X149435285Y-110843669D01*
X149486010Y-110869515D01*
X149536806Y-110917490D01*
X149553601Y-110985310D01*
X149531064Y-111051445D01*
X149486010Y-111090485D01*
X149435285Y-111116330D01*
X149385822Y-111152268D01*
X149385821Y-111152268D01*
X150041415Y-111807861D01*
X149956306Y-111830667D01*
X149853694Y-111889910D01*
X149769910Y-111973694D01*
X149710667Y-112076306D01*
X149687861Y-112161414D01*
X149032268Y-111505821D01*
X149032268Y-111505822D01*
X148996330Y-111555285D01*
X148970765Y-111605460D01*
X148922790Y-111656256D01*
X148854969Y-111673051D01*
X148788834Y-111650513D01*
X148749795Y-111605460D01*
X148724229Y-111555285D01*
X148724097Y-111555025D01*
X148601416Y-111386169D01*
X148453831Y-111238584D01*
X148284975Y-111115903D01*
X148235088Y-111090484D01*
X148184293Y-111042511D01*
X148167498Y-110974690D01*
X148190035Y-110908555D01*
X148235089Y-110869515D01*
X148284975Y-110844097D01*
X148453831Y-110721416D01*
X148601416Y-110573831D01*
X148724097Y-110404975D01*
X148749795Y-110354540D01*
X148797769Y-110303743D01*
X148865590Y-110286948D01*
X148931725Y-110309485D01*
X148970765Y-110354540D01*
X148996328Y-110404711D01*
X148996328Y-110404712D01*
X149032268Y-110454176D01*
X149687861Y-109798584D01*
X149710667Y-109883694D01*
G37*
%TD.AperFunction*%
%TA.AperFunction,Conductor*%
G36*
X152250667Y-109883694D02*
G01*
X152309910Y-109986306D01*
X152393694Y-110070090D01*
X152496306Y-110129333D01*
X152581415Y-110152138D01*
X151925822Y-110807730D01*
X151925822Y-110807731D01*
X151975285Y-110843669D01*
X152026010Y-110869515D01*
X152076806Y-110917490D01*
X152093601Y-110985310D01*
X152071064Y-111051445D01*
X152026010Y-111090485D01*
X151975285Y-111116330D01*
X151925822Y-111152268D01*
X151925821Y-111152268D01*
X152581415Y-111807861D01*
X152496306Y-111830667D01*
X152393694Y-111889910D01*
X152309910Y-111973694D01*
X152250667Y-112076306D01*
X152227861Y-112161414D01*
X151572268Y-111505821D01*
X151572268Y-111505822D01*
X151536330Y-111555285D01*
X151510485Y-111606010D01*
X151462510Y-111656806D01*
X151394690Y-111673601D01*
X151328555Y-111651064D01*
X151289515Y-111606010D01*
X151263669Y-111555285D01*
X151227730Y-111505822D01*
X150572138Y-112161414D01*
X150549333Y-112076306D01*
X150490090Y-111973694D01*
X150406306Y-111889910D01*
X150303694Y-111830667D01*
X150218584Y-111807861D01*
X150874176Y-111152268D01*
X150874176Y-111152267D01*
X150824711Y-111116328D01*
X150773990Y-111090485D01*
X150723194Y-111042511D01*
X150706398Y-110974690D01*
X150728935Y-110908555D01*
X150773990Y-110869515D01*
X150824705Y-110843674D01*
X150824708Y-110843672D01*
X150874176Y-110807730D01*
X150218584Y-110152138D01*
X150303694Y-110129333D01*
X150406306Y-110070090D01*
X150490090Y-109986306D01*
X150549333Y-109883694D01*
X150572138Y-109798584D01*
X151227730Y-110454176D01*
X151263672Y-110404708D01*
X151263674Y-110404705D01*
X151289515Y-110353990D01*
X151337489Y-110303194D01*
X151405310Y-110286398D01*
X151471445Y-110308935D01*
X151510485Y-110353990D01*
X151536328Y-110404711D01*
X151536328Y-110404712D01*
X151572268Y-110454176D01*
X152227861Y-109798584D01*
X152250667Y-109883694D01*
G37*
%TD.AperFunction*%
%TA.AperFunction,Conductor*%
G36*
X154790667Y-109883694D02*
G01*
X154849910Y-109986306D01*
X154933694Y-110070090D01*
X155036306Y-110129333D01*
X155121415Y-110152138D01*
X154465822Y-110807730D01*
X154465822Y-110807731D01*
X154515285Y-110843669D01*
X154566010Y-110869515D01*
X154616806Y-110917490D01*
X154633601Y-110985310D01*
X154611064Y-111051445D01*
X154566010Y-111090485D01*
X154515285Y-111116330D01*
X154465822Y-111152268D01*
X154465821Y-111152268D01*
X155121415Y-111807861D01*
X155036306Y-111830667D01*
X154933694Y-111889910D01*
X154849910Y-111973694D01*
X154790667Y-112076306D01*
X154767861Y-112161414D01*
X154112268Y-111505821D01*
X154112268Y-111505822D01*
X154076330Y-111555285D01*
X154050485Y-111606010D01*
X154002510Y-111656806D01*
X153934690Y-111673601D01*
X153868555Y-111651064D01*
X153829515Y-111606010D01*
X153803669Y-111555285D01*
X153767730Y-111505822D01*
X153112138Y-112161414D01*
X153089333Y-112076306D01*
X153030090Y-111973694D01*
X152946306Y-111889910D01*
X152843694Y-111830667D01*
X152758584Y-111807861D01*
X153414176Y-111152268D01*
X153414176Y-111152267D01*
X153364711Y-111116328D01*
X153313990Y-111090485D01*
X153263194Y-111042511D01*
X153246398Y-110974690D01*
X153268935Y-110908555D01*
X153313990Y-110869515D01*
X153364705Y-110843674D01*
X153364708Y-110843672D01*
X153414176Y-110807730D01*
X152758584Y-110152138D01*
X152843694Y-110129333D01*
X152946306Y-110070090D01*
X153030090Y-109986306D01*
X153089333Y-109883694D01*
X153112138Y-109798584D01*
X153767730Y-110454176D01*
X153803672Y-110404708D01*
X153803674Y-110404705D01*
X153829515Y-110353990D01*
X153877489Y-110303194D01*
X153945310Y-110286398D01*
X154011445Y-110308935D01*
X154050485Y-110353990D01*
X154076328Y-110404711D01*
X154076328Y-110404712D01*
X154112268Y-110454176D01*
X154767861Y-109798584D01*
X154790667Y-109883694D01*
G37*
%TD.AperFunction*%
%TA.AperFunction,Conductor*%
G36*
X156307730Y-110454176D02*
G01*
X156343671Y-110404709D01*
X156369233Y-110354541D01*
X156417207Y-110303744D01*
X156485027Y-110286948D01*
X156551163Y-110309484D01*
X156590203Y-110354538D01*
X156615767Y-110404709D01*
X156615903Y-110404975D01*
X156738584Y-110573831D01*
X156886169Y-110721416D01*
X157012811Y-110813426D01*
X157055026Y-110844098D01*
X157104911Y-110869516D01*
X157155706Y-110917490D01*
X157172501Y-110985311D01*
X157149963Y-111051446D01*
X157104911Y-111090484D01*
X157055026Y-111115901D01*
X156886166Y-111238586D01*
X156738586Y-111386166D01*
X156615903Y-111555024D01*
X156590203Y-111605462D01*
X156542228Y-111656257D01*
X156474406Y-111673051D01*
X156408272Y-111650512D01*
X156369234Y-111605459D01*
X156343671Y-111555288D01*
X156343671Y-111555287D01*
X156307730Y-111505822D01*
X155652138Y-112161414D01*
X155629333Y-112076306D01*
X155570090Y-111973694D01*
X155486306Y-111889910D01*
X155383694Y-111830667D01*
X155298584Y-111807861D01*
X155954176Y-111152268D01*
X155954176Y-111152267D01*
X155904711Y-111116328D01*
X155853990Y-111090485D01*
X155803194Y-111042511D01*
X155786398Y-110974690D01*
X155808935Y-110908555D01*
X155853990Y-110869515D01*
X155904705Y-110843674D01*
X155904708Y-110843672D01*
X155954176Y-110807730D01*
X155298584Y-110152138D01*
X155383694Y-110129333D01*
X155486306Y-110070090D01*
X155570090Y-109986306D01*
X155629333Y-109883694D01*
X155652138Y-109798584D01*
X156307730Y-110454176D01*
G37*
%TD.AperFunction*%
%TA.AperFunction,Conductor*%
G36*
X163692539Y-38270185D02*
G01*
X163738294Y-38322989D01*
X163749500Y-38374500D01*
X163749500Y-137125500D01*
X163729815Y-137192539D01*
X163677011Y-137238294D01*
X163625500Y-137249500D01*
X134874500Y-137249500D01*
X134807461Y-137229815D01*
X134761706Y-137177011D01*
X134750500Y-137125500D01*
X134750500Y-134612332D01*
X137149500Y-134612332D01*
X137149500Y-134887667D01*
X137149501Y-134887684D01*
X137185438Y-135160655D01*
X137185439Y-135160660D01*
X137185440Y-135160666D01*
X137185441Y-135160668D01*
X137256704Y-135426630D01*
X137362075Y-135681017D01*
X137362080Y-135681028D01*
X137441809Y-135819121D01*
X137499751Y-135919479D01*
X137499753Y-135919482D01*
X137499754Y-135919483D01*
X137667370Y-136137926D01*
X137667376Y-136137933D01*
X137862066Y-136332623D01*
X137862072Y-136332628D01*
X138080521Y-136500249D01*
X138233778Y-136588732D01*
X138318971Y-136637919D01*
X138318976Y-136637921D01*
X138318979Y-136637923D01*
X138573368Y-136743295D01*
X138839334Y-136814560D01*
X139112326Y-136850500D01*
X139112333Y-136850500D01*
X139387667Y-136850500D01*
X139387674Y-136850500D01*
X139660666Y-136814560D01*
X139926632Y-136743295D01*
X140181021Y-136637923D01*
X140419479Y-136500249D01*
X140637928Y-136332628D01*
X140832628Y-136137928D01*
X141000249Y-135919479D01*
X141137923Y-135681021D01*
X141243295Y-135426632D01*
X141314560Y-135160666D01*
X141350500Y-134887674D01*
X141350500Y-134612332D01*
X157149500Y-134612332D01*
X157149500Y-134887667D01*
X157149501Y-134887684D01*
X157185438Y-135160655D01*
X157185439Y-135160660D01*
X157185440Y-135160666D01*
X157185441Y-135160668D01*
X157256704Y-135426630D01*
X157362075Y-135681017D01*
X157362080Y-135681028D01*
X157441809Y-135819121D01*
X157499751Y-135919479D01*
X157499753Y-135919482D01*
X157499754Y-135919483D01*
X157667370Y-136137926D01*
X157667376Y-136137933D01*
X157862066Y-136332623D01*
X157862072Y-136332628D01*
X158080521Y-136500249D01*
X158233778Y-136588732D01*
X158318971Y-136637919D01*
X158318976Y-136637921D01*
X158318979Y-136637923D01*
X158573368Y-136743295D01*
X158839334Y-136814560D01*
X159112326Y-136850500D01*
X159112333Y-136850500D01*
X159387667Y-136850500D01*
X159387674Y-136850500D01*
X159660666Y-136814560D01*
X159926632Y-136743295D01*
X160181021Y-136637923D01*
X160419479Y-136500249D01*
X160637928Y-136332628D01*
X160832628Y-136137928D01*
X161000249Y-135919479D01*
X161137923Y-135681021D01*
X161243295Y-135426632D01*
X161314560Y-135160666D01*
X161350500Y-134887674D01*
X161350500Y-134612326D01*
X161314560Y-134339334D01*
X161243295Y-134073368D01*
X161137923Y-133818979D01*
X161137921Y-133818976D01*
X161137919Y-133818971D01*
X161088732Y-133733778D01*
X161000249Y-133580521D01*
X160832628Y-133362072D01*
X160832623Y-133362066D01*
X160637933Y-133167376D01*
X160637926Y-133167370D01*
X160419483Y-132999754D01*
X160419482Y-132999753D01*
X160419479Y-132999751D01*
X160324407Y-132944861D01*
X160181028Y-132862080D01*
X160181017Y-132862075D01*
X159926630Y-132756704D01*
X159793649Y-132721072D01*
X159660666Y-132685440D01*
X159660660Y-132685439D01*
X159660655Y-132685438D01*
X159387684Y-132649501D01*
X159387679Y-132649500D01*
X159387674Y-132649500D01*
X159112326Y-132649500D01*
X159112320Y-132649500D01*
X159112315Y-132649501D01*
X158839344Y-132685438D01*
X158839337Y-132685439D01*
X158839334Y-132685440D01*
X158783125Y-132700500D01*
X158573369Y-132756704D01*
X158318982Y-132862075D01*
X158318971Y-132862080D01*
X158080516Y-132999754D01*
X157862073Y-133167370D01*
X157862066Y-133167376D01*
X157667376Y-133362066D01*
X157667370Y-133362073D01*
X157499754Y-133580516D01*
X157362080Y-133818971D01*
X157362075Y-133818982D01*
X157256704Y-134073369D01*
X157185441Y-134339331D01*
X157185438Y-134339344D01*
X157149501Y-134612315D01*
X157149500Y-134612332D01*
X141350500Y-134612332D01*
X141350500Y-134612326D01*
X141314560Y-134339334D01*
X141243295Y-134073368D01*
X141137923Y-133818979D01*
X141137921Y-133818976D01*
X141137919Y-133818971D01*
X141088732Y-133733778D01*
X141000249Y-133580521D01*
X140832628Y-133362072D01*
X140832623Y-133362066D01*
X140637933Y-133167376D01*
X140637926Y-133167370D01*
X140419483Y-132999754D01*
X140419482Y-132999753D01*
X140419479Y-132999751D01*
X140324407Y-132944861D01*
X140181028Y-132862080D01*
X140181017Y-132862075D01*
X139926630Y-132756704D01*
X139793649Y-132721072D01*
X139660666Y-132685440D01*
X139660660Y-132685439D01*
X139660655Y-132685438D01*
X139387684Y-132649501D01*
X139387679Y-132649500D01*
X139387674Y-132649500D01*
X139112326Y-132649500D01*
X139112320Y-132649500D01*
X139112315Y-132649501D01*
X138839344Y-132685438D01*
X138839337Y-132685439D01*
X138839334Y-132685440D01*
X138783125Y-132700500D01*
X138573369Y-132756704D01*
X138318982Y-132862075D01*
X138318971Y-132862080D01*
X138080516Y-132999754D01*
X137862073Y-133167370D01*
X137862066Y-133167376D01*
X137667376Y-133362066D01*
X137667370Y-133362073D01*
X137499754Y-133580516D01*
X137362080Y-133818971D01*
X137362075Y-133818982D01*
X137256704Y-134073369D01*
X137185441Y-134339331D01*
X137185438Y-134339344D01*
X137149501Y-134612315D01*
X137149500Y-134612332D01*
X134750500Y-134612332D01*
X134750500Y-124895642D01*
X138644000Y-124895642D01*
X138644000Y-125104357D01*
X138676650Y-125310506D01*
X138741149Y-125509011D01*
X138810485Y-125645089D01*
X138835903Y-125694975D01*
X138958584Y-125863831D01*
X139106169Y-126011416D01*
X139232811Y-126103426D01*
X139275026Y-126134098D01*
X139324911Y-126159516D01*
X139375706Y-126207490D01*
X139392501Y-126275311D01*
X139369963Y-126341446D01*
X139324911Y-126380484D01*
X139275026Y-126405901D01*
X139106166Y-126528586D01*
X138958586Y-126676166D01*
X138835903Y-126845024D01*
X138741149Y-127030988D01*
X138676650Y-127229493D01*
X138644000Y-127435642D01*
X138644000Y-127644357D01*
X138676650Y-127850506D01*
X138741149Y-128049011D01*
X138810485Y-128185089D01*
X138835903Y-128234975D01*
X138958584Y-128403831D01*
X139106169Y-128551416D01*
X139275025Y-128674097D01*
X139362888Y-128718865D01*
X139460988Y-128768850D01*
X139460990Y-128768850D01*
X139460993Y-128768852D01*
X139567394Y-128803424D01*
X139659493Y-128833349D01*
X139762568Y-128849674D01*
X139865642Y-128866000D01*
X139865643Y-128866000D01*
X140074357Y-128866000D01*
X140074358Y-128866000D01*
X140280506Y-128833349D01*
X140479007Y-128768852D01*
X140664975Y-128674097D01*
X140833831Y-128551416D01*
X140981416Y-128403831D01*
X141104097Y-128234975D01*
X141129515Y-128185088D01*
X141177489Y-128134293D01*
X141245310Y-128117498D01*
X141311445Y-128140035D01*
X141350484Y-128185088D01*
X141375903Y-128234975D01*
X141498584Y-128403831D01*
X141646169Y-128551416D01*
X141815025Y-128674097D01*
X141902888Y-128718865D01*
X142000988Y-128768850D01*
X142000990Y-128768850D01*
X142000993Y-128768852D01*
X142107394Y-128803424D01*
X142199493Y-128833349D01*
X142302568Y-128849674D01*
X142405642Y-128866000D01*
X142405643Y-128866000D01*
X142614357Y-128866000D01*
X142614358Y-128866000D01*
X142820506Y-128833349D01*
X143019007Y-128768852D01*
X143204975Y-128674097D01*
X143373831Y-128551416D01*
X143521416Y-128403831D01*
X143644097Y-128234975D01*
X143669515Y-128185088D01*
X143717489Y-128134293D01*
X143785310Y-128117498D01*
X143851445Y-128140035D01*
X143890484Y-128185088D01*
X143915903Y-128234975D01*
X144038584Y-128403831D01*
X144186169Y-128551416D01*
X144355025Y-128674097D01*
X144442888Y-128718865D01*
X144540988Y-128768850D01*
X144540990Y-128768850D01*
X144540993Y-128768852D01*
X144647394Y-128803424D01*
X144739493Y-128833349D01*
X144842568Y-128849674D01*
X144945642Y-128866000D01*
X144945643Y-128866000D01*
X145154357Y-128866000D01*
X145154358Y-128866000D01*
X145360506Y-128833349D01*
X145559007Y-128768852D01*
X145744975Y-128674097D01*
X145913831Y-128551416D01*
X146061416Y-128403831D01*
X146184097Y-128234975D01*
X146209515Y-128185088D01*
X146257489Y-128134293D01*
X146325310Y-128117498D01*
X146391445Y-128140035D01*
X146430484Y-128185088D01*
X146455903Y-128234975D01*
X146578584Y-128403831D01*
X146726169Y-128551416D01*
X146895025Y-128674097D01*
X146982888Y-128718865D01*
X147080988Y-128768850D01*
X147080990Y-128768850D01*
X147080993Y-128768852D01*
X147187394Y-128803424D01*
X147279493Y-128833349D01*
X147382568Y-128849674D01*
X147485642Y-128866000D01*
X147485643Y-128866000D01*
X147694357Y-128866000D01*
X147694358Y-128866000D01*
X147900506Y-128833349D01*
X148099007Y-128768852D01*
X148284975Y-128674097D01*
X148453831Y-128551416D01*
X148601416Y-128403831D01*
X148724097Y-128234975D01*
X148749795Y-128184540D01*
X148797769Y-128133743D01*
X148865590Y-128116948D01*
X148931725Y-128139485D01*
X148970765Y-128184540D01*
X148996328Y-128234711D01*
X148996328Y-128234712D01*
X149032268Y-128284176D01*
X149687861Y-127628584D01*
X149710667Y-127713694D01*
X149769910Y-127816306D01*
X149853694Y-127900090D01*
X149956306Y-127959333D01*
X150041415Y-127982138D01*
X149385822Y-128637730D01*
X149385822Y-128637731D01*
X149435285Y-128673669D01*
X149621179Y-128768387D01*
X149819610Y-128832862D01*
X150025676Y-128865500D01*
X150234324Y-128865500D01*
X150440389Y-128832862D01*
X150638820Y-128768387D01*
X150824709Y-128673672D01*
X150874176Y-128637730D01*
X150218584Y-127982138D01*
X150303694Y-127959333D01*
X150406306Y-127900090D01*
X150490090Y-127816306D01*
X150549333Y-127713694D01*
X150572138Y-127628584D01*
X151227730Y-128284176D01*
X151263672Y-128234708D01*
X151263674Y-128234705D01*
X151289515Y-128183990D01*
X151337489Y-128133194D01*
X151405310Y-128116398D01*
X151471445Y-128138935D01*
X151510485Y-128183990D01*
X151536328Y-128234711D01*
X151536328Y-128234712D01*
X151572268Y-128284176D01*
X152227861Y-127628584D01*
X152250667Y-127713694D01*
X152309910Y-127816306D01*
X152393694Y-127900090D01*
X152496306Y-127959333D01*
X152581415Y-127982138D01*
X151925822Y-128637730D01*
X151925822Y-128637731D01*
X151975285Y-128673669D01*
X152161179Y-128768387D01*
X152359610Y-128832862D01*
X152565676Y-128865500D01*
X152774324Y-128865500D01*
X152980389Y-128832862D01*
X153178820Y-128768387D01*
X153364709Y-128673672D01*
X153414176Y-128637730D01*
X152758584Y-127982138D01*
X152843694Y-127959333D01*
X152946306Y-127900090D01*
X153030090Y-127816306D01*
X153089333Y-127713694D01*
X153112138Y-127628584D01*
X153767730Y-128284176D01*
X153803672Y-128234708D01*
X153803674Y-128234705D01*
X153829515Y-128183990D01*
X153877489Y-128133194D01*
X153945310Y-128116398D01*
X154011445Y-128138935D01*
X154050485Y-128183990D01*
X154076328Y-128234711D01*
X154076328Y-128234712D01*
X154112268Y-128284176D01*
X154767861Y-127628584D01*
X154790667Y-127713694D01*
X154849910Y-127816306D01*
X154933694Y-127900090D01*
X155036306Y-127959333D01*
X155121415Y-127982138D01*
X154465822Y-128637730D01*
X154465822Y-128637731D01*
X154515285Y-128673669D01*
X154701179Y-128768387D01*
X154899610Y-128832862D01*
X155105676Y-128865500D01*
X155314324Y-128865500D01*
X155520389Y-128832862D01*
X155718820Y-128768387D01*
X155904709Y-128673672D01*
X155954176Y-128637730D01*
X155298584Y-127982138D01*
X155383694Y-127959333D01*
X155486306Y-127900090D01*
X155570090Y-127816306D01*
X155629333Y-127713694D01*
X155652138Y-127628584D01*
X156307730Y-128284176D01*
X156343671Y-128234709D01*
X156369233Y-128184541D01*
X156417207Y-128133744D01*
X156485027Y-128116948D01*
X156551163Y-128139484D01*
X156590203Y-128184538D01*
X156615767Y-128234709D01*
X156615903Y-128234975D01*
X156738584Y-128403831D01*
X156886169Y-128551416D01*
X157055025Y-128674097D01*
X157142888Y-128718865D01*
X157240988Y-128768850D01*
X157240990Y-128768850D01*
X157240993Y-128768852D01*
X157347394Y-128803424D01*
X157439493Y-128833349D01*
X157542568Y-128849674D01*
X157645642Y-128866000D01*
X157645643Y-128866000D01*
X157854357Y-128866000D01*
X157854358Y-128866000D01*
X158060506Y-128833349D01*
X158259007Y-128768852D01*
X158444975Y-128674097D01*
X158613831Y-128551416D01*
X158761416Y-128403831D01*
X158884097Y-128234975D01*
X158978852Y-128049007D01*
X159043349Y-127850506D01*
X159076000Y-127644358D01*
X159076000Y-127435642D01*
X159043349Y-127229494D01*
X158978852Y-127030993D01*
X158978850Y-127030990D01*
X158978850Y-127030988D01*
X158884229Y-126845285D01*
X158884097Y-126845025D01*
X158761416Y-126676169D01*
X158613831Y-126528584D01*
X158444975Y-126405903D01*
X158395088Y-126380484D01*
X158344293Y-126332511D01*
X158327498Y-126264690D01*
X158350035Y-126198555D01*
X158395089Y-126159515D01*
X158444975Y-126134097D01*
X158613831Y-126011416D01*
X158761416Y-125863831D01*
X158884097Y-125694975D01*
X158978852Y-125509007D01*
X159043349Y-125310506D01*
X159076000Y-125104358D01*
X159076000Y-124895642D01*
X159043349Y-124689494D01*
X158978852Y-124490993D01*
X158978850Y-124490990D01*
X158978850Y-124490988D01*
X158884229Y-124305285D01*
X158884097Y-124305025D01*
X158761416Y-124136169D01*
X158613831Y-123988584D01*
X158444975Y-123865903D01*
X158259011Y-123771149D01*
X158060506Y-123706650D01*
X157882543Y-123678464D01*
X157854358Y-123674000D01*
X157645642Y-123674000D01*
X157620846Y-123677927D01*
X157439493Y-123706650D01*
X157240988Y-123771149D01*
X157055024Y-123865903D01*
X156886166Y-123988586D01*
X156738586Y-124136166D01*
X156615903Y-124305024D01*
X156590203Y-124355462D01*
X156542228Y-124406257D01*
X156474406Y-124423051D01*
X156408272Y-124400512D01*
X156369234Y-124355459D01*
X156343671Y-124305288D01*
X156343671Y-124305287D01*
X156307730Y-124255822D01*
X155652138Y-124911414D01*
X155629333Y-124826306D01*
X155570090Y-124723694D01*
X155486306Y-124639910D01*
X155383694Y-124580667D01*
X155298584Y-124557861D01*
X155954176Y-123902268D01*
X155954176Y-123902267D01*
X155904714Y-123866330D01*
X155718820Y-123771612D01*
X155520389Y-123707137D01*
X155314324Y-123674500D01*
X155105676Y-123674500D01*
X154899610Y-123707137D01*
X154701179Y-123771612D01*
X154515285Y-123866330D01*
X154465822Y-123902268D01*
X154465821Y-123902268D01*
X155121415Y-124557861D01*
X155036306Y-124580667D01*
X154933694Y-124639910D01*
X154849910Y-124723694D01*
X154790667Y-124826306D01*
X154767861Y-124911414D01*
X154112268Y-124255821D01*
X154112268Y-124255822D01*
X154076330Y-124305285D01*
X154050485Y-124356010D01*
X154002510Y-124406806D01*
X153934690Y-124423601D01*
X153868555Y-124401064D01*
X153829515Y-124356010D01*
X153803669Y-124305285D01*
X153767730Y-124255822D01*
X153112138Y-124911414D01*
X153089333Y-124826306D01*
X153030090Y-124723694D01*
X152946306Y-124639910D01*
X152843694Y-124580667D01*
X152758584Y-124557861D01*
X153414176Y-123902268D01*
X153414176Y-123902267D01*
X153364714Y-123866330D01*
X153178820Y-123771612D01*
X152980389Y-123707137D01*
X152774324Y-123674500D01*
X152565676Y-123674500D01*
X152359610Y-123707137D01*
X152161179Y-123771612D01*
X151975285Y-123866330D01*
X151925822Y-123902268D01*
X151925821Y-123902268D01*
X152581415Y-124557861D01*
X152496306Y-124580667D01*
X152393694Y-124639910D01*
X152309910Y-124723694D01*
X152250667Y-124826306D01*
X152227861Y-124911414D01*
X151572268Y-124255821D01*
X151572268Y-124255822D01*
X151536330Y-124305285D01*
X151510485Y-124356010D01*
X151462510Y-124406806D01*
X151394690Y-124423601D01*
X151328555Y-124401064D01*
X151289515Y-124356010D01*
X151263669Y-124305285D01*
X151227730Y-124255822D01*
X150572138Y-124911414D01*
X150549333Y-124826306D01*
X150490090Y-124723694D01*
X150406306Y-124639910D01*
X150303694Y-124580667D01*
X150218584Y-124557861D01*
X150874176Y-123902268D01*
X150874176Y-123902267D01*
X150824714Y-123866330D01*
X150638820Y-123771612D01*
X150440389Y-123707137D01*
X150234324Y-123674500D01*
X150025676Y-123674500D01*
X149819610Y-123707137D01*
X149621179Y-123771612D01*
X149435285Y-123866330D01*
X149385822Y-123902268D01*
X149385821Y-123902268D01*
X150041415Y-124557861D01*
X149956306Y-124580667D01*
X149853694Y-124639910D01*
X149769910Y-124723694D01*
X149710667Y-124826306D01*
X149687861Y-124911414D01*
X149032268Y-124255821D01*
X149032268Y-124255822D01*
X148996330Y-124305285D01*
X148970765Y-124355460D01*
X148922790Y-124406256D01*
X148854969Y-124423051D01*
X148788834Y-124400513D01*
X148749795Y-124355460D01*
X148724229Y-124305285D01*
X148724097Y-124305025D01*
X148601416Y-124136169D01*
X148453831Y-123988584D01*
X148284975Y-123865903D01*
X148099011Y-123771149D01*
X147900506Y-123706650D01*
X147722543Y-123678464D01*
X147694358Y-123674000D01*
X147485642Y-123674000D01*
X147460846Y-123677927D01*
X147279493Y-123706650D01*
X147080988Y-123771149D01*
X146895024Y-123865903D01*
X146726166Y-123988586D01*
X146578586Y-124136166D01*
X146455901Y-124305026D01*
X146430484Y-124354911D01*
X146382510Y-124405706D01*
X146314689Y-124422501D01*
X146248554Y-124399963D01*
X146209516Y-124354911D01*
X146184098Y-124305026D01*
X146148348Y-124255821D01*
X146061416Y-124136169D01*
X145913831Y-123988584D01*
X145744975Y-123865903D01*
X145559011Y-123771149D01*
X145360506Y-123706650D01*
X145182543Y-123678464D01*
X145154358Y-123674000D01*
X144945642Y-123674000D01*
X144920846Y-123677927D01*
X144739493Y-123706650D01*
X144540988Y-123771149D01*
X144355024Y-123865903D01*
X144186166Y-123988586D01*
X144038586Y-124136166D01*
X143915901Y-124305026D01*
X143890484Y-124354911D01*
X143842510Y-124405706D01*
X143774689Y-124422501D01*
X143708554Y-124399963D01*
X143669516Y-124354911D01*
X143644098Y-124305026D01*
X143608348Y-124255821D01*
X143521416Y-124136169D01*
X143373831Y-123988584D01*
X143204975Y-123865903D01*
X143019011Y-123771149D01*
X142820506Y-123706650D01*
X142642543Y-123678464D01*
X142614358Y-123674000D01*
X142405642Y-123674000D01*
X142380846Y-123677927D01*
X142199493Y-123706650D01*
X142000988Y-123771149D01*
X141815024Y-123865903D01*
X141646166Y-123988586D01*
X141498586Y-124136166D01*
X141375901Y-124305026D01*
X141350484Y-124354911D01*
X141302510Y-124405706D01*
X141234689Y-124422501D01*
X141168554Y-124399963D01*
X141129516Y-124354911D01*
X141104098Y-124305026D01*
X141068348Y-124255821D01*
X140981416Y-124136169D01*
X140833831Y-123988584D01*
X140664975Y-123865903D01*
X140479011Y-123771149D01*
X140280506Y-123706650D01*
X140102543Y-123678464D01*
X140074358Y-123674000D01*
X139865642Y-123674000D01*
X139840846Y-123677927D01*
X139659493Y-123706650D01*
X139460988Y-123771149D01*
X139275024Y-123865903D01*
X139106166Y-123988586D01*
X138958586Y-124136166D01*
X138835903Y-124305024D01*
X138741149Y-124490988D01*
X138676650Y-124689493D01*
X138644000Y-124895642D01*
X134750500Y-124895642D01*
X134750500Y-109605642D01*
X138644000Y-109605642D01*
X138644000Y-109814357D01*
X138676650Y-110020506D01*
X138741149Y-110219011D01*
X138810485Y-110355089D01*
X138835903Y-110404975D01*
X138958584Y-110573831D01*
X139106169Y-110721416D01*
X139232811Y-110813426D01*
X139275026Y-110844098D01*
X139324911Y-110869516D01*
X139375706Y-110917490D01*
X139392501Y-110985311D01*
X139369963Y-111051446D01*
X139324911Y-111090484D01*
X139275026Y-111115901D01*
X139106166Y-111238586D01*
X138958586Y-111386166D01*
X138835903Y-111555024D01*
X138741149Y-111740988D01*
X138676650Y-111939493D01*
X138644000Y-112145642D01*
X138644000Y-112354357D01*
X138676650Y-112560506D01*
X138741149Y-112759011D01*
X138810485Y-112895089D01*
X138835903Y-112944975D01*
X138958584Y-113113831D01*
X139106169Y-113261416D01*
X139275025Y-113384097D01*
X139362888Y-113428865D01*
X139460988Y-113478850D01*
X139460990Y-113478850D01*
X139460993Y-113478852D01*
X139567394Y-113513424D01*
X139659493Y-113543349D01*
X139762568Y-113559674D01*
X139865642Y-113576000D01*
X139865643Y-113576000D01*
X140074357Y-113576000D01*
X140074358Y-113576000D01*
X140280506Y-113543349D01*
X140479007Y-113478852D01*
X140664975Y-113384097D01*
X140833831Y-113261416D01*
X140981416Y-113113831D01*
X141104097Y-112944975D01*
X141129515Y-112895088D01*
X141177489Y-112844293D01*
X141245310Y-112827498D01*
X141311445Y-112850035D01*
X141350484Y-112895088D01*
X141375903Y-112944975D01*
X141498584Y-113113831D01*
X141646169Y-113261416D01*
X141815025Y-113384097D01*
X141902888Y-113428865D01*
X142000988Y-113478850D01*
X142000990Y-113478850D01*
X142000993Y-113478852D01*
X142107394Y-113513424D01*
X142199493Y-113543349D01*
X142302568Y-113559674D01*
X142405642Y-113576000D01*
X142405643Y-113576000D01*
X142614357Y-113576000D01*
X142614358Y-113576000D01*
X142820506Y-113543349D01*
X143019007Y-113478852D01*
X143204975Y-113384097D01*
X143373831Y-113261416D01*
X143521416Y-113113831D01*
X143644097Y-112944975D01*
X143669515Y-112895088D01*
X143717489Y-112844293D01*
X143785310Y-112827498D01*
X143851445Y-112850035D01*
X143890484Y-112895088D01*
X143915903Y-112944975D01*
X144038584Y-113113831D01*
X144186169Y-113261416D01*
X144355025Y-113384097D01*
X144442888Y-113428865D01*
X144540988Y-113478850D01*
X144540990Y-113478850D01*
X144540993Y-113478852D01*
X144647394Y-113513424D01*
X144739493Y-113543349D01*
X144842568Y-113559674D01*
X144945642Y-113576000D01*
X144945643Y-113576000D01*
X145154357Y-113576000D01*
X145154358Y-113576000D01*
X145360506Y-113543349D01*
X145559007Y-113478852D01*
X145744975Y-113384097D01*
X145913831Y-113261416D01*
X146061416Y-113113831D01*
X146184097Y-112944975D01*
X146209515Y-112895088D01*
X146257489Y-112844293D01*
X146325310Y-112827498D01*
X146391445Y-112850035D01*
X146430484Y-112895088D01*
X146455903Y-112944975D01*
X146578584Y-113113831D01*
X146726169Y-113261416D01*
X146895025Y-113384097D01*
X146982888Y-113428865D01*
X147080988Y-113478850D01*
X147080990Y-113478850D01*
X147080993Y-113478852D01*
X147187394Y-113513424D01*
X147279493Y-113543349D01*
X147382568Y-113559674D01*
X147485642Y-113576000D01*
X147485643Y-113576000D01*
X147694357Y-113576000D01*
X147694358Y-113576000D01*
X147900506Y-113543349D01*
X148099007Y-113478852D01*
X148284975Y-113384097D01*
X148453831Y-113261416D01*
X148601416Y-113113831D01*
X148724097Y-112944975D01*
X148749795Y-112894540D01*
X148797769Y-112843743D01*
X148865590Y-112826948D01*
X148931725Y-112849485D01*
X148970765Y-112894540D01*
X148996328Y-112944711D01*
X148996328Y-112944712D01*
X149032268Y-112994176D01*
X149687861Y-112338584D01*
X149710667Y-112423694D01*
X149769910Y-112526306D01*
X149853694Y-112610090D01*
X149956306Y-112669333D01*
X150041415Y-112692138D01*
X149385822Y-113347730D01*
X149385822Y-113347731D01*
X149435285Y-113383669D01*
X149621179Y-113478387D01*
X149819610Y-113542862D01*
X150025676Y-113575500D01*
X150234324Y-113575500D01*
X150440389Y-113542862D01*
X150638820Y-113478387D01*
X150824709Y-113383672D01*
X150874176Y-113347730D01*
X150218584Y-112692138D01*
X150303694Y-112669333D01*
X150406306Y-112610090D01*
X150490090Y-112526306D01*
X150549333Y-112423694D01*
X150572138Y-112338584D01*
X151227730Y-112994176D01*
X151263672Y-112944708D01*
X151263674Y-112944705D01*
X151289515Y-112893990D01*
X151337489Y-112843194D01*
X151405310Y-112826398D01*
X151471445Y-112848935D01*
X151510485Y-112893990D01*
X151536328Y-112944711D01*
X151536328Y-112944712D01*
X151572268Y-112994176D01*
X152227861Y-112338584D01*
X152250667Y-112423694D01*
X152309910Y-112526306D01*
X152393694Y-112610090D01*
X152496306Y-112669333D01*
X152581415Y-112692138D01*
X151925822Y-113347730D01*
X151925822Y-113347731D01*
X151975285Y-113383669D01*
X152161179Y-113478387D01*
X152359610Y-113542862D01*
X152565676Y-113575500D01*
X152774324Y-113575500D01*
X152980389Y-113542862D01*
X153178820Y-113478387D01*
X153364709Y-113383672D01*
X153414176Y-113347730D01*
X152758584Y-112692138D01*
X152843694Y-112669333D01*
X152946306Y-112610090D01*
X153030090Y-112526306D01*
X153089333Y-112423694D01*
X153112138Y-112338584D01*
X153767730Y-112994176D01*
X153803672Y-112944708D01*
X153803674Y-112944705D01*
X153829515Y-112893990D01*
X153877489Y-112843194D01*
X153945310Y-112826398D01*
X154011445Y-112848935D01*
X154050485Y-112893990D01*
X154076328Y-112944711D01*
X154076328Y-112944712D01*
X154112268Y-112994176D01*
X154767861Y-112338584D01*
X154790667Y-112423694D01*
X154849910Y-112526306D01*
X154933694Y-112610090D01*
X155036306Y-112669333D01*
X155121415Y-112692138D01*
X154465822Y-113347730D01*
X154465822Y-113347731D01*
X154515285Y-113383669D01*
X154701179Y-113478387D01*
X154899610Y-113542862D01*
X155105676Y-113575500D01*
X155314324Y-113575500D01*
X155520389Y-113542862D01*
X155718820Y-113478387D01*
X155904709Y-113383672D01*
X155954176Y-113347730D01*
X155298584Y-112692138D01*
X155383694Y-112669333D01*
X155486306Y-112610090D01*
X155570090Y-112526306D01*
X155629333Y-112423694D01*
X155652138Y-112338584D01*
X156307730Y-112994176D01*
X156343671Y-112944709D01*
X156369233Y-112894541D01*
X156417207Y-112843744D01*
X156485027Y-112826948D01*
X156551163Y-112849484D01*
X156590203Y-112894538D01*
X156615767Y-112944709D01*
X156615903Y-112944975D01*
X156738584Y-113113831D01*
X156886169Y-113261416D01*
X157055025Y-113384097D01*
X157142888Y-113428865D01*
X157240988Y-113478850D01*
X157240990Y-113478850D01*
X157240993Y-113478852D01*
X157347394Y-113513424D01*
X157439493Y-113543349D01*
X157542568Y-113559674D01*
X157645642Y-113576000D01*
X157645643Y-113576000D01*
X157854357Y-113576000D01*
X157854358Y-113576000D01*
X158060506Y-113543349D01*
X158259007Y-113478852D01*
X158444975Y-113384097D01*
X158613831Y-113261416D01*
X158761416Y-113113831D01*
X158884097Y-112944975D01*
X158978852Y-112759007D01*
X159043349Y-112560506D01*
X159076000Y-112354358D01*
X159076000Y-112145642D01*
X159043349Y-111939494D01*
X158978852Y-111740993D01*
X158978850Y-111740990D01*
X158978850Y-111740988D01*
X158884229Y-111555285D01*
X158884097Y-111555025D01*
X158761416Y-111386169D01*
X158613831Y-111238584D01*
X158444975Y-111115903D01*
X158395088Y-111090484D01*
X158344293Y-111042511D01*
X158327498Y-110974690D01*
X158350035Y-110908555D01*
X158395089Y-110869515D01*
X158444975Y-110844097D01*
X158613831Y-110721416D01*
X158761416Y-110573831D01*
X158884097Y-110404975D01*
X158978852Y-110219007D01*
X159043349Y-110020506D01*
X159076000Y-109814358D01*
X159076000Y-109605642D01*
X159043349Y-109399494D01*
X158978852Y-109200993D01*
X158978850Y-109200990D01*
X158978850Y-109200988D01*
X158884229Y-109015285D01*
X158884097Y-109015025D01*
X158761416Y-108846169D01*
X158613831Y-108698584D01*
X158444975Y-108575903D01*
X158259011Y-108481149D01*
X158060506Y-108416650D01*
X157882543Y-108388464D01*
X157854358Y-108384000D01*
X157645642Y-108384000D01*
X157620846Y-108387927D01*
X157439493Y-108416650D01*
X157240988Y-108481149D01*
X157055024Y-108575903D01*
X156886166Y-108698586D01*
X156738586Y-108846166D01*
X156615903Y-109015024D01*
X156590203Y-109065462D01*
X156542228Y-109116257D01*
X156474406Y-109133051D01*
X156408272Y-109110512D01*
X156369234Y-109065459D01*
X156343671Y-109015288D01*
X156343671Y-109015287D01*
X156307730Y-108965822D01*
X155652138Y-109621414D01*
X155629333Y-109536306D01*
X155570090Y-109433694D01*
X155486306Y-109349910D01*
X155383694Y-109290667D01*
X155298584Y-109267861D01*
X155954176Y-108612268D01*
X155954176Y-108612267D01*
X155904714Y-108576330D01*
X155718820Y-108481612D01*
X155520389Y-108417137D01*
X155314324Y-108384500D01*
X155105676Y-108384500D01*
X154899610Y-108417137D01*
X154701179Y-108481612D01*
X154515285Y-108576330D01*
X154465822Y-108612268D01*
X154465821Y-108612268D01*
X155121415Y-109267861D01*
X155036306Y-109290667D01*
X154933694Y-109349910D01*
X154849910Y-109433694D01*
X154790667Y-109536306D01*
X154767861Y-109621414D01*
X154112268Y-108965821D01*
X154112268Y-108965822D01*
X154076330Y-109015285D01*
X154050485Y-109066010D01*
X154002510Y-109116806D01*
X153934690Y-109133601D01*
X153868555Y-109111064D01*
X153829515Y-109066010D01*
X153803669Y-109015285D01*
X153767730Y-108965822D01*
X153112138Y-109621414D01*
X153089333Y-109536306D01*
X153030090Y-109433694D01*
X152946306Y-109349910D01*
X152843694Y-109290667D01*
X152758584Y-109267861D01*
X153414176Y-108612268D01*
X153414176Y-108612267D01*
X153364714Y-108576330D01*
X153178820Y-108481612D01*
X152980389Y-108417137D01*
X152774324Y-108384500D01*
X152565676Y-108384500D01*
X152359610Y-108417137D01*
X152161179Y-108481612D01*
X151975285Y-108576330D01*
X151925822Y-108612268D01*
X151925821Y-108612268D01*
X152581415Y-109267861D01*
X152496306Y-109290667D01*
X152393694Y-109349910D01*
X152309910Y-109433694D01*
X152250667Y-109536306D01*
X152227861Y-109621414D01*
X151572268Y-108965821D01*
X151572268Y-108965822D01*
X151536330Y-109015285D01*
X151510485Y-109066010D01*
X151462510Y-109116806D01*
X151394690Y-109133601D01*
X151328555Y-109111064D01*
X151289515Y-109066010D01*
X151263669Y-109015285D01*
X151227730Y-108965822D01*
X150572138Y-109621414D01*
X150549333Y-109536306D01*
X150490090Y-109433694D01*
X150406306Y-109349910D01*
X150303694Y-109290667D01*
X150218584Y-109267861D01*
X150874176Y-108612268D01*
X150874176Y-108612267D01*
X150824714Y-108576330D01*
X150638820Y-108481612D01*
X150440389Y-108417137D01*
X150234324Y-108384500D01*
X150025676Y-108384500D01*
X149819610Y-108417137D01*
X149621179Y-108481612D01*
X149435285Y-108576330D01*
X149385822Y-108612268D01*
X149385821Y-108612268D01*
X150041415Y-109267861D01*
X149956306Y-109290667D01*
X149853694Y-109349910D01*
X149769910Y-109433694D01*
X149710667Y-109536306D01*
X149687861Y-109621414D01*
X149032268Y-108965821D01*
X149032268Y-108965822D01*
X148996330Y-109015285D01*
X148970765Y-109065460D01*
X148922790Y-109116256D01*
X148854969Y-109133051D01*
X148788834Y-109110513D01*
X148749795Y-109065460D01*
X148724229Y-109015285D01*
X148724097Y-109015025D01*
X148601416Y-108846169D01*
X148453831Y-108698584D01*
X148284975Y-108575903D01*
X148099011Y-108481149D01*
X147900506Y-108416650D01*
X147722543Y-108388464D01*
X147694358Y-108384000D01*
X147485642Y-108384000D01*
X147460846Y-108387927D01*
X147279493Y-108416650D01*
X147080988Y-108481149D01*
X146895024Y-108575903D01*
X146726166Y-108698586D01*
X146578586Y-108846166D01*
X146455901Y-109015026D01*
X146430484Y-109064911D01*
X146382510Y-109115706D01*
X146314689Y-109132501D01*
X146248554Y-109109963D01*
X146209516Y-109064911D01*
X146184098Y-109015026D01*
X146148348Y-108965821D01*
X146061416Y-108846169D01*
X145913831Y-108698584D01*
X145744975Y-108575903D01*
X145559011Y-108481149D01*
X145360506Y-108416650D01*
X145182543Y-108388464D01*
X145154358Y-108384000D01*
X144945642Y-108384000D01*
X144920846Y-108387927D01*
X144739493Y-108416650D01*
X144540988Y-108481149D01*
X144355024Y-108575903D01*
X144186166Y-108698586D01*
X144038586Y-108846166D01*
X143915901Y-109015026D01*
X143890484Y-109064911D01*
X143842510Y-109115706D01*
X143774689Y-109132501D01*
X143708554Y-109109963D01*
X143669516Y-109064911D01*
X143644098Y-109015026D01*
X143608348Y-108965821D01*
X143521416Y-108846169D01*
X143373831Y-108698584D01*
X143204975Y-108575903D01*
X143019011Y-108481149D01*
X142820506Y-108416650D01*
X142642543Y-108388464D01*
X142614358Y-108384000D01*
X142405642Y-108384000D01*
X142380846Y-108387927D01*
X142199493Y-108416650D01*
X142000988Y-108481149D01*
X141815024Y-108575903D01*
X141646166Y-108698586D01*
X141498586Y-108846166D01*
X141375901Y-109015026D01*
X141350484Y-109064911D01*
X141302510Y-109115706D01*
X141234689Y-109132501D01*
X141168554Y-109109963D01*
X141129516Y-109064911D01*
X141104098Y-109015026D01*
X141068348Y-108965821D01*
X140981416Y-108846169D01*
X140833831Y-108698584D01*
X140664975Y-108575903D01*
X140479011Y-108481149D01*
X140280506Y-108416650D01*
X140102543Y-108388464D01*
X140074358Y-108384000D01*
X139865642Y-108384000D01*
X139840846Y-108387927D01*
X139659493Y-108416650D01*
X139460988Y-108481149D01*
X139275024Y-108575903D01*
X139106166Y-108698586D01*
X138958586Y-108846166D01*
X138835903Y-109015024D01*
X138741149Y-109200988D01*
X138676650Y-109399493D01*
X138644000Y-109605642D01*
X134750500Y-109605642D01*
X134750500Y-103889778D01*
X136349500Y-103889778D01*
X136349500Y-104110221D01*
X136383985Y-104327952D01*
X136452103Y-104537603D01*
X136452104Y-104537606D01*
X136552187Y-104734025D01*
X136681752Y-104912358D01*
X136681756Y-104912363D01*
X136837636Y-105068243D01*
X136837641Y-105068247D01*
X136993192Y-105181260D01*
X137015978Y-105197815D01*
X137144375Y-105263237D01*
X137212393Y-105297895D01*
X137212396Y-105297896D01*
X137317221Y-105331955D01*
X137422049Y-105366015D01*
X137639778Y-105400500D01*
X137639779Y-105400500D01*
X137860221Y-105400500D01*
X137860222Y-105400500D01*
X138077951Y-105366015D01*
X138287606Y-105297895D01*
X138484022Y-105197815D01*
X138662365Y-105068242D01*
X138818242Y-104912365D01*
X138947815Y-104734022D01*
X139047895Y-104537606D01*
X139116015Y-104327951D01*
X139150500Y-104110222D01*
X139150500Y-103889778D01*
X139116015Y-103672049D01*
X139047895Y-103462394D01*
X139047895Y-103462393D01*
X139013237Y-103394375D01*
X138947815Y-103265978D01*
X138931260Y-103243192D01*
X138818247Y-103087641D01*
X138818243Y-103087636D01*
X138767683Y-103037076D01*
X138734198Y-102975753D01*
X138739182Y-102906061D01*
X138781054Y-102850128D01*
X138812031Y-102833213D01*
X138892086Y-102803354D01*
X138892093Y-102803350D01*
X139007187Y-102717190D01*
X139007190Y-102717187D01*
X139093350Y-102602093D01*
X139093354Y-102602086D01*
X139143596Y-102467379D01*
X139143598Y-102467372D01*
X139149999Y-102407844D01*
X139150000Y-102407827D01*
X139150000Y-101710000D01*
X138125278Y-101710000D01*
X138169333Y-101633694D01*
X138200000Y-101519244D01*
X138200000Y-101400756D01*
X138169333Y-101286306D01*
X138125278Y-101210000D01*
X139150000Y-101210000D01*
X139150000Y-100512172D01*
X139149999Y-100512155D01*
X139143598Y-100452627D01*
X139143596Y-100452620D01*
X139093354Y-100317913D01*
X139093350Y-100317906D01*
X139007190Y-100202812D01*
X139007187Y-100202809D01*
X138892093Y-100116649D01*
X138892086Y-100116645D01*
X138757379Y-100066403D01*
X138757372Y-100066401D01*
X138697844Y-100060000D01*
X138000000Y-100060000D01*
X138000000Y-101084722D01*
X137923694Y-101040667D01*
X137809244Y-101010000D01*
X137690756Y-101010000D01*
X137576306Y-101040667D01*
X137500000Y-101084722D01*
X137500000Y-100060000D01*
X136802155Y-100060000D01*
X136742627Y-100066401D01*
X136742620Y-100066403D01*
X136607913Y-100116645D01*
X136607906Y-100116649D01*
X136492812Y-100202809D01*
X136492809Y-100202812D01*
X136406649Y-100317906D01*
X136406645Y-100317913D01*
X136356403Y-100452620D01*
X136356401Y-100452627D01*
X136350000Y-100512155D01*
X136350000Y-101210000D01*
X137374722Y-101210000D01*
X137330667Y-101286306D01*
X137300000Y-101400756D01*
X137300000Y-101519244D01*
X137330667Y-101633694D01*
X137374722Y-101710000D01*
X136350000Y-101710000D01*
X136350000Y-102407844D01*
X136356401Y-102467372D01*
X136356403Y-102467379D01*
X136406645Y-102602086D01*
X136406649Y-102602093D01*
X136492809Y-102717187D01*
X136492812Y-102717190D01*
X136607906Y-102803350D01*
X136607913Y-102803354D01*
X136687968Y-102833213D01*
X136743902Y-102875084D01*
X136768319Y-102940549D01*
X136753467Y-103008822D01*
X136732317Y-103037075D01*
X136681756Y-103087636D01*
X136681752Y-103087641D01*
X136552187Y-103265974D01*
X136452104Y-103462393D01*
X136452103Y-103462396D01*
X136383985Y-103672047D01*
X136349500Y-103889778D01*
X134750500Y-103889778D01*
X134750500Y-94762135D01*
X136349500Y-94762135D01*
X136349500Y-96657870D01*
X136349501Y-96657876D01*
X136355908Y-96717483D01*
X136406202Y-96852328D01*
X136406206Y-96852335D01*
X136492452Y-96967544D01*
X136492455Y-96967547D01*
X136607664Y-97053793D01*
X136607671Y-97053797D01*
X136652618Y-97070561D01*
X136742517Y-97104091D01*
X136802127Y-97110500D01*
X136912693Y-97110499D01*
X136979730Y-97130183D01*
X137000372Y-97146818D01*
X137661415Y-97807861D01*
X137576306Y-97830667D01*
X137473694Y-97889910D01*
X137389910Y-97973694D01*
X137330667Y-98076306D01*
X137307861Y-98161414D01*
X136598932Y-97452485D01*
X136598931Y-97452485D01*
X136552616Y-97516233D01*
X136452567Y-97712589D01*
X136384473Y-97922164D01*
X136350000Y-98139818D01*
X136350000Y-98360181D01*
X136384473Y-98577835D01*
X136452567Y-98787410D01*
X136552611Y-98983756D01*
X136598932Y-99047513D01*
X137307861Y-98338584D01*
X137330667Y-98423694D01*
X137389910Y-98526306D01*
X137473694Y-98610090D01*
X137576306Y-98669333D01*
X137661414Y-98692137D01*
X136952485Y-99401065D01*
X136952485Y-99401066D01*
X137016243Y-99447388D01*
X137212589Y-99547432D01*
X137422164Y-99615526D01*
X137639819Y-99650000D01*
X137860181Y-99650000D01*
X138077835Y-99615526D01*
X138287410Y-99547432D01*
X138483760Y-99447386D01*
X138547513Y-99401066D01*
X138547514Y-99401066D01*
X137838585Y-98692138D01*
X137923694Y-98669333D01*
X138026306Y-98610090D01*
X138110090Y-98526306D01*
X138169333Y-98423694D01*
X138192137Y-98338585D01*
X138901066Y-99047514D01*
X138901066Y-99047513D01*
X138947386Y-98983760D01*
X139047432Y-98787410D01*
X139115526Y-98577835D01*
X139150000Y-98360181D01*
X139150000Y-98139818D01*
X139115526Y-97922164D01*
X139047432Y-97712589D01*
X138947388Y-97516243D01*
X138901066Y-97452485D01*
X138901065Y-97452485D01*
X138192137Y-98161413D01*
X138169333Y-98076306D01*
X138110090Y-97973694D01*
X138026306Y-97889910D01*
X137923694Y-97830667D01*
X137838584Y-97807861D01*
X138499628Y-97146818D01*
X138560951Y-97113333D01*
X138587308Y-97110499D01*
X138697872Y-97110499D01*
X138757483Y-97104091D01*
X138892331Y-97053796D01*
X139007546Y-96967546D01*
X139093796Y-96852331D01*
X139144091Y-96717483D01*
X139150500Y-96657873D01*
X139150499Y-94762128D01*
X139144091Y-94702517D01*
X139093796Y-94567669D01*
X139093795Y-94567668D01*
X139093793Y-94567664D01*
X139007547Y-94452455D01*
X139007544Y-94452452D01*
X138892335Y-94366206D01*
X138892328Y-94366202D01*
X138757482Y-94315908D01*
X138757483Y-94315908D01*
X138697883Y-94309501D01*
X138697881Y-94309500D01*
X138697873Y-94309500D01*
X138697864Y-94309500D01*
X136802129Y-94309500D01*
X136802123Y-94309501D01*
X136742516Y-94315908D01*
X136607671Y-94366202D01*
X136607664Y-94366206D01*
X136492455Y-94452452D01*
X136492452Y-94452455D01*
X136406206Y-94567664D01*
X136406202Y-94567671D01*
X136355908Y-94702517D01*
X136349501Y-94762116D01*
X136349501Y-94762123D01*
X136349500Y-94762135D01*
X134750500Y-94762135D01*
X134750500Y-92389778D01*
X136349500Y-92389778D01*
X136349500Y-92610221D01*
X136383985Y-92827952D01*
X136452103Y-93037603D01*
X136452104Y-93037606D01*
X136552187Y-93234025D01*
X136681752Y-93412358D01*
X136681756Y-93412363D01*
X136837636Y-93568243D01*
X136837641Y-93568247D01*
X136993192Y-93681260D01*
X137015978Y-93697815D01*
X137144375Y-93763237D01*
X137212393Y-93797895D01*
X137212396Y-93797896D01*
X137317221Y-93831955D01*
X137422049Y-93866015D01*
X137639778Y-93900500D01*
X137639779Y-93900500D01*
X137860221Y-93900500D01*
X137860222Y-93900500D01*
X138077951Y-93866015D01*
X138287606Y-93797895D01*
X138484022Y-93697815D01*
X138662365Y-93568242D01*
X138818242Y-93412365D01*
X138947815Y-93234022D01*
X139047895Y-93037606D01*
X139116015Y-92827951D01*
X139150500Y-92610222D01*
X139150500Y-92389778D01*
X139116015Y-92172049D01*
X139047895Y-91962394D01*
X139047895Y-91962393D01*
X139013237Y-91894375D01*
X138947815Y-91765978D01*
X138931260Y-91743192D01*
X138818247Y-91587641D01*
X138818243Y-91587636D01*
X138767683Y-91537076D01*
X138734198Y-91475753D01*
X138739182Y-91406061D01*
X138781054Y-91350128D01*
X138812031Y-91333213D01*
X138892086Y-91303354D01*
X138892093Y-91303350D01*
X139007187Y-91217190D01*
X139007190Y-91217187D01*
X139093350Y-91102093D01*
X139093354Y-91102086D01*
X139143596Y-90967379D01*
X139143598Y-90967372D01*
X139149999Y-90907844D01*
X139150000Y-90907827D01*
X139150000Y-90210000D01*
X138125278Y-90210000D01*
X138169333Y-90133694D01*
X138200000Y-90019244D01*
X138200000Y-89900756D01*
X138169333Y-89786306D01*
X138125278Y-89710000D01*
X139150000Y-89710000D01*
X139150000Y-89012172D01*
X139149999Y-89012155D01*
X139143598Y-88952627D01*
X139143596Y-88952620D01*
X139093354Y-88817913D01*
X139093350Y-88817906D01*
X139007190Y-88702812D01*
X139007187Y-88702809D01*
X138892093Y-88616649D01*
X138892086Y-88616645D01*
X138757379Y-88566403D01*
X138757372Y-88566401D01*
X138697844Y-88560000D01*
X138000000Y-88560000D01*
X138000000Y-89584722D01*
X137923694Y-89540667D01*
X137809244Y-89510000D01*
X137690756Y-89510000D01*
X137576306Y-89540667D01*
X137500000Y-89584722D01*
X137500000Y-88560000D01*
X136802155Y-88560000D01*
X136742627Y-88566401D01*
X136742620Y-88566403D01*
X136607913Y-88616645D01*
X136607906Y-88616649D01*
X136492812Y-88702809D01*
X136492809Y-88702812D01*
X136406649Y-88817906D01*
X136406645Y-88817913D01*
X136356403Y-88952620D01*
X136356401Y-88952627D01*
X136350000Y-89012155D01*
X136350000Y-89710000D01*
X137374722Y-89710000D01*
X137330667Y-89786306D01*
X137300000Y-89900756D01*
X137300000Y-90019244D01*
X137330667Y-90133694D01*
X137374722Y-90210000D01*
X136350000Y-90210000D01*
X136350000Y-90907844D01*
X136356401Y-90967372D01*
X136356403Y-90967379D01*
X136406645Y-91102086D01*
X136406649Y-91102093D01*
X136492809Y-91217187D01*
X136492812Y-91217190D01*
X136607906Y-91303350D01*
X136607913Y-91303354D01*
X136687968Y-91333213D01*
X136743902Y-91375084D01*
X136768319Y-91440549D01*
X136753467Y-91508822D01*
X136732317Y-91537075D01*
X136681756Y-91587636D01*
X136681752Y-91587641D01*
X136552187Y-91765974D01*
X136452104Y-91962393D01*
X136452103Y-91962396D01*
X136383985Y-92172047D01*
X136349500Y-92389778D01*
X134750500Y-92389778D01*
X134750500Y-83453870D01*
X137824500Y-83453870D01*
X137824500Y-83686129D01*
X137860831Y-83915514D01*
X137932601Y-84136400D01*
X138037903Y-84343064D01*
X138038039Y-84343331D01*
X138174551Y-84531224D01*
X138338776Y-84695449D01*
X138526669Y-84831961D01*
X138624436Y-84881776D01*
X138733599Y-84937398D01*
X138733601Y-84937398D01*
X138733604Y-84937400D01*
X138954486Y-85009169D01*
X139072668Y-85027886D01*
X139183871Y-85045500D01*
X139183876Y-85045500D01*
X139416129Y-85045500D01*
X139517502Y-85029443D01*
X139645514Y-85009169D01*
X139866396Y-84937400D01*
X140073331Y-84831961D01*
X140261224Y-84695449D01*
X140425449Y-84531224D01*
X140561961Y-84343331D01*
X140667400Y-84136396D01*
X140739169Y-83915514D01*
X140763863Y-83759598D01*
X140775500Y-83686129D01*
X140775500Y-83453909D01*
X147985000Y-83453909D01*
X147985000Y-83686090D01*
X148021318Y-83915393D01*
X148093065Y-84136205D01*
X148198465Y-84343064D01*
X148255238Y-84421207D01*
X148858958Y-83817487D01*
X148883978Y-83877890D01*
X148955112Y-83984351D01*
X149045649Y-84074888D01*
X149152110Y-84146022D01*
X149212510Y-84171041D01*
X148608791Y-84774759D01*
X148608791Y-84774760D01*
X148686935Y-84831534D01*
X148893794Y-84936934D01*
X149114606Y-85008681D01*
X149343910Y-85045000D01*
X149576090Y-85045000D01*
X149805393Y-85008681D01*
X150026205Y-84936934D01*
X150233071Y-84831530D01*
X150311207Y-84774762D01*
X150311208Y-84774760D01*
X149707488Y-84171041D01*
X149767890Y-84146022D01*
X149874351Y-84074888D01*
X149964888Y-83984351D01*
X150036022Y-83877890D01*
X150061041Y-83817489D01*
X150664760Y-84421208D01*
X150664762Y-84421207D01*
X150721530Y-84343071D01*
X150826934Y-84136205D01*
X150898681Y-83915393D01*
X150935000Y-83686090D01*
X150935000Y-83453909D01*
X150934994Y-83453870D01*
X158144500Y-83453870D01*
X158144500Y-83686129D01*
X158180831Y-83915514D01*
X158252601Y-84136400D01*
X158357903Y-84343064D01*
X158358039Y-84343331D01*
X158494551Y-84531224D01*
X158658776Y-84695449D01*
X158846669Y-84831961D01*
X158944436Y-84881776D01*
X159053599Y-84937398D01*
X159053601Y-84937398D01*
X159053604Y-84937400D01*
X159274486Y-85009169D01*
X159392668Y-85027886D01*
X159503871Y-85045500D01*
X159503876Y-85045500D01*
X159736129Y-85045500D01*
X159837502Y-85029443D01*
X159965514Y-85009169D01*
X160186396Y-84937400D01*
X160393331Y-84831961D01*
X160581224Y-84695449D01*
X160745449Y-84531224D01*
X160881961Y-84343331D01*
X160987400Y-84136396D01*
X161059169Y-83915514D01*
X161083863Y-83759598D01*
X161095500Y-83686129D01*
X161095500Y-83453870D01*
X161076232Y-83332222D01*
X161059169Y-83224486D01*
X160987400Y-83003604D01*
X160987398Y-83003601D01*
X160987398Y-83003599D01*
X160931776Y-82894436D01*
X160881961Y-82796669D01*
X160745449Y-82608776D01*
X160581224Y-82444551D01*
X160393331Y-82308039D01*
X160186400Y-82202601D01*
X159965514Y-82130831D01*
X159736129Y-82094500D01*
X159736124Y-82094500D01*
X159503876Y-82094500D01*
X159503871Y-82094500D01*
X159274485Y-82130831D01*
X159053599Y-82202601D01*
X158846668Y-82308039D01*
X158658773Y-82444553D01*
X158494553Y-82608773D01*
X158358039Y-82796668D01*
X158252601Y-83003599D01*
X158180831Y-83224485D01*
X158144500Y-83453870D01*
X150934994Y-83453870D01*
X150898681Y-83224606D01*
X150826934Y-83003794D01*
X150721534Y-82796935D01*
X150664760Y-82718791D01*
X150664759Y-82718791D01*
X150061041Y-83322510D01*
X150036022Y-83262110D01*
X149964888Y-83155649D01*
X149874351Y-83065112D01*
X149767890Y-82993978D01*
X149707487Y-82968957D01*
X150311207Y-82365238D01*
X150233064Y-82308465D01*
X150026205Y-82203065D01*
X149805393Y-82131318D01*
X149576090Y-82095000D01*
X149343910Y-82095000D01*
X149114606Y-82131318D01*
X148893794Y-82203065D01*
X148686925Y-82308470D01*
X148608791Y-82365237D01*
X148608791Y-82365238D01*
X149212511Y-82968958D01*
X149152110Y-82993978D01*
X149045649Y-83065112D01*
X148955112Y-83155649D01*
X148883978Y-83262110D01*
X148858958Y-83322511D01*
X148255238Y-82718791D01*
X148255237Y-82718791D01*
X148198470Y-82796925D01*
X148093065Y-83003794D01*
X148021318Y-83224606D01*
X147985000Y-83453909D01*
X140775500Y-83453909D01*
X140775500Y-83453870D01*
X140756232Y-83332222D01*
X140739169Y-83224486D01*
X140667400Y-83003604D01*
X140667398Y-83003601D01*
X140667398Y-83003599D01*
X140611776Y-82894436D01*
X140561961Y-82796669D01*
X140425449Y-82608776D01*
X140261224Y-82444551D01*
X140073331Y-82308039D01*
X139866400Y-82202601D01*
X139645514Y-82130831D01*
X139416129Y-82094500D01*
X139416124Y-82094500D01*
X139183876Y-82094500D01*
X139183871Y-82094500D01*
X138954485Y-82130831D01*
X138733599Y-82202601D01*
X138526668Y-82308039D01*
X138338773Y-82444553D01*
X138174553Y-82608773D01*
X138038039Y-82796668D01*
X137932601Y-83003599D01*
X137860831Y-83224485D01*
X137824500Y-83453870D01*
X134750500Y-83453870D01*
X134750500Y-63133870D01*
X137824500Y-63133870D01*
X137824500Y-63366129D01*
X137860831Y-63595514D01*
X137932601Y-63816400D01*
X138037903Y-64023064D01*
X138038039Y-64023331D01*
X138174551Y-64211224D01*
X138338776Y-64375449D01*
X138526669Y-64511961D01*
X138624436Y-64561776D01*
X138733599Y-64617398D01*
X138733601Y-64617398D01*
X138733604Y-64617400D01*
X138954486Y-64689169D01*
X139072668Y-64707886D01*
X139183871Y-64725500D01*
X139183876Y-64725500D01*
X139416129Y-64725500D01*
X139517502Y-64709443D01*
X139645514Y-64689169D01*
X139866396Y-64617400D01*
X140073331Y-64511961D01*
X140261224Y-64375449D01*
X140425449Y-64211224D01*
X140561961Y-64023331D01*
X140667400Y-63816396D01*
X140739169Y-63595514D01*
X140763863Y-63439598D01*
X140775500Y-63366129D01*
X140775500Y-63133909D01*
X145445000Y-63133909D01*
X145445000Y-63366090D01*
X145481318Y-63595393D01*
X145553065Y-63816205D01*
X145658465Y-64023064D01*
X145715238Y-64101207D01*
X146318958Y-63497487D01*
X146343978Y-63557890D01*
X146415112Y-63664351D01*
X146505649Y-63754888D01*
X146612110Y-63826022D01*
X146672510Y-63851041D01*
X146068791Y-64454759D01*
X146068791Y-64454760D01*
X146146935Y-64511534D01*
X146353794Y-64616934D01*
X146574606Y-64688681D01*
X146803910Y-64725000D01*
X147036090Y-64725000D01*
X147265393Y-64688681D01*
X147486205Y-64616934D01*
X147693071Y-64511530D01*
X147771207Y-64454762D01*
X147771208Y-64454760D01*
X147167488Y-63851041D01*
X147227890Y-63826022D01*
X147334351Y-63754888D01*
X147424888Y-63664351D01*
X147496022Y-63557890D01*
X147521041Y-63497489D01*
X148124760Y-64101208D01*
X148124762Y-64101207D01*
X148181530Y-64023071D01*
X148286934Y-63816205D01*
X148358681Y-63595393D01*
X148395000Y-63366090D01*
X148395000Y-63133909D01*
X148394994Y-63133870D01*
X150524500Y-63133870D01*
X150524500Y-63366129D01*
X150560831Y-63595514D01*
X150632601Y-63816400D01*
X150737903Y-64023064D01*
X150738039Y-64023331D01*
X150874551Y-64211224D01*
X151038776Y-64375449D01*
X151226669Y-64511961D01*
X151324436Y-64561776D01*
X151433599Y-64617398D01*
X151433601Y-64617398D01*
X151433604Y-64617400D01*
X151654486Y-64689169D01*
X151772668Y-64707886D01*
X151883871Y-64725500D01*
X151883876Y-64725500D01*
X152116129Y-64725500D01*
X152217502Y-64709443D01*
X152345514Y-64689169D01*
X152566396Y-64617400D01*
X152773331Y-64511961D01*
X152961224Y-64375449D01*
X153125449Y-64211224D01*
X153261961Y-64023331D01*
X153367400Y-63816396D01*
X153439169Y-63595514D01*
X153463863Y-63439598D01*
X153475500Y-63366129D01*
X153475500Y-63133870D01*
X153456232Y-63012222D01*
X153439169Y-62904486D01*
X153367400Y-62683604D01*
X153367398Y-62683601D01*
X153367398Y-62683599D01*
X153311776Y-62574436D01*
X153261961Y-62476669D01*
X153125449Y-62288776D01*
X152961224Y-62124551D01*
X152773331Y-61988039D01*
X152566400Y-61882601D01*
X152345514Y-61810831D01*
X152116129Y-61774500D01*
X152116124Y-61774500D01*
X151883876Y-61774500D01*
X151883871Y-61774500D01*
X151654485Y-61810831D01*
X151433599Y-61882601D01*
X151226668Y-61988039D01*
X151038773Y-62124553D01*
X150874553Y-62288773D01*
X150738039Y-62476668D01*
X150632601Y-62683599D01*
X150560831Y-62904485D01*
X150524500Y-63133870D01*
X148394994Y-63133870D01*
X148358681Y-62904606D01*
X148286934Y-62683794D01*
X148181534Y-62476935D01*
X148124760Y-62398791D01*
X148124759Y-62398791D01*
X147521041Y-63002510D01*
X147496022Y-62942110D01*
X147424888Y-62835649D01*
X147334351Y-62745112D01*
X147227890Y-62673978D01*
X147167487Y-62648957D01*
X147771207Y-62045238D01*
X147693064Y-61988465D01*
X147486205Y-61883065D01*
X147265393Y-61811318D01*
X147036090Y-61775000D01*
X146803910Y-61775000D01*
X146574606Y-61811318D01*
X146353794Y-61883065D01*
X146146925Y-61988470D01*
X146068791Y-62045237D01*
X146068791Y-62045238D01*
X146672511Y-62648958D01*
X146612110Y-62673978D01*
X146505649Y-62745112D01*
X146415112Y-62835649D01*
X146343978Y-62942110D01*
X146318958Y-63002511D01*
X145715238Y-62398791D01*
X145715237Y-62398791D01*
X145658470Y-62476925D01*
X145553065Y-62683794D01*
X145481318Y-62904606D01*
X145445000Y-63133909D01*
X140775500Y-63133909D01*
X140775500Y-63133870D01*
X140756232Y-63012222D01*
X140739169Y-62904486D01*
X140667400Y-62683604D01*
X140667398Y-62683601D01*
X140667398Y-62683599D01*
X140611776Y-62574436D01*
X140561961Y-62476669D01*
X140425449Y-62288776D01*
X140261224Y-62124551D01*
X140073331Y-61988039D01*
X139866400Y-61882601D01*
X139645514Y-61810831D01*
X139416129Y-61774500D01*
X139416124Y-61774500D01*
X139183876Y-61774500D01*
X139183871Y-61774500D01*
X138954485Y-61810831D01*
X138733599Y-61882601D01*
X138526668Y-61988039D01*
X138338773Y-62124553D01*
X138174553Y-62288773D01*
X138038039Y-62476668D01*
X137932601Y-62683599D01*
X137860831Y-62904485D01*
X137824500Y-63133870D01*
X134750500Y-63133870D01*
X134750500Y-56011220D01*
X134770185Y-55944181D01*
X134822989Y-55898426D01*
X134892147Y-55888482D01*
X134947386Y-55910902D01*
X135121207Y-56037191D01*
X135332275Y-56144736D01*
X135557577Y-56217942D01*
X135791549Y-56255000D01*
X136028451Y-56255000D01*
X136262422Y-56217942D01*
X136487724Y-56144736D01*
X136698792Y-56037191D01*
X136782685Y-55976238D01*
X136782686Y-55976238D01*
X136712140Y-55905692D01*
X136172796Y-55366348D01*
X136227364Y-55343746D01*
X136337100Y-55270423D01*
X136430423Y-55177100D01*
X136503746Y-55067364D01*
X136526348Y-55012796D01*
X137136238Y-55622686D01*
X137136238Y-55622685D01*
X137197191Y-55538792D01*
X137304736Y-55327724D01*
X137377942Y-55102422D01*
X137415000Y-54868451D01*
X137415000Y-54643753D01*
X138360000Y-54643753D01*
X138360000Y-54856246D01*
X138393242Y-55066127D01*
X138393242Y-55066130D01*
X138458904Y-55268217D01*
X138555375Y-55457550D01*
X138594728Y-55511716D01*
X139093650Y-55012794D01*
X139116254Y-55067364D01*
X139189577Y-55177100D01*
X139282900Y-55270423D01*
X139392636Y-55343746D01*
X139447204Y-55366348D01*
X138948282Y-55865269D01*
X138948282Y-55865270D01*
X139002449Y-55904624D01*
X139191782Y-56001095D01*
X139393870Y-56066757D01*
X139603754Y-56100000D01*
X139816246Y-56100000D01*
X140026127Y-56066757D01*
X140026130Y-56066757D01*
X140228217Y-56001095D01*
X140417554Y-55904622D01*
X140471716Y-55865270D01*
X140471717Y-55865270D01*
X139972795Y-55366349D01*
X140027364Y-55343746D01*
X140137100Y-55270423D01*
X140230423Y-55177100D01*
X140303746Y-55067364D01*
X140326349Y-55012795D01*
X140825270Y-55511717D01*
X140825270Y-55511716D01*
X140864622Y-55457554D01*
X140961095Y-55268217D01*
X141026757Y-55066130D01*
X141026757Y-55066127D01*
X141060000Y-54856246D01*
X141060000Y-54643753D01*
X141026757Y-54433872D01*
X141026757Y-54433869D01*
X140961095Y-54231782D01*
X140864624Y-54042449D01*
X140825270Y-53988282D01*
X140825269Y-53988282D01*
X140326348Y-54487203D01*
X140303746Y-54432636D01*
X140230423Y-54322900D01*
X140137100Y-54229577D01*
X140027364Y-54156254D01*
X139972795Y-54133650D01*
X140471716Y-53634728D01*
X140417550Y-53595375D01*
X140228217Y-53498904D01*
X140026129Y-53433242D01*
X139816246Y-53400000D01*
X139603754Y-53400000D01*
X139393872Y-53433242D01*
X139393869Y-53433242D01*
X139191782Y-53498904D01*
X139002439Y-53595380D01*
X138948282Y-53634727D01*
X138948282Y-53634728D01*
X139447204Y-54133650D01*
X139392636Y-54156254D01*
X139282900Y-54229577D01*
X139189577Y-54322900D01*
X139116254Y-54432636D01*
X139093650Y-54487204D01*
X138594728Y-53988282D01*
X138594727Y-53988282D01*
X138555380Y-54042439D01*
X138458904Y-54231782D01*
X138393242Y-54433869D01*
X138393242Y-54433872D01*
X138360000Y-54643753D01*
X137415000Y-54643753D01*
X137415000Y-54631548D01*
X137377942Y-54397577D01*
X137304736Y-54172275D01*
X137197189Y-53961203D01*
X137136239Y-53877313D01*
X137136238Y-53877312D01*
X136526348Y-54487202D01*
X136503746Y-54432636D01*
X136430423Y-54322900D01*
X136337100Y-54229577D01*
X136227364Y-54156254D01*
X136172795Y-54133650D01*
X136712141Y-53594306D01*
X136782685Y-53523761D01*
X136782685Y-53523759D01*
X136698795Y-53462810D01*
X136487724Y-53355263D01*
X136262422Y-53282057D01*
X136028451Y-53245000D01*
X135791549Y-53245000D01*
X135557577Y-53282057D01*
X135332275Y-53355263D01*
X135121204Y-53462810D01*
X134947385Y-53589097D01*
X134881579Y-53612577D01*
X134813525Y-53596751D01*
X134764830Y-53546646D01*
X134750500Y-53488779D01*
X134750500Y-47371220D01*
X134770185Y-47304181D01*
X134822989Y-47258426D01*
X134892147Y-47248482D01*
X134947386Y-47270902D01*
X135121207Y-47397191D01*
X135332275Y-47504736D01*
X135557577Y-47577942D01*
X135791549Y-47615000D01*
X136028451Y-47615000D01*
X136262422Y-47577942D01*
X136487724Y-47504736D01*
X136698792Y-47397191D01*
X136782685Y-47336238D01*
X136782686Y-47336238D01*
X136712140Y-47265692D01*
X136172796Y-46726348D01*
X136227364Y-46703746D01*
X136337100Y-46630423D01*
X136430423Y-46537100D01*
X136503746Y-46427364D01*
X136526348Y-46372796D01*
X137136238Y-46982686D01*
X137136238Y-46982685D01*
X137197191Y-46898792D01*
X137304736Y-46687724D01*
X137377942Y-46462422D01*
X137415000Y-46228451D01*
X137415000Y-46003753D01*
X138360000Y-46003753D01*
X138360000Y-46216246D01*
X138393242Y-46426127D01*
X138393242Y-46426130D01*
X138458904Y-46628217D01*
X138555375Y-46817550D01*
X138594728Y-46871716D01*
X139093650Y-46372794D01*
X139116254Y-46427364D01*
X139189577Y-46537100D01*
X139282900Y-46630423D01*
X139392636Y-46703746D01*
X139447204Y-46726348D01*
X138948282Y-47225269D01*
X138948282Y-47225270D01*
X139002449Y-47264624D01*
X139191782Y-47361095D01*
X139393870Y-47426757D01*
X139603754Y-47460000D01*
X139816246Y-47460000D01*
X140026127Y-47426757D01*
X140026130Y-47426757D01*
X140228217Y-47361095D01*
X140417554Y-47264622D01*
X140471716Y-47225270D01*
X140471717Y-47225270D01*
X139972795Y-46726349D01*
X140027364Y-46703746D01*
X140137100Y-46630423D01*
X140230423Y-46537100D01*
X140303746Y-46427364D01*
X140326349Y-46372795D01*
X140825270Y-46871717D01*
X140825270Y-46871716D01*
X140864622Y-46817554D01*
X140961095Y-46628217D01*
X141026757Y-46426130D01*
X141026757Y-46426127D01*
X141060000Y-46216246D01*
X141060000Y-46093870D01*
X158274500Y-46093870D01*
X158274500Y-46326129D01*
X158310831Y-46555514D01*
X158382601Y-46776400D01*
X158444964Y-46898792D01*
X158488039Y-46983331D01*
X158600483Y-47138098D01*
X158623963Y-47203903D01*
X158608138Y-47271957D01*
X158558032Y-47320652D01*
X158543501Y-47327163D01*
X158532672Y-47331202D01*
X158532664Y-47331206D01*
X158417455Y-47417452D01*
X158417452Y-47417455D01*
X158331206Y-47532664D01*
X158331202Y-47532671D01*
X158280908Y-47667517D01*
X158274501Y-47727116D01*
X158274501Y-47727123D01*
X158274500Y-47727135D01*
X158274500Y-49772870D01*
X158274501Y-49772876D01*
X158280908Y-49832483D01*
X158331202Y-49967328D01*
X158331206Y-49967335D01*
X158417452Y-50082544D01*
X158417455Y-50082547D01*
X158532664Y-50168793D01*
X158532671Y-50168797D01*
X158667517Y-50219091D01*
X158667516Y-50219091D01*
X158674444Y-50219835D01*
X158727127Y-50225500D01*
X160772872Y-50225499D01*
X160832483Y-50219091D01*
X160967331Y-50168796D01*
X161082546Y-50082546D01*
X161168796Y-49967331D01*
X161219091Y-49832483D01*
X161225500Y-49772873D01*
X161225499Y-47727128D01*
X161219091Y-47667517D01*
X161199503Y-47615000D01*
X161168797Y-47532671D01*
X161168793Y-47532664D01*
X161082547Y-47417455D01*
X161082544Y-47417452D01*
X160967335Y-47331206D01*
X160967324Y-47331200D01*
X160956500Y-47327163D01*
X160900566Y-47285292D01*
X160876150Y-47219827D01*
X160891002Y-47151554D01*
X160899503Y-47138115D01*
X161011961Y-46983331D01*
X161117400Y-46776396D01*
X161189169Y-46555514D01*
X161217845Y-46374457D01*
X161225500Y-46326129D01*
X161225500Y-46093870D01*
X161193192Y-45889889D01*
X161189169Y-45864486D01*
X161117400Y-45643604D01*
X161117398Y-45643601D01*
X161117398Y-45643599D01*
X161052512Y-45516254D01*
X161011961Y-45436669D01*
X160875449Y-45248776D01*
X160711224Y-45084551D01*
X160523331Y-44948039D01*
X160316400Y-44842601D01*
X160095514Y-44770831D01*
X159866129Y-44734500D01*
X159866124Y-44734500D01*
X159633876Y-44734500D01*
X159633871Y-44734500D01*
X159404485Y-44770831D01*
X159183599Y-44842601D01*
X158976668Y-44948039D01*
X158788773Y-45084553D01*
X158624553Y-45248773D01*
X158488039Y-45436668D01*
X158382601Y-45643599D01*
X158310831Y-45864485D01*
X158274500Y-46093870D01*
X141060000Y-46093870D01*
X141060000Y-46003753D01*
X141026757Y-45793872D01*
X141026757Y-45793869D01*
X140961095Y-45591782D01*
X140864624Y-45402449D01*
X140825270Y-45348282D01*
X140825269Y-45348282D01*
X140326348Y-45847203D01*
X140303746Y-45792636D01*
X140230423Y-45682900D01*
X140137100Y-45589577D01*
X140027364Y-45516254D01*
X139972795Y-45493650D01*
X140471716Y-44994728D01*
X140417550Y-44955375D01*
X140228217Y-44858904D01*
X140026129Y-44793242D01*
X139816246Y-44760000D01*
X139603754Y-44760000D01*
X139393872Y-44793242D01*
X139393869Y-44793242D01*
X139191782Y-44858904D01*
X139002439Y-44955380D01*
X138948282Y-44994727D01*
X138948282Y-44994728D01*
X139447204Y-45493650D01*
X139392636Y-45516254D01*
X139282900Y-45589577D01*
X139189577Y-45682900D01*
X139116254Y-45792636D01*
X139093650Y-45847204D01*
X138594728Y-45348282D01*
X138594727Y-45348282D01*
X138555380Y-45402439D01*
X138458904Y-45591782D01*
X138393242Y-45793869D01*
X138393242Y-45793872D01*
X138360000Y-46003753D01*
X137415000Y-46003753D01*
X137415000Y-45991548D01*
X137377942Y-45757577D01*
X137304736Y-45532275D01*
X137197189Y-45321203D01*
X137136239Y-45237313D01*
X137136238Y-45237312D01*
X136526348Y-45847202D01*
X136503746Y-45792636D01*
X136430423Y-45682900D01*
X136337100Y-45589577D01*
X136227364Y-45516254D01*
X136172795Y-45493650D01*
X136712141Y-44954306D01*
X136782685Y-44883761D01*
X136782685Y-44883759D01*
X136698795Y-44822810D01*
X136487724Y-44715263D01*
X136262422Y-44642057D01*
X136028451Y-44605000D01*
X135791549Y-44605000D01*
X135557577Y-44642057D01*
X135332275Y-44715263D01*
X135121204Y-44822810D01*
X134947385Y-44949097D01*
X134881579Y-44972577D01*
X134813525Y-44956751D01*
X134764830Y-44906646D01*
X134750500Y-44848779D01*
X134750500Y-40612332D01*
X137149500Y-40612332D01*
X137149500Y-40887667D01*
X137149501Y-40887684D01*
X137185438Y-41160655D01*
X137185439Y-41160660D01*
X137185440Y-41160666D01*
X137188145Y-41170760D01*
X137256704Y-41426630D01*
X137362075Y-41681017D01*
X137362080Y-41681028D01*
X137441809Y-41819120D01*
X137499751Y-41919479D01*
X137499753Y-41919482D01*
X137499754Y-41919483D01*
X137667370Y-42137926D01*
X137667376Y-42137933D01*
X137862066Y-42332623D01*
X137862071Y-42332627D01*
X137862072Y-42332628D01*
X138080521Y-42500249D01*
X138233778Y-42588732D01*
X138318971Y-42637919D01*
X138318976Y-42637921D01*
X138318979Y-42637923D01*
X138573368Y-42743295D01*
X138839334Y-42814560D01*
X139112326Y-42850500D01*
X139112333Y-42850500D01*
X139387667Y-42850500D01*
X139387674Y-42850500D01*
X139660666Y-42814560D01*
X139926632Y-42743295D01*
X140181021Y-42637923D01*
X140419479Y-42500249D01*
X140637928Y-42332628D01*
X140832628Y-42137928D01*
X141000249Y-41919479D01*
X141137923Y-41681021D01*
X141243295Y-41426632D01*
X141314560Y-41160666D01*
X141350500Y-40887674D01*
X141350500Y-40612331D01*
X157149500Y-40612331D01*
X157149500Y-40887666D01*
X157149501Y-40887683D01*
X157185438Y-41160654D01*
X157185439Y-41160659D01*
X157185440Y-41160665D01*
X157185441Y-41160667D01*
X157256704Y-41426629D01*
X157362075Y-41681016D01*
X157362080Y-41681027D01*
X157411028Y-41765806D01*
X157499751Y-41919478D01*
X157499752Y-41919479D01*
X157499754Y-41919482D01*
X157667370Y-42137925D01*
X157667376Y-42137932D01*
X157862066Y-42332622D01*
X157862073Y-42332628D01*
X157990403Y-42431098D01*
X158080521Y-42500248D01*
X158233778Y-42588731D01*
X158318971Y-42637918D01*
X158318976Y-42637920D01*
X158318979Y-42637922D01*
X158573368Y-42743294D01*
X158839334Y-42814559D01*
X159112326Y-42850499D01*
X159112333Y-42850499D01*
X159387667Y-42850499D01*
X159387674Y-42850499D01*
X159660666Y-42814559D01*
X159926632Y-42743294D01*
X160181021Y-42637922D01*
X160419479Y-42500248D01*
X160637928Y-42332627D01*
X160832628Y-42137927D01*
X161000249Y-41919478D01*
X161137923Y-41681020D01*
X161243295Y-41426631D01*
X161314560Y-41160665D01*
X161350500Y-40887673D01*
X161350500Y-40612325D01*
X161314560Y-40339333D01*
X161243295Y-40073367D01*
X161137923Y-39818978D01*
X161137919Y-39818971D01*
X161137919Y-39818970D01*
X161058191Y-39680879D01*
X161000249Y-39580520D01*
X160832628Y-39362071D01*
X160832623Y-39362065D01*
X160637933Y-39167375D01*
X160637926Y-39167369D01*
X160419483Y-38999753D01*
X160419480Y-38999751D01*
X160419479Y-38999750D01*
X160324407Y-38944860D01*
X160181028Y-38862079D01*
X160181017Y-38862074D01*
X159926630Y-38756703D01*
X159793649Y-38721071D01*
X159660666Y-38685439D01*
X159660660Y-38685438D01*
X159660655Y-38685437D01*
X159387684Y-38649500D01*
X159387679Y-38649499D01*
X159387674Y-38649499D01*
X159112326Y-38649499D01*
X159112320Y-38649499D01*
X159112315Y-38649500D01*
X158839344Y-38685437D01*
X158839337Y-38685438D01*
X158839334Y-38685439D01*
X158839327Y-38685441D01*
X158573369Y-38756703D01*
X158318982Y-38862074D01*
X158318971Y-38862079D01*
X158080516Y-38999753D01*
X157862073Y-39167369D01*
X157862066Y-39167375D01*
X157667376Y-39362065D01*
X157667370Y-39362072D01*
X157499754Y-39580515D01*
X157499751Y-39580519D01*
X157499751Y-39580520D01*
X157490752Y-39596105D01*
X157362080Y-39818970D01*
X157362075Y-39818981D01*
X157256704Y-40073368D01*
X157256704Y-40073369D01*
X157188145Y-40329240D01*
X157185441Y-40339330D01*
X157185438Y-40339343D01*
X157149501Y-40612314D01*
X157149500Y-40612331D01*
X141350500Y-40612331D01*
X141350500Y-40612326D01*
X141350498Y-40612314D01*
X141314561Y-40339344D01*
X141314561Y-40339343D01*
X141314560Y-40339334D01*
X141243295Y-40073368D01*
X141137923Y-39818979D01*
X141137921Y-39818976D01*
X141137919Y-39818971D01*
X141088732Y-39733778D01*
X141000249Y-39580521D01*
X140832628Y-39362072D01*
X140832627Y-39362071D01*
X140832623Y-39362066D01*
X140637933Y-39167376D01*
X140637926Y-39167370D01*
X140419483Y-38999754D01*
X140419482Y-38999753D01*
X140419479Y-38999751D01*
X140324407Y-38944861D01*
X140181028Y-38862080D01*
X140181017Y-38862075D01*
X139926630Y-38756704D01*
X139793649Y-38721072D01*
X139660666Y-38685440D01*
X139660660Y-38685439D01*
X139660655Y-38685438D01*
X139387684Y-38649501D01*
X139387679Y-38649500D01*
X139387674Y-38649500D01*
X139112326Y-38649500D01*
X139112320Y-38649500D01*
X139112315Y-38649501D01*
X138839344Y-38685438D01*
X138839337Y-38685439D01*
X138839334Y-38685440D01*
X138783125Y-38700500D01*
X138573369Y-38756704D01*
X138318982Y-38862075D01*
X138318971Y-38862080D01*
X138080516Y-38999754D01*
X137862073Y-39167370D01*
X137862066Y-39167376D01*
X137667376Y-39362066D01*
X137667370Y-39362073D01*
X137499754Y-39580516D01*
X137362080Y-39818971D01*
X137362075Y-39818982D01*
X137256704Y-40073369D01*
X137229335Y-40175513D01*
X137185441Y-40339333D01*
X137185438Y-40339344D01*
X137149501Y-40612315D01*
X137149500Y-40612332D01*
X134750500Y-40612332D01*
X134750500Y-38374500D01*
X134770185Y-38307461D01*
X134822989Y-38261706D01*
X134874500Y-38250500D01*
X163625500Y-38250500D01*
X163692539Y-38270185D01*
G37*
%TD.AperFunction*%
%TD*%
D18*
%TO.P,C5,1*%
%TO.N,-12V*%
X149450000Y-99750000D03*
%TO.P,C5,2*%
%TO.N,GND*%
X151000000Y-99750000D03*
%TD*%
D19*
%TO.P,R2,1*%
%TO.N,Net-(J1-CC2)*%
X145750000Y-55750000D03*
%TO.P,R2,2*%
%TO.N,GND*%
X142825000Y-55750000D03*
%TD*%
D20*
%TO.P,J1,A5,CC1*%
%TO.N,Net-(J1-CC1)*%
X140000000Y-49930000D03*
D21*
%TO.P,J1,A9,VBUS_1*%
%TO.N,Net-(J1-VBUS_1)*%
X140000000Y-51950000D03*
D22*
%TO.P,J1,A12,GND_1*%
%TO.N,GND*%
X140000000Y-53180000D03*
D20*
%TO.P,J1,B5,CC2*%
%TO.N,Net-(J1-CC2)*%
X140000000Y-50930000D03*
D21*
%TO.P,J1,B9,VBUS_2*%
%TO.N,Net-(J1-VBUS_1)*%
X140000000Y-48910000D03*
D22*
%TO.P,J1,B12,GND_2*%
%TO.N,GND*%
X140000000Y-47680000D03*
D10*
%TO.P,J1,MH1,MH1*%
X139710000Y-46110000D03*
%TO.P,J1,MH2,MH2*%
X139710000Y-54750000D03*
D11*
%TO.P,J1,MH3,MH3*%
X135910000Y-46110000D03*
%TO.P,J1,MH4,MH4*%
X135910000Y-54750000D03*
%TD*%
D23*
%TO.P,C2,1*%
%TO.N,+5V*%
X150475000Y-55225000D03*
%TO.P,C2,2*%
%TO.N,GND*%
X150475000Y-56775000D03*
%TD*%
D24*
%TO.P,R4,1*%
%TO.N,-12V*%
X144000000Y-95535000D03*
%TO.P,R4,2*%
%TO.N,Net-(D4-K)*%
X144000000Y-98460000D03*
%TD*%
D25*
%TO.P,C1,1*%
%TO.N,+5V*%
X153250000Y-49000000D03*
%TO.P,C1,2*%
%TO.N,GND*%
X147850000Y-49000000D03*
%TD*%
D19*
%TO.P,R1,1*%
%TO.N,Net-(J1-CC1)*%
X145750000Y-45250000D03*
%TO.P,R1,2*%
%TO.N,GND*%
X142825000Y-45250000D03*
%TD*%
D26*
%TO.P,D1,1,K*%
%TO.N,+5V*%
X152750000Y-41750000D03*
%TO.P,D1,2,A*%
%TO.N,GND*%
X148350000Y-41750000D03*
%TD*%
D24*
%TO.P,R5,1*%
%TO.N,+5V*%
X144000000Y-89825000D03*
%TO.P,R5,2*%
%TO.N,Net-(D3-A)*%
X144000000Y-92750000D03*
%TD*%
%TO.P,R3,1*%
%TO.N,+12V*%
X144000000Y-101075000D03*
%TO.P,R3,2*%
%TO.N,Net-(D2-A)*%
X144000000Y-104000000D03*
%TD*%
D27*
%TO.P,C6,1*%
%TO.N,+12V*%
X159000000Y-89800000D03*
%TO.P,C6,2*%
%TO.N,GND*%
X159000000Y-95200000D03*
%TD*%
D28*
%TO.P,C8,1*%
%TO.N,+5V*%
X143025000Y-118750000D03*
%TO.P,C8,2*%
%TO.N,GND*%
X141475000Y-118750000D03*
%TD*%
D27*
%TO.P,C4,1*%
%TO.N,-12V*%
X150250000Y-89800000D03*
%TO.P,C4,2*%
%TO.N,GND*%
X150250000Y-95200000D03*
%TD*%
D18*
%TO.P,C7,1*%
%TO.N,+12V*%
X158200000Y-99750000D03*
%TO.P,C7,2*%
%TO.N,GND*%
X159750000Y-99750000D03*
%TD*%
D29*
%TO.P,F1,1*%
%TO.N,+5V*%
X160500000Y-52612500D03*
%TO.P,F1,2*%
%TO.N,/+Vin*%
X160500000Y-56887500D03*
%TD*%
D23*
%TO.P,C3,1*%
%TO.N,+5V*%
X155250000Y-55200000D03*
%TO.P,C3,2*%
%TO.N,GND*%
X155250000Y-56750000D03*
%TD*%
D12*
%TO.P,J2,1,P1*%
%TO.N,unconnected-(J2-P1-Pad1)*%
X139970000Y-109710000D03*
%TO.P,J2,2,P2*%
%TO.N,unconnected-(J2-P2-Pad2)*%
X139970000Y-112250000D03*
%TO.P,J2,3,P3*%
%TO.N,unconnected-(J2-P3-Pad3)*%
X142510000Y-109710000D03*
%TO.P,J2,4,P4*%
%TO.N,unconnected-(J2-P4-Pad4)*%
X142510000Y-112250000D03*
%TO.P,J2,5,+12V*%
%TO.N,+5V*%
X145050000Y-109710000D03*
%TO.P,J2,6,P6*%
X145050000Y-112250000D03*
%TO.P,J2,7,12V*%
%TO.N,+12V*%
X147590000Y-109710000D03*
%TO.P,J2,8,+12V*%
X147590000Y-112250000D03*
%TO.P,J2,9,GND*%
%TO.N,GND*%
X150130000Y-109710000D03*
%TO.P,J2,10,GND*%
X150130000Y-112250000D03*
%TO.P,J2,11,GND*%
X152670000Y-109710000D03*
%TO.P,J2,12,GND*%
X152670000Y-112250000D03*
%TO.P,J2,13,-12*%
X155210000Y-109710000D03*
%TO.P,J2,14,-12V*%
X155210000Y-112250000D03*
%TO.P,J2,15,-12V*%
%TO.N,-12V*%
X157750000Y-109710000D03*
%TO.P,J2,16,P16*%
X157750000Y-112250000D03*
%TD*%
D13*
%TO.P,D2,1,K*%
%TO.N,GND*%
X137750000Y-101460000D03*
D14*
%TO.P,D2,2,A*%
%TO.N,Net-(D2-A)*%
X137750000Y-104000000D03*
%TD*%
D15*
%TO.P,J6,1,1*%
%TO.N,Net-(J1-VBUS_1)*%
X159750000Y-48750000D03*
D16*
%TO.P,J6,2,2*%
%TO.N,+5V*%
X159750000Y-46210000D03*
%TD*%
%TO.P,PS1,1,+VIN*%
%TO.N,/+Vin*%
X152000000Y-63250000D03*
%TO.P,PS1,2,-VIN*%
%TO.N,GND*%
X146920000Y-63250000D03*
%TO.P,PS1,3,+VOUT*%
%TO.N,+12V*%
X159620000Y-83570000D03*
%TO.P,PS1,4,COMMON*%
%TO.N,GND*%
X149460000Y-83570000D03*
%TO.P,PS1,5,-VOUT*%
%TO.N,-12V*%
X139300000Y-83570000D03*
%TO.P,PS1,6,R.C.*%
%TO.N,unconnected-(PS1-R.C.-Pad6)*%
X139300000Y-63250000D03*
%TD*%
D13*
%TO.P,D4,1,K*%
%TO.N,Net-(D4-K)*%
X137750000Y-95710000D03*
D14*
%TO.P,D4,2,A*%
%TO.N,GND*%
X137750000Y-98250000D03*
%TD*%
D12*
%TO.P,J3,1,P1*%
%TO.N,unconnected-(J3-P1-Pad1)*%
X139970000Y-125000000D03*
%TO.P,J3,2,P2*%
%TO.N,unconnected-(J3-P2-Pad2)*%
X139970000Y-127540000D03*
%TO.P,J3,3,P3*%
%TO.N,unconnected-(J3-P3-Pad3)*%
X142510000Y-125000000D03*
%TO.P,J3,4,P4*%
%TO.N,unconnected-(J3-P4-Pad4)*%
X142510000Y-127540000D03*
%TO.P,J3,5,+12V*%
%TO.N,+5V*%
X145050000Y-125000000D03*
%TO.P,J3,6,P6*%
X145050000Y-127540000D03*
%TO.P,J3,7,12V*%
%TO.N,+12V*%
X147590000Y-125000000D03*
%TO.P,J3,8,+12V*%
X147590000Y-127540000D03*
%TO.P,J3,9,GND*%
%TO.N,GND*%
X150130000Y-125000000D03*
%TO.P,J3,10,GND*%
X150130000Y-127540000D03*
%TO.P,J3,11,GND*%
X152670000Y-125000000D03*
%TO.P,J3,12,GND*%
X152670000Y-127540000D03*
%TO.P,J3,13,-12*%
X155210000Y-125000000D03*
%TO.P,J3,14,-12V*%
X155210000Y-127540000D03*
%TO.P,J3,15,-12V*%
%TO.N,-12V*%
X157750000Y-125000000D03*
%TO.P,J3,16,P16*%
X157750000Y-127540000D03*
%TD*%
D13*
%TO.P,D3,1,K*%
%TO.N,GND*%
X137750000Y-89960000D03*
D14*
%TO.P,D3,2,A*%
%TO.N,Net-(D3-A)*%
X137750000Y-92500000D03*
%TD*%
D17*
%TO.N,GND*%
X144500000Y-41750000D03*
X141500000Y-55750000D03*
X155210000Y-121500000D03*
X140000000Y-90000000D03*
X135910000Y-50250000D03*
X139250000Y-118750000D03*
X152500000Y-97500000D03*
X150130000Y-116250000D03*
X161500000Y-97500000D03*
X146920000Y-69000000D03*
X153000000Y-56775000D03*
X140250000Y-99750000D03*
X152670000Y-118750000D03*
X149460000Y-76500000D03*
X141500000Y-45250000D03*
X147850000Y-44750000D03*
%TD*%
D30*
%TO.N,GND*%
X150130000Y-127540000D02*
X150130000Y-125000000D01*
X146920000Y-69920000D02*
X149500000Y-72500000D01*
X161000000Y-99750000D02*
X161500000Y-99250000D01*
X152500000Y-97500000D02*
X152500000Y-95750000D01*
X150130000Y-116250000D02*
X150130000Y-112250000D01*
X152670000Y-125000000D02*
X152670000Y-127540000D01*
X141500000Y-55750000D02*
X140710000Y-55750000D01*
X149460000Y-76500000D02*
X149460000Y-83570000D01*
X150130000Y-125000000D02*
X152670000Y-125000000D01*
X152670000Y-112250000D02*
X152670000Y-118750000D01*
X149460000Y-72540000D02*
X149460000Y-76500000D01*
X140710000Y-55750000D02*
X139710000Y-54750000D01*
X152670000Y-127540000D02*
X155210000Y-127540000D01*
X161500000Y-99250000D02*
X161500000Y-97500000D01*
X155210000Y-109710000D02*
X155210000Y-112250000D01*
X140570000Y-45250000D02*
X141500000Y-45250000D01*
X141475000Y-118750000D02*
X139250000Y-118750000D01*
X147850000Y-42250000D02*
X148350000Y-41750000D01*
X161200000Y-95200000D02*
X159000000Y-95200000D01*
X142825000Y-43425000D02*
X144500000Y-41750000D01*
X140000000Y-98250000D02*
X140250000Y-98500000D01*
X152670000Y-112250000D02*
X155210000Y-112250000D01*
X147850000Y-44750000D02*
X147850000Y-42250000D01*
X150130000Y-118750000D02*
X150130000Y-116250000D01*
X150130000Y-112250000D02*
X152670000Y-112250000D01*
X140250000Y-100750000D02*
X140250000Y-99750000D01*
X152670000Y-125000000D02*
X155210000Y-125000000D01*
X152670000Y-118750000D02*
X152670000Y-125000000D01*
X142825000Y-45250000D02*
X142825000Y-43425000D01*
X155210000Y-125000000D02*
X155210000Y-121500000D01*
X153000000Y-56775000D02*
X155225000Y-56775000D01*
X152670000Y-109710000D02*
X155210000Y-109710000D01*
X139710000Y-54750000D02*
X135910000Y-54750000D01*
X151000000Y-99750000D02*
X152000000Y-99750000D01*
X150130000Y-109710000D02*
X152670000Y-109710000D01*
X161500000Y-95500000D02*
X161200000Y-95200000D01*
X140000000Y-54460000D02*
X139710000Y-54750000D01*
X151950000Y-95200000D02*
X150250000Y-95200000D01*
X149500000Y-72500000D02*
X149460000Y-72540000D01*
X135910000Y-50250000D02*
X135910000Y-46110000D01*
X155210000Y-118750000D02*
X155210000Y-112250000D01*
X137750000Y-101460000D02*
X139540000Y-101460000D01*
X140250000Y-98500000D02*
X140250000Y-99750000D01*
X155225000Y-56775000D02*
X155250000Y-56750000D01*
X139540000Y-101460000D02*
X140250000Y-100750000D01*
X140000000Y-53180000D02*
X140000000Y-54460000D01*
X139710000Y-46110000D02*
X140570000Y-45250000D01*
X152500000Y-99250000D02*
X152500000Y-97500000D01*
X155210000Y-121500000D02*
X155210000Y-118750000D01*
X135910000Y-54750000D02*
X135910000Y-50250000D01*
X147850000Y-49000000D02*
X147850000Y-44750000D01*
X137750000Y-98250000D02*
X140000000Y-98250000D01*
X150475000Y-62275000D02*
X150475000Y-56775000D01*
X159750000Y-99750000D02*
X161000000Y-99750000D01*
X152000000Y-99750000D02*
X152500000Y-99250000D01*
X139710000Y-46110000D02*
X139710000Y-47390000D01*
X139960000Y-89960000D02*
X140000000Y-90000000D01*
X146920000Y-63250000D02*
X146920000Y-69000000D01*
X146920000Y-63250000D02*
X149500000Y-63250000D01*
X161500000Y-97500000D02*
X161500000Y-95500000D01*
X149500000Y-63250000D02*
X150475000Y-62275000D01*
X150475000Y-56775000D02*
X153000000Y-56775000D01*
X144500000Y-41750000D02*
X148350000Y-41750000D01*
X152500000Y-95750000D02*
X151950000Y-95200000D01*
X150130000Y-127540000D02*
X152670000Y-127540000D01*
X141500000Y-45250000D02*
X142825000Y-45250000D01*
X142825000Y-55750000D02*
X141500000Y-55750000D01*
X137750000Y-89960000D02*
X139960000Y-89960000D01*
X150130000Y-125000000D02*
X150130000Y-118750000D01*
X139710000Y-47390000D02*
X140000000Y-47680000D01*
X152670000Y-109710000D02*
X152670000Y-112250000D01*
X155210000Y-127540000D02*
X155210000Y-125000000D01*
X146920000Y-69000000D02*
X146920000Y-69920000D01*
X150130000Y-112250000D02*
X150130000Y-109710000D01*
%TO.N,+5V*%
X144000000Y-89825000D02*
X144000000Y-88000000D01*
X145050000Y-108050000D02*
X145050000Y-109710000D01*
X159750000Y-46210000D02*
X159210000Y-46210000D01*
X147750000Y-56000000D02*
X148525000Y-55225000D01*
X135500000Y-60500000D02*
X136250000Y-59750000D01*
X155225000Y-55225000D02*
X155250000Y-55200000D01*
X136750000Y-87500000D02*
X135500000Y-86250000D01*
X147750000Y-58500000D02*
X147750000Y-56000000D01*
X145050000Y-125000000D02*
X145050000Y-127540000D01*
X160500000Y-52612500D02*
X158612500Y-52612500D01*
X144000000Y-88000000D02*
X143500000Y-87500000D01*
X153250000Y-51500000D02*
X153250000Y-49000000D01*
X145050000Y-109710000D02*
X145050000Y-112250000D01*
X154750000Y-41750000D02*
X152750000Y-41750000D01*
X136250000Y-59750000D02*
X146500000Y-59750000D01*
X157000000Y-47500000D02*
X158290000Y-46210000D01*
X148525000Y-55225000D02*
X150475000Y-55225000D01*
X135500000Y-106250000D02*
X136750000Y-107500000D01*
X158612500Y-52612500D02*
X157000000Y-51000000D01*
X144500000Y-107500000D02*
X145050000Y-108050000D01*
X143750000Y-118750000D02*
X143025000Y-118750000D01*
X145050000Y-117000000D02*
X145050000Y-125000000D01*
X157000000Y-51000000D02*
X157000000Y-47500000D01*
X155250000Y-55200000D02*
X155250000Y-53500000D01*
X145050000Y-112250000D02*
X145050000Y-117000000D01*
X143500000Y-87500000D02*
X136750000Y-87500000D01*
X158290000Y-46210000D02*
X159750000Y-46210000D01*
X146500000Y-59750000D02*
X147750000Y-58500000D01*
X150475000Y-55225000D02*
X155225000Y-55225000D01*
X135500000Y-86250000D02*
X135500000Y-106250000D01*
X153250000Y-42250000D02*
X152750000Y-41750000D01*
X155250000Y-53500000D02*
X153250000Y-51500000D01*
X159210000Y-46210000D02*
X154750000Y-41750000D01*
X145050000Y-117450000D02*
X143750000Y-118750000D01*
X136750000Y-107500000D02*
X144500000Y-107500000D01*
X135500000Y-86250000D02*
X135500000Y-60500000D01*
X145050000Y-117000000D02*
X145050000Y-117450000D01*
X153250000Y-49000000D02*
X153250000Y-42250000D01*
%TO.N,-12V*%
X157750000Y-103750000D02*
X156500000Y-102500000D01*
X139300000Y-83570000D02*
X141980000Y-86250000D01*
X148000000Y-93750000D02*
X148000000Y-90750000D01*
X146215000Y-95535000D02*
X148000000Y-93750000D01*
X141980000Y-86250000D02*
X149500000Y-86250000D01*
X157750000Y-112250000D02*
X157750000Y-125000000D01*
X141750000Y-100500000D02*
X142500000Y-99750000D01*
X156500000Y-102500000D02*
X142250000Y-102500000D01*
X148000000Y-97000000D02*
X148000000Y-93750000D01*
X148950000Y-89800000D02*
X150250000Y-89800000D01*
X150250000Y-87000000D02*
X150250000Y-89800000D01*
X157750000Y-109710000D02*
X157750000Y-103750000D01*
X142500000Y-99750000D02*
X149450000Y-99750000D01*
X144000000Y-95535000D02*
X146215000Y-95535000D01*
X149450000Y-98450000D02*
X148000000Y-97000000D01*
X142250000Y-102500000D02*
X141750000Y-102000000D01*
X149450000Y-99750000D02*
X149450000Y-98450000D01*
X157750000Y-127540000D02*
X157750000Y-125000000D01*
X141750000Y-102000000D02*
X141750000Y-100500000D01*
X157750000Y-112250000D02*
X157750000Y-109710000D01*
X148000000Y-90750000D02*
X148950000Y-89800000D01*
X149500000Y-86250000D02*
X150250000Y-87000000D01*
%TO.N,+12V*%
X155675000Y-101075000D02*
X156750000Y-100000000D01*
X156750000Y-92050000D02*
X156750000Y-97250000D01*
X148750000Y-130000000D02*
X159000000Y-130000000D01*
X144000000Y-101075000D02*
X155675000Y-101075000D01*
X160250000Y-128750000D02*
X160250000Y-104250000D01*
X158200000Y-98700000D02*
X158200000Y-99750000D01*
X158200000Y-102200000D02*
X158200000Y-99750000D01*
X147590000Y-125000000D02*
X147590000Y-112250000D01*
X159000000Y-89800000D02*
X156750000Y-92050000D01*
X160250000Y-104250000D02*
X158200000Y-102200000D01*
X156750000Y-100000000D02*
X156750000Y-97250000D01*
X147590000Y-112250000D02*
X147590000Y-109710000D01*
X147590000Y-127540000D02*
X147590000Y-125000000D01*
X147590000Y-127540000D02*
X147590000Y-128840000D01*
X159000000Y-89800000D02*
X159000000Y-86000000D01*
X159000000Y-130000000D02*
X160250000Y-128750000D01*
X159620000Y-83570000D02*
X159620000Y-85380000D01*
X159000000Y-86000000D02*
X159620000Y-85380000D01*
X147590000Y-128840000D02*
X148750000Y-130000000D01*
X156750000Y-97250000D02*
X158200000Y-98700000D01*
%TO.N,Net-(D2-A)*%
X144000000Y-104000000D02*
X137750000Y-104000000D01*
%TO.N,Net-(D3-A)*%
X144000000Y-92750000D02*
X138000000Y-92750000D01*
X138000000Y-92750000D02*
X137750000Y-92500000D01*
%TO.N,Net-(D4-K)*%
X140210000Y-95710000D02*
X137750000Y-95710000D01*
X144000000Y-98460000D02*
X142960000Y-98460000D01*
X142960000Y-98460000D02*
X140210000Y-95710000D01*
%TO.N,Net-(J1-CC2)*%
X143180000Y-50930000D02*
X145750000Y-53500000D01*
X145750000Y-53500000D02*
X145750000Y-55750000D01*
X140000000Y-50930000D02*
X143180000Y-50930000D01*
%TO.N,Net-(J1-VBUS_1)*%
X138450000Y-51950000D02*
X140000000Y-51950000D01*
X162250000Y-48000000D02*
X162250000Y-44750000D01*
X140000000Y-48910000D02*
X138910000Y-48910000D01*
X137750000Y-44500000D02*
X137750000Y-47750000D01*
X137750000Y-51250000D02*
X138450000Y-51950000D01*
X160750000Y-43250000D02*
X157750000Y-43250000D01*
X157750000Y-43250000D02*
X156250000Y-41750000D01*
X138500000Y-43750000D02*
X137750000Y-44500000D01*
X161500000Y-48750000D02*
X162250000Y-48000000D01*
X155500000Y-39000000D02*
X144750000Y-39000000D01*
X137750000Y-47750000D02*
X137750000Y-51250000D01*
X162250000Y-44750000D02*
X160750000Y-43250000D01*
X156250000Y-39750000D02*
X155500000Y-39000000D01*
X144750000Y-39000000D02*
X144000000Y-39750000D01*
X144000000Y-40250000D02*
X144000000Y-39750000D01*
X159750000Y-48750000D02*
X161500000Y-48750000D01*
X138910000Y-48910000D02*
X137750000Y-47750000D01*
X140500000Y-43750000D02*
X138500000Y-43750000D01*
X140500000Y-43750000D02*
X144000000Y-40250000D01*
X156250000Y-41750000D02*
X156250000Y-39750000D01*
%TO.N,Net-(J1-CC1)*%
X145750000Y-47250000D02*
X145750000Y-45250000D01*
X140000000Y-49930000D02*
X143070000Y-49930000D01*
X143070000Y-49930000D02*
X145750000Y-47250000D01*
%TO.N,/+Vin*%
X160500000Y-56887500D02*
X158362500Y-56887500D01*
X158362500Y-56887500D02*
X152000000Y-63250000D01*
%TD*%
M02*
