M48
; DRILL file {KiCad 9.0.6} date 2026-01-15T19:23:35+0200
; FORMAT={-:-/ absolute / metric / decimal}
; #@! TF.CreationDate,2026-01-15T19:23:35+02:00
; #@! TF.GenerationSoftware,Kicad,Pcbnew,9.0.6
; #@! TF.FileFunction,Plated,1,2,PTH
FMAT,2
METRIC
; #@! TA.AperFunction,Plated,PTH,ViaDrill
T1C0.300
; #@! TA.AperFunction,Plated,PTH,ComponentDrill
T2C0.900
; #@! TA.AperFunction,Plated,PTH,ComponentDrill
T3C1.300
; #@! TA.AperFunction,Plated,PTH,ComponentDrill
T4C1.340
%
G90
G05
T1
X135.91Y-50.25
X139.25Y-118.75
X140.0Y-90.0
X140.25Y-99.75
X141.5Y-45.25
X141.5Y-55.75
X144.5Y-41.75
X146.92Y-69.0
X147.85Y-44.75
X149.46Y-76.5
X150.13Y-116.25
X152.5Y-97.5
X152.67Y-118.75
X153.0Y-56.775
X155.21Y-121.5
X161.5Y-97.5
T2
X137.75Y-89.96
X137.75Y-92.5
X137.75Y-95.71
X137.75Y-98.25
X137.75Y-101.46
X137.75Y-104.0
X139.97Y-109.71
X139.97Y-112.25
X139.97Y-125.0
X139.97Y-127.54
X142.51Y-109.71
X142.51Y-112.25
X142.51Y-125.0
X142.51Y-127.54
X145.05Y-109.71
X145.05Y-112.25
X145.05Y-125.0
X145.05Y-127.54
X147.59Y-109.71
X147.59Y-112.25
X147.59Y-125.0
X147.59Y-127.54
X150.13Y-109.71
X150.13Y-112.25
X150.13Y-125.0
X150.13Y-127.54
X152.67Y-109.71
X152.67Y-112.25
X152.67Y-125.0
X152.67Y-127.54
X155.21Y-109.71
X155.21Y-112.25
X155.21Y-125.0
X155.21Y-127.54
X157.75Y-109.71
X157.75Y-112.25
X157.75Y-125.0
X157.75Y-127.54
T3
X139.3Y-63.25
X139.3Y-83.57
X146.92Y-63.25
X149.46Y-83.57
X152.0Y-63.25
X159.62Y-83.57
X159.75Y-46.21
X159.75Y-48.75
T4
X135.91Y-46.11
X135.91Y-54.75
X139.71Y-46.11
X139.71Y-54.75
M30
