%TF.GenerationSoftware,KiCad,Pcbnew,9.0.6*%
%TF.CreationDate,2026-01-15T19:23:28+02:00*%
%TF.ProjectId,V3.0,56332e30-2e6b-4696-9361-645f70636258,3*%
%TF.SameCoordinates,Original*%
%TF.FileFunction,Legend,Bot*%
%TF.FilePolarity,Positive*%
%FSLAX46Y46*%
G04 Gerber Fmt 4.6, Leading zero omitted, Abs format (unit mm)*
G04 Created by KiCad (PCBNEW 9.0.6) date 2026-01-15 19:23:28*
%MOMM*%
%LPD*%
G01*
G04 APERTURE LIST*
G04 Aperture macros list*
%AMRoundRect*
0 Rectangle with rounded corners*
0 $1 Rounding radius*
0 $2 $3 $4 $5 $6 $7 $8 $9 X,Y pos of 4 corners*
0 Add a 4 corners polygon primitive as box body*
4,1,4,$2,$3,$4,$5,$6,$7,$8,$9,$2,$3,0*
0 Add four circle primitives for the rounded corners*
1,1,$1+$1,$2,$3*
1,1,$1+$1,$4,$5*
1,1,$1+$1,$6,$7*
1,1,$1+$1,$8,$9*
0 Add four rect primitives between the rounded corners*
20,1,$1+$1,$2,$3,$4,$5,0*
20,1,$1+$1,$4,$5,$6,$7,0*
20,1,$1+$1,$6,$7,$8,$9,0*
20,1,$1+$1,$8,$9,$2,$3,0*%
G04 Aperture macros list end*
%ADD10C,0.300000*%
%ADD11C,0.200000*%
%ADD12C,0.250000*%
%ADD13C,0.101600*%
%ADD14C,0.150000*%
%ADD15C,0.254000*%
%ADD16C,0.127000*%
%ADD17C,1.000000*%
%ADD18C,0.635000*%
%ADD19C,0.120000*%
%ADD20C,0.100000*%
%ADD21C,0.000000*%
%TA.AperFunction,ComponentPad*%
%ADD22C,1.700000*%
%TD*%
%TA.AperFunction,ComponentPad*%
%ADD23C,2.010000*%
%TD*%
%TA.AperFunction,ComponentPad*%
%ADD24C,1.651000*%
%TD*%
%TA.AperFunction,ComponentPad*%
%ADD25R,1.800000X1.800000*%
%TD*%
%TA.AperFunction,ComponentPad*%
%ADD26C,1.800000*%
%TD*%
%TA.AperFunction,ComponentPad*%
%ADD27R,1.950000X1.950000*%
%TD*%
%TA.AperFunction,ComponentPad*%
%ADD28C,1.950000*%
%TD*%
%TA.AperFunction,ViaPad*%
%ADD29C,0.600000*%
%TD*%
%TA.AperFunction,SMDPad,CuDef*%
%ADD30RoundRect,0.225000X-0.225000X-0.250000X0.225000X-0.250000X0.225000X0.250000X-0.225000X0.250000X0*%
%TD*%
%TA.AperFunction,SMDPad,CuDef*%
%ADD31RoundRect,0.250000X0.312500X0.625000X-0.312500X0.625000X-0.312500X-0.625000X0.312500X-0.625000X0*%
%TD*%
%TA.AperFunction,SMDPad,CuDef*%
%ADD32R,1.400000X0.700000*%
%TD*%
%TA.AperFunction,SMDPad,CuDef*%
%ADD33R,1.400000X0.760000*%
%TD*%
%TA.AperFunction,SMDPad,CuDef*%
%ADD34R,1.400000X0.800000*%
%TD*%
%TA.AperFunction,SMDPad,CuDef*%
%ADD35RoundRect,0.225000X-0.250000X0.225000X-0.250000X-0.225000X0.250000X-0.225000X0.250000X0.225000X0*%
%TD*%
%TA.AperFunction,SMDPad,CuDef*%
%ADD36RoundRect,0.250000X-0.625000X0.312500X-0.625000X-0.312500X0.625000X-0.312500X0.625000X0.312500X0*%
%TD*%
%TA.AperFunction,SMDPad,CuDef*%
%ADD37RoundRect,0.250000X1.500000X0.550000X-1.500000X0.550000X-1.500000X-0.550000X1.500000X-0.550000X0*%
%TD*%
%TA.AperFunction,SMDPad,CuDef*%
%ADD38R,2.200000X2.150000*%
%TD*%
%TA.AperFunction,SMDPad,CuDef*%
%ADD39RoundRect,0.250000X-0.550000X1.500000X-0.550000X-1.500000X0.550000X-1.500000X0.550000X1.500000X0*%
%TD*%
%TA.AperFunction,SMDPad,CuDef*%
%ADD40RoundRect,0.225000X0.225000X0.250000X-0.225000X0.250000X-0.225000X-0.250000X0.225000X-0.250000X0*%
%TD*%
%TA.AperFunction,SMDPad,CuDef*%
%ADD41RoundRect,0.250000X-1.450000X0.312500X-1.450000X-0.312500X1.450000X-0.312500X1.450000X0.312500X0*%
%TD*%
%TA.AperFunction,Conductor*%
%ADD42C,0.500000*%
%TD*%
G04 APERTURE END LIST*
D10*
G36*
X153735519Y-47075000D02*
G01*
X153287486Y-44427407D01*
X152608491Y-44427407D01*
X152080010Y-45838978D01*
X151555041Y-44427407D01*
X150876046Y-44427407D01*
X150428013Y-47075000D01*
X151110519Y-47075000D01*
X151338123Y-45551077D01*
X151961095Y-47075000D01*
X152234036Y-47075000D01*
X152825562Y-45551077D01*
X153053013Y-47075000D01*
X153735519Y-47075000D01*
G37*
G36*
X149313502Y-44427407D02*
G01*
X149313502Y-47075000D01*
X149997382Y-47075000D01*
X149997382Y-44427407D01*
X149313502Y-44427407D01*
G37*
G36*
X148759071Y-47075000D02*
G01*
X148759071Y-44427407D01*
X148075191Y-44427407D01*
X146805128Y-46046127D01*
X146805128Y-44427407D01*
X146121248Y-44427407D01*
X146121248Y-47075000D01*
X146805128Y-47075000D01*
X148075191Y-45456280D01*
X148075191Y-47075000D01*
X148759071Y-47075000D01*
G37*
G36*
X144887822Y-44427407D02*
G01*
X144887822Y-47075000D01*
X145571702Y-47075000D01*
X145571702Y-44427407D01*
X144887822Y-44427407D01*
G37*
D11*
X154832143Y-98950552D02*
X154832143Y-99617219D01*
X154832143Y-99045790D02*
X154760714Y-98998171D01*
X154760714Y-98998171D02*
X154617857Y-98950552D01*
X154617857Y-98950552D02*
X154403571Y-98950552D01*
X154403571Y-98950552D02*
X154260714Y-98998171D01*
X154260714Y-98998171D02*
X154189286Y-99093409D01*
X154189286Y-99093409D02*
X154189286Y-99617219D01*
X152832143Y-99617219D02*
X152832143Y-99093409D01*
X152832143Y-99093409D02*
X152903571Y-98998171D01*
X152903571Y-98998171D02*
X153046428Y-98950552D01*
X153046428Y-98950552D02*
X153332143Y-98950552D01*
X153332143Y-98950552D02*
X153475000Y-98998171D01*
X152832143Y-99569600D02*
X152975000Y-99617219D01*
X152975000Y-99617219D02*
X153332143Y-99617219D01*
X153332143Y-99617219D02*
X153475000Y-99569600D01*
X153475000Y-99569600D02*
X153546428Y-99474361D01*
X153546428Y-99474361D02*
X153546428Y-99379123D01*
X153546428Y-99379123D02*
X153475000Y-99283885D01*
X153475000Y-99283885D02*
X153332143Y-99236266D01*
X153332143Y-99236266D02*
X152975000Y-99236266D01*
X152975000Y-99236266D02*
X152832143Y-99188647D01*
X152117857Y-98950552D02*
X152117857Y-99617219D01*
X152117857Y-99045790D02*
X152046428Y-98998171D01*
X152046428Y-98998171D02*
X151903571Y-98950552D01*
X151903571Y-98950552D02*
X151689285Y-98950552D01*
X151689285Y-98950552D02*
X151546428Y-98998171D01*
X151546428Y-98998171D02*
X151475000Y-99093409D01*
X151475000Y-99093409D02*
X151475000Y-99617219D01*
X150117857Y-99617219D02*
X150117857Y-99093409D01*
X150117857Y-99093409D02*
X150189285Y-98998171D01*
X150189285Y-98998171D02*
X150332142Y-98950552D01*
X150332142Y-98950552D02*
X150617857Y-98950552D01*
X150617857Y-98950552D02*
X150760714Y-98998171D01*
X150117857Y-99569600D02*
X150260714Y-99617219D01*
X150260714Y-99617219D02*
X150617857Y-99617219D01*
X150617857Y-99617219D02*
X150760714Y-99569600D01*
X150760714Y-99569600D02*
X150832142Y-99474361D01*
X150832142Y-99474361D02*
X150832142Y-99379123D01*
X150832142Y-99379123D02*
X150760714Y-99283885D01*
X150760714Y-99283885D02*
X150617857Y-99236266D01*
X150617857Y-99236266D02*
X150260714Y-99236266D01*
X150260714Y-99236266D02*
X150117857Y-99188647D01*
X149474999Y-99569600D02*
X149332142Y-99617219D01*
X149332142Y-99617219D02*
X149046428Y-99617219D01*
X149046428Y-99617219D02*
X148903571Y-99569600D01*
X148903571Y-99569600D02*
X148832142Y-99474361D01*
X148832142Y-99474361D02*
X148832142Y-99426742D01*
X148832142Y-99426742D02*
X148903571Y-99331504D01*
X148903571Y-99331504D02*
X149046428Y-99283885D01*
X149046428Y-99283885D02*
X149260714Y-99283885D01*
X149260714Y-99283885D02*
X149403571Y-99236266D01*
X149403571Y-99236266D02*
X149474999Y-99141028D01*
X149474999Y-99141028D02*
X149474999Y-99093409D01*
X149474999Y-99093409D02*
X149403571Y-98998171D01*
X149403571Y-98998171D02*
X149260714Y-98950552D01*
X149260714Y-98950552D02*
X149046428Y-98950552D01*
X149046428Y-98950552D02*
X148903571Y-98998171D01*
X148189285Y-99521980D02*
X148117856Y-99569600D01*
X148117856Y-99569600D02*
X148189285Y-99617219D01*
X148189285Y-99617219D02*
X148260713Y-99569600D01*
X148260713Y-99569600D02*
X148189285Y-99521980D01*
X148189285Y-99521980D02*
X148189285Y-99617219D01*
X146903570Y-99569600D02*
X147046427Y-99617219D01*
X147046427Y-99617219D02*
X147332142Y-99617219D01*
X147332142Y-99617219D02*
X147474999Y-99569600D01*
X147474999Y-99569600D02*
X147546427Y-99474361D01*
X147546427Y-99474361D02*
X147546427Y-99093409D01*
X147546427Y-99093409D02*
X147474999Y-98998171D01*
X147474999Y-98998171D02*
X147332142Y-98950552D01*
X147332142Y-98950552D02*
X147046427Y-98950552D01*
X147046427Y-98950552D02*
X146903570Y-98998171D01*
X146903570Y-98998171D02*
X146832142Y-99093409D01*
X146832142Y-99093409D02*
X146832142Y-99188647D01*
X146832142Y-99188647D02*
X147546427Y-99283885D01*
X145617856Y-99569600D02*
X145760713Y-99617219D01*
X145760713Y-99617219D02*
X146046428Y-99617219D01*
X146046428Y-99617219D02*
X146189285Y-99569600D01*
X146189285Y-99569600D02*
X146260713Y-99474361D01*
X146260713Y-99474361D02*
X146260713Y-99093409D01*
X146260713Y-99093409D02*
X146189285Y-98998171D01*
X146189285Y-98998171D02*
X146046428Y-98950552D01*
X146046428Y-98950552D02*
X145760713Y-98950552D01*
X145760713Y-98950552D02*
X145617856Y-98998171D01*
X145617856Y-98998171D02*
X145546428Y-99093409D01*
X145546428Y-99093409D02*
X145546428Y-99188647D01*
X145546428Y-99188647D02*
X146260713Y-99283885D01*
D12*
G36*
X153040718Y-48325436D02*
G01*
X153367027Y-48325436D01*
X153367027Y-48501290D01*
X153058304Y-48501290D01*
X153058304Y-48735764D01*
X153367027Y-48735764D01*
X153367027Y-48915526D01*
X153040718Y-48915526D01*
X153040718Y-49150000D01*
X153640579Y-49150000D01*
X153640579Y-48090963D01*
X153040718Y-48090963D01*
X153040718Y-48325436D01*
G37*
G36*
X152612805Y-48430949D02*
G01*
X152612805Y-48836819D01*
X152606935Y-48887676D01*
X152591270Y-48923579D01*
X152566890Y-48948535D01*
X152532310Y-48964356D01*
X152483845Y-48970237D01*
X152435379Y-48964356D01*
X152400799Y-48948535D01*
X152376419Y-48923579D01*
X152360755Y-48887676D01*
X152354884Y-48836819D01*
X152354884Y-48430949D01*
X152100872Y-48430949D01*
X152100872Y-48885484D01*
X152107514Y-48957170D01*
X152126138Y-49015952D01*
X152155805Y-49064439D01*
X152196981Y-49104387D01*
X152245991Y-49133993D01*
X152308129Y-49156830D01*
X152386278Y-49171860D01*
X152483845Y-49177355D01*
X152581411Y-49171860D01*
X152659560Y-49156830D01*
X152721698Y-49133993D01*
X152770708Y-49104387D01*
X152811884Y-49064439D01*
X152841551Y-49015952D01*
X152860175Y-48957170D01*
X152866817Y-48885484D01*
X152866817Y-48430949D01*
X152612805Y-48430949D01*
G37*
G36*
X151930879Y-48430949D02*
G01*
X151676866Y-48430949D01*
X151676866Y-48549467D01*
X151647187Y-48508757D01*
X151614176Y-48475851D01*
X151577643Y-48449938D01*
X151537194Y-48431021D01*
X151491840Y-48419364D01*
X151440561Y-48415317D01*
X151418885Y-48415317D01*
X151391591Y-48418187D01*
X151391591Y-48662124D01*
X151443775Y-48643322D01*
X151500706Y-48636967D01*
X151557074Y-48643416D01*
X151600044Y-48661155D01*
X151632841Y-48689419D01*
X151656054Y-48726897D01*
X151671242Y-48776720D01*
X151676866Y-48842498D01*
X151676866Y-49150000D01*
X151930879Y-49150000D01*
X151930879Y-48430949D01*
G37*
G36*
X150931972Y-48406992D02*
G01*
X150989341Y-48416911D01*
X151042751Y-48433086D01*
X151117110Y-48468483D01*
X151179099Y-48513869D01*
X151230119Y-48569689D01*
X151268553Y-48634586D01*
X151286351Y-48681816D01*
X151297093Y-48731477D01*
X151300732Y-48784124D01*
X151297012Y-48842454D01*
X151286189Y-48895826D01*
X151268553Y-48944958D01*
X151244218Y-48991169D01*
X151214687Y-49032443D01*
X151179771Y-49069216D01*
X151140119Y-49100838D01*
X151095349Y-49127514D01*
X151044888Y-49149267D01*
X150964137Y-49170153D01*
X150874223Y-49177355D01*
X150782858Y-49170169D01*
X150700139Y-49149267D01*
X150648213Y-49127498D01*
X150602532Y-49101027D01*
X150562447Y-49069888D01*
X150511320Y-49013861D01*
X150472260Y-48947766D01*
X150454171Y-48899535D01*
X150443129Y-48847577D01*
X150439349Y-48791207D01*
X150439445Y-48789741D01*
X150706734Y-48789741D01*
X150710098Y-48823930D01*
X150719984Y-48855137D01*
X150735455Y-48883612D01*
X150754911Y-48907894D01*
X150778498Y-48927860D01*
X150806568Y-48943065D01*
X150837311Y-48952523D01*
X150870010Y-48955704D01*
X150902718Y-48952524D01*
X150933513Y-48943065D01*
X150961543Y-48927867D01*
X150985170Y-48907894D01*
X151004591Y-48883618D01*
X151020097Y-48855137D01*
X151029951Y-48823746D01*
X151033347Y-48788337D01*
X151030001Y-48755525D01*
X151020097Y-48725139D01*
X151004631Y-48697224D01*
X150985170Y-48673054D01*
X150961543Y-48653081D01*
X150933513Y-48637883D01*
X150902718Y-48628424D01*
X150870010Y-48625244D01*
X150837311Y-48628425D01*
X150806568Y-48637883D01*
X150778498Y-48653088D01*
X150754911Y-48673054D01*
X150735455Y-48697336D01*
X150719984Y-48725811D01*
X150710063Y-48756824D01*
X150706734Y-48789741D01*
X150439445Y-48789741D01*
X150443050Y-48734765D01*
X150453853Y-48682783D01*
X150471528Y-48634586D01*
X150495920Y-48589400D01*
X150525892Y-48548826D01*
X150561714Y-48512465D01*
X150624285Y-48467210D01*
X150698735Y-48432414D01*
X150780099Y-48410964D01*
X150870071Y-48403593D01*
X150931972Y-48406992D01*
G37*
G36*
X150293475Y-48430949D02*
G01*
X150039462Y-48430949D01*
X150039462Y-48549467D01*
X150009783Y-48508757D01*
X149976772Y-48475851D01*
X149940239Y-48449938D01*
X149899790Y-48431021D01*
X149854436Y-48419364D01*
X149803157Y-48415317D01*
X149781481Y-48415317D01*
X149754187Y-48418187D01*
X149754187Y-48662124D01*
X149806371Y-48643322D01*
X149863302Y-48636967D01*
X149919670Y-48643416D01*
X149962640Y-48661155D01*
X149995437Y-48689419D01*
X150018650Y-48726897D01*
X150033838Y-48776720D01*
X150039462Y-48842498D01*
X150039462Y-49150000D01*
X150293475Y-49150000D01*
X150293475Y-48430949D01*
G37*
G36*
X149353178Y-48410978D02*
G01*
X149401488Y-48421124D01*
X149446257Y-48437726D01*
X149507703Y-48473537D01*
X149559647Y-48519975D01*
X149601727Y-48575925D01*
X149633836Y-48641486D01*
X149653696Y-48712638D01*
X149660397Y-48788337D01*
X149653413Y-48869042D01*
X149633103Y-48941599D01*
X149600144Y-49007664D01*
X149556838Y-49063843D01*
X149503708Y-49109993D01*
X149442105Y-49144626D01*
X149373907Y-49166087D01*
X149297880Y-49173447D01*
X149230713Y-49166699D01*
X149172871Y-49147320D01*
X149122419Y-49115591D01*
X149078122Y-49070437D01*
X149078122Y-49150000D01*
X148824110Y-49150000D01*
X148824110Y-48791207D01*
X149069696Y-48791207D01*
X149073070Y-48824084D01*
X149083068Y-48854588D01*
X149098617Y-48882504D01*
X149118239Y-48906734D01*
X149141953Y-48926709D01*
X149170202Y-48941966D01*
X149201187Y-48951424D01*
X149234132Y-48954605D01*
X149268297Y-48951392D01*
X149299467Y-48941966D01*
X149327727Y-48926711D01*
X149351491Y-48906734D01*
X149370873Y-48882366D01*
X149385929Y-48853855D01*
X149395354Y-48822616D01*
X149398569Y-48788337D01*
X149395356Y-48755529D01*
X149385929Y-48725689D01*
X149370950Y-48698319D01*
X149351491Y-48674214D01*
X149327725Y-48654250D01*
X149299467Y-48639043D01*
X149268294Y-48629571D01*
X149234132Y-48626343D01*
X149201190Y-48629539D01*
X149170202Y-48639043D01*
X149141955Y-48654253D01*
X149118239Y-48674214D01*
X149098663Y-48698510D01*
X149083068Y-48727032D01*
X149073058Y-48758128D01*
X149069696Y-48791207D01*
X148824110Y-48791207D01*
X148824110Y-48430949D01*
X149078122Y-48430949D01*
X149078122Y-48502145D01*
X149125258Y-48460624D01*
X149177297Y-48431398D01*
X149235274Y-48413632D01*
X149300689Y-48407501D01*
X149353178Y-48410978D01*
G37*
G36*
X148108967Y-48663590D02*
G01*
X148154703Y-48637924D01*
X148199050Y-48623286D01*
X148242873Y-48618527D01*
X148278622Y-48621743D01*
X148311261Y-48631167D01*
X148341097Y-48646507D01*
X148366948Y-48667070D01*
X148388189Y-48692339D01*
X148404317Y-48722025D01*
X148414232Y-48755051D01*
X148417690Y-48793161D01*
X148414265Y-48829991D01*
X148404317Y-48862831D01*
X148388323Y-48892554D01*
X148367620Y-48917725D01*
X148342272Y-48938178D01*
X148311994Y-48953628D01*
X148278722Y-48963113D01*
X148242873Y-48966329D01*
X148196614Y-48960987D01*
X148152314Y-48944877D01*
X148108967Y-48917053D01*
X148108967Y-49132841D01*
X148172609Y-49156020D01*
X148231698Y-49169215D01*
X148287020Y-49173447D01*
X148363899Y-49166718D01*
X148436313Y-49146763D01*
X148503101Y-49114146D01*
X148561060Y-49070193D01*
X148609386Y-49015646D01*
X148647278Y-48950697D01*
X148664953Y-48903326D01*
X148675792Y-48851810D01*
X148679518Y-48795420D01*
X148675964Y-48738881D01*
X148665602Y-48686849D01*
X148648682Y-48638677D01*
X148612012Y-48572303D01*
X148564602Y-48516434D01*
X148506737Y-48471082D01*
X148437718Y-48436322D01*
X148362064Y-48414813D01*
X148280059Y-48407501D01*
X148219293Y-48411969D01*
X148162511Y-48425121D01*
X148108967Y-48446885D01*
X148108967Y-48663590D01*
G37*
G36*
X147677145Y-47985450D02*
G01*
X147677145Y-48690273D01*
X147411165Y-48430949D01*
X147063974Y-48430949D01*
X147423804Y-48763119D01*
X147042969Y-49150000D01*
X147398586Y-49150000D01*
X147677145Y-48857030D01*
X147677145Y-49150000D01*
X147931158Y-49150000D01*
X147931158Y-47985450D01*
X147677145Y-47985450D01*
G37*
G36*
X146454954Y-49148046D02*
G01*
X146181402Y-49148046D01*
X146181402Y-48798290D01*
X146019469Y-48798290D01*
X145930783Y-48791694D01*
X145857767Y-48773306D01*
X145797590Y-48744511D01*
X145748054Y-48705661D01*
X145708158Y-48656681D01*
X145678914Y-48598220D01*
X145660423Y-48528374D01*
X145653838Y-48444626D01*
X145939113Y-48444626D01*
X145945458Y-48493166D01*
X145962749Y-48528369D01*
X145990588Y-48553726D01*
X146031499Y-48570340D01*
X146090361Y-48576639D01*
X146181402Y-48576639D01*
X146181402Y-48312613D01*
X146090361Y-48312613D01*
X146031499Y-48318912D01*
X145990588Y-48335526D01*
X145962749Y-48360883D01*
X145945458Y-48396086D01*
X145939113Y-48444626D01*
X145653838Y-48444626D01*
X145660423Y-48360878D01*
X145678914Y-48291033D01*
X145708158Y-48232572D01*
X145748054Y-48183592D01*
X145797590Y-48144741D01*
X145857767Y-48115946D01*
X145930783Y-48097559D01*
X146019469Y-48090963D01*
X146454954Y-48090963D01*
X146454954Y-49148046D01*
G37*
G36*
X145208873Y-48406992D02*
G01*
X145266243Y-48416911D01*
X145319652Y-48433086D01*
X145394012Y-48468483D01*
X145456001Y-48513869D01*
X145507021Y-48569689D01*
X145545455Y-48634586D01*
X145563253Y-48681816D01*
X145573994Y-48731477D01*
X145577634Y-48784124D01*
X145573914Y-48842454D01*
X145563091Y-48895826D01*
X145545455Y-48944958D01*
X145521120Y-48991169D01*
X145491589Y-49032443D01*
X145456673Y-49069216D01*
X145417021Y-49100838D01*
X145372251Y-49127514D01*
X145321789Y-49149267D01*
X145241039Y-49170153D01*
X145151125Y-49177355D01*
X145059759Y-49170169D01*
X144977041Y-49149267D01*
X144925115Y-49127498D01*
X144879434Y-49101027D01*
X144839349Y-49069888D01*
X144788222Y-49013861D01*
X144749162Y-48947766D01*
X144731073Y-48899535D01*
X144720031Y-48847577D01*
X144716250Y-48791207D01*
X144716346Y-48789741D01*
X144983635Y-48789741D01*
X144986999Y-48823930D01*
X144996885Y-48855137D01*
X145012357Y-48883612D01*
X145031812Y-48907894D01*
X145055399Y-48927860D01*
X145083469Y-48943065D01*
X145114213Y-48952523D01*
X145146912Y-48955704D01*
X145179619Y-48952524D01*
X145210415Y-48943065D01*
X145238444Y-48927867D01*
X145262072Y-48907894D01*
X145281493Y-48883618D01*
X145296999Y-48855137D01*
X145306852Y-48823746D01*
X145310249Y-48788337D01*
X145306903Y-48755525D01*
X145296999Y-48725139D01*
X145281533Y-48697224D01*
X145262072Y-48673054D01*
X145238444Y-48653081D01*
X145210415Y-48637883D01*
X145179619Y-48628424D01*
X145146912Y-48625244D01*
X145114213Y-48628425D01*
X145083469Y-48637883D01*
X145055399Y-48653088D01*
X145031812Y-48673054D01*
X145012357Y-48697336D01*
X144996885Y-48725811D01*
X144986965Y-48756824D01*
X144983635Y-48789741D01*
X144716346Y-48789741D01*
X144719951Y-48734765D01*
X144730755Y-48682783D01*
X144748429Y-48634586D01*
X144772821Y-48589400D01*
X144802794Y-48548826D01*
X144838616Y-48512465D01*
X144901186Y-48467210D01*
X144975636Y-48432414D01*
X145057000Y-48410964D01*
X145146973Y-48403593D01*
X145208873Y-48406992D01*
G37*
G36*
X144410703Y-48430949D02*
G01*
X144238450Y-48809403D01*
X144059298Y-48430949D01*
X143899685Y-48430949D01*
X143720472Y-48820638D01*
X143539855Y-48430949D01*
X143258487Y-48430949D01*
X143633705Y-49150000D01*
X143803087Y-49150000D01*
X143982301Y-48756158D01*
X144153087Y-49150000D01*
X144325279Y-49150000D01*
X144693475Y-48430949D01*
X144410703Y-48430949D01*
G37*
G36*
X142924331Y-48410730D02*
G01*
X143000872Y-48431010D01*
X143069520Y-48464547D01*
X143126107Y-48508923D01*
X143157707Y-48544675D01*
X143184281Y-48585437D01*
X143205914Y-48631777D01*
X143221158Y-48680719D01*
X143230609Y-48734563D01*
X143233879Y-48794016D01*
X143230461Y-48851433D01*
X143220556Y-48903609D01*
X143204509Y-48951247D01*
X143168819Y-49016773D01*
X143121222Y-49072025D01*
X143062609Y-49116344D01*
X142991774Y-49149938D01*
X142913557Y-49170293D01*
X142825200Y-49177355D01*
X142738965Y-49171478D01*
X142666893Y-49155022D01*
X142606612Y-49129222D01*
X142556211Y-49094546D01*
X142514345Y-49050668D01*
X142480342Y-48996493D01*
X142454256Y-48930242D01*
X142698377Y-48930242D01*
X142722060Y-48959940D01*
X142750007Y-48980582D01*
X142783011Y-48993175D01*
X142822513Y-48997592D01*
X142871502Y-48992569D01*
X142908644Y-48978879D01*
X142936745Y-48957461D01*
X142957447Y-48927677D01*
X142970947Y-48887425D01*
X142975959Y-48833461D01*
X142444487Y-48833461D01*
X142444487Y-48806777D01*
X142451424Y-48715615D01*
X142459150Y-48684961D01*
X142680242Y-48684961D01*
X142968998Y-48684961D01*
X142959052Y-48649511D01*
X142943457Y-48621092D01*
X142922287Y-48598438D01*
X142896079Y-48581775D01*
X142864673Y-48571402D01*
X142826727Y-48567725D01*
X142790679Y-48571446D01*
X142759409Y-48582176D01*
X142731899Y-48599842D01*
X142708964Y-48623353D01*
X142691805Y-48651448D01*
X142680242Y-48684961D01*
X142459150Y-48684961D01*
X142471109Y-48637517D01*
X142491866Y-48589198D01*
X142517509Y-48547046D01*
X142548046Y-48510389D01*
X142583740Y-48478734D01*
X142624590Y-48452305D01*
X142671205Y-48431010D01*
X142746938Y-48410718D01*
X142834970Y-48403593D01*
X142924331Y-48410730D01*
G37*
G36*
X142300872Y-48430949D02*
G01*
X142046859Y-48430949D01*
X142046859Y-48549467D01*
X142017180Y-48508757D01*
X141984169Y-48475851D01*
X141947636Y-48449938D01*
X141907187Y-48431021D01*
X141861833Y-48419364D01*
X141810554Y-48415317D01*
X141788878Y-48415317D01*
X141761584Y-48418187D01*
X141761584Y-48662124D01*
X141813768Y-48643322D01*
X141870699Y-48636967D01*
X141927067Y-48643416D01*
X141970037Y-48661155D01*
X142002834Y-48689419D01*
X142026047Y-48726897D01*
X142041235Y-48776720D01*
X142046859Y-48842498D01*
X142046859Y-49150000D01*
X142300872Y-49150000D01*
X142300872Y-48430949D01*
G37*
G36*
X140570045Y-48365736D02*
G01*
X140616323Y-48333401D01*
X140660537Y-48311758D01*
X140705750Y-48298423D01*
X140748098Y-48294173D01*
X140798218Y-48300872D01*
X140835720Y-48319391D01*
X140854772Y-48338223D01*
X140865832Y-48359844D01*
X140869609Y-48385275D01*
X140865250Y-48411212D01*
X140852695Y-48431559D01*
X140833660Y-48448121D01*
X140808182Y-48463066D01*
X140746083Y-48486209D01*
X140677573Y-48507213D01*
X140590208Y-48542981D01*
X140525541Y-48583109D01*
X140479187Y-48627015D01*
X140452437Y-48665934D01*
X140432873Y-48710722D01*
X140420610Y-48762450D01*
X140416294Y-48822470D01*
X140423370Y-48901077D01*
X140443710Y-48969626D01*
X140464843Y-49011591D01*
X140491420Y-49049061D01*
X140523700Y-49082466D01*
X140581214Y-49123508D01*
X140652843Y-49155312D01*
X140732461Y-49174473D01*
X140826256Y-49181263D01*
X140924613Y-49173788D01*
X141018699Y-49151557D01*
X141109623Y-49114338D01*
X141198299Y-49061217D01*
X141081123Y-48839200D01*
X141017825Y-48887843D01*
X140958757Y-48920228D01*
X140897776Y-48940330D01*
X140839139Y-48946789D01*
X140795076Y-48942818D01*
X140762444Y-48932172D01*
X140738511Y-48915954D01*
X140719711Y-48893770D01*
X140709017Y-48870655D01*
X140705478Y-48845856D01*
X140707693Y-48823087D01*
X140713904Y-48804518D01*
X140724725Y-48788175D01*
X140741992Y-48772278D01*
X140763540Y-48758637D01*
X140793222Y-48744923D01*
X140869792Y-48716896D01*
X140974450Y-48679771D01*
X141023175Y-48655939D01*
X141065736Y-48625793D01*
X141101563Y-48588158D01*
X141130338Y-48540980D01*
X141148219Y-48485698D01*
X141154884Y-48411287D01*
X141148183Y-48335298D01*
X141128934Y-48269016D01*
X141097442Y-48209430D01*
X141055905Y-48159656D01*
X141004348Y-48119591D01*
X140940806Y-48088825D01*
X140870036Y-48070146D01*
X140788398Y-48063607D01*
X140709200Y-48068930D01*
X140624145Y-48085528D01*
X140540336Y-48112537D01*
X140459830Y-48149886D01*
X140570045Y-48365736D01*
G37*
G36*
X140016713Y-48430949D02*
G01*
X140016713Y-48836819D01*
X140010843Y-48887676D01*
X139995178Y-48923579D01*
X139970798Y-48948535D01*
X139936218Y-48964356D01*
X139887752Y-48970237D01*
X139839287Y-48964356D01*
X139804707Y-48948535D01*
X139780327Y-48923579D01*
X139764662Y-48887676D01*
X139758792Y-48836819D01*
X139758792Y-48430949D01*
X139504780Y-48430949D01*
X139504780Y-48885484D01*
X139511422Y-48957170D01*
X139530046Y-49015952D01*
X139559713Y-49064439D01*
X139600889Y-49104387D01*
X139649899Y-49133993D01*
X139712037Y-49156830D01*
X139790186Y-49171860D01*
X139887752Y-49177355D01*
X139985319Y-49171860D01*
X140063468Y-49156830D01*
X140125606Y-49133993D01*
X140174616Y-49104387D01*
X140215792Y-49064439D01*
X140245459Y-49015952D01*
X140264083Y-48957170D01*
X140270725Y-48885484D01*
X140270725Y-48430949D01*
X140016713Y-48430949D01*
G37*
G36*
X138927917Y-48414274D02*
G01*
X138986069Y-48433691D01*
X139036599Y-48465424D01*
X139080774Y-48510511D01*
X139080774Y-48430949D01*
X139334787Y-48430949D01*
X139334787Y-49509525D01*
X139080774Y-49509525D01*
X139080774Y-49080879D01*
X139033203Y-49121452D01*
X138980853Y-49150056D01*
X138922714Y-49167449D01*
X138857353Y-49173447D01*
X138782773Y-49165954D01*
X138714959Y-49143954D01*
X138653576Y-49108721D01*
X138601142Y-49062438D01*
X138558397Y-49006530D01*
X138525732Y-48941599D01*
X138505438Y-48870627D01*
X138498499Y-48792611D01*
X138764235Y-48792611D01*
X138767546Y-48824277D01*
X138777486Y-48854588D01*
X138792829Y-48882518D01*
X138812168Y-48906734D01*
X138835517Y-48926760D01*
X138862848Y-48941966D01*
X138892850Y-48951406D01*
X138925375Y-48954605D01*
X138957863Y-48951248D01*
X138988511Y-48941233D01*
X139016614Y-48925636D01*
X139040596Y-48906001D01*
X139060285Y-48882313D01*
X139075279Y-48854588D01*
X139084629Y-48824124D01*
X139087796Y-48791207D01*
X139084493Y-48758116D01*
X139074668Y-48727032D01*
X139059266Y-48698500D01*
X139039924Y-48674214D01*
X139016533Y-48654195D01*
X138989244Y-48639043D01*
X138959187Y-48629555D01*
X138926657Y-48626343D01*
X138892951Y-48629734D01*
X138862116Y-48639715D01*
X138834072Y-48655452D01*
X138810092Y-48675619D01*
X138790531Y-48700004D01*
X138776081Y-48728436D01*
X138767226Y-48759463D01*
X138764235Y-48792611D01*
X138498499Y-48792611D01*
X138505411Y-48714356D01*
X138525732Y-48642219D01*
X138558638Y-48576111D01*
X138601875Y-48519975D01*
X138654943Y-48473506D01*
X138717035Y-48437726D01*
X138762089Y-48421028D01*
X138809621Y-48410928D01*
X138860162Y-48407501D01*
X138927917Y-48414274D01*
G37*
G36*
X137947038Y-48414274D02*
G01*
X138005190Y-48433691D01*
X138055719Y-48465424D01*
X138099895Y-48510511D01*
X138099895Y-48430949D01*
X138353907Y-48430949D01*
X138353907Y-49509525D01*
X138099895Y-49509525D01*
X138099895Y-49080879D01*
X138052324Y-49121452D01*
X137999973Y-49150056D01*
X137941835Y-49167449D01*
X137876474Y-49173447D01*
X137801894Y-49165954D01*
X137734080Y-49143954D01*
X137672697Y-49108721D01*
X137620263Y-49062438D01*
X137577518Y-49006530D01*
X137544853Y-48941599D01*
X137524559Y-48870627D01*
X137517620Y-48792611D01*
X137783356Y-48792611D01*
X137786667Y-48824277D01*
X137796606Y-48854588D01*
X137811949Y-48882518D01*
X137831289Y-48906734D01*
X137854638Y-48926760D01*
X137881969Y-48941966D01*
X137911971Y-48951406D01*
X137944495Y-48954605D01*
X137976984Y-48951248D01*
X138007632Y-48941233D01*
X138035735Y-48925636D01*
X138059717Y-48906001D01*
X138079406Y-48882313D01*
X138094399Y-48854588D01*
X138103750Y-48824124D01*
X138106917Y-48791207D01*
X138103614Y-48758116D01*
X138093789Y-48727032D01*
X138078387Y-48698500D01*
X138059045Y-48674214D01*
X138035653Y-48654195D01*
X138008365Y-48639043D01*
X137978308Y-48629555D01*
X137945778Y-48626343D01*
X137912071Y-48629734D01*
X137881236Y-48639715D01*
X137853192Y-48655452D01*
X137829213Y-48675619D01*
X137809652Y-48700004D01*
X137795202Y-48728436D01*
X137786347Y-48759463D01*
X137783356Y-48792611D01*
X137517620Y-48792611D01*
X137524532Y-48714356D01*
X137544853Y-48642219D01*
X137577758Y-48576111D01*
X137620996Y-48519975D01*
X137674064Y-48473506D01*
X137736156Y-48437726D01*
X137781210Y-48421028D01*
X137828742Y-48410928D01*
X137879282Y-48407501D01*
X137947038Y-48414274D01*
G37*
G36*
X137119016Y-47985450D02*
G01*
X137119016Y-49150000D01*
X137373028Y-49150000D01*
X137373028Y-47985450D01*
X137119016Y-47985450D01*
G37*
G36*
X136671196Y-49052302D02*
G01*
X137018387Y-48430949D01*
X136724380Y-48430949D01*
X136532588Y-48799816D01*
X136346414Y-48430949D01*
X136055216Y-48430949D01*
X136631995Y-49509525D01*
X136916172Y-49509525D01*
X136671196Y-49052302D01*
G37*
G36*
X153451779Y-49772916D02*
G01*
X153196973Y-50416435D01*
X152940823Y-49772916D01*
X152642602Y-49772916D01*
X153087796Y-50830000D01*
X153306210Y-50830000D01*
X153750000Y-49772916D01*
X153451779Y-49772916D01*
G37*
G36*
X152223909Y-50187702D02*
G01*
X152205102Y-50189106D01*
X152191852Y-50189106D01*
X152158833Y-50185449D01*
X152131444Y-50175057D01*
X152108443Y-50158087D01*
X152090836Y-50135618D01*
X152080174Y-50109166D01*
X152076448Y-50077548D01*
X152079964Y-50046802D01*
X152089969Y-50021327D01*
X152106367Y-49999940D01*
X152127909Y-49983642D01*
X152153286Y-49973733D01*
X152183609Y-49970265D01*
X152215442Y-49974199D01*
X152241909Y-49985464D01*
X152264270Y-50004153D01*
X152280959Y-50028333D01*
X152291238Y-50057086D01*
X152294862Y-50091653D01*
X152548508Y-50091653D01*
X152532900Y-50011742D01*
X152507292Y-49943764D01*
X152471111Y-49883448D01*
X152427058Y-49834527D01*
X152374378Y-49795604D01*
X152312569Y-49766871D01*
X152244593Y-49749616D01*
X152167306Y-49743607D01*
X152091472Y-49749281D01*
X152025645Y-49765467D01*
X151965940Y-49792254D01*
X151916713Y-49827444D01*
X151876684Y-49871706D01*
X151846920Y-49924713D01*
X151828748Y-49984096D01*
X151822435Y-50052147D01*
X151825972Y-50102263D01*
X151835791Y-50143301D01*
X151851072Y-50176894D01*
X151885218Y-50221509D01*
X151932833Y-50260669D01*
X151881738Y-50282319D01*
X151839774Y-50312286D01*
X151805643Y-50350978D01*
X151780783Y-50396379D01*
X151765340Y-50449231D01*
X151759909Y-50511263D01*
X151763446Y-50562819D01*
X151773772Y-50610207D01*
X151790683Y-50654084D01*
X151827528Y-50713842D01*
X151876718Y-50764665D01*
X151936337Y-50805113D01*
X152008182Y-50836045D01*
X152086778Y-50854762D01*
X152175305Y-50861263D01*
X152255279Y-50855756D01*
X152328101Y-50839749D01*
X152394879Y-50813635D01*
X152455123Y-50776178D01*
X152507112Y-50726282D01*
X152551500Y-50662388D01*
X152573919Y-50615462D01*
X152587098Y-50569942D01*
X152593916Y-50523429D01*
X152596196Y-50476092D01*
X152322644Y-50476092D01*
X152317628Y-50523774D01*
X152303864Y-50560360D01*
X152282161Y-50588443D01*
X152253055Y-50609230D01*
X152217338Y-50622172D01*
X152173168Y-50626789D01*
X152126409Y-50621840D01*
X152092069Y-50608498D01*
X152067044Y-50587772D01*
X152048585Y-50560096D01*
X152037363Y-50528350D01*
X152033461Y-50491418D01*
X152038407Y-50447614D01*
X152052039Y-50414005D01*
X152073761Y-50388164D01*
X152102257Y-50368798D01*
X152133907Y-50357211D01*
X152169687Y-50353237D01*
X152196127Y-50355314D01*
X152223909Y-50360198D01*
X152223909Y-50187702D01*
G37*
G36*
X151617271Y-50697070D02*
G01*
X151614091Y-50664239D01*
X151604631Y-50633323D01*
X151589482Y-50604997D01*
X151569583Y-50580750D01*
X151545290Y-50560795D01*
X151517009Y-50545640D01*
X151486077Y-50536183D01*
X151453140Y-50533000D01*
X151420203Y-50536183D01*
X151389270Y-50545640D01*
X151360949Y-50560801D01*
X151336697Y-50580750D01*
X151316762Y-50605004D01*
X151301648Y-50633323D01*
X151292189Y-50664239D01*
X151289009Y-50697070D01*
X151292192Y-50730007D01*
X151301648Y-50760940D01*
X151316759Y-50789270D01*
X151336697Y-50813574D01*
X151360945Y-50833474D01*
X151389270Y-50848623D01*
X151420203Y-50858080D01*
X151453140Y-50861263D01*
X151486077Y-50858080D01*
X151517009Y-50848623D01*
X151545294Y-50833481D01*
X151569583Y-50813574D01*
X151589485Y-50789276D01*
X151604631Y-50760940D01*
X151614088Y-50730007D01*
X151617271Y-50697070D01*
G37*
G36*
X150805585Y-49748195D02*
G01*
X150865754Y-49761601D01*
X150921606Y-49783602D01*
X150973570Y-49813769D01*
X151020597Y-49851218D01*
X151063084Y-49896442D01*
X151099081Y-49947200D01*
X151129951Y-50005550D01*
X151155530Y-50072419D01*
X151173416Y-50141872D01*
X151184533Y-50218028D01*
X151188381Y-50301702D01*
X151184533Y-50385376D01*
X151173416Y-50461532D01*
X151155530Y-50530985D01*
X151129981Y-50597873D01*
X151099115Y-50656482D01*
X151063084Y-50707695D01*
X151020554Y-50753376D01*
X150973526Y-50791078D01*
X150921606Y-50821329D01*
X150865757Y-50843295D01*
X150805587Y-50856682D01*
X150740256Y-50861263D01*
X150675853Y-50856713D01*
X150615904Y-50843356D01*
X150559638Y-50821329D01*
X150507293Y-50791009D01*
X150460280Y-50753298D01*
X150418161Y-50707695D01*
X150382524Y-50656527D01*
X150351878Y-50597919D01*
X150326386Y-50530985D01*
X150308467Y-50461529D01*
X150297329Y-50385374D01*
X150293475Y-50301702D01*
X150567027Y-50301702D01*
X150570300Y-50370508D01*
X150579544Y-50430052D01*
X150594905Y-50485325D01*
X150614166Y-50530130D01*
X150639528Y-50568370D01*
X150668876Y-50595710D01*
X150703126Y-50613201D01*
X150740256Y-50618974D01*
X150778439Y-50613131D01*
X150812308Y-50595710D01*
X150841259Y-50568459D01*
X150867079Y-50530130D01*
X150886851Y-50485276D01*
X150902372Y-50430052D01*
X150911571Y-50370510D01*
X150914829Y-50301702D01*
X150911599Y-50234115D01*
X150902372Y-50174146D01*
X150886787Y-50118329D01*
X150867079Y-50074007D01*
X150841301Y-50036254D01*
X150812308Y-50009160D01*
X150778439Y-49991739D01*
X150740256Y-49985896D01*
X150703126Y-49991669D01*
X150668876Y-50009160D01*
X150639486Y-50036343D01*
X150614166Y-50074007D01*
X150594969Y-50118279D01*
X150579544Y-50174146D01*
X150570272Y-50234118D01*
X150567027Y-50301702D01*
X150293475Y-50301702D01*
X150297329Y-50218030D01*
X150308467Y-50141875D01*
X150326386Y-50072419D01*
X150351908Y-50005504D01*
X150382558Y-49947155D01*
X150418161Y-49896442D01*
X150460236Y-49851296D01*
X150507248Y-49813838D01*
X150559638Y-49783602D01*
X150615907Y-49761540D01*
X150675856Y-49748163D01*
X150740256Y-49743607D01*
X150805585Y-49748195D01*
G37*
X163145050Y-52567000D02*
X163002193Y-52614619D01*
X163002193Y-52614619D02*
X162764098Y-52614619D01*
X162764098Y-52614619D02*
X162668860Y-52567000D01*
X162668860Y-52567000D02*
X162621241Y-52519380D01*
X162621241Y-52519380D02*
X162573622Y-52424142D01*
X162573622Y-52424142D02*
X162573622Y-52328904D01*
X162573622Y-52328904D02*
X162621241Y-52233666D01*
X162621241Y-52233666D02*
X162668860Y-52186047D01*
X162668860Y-52186047D02*
X162764098Y-52138428D01*
X162764098Y-52138428D02*
X162954574Y-52090809D01*
X162954574Y-52090809D02*
X163049812Y-52043190D01*
X163049812Y-52043190D02*
X163097431Y-51995571D01*
X163097431Y-51995571D02*
X163145050Y-51900333D01*
X163145050Y-51900333D02*
X163145050Y-51805095D01*
X163145050Y-51805095D02*
X163097431Y-51709857D01*
X163097431Y-51709857D02*
X163049812Y-51662238D01*
X163049812Y-51662238D02*
X162954574Y-51614619D01*
X162954574Y-51614619D02*
X162716479Y-51614619D01*
X162716479Y-51614619D02*
X162573622Y-51662238D01*
X162240288Y-51947952D02*
X162049812Y-52614619D01*
X162049812Y-52614619D02*
X161859336Y-52138428D01*
X161859336Y-52138428D02*
X161668860Y-52614619D01*
X161668860Y-52614619D02*
X161478384Y-51947952D01*
X161097431Y-52614619D02*
X161097431Y-51947952D01*
X161097431Y-51614619D02*
X161145050Y-51662238D01*
X161145050Y-51662238D02*
X161097431Y-51709857D01*
X161097431Y-51709857D02*
X161049812Y-51662238D01*
X161049812Y-51662238D02*
X161097431Y-51614619D01*
X161097431Y-51614619D02*
X161097431Y-51709857D01*
X160764098Y-51947952D02*
X160383146Y-51947952D01*
X160621241Y-51614619D02*
X160621241Y-52471761D01*
X160621241Y-52471761D02*
X160573622Y-52567000D01*
X160573622Y-52567000D02*
X160478384Y-52614619D01*
X160478384Y-52614619D02*
X160383146Y-52614619D01*
X159621241Y-52567000D02*
X159716479Y-52614619D01*
X159716479Y-52614619D02*
X159906955Y-52614619D01*
X159906955Y-52614619D02*
X160002193Y-52567000D01*
X160002193Y-52567000D02*
X160049812Y-52519380D01*
X160049812Y-52519380D02*
X160097431Y-52424142D01*
X160097431Y-52424142D02*
X160097431Y-52138428D01*
X160097431Y-52138428D02*
X160049812Y-52043190D01*
X160049812Y-52043190D02*
X160002193Y-51995571D01*
X160002193Y-51995571D02*
X159906955Y-51947952D01*
X159906955Y-51947952D02*
X159716479Y-51947952D01*
X159716479Y-51947952D02*
X159621241Y-51995571D01*
X159192669Y-52614619D02*
X159192669Y-51614619D01*
X158764098Y-52614619D02*
X158764098Y-52090809D01*
X158764098Y-52090809D02*
X158811717Y-51995571D01*
X158811717Y-51995571D02*
X158906955Y-51947952D01*
X158906955Y-51947952D02*
X159049812Y-51947952D01*
X159049812Y-51947952D02*
X159145050Y-51995571D01*
X159145050Y-51995571D02*
X159192669Y-52043190D01*
D13*
X137032335Y-108570651D02*
X137746620Y-108570651D01*
X137746620Y-108570651D02*
X137889477Y-108523032D01*
X137889477Y-108523032D02*
X137984716Y-108427794D01*
X137984716Y-108427794D02*
X138032335Y-108284937D01*
X138032335Y-108284937D02*
X138032335Y-108189699D01*
X137127573Y-108999223D02*
X137079954Y-109046842D01*
X137079954Y-109046842D02*
X137032335Y-109142080D01*
X137032335Y-109142080D02*
X137032335Y-109380175D01*
X137032335Y-109380175D02*
X137079954Y-109475413D01*
X137079954Y-109475413D02*
X137127573Y-109523032D01*
X137127573Y-109523032D02*
X137222811Y-109570651D01*
X137222811Y-109570651D02*
X137318049Y-109570651D01*
X137318049Y-109570651D02*
X137460906Y-109523032D01*
X137460906Y-109523032D02*
X138032335Y-108951604D01*
X138032335Y-108951604D02*
X138032335Y-109570651D01*
D11*
X158084333Y-102483876D02*
X158084333Y-103093400D01*
X158389095Y-103893399D02*
X158389095Y-103436256D01*
X158389095Y-103664828D02*
X157589095Y-103664828D01*
X157589095Y-103664828D02*
X157703380Y-103588637D01*
X157703380Y-103588637D02*
X157779571Y-103512447D01*
X157779571Y-103512447D02*
X157817666Y-103436256D01*
X157665285Y-104198161D02*
X157627190Y-104236257D01*
X157627190Y-104236257D02*
X157589095Y-104312447D01*
X157589095Y-104312447D02*
X157589095Y-104502923D01*
X157589095Y-104502923D02*
X157627190Y-104579114D01*
X157627190Y-104579114D02*
X157665285Y-104617209D01*
X157665285Y-104617209D02*
X157741476Y-104655304D01*
X157741476Y-104655304D02*
X157817666Y-104655304D01*
X157817666Y-104655304D02*
X157931952Y-104617209D01*
X157931952Y-104617209D02*
X158389095Y-104160066D01*
X158389095Y-104160066D02*
X158389095Y-104655304D01*
X157589095Y-104883876D02*
X158389095Y-105150543D01*
X158389095Y-105150543D02*
X157589095Y-105417209D01*
D14*
X135894819Y-101991905D02*
X134894819Y-101991905D01*
X134894819Y-101991905D02*
X134894819Y-102230000D01*
X134894819Y-102230000D02*
X134942438Y-102372857D01*
X134942438Y-102372857D02*
X135037676Y-102468095D01*
X135037676Y-102468095D02*
X135132914Y-102515714D01*
X135132914Y-102515714D02*
X135323390Y-102563333D01*
X135323390Y-102563333D02*
X135466247Y-102563333D01*
X135466247Y-102563333D02*
X135656723Y-102515714D01*
X135656723Y-102515714D02*
X135751961Y-102468095D01*
X135751961Y-102468095D02*
X135847200Y-102372857D01*
X135847200Y-102372857D02*
X135894819Y-102230000D01*
X135894819Y-102230000D02*
X135894819Y-101991905D01*
X134990057Y-102944286D02*
X134942438Y-102991905D01*
X134942438Y-102991905D02*
X134894819Y-103087143D01*
X134894819Y-103087143D02*
X134894819Y-103325238D01*
X134894819Y-103325238D02*
X134942438Y-103420476D01*
X134942438Y-103420476D02*
X134990057Y-103468095D01*
X134990057Y-103468095D02*
X135085295Y-103515714D01*
X135085295Y-103515714D02*
X135180533Y-103515714D01*
X135180533Y-103515714D02*
X135323390Y-103468095D01*
X135323390Y-103468095D02*
X135894819Y-102896667D01*
X135894819Y-102896667D02*
X135894819Y-103515714D01*
X140514819Y-101277618D02*
X140514819Y-100801428D01*
X140514819Y-100801428D02*
X139514819Y-100801428D01*
X140514819Y-102896666D02*
X140514819Y-102325238D01*
X140514819Y-102610952D02*
X139514819Y-102610952D01*
X139514819Y-102610952D02*
X139657676Y-102515714D01*
X139657676Y-102515714D02*
X139752914Y-102420476D01*
X139752914Y-102420476D02*
X139800533Y-102325238D01*
X139610057Y-103277619D02*
X139562438Y-103325238D01*
X139562438Y-103325238D02*
X139514819Y-103420476D01*
X139514819Y-103420476D02*
X139514819Y-103658571D01*
X139514819Y-103658571D02*
X139562438Y-103753809D01*
X139562438Y-103753809D02*
X139610057Y-103801428D01*
X139610057Y-103801428D02*
X139705295Y-103849047D01*
X139705295Y-103849047D02*
X139800533Y-103849047D01*
X139800533Y-103849047D02*
X139943390Y-103801428D01*
X139943390Y-103801428D02*
X140514819Y-103230000D01*
X140514819Y-103230000D02*
X140514819Y-103849047D01*
X139514819Y-104134762D02*
X140514819Y-104468095D01*
X140514819Y-104468095D02*
X139514819Y-104801428D01*
D15*
X156804318Y-45826667D02*
X157711461Y-45826667D01*
X157711461Y-45826667D02*
X157892889Y-45766190D01*
X157892889Y-45766190D02*
X158013842Y-45645238D01*
X158013842Y-45645238D02*
X158074318Y-45463809D01*
X158074318Y-45463809D02*
X158074318Y-45342857D01*
X156804318Y-46975714D02*
X156804318Y-46733809D01*
X156804318Y-46733809D02*
X156864794Y-46612857D01*
X156864794Y-46612857D02*
X156925270Y-46552381D01*
X156925270Y-46552381D02*
X157106699Y-46431428D01*
X157106699Y-46431428D02*
X157348603Y-46370952D01*
X157348603Y-46370952D02*
X157832413Y-46370952D01*
X157832413Y-46370952D02*
X157953365Y-46431428D01*
X157953365Y-46431428D02*
X158013842Y-46491905D01*
X158013842Y-46491905D02*
X158074318Y-46612857D01*
X158074318Y-46612857D02*
X158074318Y-46854762D01*
X158074318Y-46854762D02*
X158013842Y-46975714D01*
X158013842Y-46975714D02*
X157953365Y-47036190D01*
X157953365Y-47036190D02*
X157832413Y-47096667D01*
X157832413Y-47096667D02*
X157530032Y-47096667D01*
X157530032Y-47096667D02*
X157409080Y-47036190D01*
X157409080Y-47036190D02*
X157348603Y-46975714D01*
X157348603Y-46975714D02*
X157288127Y-46854762D01*
X157288127Y-46854762D02*
X157288127Y-46612857D01*
X157288127Y-46612857D02*
X157348603Y-46491905D01*
X157348603Y-46491905D02*
X157409080Y-46431428D01*
X157409080Y-46431428D02*
X157530032Y-46370952D01*
X151042143Y-73374318D02*
X151042143Y-72104318D01*
X151042143Y-72104318D02*
X150558333Y-72104318D01*
X150558333Y-72104318D02*
X150437381Y-72164794D01*
X150437381Y-72164794D02*
X150376904Y-72225270D01*
X150376904Y-72225270D02*
X150316428Y-72346222D01*
X150316428Y-72346222D02*
X150316428Y-72527651D01*
X150316428Y-72527651D02*
X150376904Y-72648603D01*
X150376904Y-72648603D02*
X150437381Y-72709080D01*
X150437381Y-72709080D02*
X150558333Y-72769556D01*
X150558333Y-72769556D02*
X151042143Y-72769556D01*
X149832619Y-73313842D02*
X149651190Y-73374318D01*
X149651190Y-73374318D02*
X149348809Y-73374318D01*
X149348809Y-73374318D02*
X149227857Y-73313842D01*
X149227857Y-73313842D02*
X149167381Y-73253365D01*
X149167381Y-73253365D02*
X149106904Y-73132413D01*
X149106904Y-73132413D02*
X149106904Y-73011461D01*
X149106904Y-73011461D02*
X149167381Y-72890508D01*
X149167381Y-72890508D02*
X149227857Y-72830032D01*
X149227857Y-72830032D02*
X149348809Y-72769556D01*
X149348809Y-72769556D02*
X149590714Y-72709080D01*
X149590714Y-72709080D02*
X149711666Y-72648603D01*
X149711666Y-72648603D02*
X149772143Y-72588127D01*
X149772143Y-72588127D02*
X149832619Y-72467175D01*
X149832619Y-72467175D02*
X149832619Y-72346222D01*
X149832619Y-72346222D02*
X149772143Y-72225270D01*
X149772143Y-72225270D02*
X149711666Y-72164794D01*
X149711666Y-72164794D02*
X149590714Y-72104318D01*
X149590714Y-72104318D02*
X149288333Y-72104318D01*
X149288333Y-72104318D02*
X149106904Y-72164794D01*
X147897380Y-73374318D02*
X148623095Y-73374318D01*
X148260238Y-73374318D02*
X148260238Y-72104318D01*
X148260238Y-72104318D02*
X148381190Y-72285746D01*
X148381190Y-72285746D02*
X148502142Y-72406699D01*
X148502142Y-72406699D02*
X148623095Y-72467175D01*
D14*
X135894819Y-96241905D02*
X134894819Y-96241905D01*
X134894819Y-96241905D02*
X134894819Y-96480000D01*
X134894819Y-96480000D02*
X134942438Y-96622857D01*
X134942438Y-96622857D02*
X135037676Y-96718095D01*
X135037676Y-96718095D02*
X135132914Y-96765714D01*
X135132914Y-96765714D02*
X135323390Y-96813333D01*
X135323390Y-96813333D02*
X135466247Y-96813333D01*
X135466247Y-96813333D02*
X135656723Y-96765714D01*
X135656723Y-96765714D02*
X135751961Y-96718095D01*
X135751961Y-96718095D02*
X135847200Y-96622857D01*
X135847200Y-96622857D02*
X135894819Y-96480000D01*
X135894819Y-96480000D02*
X135894819Y-96241905D01*
X135228152Y-97670476D02*
X135894819Y-97670476D01*
X134847200Y-97432381D02*
X135561485Y-97194286D01*
X135561485Y-97194286D02*
X135561485Y-97813333D01*
X140514819Y-94908571D02*
X140514819Y-94432381D01*
X140514819Y-94432381D02*
X139514819Y-94432381D01*
X140133866Y-96003810D02*
X140133866Y-96765715D01*
X140514819Y-97765714D02*
X140514819Y-97194286D01*
X140514819Y-97480000D02*
X139514819Y-97480000D01*
X139514819Y-97480000D02*
X139657676Y-97384762D01*
X139657676Y-97384762D02*
X139752914Y-97289524D01*
X139752914Y-97289524D02*
X139800533Y-97194286D01*
X139610057Y-98146667D02*
X139562438Y-98194286D01*
X139562438Y-98194286D02*
X139514819Y-98289524D01*
X139514819Y-98289524D02*
X139514819Y-98527619D01*
X139514819Y-98527619D02*
X139562438Y-98622857D01*
X139562438Y-98622857D02*
X139610057Y-98670476D01*
X139610057Y-98670476D02*
X139705295Y-98718095D01*
X139705295Y-98718095D02*
X139800533Y-98718095D01*
X139800533Y-98718095D02*
X139943390Y-98670476D01*
X139943390Y-98670476D02*
X140514819Y-98099048D01*
X140514819Y-98099048D02*
X140514819Y-98718095D01*
X139514819Y-99003810D02*
X140514819Y-99337143D01*
X140514819Y-99337143D02*
X139514819Y-99670476D01*
D13*
X137032335Y-123860651D02*
X137746620Y-123860651D01*
X137746620Y-123860651D02*
X137889477Y-123813032D01*
X137889477Y-123813032D02*
X137984716Y-123717794D01*
X137984716Y-123717794D02*
X138032335Y-123574937D01*
X138032335Y-123574937D02*
X138032335Y-123479699D01*
X137032335Y-124241604D02*
X137032335Y-124860651D01*
X137032335Y-124860651D02*
X137413287Y-124527318D01*
X137413287Y-124527318D02*
X137413287Y-124670175D01*
X137413287Y-124670175D02*
X137460906Y-124765413D01*
X137460906Y-124765413D02*
X137508525Y-124813032D01*
X137508525Y-124813032D02*
X137603763Y-124860651D01*
X137603763Y-124860651D02*
X137841858Y-124860651D01*
X137841858Y-124860651D02*
X137937096Y-124813032D01*
X137937096Y-124813032D02*
X137984716Y-124765413D01*
X137984716Y-124765413D02*
X138032335Y-124670175D01*
X138032335Y-124670175D02*
X138032335Y-124384461D01*
X138032335Y-124384461D02*
X137984716Y-124289223D01*
X137984716Y-124289223D02*
X137937096Y-124241604D01*
D11*
X158084333Y-117773876D02*
X158084333Y-118383400D01*
X158389095Y-119183399D02*
X158389095Y-118726256D01*
X158389095Y-118954828D02*
X157589095Y-118954828D01*
X157589095Y-118954828D02*
X157703380Y-118878637D01*
X157703380Y-118878637D02*
X157779571Y-118802447D01*
X157779571Y-118802447D02*
X157817666Y-118726256D01*
X157665285Y-119488161D02*
X157627190Y-119526257D01*
X157627190Y-119526257D02*
X157589095Y-119602447D01*
X157589095Y-119602447D02*
X157589095Y-119792923D01*
X157589095Y-119792923D02*
X157627190Y-119869114D01*
X157627190Y-119869114D02*
X157665285Y-119907209D01*
X157665285Y-119907209D02*
X157741476Y-119945304D01*
X157741476Y-119945304D02*
X157817666Y-119945304D01*
X157817666Y-119945304D02*
X157931952Y-119907209D01*
X157931952Y-119907209D02*
X158389095Y-119450066D01*
X158389095Y-119450066D02*
X158389095Y-119945304D01*
X157589095Y-120173876D02*
X158389095Y-120440543D01*
X158389095Y-120440543D02*
X157589095Y-120707209D01*
D14*
X135894819Y-90491905D02*
X134894819Y-90491905D01*
X134894819Y-90491905D02*
X134894819Y-90730000D01*
X134894819Y-90730000D02*
X134942438Y-90872857D01*
X134942438Y-90872857D02*
X135037676Y-90968095D01*
X135037676Y-90968095D02*
X135132914Y-91015714D01*
X135132914Y-91015714D02*
X135323390Y-91063333D01*
X135323390Y-91063333D02*
X135466247Y-91063333D01*
X135466247Y-91063333D02*
X135656723Y-91015714D01*
X135656723Y-91015714D02*
X135751961Y-90968095D01*
X135751961Y-90968095D02*
X135847200Y-90872857D01*
X135847200Y-90872857D02*
X135894819Y-90730000D01*
X135894819Y-90730000D02*
X135894819Y-90491905D01*
X134894819Y-91396667D02*
X134894819Y-92015714D01*
X134894819Y-92015714D02*
X135275771Y-91682381D01*
X135275771Y-91682381D02*
X135275771Y-91825238D01*
X135275771Y-91825238D02*
X135323390Y-91920476D01*
X135323390Y-91920476D02*
X135371009Y-91968095D01*
X135371009Y-91968095D02*
X135466247Y-92015714D01*
X135466247Y-92015714D02*
X135704342Y-92015714D01*
X135704342Y-92015714D02*
X135799580Y-91968095D01*
X135799580Y-91968095D02*
X135847200Y-91920476D01*
X135847200Y-91920476D02*
X135894819Y-91825238D01*
X135894819Y-91825238D02*
X135894819Y-91539524D01*
X135894819Y-91539524D02*
X135847200Y-91444286D01*
X135847200Y-91444286D02*
X135799580Y-91396667D01*
X140514819Y-90253809D02*
X140514819Y-89777619D01*
X140514819Y-89777619D02*
X139514819Y-89777619D01*
X139514819Y-91825238D02*
X139514819Y-91349048D01*
X139514819Y-91349048D02*
X139991009Y-91301429D01*
X139991009Y-91301429D02*
X139943390Y-91349048D01*
X139943390Y-91349048D02*
X139895771Y-91444286D01*
X139895771Y-91444286D02*
X139895771Y-91682381D01*
X139895771Y-91682381D02*
X139943390Y-91777619D01*
X139943390Y-91777619D02*
X139991009Y-91825238D01*
X139991009Y-91825238D02*
X140086247Y-91872857D01*
X140086247Y-91872857D02*
X140324342Y-91872857D01*
X140324342Y-91872857D02*
X140419580Y-91825238D01*
X140419580Y-91825238D02*
X140467200Y-91777619D01*
X140467200Y-91777619D02*
X140514819Y-91682381D01*
X140514819Y-91682381D02*
X140514819Y-91444286D01*
X140514819Y-91444286D02*
X140467200Y-91349048D01*
X140467200Y-91349048D02*
X140419580Y-91301429D01*
X139514819Y-92158572D02*
X140514819Y-92491905D01*
X140514819Y-92491905D02*
X139514819Y-92825238D01*
D11*
%TO.C,J2*%
X136160000Y-106480000D02*
X161560000Y-106480000D01*
X136160000Y-106535000D02*
X136160000Y-115480000D01*
X136160000Y-115480000D02*
X144860000Y-115480000D01*
D16*
X138700000Y-108440000D02*
X141240000Y-108440000D01*
X138700000Y-110980000D02*
X138700000Y-108440000D01*
X138700000Y-113520000D02*
X138700000Y-110980000D01*
X141240000Y-108440000D02*
X143780000Y-108440000D01*
X141240000Y-113520000D02*
X138700000Y-113520000D01*
X143780000Y-108440000D02*
X146320000Y-108440000D01*
X143780000Y-113520000D02*
X141240000Y-113520000D01*
X146320000Y-108440000D02*
X148860000Y-108440000D01*
X146320000Y-113520000D02*
X143780000Y-113520000D01*
X148860000Y-108440000D02*
X151400000Y-108440000D01*
X148860000Y-113520000D02*
X146320000Y-113520000D01*
X151400000Y-108440000D02*
X153940000Y-108440000D01*
X151400000Y-113520000D02*
X148860000Y-113520000D01*
D11*
X152860000Y-115480000D02*
X161560000Y-115480000D01*
D16*
X153940000Y-108440000D02*
X156480000Y-108440000D01*
X153940000Y-113520000D02*
X151400000Y-113520000D01*
X156480000Y-108440000D02*
X159020000Y-108440000D01*
X156480000Y-113520000D02*
X153940000Y-113520000D01*
X159020000Y-110980000D02*
X159020000Y-108440000D01*
X159020000Y-113520000D02*
X156480000Y-113520000D01*
X159020000Y-113520000D02*
X159020000Y-110980000D01*
D11*
X161560000Y-106480000D02*
X161560000Y-115480000D01*
D17*
X162703000Y-103995000D02*
X162703000Y-117584000D01*
D18*
X163465000Y-106425000D02*
X163465000Y-115425000D01*
D19*
%TO.C,D2*%
X136440000Y-100270000D02*
X136440000Y-105190000D01*
X136440000Y-100390000D02*
X136670000Y-100390000D01*
X136440000Y-100510000D02*
X136670000Y-100510000D01*
X136440000Y-105190000D02*
X139060000Y-105190000D01*
X138830000Y-100390000D02*
X139060000Y-100390000D01*
X138830000Y-100510000D02*
X139060000Y-100510000D01*
X139060000Y-100270000D02*
X136440000Y-100270000D01*
X139060000Y-105190000D02*
X139060000Y-100270000D01*
D11*
%TO.C,J6*%
X156450000Y-44770000D02*
X162950000Y-44770000D01*
X156450000Y-50250000D02*
X156450000Y-44770000D01*
D20*
X159750000Y-50650000D02*
X159750000Y-50650000D01*
X159750000Y-50750000D02*
X159750000Y-50750000D01*
D11*
X162950000Y-44770000D02*
X162950000Y-50250000D01*
X162950000Y-50250000D02*
X156450000Y-50250000D01*
D20*
X159750000Y-50650000D02*
G75*
G02*
X159750000Y-50750000I0J-50000D01*
G01*
X159750000Y-50750000D02*
G75*
G02*
X159750000Y-50650000I0J50000D01*
G01*
%TO.C,PS1*%
X136800000Y-60750000D02*
X162200000Y-60750000D01*
X136800000Y-86150000D02*
X136800000Y-60750000D01*
D11*
X152000000Y-59450000D02*
X152000000Y-59450000D01*
X152000000Y-59450000D02*
X152000000Y-59450000D01*
X152000000Y-59550000D02*
X152000000Y-59550000D01*
D20*
X162200000Y-60750000D02*
X162200000Y-86150000D01*
X162200000Y-86150000D02*
X136800000Y-86150000D01*
D11*
X152000000Y-59450000D02*
G75*
G02*
X152000000Y-59550000I0J-50000D01*
G01*
X152000000Y-59450000D02*
G75*
G02*
X152000000Y-59550000I0J-50000D01*
G01*
X152000000Y-59550000D02*
G75*
G02*
X152000000Y-59450000I0J50000D01*
G01*
D19*
%TO.C,D4*%
X136440000Y-94520000D02*
X136440000Y-99440000D01*
X136440000Y-94640000D02*
X136670000Y-94640000D01*
X136440000Y-94760000D02*
X136670000Y-94760000D01*
X136440000Y-99440000D02*
X139060000Y-99440000D01*
X138830000Y-94640000D02*
X139060000Y-94640000D01*
X138830000Y-94760000D02*
X139060000Y-94760000D01*
X139060000Y-94520000D02*
X136440000Y-94520000D01*
X139060000Y-99440000D02*
X139060000Y-94520000D01*
D11*
%TO.C,J3*%
X136160000Y-121770000D02*
X161560000Y-121770000D01*
X136160000Y-121825000D02*
X136160000Y-130770000D01*
X136160000Y-130770000D02*
X144860000Y-130770000D01*
D16*
X138700000Y-123730000D02*
X141240000Y-123730000D01*
X138700000Y-126270000D02*
X138700000Y-123730000D01*
X138700000Y-128810000D02*
X138700000Y-126270000D01*
X141240000Y-123730000D02*
X143780000Y-123730000D01*
X141240000Y-128810000D02*
X138700000Y-128810000D01*
X143780000Y-123730000D02*
X146320000Y-123730000D01*
X143780000Y-128810000D02*
X141240000Y-128810000D01*
X146320000Y-123730000D02*
X148860000Y-123730000D01*
X146320000Y-128810000D02*
X143780000Y-128810000D01*
X148860000Y-123730000D02*
X151400000Y-123730000D01*
X148860000Y-128810000D02*
X146320000Y-128810000D01*
X151400000Y-123730000D02*
X153940000Y-123730000D01*
X151400000Y-128810000D02*
X148860000Y-128810000D01*
D11*
X152860000Y-130770000D02*
X161560000Y-130770000D01*
D16*
X153940000Y-123730000D02*
X156480000Y-123730000D01*
X153940000Y-128810000D02*
X151400000Y-128810000D01*
X156480000Y-123730000D02*
X159020000Y-123730000D01*
X156480000Y-128810000D02*
X153940000Y-128810000D01*
X159020000Y-126270000D02*
X159020000Y-123730000D01*
X159020000Y-128810000D02*
X156480000Y-128810000D01*
X159020000Y-128810000D02*
X159020000Y-126270000D01*
D11*
X161560000Y-121770000D02*
X161560000Y-130770000D01*
D17*
X162703000Y-119285000D02*
X162703000Y-132874000D01*
D18*
X163465000Y-121715000D02*
X163465000Y-130715000D01*
D19*
%TO.C,D3*%
X136440000Y-88770000D02*
X136440000Y-93690000D01*
X136440000Y-88890000D02*
X136670000Y-88890000D01*
X136440000Y-89010000D02*
X136670000Y-89010000D01*
X136440000Y-93690000D02*
X139060000Y-93690000D01*
X138830000Y-88890000D02*
X139060000Y-88890000D01*
X138830000Y-89010000D02*
X139060000Y-89010000D01*
X139060000Y-88770000D02*
X136440000Y-88770000D01*
X139060000Y-93690000D02*
X139060000Y-88770000D01*
D21*
%TO.C,G\u002A\u002A\u002A*%
G36*
X149338803Y-96491593D02*
G01*
X149366806Y-96578481D01*
X149361443Y-96732928D01*
X149360495Y-96741496D01*
X149353630Y-96897254D01*
X149372448Y-97050199D01*
X149421211Y-97236215D01*
X149446593Y-97320706D01*
X149476489Y-97431811D01*
X149484387Y-97497599D01*
X149471208Y-97536306D01*
X149437873Y-97566169D01*
X149422553Y-97576791D01*
X149361262Y-97594974D01*
X149290129Y-97557315D01*
X149285858Y-97554165D01*
X149195088Y-97490757D01*
X149089777Y-97421332D01*
X149011981Y-97354783D01*
X148922780Y-97220798D01*
X148869797Y-97065262D01*
X148860203Y-96912329D01*
X148901169Y-96786149D01*
X148916160Y-96764482D01*
X148973294Y-96713402D01*
X149016817Y-96737016D01*
X149049458Y-96836244D01*
X149076264Y-96921474D01*
X149127677Y-97019002D01*
X149147155Y-97044064D01*
X149165698Y-97055853D01*
X149161868Y-97013741D01*
X149136464Y-96907622D01*
X149135703Y-96904611D01*
X149104907Y-96712368D01*
X149124099Y-96577636D01*
X149193437Y-96499274D01*
X149275489Y-96469558D01*
X149338803Y-96491593D01*
G37*
G36*
X151824818Y-96501015D02*
G01*
X151878093Y-96586999D01*
X151893910Y-96720768D01*
X151867696Y-96892777D01*
X151846629Y-96976208D01*
X151833302Y-97044324D01*
X151841573Y-97055452D01*
X151871766Y-97019764D01*
X151912916Y-96946551D01*
X151950543Y-96836244D01*
X151956663Y-96808962D01*
X151991456Y-96725675D01*
X152037648Y-96717827D01*
X152097772Y-96784530D01*
X152138872Y-96888348D01*
X152132804Y-97026287D01*
X152103824Y-97143468D01*
X152058675Y-97263566D01*
X152009661Y-97351397D01*
X151966728Y-97385454D01*
X151949080Y-97391376D01*
X151881490Y-97432543D01*
X151790354Y-97500025D01*
X151705024Y-97561700D01*
X151633242Y-97589816D01*
X151573396Y-97575641D01*
X151569799Y-97573721D01*
X151528891Y-97549542D01*
X151509191Y-97520363D01*
X151511090Y-97469052D01*
X151534980Y-97378480D01*
X151581250Y-97231515D01*
X151618550Y-97099184D01*
X151643828Y-96927641D01*
X151637855Y-96745190D01*
X151633069Y-96692285D01*
X151628713Y-96577182D01*
X151641280Y-96514468D01*
X151673163Y-96486626D01*
X151738656Y-96472361D01*
X151824818Y-96501015D01*
G37*
G36*
X151079300Y-96420628D02*
G01*
X151165328Y-96536502D01*
X151236518Y-96708932D01*
X151287816Y-96931088D01*
X151294086Y-96961100D01*
X151343404Y-97061647D01*
X151417590Y-97111223D01*
X151500262Y-97097031D01*
X151517870Y-97089758D01*
X151539107Y-97113469D01*
X151531652Y-97185559D01*
X151500242Y-97291739D01*
X151449614Y-97417724D01*
X151384505Y-97549225D01*
X151309650Y-97671957D01*
X151247232Y-97755188D01*
X151049921Y-97940915D01*
X150812302Y-98063572D01*
X150598171Y-98108933D01*
X150354804Y-98093400D01*
X150118711Y-98013662D01*
X149901823Y-97875643D01*
X149716069Y-97685266D01*
X149573381Y-97448454D01*
X149530447Y-97346584D01*
X149503661Y-97259090D01*
X149510398Y-97232068D01*
X149548426Y-97269409D01*
X149615514Y-97375002D01*
X149643439Y-97421297D01*
X149772466Y-97577262D01*
X149922498Y-97665523D01*
X150104678Y-97693333D01*
X150134795Y-97692583D01*
X150275449Y-97662421D01*
X150390641Y-97583143D01*
X150485532Y-97447825D01*
X150565281Y-97249541D01*
X150635046Y-96981363D01*
X150660466Y-96868805D01*
X150713527Y-96668287D01*
X150765405Y-96528249D01*
X150820741Y-96437590D01*
X150884171Y-96385211D01*
X150983484Y-96368143D01*
X151079300Y-96420628D01*
G37*
G36*
X150510204Y-95675763D02*
G01*
X150764988Y-95706876D01*
X150985971Y-95800841D01*
X151190008Y-95964716D01*
X151194169Y-95968950D01*
X151257516Y-96045637D01*
X151328719Y-96148158D01*
X151397325Y-96258776D01*
X151452877Y-96359751D01*
X151484921Y-96433345D01*
X151483001Y-96461818D01*
X151480720Y-96461191D01*
X151449076Y-96423262D01*
X151403514Y-96344661D01*
X151372926Y-96294392D01*
X151244872Y-96171316D01*
X151080631Y-96097462D01*
X150902323Y-96080025D01*
X150732065Y-96126203D01*
X150626916Y-96206226D01*
X150532719Y-96343618D01*
X150451714Y-96542844D01*
X150380067Y-96811374D01*
X150355955Y-96912788D01*
X150309353Y-97082164D01*
X150263219Y-97221851D01*
X150224712Y-97308925D01*
X150217238Y-97320849D01*
X150159267Y-97394035D01*
X150113187Y-97423939D01*
X150097097Y-97423037D01*
X149991832Y-97376299D01*
X149892295Y-97268447D01*
X149808334Y-97113039D01*
X149749798Y-96923636D01*
X149749516Y-96922301D01*
X149707312Y-96786276D01*
X149646512Y-96713993D01*
X149556462Y-96692727D01*
X149503700Y-96686905D01*
X149484004Y-96652730D01*
X149498021Y-96567651D01*
X149522820Y-96474511D01*
X149637391Y-96204187D01*
X149799657Y-95982682D01*
X150002356Y-95816460D01*
X150238224Y-95711987D01*
X150500000Y-95675725D01*
X150510204Y-95675763D01*
G37*
G36*
X151060953Y-96175144D02*
G01*
X151207598Y-96245607D01*
X151322448Y-96363411D01*
X151341891Y-96397671D01*
X151388960Y-96510731D01*
X151433307Y-96650469D01*
X151468487Y-96792342D01*
X151488052Y-96911807D01*
X151485555Y-96984320D01*
X151458154Y-97031209D01*
X151419574Y-97028323D01*
X151380751Y-96953929D01*
X151344163Y-96811062D01*
X151334745Y-96766257D01*
X151264953Y-96545807D01*
X151170168Y-96390900D01*
X151052930Y-96305939D01*
X151007365Y-96290985D01*
X150899541Y-96282730D01*
X150809881Y-96326390D01*
X150732950Y-96428208D01*
X150663311Y-96594428D01*
X150595532Y-96831291D01*
X150561798Y-96961835D01*
X150492018Y-97199370D01*
X150426133Y-97372812D01*
X150360609Y-97490664D01*
X150291908Y-97561430D01*
X150254189Y-97583470D01*
X150111192Y-97616821D01*
X149959443Y-97594709D01*
X149829898Y-97519916D01*
X149823021Y-97513378D01*
X149743711Y-97416069D01*
X149669321Y-97290341D01*
X149605498Y-97152010D01*
X149557891Y-97016889D01*
X149532147Y-96900793D01*
X149533915Y-96819538D01*
X149568842Y-96788939D01*
X149572008Y-96789406D01*
X149609852Y-96830596D01*
X149658726Y-96925751D01*
X149709242Y-97056949D01*
X149741520Y-97145376D01*
X149838313Y-97336465D01*
X149947075Y-97452843D01*
X150067157Y-97493975D01*
X150197910Y-97459326D01*
X150239313Y-97429242D01*
X150293158Y-97357280D01*
X150344444Y-97241662D01*
X150397686Y-97071546D01*
X150457399Y-96836092D01*
X150475812Y-96760419D01*
X150535859Y-96546824D01*
X150595886Y-96393154D01*
X150661736Y-96286513D01*
X150739253Y-96214003D01*
X150762460Y-96199341D01*
X150905058Y-96157797D01*
X151060953Y-96175144D01*
G37*
G36*
X150235720Y-93904200D02*
G01*
X150373165Y-93964108D01*
X150435974Y-94000659D01*
X150580972Y-94126196D01*
X150705705Y-94285451D01*
X150785421Y-94449295D01*
X150811993Y-94534196D01*
X150955161Y-94459572D01*
X150986369Y-94444819D01*
X151117767Y-94397219D01*
X151277403Y-94352619D01*
X151432057Y-94319581D01*
X151548506Y-94306666D01*
X151548650Y-94306668D01*
X151541569Y-94329932D01*
X151487814Y-94390355D01*
X151398935Y-94474938D01*
X151312801Y-94559545D01*
X151202701Y-94686598D01*
X151124867Y-94798590D01*
X151037763Y-94953970D01*
X151211772Y-94951339D01*
X151324027Y-94957072D01*
X151402272Y-94975292D01*
X151429945Y-95000567D01*
X151393898Y-95027403D01*
X151374206Y-95035927D01*
X151293213Y-95082659D01*
X151191270Y-95150817D01*
X151089950Y-95224873D01*
X151010825Y-95289301D01*
X150975467Y-95328574D01*
X150994364Y-95361909D01*
X151062806Y-95424715D01*
X151165370Y-95500287D01*
X151177611Y-95508704D01*
X151316679Y-95626004D01*
X151444533Y-95769682D01*
X151553906Y-95926335D01*
X151637531Y-96082564D01*
X151688141Y-96224965D01*
X151698467Y-96340139D01*
X151661243Y-96414683D01*
X151640137Y-96428895D01*
X151604025Y-96429688D01*
X151566717Y-96382536D01*
X151515519Y-96275295D01*
X151403045Y-96070416D01*
X151221642Y-95858724D01*
X151008484Y-95705646D01*
X150773776Y-95611182D01*
X150527724Y-95575332D01*
X150280533Y-95598096D01*
X150042408Y-95679475D01*
X149823554Y-95819467D01*
X149634177Y-96018074D01*
X149484481Y-96275295D01*
X149455198Y-96339685D01*
X149412976Y-96414050D01*
X149377783Y-96434962D01*
X149336612Y-96414683D01*
X149307106Y-96388496D01*
X149291903Y-96348860D01*
X149302951Y-96281998D01*
X149340608Y-96165478D01*
X149418506Y-95980222D01*
X149591837Y-95717297D01*
X149818875Y-95507143D01*
X150003658Y-95374176D01*
X149918000Y-95282997D01*
X149832341Y-95191818D01*
X149992989Y-95191818D01*
X150033431Y-95190742D01*
X150119389Y-95179012D01*
X150153637Y-95158523D01*
X150133696Y-95099809D01*
X150056398Y-95010192D01*
X149936347Y-94919169D01*
X149790139Y-94841229D01*
X149694197Y-94797003D01*
X149609777Y-94751458D01*
X149577021Y-94724143D01*
X149579612Y-94716096D01*
X149629277Y-94683118D01*
X149722649Y-94650200D01*
X149834122Y-94625053D01*
X149938092Y-94615390D01*
X149968754Y-94617429D01*
X150091307Y-94643468D01*
X150219237Y-94689696D01*
X150294334Y-94723140D01*
X150357416Y-94743626D01*
X150387309Y-94731243D01*
X150405696Y-94685505D01*
X150415581Y-94583180D01*
X150391075Y-94426964D01*
X150335429Y-94253509D01*
X150256571Y-94086765D01*
X150162431Y-93950681D01*
X150131074Y-93902027D01*
X150153825Y-93883430D01*
X150235720Y-93904200D01*
G37*
%TD*%
D22*
%TO.P,J1,MH1,MH1*%
%TO.N,GND*%
X139710000Y-46110000D03*
%TO.P,J1,MH2,MH2*%
X139710000Y-54750000D03*
D23*
%TO.P,J1,MH3,MH3*%
X135910000Y-46110000D03*
%TO.P,J1,MH4,MH4*%
X135910000Y-54750000D03*
%TD*%
D24*
%TO.P,J2,1,P1*%
%TO.N,unconnected-(J2-P1-Pad1)*%
X139970000Y-109710000D03*
%TO.P,J2,2,P2*%
%TO.N,unconnected-(J2-P2-Pad2)*%
X139970000Y-112250000D03*
%TO.P,J2,3,P3*%
%TO.N,unconnected-(J2-P3-Pad3)*%
X142510000Y-109710000D03*
%TO.P,J2,4,P4*%
%TO.N,unconnected-(J2-P4-Pad4)*%
X142510000Y-112250000D03*
%TO.P,J2,5,+12V*%
%TO.N,+5V*%
X145050000Y-109710000D03*
%TO.P,J2,6,P6*%
X145050000Y-112250000D03*
%TO.P,J2,7,12V*%
%TO.N,+12V*%
X147590000Y-109710000D03*
%TO.P,J2,8,+12V*%
X147590000Y-112250000D03*
%TO.P,J2,9,GND*%
%TO.N,GND*%
X150130000Y-109710000D03*
%TO.P,J2,10,GND*%
X150130000Y-112250000D03*
%TO.P,J2,11,GND*%
X152670000Y-109710000D03*
%TO.P,J2,12,GND*%
X152670000Y-112250000D03*
%TO.P,J2,13,-12*%
X155210000Y-109710000D03*
%TO.P,J2,14,-12V*%
X155210000Y-112250000D03*
%TO.P,J2,15,-12V*%
%TO.N,-12V*%
X157750000Y-109710000D03*
%TO.P,J2,16,P16*%
X157750000Y-112250000D03*
%TD*%
D25*
%TO.P,D2,1,K*%
%TO.N,GND*%
X137750000Y-101460000D03*
D26*
%TO.P,D2,2,A*%
%TO.N,Net-(D2-A)*%
X137750000Y-104000000D03*
%TD*%
D27*
%TO.P,J6,1,1*%
%TO.N,Net-(J1-VBUS_1)*%
X159750000Y-48750000D03*
D28*
%TO.P,J6,2,2*%
%TO.N,+5V*%
X159750000Y-46210000D03*
%TD*%
%TO.P,PS1,1,+VIN*%
%TO.N,/+Vin*%
X152000000Y-63250000D03*
%TO.P,PS1,2,-VIN*%
%TO.N,GND*%
X146920000Y-63250000D03*
%TO.P,PS1,3,+VOUT*%
%TO.N,+12V*%
X159620000Y-83570000D03*
%TO.P,PS1,4,COMMON*%
%TO.N,GND*%
X149460000Y-83570000D03*
%TO.P,PS1,5,-VOUT*%
%TO.N,-12V*%
X139300000Y-83570000D03*
%TO.P,PS1,6,R.C.*%
%TO.N,unconnected-(PS1-R.C.-Pad6)*%
X139300000Y-63250000D03*
%TD*%
D25*
%TO.P,D4,1,K*%
%TO.N,Net-(D4-K)*%
X137750000Y-95710000D03*
D26*
%TO.P,D4,2,A*%
%TO.N,GND*%
X137750000Y-98250000D03*
%TD*%
D24*
%TO.P,J3,1,P1*%
%TO.N,unconnected-(J3-P1-Pad1)*%
X139970000Y-125000000D03*
%TO.P,J3,2,P2*%
%TO.N,unconnected-(J3-P2-Pad2)*%
X139970000Y-127540000D03*
%TO.P,J3,3,P3*%
%TO.N,unconnected-(J3-P3-Pad3)*%
X142510000Y-125000000D03*
%TO.P,J3,4,P4*%
%TO.N,unconnected-(J3-P4-Pad4)*%
X142510000Y-127540000D03*
%TO.P,J3,5,+12V*%
%TO.N,+5V*%
X145050000Y-125000000D03*
%TO.P,J3,6,P6*%
X145050000Y-127540000D03*
%TO.P,J3,7,12V*%
%TO.N,+12V*%
X147590000Y-125000000D03*
%TO.P,J3,8,+12V*%
X147590000Y-127540000D03*
%TO.P,J3,9,GND*%
%TO.N,GND*%
X150130000Y-125000000D03*
%TO.P,J3,10,GND*%
X150130000Y-127540000D03*
%TO.P,J3,11,GND*%
X152670000Y-125000000D03*
%TO.P,J3,12,GND*%
X152670000Y-127540000D03*
%TO.P,J3,13,-12*%
X155210000Y-125000000D03*
%TO.P,J3,14,-12V*%
X155210000Y-127540000D03*
%TO.P,J3,15,-12V*%
%TO.N,-12V*%
X157750000Y-125000000D03*
%TO.P,J3,16,P16*%
X157750000Y-127540000D03*
%TD*%
D25*
%TO.P,D3,1,K*%
%TO.N,GND*%
X137750000Y-89960000D03*
D26*
%TO.P,D3,2,A*%
%TO.N,Net-(D3-A)*%
X137750000Y-92500000D03*
%TD*%
D29*
%TO.N,GND*%
X144500000Y-41750000D03*
X141500000Y-55750000D03*
X155210000Y-121500000D03*
X140000000Y-90000000D03*
X135910000Y-50250000D03*
X139250000Y-118750000D03*
X152500000Y-97500000D03*
X150130000Y-116250000D03*
X161500000Y-97500000D03*
X146920000Y-69000000D03*
X153000000Y-56775000D03*
X140250000Y-99750000D03*
X152670000Y-118750000D03*
X149460000Y-76500000D03*
X141500000Y-45250000D03*
X147850000Y-44750000D03*
%TD*%
%TA.AperFunction,Conductor*%
%TO.N,GND*%
G36*
X149710667Y-125173694D02*
G01*
X149769910Y-125276306D01*
X149853694Y-125360090D01*
X149956306Y-125419333D01*
X150041415Y-125442138D01*
X149385822Y-126097730D01*
X149385822Y-126097731D01*
X149435285Y-126133669D01*
X149486010Y-126159515D01*
X149536806Y-126207490D01*
X149553601Y-126275310D01*
X149531064Y-126341445D01*
X149486010Y-126380485D01*
X149435285Y-126406330D01*
X149385822Y-126442268D01*
X149385821Y-126442268D01*
X150041415Y-127097861D01*
X149956306Y-127120667D01*
X149853694Y-127179910D01*
X149769910Y-127263694D01*
X149710667Y-127366306D01*
X149687861Y-127451414D01*
X149032268Y-126795821D01*
X149032268Y-126795822D01*
X148996330Y-126845285D01*
X148970765Y-126895460D01*
X148922790Y-126946256D01*
X148854969Y-126963051D01*
X148788834Y-126940513D01*
X148749795Y-126895460D01*
X148724229Y-126845285D01*
X148724097Y-126845025D01*
X148601416Y-126676169D01*
X148453831Y-126528584D01*
X148284975Y-126405903D01*
X148235088Y-126380484D01*
X148184293Y-126332511D01*
X148167498Y-126264690D01*
X148190035Y-126198555D01*
X148235089Y-126159515D01*
X148284975Y-126134097D01*
X148453831Y-126011416D01*
X148601416Y-125863831D01*
X148724097Y-125694975D01*
X148749795Y-125644540D01*
X148797769Y-125593743D01*
X148865590Y-125576948D01*
X148931725Y-125599485D01*
X148970765Y-125644540D01*
X148996328Y-125694711D01*
X148996328Y-125694712D01*
X149032268Y-125744176D01*
X149687861Y-125088584D01*
X149710667Y-125173694D01*
G37*
%TD.AperFunction*%
%TA.AperFunction,Conductor*%
G36*
X152250667Y-125173694D02*
G01*
X152309910Y-125276306D01*
X152393694Y-125360090D01*
X152496306Y-125419333D01*
X152581415Y-125442138D01*
X151925822Y-126097730D01*
X151925822Y-126097731D01*
X151975285Y-126133669D01*
X152026010Y-126159515D01*
X152076806Y-126207490D01*
X152093601Y-126275310D01*
X152071064Y-126341445D01*
X152026010Y-126380485D01*
X151975285Y-126406330D01*
X151925822Y-126442268D01*
X151925821Y-126442268D01*
X152581415Y-127097861D01*
X152496306Y-127120667D01*
X152393694Y-127179910D01*
X152309910Y-127263694D01*
X152250667Y-127366306D01*
X152227861Y-127451414D01*
X151572268Y-126795821D01*
X151572268Y-126795822D01*
X151536330Y-126845285D01*
X151510485Y-126896010D01*
X151462510Y-126946806D01*
X151394690Y-126963601D01*
X151328555Y-126941064D01*
X151289515Y-126896010D01*
X151263669Y-126845285D01*
X151227730Y-126795822D01*
X150572138Y-127451414D01*
X150549333Y-127366306D01*
X150490090Y-127263694D01*
X150406306Y-127179910D01*
X150303694Y-127120667D01*
X150218584Y-127097861D01*
X150874176Y-126442268D01*
X150874176Y-126442267D01*
X150824711Y-126406328D01*
X150773990Y-126380485D01*
X150723194Y-126332511D01*
X150706398Y-126264690D01*
X150728935Y-126198555D01*
X150773990Y-126159515D01*
X150824705Y-126133674D01*
X150824708Y-126133672D01*
X150874176Y-126097730D01*
X150218584Y-125442138D01*
X150303694Y-125419333D01*
X150406306Y-125360090D01*
X150490090Y-125276306D01*
X150549333Y-125173694D01*
X150572138Y-125088584D01*
X151227730Y-125744176D01*
X151263672Y-125694708D01*
X151263674Y-125694705D01*
X151289515Y-125643990D01*
X151337489Y-125593194D01*
X151405310Y-125576398D01*
X151471445Y-125598935D01*
X151510485Y-125643990D01*
X151536328Y-125694711D01*
X151536328Y-125694712D01*
X151572268Y-125744176D01*
X152227861Y-125088584D01*
X152250667Y-125173694D01*
G37*
%TD.AperFunction*%
%TA.AperFunction,Conductor*%
G36*
X154790667Y-125173694D02*
G01*
X154849910Y-125276306D01*
X154933694Y-125360090D01*
X155036306Y-125419333D01*
X155121415Y-125442138D01*
X154465822Y-126097730D01*
X154465822Y-126097731D01*
X154515285Y-126133669D01*
X154566010Y-126159515D01*
X154616806Y-126207490D01*
X154633601Y-126275310D01*
X154611064Y-126341445D01*
X154566010Y-126380485D01*
X154515285Y-126406330D01*
X154465822Y-126442268D01*
X154465821Y-126442268D01*
X155121415Y-127097861D01*
X155036306Y-127120667D01*
X154933694Y-127179910D01*
X154849910Y-127263694D01*
X154790667Y-127366306D01*
X154767861Y-127451414D01*
X154112268Y-126795821D01*
X154112268Y-126795822D01*
X154076330Y-126845285D01*
X154050485Y-126896010D01*
X154002510Y-126946806D01*
X153934690Y-126963601D01*
X153868555Y-126941064D01*
X153829515Y-126896010D01*
X153803669Y-126845285D01*
X153767730Y-126795822D01*
X153112138Y-127451414D01*
X153089333Y-127366306D01*
X153030090Y-127263694D01*
X152946306Y-127179910D01*
X152843694Y-127120667D01*
X152758584Y-127097861D01*
X153414176Y-126442268D01*
X153414176Y-126442267D01*
X153364711Y-126406328D01*
X153313990Y-126380485D01*
X153263194Y-126332511D01*
X153246398Y-126264690D01*
X153268935Y-126198555D01*
X153313990Y-126159515D01*
X153364705Y-126133674D01*
X153364708Y-126133672D01*
X153414176Y-126097730D01*
X152758584Y-125442138D01*
X152843694Y-125419333D01*
X152946306Y-125360090D01*
X153030090Y-125276306D01*
X153089333Y-125173694D01*
X153112138Y-125088584D01*
X153767730Y-125744176D01*
X153803672Y-125694708D01*
X153803674Y-125694705D01*
X153829515Y-125643990D01*
X153877489Y-125593194D01*
X153945310Y-125576398D01*
X154011445Y-125598935D01*
X154050485Y-125643990D01*
X154076328Y-125694711D01*
X154076328Y-125694712D01*
X154112268Y-125744176D01*
X154767861Y-125088584D01*
X154790667Y-125173694D01*
G37*
%TD.AperFunction*%
%TA.AperFunction,Conductor*%
G36*
X156307730Y-125744176D02*
G01*
X156343671Y-125694709D01*
X156369233Y-125644541D01*
X156417207Y-125593744D01*
X156485027Y-125576948D01*
X156551163Y-125599484D01*
X156590203Y-125644538D01*
X156615767Y-125694709D01*
X156615903Y-125694975D01*
X156738584Y-125863831D01*
X156886169Y-126011416D01*
X157012811Y-126103426D01*
X157055026Y-126134098D01*
X157104911Y-126159516D01*
X157155706Y-126207490D01*
X157172501Y-126275311D01*
X157149963Y-126341446D01*
X157104911Y-126380484D01*
X157055026Y-126405901D01*
X156886166Y-126528586D01*
X156738586Y-126676166D01*
X156615903Y-126845024D01*
X156590203Y-126895462D01*
X156542228Y-126946257D01*
X156474406Y-126963051D01*
X156408272Y-126940512D01*
X156369234Y-126895459D01*
X156343671Y-126845288D01*
X156343671Y-126845287D01*
X156307730Y-126795822D01*
X155652138Y-127451414D01*
X155629333Y-127366306D01*
X155570090Y-127263694D01*
X155486306Y-127179910D01*
X155383694Y-127120667D01*
X155298584Y-127097861D01*
X155954176Y-126442268D01*
X155954176Y-126442267D01*
X155904711Y-126406328D01*
X155853990Y-126380485D01*
X155803194Y-126332511D01*
X155786398Y-126264690D01*
X155808935Y-126198555D01*
X155853990Y-126159515D01*
X155904705Y-126133674D01*
X155904708Y-126133672D01*
X155954176Y-126097730D01*
X155298584Y-125442138D01*
X155383694Y-125419333D01*
X155486306Y-125360090D01*
X155570090Y-125276306D01*
X155629333Y-125173694D01*
X155652138Y-125088584D01*
X156307730Y-125744176D01*
G37*
%TD.AperFunction*%
%TA.AperFunction,Conductor*%
G36*
X149710667Y-109883694D02*
G01*
X149769910Y-109986306D01*
X149853694Y-110070090D01*
X149956306Y-110129333D01*
X150041415Y-110152138D01*
X149385822Y-110807730D01*
X149385822Y-110807731D01*
X149435285Y-110843669D01*
X149486010Y-110869515D01*
X149536806Y-110917490D01*
X149553601Y-110985310D01*
X149531064Y-111051445D01*
X149486010Y-111090485D01*
X149435285Y-111116330D01*
X149385822Y-111152268D01*
X149385821Y-111152268D01*
X150041415Y-111807861D01*
X149956306Y-111830667D01*
X149853694Y-111889910D01*
X149769910Y-111973694D01*
X149710667Y-112076306D01*
X149687861Y-112161414D01*
X149032268Y-111505821D01*
X149032268Y-111505822D01*
X148996330Y-111555285D01*
X148970765Y-111605460D01*
X148922790Y-111656256D01*
X148854969Y-111673051D01*
X148788834Y-111650513D01*
X148749795Y-111605460D01*
X148724229Y-111555285D01*
X148724097Y-111555025D01*
X148601416Y-111386169D01*
X148453831Y-111238584D01*
X148284975Y-111115903D01*
X148235088Y-111090484D01*
X148184293Y-111042511D01*
X148167498Y-110974690D01*
X148190035Y-110908555D01*
X148235089Y-110869515D01*
X148284975Y-110844097D01*
X148453831Y-110721416D01*
X148601416Y-110573831D01*
X148724097Y-110404975D01*
X148749795Y-110354540D01*
X148797769Y-110303743D01*
X148865590Y-110286948D01*
X148931725Y-110309485D01*
X148970765Y-110354540D01*
X148996328Y-110404711D01*
X148996328Y-110404712D01*
X149032268Y-110454176D01*
X149687861Y-109798584D01*
X149710667Y-109883694D01*
G37*
%TD.AperFunction*%
%TA.AperFunction,Conductor*%
G36*
X152250667Y-109883694D02*
G01*
X152309910Y-109986306D01*
X152393694Y-110070090D01*
X152496306Y-110129333D01*
X152581415Y-110152138D01*
X151925822Y-110807730D01*
X151925822Y-110807731D01*
X151975285Y-110843669D01*
X152026010Y-110869515D01*
X152076806Y-110917490D01*
X152093601Y-110985310D01*
X152071064Y-111051445D01*
X152026010Y-111090485D01*
X151975285Y-111116330D01*
X151925822Y-111152268D01*
X151925821Y-111152268D01*
X152581415Y-111807861D01*
X152496306Y-111830667D01*
X152393694Y-111889910D01*
X152309910Y-111973694D01*
X152250667Y-112076306D01*
X152227861Y-112161414D01*
X151572268Y-111505821D01*
X151572268Y-111505822D01*
X151536330Y-111555285D01*
X151510485Y-111606010D01*
X151462510Y-111656806D01*
X151394690Y-111673601D01*
X151328555Y-111651064D01*
X151289515Y-111606010D01*
X151263669Y-111555285D01*
X151227730Y-111505822D01*
X150572138Y-112161414D01*
X150549333Y-112076306D01*
X150490090Y-111973694D01*
X150406306Y-111889910D01*
X150303694Y-111830667D01*
X150218584Y-111807861D01*
X150874176Y-111152268D01*
X150874176Y-111152267D01*
X150824711Y-111116328D01*
X150773990Y-111090485D01*
X150723194Y-111042511D01*
X150706398Y-110974690D01*
X150728935Y-110908555D01*
X150773990Y-110869515D01*
X150824705Y-110843674D01*
X150824708Y-110843672D01*
X150874176Y-110807730D01*
X150218584Y-110152138D01*
X150303694Y-110129333D01*
X150406306Y-110070090D01*
X150490090Y-109986306D01*
X150549333Y-109883694D01*
X150572138Y-109798584D01*
X151227730Y-110454176D01*
X151263672Y-110404708D01*
X151263674Y-110404705D01*
X151289515Y-110353990D01*
X151337489Y-110303194D01*
X151405310Y-110286398D01*
X151471445Y-110308935D01*
X151510485Y-110353990D01*
X151536328Y-110404711D01*
X151536328Y-110404712D01*
X151572268Y-110454176D01*
X152227861Y-109798584D01*
X152250667Y-109883694D01*
G37*
%TD.AperFunction*%
%TA.AperFunction,Conductor*%
G36*
X154790667Y-109883694D02*
G01*
X154849910Y-109986306D01*
X154933694Y-110070090D01*
X155036306Y-110129333D01*
X155121415Y-110152138D01*
X154465822Y-110807730D01*
X154465822Y-110807731D01*
X154515285Y-110843669D01*
X154566010Y-110869515D01*
X154616806Y-110917490D01*
X154633601Y-110985310D01*
X154611064Y-111051445D01*
X154566010Y-111090485D01*
X154515285Y-111116330D01*
X154465822Y-111152268D01*
X154465821Y-111152268D01*
X155121415Y-111807861D01*
X155036306Y-111830667D01*
X154933694Y-111889910D01*
X154849910Y-111973694D01*
X154790667Y-112076306D01*
X154767861Y-112161414D01*
X154112268Y-111505821D01*
X154112268Y-111505822D01*
X154076330Y-111555285D01*
X154050485Y-111606010D01*
X154002510Y-111656806D01*
X153934690Y-111673601D01*
X153868555Y-111651064D01*
X153829515Y-111606010D01*
X153803669Y-111555285D01*
X153767730Y-111505822D01*
X153112138Y-112161414D01*
X153089333Y-112076306D01*
X153030090Y-111973694D01*
X152946306Y-111889910D01*
X152843694Y-111830667D01*
X152758584Y-111807861D01*
X153414176Y-111152268D01*
X153414176Y-111152267D01*
X153364711Y-111116328D01*
X153313990Y-111090485D01*
X153263194Y-111042511D01*
X153246398Y-110974690D01*
X153268935Y-110908555D01*
X153313990Y-110869515D01*
X153364705Y-110843674D01*
X153364708Y-110843672D01*
X153414176Y-110807730D01*
X152758584Y-110152138D01*
X152843694Y-110129333D01*
X152946306Y-110070090D01*
X153030090Y-109986306D01*
X153089333Y-109883694D01*
X153112138Y-109798584D01*
X153767730Y-110454176D01*
X153803672Y-110404708D01*
X153803674Y-110404705D01*
X153829515Y-110353990D01*
X153877489Y-110303194D01*
X153945310Y-110286398D01*
X154011445Y-110308935D01*
X154050485Y-110353990D01*
X154076328Y-110404711D01*
X154076328Y-110404712D01*
X154112268Y-110454176D01*
X154767861Y-109798584D01*
X154790667Y-109883694D01*
G37*
%TD.AperFunction*%
%TA.AperFunction,Conductor*%
G36*
X156307730Y-110454176D02*
G01*
X156343671Y-110404709D01*
X156369233Y-110354541D01*
X156417207Y-110303744D01*
X156485027Y-110286948D01*
X156551163Y-110309484D01*
X156590203Y-110354538D01*
X156615767Y-110404709D01*
X156615903Y-110404975D01*
X156738584Y-110573831D01*
X156886169Y-110721416D01*
X157012811Y-110813426D01*
X157055026Y-110844098D01*
X157104911Y-110869516D01*
X157155706Y-110917490D01*
X157172501Y-110985311D01*
X157149963Y-111051446D01*
X157104911Y-111090484D01*
X157055026Y-111115901D01*
X156886166Y-111238586D01*
X156738586Y-111386166D01*
X156615903Y-111555024D01*
X156590203Y-111605462D01*
X156542228Y-111656257D01*
X156474406Y-111673051D01*
X156408272Y-111650512D01*
X156369234Y-111605459D01*
X156343671Y-111555288D01*
X156343671Y-111555287D01*
X156307730Y-111505822D01*
X155652138Y-112161414D01*
X155629333Y-112076306D01*
X155570090Y-111973694D01*
X155486306Y-111889910D01*
X155383694Y-111830667D01*
X155298584Y-111807861D01*
X155954176Y-111152268D01*
X155954176Y-111152267D01*
X155904711Y-111116328D01*
X155853990Y-111090485D01*
X155803194Y-111042511D01*
X155786398Y-110974690D01*
X155808935Y-110908555D01*
X155853990Y-110869515D01*
X155904705Y-110843674D01*
X155904708Y-110843672D01*
X155954176Y-110807730D01*
X155298584Y-110152138D01*
X155383694Y-110129333D01*
X155486306Y-110070090D01*
X155570090Y-109986306D01*
X155629333Y-109883694D01*
X155652138Y-109798584D01*
X156307730Y-110454176D01*
G37*
%TD.AperFunction*%
%TA.AperFunction,Conductor*%
G36*
X163692539Y-38270185D02*
G01*
X163738294Y-38322989D01*
X163749500Y-38374500D01*
X163749500Y-137125500D01*
X163729815Y-137192539D01*
X163677011Y-137238294D01*
X163625500Y-137249500D01*
X134874500Y-137249500D01*
X134807461Y-137229815D01*
X134761706Y-137177011D01*
X134750500Y-137125500D01*
X134750500Y-134612332D01*
X137149500Y-134612332D01*
X137149500Y-134887667D01*
X137149501Y-134887684D01*
X137185438Y-135160655D01*
X137185439Y-135160660D01*
X137185440Y-135160666D01*
X137185441Y-135160668D01*
X137256704Y-135426630D01*
X137362075Y-135681017D01*
X137362080Y-135681028D01*
X137441809Y-135819121D01*
X137499751Y-135919479D01*
X137499753Y-135919482D01*
X137499754Y-135919483D01*
X137667370Y-136137926D01*
X137667376Y-136137933D01*
X137862066Y-136332623D01*
X137862072Y-136332628D01*
X138080521Y-136500249D01*
X138233778Y-136588732D01*
X138318971Y-136637919D01*
X138318976Y-136637921D01*
X138318979Y-136637923D01*
X138573368Y-136743295D01*
X138839334Y-136814560D01*
X139112326Y-136850500D01*
X139112333Y-136850500D01*
X139387667Y-136850500D01*
X139387674Y-136850500D01*
X139660666Y-136814560D01*
X139926632Y-136743295D01*
X140181021Y-136637923D01*
X140419479Y-136500249D01*
X140637928Y-136332628D01*
X140832628Y-136137928D01*
X141000249Y-135919479D01*
X141137923Y-135681021D01*
X141243295Y-135426632D01*
X141314560Y-135160666D01*
X141350500Y-134887674D01*
X141350500Y-134612332D01*
X157149500Y-134612332D01*
X157149500Y-134887667D01*
X157149501Y-134887684D01*
X157185438Y-135160655D01*
X157185439Y-135160660D01*
X157185440Y-135160666D01*
X157185441Y-135160668D01*
X157256704Y-135426630D01*
X157362075Y-135681017D01*
X157362080Y-135681028D01*
X157441809Y-135819121D01*
X157499751Y-135919479D01*
X157499753Y-135919482D01*
X157499754Y-135919483D01*
X157667370Y-136137926D01*
X157667376Y-136137933D01*
X157862066Y-136332623D01*
X157862072Y-136332628D01*
X158080521Y-136500249D01*
X158233778Y-136588732D01*
X158318971Y-136637919D01*
X158318976Y-136637921D01*
X158318979Y-136637923D01*
X158573368Y-136743295D01*
X158839334Y-136814560D01*
X159112326Y-136850500D01*
X159112333Y-136850500D01*
X159387667Y-136850500D01*
X159387674Y-136850500D01*
X159660666Y-136814560D01*
X159926632Y-136743295D01*
X160181021Y-136637923D01*
X160419479Y-136500249D01*
X160637928Y-136332628D01*
X160832628Y-136137928D01*
X161000249Y-135919479D01*
X161137923Y-135681021D01*
X161243295Y-135426632D01*
X161314560Y-135160666D01*
X161350500Y-134887674D01*
X161350500Y-134612326D01*
X161314560Y-134339334D01*
X161243295Y-134073368D01*
X161137923Y-133818979D01*
X161137921Y-133818976D01*
X161137919Y-133818971D01*
X161088732Y-133733778D01*
X161000249Y-133580521D01*
X160832628Y-133362072D01*
X160832623Y-133362066D01*
X160637933Y-133167376D01*
X160637926Y-133167370D01*
X160419483Y-132999754D01*
X160419482Y-132999753D01*
X160419479Y-132999751D01*
X160324407Y-132944861D01*
X160181028Y-132862080D01*
X160181017Y-132862075D01*
X159926630Y-132756704D01*
X159793649Y-132721072D01*
X159660666Y-132685440D01*
X159660660Y-132685439D01*
X159660655Y-132685438D01*
X159387684Y-132649501D01*
X159387679Y-132649500D01*
X159387674Y-132649500D01*
X159112326Y-132649500D01*
X159112320Y-132649500D01*
X159112315Y-132649501D01*
X158839344Y-132685438D01*
X158839337Y-132685439D01*
X158839334Y-132685440D01*
X158783125Y-132700500D01*
X158573369Y-132756704D01*
X158318982Y-132862075D01*
X158318971Y-132862080D01*
X158080516Y-132999754D01*
X157862073Y-133167370D01*
X157862066Y-133167376D01*
X157667376Y-133362066D01*
X157667370Y-133362073D01*
X157499754Y-133580516D01*
X157362080Y-133818971D01*
X157362075Y-133818982D01*
X157256704Y-134073369D01*
X157185441Y-134339331D01*
X157185438Y-134339344D01*
X157149501Y-134612315D01*
X157149500Y-134612332D01*
X141350500Y-134612332D01*
X141350500Y-134612326D01*
X141314560Y-134339334D01*
X141243295Y-134073368D01*
X141137923Y-133818979D01*
X141137921Y-133818976D01*
X141137919Y-133818971D01*
X141088732Y-133733778D01*
X141000249Y-133580521D01*
X140832628Y-133362072D01*
X140832623Y-133362066D01*
X140637933Y-133167376D01*
X140637926Y-133167370D01*
X140419483Y-132999754D01*
X140419482Y-132999753D01*
X140419479Y-132999751D01*
X140324407Y-132944861D01*
X140181028Y-132862080D01*
X140181017Y-132862075D01*
X139926630Y-132756704D01*
X139793649Y-132721072D01*
X139660666Y-132685440D01*
X139660660Y-132685439D01*
X139660655Y-132685438D01*
X139387684Y-132649501D01*
X139387679Y-132649500D01*
X139387674Y-132649500D01*
X139112326Y-132649500D01*
X139112320Y-132649500D01*
X139112315Y-132649501D01*
X138839344Y-132685438D01*
X138839337Y-132685439D01*
X138839334Y-132685440D01*
X138783125Y-132700500D01*
X138573369Y-132756704D01*
X138318982Y-132862075D01*
X138318971Y-132862080D01*
X138080516Y-132999754D01*
X137862073Y-133167370D01*
X137862066Y-133167376D01*
X137667376Y-133362066D01*
X137667370Y-133362073D01*
X137499754Y-133580516D01*
X137362080Y-133818971D01*
X137362075Y-133818982D01*
X137256704Y-134073369D01*
X137185441Y-134339331D01*
X137185438Y-134339344D01*
X137149501Y-134612315D01*
X137149500Y-134612332D01*
X134750500Y-134612332D01*
X134750500Y-124895642D01*
X138644000Y-124895642D01*
X138644000Y-125104357D01*
X138676650Y-125310506D01*
X138741149Y-125509011D01*
X138810485Y-125645089D01*
X138835903Y-125694975D01*
X138958584Y-125863831D01*
X139106169Y-126011416D01*
X139232811Y-126103426D01*
X139275026Y-126134098D01*
X139324911Y-126159516D01*
X139375706Y-126207490D01*
X139392501Y-126275311D01*
X139369963Y-126341446D01*
X139324911Y-126380484D01*
X139275026Y-126405901D01*
X139106166Y-126528586D01*
X138958586Y-126676166D01*
X138835903Y-126845024D01*
X138741149Y-127030988D01*
X138676650Y-127229493D01*
X138644000Y-127435642D01*
X138644000Y-127644357D01*
X138676650Y-127850506D01*
X138741149Y-128049011D01*
X138810485Y-128185089D01*
X138835903Y-128234975D01*
X138958584Y-128403831D01*
X139106169Y-128551416D01*
X139275025Y-128674097D01*
X139362888Y-128718865D01*
X139460988Y-128768850D01*
X139460990Y-128768850D01*
X139460993Y-128768852D01*
X139567394Y-128803424D01*
X139659493Y-128833349D01*
X139762568Y-128849674D01*
X139865642Y-128866000D01*
X139865643Y-128866000D01*
X140074357Y-128866000D01*
X140074358Y-128866000D01*
X140280506Y-128833349D01*
X140479007Y-128768852D01*
X140664975Y-128674097D01*
X140833831Y-128551416D01*
X140981416Y-128403831D01*
X141104097Y-128234975D01*
X141129515Y-128185088D01*
X141177489Y-128134293D01*
X141245310Y-128117498D01*
X141311445Y-128140035D01*
X141350484Y-128185088D01*
X141375903Y-128234975D01*
X141498584Y-128403831D01*
X141646169Y-128551416D01*
X141815025Y-128674097D01*
X141902888Y-128718865D01*
X142000988Y-128768850D01*
X142000990Y-128768850D01*
X142000993Y-128768852D01*
X142107394Y-128803424D01*
X142199493Y-128833349D01*
X142302568Y-128849674D01*
X142405642Y-128866000D01*
X142405643Y-128866000D01*
X142614357Y-128866000D01*
X142614358Y-128866000D01*
X142820506Y-128833349D01*
X143019007Y-128768852D01*
X143204975Y-128674097D01*
X143373831Y-128551416D01*
X143521416Y-128403831D01*
X143644097Y-128234975D01*
X143669515Y-128185088D01*
X143717489Y-128134293D01*
X143785310Y-128117498D01*
X143851445Y-128140035D01*
X143890484Y-128185088D01*
X143915903Y-128234975D01*
X144038584Y-128403831D01*
X144186169Y-128551416D01*
X144355025Y-128674097D01*
X144442888Y-128718865D01*
X144540988Y-128768850D01*
X144540990Y-128768850D01*
X144540993Y-128768852D01*
X144647394Y-128803424D01*
X144739493Y-128833349D01*
X144842568Y-128849674D01*
X144945642Y-128866000D01*
X144945643Y-128866000D01*
X145154357Y-128866000D01*
X145154358Y-128866000D01*
X145360506Y-128833349D01*
X145559007Y-128768852D01*
X145744975Y-128674097D01*
X145913831Y-128551416D01*
X146061416Y-128403831D01*
X146184097Y-128234975D01*
X146209515Y-128185088D01*
X146257489Y-128134293D01*
X146325310Y-128117498D01*
X146391445Y-128140035D01*
X146430484Y-128185088D01*
X146455903Y-128234975D01*
X146578584Y-128403831D01*
X146726169Y-128551416D01*
X146895025Y-128674097D01*
X146982888Y-128718865D01*
X147080988Y-128768850D01*
X147080990Y-128768850D01*
X147080993Y-128768852D01*
X147187394Y-128803424D01*
X147279493Y-128833349D01*
X147382568Y-128849674D01*
X147485642Y-128866000D01*
X147485643Y-128866000D01*
X147694357Y-128866000D01*
X147694358Y-128866000D01*
X147900506Y-128833349D01*
X148099007Y-128768852D01*
X148284975Y-128674097D01*
X148453831Y-128551416D01*
X148601416Y-128403831D01*
X148724097Y-128234975D01*
X148749795Y-128184540D01*
X148797769Y-128133743D01*
X148865590Y-128116948D01*
X148931725Y-128139485D01*
X148970765Y-128184540D01*
X148996328Y-128234711D01*
X148996328Y-128234712D01*
X149032268Y-128284176D01*
X149687861Y-127628584D01*
X149710667Y-127713694D01*
X149769910Y-127816306D01*
X149853694Y-127900090D01*
X149956306Y-127959333D01*
X150041415Y-127982138D01*
X149385822Y-128637730D01*
X149385822Y-128637731D01*
X149435285Y-128673669D01*
X149621179Y-128768387D01*
X149819610Y-128832862D01*
X150025676Y-128865500D01*
X150234324Y-128865500D01*
X150440389Y-128832862D01*
X150638820Y-128768387D01*
X150824709Y-128673672D01*
X150874176Y-128637730D01*
X150218584Y-127982138D01*
X150303694Y-127959333D01*
X150406306Y-127900090D01*
X150490090Y-127816306D01*
X150549333Y-127713694D01*
X150572138Y-127628584D01*
X151227730Y-128284176D01*
X151263672Y-128234708D01*
X151263674Y-128234705D01*
X151289515Y-128183990D01*
X151337489Y-128133194D01*
X151405310Y-128116398D01*
X151471445Y-128138935D01*
X151510485Y-128183990D01*
X151536328Y-128234711D01*
X151536328Y-128234712D01*
X151572268Y-128284176D01*
X152227861Y-127628584D01*
X152250667Y-127713694D01*
X152309910Y-127816306D01*
X152393694Y-127900090D01*
X152496306Y-127959333D01*
X152581415Y-127982138D01*
X151925822Y-128637730D01*
X151925822Y-128637731D01*
X151975285Y-128673669D01*
X152161179Y-128768387D01*
X152359610Y-128832862D01*
X152565676Y-128865500D01*
X152774324Y-128865500D01*
X152980389Y-128832862D01*
X153178820Y-128768387D01*
X153364709Y-128673672D01*
X153414176Y-128637730D01*
X152758584Y-127982138D01*
X152843694Y-127959333D01*
X152946306Y-127900090D01*
X153030090Y-127816306D01*
X153089333Y-127713694D01*
X153112138Y-127628584D01*
X153767730Y-128284176D01*
X153803672Y-128234708D01*
X153803674Y-128234705D01*
X153829515Y-128183990D01*
X153877489Y-128133194D01*
X153945310Y-128116398D01*
X154011445Y-128138935D01*
X154050485Y-128183990D01*
X154076328Y-128234711D01*
X154076328Y-128234712D01*
X154112268Y-128284176D01*
X154767861Y-127628584D01*
X154790667Y-127713694D01*
X154849910Y-127816306D01*
X154933694Y-127900090D01*
X155036306Y-127959333D01*
X155121415Y-127982138D01*
X154465822Y-128637730D01*
X154465822Y-128637731D01*
X154515285Y-128673669D01*
X154701179Y-128768387D01*
X154899610Y-128832862D01*
X155105676Y-128865500D01*
X155314324Y-128865500D01*
X155520389Y-128832862D01*
X155718820Y-128768387D01*
X155904709Y-128673672D01*
X155954176Y-128637730D01*
X155298584Y-127982138D01*
X155383694Y-127959333D01*
X155486306Y-127900090D01*
X155570090Y-127816306D01*
X155629333Y-127713694D01*
X155652138Y-127628584D01*
X156307730Y-128284176D01*
X156343671Y-128234709D01*
X156369233Y-128184541D01*
X156417207Y-128133744D01*
X156485027Y-128116948D01*
X156551163Y-128139484D01*
X156590203Y-128184538D01*
X156615767Y-128234709D01*
X156615903Y-128234975D01*
X156738584Y-128403831D01*
X156886169Y-128551416D01*
X157055025Y-128674097D01*
X157142888Y-128718865D01*
X157240988Y-128768850D01*
X157240990Y-128768850D01*
X157240993Y-128768852D01*
X157347394Y-128803424D01*
X157439493Y-128833349D01*
X157542568Y-128849674D01*
X157645642Y-128866000D01*
X157645643Y-128866000D01*
X157854357Y-128866000D01*
X157854358Y-128866000D01*
X158060506Y-128833349D01*
X158259007Y-128768852D01*
X158444975Y-128674097D01*
X158613831Y-128551416D01*
X158761416Y-128403831D01*
X158884097Y-128234975D01*
X158978852Y-128049007D01*
X159043349Y-127850506D01*
X159076000Y-127644358D01*
X159076000Y-127435642D01*
X159043349Y-127229494D01*
X158978852Y-127030993D01*
X158978850Y-127030990D01*
X158978850Y-127030988D01*
X158884229Y-126845285D01*
X158884097Y-126845025D01*
X158761416Y-126676169D01*
X158613831Y-126528584D01*
X158444975Y-126405903D01*
X158395088Y-126380484D01*
X158344293Y-126332511D01*
X158327498Y-126264690D01*
X158350035Y-126198555D01*
X158395089Y-126159515D01*
X158444975Y-126134097D01*
X158613831Y-126011416D01*
X158761416Y-125863831D01*
X158884097Y-125694975D01*
X158978852Y-125509007D01*
X159043349Y-125310506D01*
X159076000Y-125104358D01*
X159076000Y-124895642D01*
X159043349Y-124689494D01*
X158978852Y-124490993D01*
X158978850Y-124490990D01*
X158978850Y-124490988D01*
X158884229Y-124305285D01*
X158884097Y-124305025D01*
X158761416Y-124136169D01*
X158613831Y-123988584D01*
X158444975Y-123865903D01*
X158259011Y-123771149D01*
X158060506Y-123706650D01*
X157882543Y-123678464D01*
X157854358Y-123674000D01*
X157645642Y-123674000D01*
X157620846Y-123677927D01*
X157439493Y-123706650D01*
X157240988Y-123771149D01*
X157055024Y-123865903D01*
X156886166Y-123988586D01*
X156738586Y-124136166D01*
X156615903Y-124305024D01*
X156590203Y-124355462D01*
X156542228Y-124406257D01*
X156474406Y-124423051D01*
X156408272Y-124400512D01*
X156369234Y-124355459D01*
X156343671Y-124305288D01*
X156343671Y-124305287D01*
X156307730Y-124255822D01*
X155652138Y-124911414D01*
X155629333Y-124826306D01*
X155570090Y-124723694D01*
X155486306Y-124639910D01*
X155383694Y-124580667D01*
X155298584Y-124557861D01*
X155954176Y-123902268D01*
X155954176Y-123902267D01*
X155904714Y-123866330D01*
X155718820Y-123771612D01*
X155520389Y-123707137D01*
X155314324Y-123674500D01*
X155105676Y-123674500D01*
X154899610Y-123707137D01*
X154701179Y-123771612D01*
X154515285Y-123866330D01*
X154465822Y-123902268D01*
X154465821Y-123902268D01*
X155121415Y-124557861D01*
X155036306Y-124580667D01*
X154933694Y-124639910D01*
X154849910Y-124723694D01*
X154790667Y-124826306D01*
X154767861Y-124911414D01*
X154112268Y-124255821D01*
X154112268Y-124255822D01*
X154076330Y-124305285D01*
X154050485Y-124356010D01*
X154002510Y-124406806D01*
X153934690Y-124423601D01*
X153868555Y-124401064D01*
X153829515Y-124356010D01*
X153803669Y-124305285D01*
X153767730Y-124255822D01*
X153112138Y-124911414D01*
X153089333Y-124826306D01*
X153030090Y-124723694D01*
X152946306Y-124639910D01*
X152843694Y-124580667D01*
X152758584Y-124557861D01*
X153414176Y-123902268D01*
X153414176Y-123902267D01*
X153364714Y-123866330D01*
X153178820Y-123771612D01*
X152980389Y-123707137D01*
X152774324Y-123674500D01*
X152565676Y-123674500D01*
X152359610Y-123707137D01*
X152161179Y-123771612D01*
X151975285Y-123866330D01*
X151925822Y-123902268D01*
X151925821Y-123902268D01*
X152581415Y-124557861D01*
X152496306Y-124580667D01*
X152393694Y-124639910D01*
X152309910Y-124723694D01*
X152250667Y-124826306D01*
X152227861Y-124911414D01*
X151572268Y-124255821D01*
X151572268Y-124255822D01*
X151536330Y-124305285D01*
X151510485Y-124356010D01*
X151462510Y-124406806D01*
X151394690Y-124423601D01*
X151328555Y-124401064D01*
X151289515Y-124356010D01*
X151263669Y-124305285D01*
X151227730Y-124255822D01*
X150572138Y-124911414D01*
X150549333Y-124826306D01*
X150490090Y-124723694D01*
X150406306Y-124639910D01*
X150303694Y-124580667D01*
X150218584Y-124557861D01*
X150874176Y-123902268D01*
X150874176Y-123902267D01*
X150824714Y-123866330D01*
X150638820Y-123771612D01*
X150440389Y-123707137D01*
X150234324Y-123674500D01*
X150025676Y-123674500D01*
X149819610Y-123707137D01*
X149621179Y-123771612D01*
X149435285Y-123866330D01*
X149385822Y-123902268D01*
X149385821Y-123902268D01*
X150041415Y-124557861D01*
X149956306Y-124580667D01*
X149853694Y-124639910D01*
X149769910Y-124723694D01*
X149710667Y-124826306D01*
X149687861Y-124911414D01*
X149032268Y-124255821D01*
X149032268Y-124255822D01*
X148996330Y-124305285D01*
X148970765Y-124355460D01*
X148922790Y-124406256D01*
X148854969Y-124423051D01*
X148788834Y-124400513D01*
X148749795Y-124355460D01*
X148724229Y-124305285D01*
X148724097Y-124305025D01*
X148601416Y-124136169D01*
X148453831Y-123988584D01*
X148284975Y-123865903D01*
X148099011Y-123771149D01*
X147900506Y-123706650D01*
X147722543Y-123678464D01*
X147694358Y-123674000D01*
X147485642Y-123674000D01*
X147460846Y-123677927D01*
X147279493Y-123706650D01*
X147080988Y-123771149D01*
X146895024Y-123865903D01*
X146726166Y-123988586D01*
X146578586Y-124136166D01*
X146455901Y-124305026D01*
X146430484Y-124354911D01*
X146382510Y-124405706D01*
X146314689Y-124422501D01*
X146248554Y-124399963D01*
X146209516Y-124354911D01*
X146184098Y-124305026D01*
X146148348Y-124255821D01*
X146061416Y-124136169D01*
X145913831Y-123988584D01*
X145744975Y-123865903D01*
X145559011Y-123771149D01*
X145360506Y-123706650D01*
X145182543Y-123678464D01*
X145154358Y-123674000D01*
X144945642Y-123674000D01*
X144920846Y-123677927D01*
X144739493Y-123706650D01*
X144540988Y-123771149D01*
X144355024Y-123865903D01*
X144186166Y-123988586D01*
X144038586Y-124136166D01*
X143915901Y-124305026D01*
X143890484Y-124354911D01*
X143842510Y-124405706D01*
X143774689Y-124422501D01*
X143708554Y-124399963D01*
X143669516Y-124354911D01*
X143644098Y-124305026D01*
X143608348Y-124255821D01*
X143521416Y-124136169D01*
X143373831Y-123988584D01*
X143204975Y-123865903D01*
X143019011Y-123771149D01*
X142820506Y-123706650D01*
X142642543Y-123678464D01*
X142614358Y-123674000D01*
X142405642Y-123674000D01*
X142380846Y-123677927D01*
X142199493Y-123706650D01*
X142000988Y-123771149D01*
X141815024Y-123865903D01*
X141646166Y-123988586D01*
X141498586Y-124136166D01*
X141375901Y-124305026D01*
X141350484Y-124354911D01*
X141302510Y-124405706D01*
X141234689Y-124422501D01*
X141168554Y-124399963D01*
X141129516Y-124354911D01*
X141104098Y-124305026D01*
X141068348Y-124255821D01*
X140981416Y-124136169D01*
X140833831Y-123988584D01*
X140664975Y-123865903D01*
X140479011Y-123771149D01*
X140280506Y-123706650D01*
X140102543Y-123678464D01*
X140074358Y-123674000D01*
X139865642Y-123674000D01*
X139840846Y-123677927D01*
X139659493Y-123706650D01*
X139460988Y-123771149D01*
X139275024Y-123865903D01*
X139106166Y-123988586D01*
X138958586Y-124136166D01*
X138835903Y-124305024D01*
X138741149Y-124490988D01*
X138676650Y-124689493D01*
X138644000Y-124895642D01*
X134750500Y-124895642D01*
X134750500Y-109605642D01*
X138644000Y-109605642D01*
X138644000Y-109814357D01*
X138676650Y-110020506D01*
X138741149Y-110219011D01*
X138810485Y-110355089D01*
X138835903Y-110404975D01*
X138958584Y-110573831D01*
X139106169Y-110721416D01*
X139232811Y-110813426D01*
X139275026Y-110844098D01*
X139324911Y-110869516D01*
X139375706Y-110917490D01*
X139392501Y-110985311D01*
X139369963Y-111051446D01*
X139324911Y-111090484D01*
X139275026Y-111115901D01*
X139106166Y-111238586D01*
X138958586Y-111386166D01*
X138835903Y-111555024D01*
X138741149Y-111740988D01*
X138676650Y-111939493D01*
X138644000Y-112145642D01*
X138644000Y-112354357D01*
X138676650Y-112560506D01*
X138741149Y-112759011D01*
X138810485Y-112895089D01*
X138835903Y-112944975D01*
X138958584Y-113113831D01*
X139106169Y-113261416D01*
X139275025Y-113384097D01*
X139362888Y-113428865D01*
X139460988Y-113478850D01*
X139460990Y-113478850D01*
X139460993Y-113478852D01*
X139567394Y-113513424D01*
X139659493Y-113543349D01*
X139762568Y-113559674D01*
X139865642Y-113576000D01*
X139865643Y-113576000D01*
X140074357Y-113576000D01*
X140074358Y-113576000D01*
X140280506Y-113543349D01*
X140479007Y-113478852D01*
X140664975Y-113384097D01*
X140833831Y-113261416D01*
X140981416Y-113113831D01*
X141104097Y-112944975D01*
X141129515Y-112895088D01*
X141177489Y-112844293D01*
X141245310Y-112827498D01*
X141311445Y-112850035D01*
X141350484Y-112895088D01*
X141375903Y-112944975D01*
X141498584Y-113113831D01*
X141646169Y-113261416D01*
X141815025Y-113384097D01*
X141902888Y-113428865D01*
X142000988Y-113478850D01*
X142000990Y-113478850D01*
X142000993Y-113478852D01*
X142107394Y-113513424D01*
X142199493Y-113543349D01*
X142302568Y-113559674D01*
X142405642Y-113576000D01*
X142405643Y-113576000D01*
X142614357Y-113576000D01*
X142614358Y-113576000D01*
X142820506Y-113543349D01*
X143019007Y-113478852D01*
X143204975Y-113384097D01*
X143373831Y-113261416D01*
X143521416Y-113113831D01*
X143644097Y-112944975D01*
X143669515Y-112895088D01*
X143717489Y-112844293D01*
X143785310Y-112827498D01*
X143851445Y-112850035D01*
X143890484Y-112895088D01*
X143915903Y-112944975D01*
X144038584Y-113113831D01*
X144186169Y-113261416D01*
X144355025Y-113384097D01*
X144442888Y-113428865D01*
X144540988Y-113478850D01*
X144540990Y-113478850D01*
X144540993Y-113478852D01*
X144647394Y-113513424D01*
X144739493Y-113543349D01*
X144842568Y-113559674D01*
X144945642Y-113576000D01*
X144945643Y-113576000D01*
X145154357Y-113576000D01*
X145154358Y-113576000D01*
X145360506Y-113543349D01*
X145559007Y-113478852D01*
X145744975Y-113384097D01*
X145913831Y-113261416D01*
X146061416Y-113113831D01*
X146184097Y-112944975D01*
X146209515Y-112895088D01*
X146257489Y-112844293D01*
X146325310Y-112827498D01*
X146391445Y-112850035D01*
X146430484Y-112895088D01*
X146455903Y-112944975D01*
X146578584Y-113113831D01*
X146726169Y-113261416D01*
X146895025Y-113384097D01*
X146982888Y-113428865D01*
X147080988Y-113478850D01*
X147080990Y-113478850D01*
X147080993Y-113478852D01*
X147187394Y-113513424D01*
X147279493Y-113543349D01*
X147382568Y-113559674D01*
X147485642Y-113576000D01*
X147485643Y-113576000D01*
X147694357Y-113576000D01*
X147694358Y-113576000D01*
X147900506Y-113543349D01*
X148099007Y-113478852D01*
X148284975Y-113384097D01*
X148453831Y-113261416D01*
X148601416Y-113113831D01*
X148724097Y-112944975D01*
X148749795Y-112894540D01*
X148797769Y-112843743D01*
X148865590Y-112826948D01*
X148931725Y-112849485D01*
X148970765Y-112894540D01*
X148996328Y-112944711D01*
X148996328Y-112944712D01*
X149032268Y-112994176D01*
X149687861Y-112338584D01*
X149710667Y-112423694D01*
X149769910Y-112526306D01*
X149853694Y-112610090D01*
X149956306Y-112669333D01*
X150041415Y-112692138D01*
X149385822Y-113347730D01*
X149385822Y-113347731D01*
X149435285Y-113383669D01*
X149621179Y-113478387D01*
X149819610Y-113542862D01*
X150025676Y-113575500D01*
X150234324Y-113575500D01*
X150440389Y-113542862D01*
X150638820Y-113478387D01*
X150824709Y-113383672D01*
X150874176Y-113347730D01*
X150218584Y-112692138D01*
X150303694Y-112669333D01*
X150406306Y-112610090D01*
X150490090Y-112526306D01*
X150549333Y-112423694D01*
X150572138Y-112338584D01*
X151227730Y-112994176D01*
X151263672Y-112944708D01*
X151263674Y-112944705D01*
X151289515Y-112893990D01*
X151337489Y-112843194D01*
X151405310Y-112826398D01*
X151471445Y-112848935D01*
X151510485Y-112893990D01*
X151536328Y-112944711D01*
X151536328Y-112944712D01*
X151572268Y-112994176D01*
X152227861Y-112338584D01*
X152250667Y-112423694D01*
X152309910Y-112526306D01*
X152393694Y-112610090D01*
X152496306Y-112669333D01*
X152581415Y-112692138D01*
X151925822Y-113347730D01*
X151925822Y-113347731D01*
X151975285Y-113383669D01*
X152161179Y-113478387D01*
X152359610Y-113542862D01*
X152565676Y-113575500D01*
X152774324Y-113575500D01*
X152980389Y-113542862D01*
X153178820Y-113478387D01*
X153364709Y-113383672D01*
X153414176Y-113347730D01*
X152758584Y-112692138D01*
X152843694Y-112669333D01*
X152946306Y-112610090D01*
X153030090Y-112526306D01*
X153089333Y-112423694D01*
X153112138Y-112338584D01*
X153767730Y-112994176D01*
X153803672Y-112944708D01*
X153803674Y-112944705D01*
X153829515Y-112893990D01*
X153877489Y-112843194D01*
X153945310Y-112826398D01*
X154011445Y-112848935D01*
X154050485Y-112893990D01*
X154076328Y-112944711D01*
X154076328Y-112944712D01*
X154112268Y-112994176D01*
X154767861Y-112338584D01*
X154790667Y-112423694D01*
X154849910Y-112526306D01*
X154933694Y-112610090D01*
X155036306Y-112669333D01*
X155121415Y-112692138D01*
X154465822Y-113347730D01*
X154465822Y-113347731D01*
X154515285Y-113383669D01*
X154701179Y-113478387D01*
X154899610Y-113542862D01*
X155105676Y-113575500D01*
X155314324Y-113575500D01*
X155520389Y-113542862D01*
X155718820Y-113478387D01*
X155904709Y-113383672D01*
X155954176Y-113347730D01*
X155298584Y-112692138D01*
X155383694Y-112669333D01*
X155486306Y-112610090D01*
X155570090Y-112526306D01*
X155629333Y-112423694D01*
X155652138Y-112338584D01*
X156307730Y-112994176D01*
X156343671Y-112944709D01*
X156369233Y-112894541D01*
X156417207Y-112843744D01*
X156485027Y-112826948D01*
X156551163Y-112849484D01*
X156590203Y-112894538D01*
X156615767Y-112944709D01*
X156615903Y-112944975D01*
X156738584Y-113113831D01*
X156886169Y-113261416D01*
X157055025Y-113384097D01*
X157142888Y-113428865D01*
X157240988Y-113478850D01*
X157240990Y-113478850D01*
X157240993Y-113478852D01*
X157347394Y-113513424D01*
X157439493Y-113543349D01*
X157542568Y-113559674D01*
X157645642Y-113576000D01*
X157645643Y-113576000D01*
X157854357Y-113576000D01*
X157854358Y-113576000D01*
X158060506Y-113543349D01*
X158259007Y-113478852D01*
X158444975Y-113384097D01*
X158613831Y-113261416D01*
X158761416Y-113113831D01*
X158884097Y-112944975D01*
X158978852Y-112759007D01*
X159043349Y-112560506D01*
X159076000Y-112354358D01*
X159076000Y-112145642D01*
X159043349Y-111939494D01*
X158978852Y-111740993D01*
X158978850Y-111740990D01*
X158978850Y-111740988D01*
X158884229Y-111555285D01*
X158884097Y-111555025D01*
X158761416Y-111386169D01*
X158613831Y-111238584D01*
X158444975Y-111115903D01*
X158395088Y-111090484D01*
X158344293Y-111042511D01*
X158327498Y-110974690D01*
X158350035Y-110908555D01*
X158395089Y-110869515D01*
X158444975Y-110844097D01*
X158613831Y-110721416D01*
X158761416Y-110573831D01*
X158884097Y-110404975D01*
X158978852Y-110219007D01*
X159043349Y-110020506D01*
X159076000Y-109814358D01*
X159076000Y-109605642D01*
X159043349Y-109399494D01*
X158978852Y-109200993D01*
X158978850Y-109200990D01*
X158978850Y-109200988D01*
X158884229Y-109015285D01*
X158884097Y-109015025D01*
X158761416Y-108846169D01*
X158613831Y-108698584D01*
X158444975Y-108575903D01*
X158259011Y-108481149D01*
X158060506Y-108416650D01*
X157882543Y-108388464D01*
X157854358Y-108384000D01*
X157645642Y-108384000D01*
X157620846Y-108387927D01*
X157439493Y-108416650D01*
X157240988Y-108481149D01*
X157055024Y-108575903D01*
X156886166Y-108698586D01*
X156738586Y-108846166D01*
X156615903Y-109015024D01*
X156590203Y-109065462D01*
X156542228Y-109116257D01*
X156474406Y-109133051D01*
X156408272Y-109110512D01*
X156369234Y-109065459D01*
X156343671Y-109015288D01*
X156343671Y-109015287D01*
X156307730Y-108965822D01*
X155652138Y-109621414D01*
X155629333Y-109536306D01*
X155570090Y-109433694D01*
X155486306Y-109349910D01*
X155383694Y-109290667D01*
X155298584Y-109267861D01*
X155954176Y-108612268D01*
X155954176Y-108612267D01*
X155904714Y-108576330D01*
X155718820Y-108481612D01*
X155520389Y-108417137D01*
X155314324Y-108384500D01*
X155105676Y-108384500D01*
X154899610Y-108417137D01*
X154701179Y-108481612D01*
X154515285Y-108576330D01*
X154465822Y-108612268D01*
X154465821Y-108612268D01*
X155121415Y-109267861D01*
X155036306Y-109290667D01*
X154933694Y-109349910D01*
X154849910Y-109433694D01*
X154790667Y-109536306D01*
X154767861Y-109621414D01*
X154112268Y-108965821D01*
X154112268Y-108965822D01*
X154076330Y-109015285D01*
X154050485Y-109066010D01*
X154002510Y-109116806D01*
X153934690Y-109133601D01*
X153868555Y-109111064D01*
X153829515Y-109066010D01*
X153803669Y-109015285D01*
X153767730Y-108965822D01*
X153112138Y-109621414D01*
X153089333Y-109536306D01*
X153030090Y-109433694D01*
X152946306Y-109349910D01*
X152843694Y-109290667D01*
X152758584Y-109267861D01*
X153414176Y-108612268D01*
X153414176Y-108612267D01*
X153364714Y-108576330D01*
X153178820Y-108481612D01*
X152980389Y-108417137D01*
X152774324Y-108384500D01*
X152565676Y-108384500D01*
X152359610Y-108417137D01*
X152161179Y-108481612D01*
X151975285Y-108576330D01*
X151925822Y-108612268D01*
X151925821Y-108612268D01*
X152581415Y-109267861D01*
X152496306Y-109290667D01*
X152393694Y-109349910D01*
X152309910Y-109433694D01*
X152250667Y-109536306D01*
X152227861Y-109621414D01*
X151572268Y-108965821D01*
X151572268Y-108965822D01*
X151536330Y-109015285D01*
X151510485Y-109066010D01*
X151462510Y-109116806D01*
X151394690Y-109133601D01*
X151328555Y-109111064D01*
X151289515Y-109066010D01*
X151263669Y-109015285D01*
X151227730Y-108965822D01*
X150572138Y-109621414D01*
X150549333Y-109536306D01*
X150490090Y-109433694D01*
X150406306Y-109349910D01*
X150303694Y-109290667D01*
X150218584Y-109267861D01*
X150874176Y-108612268D01*
X150874176Y-108612267D01*
X150824714Y-108576330D01*
X150638820Y-108481612D01*
X150440389Y-108417137D01*
X150234324Y-108384500D01*
X150025676Y-108384500D01*
X149819610Y-108417137D01*
X149621179Y-108481612D01*
X149435285Y-108576330D01*
X149385822Y-108612268D01*
X149385821Y-108612268D01*
X150041415Y-109267861D01*
X149956306Y-109290667D01*
X149853694Y-109349910D01*
X149769910Y-109433694D01*
X149710667Y-109536306D01*
X149687861Y-109621414D01*
X149032268Y-108965821D01*
X149032268Y-108965822D01*
X148996330Y-109015285D01*
X148970765Y-109065460D01*
X148922790Y-109116256D01*
X148854969Y-109133051D01*
X148788834Y-109110513D01*
X148749795Y-109065460D01*
X148724229Y-109015285D01*
X148724097Y-109015025D01*
X148601416Y-108846169D01*
X148453831Y-108698584D01*
X148284975Y-108575903D01*
X148099011Y-108481149D01*
X147900506Y-108416650D01*
X147722543Y-108388464D01*
X147694358Y-108384000D01*
X147485642Y-108384000D01*
X147460846Y-108387927D01*
X147279493Y-108416650D01*
X147080988Y-108481149D01*
X146895024Y-108575903D01*
X146726166Y-108698586D01*
X146578586Y-108846166D01*
X146455901Y-109015026D01*
X146430484Y-109064911D01*
X146382510Y-109115706D01*
X146314689Y-109132501D01*
X146248554Y-109109963D01*
X146209516Y-109064911D01*
X146184098Y-109015026D01*
X146148348Y-108965821D01*
X146061416Y-108846169D01*
X145913831Y-108698584D01*
X145744975Y-108575903D01*
X145559011Y-108481149D01*
X145360506Y-108416650D01*
X145182543Y-108388464D01*
X145154358Y-108384000D01*
X144945642Y-108384000D01*
X144920846Y-108387927D01*
X144739493Y-108416650D01*
X144540988Y-108481149D01*
X144355024Y-108575903D01*
X144186166Y-108698586D01*
X144038586Y-108846166D01*
X143915901Y-109015026D01*
X143890484Y-109064911D01*
X143842510Y-109115706D01*
X143774689Y-109132501D01*
X143708554Y-109109963D01*
X143669516Y-109064911D01*
X143644098Y-109015026D01*
X143608348Y-108965821D01*
X143521416Y-108846169D01*
X143373831Y-108698584D01*
X143204975Y-108575903D01*
X143019011Y-108481149D01*
X142820506Y-108416650D01*
X142642543Y-108388464D01*
X142614358Y-108384000D01*
X142405642Y-108384000D01*
X142380846Y-108387927D01*
X142199493Y-108416650D01*
X142000988Y-108481149D01*
X141815024Y-108575903D01*
X141646166Y-108698586D01*
X141498586Y-108846166D01*
X141375901Y-109015026D01*
X141350484Y-109064911D01*
X141302510Y-109115706D01*
X141234689Y-109132501D01*
X141168554Y-109109963D01*
X141129516Y-109064911D01*
X141104098Y-109015026D01*
X141068348Y-108965821D01*
X140981416Y-108846169D01*
X140833831Y-108698584D01*
X140664975Y-108575903D01*
X140479011Y-108481149D01*
X140280506Y-108416650D01*
X140102543Y-108388464D01*
X140074358Y-108384000D01*
X139865642Y-108384000D01*
X139840846Y-108387927D01*
X139659493Y-108416650D01*
X139460988Y-108481149D01*
X139275024Y-108575903D01*
X139106166Y-108698586D01*
X138958586Y-108846166D01*
X138835903Y-109015024D01*
X138741149Y-109200988D01*
X138676650Y-109399493D01*
X138644000Y-109605642D01*
X134750500Y-109605642D01*
X134750500Y-103889778D01*
X136349500Y-103889778D01*
X136349500Y-104110221D01*
X136383985Y-104327952D01*
X136452103Y-104537603D01*
X136452104Y-104537606D01*
X136552187Y-104734025D01*
X136681752Y-104912358D01*
X136681756Y-104912363D01*
X136837636Y-105068243D01*
X136837641Y-105068247D01*
X136993192Y-105181260D01*
X137015978Y-105197815D01*
X137144375Y-105263237D01*
X137212393Y-105297895D01*
X137212396Y-105297896D01*
X137317221Y-105331955D01*
X137422049Y-105366015D01*
X137639778Y-105400500D01*
X137639779Y-105400500D01*
X137860221Y-105400500D01*
X137860222Y-105400500D01*
X138077951Y-105366015D01*
X138287606Y-105297895D01*
X138484022Y-105197815D01*
X138662365Y-105068242D01*
X138818242Y-104912365D01*
X138947815Y-104734022D01*
X139047895Y-104537606D01*
X139116015Y-104327951D01*
X139150500Y-104110222D01*
X139150500Y-103889778D01*
X139116015Y-103672049D01*
X139047895Y-103462394D01*
X139047895Y-103462393D01*
X139013237Y-103394375D01*
X138947815Y-103265978D01*
X138931260Y-103243192D01*
X138818247Y-103087641D01*
X138818243Y-103087636D01*
X138767683Y-103037076D01*
X138734198Y-102975753D01*
X138739182Y-102906061D01*
X138781054Y-102850128D01*
X138812031Y-102833213D01*
X138892086Y-102803354D01*
X138892093Y-102803350D01*
X139007187Y-102717190D01*
X139007190Y-102717187D01*
X139093350Y-102602093D01*
X139093354Y-102602086D01*
X139143596Y-102467379D01*
X139143598Y-102467372D01*
X139149999Y-102407844D01*
X139150000Y-102407827D01*
X139150000Y-101710000D01*
X138125278Y-101710000D01*
X138169333Y-101633694D01*
X138200000Y-101519244D01*
X138200000Y-101400756D01*
X138169333Y-101286306D01*
X138125278Y-101210000D01*
X139150000Y-101210000D01*
X139150000Y-100512172D01*
X139149999Y-100512155D01*
X139143598Y-100452627D01*
X139143596Y-100452620D01*
X139093354Y-100317913D01*
X139093350Y-100317906D01*
X139007190Y-100202812D01*
X139007187Y-100202809D01*
X138892093Y-100116649D01*
X138892086Y-100116645D01*
X138757379Y-100066403D01*
X138757372Y-100066401D01*
X138697844Y-100060000D01*
X138000000Y-100060000D01*
X138000000Y-101084722D01*
X137923694Y-101040667D01*
X137809244Y-101010000D01*
X137690756Y-101010000D01*
X137576306Y-101040667D01*
X137500000Y-101084722D01*
X137500000Y-100060000D01*
X136802155Y-100060000D01*
X136742627Y-100066401D01*
X136742620Y-100066403D01*
X136607913Y-100116645D01*
X136607906Y-100116649D01*
X136492812Y-100202809D01*
X136492809Y-100202812D01*
X136406649Y-100317906D01*
X136406645Y-100317913D01*
X136356403Y-100452620D01*
X136356401Y-100452627D01*
X136350000Y-100512155D01*
X136350000Y-101210000D01*
X137374722Y-101210000D01*
X137330667Y-101286306D01*
X137300000Y-101400756D01*
X137300000Y-101519244D01*
X137330667Y-101633694D01*
X137374722Y-101710000D01*
X136350000Y-101710000D01*
X136350000Y-102407844D01*
X136356401Y-102467372D01*
X136356403Y-102467379D01*
X136406645Y-102602086D01*
X136406649Y-102602093D01*
X136492809Y-102717187D01*
X136492812Y-102717190D01*
X136607906Y-102803350D01*
X136607913Y-102803354D01*
X136687968Y-102833213D01*
X136743902Y-102875084D01*
X136768319Y-102940549D01*
X136753467Y-103008822D01*
X136732317Y-103037075D01*
X136681756Y-103087636D01*
X136681752Y-103087641D01*
X136552187Y-103265974D01*
X136452104Y-103462393D01*
X136452103Y-103462396D01*
X136383985Y-103672047D01*
X136349500Y-103889778D01*
X134750500Y-103889778D01*
X134750500Y-94762135D01*
X136349500Y-94762135D01*
X136349500Y-96657870D01*
X136349501Y-96657876D01*
X136355908Y-96717483D01*
X136406202Y-96852328D01*
X136406206Y-96852335D01*
X136492452Y-96967544D01*
X136492455Y-96967547D01*
X136607664Y-97053793D01*
X136607671Y-97053797D01*
X136652618Y-97070561D01*
X136742517Y-97104091D01*
X136802127Y-97110500D01*
X136912693Y-97110499D01*
X136979730Y-97130183D01*
X137000372Y-97146818D01*
X137661415Y-97807861D01*
X137576306Y-97830667D01*
X137473694Y-97889910D01*
X137389910Y-97973694D01*
X137330667Y-98076306D01*
X137307861Y-98161414D01*
X136598932Y-97452485D01*
X136598931Y-97452485D01*
X136552616Y-97516233D01*
X136452567Y-97712589D01*
X136384473Y-97922164D01*
X136350000Y-98139818D01*
X136350000Y-98360181D01*
X136384473Y-98577835D01*
X136452567Y-98787410D01*
X136552611Y-98983756D01*
X136598932Y-99047513D01*
X137307861Y-98338584D01*
X137330667Y-98423694D01*
X137389910Y-98526306D01*
X137473694Y-98610090D01*
X137576306Y-98669333D01*
X137661414Y-98692137D01*
X136952485Y-99401065D01*
X136952485Y-99401066D01*
X137016243Y-99447388D01*
X137212589Y-99547432D01*
X137422164Y-99615526D01*
X137639819Y-99650000D01*
X137860181Y-99650000D01*
X138077835Y-99615526D01*
X138287410Y-99547432D01*
X138483760Y-99447386D01*
X138547513Y-99401066D01*
X138547514Y-99401066D01*
X137838585Y-98692138D01*
X137923694Y-98669333D01*
X138026306Y-98610090D01*
X138110090Y-98526306D01*
X138169333Y-98423694D01*
X138192137Y-98338585D01*
X138901066Y-99047514D01*
X138901066Y-99047513D01*
X138947386Y-98983760D01*
X139047432Y-98787410D01*
X139115526Y-98577835D01*
X139150000Y-98360181D01*
X139150000Y-98139818D01*
X139115526Y-97922164D01*
X139047432Y-97712589D01*
X138947388Y-97516243D01*
X138901066Y-97452485D01*
X138901065Y-97452485D01*
X138192137Y-98161413D01*
X138169333Y-98076306D01*
X138110090Y-97973694D01*
X138026306Y-97889910D01*
X137923694Y-97830667D01*
X137838584Y-97807861D01*
X138499628Y-97146818D01*
X138560951Y-97113333D01*
X138587308Y-97110499D01*
X138697872Y-97110499D01*
X138757483Y-97104091D01*
X138892331Y-97053796D01*
X139007546Y-96967546D01*
X139093796Y-96852331D01*
X139144091Y-96717483D01*
X139150500Y-96657873D01*
X139150499Y-94762128D01*
X139144091Y-94702517D01*
X139093796Y-94567669D01*
X139093795Y-94567668D01*
X139093793Y-94567664D01*
X139007547Y-94452455D01*
X139007544Y-94452452D01*
X138892335Y-94366206D01*
X138892328Y-94366202D01*
X138757482Y-94315908D01*
X138757483Y-94315908D01*
X138697883Y-94309501D01*
X138697881Y-94309500D01*
X138697873Y-94309500D01*
X138697864Y-94309500D01*
X136802129Y-94309500D01*
X136802123Y-94309501D01*
X136742516Y-94315908D01*
X136607671Y-94366202D01*
X136607664Y-94366206D01*
X136492455Y-94452452D01*
X136492452Y-94452455D01*
X136406206Y-94567664D01*
X136406202Y-94567671D01*
X136355908Y-94702517D01*
X136349501Y-94762116D01*
X136349501Y-94762123D01*
X136349500Y-94762135D01*
X134750500Y-94762135D01*
X134750500Y-92389778D01*
X136349500Y-92389778D01*
X136349500Y-92610221D01*
X136383985Y-92827952D01*
X136452103Y-93037603D01*
X136452104Y-93037606D01*
X136552187Y-93234025D01*
X136681752Y-93412358D01*
X136681756Y-93412363D01*
X136837636Y-93568243D01*
X136837641Y-93568247D01*
X136993192Y-93681260D01*
X137015978Y-93697815D01*
X137144375Y-93763237D01*
X137212393Y-93797895D01*
X137212396Y-93797896D01*
X137317221Y-93831955D01*
X137422049Y-93866015D01*
X137639778Y-93900500D01*
X137639779Y-93900500D01*
X137860221Y-93900500D01*
X137860222Y-93900500D01*
X138077951Y-93866015D01*
X138287606Y-93797895D01*
X138484022Y-93697815D01*
X138662365Y-93568242D01*
X138818242Y-93412365D01*
X138947815Y-93234022D01*
X139047895Y-93037606D01*
X139116015Y-92827951D01*
X139150500Y-92610222D01*
X139150500Y-92389778D01*
X139116015Y-92172049D01*
X139047895Y-91962394D01*
X139047895Y-91962393D01*
X139013237Y-91894375D01*
X138947815Y-91765978D01*
X138931260Y-91743192D01*
X138818247Y-91587641D01*
X138818243Y-91587636D01*
X138767683Y-91537076D01*
X138734198Y-91475753D01*
X138739182Y-91406061D01*
X138781054Y-91350128D01*
X138812031Y-91333213D01*
X138892086Y-91303354D01*
X138892093Y-91303350D01*
X139007187Y-91217190D01*
X139007190Y-91217187D01*
X139093350Y-91102093D01*
X139093354Y-91102086D01*
X139143596Y-90967379D01*
X139143598Y-90967372D01*
X139149999Y-90907844D01*
X139150000Y-90907827D01*
X139150000Y-90210000D01*
X138125278Y-90210000D01*
X138169333Y-90133694D01*
X138200000Y-90019244D01*
X138200000Y-89900756D01*
X138169333Y-89786306D01*
X138125278Y-89710000D01*
X139150000Y-89710000D01*
X139150000Y-89012172D01*
X139149999Y-89012155D01*
X139143598Y-88952627D01*
X139143596Y-88952620D01*
X139093354Y-88817913D01*
X139093350Y-88817906D01*
X139007190Y-88702812D01*
X139007187Y-88702809D01*
X138892093Y-88616649D01*
X138892086Y-88616645D01*
X138757379Y-88566403D01*
X138757372Y-88566401D01*
X138697844Y-88560000D01*
X138000000Y-88560000D01*
X138000000Y-89584722D01*
X137923694Y-89540667D01*
X137809244Y-89510000D01*
X137690756Y-89510000D01*
X137576306Y-89540667D01*
X137500000Y-89584722D01*
X137500000Y-88560000D01*
X136802155Y-88560000D01*
X136742627Y-88566401D01*
X136742620Y-88566403D01*
X136607913Y-88616645D01*
X136607906Y-88616649D01*
X136492812Y-88702809D01*
X136492809Y-88702812D01*
X136406649Y-88817906D01*
X136406645Y-88817913D01*
X136356403Y-88952620D01*
X136356401Y-88952627D01*
X136350000Y-89012155D01*
X136350000Y-89710000D01*
X137374722Y-89710000D01*
X137330667Y-89786306D01*
X137300000Y-89900756D01*
X137300000Y-90019244D01*
X137330667Y-90133694D01*
X137374722Y-90210000D01*
X136350000Y-90210000D01*
X136350000Y-90907844D01*
X136356401Y-90967372D01*
X136356403Y-90967379D01*
X136406645Y-91102086D01*
X136406649Y-91102093D01*
X136492809Y-91217187D01*
X136492812Y-91217190D01*
X136607906Y-91303350D01*
X136607913Y-91303354D01*
X136687968Y-91333213D01*
X136743902Y-91375084D01*
X136768319Y-91440549D01*
X136753467Y-91508822D01*
X136732317Y-91537075D01*
X136681756Y-91587636D01*
X136681752Y-91587641D01*
X136552187Y-91765974D01*
X136452104Y-91962393D01*
X136452103Y-91962396D01*
X136383985Y-92172047D01*
X136349500Y-92389778D01*
X134750500Y-92389778D01*
X134750500Y-83453870D01*
X137824500Y-83453870D01*
X137824500Y-83686129D01*
X137860831Y-83915514D01*
X137932601Y-84136400D01*
X138037903Y-84343064D01*
X138038039Y-84343331D01*
X138174551Y-84531224D01*
X138338776Y-84695449D01*
X138526669Y-84831961D01*
X138624436Y-84881776D01*
X138733599Y-84937398D01*
X138733601Y-84937398D01*
X138733604Y-84937400D01*
X138954486Y-85009169D01*
X139072668Y-85027886D01*
X139183871Y-85045500D01*
X139183876Y-85045500D01*
X139416129Y-85045500D01*
X139517502Y-85029443D01*
X139645514Y-85009169D01*
X139866396Y-84937400D01*
X140073331Y-84831961D01*
X140261224Y-84695449D01*
X140425449Y-84531224D01*
X140561961Y-84343331D01*
X140667400Y-84136396D01*
X140739169Y-83915514D01*
X140763863Y-83759598D01*
X140775500Y-83686129D01*
X140775500Y-83453909D01*
X147985000Y-83453909D01*
X147985000Y-83686090D01*
X148021318Y-83915393D01*
X148093065Y-84136205D01*
X148198465Y-84343064D01*
X148255238Y-84421207D01*
X148858958Y-83817487D01*
X148883978Y-83877890D01*
X148955112Y-83984351D01*
X149045649Y-84074888D01*
X149152110Y-84146022D01*
X149212510Y-84171041D01*
X148608791Y-84774759D01*
X148608791Y-84774760D01*
X148686935Y-84831534D01*
X148893794Y-84936934D01*
X149114606Y-85008681D01*
X149343910Y-85045000D01*
X149576090Y-85045000D01*
X149805393Y-85008681D01*
X150026205Y-84936934D01*
X150233071Y-84831530D01*
X150311207Y-84774762D01*
X150311208Y-84774760D01*
X149707488Y-84171041D01*
X149767890Y-84146022D01*
X149874351Y-84074888D01*
X149964888Y-83984351D01*
X150036022Y-83877890D01*
X150061041Y-83817489D01*
X150664760Y-84421208D01*
X150664762Y-84421207D01*
X150721530Y-84343071D01*
X150826934Y-84136205D01*
X150898681Y-83915393D01*
X150935000Y-83686090D01*
X150935000Y-83453909D01*
X150934994Y-83453870D01*
X158144500Y-83453870D01*
X158144500Y-83686129D01*
X158180831Y-83915514D01*
X158252601Y-84136400D01*
X158357903Y-84343064D01*
X158358039Y-84343331D01*
X158494551Y-84531224D01*
X158658776Y-84695449D01*
X158846669Y-84831961D01*
X158944436Y-84881776D01*
X159053599Y-84937398D01*
X159053601Y-84937398D01*
X159053604Y-84937400D01*
X159274486Y-85009169D01*
X159392668Y-85027886D01*
X159503871Y-85045500D01*
X159503876Y-85045500D01*
X159736129Y-85045500D01*
X159837502Y-85029443D01*
X159965514Y-85009169D01*
X160186396Y-84937400D01*
X160393331Y-84831961D01*
X160581224Y-84695449D01*
X160745449Y-84531224D01*
X160881961Y-84343331D01*
X160987400Y-84136396D01*
X161059169Y-83915514D01*
X161083863Y-83759598D01*
X161095500Y-83686129D01*
X161095500Y-83453870D01*
X161076232Y-83332222D01*
X161059169Y-83224486D01*
X160987400Y-83003604D01*
X160987398Y-83003601D01*
X160987398Y-83003599D01*
X160931776Y-82894436D01*
X160881961Y-82796669D01*
X160745449Y-82608776D01*
X160581224Y-82444551D01*
X160393331Y-82308039D01*
X160186400Y-82202601D01*
X159965514Y-82130831D01*
X159736129Y-82094500D01*
X159736124Y-82094500D01*
X159503876Y-82094500D01*
X159503871Y-82094500D01*
X159274485Y-82130831D01*
X159053599Y-82202601D01*
X158846668Y-82308039D01*
X158658773Y-82444553D01*
X158494553Y-82608773D01*
X158358039Y-82796668D01*
X158252601Y-83003599D01*
X158180831Y-83224485D01*
X158144500Y-83453870D01*
X150934994Y-83453870D01*
X150898681Y-83224606D01*
X150826934Y-83003794D01*
X150721534Y-82796935D01*
X150664760Y-82718791D01*
X150664759Y-82718791D01*
X150061041Y-83322510D01*
X150036022Y-83262110D01*
X149964888Y-83155649D01*
X149874351Y-83065112D01*
X149767890Y-82993978D01*
X149707487Y-82968957D01*
X150311207Y-82365238D01*
X150233064Y-82308465D01*
X150026205Y-82203065D01*
X149805393Y-82131318D01*
X149576090Y-82095000D01*
X149343910Y-82095000D01*
X149114606Y-82131318D01*
X148893794Y-82203065D01*
X148686925Y-82308470D01*
X148608791Y-82365237D01*
X148608791Y-82365238D01*
X149212511Y-82968958D01*
X149152110Y-82993978D01*
X149045649Y-83065112D01*
X148955112Y-83155649D01*
X148883978Y-83262110D01*
X148858958Y-83322511D01*
X148255238Y-82718791D01*
X148255237Y-82718791D01*
X148198470Y-82796925D01*
X148093065Y-83003794D01*
X148021318Y-83224606D01*
X147985000Y-83453909D01*
X140775500Y-83453909D01*
X140775500Y-83453870D01*
X140756232Y-83332222D01*
X140739169Y-83224486D01*
X140667400Y-83003604D01*
X140667398Y-83003601D01*
X140667398Y-83003599D01*
X140611776Y-82894436D01*
X140561961Y-82796669D01*
X140425449Y-82608776D01*
X140261224Y-82444551D01*
X140073331Y-82308039D01*
X139866400Y-82202601D01*
X139645514Y-82130831D01*
X139416129Y-82094500D01*
X139416124Y-82094500D01*
X139183876Y-82094500D01*
X139183871Y-82094500D01*
X138954485Y-82130831D01*
X138733599Y-82202601D01*
X138526668Y-82308039D01*
X138338773Y-82444553D01*
X138174553Y-82608773D01*
X138038039Y-82796668D01*
X137932601Y-83003599D01*
X137860831Y-83224485D01*
X137824500Y-83453870D01*
X134750500Y-83453870D01*
X134750500Y-63133870D01*
X137824500Y-63133870D01*
X137824500Y-63366129D01*
X137860831Y-63595514D01*
X137932601Y-63816400D01*
X138037903Y-64023064D01*
X138038039Y-64023331D01*
X138174551Y-64211224D01*
X138338776Y-64375449D01*
X138526669Y-64511961D01*
X138624436Y-64561776D01*
X138733599Y-64617398D01*
X138733601Y-64617398D01*
X138733604Y-64617400D01*
X138954486Y-64689169D01*
X139072668Y-64707886D01*
X139183871Y-64725500D01*
X139183876Y-64725500D01*
X139416129Y-64725500D01*
X139517502Y-64709443D01*
X139645514Y-64689169D01*
X139866396Y-64617400D01*
X140073331Y-64511961D01*
X140261224Y-64375449D01*
X140425449Y-64211224D01*
X140561961Y-64023331D01*
X140667400Y-63816396D01*
X140739169Y-63595514D01*
X140763863Y-63439598D01*
X140775500Y-63366129D01*
X140775500Y-63133909D01*
X145445000Y-63133909D01*
X145445000Y-63366090D01*
X145481318Y-63595393D01*
X145553065Y-63816205D01*
X145658465Y-64023064D01*
X145715238Y-64101207D01*
X146318958Y-63497487D01*
X146343978Y-63557890D01*
X146415112Y-63664351D01*
X146505649Y-63754888D01*
X146612110Y-63826022D01*
X146672510Y-63851041D01*
X146068791Y-64454759D01*
X146068791Y-64454760D01*
X146146935Y-64511534D01*
X146353794Y-64616934D01*
X146574606Y-64688681D01*
X146803910Y-64725000D01*
X147036090Y-64725000D01*
X147265393Y-64688681D01*
X147486205Y-64616934D01*
X147693071Y-64511530D01*
X147771207Y-64454762D01*
X147771208Y-64454760D01*
X147167488Y-63851041D01*
X147227890Y-63826022D01*
X147334351Y-63754888D01*
X147424888Y-63664351D01*
X147496022Y-63557890D01*
X147521041Y-63497489D01*
X148124760Y-64101208D01*
X148124762Y-64101207D01*
X148181530Y-64023071D01*
X148286934Y-63816205D01*
X148358681Y-63595393D01*
X148395000Y-63366090D01*
X148395000Y-63133909D01*
X148394994Y-63133870D01*
X150524500Y-63133870D01*
X150524500Y-63366129D01*
X150560831Y-63595514D01*
X150632601Y-63816400D01*
X150737903Y-64023064D01*
X150738039Y-64023331D01*
X150874551Y-64211224D01*
X151038776Y-64375449D01*
X151226669Y-64511961D01*
X151324436Y-64561776D01*
X151433599Y-64617398D01*
X151433601Y-64617398D01*
X151433604Y-64617400D01*
X151654486Y-64689169D01*
X151772668Y-64707886D01*
X151883871Y-64725500D01*
X151883876Y-64725500D01*
X152116129Y-64725500D01*
X152217502Y-64709443D01*
X152345514Y-64689169D01*
X152566396Y-64617400D01*
X152773331Y-64511961D01*
X152961224Y-64375449D01*
X153125449Y-64211224D01*
X153261961Y-64023331D01*
X153367400Y-63816396D01*
X153439169Y-63595514D01*
X153463863Y-63439598D01*
X153475500Y-63366129D01*
X153475500Y-63133870D01*
X153456232Y-63012222D01*
X153439169Y-62904486D01*
X153367400Y-62683604D01*
X153367398Y-62683601D01*
X153367398Y-62683599D01*
X153311776Y-62574436D01*
X153261961Y-62476669D01*
X153125449Y-62288776D01*
X152961224Y-62124551D01*
X152773331Y-61988039D01*
X152566400Y-61882601D01*
X152345514Y-61810831D01*
X152116129Y-61774500D01*
X152116124Y-61774500D01*
X151883876Y-61774500D01*
X151883871Y-61774500D01*
X151654485Y-61810831D01*
X151433599Y-61882601D01*
X151226668Y-61988039D01*
X151038773Y-62124553D01*
X150874553Y-62288773D01*
X150738039Y-62476668D01*
X150632601Y-62683599D01*
X150560831Y-62904485D01*
X150524500Y-63133870D01*
X148394994Y-63133870D01*
X148358681Y-62904606D01*
X148286934Y-62683794D01*
X148181534Y-62476935D01*
X148124760Y-62398791D01*
X148124759Y-62398791D01*
X147521041Y-63002510D01*
X147496022Y-62942110D01*
X147424888Y-62835649D01*
X147334351Y-62745112D01*
X147227890Y-62673978D01*
X147167487Y-62648957D01*
X147771207Y-62045238D01*
X147693064Y-61988465D01*
X147486205Y-61883065D01*
X147265393Y-61811318D01*
X147036090Y-61775000D01*
X146803910Y-61775000D01*
X146574606Y-61811318D01*
X146353794Y-61883065D01*
X146146925Y-61988470D01*
X146068791Y-62045237D01*
X146068791Y-62045238D01*
X146672511Y-62648958D01*
X146612110Y-62673978D01*
X146505649Y-62745112D01*
X146415112Y-62835649D01*
X146343978Y-62942110D01*
X146318958Y-63002511D01*
X145715238Y-62398791D01*
X145715237Y-62398791D01*
X145658470Y-62476925D01*
X145553065Y-62683794D01*
X145481318Y-62904606D01*
X145445000Y-63133909D01*
X140775500Y-63133909D01*
X140775500Y-63133870D01*
X140756232Y-63012222D01*
X140739169Y-62904486D01*
X140667400Y-62683604D01*
X140667398Y-62683601D01*
X140667398Y-62683599D01*
X140611776Y-62574436D01*
X140561961Y-62476669D01*
X140425449Y-62288776D01*
X140261224Y-62124551D01*
X140073331Y-61988039D01*
X139866400Y-61882601D01*
X139645514Y-61810831D01*
X139416129Y-61774500D01*
X139416124Y-61774500D01*
X139183876Y-61774500D01*
X139183871Y-61774500D01*
X138954485Y-61810831D01*
X138733599Y-61882601D01*
X138526668Y-61988039D01*
X138338773Y-62124553D01*
X138174553Y-62288773D01*
X138038039Y-62476668D01*
X137932601Y-62683599D01*
X137860831Y-62904485D01*
X137824500Y-63133870D01*
X134750500Y-63133870D01*
X134750500Y-56011220D01*
X134770185Y-55944181D01*
X134822989Y-55898426D01*
X134892147Y-55888482D01*
X134947386Y-55910902D01*
X135121207Y-56037191D01*
X135332275Y-56144736D01*
X135557577Y-56217942D01*
X135791549Y-56255000D01*
X136028451Y-56255000D01*
X136262422Y-56217942D01*
X136487724Y-56144736D01*
X136698792Y-56037191D01*
X136782685Y-55976238D01*
X136782686Y-55976238D01*
X136712140Y-55905692D01*
X136172796Y-55366348D01*
X136227364Y-55343746D01*
X136337100Y-55270423D01*
X136430423Y-55177100D01*
X136503746Y-55067364D01*
X136526348Y-55012796D01*
X137136238Y-55622686D01*
X137136238Y-55622685D01*
X137197191Y-55538792D01*
X137304736Y-55327724D01*
X137377942Y-55102422D01*
X137415000Y-54868451D01*
X137415000Y-54643753D01*
X138360000Y-54643753D01*
X138360000Y-54856246D01*
X138393242Y-55066127D01*
X138393242Y-55066130D01*
X138458904Y-55268217D01*
X138555375Y-55457550D01*
X138594728Y-55511716D01*
X139093650Y-55012794D01*
X139116254Y-55067364D01*
X139189577Y-55177100D01*
X139282900Y-55270423D01*
X139392636Y-55343746D01*
X139447204Y-55366348D01*
X138948282Y-55865269D01*
X138948282Y-55865270D01*
X139002449Y-55904624D01*
X139191782Y-56001095D01*
X139393870Y-56066757D01*
X139603754Y-56100000D01*
X139816246Y-56100000D01*
X140026127Y-56066757D01*
X140026130Y-56066757D01*
X140228217Y-56001095D01*
X140417554Y-55904622D01*
X140471716Y-55865270D01*
X140471717Y-55865270D01*
X139972795Y-55366349D01*
X140027364Y-55343746D01*
X140137100Y-55270423D01*
X140230423Y-55177100D01*
X140303746Y-55067364D01*
X140326349Y-55012795D01*
X140825270Y-55511717D01*
X140825270Y-55511716D01*
X140864622Y-55457554D01*
X140961095Y-55268217D01*
X141026757Y-55066130D01*
X141026757Y-55066127D01*
X141060000Y-54856246D01*
X141060000Y-54643753D01*
X141026757Y-54433872D01*
X141026757Y-54433869D01*
X140961095Y-54231782D01*
X140864624Y-54042449D01*
X140825270Y-53988282D01*
X140825269Y-53988282D01*
X140326348Y-54487203D01*
X140303746Y-54432636D01*
X140230423Y-54322900D01*
X140137100Y-54229577D01*
X140027364Y-54156254D01*
X139972795Y-54133650D01*
X140471716Y-53634728D01*
X140417550Y-53595375D01*
X140228217Y-53498904D01*
X140026129Y-53433242D01*
X139816246Y-53400000D01*
X139603754Y-53400000D01*
X139393872Y-53433242D01*
X139393869Y-53433242D01*
X139191782Y-53498904D01*
X139002439Y-53595380D01*
X138948282Y-53634727D01*
X138948282Y-53634728D01*
X139447204Y-54133650D01*
X139392636Y-54156254D01*
X139282900Y-54229577D01*
X139189577Y-54322900D01*
X139116254Y-54432636D01*
X139093650Y-54487204D01*
X138594728Y-53988282D01*
X138594727Y-53988282D01*
X138555380Y-54042439D01*
X138458904Y-54231782D01*
X138393242Y-54433869D01*
X138393242Y-54433872D01*
X138360000Y-54643753D01*
X137415000Y-54643753D01*
X137415000Y-54631548D01*
X137377942Y-54397577D01*
X137304736Y-54172275D01*
X137197189Y-53961203D01*
X137136239Y-53877313D01*
X137136238Y-53877312D01*
X136526348Y-54487202D01*
X136503746Y-54432636D01*
X136430423Y-54322900D01*
X136337100Y-54229577D01*
X136227364Y-54156254D01*
X136172795Y-54133650D01*
X136712141Y-53594306D01*
X136782685Y-53523761D01*
X136782685Y-53523759D01*
X136698795Y-53462810D01*
X136487724Y-53355263D01*
X136262422Y-53282057D01*
X136028451Y-53245000D01*
X135791549Y-53245000D01*
X135557577Y-53282057D01*
X135332275Y-53355263D01*
X135121204Y-53462810D01*
X134947385Y-53589097D01*
X134881579Y-53612577D01*
X134813525Y-53596751D01*
X134764830Y-53546646D01*
X134750500Y-53488779D01*
X134750500Y-47371220D01*
X134770185Y-47304181D01*
X134822989Y-47258426D01*
X134892147Y-47248482D01*
X134947386Y-47270902D01*
X135121207Y-47397191D01*
X135332275Y-47504736D01*
X135557577Y-47577942D01*
X135791549Y-47615000D01*
X136028451Y-47615000D01*
X136262422Y-47577942D01*
X136487724Y-47504736D01*
X136698792Y-47397191D01*
X136782685Y-47336238D01*
X136782686Y-47336238D01*
X136712140Y-47265692D01*
X136172796Y-46726348D01*
X136227364Y-46703746D01*
X136337100Y-46630423D01*
X136430423Y-46537100D01*
X136503746Y-46427364D01*
X136526348Y-46372796D01*
X137136238Y-46982686D01*
X137136238Y-46982685D01*
X137197191Y-46898792D01*
X137304736Y-46687724D01*
X137377942Y-46462422D01*
X137415000Y-46228451D01*
X137415000Y-46003753D01*
X138360000Y-46003753D01*
X138360000Y-46216246D01*
X138393242Y-46426127D01*
X138393242Y-46426130D01*
X138458904Y-46628217D01*
X138555375Y-46817550D01*
X138594728Y-46871716D01*
X139093650Y-46372794D01*
X139116254Y-46427364D01*
X139189577Y-46537100D01*
X139282900Y-46630423D01*
X139392636Y-46703746D01*
X139447204Y-46726348D01*
X138948282Y-47225269D01*
X138948282Y-47225270D01*
X139002449Y-47264624D01*
X139191782Y-47361095D01*
X139393870Y-47426757D01*
X139603754Y-47460000D01*
X139816246Y-47460000D01*
X140026127Y-47426757D01*
X140026130Y-47426757D01*
X140228217Y-47361095D01*
X140417554Y-47264622D01*
X140471716Y-47225270D01*
X140471717Y-47225270D01*
X139972795Y-46726349D01*
X140027364Y-46703746D01*
X140137100Y-46630423D01*
X140230423Y-46537100D01*
X140303746Y-46427364D01*
X140326349Y-46372795D01*
X140825270Y-46871717D01*
X140825270Y-46871716D01*
X140864622Y-46817554D01*
X140961095Y-46628217D01*
X141026757Y-46426130D01*
X141026757Y-46426127D01*
X141060000Y-46216246D01*
X141060000Y-46093870D01*
X158274500Y-46093870D01*
X158274500Y-46326129D01*
X158310831Y-46555514D01*
X158382601Y-46776400D01*
X158444964Y-46898792D01*
X158488039Y-46983331D01*
X158600483Y-47138098D01*
X158623963Y-47203903D01*
X158608138Y-47271957D01*
X158558032Y-47320652D01*
X158543501Y-47327163D01*
X158532672Y-47331202D01*
X158532664Y-47331206D01*
X158417455Y-47417452D01*
X158417452Y-47417455D01*
X158331206Y-47532664D01*
X158331202Y-47532671D01*
X158280908Y-47667517D01*
X158274501Y-47727116D01*
X158274501Y-47727123D01*
X158274500Y-47727135D01*
X158274500Y-49772870D01*
X158274501Y-49772876D01*
X158280908Y-49832483D01*
X158331202Y-49967328D01*
X158331206Y-49967335D01*
X158417452Y-50082544D01*
X158417455Y-50082547D01*
X158532664Y-50168793D01*
X158532671Y-50168797D01*
X158667517Y-50219091D01*
X158667516Y-50219091D01*
X158674444Y-50219835D01*
X158727127Y-50225500D01*
X160772872Y-50225499D01*
X160832483Y-50219091D01*
X160967331Y-50168796D01*
X161082546Y-50082546D01*
X161168796Y-49967331D01*
X161219091Y-49832483D01*
X161225500Y-49772873D01*
X161225499Y-47727128D01*
X161219091Y-47667517D01*
X161199503Y-47615000D01*
X161168797Y-47532671D01*
X161168793Y-47532664D01*
X161082547Y-47417455D01*
X161082544Y-47417452D01*
X160967335Y-47331206D01*
X160967324Y-47331200D01*
X160956500Y-47327163D01*
X160900566Y-47285292D01*
X160876150Y-47219827D01*
X160891002Y-47151554D01*
X160899503Y-47138115D01*
X161011961Y-46983331D01*
X161117400Y-46776396D01*
X161189169Y-46555514D01*
X161217845Y-46374457D01*
X161225500Y-46326129D01*
X161225500Y-46093870D01*
X161193192Y-45889889D01*
X161189169Y-45864486D01*
X161117400Y-45643604D01*
X161117398Y-45643601D01*
X161117398Y-45643599D01*
X161052512Y-45516254D01*
X161011961Y-45436669D01*
X160875449Y-45248776D01*
X160711224Y-45084551D01*
X160523331Y-44948039D01*
X160316400Y-44842601D01*
X160095514Y-44770831D01*
X159866129Y-44734500D01*
X159866124Y-44734500D01*
X159633876Y-44734500D01*
X159633871Y-44734500D01*
X159404485Y-44770831D01*
X159183599Y-44842601D01*
X158976668Y-44948039D01*
X158788773Y-45084553D01*
X158624553Y-45248773D01*
X158488039Y-45436668D01*
X158382601Y-45643599D01*
X158310831Y-45864485D01*
X158274500Y-46093870D01*
X141060000Y-46093870D01*
X141060000Y-46003753D01*
X141026757Y-45793872D01*
X141026757Y-45793869D01*
X140961095Y-45591782D01*
X140864624Y-45402449D01*
X140825270Y-45348282D01*
X140825269Y-45348282D01*
X140326348Y-45847203D01*
X140303746Y-45792636D01*
X140230423Y-45682900D01*
X140137100Y-45589577D01*
X140027364Y-45516254D01*
X139972795Y-45493650D01*
X140471716Y-44994728D01*
X140417550Y-44955375D01*
X140228217Y-44858904D01*
X140026129Y-44793242D01*
X139816246Y-44760000D01*
X139603754Y-44760000D01*
X139393872Y-44793242D01*
X139393869Y-44793242D01*
X139191782Y-44858904D01*
X139002439Y-44955380D01*
X138948282Y-44994727D01*
X138948282Y-44994728D01*
X139447204Y-45493650D01*
X139392636Y-45516254D01*
X139282900Y-45589577D01*
X139189577Y-45682900D01*
X139116254Y-45792636D01*
X139093650Y-45847204D01*
X138594728Y-45348282D01*
X138594727Y-45348282D01*
X138555380Y-45402439D01*
X138458904Y-45591782D01*
X138393242Y-45793869D01*
X138393242Y-45793872D01*
X138360000Y-46003753D01*
X137415000Y-46003753D01*
X137415000Y-45991548D01*
X137377942Y-45757577D01*
X137304736Y-45532275D01*
X137197189Y-45321203D01*
X137136239Y-45237313D01*
X137136238Y-45237312D01*
X136526348Y-45847202D01*
X136503746Y-45792636D01*
X136430423Y-45682900D01*
X136337100Y-45589577D01*
X136227364Y-45516254D01*
X136172795Y-45493650D01*
X136712141Y-44954306D01*
X136782685Y-44883761D01*
X136782685Y-44883759D01*
X136698795Y-44822810D01*
X136487724Y-44715263D01*
X136262422Y-44642057D01*
X136028451Y-44605000D01*
X135791549Y-44605000D01*
X135557577Y-44642057D01*
X135332275Y-44715263D01*
X135121204Y-44822810D01*
X134947385Y-44949097D01*
X134881579Y-44972577D01*
X134813525Y-44956751D01*
X134764830Y-44906646D01*
X134750500Y-44848779D01*
X134750500Y-40612332D01*
X137149500Y-40612332D01*
X137149500Y-40887667D01*
X137149501Y-40887684D01*
X137185438Y-41160655D01*
X137185439Y-41160660D01*
X137185440Y-41160666D01*
X137188145Y-41170760D01*
X137256704Y-41426630D01*
X137362075Y-41681017D01*
X137362080Y-41681028D01*
X137441809Y-41819120D01*
X137499751Y-41919479D01*
X137499753Y-41919482D01*
X137499754Y-41919483D01*
X137667370Y-42137926D01*
X137667376Y-42137933D01*
X137862066Y-42332623D01*
X137862071Y-42332627D01*
X137862072Y-42332628D01*
X138080521Y-42500249D01*
X138233778Y-42588732D01*
X138318971Y-42637919D01*
X138318976Y-42637921D01*
X138318979Y-42637923D01*
X138573368Y-42743295D01*
X138839334Y-42814560D01*
X139112326Y-42850500D01*
X139112333Y-42850500D01*
X139387667Y-42850500D01*
X139387674Y-42850500D01*
X139660666Y-42814560D01*
X139926632Y-42743295D01*
X140181021Y-42637923D01*
X140419479Y-42500249D01*
X140637928Y-42332628D01*
X140832628Y-42137928D01*
X141000249Y-41919479D01*
X141137923Y-41681021D01*
X141243295Y-41426632D01*
X141314560Y-41160666D01*
X141350500Y-40887674D01*
X141350500Y-40612331D01*
X157149500Y-40612331D01*
X157149500Y-40887666D01*
X157149501Y-40887683D01*
X157185438Y-41160654D01*
X157185439Y-41160659D01*
X157185440Y-41160665D01*
X157185441Y-41160667D01*
X157256704Y-41426629D01*
X157362075Y-41681016D01*
X157362080Y-41681027D01*
X157411028Y-41765806D01*
X157499751Y-41919478D01*
X157499752Y-41919479D01*
X157499754Y-41919482D01*
X157667370Y-42137925D01*
X157667376Y-42137932D01*
X157862066Y-42332622D01*
X157862073Y-42332628D01*
X157990403Y-42431098D01*
X158080521Y-42500248D01*
X158233778Y-42588731D01*
X158318971Y-42637918D01*
X158318976Y-42637920D01*
X158318979Y-42637922D01*
X158573368Y-42743294D01*
X158839334Y-42814559D01*
X159112326Y-42850499D01*
X159112333Y-42850499D01*
X159387667Y-42850499D01*
X159387674Y-42850499D01*
X159660666Y-42814559D01*
X159926632Y-42743294D01*
X160181021Y-42637922D01*
X160419479Y-42500248D01*
X160637928Y-42332627D01*
X160832628Y-42137927D01*
X161000249Y-41919478D01*
X161137923Y-41681020D01*
X161243295Y-41426631D01*
X161314560Y-41160665D01*
X161350500Y-40887673D01*
X161350500Y-40612325D01*
X161314560Y-40339333D01*
X161243295Y-40073367D01*
X161137923Y-39818978D01*
X161137919Y-39818971D01*
X161137919Y-39818970D01*
X161058191Y-39680879D01*
X161000249Y-39580520D01*
X160832628Y-39362071D01*
X160832623Y-39362065D01*
X160637933Y-39167375D01*
X160637926Y-39167369D01*
X160419483Y-38999753D01*
X160419480Y-38999751D01*
X160419479Y-38999750D01*
X160324407Y-38944860D01*
X160181028Y-38862079D01*
X160181017Y-38862074D01*
X159926630Y-38756703D01*
X159793649Y-38721071D01*
X159660666Y-38685439D01*
X159660660Y-38685438D01*
X159660655Y-38685437D01*
X159387684Y-38649500D01*
X159387679Y-38649499D01*
X159387674Y-38649499D01*
X159112326Y-38649499D01*
X159112320Y-38649499D01*
X159112315Y-38649500D01*
X158839344Y-38685437D01*
X158839337Y-38685438D01*
X158839334Y-38685439D01*
X158839327Y-38685441D01*
X158573369Y-38756703D01*
X158318982Y-38862074D01*
X158318971Y-38862079D01*
X158080516Y-38999753D01*
X157862073Y-39167369D01*
X157862066Y-39167375D01*
X157667376Y-39362065D01*
X157667370Y-39362072D01*
X157499754Y-39580515D01*
X157499751Y-39580519D01*
X157499751Y-39580520D01*
X157490752Y-39596105D01*
X157362080Y-39818970D01*
X157362075Y-39818981D01*
X157256704Y-40073368D01*
X157256704Y-40073369D01*
X157188145Y-40329240D01*
X157185441Y-40339330D01*
X157185438Y-40339343D01*
X157149501Y-40612314D01*
X157149500Y-40612331D01*
X141350500Y-40612331D01*
X141350500Y-40612326D01*
X141350498Y-40612314D01*
X141314561Y-40339344D01*
X141314561Y-40339343D01*
X141314560Y-40339334D01*
X141243295Y-40073368D01*
X141137923Y-39818979D01*
X141137921Y-39818976D01*
X141137919Y-39818971D01*
X141088732Y-39733778D01*
X141000249Y-39580521D01*
X140832628Y-39362072D01*
X140832627Y-39362071D01*
X140832623Y-39362066D01*
X140637933Y-39167376D01*
X140637926Y-39167370D01*
X140419483Y-38999754D01*
X140419482Y-38999753D01*
X140419479Y-38999751D01*
X140324407Y-38944861D01*
X140181028Y-38862080D01*
X140181017Y-38862075D01*
X139926630Y-38756704D01*
X139793649Y-38721072D01*
X139660666Y-38685440D01*
X139660660Y-38685439D01*
X139660655Y-38685438D01*
X139387684Y-38649501D01*
X139387679Y-38649500D01*
X139387674Y-38649500D01*
X139112326Y-38649500D01*
X139112320Y-38649500D01*
X139112315Y-38649501D01*
X138839344Y-38685438D01*
X138839337Y-38685439D01*
X138839334Y-38685440D01*
X138783125Y-38700500D01*
X138573369Y-38756704D01*
X138318982Y-38862075D01*
X138318971Y-38862080D01*
X138080516Y-38999754D01*
X137862073Y-39167370D01*
X137862066Y-39167376D01*
X137667376Y-39362066D01*
X137667370Y-39362073D01*
X137499754Y-39580516D01*
X137362080Y-39818971D01*
X137362075Y-39818982D01*
X137256704Y-40073369D01*
X137229335Y-40175513D01*
X137185441Y-40339333D01*
X137185438Y-40339344D01*
X137149501Y-40612315D01*
X137149500Y-40612332D01*
X134750500Y-40612332D01*
X134750500Y-38374500D01*
X134770185Y-38307461D01*
X134822989Y-38261706D01*
X134874500Y-38250500D01*
X163625500Y-38250500D01*
X163692539Y-38270185D01*
G37*
%TD.AperFunction*%
%TD*%
D30*
%TO.P,C5,1*%
%TO.N,-12V*%
X149450000Y-99750000D03*
%TO.P,C5,2*%
%TO.N,GND*%
X151000000Y-99750000D03*
%TD*%
D31*
%TO.P,R2,1*%
%TO.N,Net-(J1-CC2)*%
X145750000Y-55750000D03*
%TO.P,R2,2*%
%TO.N,GND*%
X142825000Y-55750000D03*
%TD*%
D32*
%TO.P,J1,A5,CC1*%
%TO.N,Net-(J1-CC1)*%
X140000000Y-49930000D03*
D33*
%TO.P,J1,A9,VBUS_1*%
%TO.N,Net-(J1-VBUS_1)*%
X140000000Y-51950000D03*
D34*
%TO.P,J1,A12,GND_1*%
%TO.N,GND*%
X140000000Y-53180000D03*
D32*
%TO.P,J1,B5,CC2*%
%TO.N,Net-(J1-CC2)*%
X140000000Y-50930000D03*
D33*
%TO.P,J1,B9,VBUS_2*%
%TO.N,Net-(J1-VBUS_1)*%
X140000000Y-48910000D03*
D34*
%TO.P,J1,B12,GND_2*%
%TO.N,GND*%
X140000000Y-47680000D03*
D22*
%TO.P,J1,MH1,MH1*%
X139710000Y-46110000D03*
%TO.P,J1,MH2,MH2*%
X139710000Y-54750000D03*
D23*
%TO.P,J1,MH3,MH3*%
X135910000Y-46110000D03*
%TO.P,J1,MH4,MH4*%
X135910000Y-54750000D03*
%TD*%
D35*
%TO.P,C2,1*%
%TO.N,+5V*%
X150475000Y-55225000D03*
%TO.P,C2,2*%
%TO.N,GND*%
X150475000Y-56775000D03*
%TD*%
D36*
%TO.P,R4,1*%
%TO.N,-12V*%
X144000000Y-95535000D03*
%TO.P,R4,2*%
%TO.N,Net-(D4-K)*%
X144000000Y-98460000D03*
%TD*%
D37*
%TO.P,C1,1*%
%TO.N,+5V*%
X153250000Y-49000000D03*
%TO.P,C1,2*%
%TO.N,GND*%
X147850000Y-49000000D03*
%TD*%
D31*
%TO.P,R1,1*%
%TO.N,Net-(J1-CC1)*%
X145750000Y-45250000D03*
%TO.P,R1,2*%
%TO.N,GND*%
X142825000Y-45250000D03*
%TD*%
D38*
%TO.P,D1,1,K*%
%TO.N,+5V*%
X152750000Y-41750000D03*
%TO.P,D1,2,A*%
%TO.N,GND*%
X148350000Y-41750000D03*
%TD*%
D36*
%TO.P,R5,1*%
%TO.N,+5V*%
X144000000Y-89825000D03*
%TO.P,R5,2*%
%TO.N,Net-(D3-A)*%
X144000000Y-92750000D03*
%TD*%
%TO.P,R3,1*%
%TO.N,+12V*%
X144000000Y-101075000D03*
%TO.P,R3,2*%
%TO.N,Net-(D2-A)*%
X144000000Y-104000000D03*
%TD*%
D39*
%TO.P,C6,1*%
%TO.N,+12V*%
X159000000Y-89800000D03*
%TO.P,C6,2*%
%TO.N,GND*%
X159000000Y-95200000D03*
%TD*%
D40*
%TO.P,C8,1*%
%TO.N,+5V*%
X143025000Y-118750000D03*
%TO.P,C8,2*%
%TO.N,GND*%
X141475000Y-118750000D03*
%TD*%
D39*
%TO.P,C4,1*%
%TO.N,-12V*%
X150250000Y-89800000D03*
%TO.P,C4,2*%
%TO.N,GND*%
X150250000Y-95200000D03*
%TD*%
D30*
%TO.P,C7,1*%
%TO.N,+12V*%
X158200000Y-99750000D03*
%TO.P,C7,2*%
%TO.N,GND*%
X159750000Y-99750000D03*
%TD*%
D41*
%TO.P,F1,1*%
%TO.N,+5V*%
X160500000Y-52612500D03*
%TO.P,F1,2*%
%TO.N,/+Vin*%
X160500000Y-56887500D03*
%TD*%
D35*
%TO.P,C3,1*%
%TO.N,+5V*%
X155250000Y-55200000D03*
%TO.P,C3,2*%
%TO.N,GND*%
X155250000Y-56750000D03*
%TD*%
D24*
%TO.P,J2,1,P1*%
%TO.N,unconnected-(J2-P1-Pad1)*%
X139970000Y-109710000D03*
%TO.P,J2,2,P2*%
%TO.N,unconnected-(J2-P2-Pad2)*%
X139970000Y-112250000D03*
%TO.P,J2,3,P3*%
%TO.N,unconnected-(J2-P3-Pad3)*%
X142510000Y-109710000D03*
%TO.P,J2,4,P4*%
%TO.N,unconnected-(J2-P4-Pad4)*%
X142510000Y-112250000D03*
%TO.P,J2,5,+12V*%
%TO.N,+5V*%
X145050000Y-109710000D03*
%TO.P,J2,6,P6*%
X145050000Y-112250000D03*
%TO.P,J2,7,12V*%
%TO.N,+12V*%
X147590000Y-109710000D03*
%TO.P,J2,8,+12V*%
X147590000Y-112250000D03*
%TO.P,J2,9,GND*%
%TO.N,GND*%
X150130000Y-109710000D03*
%TO.P,J2,10,GND*%
X150130000Y-112250000D03*
%TO.P,J2,11,GND*%
X152670000Y-109710000D03*
%TO.P,J2,12,GND*%
X152670000Y-112250000D03*
%TO.P,J2,13,-12*%
X155210000Y-109710000D03*
%TO.P,J2,14,-12V*%
X155210000Y-112250000D03*
%TO.P,J2,15,-12V*%
%TO.N,-12V*%
X157750000Y-109710000D03*
%TO.P,J2,16,P16*%
X157750000Y-112250000D03*
%TD*%
D25*
%TO.P,D2,1,K*%
%TO.N,GND*%
X137750000Y-101460000D03*
D26*
%TO.P,D2,2,A*%
%TO.N,Net-(D2-A)*%
X137750000Y-104000000D03*
%TD*%
D27*
%TO.P,J6,1,1*%
%TO.N,Net-(J1-VBUS_1)*%
X159750000Y-48750000D03*
D28*
%TO.P,J6,2,2*%
%TO.N,+5V*%
X159750000Y-46210000D03*
%TD*%
%TO.P,PS1,1,+VIN*%
%TO.N,/+Vin*%
X152000000Y-63250000D03*
%TO.P,PS1,2,-VIN*%
%TO.N,GND*%
X146920000Y-63250000D03*
%TO.P,PS1,3,+VOUT*%
%TO.N,+12V*%
X159620000Y-83570000D03*
%TO.P,PS1,4,COMMON*%
%TO.N,GND*%
X149460000Y-83570000D03*
%TO.P,PS1,5,-VOUT*%
%TO.N,-12V*%
X139300000Y-83570000D03*
%TO.P,PS1,6,R.C.*%
%TO.N,unconnected-(PS1-R.C.-Pad6)*%
X139300000Y-63250000D03*
%TD*%
D25*
%TO.P,D4,1,K*%
%TO.N,Net-(D4-K)*%
X137750000Y-95710000D03*
D26*
%TO.P,D4,2,A*%
%TO.N,GND*%
X137750000Y-98250000D03*
%TD*%
D24*
%TO.P,J3,1,P1*%
%TO.N,unconnected-(J3-P1-Pad1)*%
X139970000Y-125000000D03*
%TO.P,J3,2,P2*%
%TO.N,unconnected-(J3-P2-Pad2)*%
X139970000Y-127540000D03*
%TO.P,J3,3,P3*%
%TO.N,unconnected-(J3-P3-Pad3)*%
X142510000Y-125000000D03*
%TO.P,J3,4,P4*%
%TO.N,unconnected-(J3-P4-Pad4)*%
X142510000Y-127540000D03*
%TO.P,J3,5,+12V*%
%TO.N,+5V*%
X145050000Y-125000000D03*
%TO.P,J3,6,P6*%
X145050000Y-127540000D03*
%TO.P,J3,7,12V*%
%TO.N,+12V*%
X147590000Y-125000000D03*
%TO.P,J3,8,+12V*%
X147590000Y-127540000D03*
%TO.P,J3,9,GND*%
%TO.N,GND*%
X150130000Y-125000000D03*
%TO.P,J3,10,GND*%
X150130000Y-127540000D03*
%TO.P,J3,11,GND*%
X152670000Y-125000000D03*
%TO.P,J3,12,GND*%
X152670000Y-127540000D03*
%TO.P,J3,13,-12*%
X155210000Y-125000000D03*
%TO.P,J3,14,-12V*%
X155210000Y-127540000D03*
%TO.P,J3,15,-12V*%
%TO.N,-12V*%
X157750000Y-125000000D03*
%TO.P,J3,16,P16*%
X157750000Y-127540000D03*
%TD*%
D25*
%TO.P,D3,1,K*%
%TO.N,GND*%
X137750000Y-89960000D03*
D26*
%TO.P,D3,2,A*%
%TO.N,Net-(D3-A)*%
X137750000Y-92500000D03*
%TD*%
D29*
%TO.N,GND*%
X144500000Y-41750000D03*
X141500000Y-55750000D03*
X155210000Y-121500000D03*
X140000000Y-90000000D03*
X135910000Y-50250000D03*
X139250000Y-118750000D03*
X152500000Y-97500000D03*
X150130000Y-116250000D03*
X161500000Y-97500000D03*
X146920000Y-69000000D03*
X153000000Y-56775000D03*
X140250000Y-99750000D03*
X152670000Y-118750000D03*
X149460000Y-76500000D03*
X141500000Y-45250000D03*
X147850000Y-44750000D03*
%TD*%
D42*
%TO.N,GND*%
X150130000Y-127540000D02*
X150130000Y-125000000D01*
X146920000Y-69920000D02*
X149500000Y-72500000D01*
X161000000Y-99750000D02*
X161500000Y-99250000D01*
X152500000Y-97500000D02*
X152500000Y-95750000D01*
X150130000Y-116250000D02*
X150130000Y-112250000D01*
X152670000Y-125000000D02*
X152670000Y-127540000D01*
X141500000Y-55750000D02*
X140710000Y-55750000D01*
X149460000Y-76500000D02*
X149460000Y-83570000D01*
X150130000Y-125000000D02*
X152670000Y-125000000D01*
X152670000Y-112250000D02*
X152670000Y-118750000D01*
X149460000Y-72540000D02*
X149460000Y-76500000D01*
X140710000Y-55750000D02*
X139710000Y-54750000D01*
X152670000Y-127540000D02*
X155210000Y-127540000D01*
X161500000Y-99250000D02*
X161500000Y-97500000D01*
X155210000Y-109710000D02*
X155210000Y-112250000D01*
X140570000Y-45250000D02*
X141500000Y-45250000D01*
X141475000Y-118750000D02*
X139250000Y-118750000D01*
X147850000Y-42250000D02*
X148350000Y-41750000D01*
X161200000Y-95200000D02*
X159000000Y-95200000D01*
X142825000Y-43425000D02*
X144500000Y-41750000D01*
X140000000Y-98250000D02*
X140250000Y-98500000D01*
X152670000Y-112250000D02*
X155210000Y-112250000D01*
X147850000Y-44750000D02*
X147850000Y-42250000D01*
X150130000Y-118750000D02*
X150130000Y-116250000D01*
X150130000Y-112250000D02*
X152670000Y-112250000D01*
X140250000Y-100750000D02*
X140250000Y-99750000D01*
X152670000Y-125000000D02*
X155210000Y-125000000D01*
X152670000Y-118750000D02*
X152670000Y-125000000D01*
X142825000Y-45250000D02*
X142825000Y-43425000D01*
X155210000Y-125000000D02*
X155210000Y-121500000D01*
X153000000Y-56775000D02*
X155225000Y-56775000D01*
X152670000Y-109710000D02*
X155210000Y-109710000D01*
X139710000Y-54750000D02*
X135910000Y-54750000D01*
X151000000Y-99750000D02*
X152000000Y-99750000D01*
X150130000Y-109710000D02*
X152670000Y-109710000D01*
X161500000Y-95500000D02*
X161200000Y-95200000D01*
X140000000Y-54460000D02*
X139710000Y-54750000D01*
X151950000Y-95200000D02*
X150250000Y-95200000D01*
X149500000Y-72500000D02*
X149460000Y-72540000D01*
X135910000Y-50250000D02*
X135910000Y-46110000D01*
X155210000Y-118750000D02*
X155210000Y-112250000D01*
X137750000Y-101460000D02*
X139540000Y-101460000D01*
X140250000Y-98500000D02*
X140250000Y-99750000D01*
X155225000Y-56775000D02*
X155250000Y-56750000D01*
X139540000Y-101460000D02*
X140250000Y-100750000D01*
X140000000Y-53180000D02*
X140000000Y-54460000D01*
X139710000Y-46110000D02*
X140570000Y-45250000D01*
X152500000Y-99250000D02*
X152500000Y-97500000D01*
X155210000Y-121500000D02*
X155210000Y-118750000D01*
X135910000Y-54750000D02*
X135910000Y-50250000D01*
X147850000Y-49000000D02*
X147850000Y-44750000D01*
X137750000Y-98250000D02*
X140000000Y-98250000D01*
X150475000Y-62275000D02*
X150475000Y-56775000D01*
X159750000Y-99750000D02*
X161000000Y-99750000D01*
X152000000Y-99750000D02*
X152500000Y-99250000D01*
X139710000Y-46110000D02*
X139710000Y-47390000D01*
X139960000Y-89960000D02*
X140000000Y-90000000D01*
X146920000Y-63250000D02*
X146920000Y-69000000D01*
X146920000Y-63250000D02*
X149500000Y-63250000D01*
X161500000Y-97500000D02*
X161500000Y-95500000D01*
X149500000Y-63250000D02*
X150475000Y-62275000D01*
X150475000Y-56775000D02*
X153000000Y-56775000D01*
X144500000Y-41750000D02*
X148350000Y-41750000D01*
X152500000Y-95750000D02*
X151950000Y-95200000D01*
X150130000Y-127540000D02*
X152670000Y-127540000D01*
X141500000Y-45250000D02*
X142825000Y-45250000D01*
X142825000Y-55750000D02*
X141500000Y-55750000D01*
X137750000Y-89960000D02*
X139960000Y-89960000D01*
X150130000Y-125000000D02*
X150130000Y-118750000D01*
X139710000Y-47390000D02*
X140000000Y-47680000D01*
X152670000Y-109710000D02*
X152670000Y-112250000D01*
X155210000Y-127540000D02*
X155210000Y-125000000D01*
X146920000Y-69000000D02*
X146920000Y-69920000D01*
X150130000Y-112250000D02*
X150130000Y-109710000D01*
%TO.N,+5V*%
X144000000Y-89825000D02*
X144000000Y-88000000D01*
X145050000Y-108050000D02*
X145050000Y-109710000D01*
X159750000Y-46210000D02*
X159210000Y-46210000D01*
X147750000Y-56000000D02*
X148525000Y-55225000D01*
X135500000Y-60500000D02*
X136250000Y-59750000D01*
X155225000Y-55225000D02*
X155250000Y-55200000D01*
X136750000Y-87500000D02*
X135500000Y-86250000D01*
X147750000Y-58500000D02*
X147750000Y-56000000D01*
X145050000Y-125000000D02*
X145050000Y-127540000D01*
X160500000Y-52612500D02*
X158612500Y-52612500D01*
X144000000Y-88000000D02*
X143500000Y-87500000D01*
X153250000Y-51500000D02*
X153250000Y-49000000D01*
X145050000Y-109710000D02*
X145050000Y-112250000D01*
X154750000Y-41750000D02*
X152750000Y-41750000D01*
X136250000Y-59750000D02*
X146500000Y-59750000D01*
X157000000Y-47500000D02*
X158290000Y-46210000D01*
X148525000Y-55225000D02*
X150475000Y-55225000D01*
X135500000Y-106250000D02*
X136750000Y-107500000D01*
X158612500Y-52612500D02*
X157000000Y-51000000D01*
X144500000Y-107500000D02*
X145050000Y-108050000D01*
X143750000Y-118750000D02*
X143025000Y-118750000D01*
X145050000Y-117000000D02*
X145050000Y-125000000D01*
X157000000Y-51000000D02*
X157000000Y-47500000D01*
X155250000Y-55200000D02*
X155250000Y-53500000D01*
X145050000Y-112250000D02*
X145050000Y-117000000D01*
X143500000Y-87500000D02*
X136750000Y-87500000D01*
X158290000Y-46210000D02*
X159750000Y-46210000D01*
X146500000Y-59750000D02*
X147750000Y-58500000D01*
X150475000Y-55225000D02*
X155225000Y-55225000D01*
X135500000Y-86250000D02*
X135500000Y-106250000D01*
X153250000Y-42250000D02*
X152750000Y-41750000D01*
X155250000Y-53500000D02*
X153250000Y-51500000D01*
X159210000Y-46210000D02*
X154750000Y-41750000D01*
X145050000Y-117450000D02*
X143750000Y-118750000D01*
X136750000Y-107500000D02*
X144500000Y-107500000D01*
X135500000Y-86250000D02*
X135500000Y-60500000D01*
X145050000Y-117000000D02*
X145050000Y-117450000D01*
X153250000Y-49000000D02*
X153250000Y-42250000D01*
%TO.N,-12V*%
X157750000Y-103750000D02*
X156500000Y-102500000D01*
X139300000Y-83570000D02*
X141980000Y-86250000D01*
X148000000Y-93750000D02*
X148000000Y-90750000D01*
X146215000Y-95535000D02*
X148000000Y-93750000D01*
X141980000Y-86250000D02*
X149500000Y-86250000D01*
X157750000Y-112250000D02*
X157750000Y-125000000D01*
X141750000Y-100500000D02*
X142500000Y-99750000D01*
X156500000Y-102500000D02*
X142250000Y-102500000D01*
X148000000Y-97000000D02*
X148000000Y-93750000D01*
X148950000Y-89800000D02*
X150250000Y-89800000D01*
X150250000Y-87000000D02*
X150250000Y-89800000D01*
X157750000Y-109710000D02*
X157750000Y-103750000D01*
X142500000Y-99750000D02*
X149450000Y-99750000D01*
X144000000Y-95535000D02*
X146215000Y-95535000D01*
X149450000Y-98450000D02*
X148000000Y-97000000D01*
X142250000Y-102500000D02*
X141750000Y-102000000D01*
X149450000Y-99750000D02*
X149450000Y-98450000D01*
X157750000Y-127540000D02*
X157750000Y-125000000D01*
X141750000Y-102000000D02*
X141750000Y-100500000D01*
X157750000Y-112250000D02*
X157750000Y-109710000D01*
X148000000Y-90750000D02*
X148950000Y-89800000D01*
X149500000Y-86250000D02*
X150250000Y-87000000D01*
%TO.N,+12V*%
X155675000Y-101075000D02*
X156750000Y-100000000D01*
X156750000Y-92050000D02*
X156750000Y-97250000D01*
X148750000Y-130000000D02*
X159000000Y-130000000D01*
X144000000Y-101075000D02*
X155675000Y-101075000D01*
X160250000Y-128750000D02*
X160250000Y-104250000D01*
X158200000Y-98700000D02*
X158200000Y-99750000D01*
X158200000Y-102200000D02*
X158200000Y-99750000D01*
X147590000Y-125000000D02*
X147590000Y-112250000D01*
X159000000Y-89800000D02*
X156750000Y-92050000D01*
X160250000Y-104250000D02*
X158200000Y-102200000D01*
X156750000Y-100000000D02*
X156750000Y-97250000D01*
X147590000Y-112250000D02*
X147590000Y-109710000D01*
X147590000Y-127540000D02*
X147590000Y-125000000D01*
X147590000Y-127540000D02*
X147590000Y-128840000D01*
X159000000Y-89800000D02*
X159000000Y-86000000D01*
X159000000Y-130000000D02*
X160250000Y-128750000D01*
X159620000Y-83570000D02*
X159620000Y-85380000D01*
X159000000Y-86000000D02*
X159620000Y-85380000D01*
X147590000Y-128840000D02*
X148750000Y-130000000D01*
X156750000Y-97250000D02*
X158200000Y-98700000D01*
%TO.N,Net-(D2-A)*%
X144000000Y-104000000D02*
X137750000Y-104000000D01*
%TO.N,Net-(D3-A)*%
X144000000Y-92750000D02*
X138000000Y-92750000D01*
X138000000Y-92750000D02*
X137750000Y-92500000D01*
%TO.N,Net-(D4-K)*%
X140210000Y-95710000D02*
X137750000Y-95710000D01*
X144000000Y-98460000D02*
X142960000Y-98460000D01*
X142960000Y-98460000D02*
X140210000Y-95710000D01*
%TO.N,Net-(J1-CC2)*%
X143180000Y-50930000D02*
X145750000Y-53500000D01*
X145750000Y-53500000D02*
X145750000Y-55750000D01*
X140000000Y-50930000D02*
X143180000Y-50930000D01*
%TO.N,Net-(J1-VBUS_1)*%
X138450000Y-51950000D02*
X140000000Y-51950000D01*
X162250000Y-48000000D02*
X162250000Y-44750000D01*
X140000000Y-48910000D02*
X138910000Y-48910000D01*
X137750000Y-44500000D02*
X137750000Y-47750000D01*
X137750000Y-51250000D02*
X138450000Y-51950000D01*
X160750000Y-43250000D02*
X157750000Y-43250000D01*
X157750000Y-43250000D02*
X156250000Y-41750000D01*
X138500000Y-43750000D02*
X137750000Y-44500000D01*
X161500000Y-48750000D02*
X162250000Y-48000000D01*
X155500000Y-39000000D02*
X144750000Y-39000000D01*
X137750000Y-47750000D02*
X137750000Y-51250000D01*
X162250000Y-44750000D02*
X160750000Y-43250000D01*
X156250000Y-39750000D02*
X155500000Y-39000000D01*
X144750000Y-39000000D02*
X144000000Y-39750000D01*
X144000000Y-40250000D02*
X144000000Y-39750000D01*
X159750000Y-48750000D02*
X161500000Y-48750000D01*
X138910000Y-48910000D02*
X137750000Y-47750000D01*
X140500000Y-43750000D02*
X138500000Y-43750000D01*
X140500000Y-43750000D02*
X144000000Y-40250000D01*
X156250000Y-41750000D02*
X156250000Y-39750000D01*
%TO.N,Net-(J1-CC1)*%
X145750000Y-47250000D02*
X145750000Y-45250000D01*
X140000000Y-49930000D02*
X143070000Y-49930000D01*
X143070000Y-49930000D02*
X145750000Y-47250000D01*
%TO.N,/+Vin*%
X160500000Y-56887500D02*
X158362500Y-56887500D01*
X158362500Y-56887500D02*
X152000000Y-63250000D01*
%TD*%
M02*
